<svg width="200" height="200" viewBox="0 0 200 200" fill="none" xmlns="http://www.w3.org/2000/svg">
<path d="M0 0H200V200H0V0Z" fill="url(#paint0_linear_1_30)"/>
<path d="M99.6297 171.852C99.3707 171.904 99.1034 171.898 98.8471 171.834C98.5909 171.77 98.3521 171.649 98.1482 171.482L37.4074 136.667C36.9531 136.404 36.5765 136.026 36.3162 135.571C36.056 135.115 35.9213 134.599 35.926 134.074V63.3333C35.9213 62.8087 36.056 62.2923 36.3162 61.8368C36.5765 61.3813 36.9531 61.003 37.4074 60.7408L92.963 28.5185C93.5297 28.1477 94.2064 27.9822 94.8803 28.0495C95.5542 28.1169 96.1847 28.4132 96.6667 28.8889C97.1475 29.53 97.4075 30.3097 97.4075 31.1111V61.4815C97.4122 62.0061 97.2775 62.5226 97.0172 62.9781C96.7569 63.4336 96.3803 63.8118 95.926 64.0741L68.1482 80V117.037L99.6297 135.185L127.037 119.259C127.429 119.024 127.877 118.9 128.333 118.9C128.79 118.9 129.238 119.024 129.63 119.259L155.926 134.444C156.243 134.672 156.512 134.961 156.717 135.293C156.922 135.625 157.06 135.994 157.122 136.38C157.184 136.765 157.169 137.159 157.078 137.539C156.987 137.919 156.822 138.277 156.593 138.593C156.409 138.85 156.184 139.076 155.926 139.259L100.37 171.111L99.6297 171.852ZM41.4815 131.852L100.741 166.296L151.852 136.667L130.741 124.444L102.222 140.741C101.82 140.943 101.376 141.048 100.926 141.048C100.476 141.048 100.032 140.943 99.6297 140.741L64.0741 120.37C63.6723 120.14 63.3295 119.819 63.0724 119.433C62.8154 119.048 62.6512 118.608 62.5926 118.148V78.5185C62.6512 78.0589 62.8154 77.619 63.0724 77.2335C63.3295 76.8479 63.6723 76.5271 64.0741 76.2963L91.8519 60.3704V35.5556L41.4815 65.1852V131.852ZM161.111 130.741C160.608 130.657 160.113 130.533 159.63 130.37L133.333 114.815C132.932 114.584 132.589 114.263 132.332 113.878C132.075 113.492 131.91 113.052 131.852 112.593V80.3704L104.074 64.4445C103.62 64.1822 103.243 63.8039 102.983 63.3484C102.723 62.8929 102.588 62.3765 102.593 61.8519V31.1111C102.588 30.5865 102.723 30.0701 102.983 29.6146C103.243 29.159 103.62 28.7808 104.074 28.5185C104.466 28.2835 104.914 28.1593 105.37 28.1593C105.827 28.1593 106.275 28.2835 106.667 28.5185L162.593 60.7408C163.047 61.003 163.424 61.3813 163.684 61.8368C163.944 62.2923 164.079 62.8087 164.074 63.3333V127.778C164.016 128.237 163.851 128.677 163.594 129.063C163.337 129.448 162.994 129.769 162.593 130C162.161 130.356 161.655 130.609 161.111 130.741ZM137.407 110.741L158.519 122.963V65.1852L108.148 35.5556V60L135.926 76.2963C136.328 76.5271 136.671 76.8479 136.928 77.2335C137.185 77.619 137.349 78.0589 137.407 78.5185V110.741Z" fill="white"/>
<defs>
<linearGradient id="paint0_linear_1_30" x1="-196.24" y1="396.228" x2="196.597" y2="3.39108" gradientUnits="userSpaceOnUse">
<stop stop-color="#C8511B"/>
<stop offset="1" stop-color="#FF9900"/>
</linearGradient>
</defs>
</svg>
