<svg width="250" height="200" viewBox="0 0 250 200" fill="none" xmlns="http://www.w3.org/2000/svg">
<path d="M223.214 0H26.7857C19.6806 0 12.8689 2.6339 7.84439 7.32143C2.82204 12.0108 0 18.3686 0 25V175C0 181.631 2.82204 187.989 7.84439 192.679C12.8687 197.366 19.6806 200 26.7857 200H223.214C230.319 200 237.131 197.366 242.156 192.679C247.178 187.989 250 181.631 250 175V25C250 18.3686 247.178 12.011 242.156 7.32143C237.131 2.6339 230.319 0 223.214 0ZM86.6684 80.8905L59.8826 105.89C58.2205 107.499 55.9326 108.415 53.5388 108.435C51.1432 108.454 48.8413 107.576 47.1474 105.995C45.4534 104.414 44.5127 102.265 44.5327 100.029C44.5546 97.7954 45.5351 95.66 47.2591 94.1085L67.731 74.9994L47.2591 55.8904C45.5352 54.339 44.5546 52.2036 44.5327 49.9694C44.5127 47.7336 45.4534 45.5851 47.1474 44.0042C48.8415 42.4231 51.1434 41.5451 53.5388 41.5637C55.9323 41.5842 58.2203 42.4993 59.8826 44.1084L86.6684 69.1084C88.3424 70.6709 89.2832 72.7896 89.2832 74.9993C89.2832 77.2091 88.3424 79.328 86.6684 80.8905ZM160.714 108.333H116.071C112.881 108.333 109.933 106.744 108.339 104.166C106.744 101.588 106.744 98.4109 108.339 95.8329C109.933 93.2548 112.881 91.6662 116.071 91.6662H160.714C163.905 91.6662 166.853 93.2547 168.447 95.8329C170.041 98.411 170.041 101.588 168.447 104.166C166.853 106.744 163.905 108.333 160.714 108.333Z" fill="black"/>
</svg>
