<svg width="200" height="200" viewBox="0 0 200 200" fill="none" xmlns="http://www.w3.org/2000/svg">
<path d="M99.3394 5.30618C97.6655 5.40109 96.0263 5.83589 94.5159 6.58559L28.6512 39.0185C26.9472 39.8484 25.4476 41.0651 24.265 42.5774C23.0823 44.0896 22.2474 45.8582 21.8226 47.7505L5.58302 120.574C5.20888 122.254 5.16778 123.994 5.4622 125.69C5.75662 127.386 6.3805 129.003 7.29638 130.445C7.51986 130.797 7.75574 131.142 8.01026 131.468L53.6003 189.88C54.7857 191.394 56.2855 192.615 57.9894 193.453C59.6933 194.291 61.5579 194.725 63.4459 194.722H136.555C138.443 194.725 140.306 194.292 142.01 193.455C143.714 192.618 145.214 191.399 146.401 189.886L191.972 131.468C193.15 129.963 193.981 128.203 194.404 126.32C194.826 124.436 194.829 122.478 194.412 120.593L178.135 47.7121C177.709 45.8202 176.874 44.052 175.692 42.5399C174.509 41.0277 173.01 39.8108 171.306 38.9801L105.448 6.5664C103.544 5.63131 101.445 5.19826 99.3394 5.30618Z" fill="#326CE5"/>
<path d="M99.3021 0.0159487C97.5384 0.111392 95.8104 0.565791 94.2179 1.35293L24.6906 35.5771C22.8938 36.456 21.3126 37.7414 20.0648 39.3374C18.8169 40.9335 17.9345 42.799 17.4833 44.7952L0.337397 121.719C-0.0611742 123.492 -0.107138 125.329 0.202274 127.12C0.511686 128.911 1.17007 130.619 2.13766 132.14C2.37356 132.511 2.62809 132.87 2.89503 133.215L51.0179 194.882C52.2691 196.483 53.8529 197.773 55.6525 198.659C57.4521 199.545 59.4216 200.003 61.4159 200H138.591C140.585 200.002 142.554 199.543 144.354 198.657C146.153 197.771 147.737 196.482 148.989 194.882L197.094 133.209C198.342 131.616 199.222 129.752 199.667 127.757C200.112 125.762 200.111 123.688 199.664 121.694L182.487 44.7952C182.038 42.8007 181.157 40.9364 179.912 39.3414C178.666 37.7463 177.087 36.4618 175.292 35.5835L105.758 1.35933C103.747 0.367428 101.529 -0.0941868 99.3021 0.0159487ZM99.3394 5.2935C101.447 5.18831 103.547 5.62812 105.448 6.5729L171.319 38.9803C173.021 39.8143 174.519 41.033 175.701 42.5459C176.884 44.0588 177.72 45.8269 178.147 47.7186L194.418 120.562C194.836 122.446 194.834 124.403 194.413 126.287C193.991 128.17 193.161 129.931 191.985 131.437L146.413 189.854C145.227 191.368 143.727 192.588 142.023 193.425C140.32 194.262 138.455 194.694 136.568 194.69H63.4583C61.5705 194.692 59.7064 194.258 58.0027 193.42C56.299 192.582 54.799 191.361 53.6127 189.848L8.01024 131.475C7.75572 131.145 7.51547 130.803 7.29015 130.451C6.37532 129.009 5.75254 127.392 5.45919 125.696C5.16584 124 5.20795 122.26 5.58299 120.581L21.835 47.7314C22.2614 45.8399 23.0971 44.0721 24.2795 42.5601C25.4619 41.0481 26.9606 39.8309 28.6636 38.9995L94.5283 6.5729C96.0347 5.82715 97.6703 5.39872 99.3394 5.31269V5.2935Z" fill="white"/>
<path d="M99.9974 30.0819C98.8955 30.1448 97.8626 30.6543 97.124 31.4993C96.3854 32.3442 96.0013 33.456 96.0555 34.5918V35.7497C96.1675 37.0383 96.3478 38.3196 96.5955 39.5879C96.9713 42.0241 97.1189 44.492 97.0363 46.9573C96.8083 47.7675 96.3629 48.4948 95.7513 49.0555L95.6582 50.7763C83.1035 51.8329 71.3767 57.6551 62.7506 67.1143C62.272 66.7737 61.7981 66.4261 61.329 66.0716C60.5468 66.3104 59.705 66.2255 58.9825 65.8349C57.0591 64.369 55.2793 62.7129 53.6686 60.89C52.8582 59.8919 51.9918 58.9435 51.0738 58.0497C50.8317 57.8386 50.453 57.5508 50.1985 57.3269C49.4182 56.6785 48.4561 56.3062 47.4546 56.265C46.859 56.231 46.264 56.3425 45.7182 56.5904C45.1723 56.8383 44.691 57.2156 44.3135 57.6915C43.6727 58.6194 43.4148 59.7712 43.5963 60.8946C43.7778 62.0181 44.3839 63.0216 45.2819 63.6855L45.3378 63.7303C45.5985 63.9414 45.9151 64.2229 46.1572 64.402C47.2076 65.1235 48.2979 65.7814 49.4225 66.3723C51.5073 67.5883 53.4721 69.0109 55.2889 70.6199C55.7572 71.31 56.0301 72.1206 56.0772 72.9612L57.3188 74.1255C50.3376 84.8993 47.4637 97.9505 49.2487 110.774L47.5974 111.273C47.1655 111.981 46.5867 112.582 45.9027 113.032C43.5916 113.669 41.2254 114.069 38.8382 114.228C37.5712 114.26 36.307 114.364 35.0514 114.542C34.7535 114.6 34.3313 114.715 34.0023 114.791H33.9092C33.3645 114.867 32.841 115.058 32.3721 115.353C31.9032 115.649 31.4992 116.042 31.1858 116.507C30.8725 116.972 30.6567 117.499 30.5522 118.055C30.4477 118.611 30.4568 119.184 30.579 119.736C30.7011 120.288 30.9336 120.808 31.2616 121.262C31.5896 121.717 32.006 122.096 32.484 122.375C32.9621 122.654 33.4914 122.828 34.0382 122.885C34.585 122.941 35.1373 122.88 35.6598 122.705H35.7964C36.1192 122.628 36.5289 122.545 36.8145 122.468C38.0183 122.072 39.1996 121.606 40.3529 121.073C42.5945 120.149 44.9192 119.454 47.2932 119.001C48.1088 119.051 48.8941 119.337 49.5591 119.826L51.2786 119.519C55.1348 131.804 63.2211 142.21 74.0116 148.772L73.2977 150.544C73.6331 151.257 73.7562 152.056 73.6515 152.841C72.6663 155.155 71.4711 157.367 70.082 159.449C69.3154 160.489 68.6086 161.574 67.9652 162.699C67.81 162.999 67.6113 163.466 67.4623 163.793C67.1816 164.28 67.0027 164.823 66.9369 165.385C66.8712 165.948 66.9201 166.519 67.0805 167.061C67.241 167.603 67.5094 168.105 67.8687 168.534C68.228 168.963 68.6702 169.311 69.1672 169.554C69.6641 169.797 70.2047 169.93 70.7546 169.946C71.3045 169.961 71.8514 169.858 72.3605 169.644C72.8696 169.429 73.3296 169.107 73.7112 168.699C74.0927 168.291 74.3875 167.805 74.5765 167.273C74.7255 166.959 74.9365 166.537 75.0607 166.243C75.5083 165.025 75.8896 163.782 76.2029 162.52C76.8818 159.951 77.9079 157.494 79.251 155.221C79.7216 154.765 80.3143 154.467 80.9519 154.363L81.8458 152.7C93.5488 157.335 106.498 157.369 118.224 152.796C118.478 153.25 118.944 154.133 119.068 154.357C119.876 154.493 120.599 154.953 121.079 155.636C122.196 157.817 123.103 160.105 123.786 162.468C124.098 163.731 124.482 164.974 124.934 166.192C125.058 166.492 125.269 166.914 125.418 167.234C125.605 167.77 125.898 168.26 126.279 168.672C126.661 169.085 127.121 169.41 127.632 169.628C128.143 169.846 128.692 169.951 129.244 169.937C129.797 169.923 130.34 169.789 130.84 169.546C131.339 169.302 131.784 168.954 132.145 168.523C132.506 168.092 132.776 167.587 132.936 167.043C133.097 166.498 133.145 165.924 133.077 165.359C133.01 164.794 132.829 164.249 132.545 163.761C132.396 163.441 132.191 162.967 132.03 162.667C131.386 161.548 130.681 160.467 129.919 159.43C128.552 157.404 127.381 155.244 126.424 152.982C126.319 152.581 126.292 152.163 126.344 151.751C126.396 151.339 126.527 150.942 126.728 150.583C126.475 150.052 126.255 149.505 126.07 148.945C136.893 142.325 144.98 131.84 148.797 119.48C149.306 119.564 150.194 119.724 150.479 119.787C151.079 119.218 151.873 118.914 152.689 118.943C155.04 119.405 157.342 120.104 159.561 121.029C160.714 121.563 161.896 122.031 163.1 122.429C163.385 122.513 163.795 122.583 164.118 122.66H164.254C164.777 122.835 165.329 122.897 165.876 122.84C166.423 122.783 166.952 122.61 167.43 122.33C167.908 122.051 168.324 121.672 168.652 121.218C168.981 120.763 169.213 120.243 169.335 119.691C169.457 119.139 169.466 118.567 169.362 118.011C169.257 117.455 169.042 116.927 168.728 116.462C168.415 115.997 168.011 115.604 167.542 115.309C167.073 115.013 166.55 114.822 166.005 114.747C165.67 114.663 165.185 114.529 164.856 114.465C163.603 114.288 162.341 114.183 161.076 114.152C158.689 113.993 156.322 113.592 154.011 112.955C153.297 112.544 152.708 111.934 152.311 111.196L150.715 110.717C152.417 97.9048 149.495 84.895 142.502 74.1575L143.899 72.8781C143.846 72.0415 144.113 71.2169 144.644 70.5815C146.458 68.9724 148.421 67.5498 150.504 66.3339C151.633 65.7446 152.728 65.0866 153.782 64.3636C154.036 64.1717 154.403 63.8647 154.651 63.6472C155.123 63.3407 155.526 62.9353 155.836 62.4573C156.145 61.9793 156.353 61.4395 156.446 60.873C156.54 60.3066 156.516 59.7262 156.377 59.1698C156.238 58.6134 155.987 58.0935 155.639 57.6439C155.292 57.1943 154.857 56.8252 154.362 56.5607C153.867 56.2961 153.324 56.142 152.767 56.1085C152.21 56.075 151.653 56.1627 151.132 56.366C150.61 56.5694 150.136 56.8837 149.74 57.2885L148.865 58.0114C147.943 58.9051 147.073 59.8535 146.258 60.8516C144.647 62.6764 142.867 64.3347 140.944 65.803C140.188 66.1223 139.359 66.2155 138.554 66.0716L137.052 67.1783C128.429 57.8304 116.806 52.0269 104.343 50.8467C104.343 50.3029 104.262 49.3242 104.256 49.0299C103.584 48.5549 103.12 47.8265 102.965 47.0021C102.878 44.5364 103.028 42.068 103.412 39.6327C103.659 38.3644 103.84 37.0831 103.952 35.7945V34.6366C103.984 34.0695 103.908 33.5013 103.727 32.9649C103.545 32.4284 103.262 31.9342 102.895 31.5108C102.527 31.0874 102.082 30.7432 101.585 30.4979C101.087 30.2527 100.548 30.1113 99.9974 30.0819ZM95.0312 61.5873L93.8579 82.9022L93.7896 82.9662C93.7639 83.614 93.5677 84.2424 93.2221 84.7842C92.8766 85.3259 92.3945 85.7607 91.8277 86.0419C91.2608 86.3232 90.6304 86.4403 90.0038 86.3808C89.3773 86.3213 88.7783 86.0874 88.2709 85.7041H88.2398L71.2801 73.3195C76.6789 67.8502 83.4543 64.0457 90.8409 62.3358C92.2563 62.0287 93.6593 61.7856 95.0312 61.6065V61.5873ZM104.914 61.5873C113.832 62.729 122.138 66.8604 128.553 73.345L111.705 85.6529H111.643C111.136 86.0354 110.537 86.2689 109.911 86.3285C109.285 86.388 108.654 86.2714 108.087 85.9911C107.52 85.7108 107.038 85.2773 106.691 84.7367C106.344 84.1961 106.146 83.5688 106.118 82.9214L104.914 61.5873ZM65.122 81.2774L80.6042 95.5491V95.6323C81.2804 96.2377 81.7032 97.0891 81.7841 98.0083C81.8651 98.9275 81.5981 99.8434 81.0388 100.564C80.5831 101.162 79.9513 101.591 79.2385 101.786V101.857L59.3736 107.761C58.3864 98.518 60.4155 89.1995 65.1406 81.2774H65.122ZM134.705 81.2774C139.426 89.1772 141.512 98.45 140.646 107.684L120.7 101.767V101.678C120.094 101.506 119.545 101.169 119.11 100.701C118.675 100.233 118.371 99.6528 118.231 99.0215C118.091 98.3901 118.12 97.7314 118.314 97.1155C118.508 96.4995 118.861 95.9494 119.335 95.5236V95.4788L134.73 81.2774H134.705ZM96.7942 96.6302H103.132L107.08 101.709L105.665 108.049L99.9974 110.908L94.2862 108.075L92.8709 101.741L96.7942 96.6302ZM117.125 114.011C117.393 113.998 117.662 114.017 117.926 114.069L117.963 114.024L138.492 117.606C135.461 126.383 129.676 133.867 122.054 138.876L114.089 119.045V119.007C113.736 118.159 113.714 117.202 114.027 116.338C114.34 115.473 114.965 114.765 115.771 114.363C116.187 114.154 116.639 114.035 117.1 114.011H117.125ZM82.6466 114.094C83.2176 114.104 83.7775 114.258 84.2771 114.543C84.7767 114.828 85.2007 115.235 85.5116 115.728C85.8225 116.222 86.0109 116.787 86.0602 117.373C86.1094 117.959 86.018 118.549 85.794 119.09L85.8498 119.167L77.9908 138.831C70.4241 133.845 64.6657 126.424 61.6084 117.721L81.9576 114.165V114.209C82.1828 114.166 82.4113 114.145 82.6404 114.145L82.6466 114.094ZM99.8422 122.698C100.405 122.679 100.963 122.802 101.469 123.056C102.135 123.379 102.681 123.916 103.027 124.585H103.101L113.158 143.309C111.854 143.757 110.518 144.141 109.148 144.461C101.771 146.205 94.0693 145.798 86.9052 143.284L96.8935 124.63C97.1837 124.073 97.6115 123.604 98.1336 123.272C98.6556 122.939 99.2536 122.755 99.867 122.737L99.8422 122.698Z" fill="white"/>
</svg>
