<svg xmlns="http://www.w3.org/2000/svg" xmlns:xlink="http://www.w3.org/1999/xlink" width="120" height="60">
    <defs>
        <linearGradient id="a" x1="53.225" y1="20.904" x2="46.903" y2="33.801" gradientUnits="userSpaceOnUse">
            <stop offset="0" stop-color="#3f873f"/>
            <stop offset=".33" stop-color="#3f8b3d"/>
            <stop offset=".637" stop-color="#3e9637"/>
            <stop offset=".934" stop-color="#3da92e"/>
            <stop offset="1" stop-color="#3dae2b"/>
        </linearGradient>
        <linearGradient id="c" x1="42.511" y1="26.732" x2="58.158" y2="26.732" gradientUnits="userSpaceOnUse">
            <stop offset=".005" stop-color="#fff"/>
            <stop offset=".192" stop-color="#e8e8e8"/>
            <stop offset=".541" stop-color="#c3c3c3"/>
            <stop offset=".823" stop-color="#ababab"/>
            <stop offset="1" stop-color="#a3a3a3"/>
        </linearGradient>
        <clipPath id="d">
            <path d="M50.757 17.939a.846.846 0 0 0-.843 0l-6.981 4.029a.844.844 0 0 0-.422.73v8.064a.845.845 0 0 0 .421.73l6.981 4.032a.848.848 0 0 0 .844 0l6.979-4.032a.844.844 0 0 0 .422-.73V22.7a.844.844 0 0 0-.422-.73z" fill="none" clip-rule="evenodd"/>
        </clipPath>
        <linearGradient id="e" x1="42.403" y1="26.72" x2="58.544" y2="26.72" gradientUnits="userSpaceOnUse">
            <stop offset="0" stop-color="#a3a3a3"/>
            <stop offset=".177" stop-color="#ababab"/>
            <stop offset=".459" stop-color="#c3c3c3"/>
            <stop offset=".808" stop-color="#e8e8e8"/>
            <stop offset=".995" stop-color="#fff"/>
        </linearGradient>
        <clipPath id="f">
            <path d="M50.8 17.9a.845.845 0 0 0-.845 0l-7 4.039a.842.842 0 0 0-.423.732v8.079a.846.846 0 0 0 .422.732l7 4.042a.845.845 0 0 0 .845 0l7-4.042a.846.846 0 0 0 .422-.732v-8.084a.843.843 0 0 0-.422-.731z" fill="url(#a)" clip-rule="evenodd"/>
        </clipPath>
        <linearGradient id="g" x1="49.314" y1="27.654" x2="67.055" y2="14.546" gradientUnits="userSpaceOnUse">
            <stop offset=".138" stop-color="#3f873f"/>
            <stop offset=".397" stop-color="#529f44"/>
            <stop offset=".711" stop-color="#63b649"/>
            <stop offset=".908" stop-color="#6abf4b"/>
        </linearGradient>
        <linearGradient id="b" x1="42.289" y1="16.439" x2="58.47" y2="16.439" gradientUnits="userSpaceOnUse">
            <stop offset=".092" stop-color="#6abf4b"/>
            <stop offset=".289" stop-color="#63b649"/>
            <stop offset=".603" stop-color="#529f44"/>
            <stop offset=".862" stop-color="#3f873f"/>
        </linearGradient>
        <linearGradient id="h" x1="42.289" y1="26.706" x2="58.47" y2="26.706" xlink:href="#b"/>
        <linearGradient id="i" x1="42.289" y1="31.326" x2="58.47" y2="31.326" xlink:href="#b"/>
        <linearGradient id="j" x1="42.289" y1="33.413" x2="58.47" y2="33.413" xlink:href="#b"/>
        <linearGradient id="k" x1="60.827" y1="20.521" x2="50.848" y2="40.879" xlink:href="#a"/>
    </defs>
    <g fill="#fff">
        <path d="M59.578 52.5a1.387 1.387 0 0 1-.7-.186L56.667 51c-.331-.185-.169-.251-.06-.289a4.423 4.423 0 0 0 1-.455.169.169 0 0 1 .164.012l1.7 1.011a.221.221 0 0 0 .206 0l6.635-3.83a.209.209 0 0 0 .1-.18v-7.654a.215.215 0 0 0-.1-.183l-6.63-3.832a.206.206 0 0 0-.2 0l-6.631 3.828a.213.213 0 0 0-.106.182v7.657a.2.2 0 0 0 .1.178l1.818 1.05c.986.493 1.59-.088 1.59-.671v-7.556a.191.191 0 0 1 .193-.191h.841a.191.191 0 0 1 .192.191v7.561a1.839 1.839 0 0 1-1.964 2.071 2.835 2.835 0 0 1-1.528-.416l-1.74-1a1.4 1.4 0 0 1-.7-1.211v-7.658a1.4 1.4 0 0 1 .7-1.21l6.636-3.834a1.455 1.455 0 0 1 1.394 0l6.635 3.834a1.4 1.4 0 0 1 .7 1.21v7.657a1.4 1.4 0 0 1-.7 1.211l-6.635 3.831a1.391 1.391 0 0 1-.699.186z"/>
        <path d="M61.628 47.224c-2.9 0-3.512-1.333-3.512-2.45a.191.191 0 0 1 .192-.192h.858a.192.192 0 0 1 .19.163c.13.873.516 1.314 2.272 1.314 1.4 0 1.993-.316 1.993-1.058 0-.427-.169-.745-2.341-.958-1.816-.179-2.939-.58-2.939-2.033 0-1.339 1.129-2.137 3.021-2.137 2.126 0 3.177.738 3.311 2.321a.194.194 0 0 1-.051.147.192.192 0 0 1-.14.062h-.862a.192.192 0 0 1-.186-.15c-.206-.919-.709-1.213-2.072-1.213-1.526 0-1.7.532-1.7.93 0 .483.21.623 2.27.9 2.04.269 3.008.651 3.008 2.084s-1.209 2.27-3.312 2.27z"/>
    </g>
    <path d="M71.2 39.193a1.279 1.279 0 1 1-1.279-1.279 1.282 1.282 0 0 1 1.279 1.279zm-2.351 0a1.073 1.073 0 1 0 1.069-1.069 1.073 1.073 0 0 0-1.073 1.066zm.592-.714h.494c.169 0 .5 0 .5.379a.33.33 0 0 1-.271.352c.2.013.21.142.237.325a1.4 1.4 0 0 0 .074.379h-.3c-.007-.068-.055-.434-.055-.454-.019-.081-.047-.121-.148-.121h-.251v.575h-.277zm.271.629h.223a.193.193 0 0 0 .217-.2c0-.2-.136-.2-.21-.2h-.23z" fill="#fff"/>
    <path d="M39.031 22.54a.847.847 0 0 0-.425-.738l-7.035-4.049a.837.837 0 0 0-.388-.112h-.072a.848.848 0 0 0-.389.112L23.687 21.8a.851.851 0 0 0-.425.738l.015 10.9a.419.419 0 0 0 .213.367.41.41 0 0 0 .422 0l4.18-2.394a.856.856 0 0 0 .426-.738v-5.089a.847.847 0 0 1 .424-.735l1.78-1.026a.853.853 0 0 1 .426-.114.839.839 0 0 1 .423.114l1.779 1.026a.846.846 0 0 1 .425.735v5.093a.859.859 0 0 0 .426.738l4.18 2.394a.415.415 0 0 0 .425 0 .427.427 0 0 0 .211-.367zM72.881 7.554a.424.424 0 0 0-.632.371v10.8a.3.3 0 0 1-.446.258l-1.762-1.015a.849.849 0 0 0-.85 0l-7.037 4.061a.851.851 0 0 0-.425.736v8.125a.851.851 0 0 0 .424.736l7.038 4.065a.849.849 0 0 0 .85 0l7.039-4.065a.851.851 0 0 0 .424-.736V10.633a.849.849 0 0 0-.435-.742zm-.653 20.663a.211.211 0 0 1-.107.183l-2.416 1.393a.211.211 0 0 1-.212 0L67.076 28.4a.212.212 0 0 1-.106-.183v-2.791a.215.215 0 0 1 .106-.184l2.417-1.395a.211.211 0 0 1 .212 0l2.417 1.395a.215.215 0 0 1 .106.184z" fill="#fff" fill-rule="evenodd"/>
    <g fill="#fff" fill-rule="evenodd">
        <path d="M96.315 25.353a.849.849 0 0 0 .423-.734V22.65a.849.849 0 0 0-.423-.735l-6.993-4.06a.849.849 0 0 0-.851 0l-7.035 4.061a.85.85 0 0 0-.425.736v8.123a.85.85 0 0 0 .429.738l6.991 3.987a.851.851 0 0 0 .834 0l4.229-2.351a.425.425 0 0 0 0-.74l-7.08-4.063a.427.427 0 0 1-.214-.369v-2.545a.425.425 0 0 1 .213-.368l2.2-1.27a.423.423 0 0 1 .424 0l2.2 1.27a.425.425 0 0 1 .213.368v2a.425.425 0 0 0 .638.368z"/>
        <path d="M88.793 24.973a.164.164 0 0 1 .163 0l1.35.779a.162.162 0 0 1 .082.141v1.56a.162.162 0 0 1-.082.141l-1.35.779a.164.164 0 0 1-.163 0l-1.349-.779a.162.162 0 0 1-.082-.141v-1.56a.162.162 0 0 1 .082-.141z"/>
    </g>
    <path d="M49.912 17.939a.846.846 0 0 1 .843 0l6.981 4.029a.844.844 0 0 1 .422.73v8.064a.844.844 0 0 1-.422.73l-6.981 4.032a.846.846 0 0 1-.843 0l-6.98-4.032a.845.845 0 0 1-.421-.73V22.7a.844.844 0 0 1 .422-.73z" fill-rule="evenodd" fill="url(#c)"/>
    <g clip-path="url(#d)">
        <path d="M49.9 17.939l-6.988 4.029a.859.859 0 0 0-.438.73v8.064a.827.827 0 0 0 .2.528l7.856-13.438a.848.848 0 0 0-.63.087zM50.575 35.6a.875.875 0 0 0 .164-.071l6.961-4.037a.814.814 0 0 0 .388-.73V22.7a.871.871 0 0 0-.177-.543z" fill="none"/>
        <path d="M57.7 21.968l-6.95-4.029a.855.855 0 0 0-.221-.087L42.675 31.29a.871.871 0 0 0 .237.2l6.988 4.034a.828.828 0 0 0 .672.071l7.339-13.44a.742.742 0 0 0-.211-.187z" fill="#4b4b4b" opacity=".66"/>
        <g>
            <path d="M43 21.922l-.079.046a.859.859 0 0 0-.438.73v8.064a.855.855 0 0 0 .434.73l6.983 4.032a.829.829 0 0 0 .608.089zM58.091 22.7a.815.815 0 0 0-.39-.73l-6.95-4.029a.836.836 0 0 0-.194-.08l7.534 12.869z" fill="none"/>
            <path d="M50.739 35.524l6.961-4.032a.814.814 0 0 0 .388-.73v-.032l-7.531-12.871a.849.849 0 0 0-.653.08L43 21.922l7.516 13.691a.83.83 0 0 0 .223-.089z" fill="url(#e)"/>
        </g>
    </g>
    <g>
        <g fill="#669f66">
            <path d="M59.578 52.5a1.387 1.387 0 0 1-.7-.186L56.667 51c-.331-.185-.169-.251-.06-.289a4.423 4.423 0 0 0 1-.455.169.169 0 0 1 .164.012l1.7 1.011a.221.221 0 0 0 .206 0l6.635-3.83a.209.209 0 0 0 .1-.18v-7.654a.215.215 0 0 0-.1-.183l-6.63-3.832a.206.206 0 0 0-.2 0l-6.631 3.828a.213.213 0 0 0-.106.182v7.657a.2.2 0 0 0 .1.178l1.818 1.05c.986.493 1.59-.088 1.59-.671v-7.556a.191.191 0 0 1 .193-.191h.841a.191.191 0 0 1 .192.191v7.561a1.839 1.839 0 0 1-1.964 2.071 2.835 2.835 0 0 1-1.528-.416l-1.74-1a1.4 1.4 0 0 1-.7-1.211v-7.658a1.4 1.4 0 0 1 .7-1.21l6.636-3.834a1.455 1.455 0 0 1 1.394 0l6.635 3.834a1.4 1.4 0 0 1 .7 1.21v7.657a1.4 1.4 0 0 1-.7 1.211l-6.635 3.831a1.391 1.391 0 0 1-.699.186z"/>
            <path d="M61.628 47.224c-2.9 0-3.512-1.333-3.512-2.45a.191.191 0 0 1 .192-.192h.858a.192.192 0 0 1 .19.163c.13.873.516 1.314 2.272 1.314 1.4 0 1.993-.316 1.993-1.058 0-.427-.169-.745-2.341-.958-1.816-.179-2.939-.58-2.939-2.033 0-1.339 1.129-2.137 3.021-2.137 2.126 0 3.177.738 3.311 2.321a.194.194 0 0 1-.051.147.192.192 0 0 1-.14.062h-.862a.192.192 0 0 1-.186-.15c-.206-.919-.709-1.213-2.072-1.213-1.526 0-1.7.532-1.7.93 0 .483.21.623 2.27.9 2.04.269 3.008.651 3.008 2.084s-1.209 2.27-3.312 2.27z"/>
        </g>
        <path d="M71.2 39.193a1.279 1.279 0 1 1-1.279-1.279 1.282 1.282 0 0 1 1.279 1.279zm-2.351 0a1.073 1.073 0 1 0 1.069-1.069 1.073 1.073 0 0 0-1.073 1.066zm.592-.714h.494c.169 0 .5 0 .5.379a.33.33 0 0 1-.271.352c.2.013.21.142.237.325a1.4 1.4 0 0 0 .074.379h-.3c-.007-.068-.055-.434-.055-.454-.019-.081-.047-.121-.148-.121h-.251v.575h-.277zm.271.629h.223a.193.193 0 0 0 .217-.2c0-.2-.136-.2-.21-.2h-.23z" fill="#669f66"/>
        <path d="M39.031 22.54a.847.847 0 0 0-.425-.738l-7.035-4.049a.837.837 0 0 0-.388-.112h-.072a.848.848 0 0 0-.389.112L23.687 21.8a.851.851 0 0 0-.425.738l.015 10.9a.419.419 0 0 0 .213.367.41.41 0 0 0 .422 0l4.18-2.394a.856.856 0 0 0 .426-.738v-5.089a.847.847 0 0 1 .424-.735l1.78-1.026a.853.853 0 0 1 .426-.114.839.839 0 0 1 .423.114l1.779 1.026a.846.846 0 0 1 .425.735v5.093a.859.859 0 0 0 .426.738l4.18 2.394a.415.415 0 0 0 .425 0 .427.427 0 0 0 .211-.367zM72.881 7.554a.424.424 0 0 0-.632.371v10.8a.3.3 0 0 1-.446.258l-1.762-1.015a.849.849 0 0 0-.85 0l-7.037 4.061a.851.851 0 0 0-.425.736v8.125a.851.851 0 0 0 .424.736l7.038 4.065a.849.849 0 0 0 .85 0l7.039-4.065a.851.851 0 0 0 .424-.736V10.633a.849.849 0 0 0-.435-.742zm-.653 20.663a.211.211 0 0 1-.107.183l-2.416 1.393a.211.211 0 0 1-.212 0L67.076 28.4a.212.212 0 0 1-.106-.183v-2.791a.215.215 0 0 1 .106-.184l2.417-1.395a.211.211 0 0 1 .212 0l2.417 1.395a.215.215 0 0 1 .106.184z" fill="#333" fill-rule="evenodd"/>
        <g fill-rule="evenodd">
            <path d="M96.315 25.353a.849.849 0 0 0 .423-.734V22.65a.849.849 0 0 0-.423-.735l-6.993-4.06a.849.849 0 0 0-.851 0l-7.035 4.061a.85.85 0 0 0-.425.736v8.123a.85.85 0 0 0 .429.738l6.991 3.987a.851.851 0 0 0 .834 0l4.229-2.351a.425.425 0 0 0 0-.74l-7.08-4.063a.427.427 0 0 1-.214-.369v-2.545a.425.425 0 0 1 .213-.368l2.2-1.27a.423.423 0 0 1 .424 0l2.2 1.27a.425.425 0 0 1 .213.368v2a.425.425 0 0 0 .638.368z" fill="#333"/>
            <path d="M88.793 24.973a.164.164 0 0 1 .163 0l1.35.779a.162.162 0 0 1 .082.141v1.56a.162.162 0 0 1-.082.141l-1.35.779a.164.164 0 0 1-.163 0l-1.349-.779a.162.162 0 0 1-.082-.141v-1.56a.162.162 0 0 1 .082-.141z" fill="#669f66"/>
        </g>
        <path d="M50.8 17.9a.845.845 0 0 0-.845 0l-7 4.039a.842.842 0 0 0-.423.732v8.079a.846.846 0 0 0 .422.732l7 4.042a.845.845 0 0 0 .845 0l7-4.042a.846.846 0 0 0 .422-.732v-8.084a.843.843 0 0 0-.422-.731z" fill-rule="evenodd" fill="url(#a)"/>
        <g clip-path="url(#f)">
            <path d="M49.943 17.9l-7.013 4.034a.875.875 0 0 0-.452.733v8.083a.822.822 0 0 0 .218.538l7.88-13.479a.855.855 0 0 0-.633.091zM50.615 35.6a.819.819 0 0 0 .2-.081l7.005-4.042a.861.861 0 0 0 .44-.732v-8.079a.838.838 0 0 0-.26-.587z" fill="none"/>
            <path d="M57.813 21.934L50.8 17.9a.827.827 0 0 0-.22-.087L42.7 31.288a.978.978 0 0 0 .236.194l7.03 4.042a.854.854 0 0 0 .653.081L58 22.079a.93.93 0 0 0-.187-.145z" fill="url(#g)"/>
            <g>
                <path d="M58.257 30.75v-8.084a.865.865 0 0 0-.444-.732L50.8 17.9a.837.837 0 0 0-.258-.1l7.693 13.143a.789.789 0 0 0 .022-.193zM42.93 21.934a.875.875 0 0 0-.452.733v8.083a.877.877 0 0 0 .454.732l7.03 4.042a.856.856 0 0 0 .541.1l-7.53-13.714z" fill="none"/>
                <path fill="url(#b)" d="M49.725 16.411l-.097.055h.129l-.032-.055z"/>
                <path d="M57.817 31.482a.882.882 0 0 0 .414-.538L50.538 17.8a.86.86 0 0 0-.595.1l-6.97 4.014L50.5 35.629a.865.865 0 0 0 .309-.1z" fill="url(#h)"/>
                <path fill="url(#i)" d="M58.47 31.352l-.046-.079v.106l.046-.027z"/>
                <path d="M57.817 31.482l-7.005 4.042a.865.865 0 0 1-.309.1l.139.254 7.782-4.5v-.106l-.193-.329a.882.882 0 0 1-.414.539z" fill="url(#j)"/>
                <path d="M57.817 31.482l-7.005 4.042a.865.865 0 0 1-.309.1l.139.254 7.782-4.5v-.106l-.193-.329a.882.882 0 0 1-.414.539z" fill="url(#k)"/>
            </g>
        </g>
    </g>
</svg>
