<svg width="200" height="200" viewBox="0 0 200 200" fill="none" xmlns="http://www.w3.org/2000/svg">
<path d="M199.626 118.662C199.187 117.375 197.274 113.278 190.422 114.624C184.484 116.113 178.311 116.522 172.218 115.831C194.145 80.2053 205.527 34.9204 194.85 21.7288C169.57 -9.54307 127.414 1.3922 119.519 3.85634C119.36 3.88211 119.203 3.91848 119.049 3.9652L118.578 4.12354C113.447 2.88846 108.187 2.22441 102.901 2.1443C94.2018 1.79587 85.5807 3.85569 78.0492 8.08201C66.0327 4.30167 35.9554 -3.10067 16.6163 10.2295C4.60996 18.5126 -0.943231 33.1688 0.130592 53.7726C0.601029 63.0255 16.2993 140.75 40.0154 148.4C41.3339 148.829 42.7152 149.049 44.1062 149.053C46.2379 148.971 48.3278 148.456 50.2398 147.54C52.1517 146.625 53.8427 145.329 55.2024 143.739C56.5523 146.45 60.9703 147.756 64.6316 148.786L67.9655 149.409C71.6575 150.246 75.4254 150.729 79.2151 150.854C83.543 150.902 87.7968 149.766 91.4874 147.578C90.939 160.556 92.2502 173.544 95.3838 186.173C97.3026 190.493 100.552 194.135 104.688 196.602C108.824 199.069 113.646 200.241 118.497 199.959C121.504 199.936 124.5 199.604 127.435 198.969C134.177 198.457 140.526 195.694 145.395 191.152C150.264 186.61 153.351 180.572 154.127 174.07C155.559 166.005 157.441 151.052 158.32 142.749C160.677 143.202 163.076 143.421 165.479 143.402C172.384 143.452 179.232 142.192 185.636 139.691C194.564 135.673 201.743 124.867 199.626 118.662ZM186.526 131.715C185.415 132.601 184.195 133.352 182.895 133.951C182.517 134.12 182.077 134.248 181.668 134.397L181.014 134.723C175.113 137.026 168.803 138.186 162.441 138.137C159.727 138.176 157.021 137.843 154.403 137.148C153.38 146.519 151.12 163.867 149.832 171.092C149.413 176.978 146.834 182.525 142.56 186.733C138.287 190.942 132.599 193.533 126.525 194.041C124.301 194.519 122.032 194.768 119.754 194.783C116.954 194.882 114.166 194.379 111.591 193.309C109.016 192.24 106.719 190.631 104.864 188.598C103.474 187.277 102.356 185.712 101.571 183.986C100.808 182.609 100.125 181.192 99.5257 179.741C96.946 166.5 96.0224 153.007 96.7747 139.553C91.7405 143.852 85.2229 146.169 78.5095 146.044C75.404 146.024 72.3129 145.635 69.3052 144.887C68.3848 144.659 60.2749 142.541 60.3772 137.494C60.4794 132.853 67.2496 131.497 69.7961 130.992C78.6117 129.241 79.1742 128.538 81.9048 125.183C82.457 124.5 83.132 123.699 83.8888 122.838V122.68C79.977 122.531 76.1528 121.515 72.7108 119.711C70.3791 122.106 63.8952 128.875 56.8796 137.049C55.5718 138.887 53.849 140.414 51.8415 141.513C49.8341 142.612 47.5946 143.254 45.2925 143.392C44.0508 143.391 42.8176 143.194 41.6415 142.808C20.1651 135.881 6.50194 64.5099 6.04173 55.5836C5.42415 47.1992 6.57945 38.781 9.43706 30.8432C10.5157 27.575 12.1695 24.5117 14.3255 21.7882C16.0506 19.5044 18.1188 17.4831 20.4616 15.7911C23.3854 13.673 26.6414 12.0224 30.1056 10.9024C46.7216 7.12582 64.1376 8.4081 79.9719 14.5739C81.598 13.5094 83.3077 12.5696 85.0853 11.7634C86.4773 11.1782 87.9049 10.6759 89.3602 10.2592C94.0324 8.75336 98.9271 7.99461 103.852 8.01273H104.772C109.645 8.08308 114.494 8.69403 119.223 9.83363L119.652 9.69508C119.795 9.64702 119.942 9.61384 120.092 9.59612C130.22 6.59094 140.854 5.5122 151.407 6.41946C158.844 6.79451 166.112 8.70636 172.722 12.0264C179.331 15.3465 185.13 19.9978 189.727 25.6675C190.829 27.2058 191.56 28.9646 191.864 30.8135C197.377 47.9042 185.309 88.429 164.845 118.672C166.502 119.82 171.462 121.7 185.442 118.929C190.259 117.939 193.153 118.83 194.063 121.482C195.26 124.995 190.995 128.875 186.526 131.715Z" fill="black"/>
<path d="M186.188 122.007C162.932 126.648 161.337 119.038 161.337 119.038C185.882 83.7976 196.108 39.057 187.293 28.102C163.137 -1.76465 121.319 12.3572 120.614 12.7233H120.389C115.282 11.7365 110.092 11.213 104.885 11.1597C96.102 10.7385 87.4366 13.2506 80.3401 18.2751C80.3401 18.2751 5.73494 -11.4629 9.20185 55.6826C9.94841 69.9627 30.3613 163.759 54.7217 135.426C63.6191 125.065 72.2199 116.306 72.2199 116.306C76.5492 119.141 81.7634 120.429 86.9671 119.948L87.3864 119.612C87.2607 120.956 87.3157 122.309 87.55 123.64C81.2707 130.428 83.1218 131.616 70.5734 134.11C58.025 136.604 65.3372 141.156 70.2052 142.333C75.3754 143.95 80.9409 143.945 86.1084 142.321C91.276 140.697 95.7818 137.536 98.9837 133.288L98.6155 134.713C102.005 141.517 103.355 149.105 102.512 156.614C101.708 163.684 102.2 170.837 103.964 177.742C105.907 182.838 107.84 194.318 124.326 190.894C130.188 190.339 135.642 187.743 139.675 183.589C143.708 179.436 146.045 174.007 146.252 168.311C146.958 159.533 148.553 160.829 148.656 152.982L149.934 149.271C151.407 137.395 150.169 133.526 158.658 135.317L160.703 135.485C167.264 135.754 173.81 134.689 179.919 132.358C190.259 127.717 196.374 119.968 186.188 122.007Z" fill="#316192"/>
<path d="M84.6967 62.0458C83.003 61.6988 81.237 61.948 79.7162 62.7484C79.51 62.8838 79.3352 63.0593 79.2031 63.2638C79.0711 63.4683 78.9846 63.6973 78.9492 63.936C78.9484 64.7691 79.2528 65.5756 79.8083 66.2121C80.7954 67.5174 82.2572 68.4121 83.899 68.7158H84.6047C85.7031 68.7298 86.7789 68.4137 87.6838 67.811C88.5886 67.2084 89.278 66.3489 89.6568 65.3511C90.0045 63.5995 87.2943 62.3625 84.6967 62.0458ZM153.544 61.2739C152.129 60.5499 150.493 60.3393 148.932 60.6801C146.508 61.0067 144.156 62.0755 144.36 63.4709C144.621 64.3341 145.219 65.0651 146.027 65.5095C146.878 66.0885 147.892 66.4027 148.932 66.41C149.136 66.4249 149.341 66.4249 149.545 66.41C151.076 66.1459 152.441 65.3153 153.35 64.0943C153.823 63.5611 154.094 62.8871 154.117 62.1843C154.092 62.0023 154.029 61.8273 153.93 61.6705C153.831 61.5137 153.7 61.3786 153.544 61.2739Z" fill="white"/>
<path d="M194.043 121.433C193.132 118.78 190.238 117.91 185.421 118.879C171.441 121.65 166.481 119.77 164.824 118.622C187.497 85.1236 199.933 38.0575 189.502 25.1628C166.195 -3.66474 127.363 7.26063 120.072 9.54665C119.922 9.56437 119.774 9.59753 119.632 9.64559L119.202 9.78414C114.473 8.64454 109.625 8.03359 104.752 7.96324H103.831C95.3649 7.76513 87.0377 10.0714 79.9617 14.5739C73.0585 12.0702 41.0995 1.60992 21.2184 15.227C10.1427 22.8174 5.01906 36.385 6.01106 55.544C6.47127 64.4506 20.1242 135.832 41.6109 142.769C42.787 143.154 44.0202 143.351 45.2619 143.353C47.5639 143.215 49.8034 142.572 51.8108 141.473C53.8183 140.374 55.5411 138.848 56.8489 137.009C63.8646 128.835 70.3484 122.066 72.6802 119.671C76.1221 121.476 79.9464 122.492 83.8581 122.64V122.798C83.1013 123.659 82.4264 124.461 81.8741 125.144C79.1435 128.499 78.581 129.201 69.7655 130.953C67.219 131.457 60.4488 132.813 60.3465 137.455C60.2442 142.502 68.3542 144.619 69.2746 144.847C72.2822 145.595 75.3734 145.984 78.4788 146.005C85.1973 146.148 91.7266 143.845 96.7747 139.553C96.0376 153.016 96.9784 166.515 99.5769 179.761C100.79 184.051 103.417 187.842 107.058 190.557C110.7 193.271 115.158 194.762 119.754 194.803C122.032 194.788 124.301 194.539 126.525 194.061C132.599 193.553 138.287 190.961 142.56 186.753C146.834 182.545 149.413 176.998 149.832 171.111C151.12 163.858 153.34 146.539 154.403 137.168C157.021 137.863 159.727 138.196 162.442 138.157C168.803 138.206 175.113 137.046 181.014 134.743C186.291 132.348 195.781 126.529 194.043 121.433ZM158.187 85.9252C159.72 92.9031 159.17 100.159 156.602 106.846C156.089 105.947 155.628 105.022 155.221 104.075C154.412 102.415 153.528 100.791 152.573 99.2059C147.582 90.5467 135.903 70.2695 141.855 62.0359C144.872 57.8696 152.501 57.6519 159.241 58.4238C159.168 61.0267 158.915 63.622 158.484 66.1923C157.941 69.2526 157.599 72.3431 157.461 75.4452C157.434 78.9511 157.677 82.4542 158.187 85.9252ZM184.777 29.6161C191.936 38.4237 184 78.5427 161.255 113.249C161.061 113.011 160.918 112.793 160.713 112.546L160.437 112.209C164.937 103.927 166.26 94.3691 164.17 85.2325C163.686 82.0543 163.447 78.8457 163.454 75.6332C163.585 72.7657 163.91 69.9096 164.426 67.0829C165.113 63.4277 165.404 59.713 165.295 55.9992C165.386 55.65 165.427 55.2904 165.418 54.9304C162.776 45.8788 158.174 37.4747 151.918 30.2761C145.662 23.0776 137.895 17.2493 129.133 13.1785C139.062 10.5573 149.556 10.7099 159.399 13.6188C169.243 16.5277 178.034 22.074 184.757 29.6161H184.777ZM52.2264 133.308C47.6754 138.612 44.546 137.603 43.5233 137.267C27.9273 132.229 12.7915 70.0617 12.0347 55.2669C11.1552 38.2356 15.4096 26.3701 24.6956 19.997C39.7598 9.6654 64.427 15.7713 74.521 18.9381C74.4173 19.022 74.3183 19.1112 74.2244 19.2053C63.467 31.943 57.7752 47.9852 58.1784 64.4308C58.1784 65.0245 58.1784 66.0042 58.3114 67.3006C58.9093 74.9439 58.7071 82.6261 57.708 90.2301C57.0264 94.6109 57.387 99.0845 58.7622 103.31C60.1375 107.536 62.4912 111.402 65.644 114.614C66.2781 115.257 67.0042 115.752 67.6894 116.326C62.3748 121.848 57.2185 127.511 52.2264 133.308ZM69.9905 110.616C67.4703 108.036 65.5912 104.934 64.496 101.545C63.4009 98.1568 63.1185 94.5713 63.6703 91.0613C64.7251 83.0772 64.941 75.0102 64.3145 66.984C64.3145 66.3308 64.2327 65.7766 64.2225 65.3214C70.3497 60.8764 77.9424 58.7475 85.5763 59.3342C87.3173 59.7094 88.8923 60.6052 90.078 61.8946C91.2637 63.1841 92.0001 64.8019 92.1828 66.5189C96.1827 78.7872 95.2251 92.067 89.5034 103.679C88.8182 105.163 88.1636 106.569 87.6216 107.984L87.1921 109.092C86.1519 111.642 85.2574 114.245 84.5127 116.89C81.7811 116.839 79.0881 116.257 76.5934 115.18C74.0987 114.102 71.8533 112.55 69.9905 110.616ZM70.7677 139.256C69.4924 138.954 68.2742 138.459 67.1576 137.791C68.4022 137.307 69.6939 136.946 71.0132 136.712C81.4855 134.634 83.0911 133.16 86.6296 128.795C87.4171 127.806 88.3375 126.697 89.6159 125.322C91.4362 123.343 92.2237 123.659 93.7884 124.332C94.5104 124.712 95.1432 125.233 95.6466 125.861C96.15 126.49 96.5133 127.213 96.7133 127.984C96.9154 128.538 96.989 129.129 96.9289 129.714C96.8688 130.299 96.6765 130.863 96.3656 131.368C93.5288 135.156 89.5131 137.965 84.9068 139.385C80.3005 140.804 75.3456 140.759 70.7677 139.256ZM125.267 188.39C123.219 189.072 121.045 189.33 118.887 189.147C116.729 188.964 114.635 188.345 112.741 187.329C110.846 186.313 109.193 184.923 107.889 183.249C106.585 181.575 105.659 179.655 105.171 177.613C102.595 161.504 101.861 145.169 102.982 128.904V128.518C102.966 128.26 102.918 128.004 102.839 127.756C102.779 127.283 102.691 126.814 102.573 126.351C102.133 124.733 101.33 123.229 100.222 121.944C99.1141 120.66 97.7276 119.627 96.1611 118.919C94.3951 118.105 92.4085 117.852 90.4852 118.197C91.1574 115.801 91.9631 113.442 92.8987 111.131L93.3384 110.003C93.8293 108.716 94.4327 107.43 95.0668 106.044C101.315 93.2974 102.409 78.75 98.1349 65.262C97.781 63.2976 97.0218 61.4222 95.9024 59.7479C94.7831 58.0736 93.3267 56.6348 91.62 55.5171C89.9133 54.3995 87.9914 53.6261 85.9691 53.2431C83.9467 52.86 81.8653 52.8752 79.8492 53.2877C74.4667 54.0179 69.2676 55.6949 64.5089 58.2358C65.0811 45.4028 70.0172 33.1119 78.5504 23.2726C81.884 20.1054 85.8519 17.6315 90.21 16.0028C94.5681 14.3741 99.2244 13.6252 103.893 13.802H104.701C116.695 14.1518 128.292 18.0434 137.935 24.9546C147.578 31.8658 154.805 41.4658 158.647 52.4663C147.807 51.3975 140.689 53.4559 136.915 58.6613C128.805 69.8836 140.853 90.7743 147.316 102.006C148.451 103.986 149.361 105.46 149.658 106.262C151.251 109.847 153.388 113.183 155.999 116.158C156.53 116.791 157.021 117.395 157.43 117.939C154.291 118.84 148.512 121.156 148.952 131.349C148.553 136.455 145.496 161.126 143.9 170.112C143.715 174.86 141.7 179.369 138.251 182.752C134.803 186.135 130.171 188.146 125.267 188.39ZM178.447 129.439C171 132.414 162.79 133.105 154.925 131.418C154.536 124.768 157.021 124.095 159.67 123.382C159.946 123.303 160.355 123.194 160.805 123.036C161.04 123.214 161.306 123.392 161.582 123.58C169.406 126.822 178.183 127.195 186.27 124.629C183.923 126.579 181.303 128.198 178.487 129.439H178.447Z" fill="white"/>
</svg>
