<svg width="200" height="200" viewBox="0 0 200 200" fill="none" xmlns="http://www.w3.org/2000/svg">
<path d="M98.7954 0.00478611C91.0653 0.00735395 83.3494 0.657583 75.7302 1.94851C55.3218 5.51483 51.6142 12.9855 51.6142 26.7522V44.9472H99.8547V51.0065H33.5123C26.4212 50.8783 19.512 53.231 14.0029 57.6497C8.49379 62.0684 4.73859 68.2694 3.3994 75.1594C-1.13313 91.0153 -1.13313 107.804 3.3994 123.66C6.81647 137.79 15.0174 147.855 29.0274 147.855H45.6002V126.051C45.7779 118.215 49.0155 110.751 54.6342 105.224C60.2529 99.6969 67.8163 96.5365 75.7387 96.4052H123.928C127.121 96.3809 130.278 95.7344 133.218 94.5025C136.159 93.2706 138.825 91.4776 141.065 89.226C143.304 86.9743 145.073 84.3081 146.271 81.3797C147.468 78.4513 148.071 75.3182 148.044 72.1593V26.7099C147.639 20.4218 144.994 14.4793 140.579 9.93818C136.163 5.397 130.264 2.55118 123.928 1.90626C115.619 0.573896 107.212 -0.0621907 98.7954 0.00478611ZM72.7061 14.6335C74.5286 14.6067 76.318 15.1164 77.8469 16.0981C79.3758 17.0797 80.5752 18.4888 81.2926 20.1464C82.0101 21.8039 82.2132 23.635 81.8762 25.4071C81.5392 27.1791 80.6772 28.812 79.3999 30.0983C78.1226 31.3845 76.4875 32.2661 74.7025 32.6309C72.9176 32.9957 71.0632 32.8273 69.3752 32.1471C67.6872 31.4669 66.2417 30.3056 65.2225 28.8108C64.2032 27.316 63.6561 25.5552 63.6509 23.7521C63.6362 22.562 63.8589 21.3808 64.3063 20.2761C64.7536 19.1713 65.4168 18.1646 66.2579 17.3137C67.099 16.4628 68.1015 15.7844 69.2079 15.3172C70.3144 14.85 71.5031 14.6033 72.7061 14.5912V14.6335Z" fill="url(#paint0_linear_1_25)"/>
<path d="M154.066 50.9643V72.1593C153.976 80.0801 150.786 87.6579 145.165 93.2999C139.545 98.9419 131.932 102.209 123.928 102.414H75.7387C69.3132 102.54 63.1924 105.148 58.6856 109.68C54.1789 114.213 51.6438 120.31 51.6228 126.668V172.109C51.6228 185.039 62.9845 192.654 75.7387 196.364C91.4279 201.212 108.239 201.212 123.928 196.364C136.067 192.882 148.044 185.884 148.044 172.109V153.923H99.8632V147.855H172.168C186.187 147.855 191.415 138.187 196.284 123.66C201.239 107.864 201.239 90.9547 196.284 75.1594C192.825 61.3505 186.204 50.9643 172.168 50.9643H154.066ZM126.961 166.05C128.784 166.03 130.573 166.547 132.099 167.535C133.624 168.524 134.818 169.939 135.529 171.6C136.239 173.262 136.434 175.095 136.088 176.867C135.742 178.638 134.872 180.268 133.587 181.548C132.302 182.829 130.661 183.702 128.873 184.058C127.085 184.413 125.231 184.234 123.546 183.544C121.861 182.853 120.422 181.683 119.411 180.181C118.401 178.679 117.865 176.914 117.871 175.109C117.863 173.923 118.093 172.747 118.546 171.649C118.999 170.551 119.667 169.552 120.512 168.71C121.356 167.868 122.361 167.2 123.468 166.743C124.574 166.287 125.762 166.051 126.961 166.05Z" fill="url(#paint1_linear_1_25)"/>
<defs>
<linearGradient id="paint0_linear_1_25" x1="-4.71547" y1="5.68324" x2="105.533" y2="100.723" gradientUnits="userSpaceOnUse">
<stop stop-color="#5A9FD4"/>
<stop offset="1" stop-color="#306998"/>
</linearGradient>
<linearGradient id="paint1_linear_1_25" x1="148.405" y1="157.901" x2="109.074" y2="102.142" gradientUnits="userSpaceOnUse">
<stop stop-color="#FFD43B"/>
<stop offset="1" stop-color="#FFE873"/>
</linearGradient>
</defs>
</svg>
