<svg xmlns="http://www.w3.org/2000/svg" width="120" height="60">
    <defs>
        <linearGradient id="a" x1="-11193.319" y1="-10400.494" x2="-11174.599" y2="-10411.555" gradientTransform="matrix(.119 0 0 .119 1385.885 1270.081)" gradientUnits="userSpaceOnUse">
            <stop offset="0" stop-color="#909ca9"/>
            <stop offset="1" stop-color="#ededee"/>
        </linearGradient>
        <linearGradient id="b" x1="-11192.898" y1="-10608.961" x2="-11177.836" y2="-10608.961" gradientTransform="matrix(.119 0 0 .119 1385.885 1270.081)" gradientUnits="userSpaceOnUse">
            <stop offset="0" stop-color="#939fab"/>
            <stop offset="1" stop-color="#dcdee1"/>
        </linearGradient>
        <radialGradient id="c" cx="-1984.128" cy="-6383.019" r="19.998" gradientTransform="matrix(-.114 -.017 .035 -.228 60.771 -1470.993)" gradientUnits="userSpaceOnUse">
            <stop offset="0" stop-color="#ee352c"/>
            <stop offset="1" stop-color="#a91d22"/>
        </radialGradient>
    </defs>
    <path d="M69.906 21.829l-6.147 2.007-5.348 2.364-1.5.395a41.405 41.405 0 0 1-2.467 2.15 9.393 9.393 0 0 0-1.217 1.208 5.476 5.476 0 0 0-.9 1.524 2.559 2.559 0 0 0 .362 2.3 8.152 8.152 0 0 0 3.362 2.523 21.338 21.338 0 0 0 2.955.989 39.072 39.072 0 0 0 6.3.9 7.185 7.185 0 0 0 .813 0 10.977 10.977 0 0 0 .6-1.138 28.873 28.873 0 0 0 2.181-5.772 27.345 27.345 0 0 0 .557-4c.033-.45.047-1.96.019-2.471a17.367 17.367 0 0 0-.233-2.179.529.529 0 0 1-.014-.191 8.4 8.4 0 0 1 .832-.251l-.153-.362zm-1.4.822a15.149 15.149 0 0 1 .241 2.328 1.246 1.246 0 0 1 0 .316c-.037 0-.786-.442-1.32-.776-.464-.293-1.347-.878-1.486-.99-.047-.032-.042-.037.339-.167.638-.218 2.172-.711 2.22-.711zm-3.132 1.032a1.523 1.523 0 0 1 .4.218 29.015 29.015 0 0 0 2.816 1.566c.172.074.19.046-.2.316a20.267 20.267 0 0 1-3.195 1.717c-.228.1-.418.181-.423.181a1.168 1.168 0 0 1 .056-.255 13.749 13.749 0 0 0 .5-3.267c0-.464 0-.464.046-.478-.009 0 0 0 0 0zm-.646.246a9.985 9.985 0 0 1-.027 1.352 11.838 11.838 0 0 1-.431 2.019 2.809 2.809 0 0 1-.107.325 8.22 8.22 0 0 1-.864-.841 6.292 6.292 0 0 1-.855-1.245 3.881 3.881 0 0 1-.26-.632c.074-.051 2.523-1 2.541-.98zm-3.038 1.194a.019.019 0 0 1 .014 0 .915.915 0 0 1 .07.168 6.264 6.264 0 0 0 .771 1.38 7.816 7.816 0 0 0 1.073 1.156c.112.093.214.182.228.2s.037.023-.721.311c-.878.334-1.835.669-2.931 1.022-.262.084-.524.17-.785.256-.042.014-.028-.01.093-.2a26.214 26.214 0 0 0 1.835-3.7c.079-.2.158-.409.172-.456a.168.168 0 0 1 .1-.121.444.444 0 0 1 .079-.018zm-.929.385a10.116 10.116 0 0 1-.456.962c-.45.878-.943 1.743-1.6 2.793-.112.181-.219.348-.233.367s-.032.023-.107-.121A4.241 4.241 0 0 1 58 28.431a4.333 4.333 0 0 1 .023-1.385c.06-.288.056-.283.195-.353.6-.3 2.518-1.2 2.537-1.185zm8.014.326v.2a25.226 25.226 0 0 1-.274 3.494c-.028.181-.051.33-.056.334s-.134-.037-.292-.083a11.988 11.988 0 0 1-2.138-.916 9.493 9.493 0 0 1-1.087-.669c.005 0 .2-.107.428-.227a27.32 27.32 0 0 0 2.541-1.492c.283-.19.711-.5.8-.581l.074-.055zM57.25 27.209c.018 0 .014.037-.014.2a6.224 6.224 0 0 0-.051.5 3.434 3.434 0 0 0 .409 1.868 3.792 3.792 0 0 1 .162.353c-.032.028-3.108.93-4.074 1.194l-.558.154c-.032.009-.037 0-.023-.075a4.876 4.876 0 0 1 1.352-2.327 5.989 5.989 0 0 1 1.529-1.171c.473-.27 1.2-.674 1.259-.692h.009zm7.248 1.3a2.048 2.048 0 0 1 .251.135 13.988 13.988 0 0 0 3.558 1.384l.107.024-.148.083c-.618.344-2.649 1.19-4.725 1.966-.3.111-.6.223-.655.246a.322.322 0 0 1-.107.032s.083-.167.19-.367a22.964 22.964 0 0 0 1.464-3.331c.037-.088.06-.167.065-.172zm-.739.242a1.232 1.232 0 0 1-.079.213 29.41 29.41 0 0 1-1.612 3.248c-.172.307-.316.553-.321.553s-.144-.084-.311-.186a9.568 9.568 0 0 1-2.43-2.067l-.084-.1.423-.116a30.311 30.311 0 0 0 4.08-1.407c.181-.082.329-.142.334-.142zm4.59 1.6c0 .107-.232 1.064-.427 1.756-.163.581-.3 1.036-.558 1.84-.111.353-.209.645-.213.645a.3.3 0 0 1-.061-.013 19.465 19.465 0 0 1-3.777-1.064c-.325-.13-.79-.34-.818-.363a5.677 5.677 0 0 1 .623-.293c2.114-.924 4.307-1.974 5.059-2.425a.629.629 0 0 1 .172-.083zm-10.6.362c.009.009-.581.86-1.408 2.016l-.748 1.055c-.125.176-.316.455-.423.623l-.2.3-.209-.177a7.65 7.65 0 0 1-.864-.883 3.811 3.811 0 0 1-.776-1.5c-.051-.223-.051-.335 0-.349.07-.018 1.31-.311 2.472-.581.646-.148 1.394-.325 1.663-.39s.488-.116.493-.116zm.594.228l.149.167a8.72 8.72 0 0 0 2.179 1.784 1.222 1.222 0 0 1 .251.163c-.033.023-2.871 1.031-4.186 1.486-.739.261-1.348.47-1.352.47a.708.708 0 0 1-.093-.061l-.084-.06.135-.2c.437-.632.985-1.324 2.179-2.765l.822-.989zm3.708 2.653c0-.005.209.069.46.162a14.822 14.822 0 0 0 1.724.535 19.051 19.051 0 0 0 2.606.45c.1.009.158.019.139.033s-.715.246-1.217.4c-.8.251-3.238.971-5.227 1.542-.367.107-.683.2-.7.2a.358.358 0 0 1-.2-.051 3.341 3.341 0 0 1 .246-.311 27.533 27.533 0 0 0 1.887-2.537c.153-.232.283-.423.283-.427zm-.818.023c.005.005-.325.534-.9 1.445-.246.385-.52.822-.618.975s-.232.381-.311.512l-.135.237-.07-.019a39.226 39.226 0 0 1-1.654-.586 11.43 11.43 0 0 1-1.082-.5 4.441 4.441 0 0 1-.8-.506c.009-.005.645-.177 1.412-.386 2.035-.553 3.164-.873 3.9-1.1a1.813 1.813 0 0 1 .255-.07zm5.785 1.356c.019.047-.734 2.138-1.008 2.8-.06.149-.083.186-.116.182a95.633 95.633 0 0 1-1.835-.256c-1.157-.176-3.1-.516-3.587-.627l-.112-.023.693-.158c1.486-.335 2.2-.516 2.927-.739a20.639 20.639 0 0 0 2.736-1.055 2.283 2.283 0 0 1 .3-.121z" fill="url(#a)"/>
    <path d="M63.569 7.5a29.44 29.44 0 0 0-2.816 1.013 17.584 17.584 0 0 0-3.238 1.626 2.448 2.448 0 0 0-.627.627.43.43 0 0 0-.028.158l.622.59 1.482.474 3.527.632 4.032.693.042-.349c-.014 0-.023-.005-.037-.005L66 12.876l-.106-.191a35.713 35.713 0 0 1-1.506-2.973 15.322 15.322 0 0 1-.678-1.873c-.079-.315-.088-.334-.139-.339zm-.075.237h.006s.023.135.042.288a9.739 9.739 0 0 0 .45 1.956c.172.511.172.484-.027.423-.474-.13-2.6-.5-4.135-.711a6.403 6.403 0 0 1-.456-.069c-.018-.019 1.111-.609 1.608-.841.636-.293 2.383-1.023 2.513-1.046zm-4.479 2.082l.182.06a27.7 27.7 0 0 0 4.827.92l.288.028a2.063 2.063 0 0 1-.293.153c-.659.33-1.384.734-1.886 1.046a2.046 2.046 0 0 1-.3.167c-.019 0-.116-.019-.218-.033l-.186-.028-.465-.455a189.651 189.651 0 0 0-1.705-1.64zm-.185.144l.655.817c.357.451.72.892.8.99a1.539 1.539 0 0 1 .139.181c-.018.014-.948-.167-1.44-.279s-.716-.171-1.027-.269l-.255-.084v-.065c0-.311.4-.776 1.068-1.249l.061-.042zm5.57 1.115c.018 0 .041.042.1.167.158.348.651 1.287.771 1.468.038.061.1.065-.552-.042-1.575-.255-2.082-.339-2.082-.348a.5.5 0 0 1 .107-.07 9.047 9.047 0 0 0 1.417-.98c.107-.088.2-.172.223-.186s.014-.014.019-.009z" fill="url(#b)"/>
    <path d="M56.92 10.7a.466.466 0 0 0-.005.4 1.851 1.851 0 0 0 .437.515s2.068 2.017 2.319 2.3a6.46 6.46 0 0 1 1.686 4.414 7.149 7.149 0 0 1-.734 3.34c-.966 2.109-3.006 4.437-6.151 7.02l.46-.153a14.662 14.662 0 0 1 1.649-.98 58.8 58.8 0 0 1 7.671-3.434 95.76 95.76 0 0 1 15.568-4.161l.423-.065-.065-.1a14.17 14.17 0 0 0-.934-1.315 11.17 11.17 0 0 0-3.3-2.746 24.482 24.482 0 0 0-7.16-2.4 82.14 82.14 0 0 0-2.8-.478c-2.127-.33-3.5-.558-5.017-.818a52.302 52.302 0 0 1-1.9-.349 11.865 11.865 0 0 1-1.231-.329c-.335-.131-.818-.261-.92-.656zm1.2 1.162a1.186 1.186 0 0 1 .176.056c.177.06.4.13.674.2q.306.084.613.163c.279.069.511.134.516.134.033.033.5 1.534.66 2.11.06.218.107.4.1.4a.89.89 0 0 1-.116-.181 9.677 9.677 0 0 0-2.4-2.709 1.923 1.923 0 0 1-.227-.181zm2.286.632a1.808 1.808 0 0 1 .25.042c.79.176 2.207.446 3.113.6a1.154 1.154 0 0 1 .275.06.448.448 0 0 1-.126.079c-.153.079-.771.446-.976.586a8.882 8.882 0 0 0-1.314 1.05c-.135.134-.251.246-.251.246s-.028-.079-.052-.177a15.028 15.028 0 0 0-.831-2.276 2.059 2.059 0 0 1-.093-.214c0 .009 0 0 .005 0zm4.023.766a1.816 1.816 0 0 1 .167.516 7.6 7.6 0 0 1 .223 2.128 3.724 3.724 0 0 1-.028.4l-.013.046-.242-.079c-.5-.158-1.306-.395-2-.59-.395-.107-.715-.2-.715-.214a10.934 10.934 0 0 1 .822-.822 21.437 21.437 0 0 1 1.784-1.385zm.321.047c.014-.014 1.923.316 2.792.483.646.125 1.584.321 1.64.344.028.009-.07.065-.381.2a20.158 20.158 0 0 0-3.043 1.654c-.237.158-.437.288-.441.288a2.337 2.337 0 0 1-.01-.3 6.471 6.471 0 0 0-.5-2.527.7.7 0 0 1-.058-.141zm4.938.976a3.471 3.471 0 0 1-.1.613 11.629 11.629 0 0 1-1.171 2.685 2.773 2.773 0 0 1-.2.316 1.933 1.933 0 0 1-.278-.149 15.324 15.324 0 0 0-1.822-.892c-.186-.079-.348-.144-.353-.153-.032-.028 1.464-1.017 2.254-1.491.627-.381 1.649-.948 1.667-.929zm.354.055c.041 0 .887.233 1.328.363a27.245 27.245 0 0 1 3.164 1.157l.339.153-.237.056a34.644 34.644 0 0 0-5.356 1.658c-.135.056-.256.1-.265.1a1.151 1.151 0 0 1 .1-.237 9.418 9.418 0 0 0 .9-3.095c.005-.088.019-.158.033-.158zm-8.419 1.933a10.269 10.269 0 0 1 1.008.237c.53.149 1.654.525 1.654.553l-.274.242a34.527 34.527 0 0 0-1.9 1.719c-.209.2-.385.362-.395.362s-.013-.028-.009-.065a10.459 10.459 0 0 0-.065-2.8 2.386 2.386 0 0 1-.02-.247zm13.571.014c.009.009-.3.492-.492.767-.279.4-.688.929-1.613 2.09-.487.614-1.036 1.306-1.217 1.538s-.339.428-.344.428a1.725 1.725 0 0 1-.13-.186 9.57 9.57 0 0 0-1.882-2.077 10.868 10.868 0 0 0-.343-.279.5.5 0 0 1-.093-.079c0-.014.79-.353 1.389-.594a47.477 47.477 0 0 1 3.554-1.269c.562-.176 1.162-.348 1.171-.339zm.358.093a1.063 1.063 0 0 1 .265.13 15.773 15.773 0 0 1 3.108 2.332c.246.242.855.874.845.878s-.213.019-.464.038a45.794 45.794 0 0 0-6.868 1.144c-.163.038-.307.07-.316.07s.172-.181.4-.4a11.9 11.9 0 0 0 2.82-3.754c.107-.228.2-.423.209-.437zM65.2 17.438c.065.014.669.3 1.124.525.418.209 1.046.544 1.078.572 0 0-.218.12-.492.255-.874.437-1.622.85-2.4 1.324-.223.135-.409.247-.414.247s-.014-.019.112-.247a9.717 9.717 0 0 0 .943-2.56c.018-.069.037-.116.051-.116zm-.6.112a8.754 8.754 0 0 1-.242.9 11.438 11.438 0 0 1-.822 1.887c-.074.13-.186.32-.246.427l-.116.186-.261-.251a3.368 3.368 0 0 0-.864-.636 1.289 1.289 0 0 1-.223-.13c0-.038.8-.758 1.4-1.278.437-.376 1.357-1.115 1.371-1.1zm3.694 1.519l.227.149a17.447 17.447 0 0 1 1.6 1.184c.265.219.776.679.878.79l.056.061-.376.107a68.357 68.357 0 0 0-5.692 1.821c-.213.079-.395.144-.409.144s-.051.023.428-.418a20.431 20.431 0 0 0 3.122-3.587l.163-.251zm-.971.242c.009.009-.628.906-1.009 1.412-.455.6-1.263 1.617-1.821 2.276-.232.275-.432.5-.441.507s-.019-.065-.019-.172a3.9 3.9 0 0 0-.4-1.673c-.107-.213-.125-.264-.1-.288.088-.079 1.44-.85 2.3-1.31.576-.306 1.478-.762 1.492-.752zm-5.873 1.44a2.091 2.091 0 0 1 .242.121 5.024 5.024 0 0 1 .8.539 1.416 1.416 0 0 1-.27.223c-.441.316-1.11.822-1.5 1.133-.409.326-.423.335-.377.265a7.942 7.942 0 0 0 1.013-2.044.786.786 0 0 1 .093-.237zm1.566 1.226c.023 0 .051.038.176.223a3.366 3.366 0 0 1 .521 1.352l.009.093-.637.247a61.366 61.366 0 0 0-2.9 1.2c-.2.093-.548.26-.776.372s-.413.2-.413.2.144-.111.32-.241a18.689 18.689 0 0 0 3.494-3.22c.1-.116.186-.223.2-.228zm-.72.177a9.8 9.8 0 0 1-.874.985 15.44 15.44 0 0 1-2.885 2.328l-.279.176c-.032.019.009-.028.493-.553.306-.33.539-.608.8-.952a1.578 1.578 0 0 1 .465-.442c.684-.496 2.261-1.561 2.284-1.542z" fill="url(#c)"/>
    <path d="M42.177 41.392c-.086 0-.172.008-.257.008a3.829 3.829 0 0 0-3.581 2.342 6.176 6.176 0 0 0 .006 4.458 3.868 3.868 0 0 0 3.255 2.285c.35.057.584.249 1.261 1.039l.833.976H45.2l-1-1.013a10.649 10.649 0 0 1-1-1.081c0-.042.212-.135.469-.214a3.449 3.449 0 0 0 2.044-1.914 4.017 4.017 0 0 0 .513-2.058c.149-2.984-1.424-4.85-4.044-4.829zM43.5 49.2a3.558 3.558 0 0 1-2.5.172 3.228 3.228 0 0 1-1.731-1.859 5.282 5.282 0 0 1 .1-3.4 2.872 2.872 0 0 1 2.731-1.796c1.837 0 2.883 1.125 3.019 3.24.108 1.765-.483 3.09-1.615 3.639zm26.1-5.255a1.62 1.62 0 0 0-1.446.762l-.256.4v-1.04H66.8V50.3h1.1v-1.993c0-1.823.023-2.036.278-2.535a1.367 1.367 0 0 1 1.539-.862l.392.114v-1.081H69.6zm-6.443-.057a3.214 3.214 0 0 0-.669.078A3.135 3.135 0 0 0 60.24 47.2a3.126 3.126 0 0 0 .819 2.449 3.393 3.393 0 0 0 3.738.534c.249-.106.52-.229.52-.229v-.981l-.52.269c-1.182.514-2.072.514-2.784-.091a2.816 2.816 0 0 1-.748-1.652h4.422v-.841a2.481 2.481 0 0 0-2.535-2.77zm-1.788 2.735a2.554 2.554 0 0 1 .769-1.489 1.654 1.654 0 0 1 .954-.3 1.529 1.529 0 0 1 .926.312 2.434 2.434 0 0 1 .648 1.474h-3.3v.008zm-26.441-1.129c-1.189-.72-1.716-1.239-1.652-1.852.185-1.694 2.279-1.46 3.438-.819l.008-1.14a4.482 4.482 0 0 0-1.559-.292 2.645 2.645 0 0 0-2.748 1.382c-.627 1.388-.072 2.435 1.935 3.6 1.127.656 1.625 1.225 1.625 1.846 0 1.282-1.546 1.729-3.14.925-.328-.164-.606-.3-.621-.3a9.9 9.9 0 0 0-.028 1.233 6.807 6.807 0 0 0 1.225.348c1.823.363 3.481-.492 3.638-1.88.136-1.3-.335-1.986-2.121-3.054zM79.3 43.869a3.381 3.381 0 0 0-.678.079 3.125 3.125 0 0 0-2.235 3.234 3.107 3.107 0 0 0 .819 2.441 3.4 3.4 0 0 0 3.745.534c.248-.106.519-.226.519-.226v-.984l-.52.271c-1.184.513-2.074.513-2.784-.093a2.771 2.771 0 0 1-.748-1.651h4.414v-.841a2.478 2.478 0 0 0-2.532-2.762zm-1.788 2.736a2.6 2.6 0 0 1 .77-1.5 1.639 1.639 0 0 1 .953-.306 1.53 1.53 0 0 1 .926.313 2.447 2.447 0 0 1 .649 1.488h-3.3v.008zm-20.1-1.1c-1.189-.718-1.715-1.239-1.651-1.852.185-1.7 2.278-1.46 3.438-.819l.008-1.14a4.459 4.459 0 0 0-1.56-.29 2.646 2.646 0 0 0-2.747 1.384c-.626 1.388-.064 2.435 1.937 3.6 1.125.655 1.623 1.216 1.623 1.837 0 1.282-1.545 1.737-3.14.925-.326-.163-.6-.3-.62-.3a9.9 9.9 0 0 0-.028 1.233 7.515 7.515 0 0 0 1.217.348c1.824.364 3.483-.49 3.639-1.878.136-1.3-.335-1.98-2.115-3.048zm28.331-1.582a1.613 1.613 0 0 0-1.445.763l-.256.4v-1.037h-1.1v6.237h1.1v-1.994c0-1.823.022-2.037.277-2.535a1.37 1.37 0 0 1 1.54-.861l.391.114v-1.083h-.506zm-37.05 1.549V41.5h-1.106v8.8h4.649v-1.04h-3.543v-3.788zm25.567 1.239l-.911 2.371-.877-2.382-.89-2.643h-1.131a193.248 193.248 0 0 0 2.335 6.244c.349.009.7 0 1.047 0l1.23-3.089 1.254-3.154h-1.082s-.478 1.253-.976 2.656zM51.24 39.1a.6.6 0 0 0 .449-.18.6.6 0 0 0 .185-.441.586.586 0 0 0-.185-.441.615.615 0 0 0-.441-.171.606.606 0 0 0-.449.178.6.6 0 0 0-.178.441.576.576 0 0 0 .178.441.6.6 0 0 0 .441.171zm-.392-1.013a.56.56 0 0 1 .956.392.55.55 0 0 1-.164.4.534.534 0 0 1-.392.156.524.524 0 0 1-.392-.156.549.549 0 0 1-.163-.4.527.527 0 0 1 .155-.391zm.264.449h.072c.05 0 .1.049.143.142l.085.193h.135l-.106-.214c-.043-.086-.086-.135-.136-.149a.26.26 0 0 0 .149-.079.194.194 0 0 0 .049-.143.18.18 0 0 0-.064-.15.354.354 0 0 0-.228-.063h-.227v.8h.116v-.335zm0-.37h.1a.251.251 0 0 1 .15.036c.027.021.034.049.034.1 0 .092-.057.136-.163.136h-.123v-.271zm-18.263.3c0-.277-.008-.484-.014-.606h.006a1.913 1.913 0 0 0 .092.322l1.062 2.371h.178l1.061-2.392a2.053 2.053 0 0 0 .093-.3h.008a6.982 6.982 0 0 0-.029.607v2.093h.364V37.45h-.456l-.976 2.163c-.036.086-.086.214-.149.384h-.015a2.485 2.485 0 0 0-.142-.369l-.954-2.186h-.484v3.111h.35v-2.085zm3.617.006h.313v1.938h-.313zm.156-.71a.22.22 0 0 0 .164-.066.227.227 0 0 0 .072-.163.206.206 0 0 0-.071-.163.227.227 0 0 0-.165-.066.223.223 0 0 0-.164.066.228.228 0 0 0-.071.163.2.2 0 0 0 .071.163.233.233 0 0 0 .164.066zm2.393 2.69v-.341a.9.9 0 0 1-.547.192.711.711 0 0 1-.55-.229.886.886 0 0 1-.206-.612.922.922 0 0 1 .22-.647.718.718 0 0 1 .556-.235.912.912 0 0 1 .527.171v-.363a1.219 1.219 0 0 0-1.354.221 1.249 1.249 0 0 0-.312.881 1.136 1.136 0 0 0 .284.8 1.014 1.014 0 0 0 .77.32 1.255 1.255 0 0 0 .612-.157zm.9-1.033a1 1 0 0 1 .164-.6.446.446 0 0 1 .363-.193.413.413 0 0 1 .269.072v-.371a.57.57 0 0 0-.211-.027.545.545 0 0 0-.343.122.755.755 0 0 0-.241.376H39.9v-.455h-.355v2.221h.356v-1.14zm2.041 1.181a1.05 1.05 0 0 0 .8-.322 1.2 1.2 0 0 0 .3-.854 1.209 1.209 0 0 0-.277-.847.981.981 0 0 0-.776-.307 1.113 1.113 0 0 0-.8.293 1.21 1.21 0 0 0-.327.9 1.155 1.155 0 0 0 .284.819 1.034 1.034 0 0 0 .8.321zm-.506-1.809a.7.7 0 0 1 .534-.214.662.662 0 0 1 .527.214 1.19 1.19 0 0 1 .014 1.274.648.648 0 0 1-.534.229.692.692 0 0 1-.541-.229.9.9 0 0 1-.2-.627.87.87 0 0 1 .2-.647zm3.168 1.616a.583.583 0 0 0 .207-.456.557.557 0 0 0-.163-.406 1.27 1.27 0 0 0-.414-.242 1.293 1.293 0 0 1-.335-.185.3.3 0 0 1-.092-.228.269.269 0 0 1 .106-.221.441.441 0 0 1 .286-.085.838.838 0 0 1 .506.158v-.356a1.036 1.036 0 0 0-.477-.106.85.85 0 0 0-.564.184.611.611 0 0 0-.078.861 1.152 1.152 0 0 0 .4.249 1.508 1.508 0 0 1 .364.206.276.276 0 0 1 .092.213c0 .207-.142.314-.42.314a.878.878 0 0 1-.577-.212v.383a1.041 1.041 0 0 0 .547.136.96.96 0 0 0 .612-.207zm1.7-2.136a1.112 1.112 0 0 0-.8.292 1.219 1.219 0 0 0-.327.9 1.167 1.167 0 0 0 .284.819 1.161 1.161 0 0 0 1.6 0 1.193 1.193 0 0 0 .3-.854 1.217 1.217 0 0 0-.278-.848 1 1 0 0 0-.775-.306zm.682 1.17a.954.954 0 0 1-.178.627.648.648 0 0 1-.534.229.694.694 0 0 1-.542-.229.9.9 0 0 1-.2-.627.913.913 0 0 1 .214-.655.7.7 0 0 1 .534-.214.675.675 0 0 1 .526.214 1.086 1.086 0 0 1 .178.655zm.962 1.112h.355V38.63h.52v-.3h-.52v-.343c0-.312.121-.469.371-.469a.487.487 0 0 1 .233.057v-.321a.658.658 0 0 0-.256-.035.666.666 0 0 0-.477.178.748.748 0 0 0-.229.577v.364h-.375v.3h.375v1.916zm1.459-.606c0 .434.192.655.584.655a.64.64 0 0 0 .335-.073v-.305a.373.373 0 0 1-.229.071.3.3 0 0 1-.256-.093.523.523 0 0 1-.079-.32v-1.253h.564v-.3h-.56v-.655c-.122.043-.242.079-.356.114v.541h-.384v.3h.384v1.317zm38.214 4.094a.61.61 0 0 0-.441-.172.612.612 0 0 0-.627.621.582.582 0 0 0 .177.441.627.627 0 0 0 .449.171.612.612 0 0 0 .449-.178.6.6 0 0 0 .184-.441.618.618 0 0 0-.192-.442zm-.058.841a.572.572 0 0 1-.783 0 .556.556 0 0 1-.164-.4.56.56 0 0 1 .947-.392.535.535 0 0 1 .164.392.511.511 0 0 1-.16.4zm-.32-.364a.3.3 0 0 0 .15-.078.2.2 0 0 0 .049-.144.183.183 0 0 0-.064-.149.356.356 0 0 0-.228-.063h-.227v.8h.114v-.335h.071c.049 0 .1.049.142.142l.085.192h.136l-.107-.214c-.036-.093-.079-.135-.122-.149zm-.078-.071h-.122v-.27h.1a.248.248 0 0 1 .149.035c.029.021.036.049.036.1 0 .092-.058.135-.164.135zm-19.861-6.208h.1v-.8h.264v-.1h-.627v.1h.264v.8zm.6-.6a1.375 1.375 0 0 0-.006-.177.493.493 0 0 0 .028.092l.306.685h.054l.307-.691c.008-.022.015-.049.029-.086a1.645 1.645 0 0 0-.007.171v.6h.106v-.9h-.128l-.277.619c-.007.022-.029.065-.043.114h-.008a.654.654 0 0 0-.041-.106l-.278-.627h-.143v.9h.1v-.6z" fill="#231f1f"/>
</svg>
