<svg width="200" height="200" viewBox="0 0 200 200" fill="none" xmlns="http://www.w3.org/2000/svg">
<path d="M126.277 93.347L82.4371 106.422L44.2954 121.822L33.5975 124.395C27.937 129.274 22.0676 133.946 16.003 138.402C12.8532 140.778 9.9479 143.412 7.32344 146.271C4.60864 149.241 2.44073 152.594 0.904679 156.199C0.0071208 158.705 -0.226865 161.37 0.22194 163.975C0.670744 166.58 1.78953 169.05 3.48644 171.183C9.76861 178.482 18.036 184.149 27.464 187.619C34.3077 190.233 41.3515 192.386 48.5389 194.062C63.3166 197.129 78.3435 199.09 93.4702 199.925C95.4014 200.025 97.3373 200.025 99.2685 199.925C100.852 197.532 102.281 195.057 103.548 192.511C110.188 180.521 115.403 167.915 119.102 154.909C121.128 146.325 122.456 137.615 123.075 128.851C123.31 125.92 123.41 116.083 123.21 112.754C122.984 107.995 122.429 103.254 121.549 98.5586C121.433 98.1529 121.399 97.7312 121.449 97.3143C123.394 96.6761 125.375 96.1304 127.383 95.6792L126.291 93.3209L126.277 93.347ZM116.292 98.7019C117.293 103.709 117.867 108.78 118.011 113.868C118.107 114.551 118.107 115.243 118.011 115.926C117.747 115.926 112.406 113.047 108.597 110.871C105.288 108.962 98.9903 105.151 97.999 104.422C97.6638 104.213 97.6994 104.181 100.417 103.334C104.967 101.914 115.907 98.7019 116.25 98.7019H116.292ZM93.9552 105.425C94.9787 105.765 95.9404 106.244 96.808 106.845C103.29 110.583 109.995 113.989 116.891 117.047C118.118 117.529 118.247 117.347 115.465 119.106C108.251 123.449 100.625 127.192 92.6785 130.291C91.0525 130.942 89.6974 131.47 89.6618 131.47C89.7265 130.904 89.8605 130.347 90.0611 129.809C92.1824 122.871 93.3797 115.725 93.6271 108.526C93.6271 105.503 93.6271 105.503 93.9552 105.412V105.425ZM89.3479 107.028C89.5017 109.964 89.4373 112.907 89.1553 115.835C88.552 120.293 87.5235 124.694 86.0815 128.988C85.8744 129.707 85.6196 130.414 85.3184 131.105C83.1203 129.419 81.0608 127.588 79.1564 125.627C76.7746 123.156 74.7273 120.433 73.0586 117.516C72.3091 116.196 71.6886 114.818 71.2042 113.399C71.732 113.067 89.1981 106.884 89.3265 107.015L89.3479 107.028ZM67.6811 114.806C67.7131 114.794 67.7488 114.794 67.7809 114.806C67.9867 115.155 68.154 115.521 68.2801 115.9C69.6901 119.097 71.5377 122.118 73.7789 124.89C76.0452 127.63 78.6091 130.153 81.4315 132.421C82.2302 133.027 82.9577 133.607 83.0576 133.724C83.1574 133.841 83.3214 133.874 77.9154 135.75C71.6536 137.926 64.8283 140.108 57.0117 142.408C55.1431 142.955 53.2745 143.516 51.4131 144.076C51.1136 144.167 51.2134 144.011 52.0764 142.773C57.1259 135.065 61.5019 127.006 65.1635 118.669C65.7269 117.366 66.2903 116.005 66.3902 115.698C66.4298 115.524 66.5155 115.361 66.6398 115.224C66.7641 115.086 66.9232 114.979 67.1034 114.91C67.2869 114.855 67.4755 114.816 67.6668 114.793L67.6811 114.806ZM61.0555 117.314C60.0926 119.454 59.0071 121.546 57.8033 123.581C54.594 129.301 51.0779 134.936 46.3922 141.776C45.5935 142.955 44.8303 144.043 44.7305 144.167C44.6306 144.291 44.5023 144.317 43.9674 143.379C42.7582 141.155 41.8825 138.793 41.3642 136.356C40.8888 133.36 40.9442 130.313 41.5282 127.333C41.9561 125.457 41.9276 125.49 42.919 125.034C47.1981 123.079 60.8772 117.216 61.0127 117.314H61.0555ZM118.211 119.438V120.741C118.138 128.36 117.485 135.966 116.257 143.503C116.057 144.682 115.893 145.652 115.857 145.678C115.822 145.704 114.902 145.437 113.775 145.138C108.492 143.605 103.386 141.606 98.5267 139.17C95.8385 137.878 93.2485 136.422 90.7743 134.812C90.81 134.812 92.2007 134.115 93.8268 133.333C100.055 130.394 106.104 127.149 111.949 123.614C113.967 122.376 117.02 120.356 117.655 119.829L118.182 119.47L118.211 119.438ZM36.0152 128.395C36.1436 128.395 36.1151 128.636 35.9154 129.698C35.7462 130.779 35.6249 131.866 35.5517 132.955C35.243 137.182 36.2545 141.402 38.4686 145.125C38.8965 145.873 39.2821 146.64 39.624 147.424C39.3958 147.607 17.4579 153.483 10.5685 155.203L6.58885 156.206C6.36062 156.265 6.32497 156.206 6.42482 155.717C8.01841 149.938 11.3598 144.685 16.0672 140.558C19.2278 137.494 22.9103 134.918 26.9719 132.929C30.3453 131.17 35.5303 128.539 35.9511 128.421H36.0152V128.395ZM87.7076 136.864C88.3259 137.119 88.9241 137.413 89.4977 137.744C97.4653 141.794 106.003 144.828 114.873 146.76L115.636 146.916L114.581 147.457C110.173 149.698 95.6882 155.209 80.8823 160.264C78.7427 160.988 76.6032 161.717 76.2109 161.867C75.9718 161.977 75.7135 162.047 75.4478 162.075C75.4478 162.075 76.0397 160.988 76.8028 159.685C80.9061 152.715 84.3974 145.459 87.244 137.985C87.5079 137.411 87.6719 136.897 87.7076 136.864ZM82.4371 138.441C82.2964 138.918 82.1078 139.383 81.8736 139.828C78.5215 147.091 74.682 154.157 70.377 160.988C69.1503 162.988 68.1233 164.59 68.0876 164.59C68.0519 164.59 67.0606 164.043 65.8696 163.378C59.3084 159.807 53.4501 155.256 48.5389 149.913L47.9399 149.261L50.9567 148.506C60.8822 146.086 70.6063 143.023 80.055 139.34C81.3459 138.806 82.4014 138.415 82.4371 138.415V138.441ZM115.173 148.864C115.173 149.561 113.518 155.795 112.127 160.304C110.965 164.088 109.988 167.053 108.148 172.29C107.356 174.59 106.657 176.492 106.629 176.492C106.481 176.478 106.335 176.449 106.194 176.407C96.9817 174.932 87.9568 172.609 79.2562 169.476C76.9383 168.629 73.622 167.261 73.4223 167.111C74.8597 166.393 76.3435 165.756 77.8655 165.202C92.9424 159.183 108.583 152.343 113.946 149.405C114.322 149.168 114.736 148.986 115.173 148.864ZM39.5741 151.222C39.6383 151.281 35.4304 156.825 29.5323 164.356L24.1976 171.228C23.3061 172.375 21.9439 174.193 21.1808 175.287L19.7544 177.241L18.2638 176.088C16.0434 174.326 13.9827 172.402 12.1018 170.336C9.48018 167.498 7.58894 164.158 6.56743 160.564C6.2037 159.111 6.2037 158.382 6.56743 158.291C7.06667 158.173 15.9103 156.264 24.1976 154.506C28.8048 153.541 34.1395 152.388 36.058 151.965C37.9765 151.541 39.5384 151.209 39.5741 151.209V151.222ZM43.8104 152.708L44.8731 153.795C49.3297 158.413 54.5783 162.338 60.4136 165.417C61.0557 165.703 61.6569 166.06 62.2038 166.479C61.9684 166.629 41.7279 173.196 32.3494 176.16C27.0789 177.86 22.7356 179.222 22.707 179.222C22.4749 179.105 22.2531 178.973 22.0438 178.824L21.4447 178.434L22.4075 177.131C25.5241 173.013 29.4325 168.505 37.948 159.118L43.8104 152.675V152.708ZM70.2557 169.991C70.2557 169.958 71.7463 170.44 73.5364 171.046C77.5536 172.435 81.6597 173.599 85.8319 174.531C91.9453 175.901 98.1556 176.88 104.418 177.463C105.131 177.521 105.545 177.587 105.409 177.678C105.274 177.769 100.31 179.28 96.7295 180.284C91.0239 181.919 73.6362 186.609 59.4508 190.329C56.8334 191.026 54.5797 191.632 54.4584 191.632C53.9576 191.652 53.4615 191.536 53.0321 191.3C53.5725 190.593 54.1583 189.917 54.7865 189.274C59.6154 184.005 64.1088 178.486 68.2445 172.746C69.3357 171.235 70.2628 169.991 70.2628 169.965L70.2557 169.991ZM64.4218 170.14C64.4575 170.173 62.1039 173.619 58.003 179.554C56.2486 182.062 54.2944 184.909 53.5955 185.906C52.8966 186.902 51.9409 188.388 51.3774 189.241L50.4146 190.785L49.9154 190.661C45.9527 189.469 42.0196 188.196 38.1192 186.844C35.4866 185.881 32.9109 184.794 30.4024 183.587C28.3774 182.677 26.4647 181.571 24.6968 180.29C24.761 180.258 29.297 179.137 34.7672 177.776C49.2807 174.173 57.3326 172.088 62.5817 170.61C63.175 170.417 63.7828 170.265 64.4004 170.154L64.4218 170.14ZM105.68 178.974C105.816 179.28 100.445 192.902 98.4911 197.215C98.0632 198.186 97.8991 198.427 97.6638 198.401C93.2956 197.883 88.933 197.327 84.5766 196.733C76.325 195.586 62.4676 193.371 58.9944 192.648L58.1956 192.498L63.138 191.469C73.7361 189.287 78.8283 188.108 84.0132 186.655C90.6877 184.789 97.2085 182.493 103.526 179.782C104.218 179.473 104.933 179.21 105.666 178.994L105.68 178.974Z" fill="url(#paint0_linear_1_36)"/>
<path d="M81.082 0C74.2693 1.88732 67.5661 4.08991 60.9984 6.59924C52.9219 9.39433 45.1831 12.9441 37.9052 17.1919C36.1548 18.2934 34.6394 19.6777 33.4335 21.2765C33.2968 21.6051 33.229 21.9543 33.2338 22.3058L37.6698 26.1494L48.2394 29.2373L73.3937 33.3545L102.15 37.8691L102.449 35.5955C102.349 35.5955 102.285 35.5629 102.185 35.5629L98.4197 35.0222L97.6637 33.7779C93.7555 27.4782 90.1714 21.0153 86.923 14.4102C85.0232 10.443 83.4079 6.36718 82.0876 2.20843C81.5241 0.156351 81.46 0.0325727 81.0962 0H81.082ZM80.5471 1.54395H80.5899C80.5899 1.54395 80.7539 2.42341 80.8894 3.42014C81.4759 7.75725 82.5514 12.0274 84.0988 16.1626C85.3255 19.4915 85.3255 19.3156 83.9062 18.9183C80.5257 18.0714 65.3632 15.661 54.4156 14.2864C53.326 14.1723 52.2413 14.0224 51.1635 13.8369C51.0351 13.7131 59.087 9.86954 62.6316 8.35817C67.1675 6.4494 79.6199 1.69378 80.5471 1.54395ZM48.6031 15.1072L49.9011 15.4981C61.1594 18.4235 72.68 20.4292 84.327 21.4915L86.381 21.6739C85.7147 22.0567 85.0159 22.39 84.2913 22.6706C79.5914 24.8204 74.4207 27.4523 70.8405 29.4849C70.1619 29.9016 69.4462 30.2655 68.7009 30.5728C68.5654 30.5728 67.8736 30.449 67.1462 30.3578L65.8196 30.1754L62.5033 27.2113C58.4743 23.6269 54.4209 20.0656 50.3433 16.5274L48.6031 15.1072ZM47.2837 16.0453L51.9551 21.3677C54.5012 24.3058 57.0901 27.1787 57.6607 27.8171C58.0226 28.1872 58.354 28.5813 58.652 28.9963C58.5236 29.0875 51.8909 27.9083 48.382 27.1787C44.8731 26.4491 43.2755 26.0647 41.0575 25.4263L39.2389 24.8791V24.4556C39.2389 22.4296 42.0916 19.4003 46.8558 16.3189L47.2837 16.0453ZM87.0086 23.3091C87.137 23.3091 87.301 23.5827 87.7218 24.397C88.8487 26.6641 92.3647 32.7812 93.2206 33.9603C93.4916 34.3577 93.9337 34.3838 89.2837 33.6867C78.0509 32.0255 74.435 31.4783 74.435 31.4197C74.667 31.2385 74.9234 31.0852 75.1981 30.9637C78.7814 29.1341 82.1655 26.9963 85.3041 24.5794C86.0672 24.0061 86.7305 23.4589 86.8945 23.3677C87.0586 23.2765 86.9944 23.2765 87.03 23.3091H87.0086Z" fill="url(#paint1_linear_1_36)"/>
<path d="M33.6617 20.8466C33.4443 21.2512 33.3284 21.6951 33.3222 22.1458C33.316 22.5965 33.4198 23.0429 33.6261 23.4524C34.4309 24.7359 35.4874 25.8731 36.7427 26.8074C36.7427 26.8074 51.4916 39.9472 53.2817 41.7908C61.1213 49.645 65.4171 59.9179 65.3061 70.5461C65.5139 78.079 63.7176 85.5454 60.0713 92.3047C53.1818 106.044 38.6327 121.21 16.2027 138.037L19.4834 137.04C23.2468 134.68 27.1754 132.547 31.244 130.656C48.8728 122.016 67.1559 114.54 85.9531 108.285C122.064 96.4157 159.205 87.3479 196.983 81.1778L200 80.7544L199.536 80.1029C197.496 77.1342 195.272 74.274 192.875 71.5363C186.37 64.2393 178.377 58.1642 169.34 53.6473C153.306 46.0547 136.079 40.7803 118.275 38.0124C111.639 36.8694 104.981 35.8312 98.3057 34.8985C83.136 32.7487 73.3438 31.2633 62.5247 29.5695C57.9928 28.888 53.4752 28.13 48.974 27.296C46.0076 26.7257 43.0769 26.0102 40.1946 25.1527C37.8054 24.2993 34.3606 23.4524 33.6332 20.8791L33.6617 20.8466ZM42.22 28.4165C42.6482 28.5081 43.0679 28.6301 43.4753 28.7813C44.7376 29.1722 46.328 29.6282 48.2822 30.0842C49.7371 30.449 51.1944 30.803 52.6541 31.1461C54.6439 31.5956 56.2985 32.019 56.3341 32.019C56.5695 32.234 59.9001 42.0123 61.0412 45.7647C61.4691 47.1849 61.8044 48.3705 61.7544 48.3705C61.4275 48.0095 61.1497 47.6135 60.9271 47.1914C56.4874 40.3779 50.6803 34.3905 43.8104 29.5435C43.239 29.1883 42.6979 28.7941 42.1915 28.3644L42.22 28.4165ZM58.5236 32.5337C59.1243 32.5867 59.72 32.6781 60.3066 32.8073C65.9409 33.9538 76.0469 35.7128 82.5084 36.716C83.1772 36.7727 83.8358 36.904 84.4697 37.1069C84.2036 37.323 83.8999 37.4969 83.571 37.6215C82.4799 38.1362 78.0723 40.527 76.6103 41.4391C73.2566 43.4432 70.1188 45.7336 67.2389 48.2793C66.2761 49.1523 65.4488 49.8819 65.4488 49.8819C65.4488 49.8819 65.2491 49.3673 65.0779 48.7288C63.5425 43.6488 61.5605 38.6903 59.1513 33.9017C58.9015 33.4488 58.6801 32.9834 58.488 32.5076C58.488 32.5662 58.488 32.5076 58.5236 32.5076V32.5337ZM87.2155 37.5238C87.7945 38.5835 88.1959 39.7167 88.4065 40.8853C89.6497 45.4147 90.1851 50.0819 89.9969 54.7483C89.9816 55.6195 89.915 56.4894 89.7972 57.3541L89.7045 57.6538L87.9786 57.1391C84.4126 56.1098 78.6643 54.5659 73.7147 53.2955C70.8976 52.5985 68.6154 51.9926 68.6154 51.9014C70.4642 50.0227 72.4211 48.2352 74.4778 46.5465C78.5424 43.3368 82.7895 40.3251 87.2012 37.5238H87.2155ZM89.5048 37.83C89.6047 37.7388 103.22 39.8886 109.417 40.9765C114.024 41.7908 120.714 43.0677 121.114 43.2175C121.313 43.2762 120.614 43.641 118.396 44.5204C110.837 47.5368 103.576 51.1417 96.6938 55.2955C95.0036 56.3248 93.5772 57.1717 93.5486 57.1717C93.4791 56.5223 93.4552 55.8695 93.4773 55.2173C93.5085 49.5671 92.2958 43.9687 89.9113 38.7551C89.7373 38.4636 89.5986 38.1555 89.4977 37.8365L89.5048 37.83ZM124.722 44.1882C124.616 45.5361 124.377 46.8726 124.009 48.1816C122.044 54.3104 119.238 60.1875 115.658 65.6732C115.233 66.3879 114.757 67.0757 114.231 67.7318C113.543 67.4581 112.879 67.1335 112.249 66.7611C108.062 64.5641 103.721 62.6228 99.2542 60.9501C97.9276 60.4355 96.7723 60.012 96.7366 59.9534C96.5084 59.771 107.178 53.3281 112.812 50.2402C117.284 47.7582 124.573 44.0644 124.701 44.1882H124.722ZM127.247 44.5465C127.539 44.5465 133.573 46.0644 136.718 46.9113C144.403 48.9961 151.939 51.5134 159.284 54.4486L161.702 55.4453L160.011 55.8102C146.98 58.4619 134.205 62.0741 121.813 66.6113C120.85 66.9761 119.987 67.2627 119.923 67.2627C120.096 66.7254 120.336 66.2075 120.636 65.7188C124.028 59.3848 126.199 52.5641 127.055 45.5563C127.09 44.983 127.19 44.527 127.29 44.527L127.247 44.5465ZM67.2032 57.1391C69.6265 57.543 72.0259 58.0583 74.3922 58.6831C78.1722 59.6537 86.1885 62.1032 86.1885 62.2856L84.2343 63.8621C79.5673 67.4405 75.0473 71.176 70.6836 75.0606C69.1931 76.3636 67.9378 77.4189 67.8665 77.4189C67.7952 77.4189 67.7738 77.2365 67.8023 76.9955C68.5438 70.9237 68.3878 64.7885 67.3387 58.7547C67.2607 58.221 67.2131 57.6839 67.1961 57.1456L67.2032 57.1391ZM163.991 57.2303C164.055 57.289 161.851 60.4355 160.482 62.227C158.492 64.8328 155.575 68.279 148.978 75.8424C145.505 79.8423 141.589 84.3504 140.299 85.8618C139.008 87.3732 137.881 88.65 137.845 88.65C137.507 88.2651 137.198 87.8604 136.918 87.4383C133.195 82.3508 128.673 77.7917 123.496 73.9076C122.694 73.2866 121.878 72.6807 121.049 72.09C120.806 71.9438 120.583 71.771 120.386 71.5754C120.386 71.4842 126.02 69.2757 130.292 67.7057C138.618 64.6443 147.074 61.8865 155.639 59.4388C159.648 58.2922 163.927 57.1717 163.991 57.2303ZM166.544 57.8362C167.214 58.0368 167.85 58.3219 168.434 58.6831C176.48 62.8932 183.925 67.9959 190.6 73.875C192.355 75.4515 196.698 79.5687 196.627 79.5948C196.555 79.6208 195.108 79.7186 193.317 79.8423C176.807 81.1875 160.432 83.6789 144.335 87.295C143.173 87.5425 142.146 87.751 142.082 87.751C142.017 87.751 143.308 86.5719 144.934 85.1452C153.35 78.2942 160.187 69.9806 165.046 60.6896C165.81 59.2042 166.473 57.9339 166.537 57.8427L166.544 57.8362ZM92.7142 64.7416C93.1778 64.8328 97.4855 66.696 100.73 68.1617C103.712 69.5233 108.191 71.7057 108.419 71.8881C108.419 71.8881 106.864 72.6698 104.91 73.5493C98.6765 76.3961 93.3418 79.0866 87.7932 82.1745C86.2028 83.054 84.8762 83.7836 84.8405 83.7836C84.8049 83.7836 84.7407 83.6599 85.6393 82.1745C88.7286 76.932 90.9927 71.3176 92.3647 65.4973C92.4931 65.0478 92.6286 64.7416 92.7285 64.7416H92.7142ZM88.435 65.4712C87.9741 67.4522 87.398 69.4093 86.7091 71.3343C85.1634 75.5846 83.2013 79.6989 80.8466 83.6273C80.3189 84.4742 79.5201 85.7119 79.0922 86.409L78.2649 87.6207L76.4034 85.9855C74.605 84.3126 72.5246 82.9138 70.2414 81.8423C69.6816 81.6093 69.1488 81.3256 68.651 80.9954C68.651 80.7479 74.3566 76.0574 78.6358 72.6698C81.7524 70.2203 88.3138 65.4061 88.4136 65.5038L88.435 65.4712ZM114.78 75.3668L116.399 76.3375C120.361 78.7081 124.171 81.2834 127.811 84.0507C129.7 85.4774 133.345 88.4741 134.072 89.1972L134.472 89.5946L131.79 90.2917C118.076 93.7035 104.531 97.6617 91.1951 102.155C89.676 102.669 88.378 103.093 88.2782 103.093C88.1783 103.093 87.9144 103.243 91.3306 100.37C99.723 93.3987 107.196 85.5563 113.597 77.002L114.759 75.3668H114.78ZM107.855 76.9434C107.919 77.002 103.376 82.8455 100.659 86.1419C97.4142 90.0506 91.6515 96.6759 87.6719 100.969C86.0173 102.761 84.5909 104.226 84.5267 104.272C84.4626 104.317 84.3912 103.848 84.3912 103.151C84.3402 99.3698 83.3656 95.6463 81.5384 92.2525C80.7753 90.8649 80.647 90.5327 80.8253 90.3764C81.4529 89.8617 91.0953 84.839 97.2287 81.8423C101.337 79.8488 107.77 76.8782 107.87 76.9434H107.855ZM65.9694 86.3243C66.5628 86.5527 67.1393 86.8161 67.6954 87.1126C69.7161 88.1131 71.6268 89.289 73.4009 90.6239C72.8273 91.1791 72.1805 91.6671 71.4753 92.0767C68.3301 94.1353 63.5588 97.4316 60.7774 99.4576C57.8604 101.581 57.7606 101.64 58.0886 101.184C61.1858 97.0861 63.6191 92.6013 65.3133 87.8683C65.441 87.3241 65.6579 86.8026 65.9694 86.3243ZM77.138 94.3111C77.3021 94.3111 77.5018 94.5587 78.3933 95.7639C80.3171 98.4186 81.5851 101.424 82.109 104.572L82.1732 105.177L77.6301 106.787C70.6641 109.231 63.7676 111.838 56.9475 114.604C55.5211 115.21 53.0392 116.298 51.4131 117.027C49.787 117.757 48.4676 118.33 48.4676 118.33C48.4676 118.33 49.4946 117.607 50.7499 116.76C59.9994 110.765 68.3734 103.716 75.6689 95.7834C76.3821 95.0277 76.9954 94.3307 77.0952 94.2981L77.138 94.3111ZM72.003 95.4642C70.0851 97.7284 68.0027 99.8722 65.7697 101.881C59.6029 107.673 52.6945 112.765 45.194 117.047L43.2042 118.193C42.976 118.317 43.2684 118.011 46.7203 114.591C48.9027 112.441 50.5644 110.63 52.4258 108.389C53.3038 107.232 54.4326 106.252 55.7422 105.51C60.6204 102.278 71.8675 95.3404 72.0316 95.4642H72.003Z" fill="url(#paint2_radial_1_36)"/>
<defs>
<linearGradient id="paint0_linear_1_36" x1="11.9809" y1="162.357" x2="27.0922" y2="152.582" gradientUnits="userSpaceOnUse">
<stop stop-color="#909CA9"/>
<stop offset="1" stop-color="#EDEDEE"/>
</linearGradient>
<linearGradient id="paint1_linear_1_36" x1="12.3382" y1="0.746835" x2="25.1213" y2="0.746835" gradientUnits="userSpaceOnUse">
<stop stop-color="#939FAB"/>
<stop offset="1" stop-color="#DCDEE1"/>
</linearGradient>
<radialGradient id="paint2_radial_1_36" cx="0" cy="0" r="1" gradientUnits="userSpaceOnUse" gradientTransform="translate(80.9888 68.8295) rotate(-172.243) scale(16.4093 30.1053)">
<stop stop-color="#EE352C"/>
<stop offset="1" stop-color="#A91D22"/>
</radialGradient>
</defs>
</svg>
