<svg width="24" height="24" viewBox="0 0 24 24" fill="none" xmlns="http://www.w3.org/2000/svg">
<path d="M6.76504 11.5303C6.76504 11.8258 6.79504 12.0658 6.85204 12.2428C6.91504 12.4183 6.99604 12.6103 7.10704 12.8188C7.14246 12.8739 7.16169 12.9378 7.16254 13.0033C7.16254 13.0828 7.11454 13.1638 7.01254 13.2433L6.50854 13.5793C6.44804 13.623 6.37609 13.648 6.30154 13.6513C6.22054 13.6513 6.14104 13.6123 6.06154 13.5403C5.95373 13.4243 5.85729 13.2982 5.77354 13.1638C5.68482 13.0099 5.60274 12.8523 5.52754 12.6913C4.90354 13.4278 4.12204 13.7968 3.18004 13.7968C2.50954 13.7968 1.97404 13.6033 1.58404 13.2193C1.19254 12.8353 0.993042 12.3223 0.993042 11.6818C0.993042 11.0008 1.23304 10.4488 1.71904 10.0318C2.20654 9.61481 2.85304 9.4078 3.67504 9.4078C3.94504 9.4078 4.22554 9.43181 4.52104 9.47081C4.81654 9.51131 5.12104 9.57581 5.43904 9.64781V9.0628C5.43904 8.4538 5.31154 8.02931 5.06404 7.78181C4.80904 7.53281 4.37704 7.4128 3.76204 7.4128C3.48304 7.4128 3.19654 7.44581 2.90104 7.51781C2.60745 7.58768 2.31922 7.67841 2.03854 7.7893C1.94792 7.83033 1.85473 7.86541 1.75954 7.8943C1.7183 7.90793 1.67542 7.916 1.63204 7.9183C1.51954 7.9183 1.46404 7.8373 1.46404 7.6693V7.2763C1.46404 7.1488 1.47904 7.0513 1.51954 6.9973C1.57999 6.92371 1.65712 6.8656 1.74454 6.82781C2.02204 6.68381 2.35804 6.5638 2.74954 6.4678C3.13954 6.3628 3.55504 6.3163 3.99454 6.3163C4.94404 6.3163 5.63854 6.53231 6.08554 6.96431C6.52504 7.39631 6.74854 8.0533 6.74854 8.9353V11.5303H6.76354H6.76504ZM3.52354 12.7468C3.78604 12.7468 4.05754 12.6988 4.34554 12.6028C4.63354 12.5068 4.88854 12.3298 5.10304 12.0898C5.23167 11.9424 5.32457 11.7674 5.37454 11.5783C5.42254 11.3848 5.45554 11.1538 5.45554 10.8808V10.5448C5.21327 10.4861 4.96788 10.441 4.72054 10.4098C4.47182 10.3776 4.22133 10.3611 3.97054 10.3603C3.43504 10.3603 3.04504 10.4653 2.78104 10.6813C2.51704 10.8973 2.39104 11.2018 2.39104 11.6023C2.39104 11.9773 2.48554 12.2578 2.68504 12.4513C2.87704 12.6508 3.15604 12.7468 3.52354 12.7468ZM9.93304 13.6123C9.78904 13.6123 9.69304 13.5883 9.63004 13.5313C9.56554 13.4833 9.51004 13.3723 9.46204 13.2193L7.58704 7.0288C7.55057 6.92499 7.52641 6.81725 7.51504 6.70781C7.51504 6.58031 7.57804 6.50831 7.70554 6.50831H8.48854C8.63854 6.50831 8.74354 6.53231 8.79904 6.58781C8.86354 6.63581 8.91154 6.7483 8.95954 6.8998L10.3005 12.2023L11.5455 6.8998C11.5845 6.7408 11.6325 6.63581 11.697 6.58781C11.7929 6.52915 11.9044 6.5014 12.0165 6.50831H12.6555C12.8055 6.50831 12.9105 6.53231 12.9735 6.58781C13.038 6.63581 13.0935 6.7483 13.1265 6.8998L14.3865 12.2668L15.7665 6.8998C15.7922 6.78369 15.8475 6.6762 15.927 6.58781C16.02 6.529 16.1293 6.50116 16.239 6.50831H16.9815C17.109 6.50831 17.181 6.57281 17.181 6.70781C17.181 6.74831 17.172 6.78881 17.166 6.83681C17.1531 6.90488 17.134 6.97165 17.109 7.0363L15.1845 13.2268C15.138 13.3873 15.081 13.4923 15.018 13.5403C14.9275 13.5982 14.8209 13.6261 14.7135 13.6198H14.028C13.8765 13.6198 13.773 13.5958 13.7085 13.5403C13.644 13.4833 13.5885 13.3798 13.557 13.2193L12.3195 8.0548L11.0895 13.2133C11.0505 13.3738 11.0025 13.4773 10.9395 13.5328C10.875 13.5898 10.7625 13.6138 10.62 13.6138H9.93304V13.6123ZM20.19 13.8283C19.7758 13.8289 19.363 13.7805 18.96 13.6843C18.561 13.5883 18.2505 13.4833 18.042 13.3633C17.9145 13.2913 17.8275 13.2118 17.7945 13.1383C17.7641 13.0677 17.7483 12.9917 17.748 12.9148V12.5068C17.748 12.3388 17.811 12.2578 17.931 12.2578C17.98 12.2579 18.0287 12.266 18.075 12.2818C18.123 12.2983 18.195 12.3298 18.2745 12.3628C18.5445 12.4828 18.8415 12.5788 19.152 12.6433C19.4715 12.7063 19.782 12.7393 20.1015 12.7393C20.6055 12.7393 20.9955 12.6508 21.267 12.4753C21.3975 12.3963 21.5046 12.2842 21.5776 12.1504C21.6506 12.0165 21.6868 11.8657 21.6825 11.7133C21.6852 11.6104 21.6675 11.508 21.6305 11.412C21.5934 11.3159 21.5377 11.2282 21.4665 11.1538C21.324 11.0008 21.0525 10.8643 20.661 10.7368L19.503 10.3768C18.921 10.1923 18.489 9.91931 18.2265 9.55931C17.9696 9.22667 17.8293 8.81864 17.8275 8.3983C17.8275 8.0623 17.8995 7.76531 18.042 7.50881C18.186 7.25381 18.378 7.0288 18.618 6.8518C18.858 6.6688 19.128 6.5323 19.4475 6.4363C19.767 6.3403 20.1015 6.2998 20.4525 6.2998C20.6295 6.2998 20.8125 6.30731 20.988 6.33131C21.171 6.35531 21.339 6.38831 21.507 6.42131C21.666 6.46031 21.819 6.49931 21.9615 6.54881C22.1055 6.59681 22.2165 6.6448 22.2975 6.6928C22.3917 6.74015 22.4738 6.80838 22.5375 6.8923C22.5889 6.9704 22.6136 7.06301 22.608 7.1563V7.5328C22.608 7.7008 22.545 7.7893 22.425 7.7893C22.3188 7.77717 22.2159 7.74457 22.122 7.69331C21.6397 7.47949 21.1166 7.37303 20.589 7.3813C20.1345 7.3813 19.7745 7.45331 19.527 7.60631C19.2795 7.75631 19.152 7.9903 19.152 8.3188C19.152 8.5423 19.2315 8.73431 19.392 8.88731C19.551 9.03881 19.8465 9.1903 20.2695 9.3268L21.4035 9.68681C21.978 9.87131 22.3935 10.1278 22.641 10.4563C22.8885 10.7848 23.007 11.1613 23.007 11.5783C23.007 11.9233 22.9365 12.2338 22.8 12.5068C22.6588 12.7808 22.4603 13.0212 22.218 13.2118C21.9705 13.4113 21.675 13.5568 21.3315 13.6603C20.9715 13.7728 20.5965 13.8283 20.19 13.8283Z" fill="#000714" fill-opacity="0.623529"/>
<path fill-rule="evenodd" clip-rule="evenodd" d="M21.6975 17.7194C19.0725 19.6649 15.2565 20.6984 11.976 20.6984C7.37852 20.6984 3.23552 18.9929 0.106517 16.1579C-0.140983 15.9329 0.0825175 15.6284 0.376517 15.8054C3.76202 17.7749 7.93652 18.9689 12.2565 18.9689C15.168 18.9689 18.369 18.3599 21.315 17.1104C21.7545 16.9109 22.1295 17.3984 21.6975 17.7194Z" fill="#000714" fill-opacity="0.623529"/>
<path fill-rule="evenodd" clip-rule="evenodd" d="M22.7911 16.47C22.4566 16.0395 20.5726 16.263 19.7191 16.3665C19.4641 16.3995 19.4236 16.1745 19.6546 16.0065C21.1546 14.949 23.6221 15.2535 23.9086 15.606C24.1966 15.966 23.8291 18.441 22.4236 19.626C22.2091 19.8105 22.0021 19.716 22.0981 19.476C22.4161 18.681 23.1271 16.896 22.7911 16.4715V16.47Z" fill="#000714" fill-opacity="0.623529"/>
</svg>
