<svg width="24" height="24" viewBox="0 0 24 24" fill="none" xmlns="http://www.w3.org/2000/svg">
<path d="M17.3321 9.63092C16.057 4.22633 13.0433 2.44929 12.7189 1.77034C12.364 1.29134 12.0044 0.439366 12.0044 0.439366C11.9986 0.424981 11.9891 0.399602 11.978 0.375C11.9412 0.854002 11.9224 1.03878 11.4508 1.52195C10.7206 2.07024 6.97393 5.08929 6.66915 11.2296C6.38486 16.9564 10.9769 20.3689 11.5979 20.804L11.6684 20.852V20.848C11.6724 20.8767 11.8656 22.2111 12.0012 23.625H12.4877C12.602 22.6256 12.773 21.6328 13.0003 20.6514L13.0399 20.6268C13.3177 20.4354 13.5825 20.2274 13.8327 20.0038L13.8611 19.9792C15.1812 18.808 17.5545 16.0992 17.5313 11.7802C17.5263 11.0597 17.4599 10.3409 17.3321 9.63092ZM11.9495 17.5705C11.9495 17.5705 11.9495 9.53852 12.2257 9.54003C12.4409 9.54003 12.7197 19.9005 12.7197 19.9005C12.3363 19.8561 11.9495 18.1954 11.9495 17.5705Z" fill="#000714" fill-opacity="0.623529"/>
</svg>
