<?xml version="1.0" encoding="UTF-8" standalone="no"?>
<!DOCTYPE svg PUBLIC "-//W3C//DTD SVG 1.1//EN" "http://www.w3.org/Graphics/SVG/1.1/DTD/svg11.dtd">
<svg width="100%" height="100%" viewBox="0 0 423 435" version="1.1" xmlns="http://www.w3.org/2000/svg" xmlns:xlink="http://www.w3.org/1999/xlink" xml:space="preserve" xmlns:serif="http://www.serif.com/" style="fill-rule:evenodd;clip-rule:evenodd;stroke-linejoin:round;stroke-miterlimit:2;">
    <g transform="matrix(1,0,0,1,-1325.05,-269.623)">
        <g transform="matrix(1,0,0,1,1337.45,702.878)">
            <path d="M0,-431.556C-5.9,-431.556 -10.701,-426.756 -10.701,-420.856L-10.701,-10.701C-10.701,-4.801 -5.9,0 0,0L397.394,0C403.294,0 408.094,-4.801 408.094,-10.701L408.094,-406.313L382.851,-431.556L328.581,-431.556L320.263,-423.238L309.928,-423.238L309.928,-431.556L91.655,-431.556L91.655,-429.568L30.175,-429.568L30.175,-431.556L0,-431.556ZM397.394,1.699L0,1.699C-6.838,1.699 -12.4,-3.864 -12.4,-10.701L-12.4,-420.856C-12.4,-427.693 -6.838,-433.255 0,-433.255L31.875,-433.255L31.875,-431.267L89.956,-431.267L89.956,-433.255L311.627,-433.255L311.627,-424.937L319.559,-424.937L327.878,-433.255L383.555,-433.255L409.793,-407.016L409.793,-10.701C409.793,-3.864 404.23,1.699 397.394,1.699" style="fill-rule:nonzero;"/>
        </g>
        <g transform="matrix(1,0,0,1,1519.07,415.93)">
            <path d="M0,-145.181L0,-12.604C0,-5.655 5.654,0 12.604,0L116.274,0C123.225,0 128.879,-5.655 128.879,-12.604L128.879,-145.181L0,-145.181ZM116.274,0.555L12.604,0.555C5.348,0.555 -0.556,-5.348 -0.556,-12.604L-0.556,-145.736L129.434,-145.736L129.434,-12.604C129.434,-5.348 123.53,0.555 116.274,0.555" style="fill-rule:nonzero;"/>
        </g>
        <g transform="matrix(1,0,0,1,1368.75,413.943)">
            <path d="M0,-141.205L0,-10.617C0,-3.667 5.654,1.987 12.604,1.987L266.593,1.987C273.543,1.987 279.197,-3.667 279.197,-10.617L279.197,-143.193L59.78,-143.193L59.78,-141.205L0,-141.205ZM266.593,2.543L12.604,2.543C5.348,2.543 -0.556,-3.361 -0.556,-10.617L-0.556,-141.76L59.225,-141.76L59.225,-143.748L279.752,-143.748L279.752,-10.617C279.752,-3.361 273.849,2.543 266.593,2.543" style="fill-rule:nonzero;"/>
        </g>
        <g transform="matrix(1,0,0,1,1562.87,406.688)">
            <path d="M0,-115.278C-2.238,-115.278 -4.061,-113.456 -4.061,-111.217L-4.061,-4.061C-4.061,-1.822 -2.238,0 0,0L48.009,0C50.247,0 52.069,-1.822 52.069,-4.061L52.069,-111.217C52.069,-113.456 50.247,-115.278 48.009,-115.278L0,-115.278ZM48.009,0.555L0,0.555C-2.545,0.555 -4.615,-1.516 -4.615,-4.061L-4.615,-111.217C-4.615,-113.762 -2.545,-115.833 0,-115.833L48.009,-115.833C50.554,-115.833 52.624,-113.762 52.624,-111.217L52.624,-4.061C52.624,-1.516 50.554,0.555 48.009,0.555" style="fill-rule:nonzero;"/>
        </g>
        <g transform="matrix(1,0,0,1,1368.75,448.545)">
            <path d="M0,254.904L335.013,254.904L335.013,11.357C335.013,5.095 329.918,0 323.655,0L11.357,0C5.095,0 0,5.095 0,11.357L0,254.904ZM335.567,255.459L-0.556,255.459L-0.556,11.357C-0.556,4.788 4.788,-0.555 11.357,-0.555L323.655,-0.555C330.224,-0.555 335.567,4.788 335.567,11.357L335.567,255.459Z" style="fill-rule:nonzero;"/>
        </g>
        <g transform="matrix(-1,0,0,1,2697.03,-1963.79)">
            <rect x="1339.38" y="2619.76" width="18.267" height="18.267"/>
        </g>
        <g transform="matrix(1,0,0,1,0,-1963.79)">
            <path d="M1715.48,2637.75L1733.2,2637.75L1733.2,2620.04L1715.48,2620.04L1715.48,2637.75ZM1733.75,2638.31L1714.93,2638.31L1714.93,2619.49L1733.75,2619.49L1733.75,2638.31Z" style="fill-rule:nonzero;"/>
        </g>
        <g transform="matrix(1,0,0,1,1395.87,690.416)">
            <path d="M0,-12.855C-3.391,-12.855 -6.149,-10.096 -6.149,-6.705C-6.149,-3.133 -3.276,0 0,0C3.275,0 6.149,-3.133 6.149,-6.705C6.149,-10.096 3.391,-12.855 0,-12.855M0,0.555C-3.572,0.555 -6.705,-2.837 -6.705,-6.705C-6.705,-10.402 -3.697,-13.41 0,-13.41C3.697,-13.41 6.705,-10.402 6.705,-6.705C6.705,-2.837 3.571,0.555 0,0.555" style="fill-rule:nonzero;"/>
        </g>
        <g transform="matrix(1,0,0,1,1395.87,686.035)">
            <path d="M0,-4.649C-1.281,-4.649 -2.324,-3.606 -2.324,-2.324C-2.324,-1.043 -1.281,-0.001 0,-0.001C1.281,-0.001 2.324,-1.043 2.324,-2.324C2.324,-3.606 1.281,-4.649 0,-4.649M0,0.555C-1.588,0.555 -2.88,-0.737 -2.88,-2.324C-2.88,-3.912 -1.588,-5.204 0,-5.204C1.588,-5.204 2.879,-3.912 2.879,-2.324C2.879,-0.737 1.588,0.555 0,0.555" style="fill-rule:nonzero;"/>
        </g>
        <g transform="matrix(1,0,0,1,1675.76,690.416)">
            <path d="M0,-12.855C-3.391,-12.855 -6.149,-10.096 -6.149,-6.705C-6.149,-3.133 -3.275,0 0,0C3.276,0 6.149,-3.133 6.149,-6.705C6.149,-10.096 3.391,-12.855 0,-12.855M0,0.555C-3.571,0.555 -6.705,-2.837 -6.705,-6.705C-6.705,-10.402 -3.697,-13.41 0,-13.41C3.697,-13.41 6.705,-10.402 6.705,-6.705C6.705,-2.837 3.572,0.555 0,0.555" style="fill-rule:nonzero;"/>
        </g>
        <g transform="matrix(1,0,0,1,1675.76,686.035)">
            <path d="M0,-4.649C-1.281,-4.649 -2.324,-3.606 -2.324,-2.324C-2.324,-1.043 -1.281,-0.001 0,-0.001C1.281,-0.001 2.324,-1.043 2.324,-2.324C2.324,-3.606 1.281,-4.649 0,-4.649M0,0.555C-1.588,0.555 -2.88,-0.737 -2.88,-2.324C-2.88,-3.912 -1.588,-5.204 0,-5.204C1.588,-5.204 2.88,-3.912 2.88,-2.324C2.88,-0.737 1.588,0.555 0,0.555" style="fill-rule:nonzero;"/>
        </g>
        <g transform="matrix(-1,0,0,1,3071.63,-2302.77)">
            <rect x="1402.3" y="2798.11" width="267.031" height="0.555"/>
        </g>
        <g transform="matrix(-1,0,0,1,3071.63,-2241.64)">
            <rect x="1402.3" y="2767.54" width="267.031" height="0.555"/>
        </g>
        <g transform="matrix(-1,0,0,1,3071.63,-2180.5)">
            <rect x="1402.3" y="2736.97" width="267.031" height="0.555"/>
        </g>
        <g transform="matrix(-1,0,0,1,3071.63,-2119.37)">
            <rect x="1402.3" y="2706.41" width="267.031" height="0.555"/>
        </g>
        <g transform="matrix(-1,0,0,1,3071.63,-2058.24)">
            <rect x="1402.3" y="2675.84" width="267.031" height="0.555"/>
        </g>
        <g transform="matrix(-1,0,0,1,3071.63,-1997.1)">
            <rect x="1402.3" y="2645.27" width="267.031" height="0.555"/>
        </g>
    </g>
</svg>
