<?xml version="1.0" encoding="UTF-8" standalone="no"?>
<!DOCTYPE svg PUBLIC "-//W3C//DTD SVG 1.1//EN" "http://www.w3.org/Graphics/SVG/1.1/DTD/svg11.dtd">
<svg width="100%" height="100%" viewBox="0 0 558 367" version="1.1" xmlns="http://www.w3.org/2000/svg" xmlns:xlink="http://www.w3.org/1999/xlink" xml:space="preserve" xmlns:serif="http://www.serif.com/" style="fill-rule:evenodd;clip-rule:evenodd;stroke-miterlimit:10;">
    <g transform="matrix(1,0,0,1,-929.34,-2236.01)">
        <g transform="matrix(1,0,0,1,1482.11,2480.33)">
            <path d="M0,-65.275L-0.002,-119.1L-71.367,-109.247L-201.2,-184.207C-205.531,-186.707 -213.095,-186.393 -218.095,-183.505L-433.265,-59.278L-547.746,-43.47L-547.744,10.143L-547.738,10.142C-547.662,11.659 -546.703,13.097 -544.821,14.183L-384.178,106.931C-359.062,121.432 -315.191,119.614 -286.189,102.87L-4.134,-59.975C-1.504,-61.495 -0.12,-63.422 -0.018,-65.273L0,-65.275Z" style="fill:none;fill-rule:nonzero;stroke:black;stroke-width:1px;"/>
        </g>
        <g transform="matrix(1,0,0,1,1097.93,2254.73)">
            <path d="M0,279.138L-160.644,186.39C-164.974,183.89 -164.431,179.523 -159.431,176.636L166.083,-11.299C171.083,-14.186 178.646,-14.5 182.978,-12L381.257,102.477C385.587,104.977 385.044,109.344 380.044,112.231L97.988,275.076C68.986,291.82 25.116,293.638 0,279.138Z" style="fill:none;fill-rule:nonzero;stroke:black;stroke-width:1px;"/>
        </g>
        <g transform="matrix(1,0,0,1,1254.11,2370.74)">
            <path d="M0,-121.591L213.961,1.939L217.32,0L201.216,-9.298L216.818,-18.306L213.438,-20.258L197.835,-11.25L22.845,-112.28L38.448,-121.289L35.067,-123.24L19.464,-114.233L3.359,-123.53L0,-121.591Z" style="fill:none;fill-rule:nonzero;stroke:black;stroke-width:1px;"/>
        </g>
        <g transform="matrix(1,0,0,1,1277.77,2274.91)">
            <path d="M0,159.091L-151.832,71.431C-153.998,70.181 -153.726,67.997 -151.226,66.554L-24.434,-6.65C-21.934,-8.094 -18.151,-8.25 -15.986,-7L157.8,93.335C159.965,94.585 159.693,96.769 157.193,98.212L55.751,156.78C39.251,166.307 14.29,167.341 0,159.091Z" style="fill:none;fill-rule:nonzero;stroke:black;stroke-width:1px;"/>
        </g>
        <g transform="matrix(-0.866022,-0.500006,-0.500006,0.866022,1309.01,2300.63)">
            <path d="M-38.803,116.007L92.057,116.007L31.084,10.397L-99.776,10.397L-38.803,116.007Z" style="fill:none;fill-rule:nonzero;stroke:black;stroke-width:1px;"/>
        </g>
        <g transform="matrix(1,0,0,1,1324.26,2260.6)">
            <path d="M0,11.34L-18.766,0.505L-15.143,-1.587L-16.63,-2.446L-20.254,-0.353L-23.643,-2.31L-20.019,-4.402L-21.507,-5.262L-25.131,-3.17L-25.771,-3.539C-27.751,-4.682 -30.95,-4.688 -32.917,-3.553C-34.884,-2.417 -34.874,-0.569 -32.895,0.573L-7.123,15.452C-5.144,16.596 -1.944,16.602 0.022,15.466C1.99,14.33 1.979,12.483 0,11.34Z" style="fill:none;fill-rule:nonzero;stroke:black;stroke-width:1px;"/>
        </g>
        <g transform="matrix(0.49999,-0.866031,-0.866031,-0.49999,1223.86,2304.31)">
            <path d="M-2.48,-1.432C-3.841,-0.646 -4.944,1.273 -4.944,2.854C-4.944,4.436 -3.841,5.081 -2.48,4.294C-1.119,3.51 -0.016,1.59 -0.017,0.009C-0.017,-1.573 -1.119,-2.217 -2.48,-1.432Z" style="fill:none;fill-rule:nonzero;stroke:black;stroke-width:1px;"/>
        </g>
        <g transform="matrix(1,0,0,1,1224.77,2306.23)">
            <path d="M0,8.267L-13.102,0.704C-13.439,0.508 -13.441,0.193 -13.105,-0.002C-12.77,-0.196 -12.223,-0.195 -11.885,0L1.217,7.565C1.555,7.76 1.557,8.076 1.221,8.27C0.884,8.463 0.338,8.462 0,8.267Z" style="fill:none;fill-rule:nonzero;stroke:black;stroke-width:1px;"/>
        </g>
        <g transform="matrix(-0.866023,-0.500004,-0.500004,0.866023,1295.57,2238.64)">
            <path d="M-177.646,48.751L13.727,48.751L13.063,47.6L-178.31,47.6L-177.646,48.751Z" style="fill:none;fill-rule:nonzero;stroke:black;stroke-width:1px;"/>
        </g>
        <g transform="matrix(-0.866027,-0.499998,-0.499998,0.866027,1292.38,2240.47)">
            <path d="M-177.646,48.75L13.726,48.75L13.062,47.6L-178.31,47.6L-177.646,48.75Z" style="fill:none;fill-rule:nonzero;stroke:black;stroke-width:1px;"/>
        </g>
        <g transform="matrix(1,0,0,1,1051.89,2444.94)">
            <path d="M0,-1.203C-1.808,-2.247 -2.417,-3.812 -1.554,-5.193C-0.958,-6.145 0.246,-6.905 1.837,-7.331C3.428,-7.757 5.215,-7.799 6.867,-7.448L36.109,-1.258C37.021,-1.064 37.83,-0.766 38.514,-0.371C40.321,0.672 40.931,2.238 40.066,3.618C38.839,5.584 35.062,6.596 31.647,5.873L2.404,-0.317C1.492,-0.511 0.684,-0.808 0,-1.203Z" style="fill:none;fill-rule:nonzero;stroke:black;stroke-width:1px;"/>
        </g>
        <g transform="matrix(1,0,0,1,1088.99,2466.36)">
            <path d="M0,-1.205C-1.807,-2.248 -2.417,-3.814 -1.554,-5.194C-0.958,-6.147 0.247,-6.906 1.837,-7.332C3.429,-7.759 5.215,-7.8 6.867,-7.449L36.109,-1.259C37.021,-1.066 37.83,-0.768 38.514,-0.373C40.321,0.671 40.932,2.237 40.067,3.617C38.839,5.583 35.062,6.595 31.648,5.872L2.404,-0.318C1.493,-0.512 0.684,-0.81 0,-1.205Z" style="fill:none;fill-rule:nonzero;stroke:black;stroke-width:1px;"/>
        </g>
        <g transform="matrix(1,0,0,1,1084.34,2438.78)">
            <path d="M0,10.738L-29.242,4.548C-31.423,4.086 -32.553,2.693 -31.767,1.437C-30.981,0.181 -28.577,-0.462 -26.396,-0.001L2.846,6.19C5.026,6.651 6.156,8.044 5.371,9.3C4.585,10.555 2.181,11.2 0,10.738Z" style="fill:none;fill-rule:nonzero;stroke:black;stroke-width:1px;"/>
        </g>
        <g transform="matrix(1,0,0,1,1086.79,2439.22)">
            <path d="M0,7.495L-30.494,1.089C-31.017,0.977 -31.287,0.644 -31.099,0.345C-30.91,0.044 -30.335,-0.11 -29.813,0L0.682,6.407C1.203,6.517 1.474,6.85 1.285,7.151C1.098,7.451 0.521,7.605 0,7.495Z" style="fill:none;fill-rule:nonzero;stroke:black;stroke-width:1px;"/>
        </g>
        <g transform="matrix(1,0,0,1,1121.45,2460.2)">
            <path d="M0,10.739L-29.242,4.548C-31.423,4.087 -32.553,2.694 -31.768,1.438C-30.981,0.182 -28.577,-0.461 -26.396,0L2.846,6.191C5.026,6.652 6.156,8.045 5.371,9.301C4.585,10.556 2.181,11.2 0,10.739Z" style="fill:none;fill-rule:nonzero;stroke:black;stroke-width:1px;"/>
        </g>
        <g transform="matrix(1,0,0,1,1123.89,2460.64)">
            <path d="M0,7.495L-30.494,1.088C-31.017,0.977 -31.287,0.644 -31.099,0.344C-30.911,0.044 -30.335,-0.11 -29.813,0L0.681,6.406C1.203,6.517 1.474,6.85 1.285,7.15C1.097,7.451 0.521,7.605 0,7.495Z" style="fill:none;fill-rule:nonzero;stroke:black;stroke-width:1px;"/>
        </g>
        <g transform="matrix(1,0,0,1,1105.09,2499.31)">
            <path d="M0,19.482L-0.292,19.42C-1.099,19.25 -1.517,18.735 -1.226,18.271L9.874,0.531C10.164,0.067 11.054,-0.171 11.859,0L12.151,0.061C12.957,0.232 13.375,0.747 13.085,1.211L1.985,18.951C1.694,19.415 0.806,19.653 0,19.482Z" style="fill:none;fill-rule:nonzero;stroke:black;stroke-width:1px;"/>
        </g>
        <g transform="matrix(1,0,0,1,1115.16,2501.44)">
            <path d="M0,19.482L-0.292,19.42C-1.098,19.25 -1.516,18.735 -1.226,18.271L9.874,0.532C10.165,0.067 11.054,-0.171 11.859,0L12.151,0.061C12.958,0.232 13.376,0.747 13.085,1.211L1.985,18.951C1.694,19.415 0.806,19.653 0,19.482Z" style="fill:none;fill-rule:nonzero;stroke:black;stroke-width:1px;"/>
        </g>
        <g transform="matrix(1,0,0,1,1125.23,2503.57)">
            <path d="M0,19.482L-0.292,19.42C-1.098,19.25 -1.516,18.735 -1.226,18.271L9.874,0.532C10.165,0.067 11.054,-0.171 11.86,0L12.152,0.062C12.958,0.232 13.376,0.747 13.085,1.211L1.985,18.951C1.695,19.415 0.807,19.653 0,19.482Z" style="fill:none;fill-rule:nonzero;stroke:black;stroke-width:1px;"/>
        </g>
        <g transform="matrix(1,0,0,1,1135.3,2505.71)">
            <path d="M0,19.483L-0.291,19.421C-1.098,19.251 -1.516,18.736 -1.225,18.271L9.875,0.532C10.165,0.067 11.055,-0.17 11.86,0L12.152,0.062C12.958,0.232 13.376,0.748 13.086,1.212L1.986,18.951C1.695,19.416 0.807,19.653 0,19.483Z" style="fill:none;fill-rule:nonzero;stroke:black;stroke-width:1px;"/>
        </g>
        <g transform="matrix(1,0,0,1,1145.38,2507.84)">
            <path d="M0,19.482L-0.292,19.42C-1.099,19.25 -1.516,18.735 -1.226,18.27L9.874,0.531C10.164,0.067 11.054,-0.171 11.859,-0.001L12.151,0.061C12.957,0.232 13.376,0.747 13.085,1.211L1.985,18.95C1.695,19.415 0.806,19.653 0,19.482Z" style="fill:none;fill-rule:nonzero;stroke:black;stroke-width:1px;"/>
        </g>
        <g transform="matrix(1,0,0,1,1155.45,2509.97)">
            <path d="M0,19.482L-0.292,19.42C-1.098,19.25 -1.516,18.735 -1.226,18.27L9.874,0.531C10.165,0.067 11.054,-0.171 11.86,0L12.151,0.061C12.958,0.232 13.376,0.747 13.085,1.211L1.985,18.95C1.695,19.415 0.806,19.653 0,19.482Z" style="fill:none;fill-rule:nonzero;stroke:black;stroke-width:1px;"/>
        </g>
        <g transform="matrix(0.499999,-0.866026,-0.866026,-0.499999,1125.92,2377.72)">
            <path d="M-30.298,-17.493C-46.927,-7.893 -60.407,15.553 -60.407,34.875C-60.406,54.198 -46.926,62.079 -30.298,52.478C-13.669,42.877 -0.189,19.431 -0.188,0.108C-0.189,-19.213 -13.669,-27.093 -30.298,-17.493Z" style="fill:none;fill-rule:nonzero;stroke:black;stroke-width:1px;"/>
        </g>
        <g transform="matrix(1,0,0,1,1452.36,2284.15)">
            <path d="M0,65.798L-110.513,1.993C-111.473,1.44 -111.478,0.544 -110.523,-0.007C-109.57,-0.557 -108.02,-0.555 -107.06,-0L3.453,63.805C4.412,64.359 4.418,65.254 3.464,65.804C2.511,66.355 0.96,66.352 0,65.798Z" style="fill:none;fill-rule:nonzero;stroke:black;stroke-width:1px;"/>
        </g>
        <g transform="matrix(1,0,0,1,1128.24,2269.2)">
            <path d="M0,74.763C-0.229,74.63 -0.23,74.416 -0.002,74.284L128.664,-0.001C128.893,-0.133 129.263,-0.132 129.492,-0C129.722,0.133 129.723,0.347 129.495,0.479L0.829,74.764C0.601,74.896 0.229,74.895 0,74.763Z" style="fill:none;fill-rule:nonzero;stroke:black;stroke-width:1px;"/>
        </g>
        <g transform="matrix(1,0,0,1,1435.26,2320.35)">
            <path d="M0,47.726L-173.175,-52.257C-175.509,-53.604 -179.281,-53.611 -181.601,-52.272L-266.033,-3.525C-247.539,16.334 -221.032,36.934 -187.758,56.145C-154.483,75.356 -118.805,90.66 -84.406,101.337L0.026,52.59C2.346,51.251 2.334,49.073 0,47.726Z" style="fill:none;fill-rule:nonzero;stroke:black;stroke-width:1px;"/>
        </g>
        <g transform="matrix(-0.868734,0.495279,0.495279,0.868734,1462.03,2375.11)">
            <path d="M3.1,24.422L6.982,24.422L-6.473,0.821L-10.355,0.821L3.1,24.422Z" style="fill:none;fill-rule:nonzero;stroke:black;stroke-width:1px;"/>
        </g>
        <g transform="matrix(1,0,0,1,1482.11,2574.59)">
            <path d="M0,-185.249L-290.97,-17.247C-320.83,-0.007 -357.933,0 -387.798,-17.232L-547.744,-109.553L-547.744,-105.342L-389.621,-14.073C-374.129,-5.135 -356.765,-0.667 -339.396,-0.667C-322.021,-0.667 -304.643,-5.142 -289.146,-14.089L0,-181.038L0,-185.249Z" style="fill:none;fill-rule:nonzero;stroke:black;stroke-width:1px;"/>
        </g>
        <g transform="matrix(0,1,1,0,1233.05,2555.81)">
            <path d="M-12.005,-14.089L14.089,-14.089L12.886,-12.005L-12.005,-12.005L-12.005,-14.089Z" style="fill:none;fill-rule:nonzero;stroke:black;stroke-width:1px;"/>
        </g>
        <g transform="matrix(0,1,1,0,1239.45,2552.08)">
            <path d="M-12.084,-14.167L14.167,-14.167L12.964,-12.084L-12.084,-12.084L-12.084,-14.167Z" style="fill:none;fill-rule:nonzero;stroke:black;stroke-width:1px;"/>
        </g>
        <g transform="matrix(0,1,1,0,1245.85,2548.36)">
            <path d="M-12.162,-14.246L14.246,-14.246L13.043,-12.162L-12.162,-12.162L-12.162,-14.246Z" style="fill:none;fill-rule:nonzero;stroke:black;stroke-width:1px;"/>
        </g>
        <g transform="matrix(0,1,1,0,1252.25,2544.63)">
            <path d="M-12.24,-14.324L14.324,-14.324L13.121,-12.24L-12.24,-12.24L-12.24,-14.324Z" style="fill:none;fill-rule:nonzero;stroke:black;stroke-width:1px;"/>
        </g>
        <g transform="matrix(0,1,1,0,1258.65,2540.9)">
            <path d="M-12.319,-14.403L14.403,-14.403L13.2,-12.319L-12.319,-12.319L-12.319,-14.403Z" style="fill:none;fill-rule:nonzero;stroke:black;stroke-width:1px;"/>
        </g>
        <g transform="matrix(0,1,1,0,1265.04,2537.18)">
            <path d="M-12.397,-14.481L14.481,-14.481L13.278,-12.397L-12.397,-12.397L-12.397,-14.481Z" style="fill:none;fill-rule:nonzero;stroke:black;stroke-width:1px;"/>
        </g>
        <g transform="matrix(0,1,1,0,1271.44,2533.45)">
            <path d="M-12.476,-14.56L14.56,-14.56L13.357,-12.476L-12.476,-12.476L-12.476,-14.56Z" style="fill:none;fill-rule:nonzero;stroke:black;stroke-width:1px;"/>
        </g>
        <g transform="matrix(0,1,1,0,1277.84,2529.72)">
            <path d="M-12.553,-14.637L14.637,-14.637L13.434,-12.553L-12.553,-12.553L-12.553,-14.637Z" style="fill:none;fill-rule:nonzero;stroke:black;stroke-width:1px;"/>
        </g>
        <g transform="matrix(0,1,1,0,1284.24,2526)">
            <path d="M-12.632,-14.716L14.716,-14.716L13.513,-12.632L-12.632,-12.632L-12.632,-14.716Z" style="fill:none;fill-rule:nonzero;stroke:black;stroke-width:1px;"/>
        </g>
        <g transform="matrix(0,1,1,0,1290.63,2522.27)">
            <path d="M-12.71,-14.794L14.794,-14.794L13.591,-12.71L-12.71,-12.71L-12.71,-14.794Z" style="fill:none;fill-rule:nonzero;stroke:black;stroke-width:1px;"/>
        </g>
        <g transform="matrix(0,1,1,0,1297.03,2518.54)">
            <path d="M-12.789,-14.873L14.873,-14.873L13.669,-12.789L-12.789,-12.789L-12.789,-14.873Z" style="fill:none;fill-rule:nonzero;stroke:black;stroke-width:1px;"/>
        </g>
        <g transform="matrix(0,1,1,0,1303.43,2514.81)">
            <path d="M-12.867,-14.951L14.951,-14.951L13.748,-12.867L-12.867,-12.867L-12.867,-14.951Z" style="fill:none;fill-rule:nonzero;stroke:black;stroke-width:1px;"/>
        </g>
        <g transform="matrix(0,1,1,0,1309.83,2511.09)">
            <path d="M-12.945,-15.029L15.029,-15.029L13.826,-12.945L-12.945,-12.945L-12.945,-15.029Z" style="fill:none;fill-rule:nonzero;stroke:black;stroke-width:1px;"/>
        </g>
        <g transform="matrix(0,1,1,0,1316.23,2507.36)">
            <path d="M-13.024,-15.108L15.108,-15.108L13.905,-13.024L-13.024,-13.024L-13.024,-15.108Z" style="fill:none;fill-rule:nonzero;stroke:black;stroke-width:1px;"/>
        </g>
        <g transform="matrix(0,1,1,0,1322.62,2503.63)">
            <path d="M-13.102,-15.186L15.186,-15.186L13.983,-13.102L-13.102,-13.102L-13.102,-15.186Z" style="fill:none;fill-rule:nonzero;stroke:black;stroke-width:1px;"/>
        </g>
        <g transform="matrix(1,0,0,1,1232.59,2443.35)">
            <path d="M0,37.914L-53.367,26.615C-66.126,23.914 -72.741,15.767 -68.143,8.418C-63.544,1.068 -49.474,-2.7 -36.715,0.001L16.652,11.299C29.411,14 36.026,22.147 31.428,29.497C26.829,36.847 12.759,40.614 0,37.914Z" style="fill:none;fill-rule:nonzero;stroke:black;stroke-width:1px;"/>
        </g>
        <g transform="matrix(0.207116,-0.978316,-0.978316,-0.207116,1195.8,2440.47)">
            <path d="M-17.545,-14.22C-23.729,-11.96 -28.743,-2.097 -28.743,7.807C-28.744,17.713 -23.729,23.909 -17.545,21.648C-11.362,19.387 -6.348,9.525 -6.349,-0.379C-6.347,-10.285 -11.362,-16.481 -17.545,-14.22Z" style="fill:none;fill-rule:nonzero;stroke:black;stroke-width:1px;"/>
        </g>
        <g transform="matrix(-1,0,0,1,2377.06,1613.74)">
            <rect x="1169.88" y="836.956" width="37.306" height="6.345" style="fill:none;stroke:black;stroke-width:1px;"/>
        </g>
        <g transform="matrix(0.207116,-0.978316,-0.978316,-0.207116,1195.8,2434.54)">
            <path d="M-17.546,-14.219C-23.729,-11.959 -28.743,-2.096 -28.743,7.808C-28.744,17.714 -23.729,23.91 -17.546,21.649C-11.362,19.388 -6.348,9.526 -6.349,-0.378C-6.347,-10.284 -11.362,-16.48 -17.546,-14.219Z" style="fill:none;fill-rule:nonzero;stroke:black;stroke-width:1px;"/>
        </g>
        <g transform="matrix(1,0,0,1,1178.24,2444.76)">
            <path d="M0,-0.913C-0.038,-0.935 -0.073,-0.959 -0.105,-0.984C-0.447,-1.253 -0.348,-1.63 0.115,-1.825C4.733,-3.772 10.708,-4.254 16.097,-3.112C20.613,-2.156 24.262,-0.137 26.105,2.43C26.327,2.737 26.076,3.089 25.544,3.215C25.013,3.341 24.402,3.194 24.182,2.885C22.56,0.632 19.355,-1.142 15.39,-1.982C10.656,-2.984 5.409,-2.561 1.353,-0.851C0.933,-0.675 0.358,-0.706 0,-0.913Z" style="fill:none;fill-rule:nonzero;stroke:black;stroke-width:1px;"/>
        </g>
        <g transform="matrix(0.207116,-0.978316,-0.978316,-0.207116,1247.2,2451.35)">
            <path d="M-17.546,-14.22C-23.73,-11.96 -28.743,-2.096 -28.744,7.807C-28.743,17.713 -23.73,23.909 -17.546,21.649C-11.361,19.389 -6.348,9.526 -6.348,-0.379C-6.348,-10.284 -11.361,-16.48 -17.546,-14.22Z" style="fill:none;fill-rule:nonzero;stroke:black;stroke-width:1px;"/>
        </g>
        <g transform="matrix(-1,0,0,1,2479.86,1635.51)">
            <rect x="1221.28" y="826.074" width="37.306" height="6.345" style="fill:none;stroke:black;stroke-width:1px;"/>
        </g>
        <g transform="matrix(0.207116,-0.978316,-0.978316,-0.207116,1247.2,2445.42)">
            <path d="M-17.545,-14.22C-23.729,-11.96 -28.743,-2.097 -28.743,7.807C-28.743,17.713 -23.729,23.909 -17.545,21.648C-11.361,19.388 -6.348,9.526 -6.348,-0.379C-6.347,-10.285 -11.362,-16.481 -17.545,-14.22Z" style="fill:none;fill-rule:nonzero;stroke:black;stroke-width:1px;"/>
        </g>
        <g transform="matrix(1,0,0,1,1229.64,2455.64)">
            <path d="M0,-0.914C-0.038,-0.935 -0.073,-0.959 -0.105,-0.985C-0.447,-1.254 -0.349,-1.63 0.115,-1.825C4.733,-3.772 10.708,-4.254 16.097,-3.112C20.613,-2.156 24.262,-0.138 26.105,2.43C26.327,2.737 26.076,3.089 25.544,3.214C25.013,3.34 24.402,3.194 24.181,2.885C22.56,0.631 19.355,-1.143 15.39,-1.982C10.656,-2.985 5.409,-2.562 1.353,-0.852C0.933,-0.675 0.358,-0.707 0,-0.914Z" style="fill:none;fill-rule:nonzero;stroke:black;stroke-width:1px;"/>
        </g>
        <g transform="matrix(-0.00291332,0.999996,0.999996,0.00291332,1118.02,2386.87)">
            <path d="M-6.156,6.634L0.709,6.634L-6.616,-6.138L-13.48,-6.138L-6.156,6.634Z" style="fill:none;fill-rule:nonzero;stroke:black;stroke-width:1px;"/>
        </g>
        <g transform="matrix(-0.00276765,0.999996,0.999996,0.00276765,1116.81,2387.57)">
            <path d="M-6.155,6.635L0.71,6.635L-6.616,-6.138L-13.481,-6.137L-6.155,6.635Z" style="fill:none;fill-rule:nonzero;stroke:black;stroke-width:1px;"/>
        </g>
        <g transform="matrix(1,0,0,1,1110.44,2373.18)">
            <path d="M0,7.407L0.02,0.542C0.02,0.417 0.101,0.291 0.267,0.195C0.603,0 1.146,0.004 1.477,0.195L1.457,7.059C1.127,6.869 0.583,6.865 0.247,7.059C0.082,7.156 0,7.282 0,7.407Z" style="fill:none;fill-rule:nonzero;stroke:black;stroke-width:1px;"/>
        </g>
        <g transform="matrix(-0.00291332,0.999996,0.999996,0.00291332,1086.87,2386.92)">
            <path d="M-6.156,6.635L0.709,6.635L-6.615,-6.138L-13.48,-6.138L-6.156,6.635Z" style="fill:none;fill-rule:nonzero;stroke:black;stroke-width:1px;"/>
        </g>
        <g transform="matrix(-0.00291332,0.999996,0.999996,0.00291332,1085.66,2387.63)">
            <path d="M-6.156,6.635L0.709,6.635L-6.615,-6.138L-13.48,-6.138L-6.156,6.635Z" style="fill:none;fill-rule:nonzero;stroke:black;stroke-width:1px;"/>
        </g>
        <g transform="matrix(1,0,0,1,1079.29,2373.24)">
            <path d="M0,7.41L0.02,0.545C0.021,0.417 0.104,0.288 0.271,0.19C0.6,0 1.15,0 1.481,0.19L1.462,7.056C1.131,6.865 0.58,6.865 0.252,7.056C0.084,7.153 0.001,7.282 0,7.41Z" style="fill:none;fill-rule:nonzero;stroke:black;stroke-width:1px;"/>
        </g>
        <g transform="matrix(0.00276765,-0.999996,-0.999996,-0.00276765,1113.83,2377.47)">
            <path d="M-3.121,3.381L3.744,3.381C3.615,3.381 3.487,3.296 3.392,3.129L-3.474,3.13C-3.378,3.297 -3.25,3.382 -3.121,3.381Z" style="fill:none;fill-rule:nonzero;stroke:black;stroke-width:1px;"/>
        </g>
        <g transform="matrix(0.00291332,-0.999996,-0.999996,-0.00291332,1082.68,2377.53)">
            <path d="M-3.123,3.382L3.742,3.382C3.614,3.381 3.486,3.298 3.392,3.132L-3.474,3.132C-3.378,3.298 -3.251,3.381 -3.123,3.382Z" style="fill:none;fill-rule:nonzero;stroke:black;stroke-width:1px;"/>
        </g>
        <g transform="matrix(-0.00291332,0.999996,0.999996,0.00291332,1128.04,2384.49)">
            <path d="M-3.393,-3.128L3.472,-3.128C3.345,-3.129 3.218,-3.213 3.12,-3.384L-3.746,-3.385C-3.647,-3.214 -3.52,-3.129 -3.393,-3.128Z" style="fill:none;fill-rule:nonzero;stroke:black;stroke-width:1px;"/>
        </g>
        <g transform="matrix(-0.00276805,0.999996,0.999996,0.00276805,1096.89,2384.54)">
            <path d="M-3.391,-3.13L3.473,-3.13C3.346,-3.13 3.219,-3.213 3.123,-3.382L-3.743,-3.381C-3.646,-3.212 -3.519,-3.129 -3.391,-3.13Z" style="fill:none;fill-rule:nonzero;stroke:black;stroke-width:1px;"/>
        </g>
        <g transform="matrix(1,0,0,1,1124.92,2388.49)">
            <path d="M0,-7.408L-0.02,-0.543C-0.02,-0.417 -0.104,-0.292 -0.271,-0.194C-0.606,0 -1.142,0 -1.479,-0.194L-1.461,-7.059C-1.123,-6.864 -0.587,-6.864 -0.251,-7.059C-0.084,-7.157 0,-7.282 0,-7.408Z" style="fill:none;fill-rule:nonzero;stroke:black;stroke-width:1px;"/>
        </g>
        <g transform="matrix(1,0,0,1,1093.77,2388.55)">
            <path d="M0,-7.413L-0.019,-0.549C-0.02,-0.422 -0.103,-0.295 -0.267,-0.2C-0.603,-0.005 -1.146,0 -1.484,-0.195L-1.465,-7.06C-1.127,-6.865 -0.583,-6.87 -0.247,-7.065C-0.083,-7.16 0,-7.287 0,-7.413Z" style="fill:none;fill-rule:nonzero;stroke:black;stroke-width:1px;"/>
        </g>
        <g transform="matrix(-0.00291332,0.999996,0.999996,0.00291332,1118.25,2405.03)">
            <path d="M-6.154,6.628L0.711,6.628L-6.609,-6.136L-13.474,-6.136L-6.154,6.628Z" style="fill:none;fill-rule:nonzero;stroke:black;stroke-width:1px;"/>
        </g>
        <g transform="matrix(-0.00291374,0.999996,0.999996,0.00291374,1117.03,2405.74)">
            <path d="M-6.154,6.629L0.71,6.629L-6.609,-6.136L-13.473,-6.136L-6.154,6.629Z" style="fill:none;fill-rule:nonzero;stroke:black;stroke-width:1px;"/>
        </g>
        <g transform="matrix(1,0,0,1,1110.67,2391.35)">
            <path d="M0,7.414L0.02,0.549C0.02,0.421 0.105,0.293 0.273,0.194C0.602,0.004 1.146,0 1.483,0.194L1.464,7.06C1.126,6.864 0.582,6.869 0.254,7.06C0.086,7.158 0,7.286 0,7.414Z" style="fill:none;fill-rule:nonzero;stroke:black;stroke-width:1px;"/>
        </g>
        <g transform="matrix(0.00291332,-0.999996,-0.999996,-0.00291332,1114.06,2395.65)">
            <path d="M-3.122,3.383L3.743,3.383C3.616,3.383 3.489,3.3 3.392,3.13L-3.473,3.13C-3.376,3.3 -3.249,3.383 -3.122,3.383Z" style="fill:none;fill-rule:nonzero;stroke:black;stroke-width:1px;"/>
        </g>
        <g transform="matrix(-0.00291332,0.999996,0.999996,0.00291332,1128.26,2402.66)">
            <path d="M-3.391,-3.125L3.474,-3.125C3.344,-3.125 3.213,-3.21 3.116,-3.381L-3.749,-3.382C-3.651,-3.211 -3.521,-3.125 -3.391,-3.125Z" style="fill:none;fill-rule:nonzero;stroke:black;stroke-width:1px;"/>
        </g>
        <g transform="matrix(1,0,0,1,1125.15,2406.66)">
            <path d="M0,-7.406L-0.02,-0.541C-0.02,-0.415 -0.102,-0.289 -0.264,-0.195C-0.6,0 -1.15,0 -1.488,-0.195L-1.469,-7.059C-1.131,-6.865 -0.58,-6.865 -0.244,-7.059C-0.082,-7.154 0,-7.279 0,-7.406Z" style="fill:none;fill-rule:nonzero;stroke:black;stroke-width:1px;"/>
        </g>
        <g transform="matrix(1,0,0,1,1124.67,2374.07)">
            <path d="M0,6.661C0.338,6.856 0.34,7.167 0.004,7.362C-0.332,7.557 -0.868,7.557 -1.206,7.362L-13.957,0C-14.287,-0.191 -14.297,-0.506 -13.961,-0.7C-13.625,-0.896 -13.081,-0.892 -12.751,-0.7L0,6.661Z" style="fill:none;fill-rule:nonzero;stroke:black;stroke-width:1px;"/>
        </g>
        <g transform="matrix(1,0,0,1,1093.52,2374.14)">
            <path d="M0,6.653C0.338,6.848 0.332,7.163 0.004,7.353C-0.332,7.549 -0.876,7.553 -1.214,7.358L-13.965,-0.004C-14.295,-0.195 -14.297,-0.514 -13.961,-0.709C-13.633,-0.9 -13.082,-0.9 -12.751,-0.709L0,6.653Z" style="fill:none;fill-rule:nonzero;stroke:black;stroke-width:1px;"/>
        </g>
        <g transform="matrix(1,0,0,1,1126.23,2390.23)">
            <path d="M0,-2.098L0.02,-8.962C0.019,-8.657 -0.183,-8.351 -0.584,-8.118L-14.55,-0.001L-14.569,6.864L-0.604,-1.252C-0.202,-1.486 -0.001,-1.791 0,-2.098Z" style="fill:none;fill-rule:nonzero;stroke:black;stroke-width:1px;"/>
        </g>
        <g transform="matrix(1,0,0,1,1065.49,2389.38)">
            <path d="M0,-0.403L14.064,7.717L14.084,0.852L0.02,-7.268C-0.385,-7.502 -0.588,-7.81 -0.587,-8.12L-0.606,-1.255C-0.607,-0.945 -0.404,-0.636 0,-0.403Z" style="fill:none;fill-rule:nonzero;stroke:black;stroke-width:1px;"/>
        </g>
        <g transform="matrix(1,0,0,1,1125.76,2414.13)">
            <path d="M0,-14.086L-13.08,-6.484C-13.89,-6.015 -15.206,-6.015 -16.021,-6.484L-30.077,-14.601L-44.043,-6.484C-44.852,-6.015 -46.169,-6.015 -46.983,-6.484L-60.148,-14.086C-60.554,-14.319 -60.757,-14.628 -60.756,-14.937L-60.775,-8.072C-60.776,-7.763 -60.573,-7.454 -60.168,-7.221L-47.002,0.381C-46.188,0.851 -44.871,0.851 -44.063,0.381L-30.097,-7.735L-16.04,0.381C-15.226,0.851 -13.909,0.851 -13.1,0.381L-0.02,-7.221C0.378,-7.451 0.577,-7.755 0.578,-8.061L0.597,-14.926C0.597,-14.62 0.397,-14.316 0,-14.086Z" style="fill:none;fill-rule:nonzero;stroke:black;stroke-width:1px;"/>
        </g>
        <g transform="matrix(1,0,0,1,1123.46,2399.02)">
            <path d="M0,-17.589C0.339,-17.394 0.874,-17.394 1.21,-17.589C1.546,-17.784 1.544,-18.095 1.206,-18.29L-11.545,-25.652C-11.875,-25.843 -12.419,-25.847 -12.755,-25.652C-13.091,-25.457 -13.081,-25.142 -12.751,-24.951L0,-17.589M-31.153,-17.531C-30.815,-17.336 -30.271,-17.341 -29.936,-17.536C-29.607,-17.727 -29.602,-18.041 -29.939,-18.236L-42.69,-25.599C-43.021,-25.789 -43.572,-25.789 -43.9,-25.599C-44.236,-25.403 -44.234,-25.084 -43.904,-24.894L-31.153,-17.531M0.218,0.58C0.556,0.775 1.106,0.775 1.442,0.58C1.771,0.39 1.769,0.07 1.431,-0.125L-11.313,-7.483C-11.65,-7.677 -12.194,-7.673 -12.522,-7.483C-12.858,-7.287 -12.864,-6.972 -12.525,-6.777L0.218,0.58M2.277,-0.679C3.092,-0.209 3.096,0.554 2.295,1.019L-10.785,8.621C-11.595,9.091 -12.911,9.091 -13.726,8.621L-27.782,0.505L-41.748,8.621C-42.557,9.091 -43.874,9.092 -44.688,8.621L-57.854,1.019C-58.66,0.555 -58.665,-0.209 -57.855,-0.679L-43.891,-8.795L-57.955,-16.915C-58.762,-17.381 -58.766,-18.144 -57.957,-18.613L-44.876,-26.215C-44.075,-26.681 -42.758,-26.681 -41.952,-26.215L-27.887,-18.095L-13.922,-26.211C-13.112,-26.681 -11.796,-26.681 -10.989,-26.215L2.177,-18.613C2.991,-18.144 2.995,-17.381 2.187,-16.91L-11.779,-8.795L2.277,-0.679Z" style="fill:none;fill-rule:nonzero;stroke:black;stroke-width:1px;"/>
        </g>
        <g transform="matrix(1,0,0,1,1124.89,2392.25)">
            <path d="M0,6.652C0.338,6.847 0.34,7.167 0.012,7.358C-0.324,7.552 -0.875,7.552 -1.213,7.358L-13.956,0.001C-14.295,-0.195 -14.289,-0.51 -13.953,-0.705C-13.625,-0.896 -13.081,-0.9 -12.743,-0.705L0,6.652Z" style="fill:none;fill-rule:nonzero;stroke:black;stroke-width:1px;"/>
        </g>
        <g transform="matrix(1,0,0,1,1482.11,2574.59)">
            <path d="M0,-185.249L-290.97,-17.247C-320.83,-0.007 -357.933,0 -387.798,-17.232L-547.744,-109.553L-547.744,-105.342L-389.621,-14.073C-374.129,-5.135 -356.765,-0.667 -339.396,-0.667C-322.021,-0.667 -304.643,-5.142 -289.146,-14.089L0,-181.038L0,-185.249Z" style="fill:none;fill-rule:nonzero;stroke:black;stroke-width:1px;"/>
        </g>
        <g transform="matrix(1,0,0,1,1191.14,2406.59)">
            <path d="M0,150.755C-29.86,167.995 -66.963,168.002 -96.828,150.77L-256.774,58.449L-256.774,60.111L-98.651,151.38C-83.159,160.318 -65.795,164.787 -48.427,164.787C-31.052,164.787 -13.673,160.312 1.823,151.365L290.97,-15.585L290.97,-17.247L0,150.755Z" style="fill:none;fill-rule:nonzero;stroke:black;stroke-width:1px;"/>
        </g>
    </g>
</svg>
