<?xml version="1.0" encoding="UTF-8" standalone="no"?>
<!DOCTYPE svg PUBLIC "-//W3C//DTD SVG 1.1//EN" "http://www.w3.org/Graphics/SVG/1.1/DTD/svg11.dtd">
<svg width="100%" height="100%" viewBox="0 0 751 784" version="1.1" xmlns="http://www.w3.org/2000/svg" xmlns:xlink="http://www.w3.org/1999/xlink" xml:space="preserve" xmlns:serif="http://www.serif.com/" style="fill-rule:evenodd;clip-rule:evenodd;stroke-miterlimit:10;">
    <g transform="matrix(1,0,0,1,-63.6807,-185.013)">
        <g transform="matrix(0.866035,-0.499984,-0.499984,-0.866035,313.63,909.288)">
            <path d="M-13.695,11.66L20.74,11.66L43.517,51.114L9.082,51.114L-13.695,11.66Z" style="fill:none;fill-rule:nonzero;stroke:black;stroke-width:1px;"/>
        </g>
        <g transform="matrix(-0.866025,-0.5,-0.5,0.866025,279.878,764.339)">
            <path d="M-428.009,-316.326L-333.603,-316.326L-84.759,114.684L-179.166,114.684L-428.009,-316.326Z" style="fill:none;fill-rule:nonzero;stroke:black;stroke-width:1px;"/>
        </g>
        <g transform="matrix(-0.865923,-0.500177,-0.500177,0.865923,279.08,765.095)">
            <g>
                <clipPath id="_clip1">
                    <path d="M-107.028,153.584L-549.455,-101.972L-401.903,-357.419L40.524,-101.863L-107.028,153.584Z" clip-rule="nonzero"/>
                </clipPath>
                <g clip-path="url(#_clip1)">
                    <path d="M-423.836,-317.447L-333.85,-317.447L-85.095,113.613L-175.081,113.613L-423.836,-317.447Z" style="fill:none;fill-rule:nonzero;stroke:black;stroke-width:1px;"/>
                </g>
            </g>
        </g>
        <g transform="matrix(-0.866025,-0.5,-0.5,0.866025,279.878,746.531)">
            <path d="M-428.009,-316.325L-333.603,-316.325L-84.759,114.685L-179.166,114.684L-428.009,-316.325Z" style="fill:none;fill-rule:nonzero;stroke:black;stroke-width:1px;"/>
        </g>
        <g transform="matrix(-0.865923,-0.500177,-0.500177,0.865923,279.08,747.288)">
            <g>
                <clipPath id="_clip2">
                    <path d="M-107.032,153.59L-549.458,-101.966L-401.901,-357.422L40.526,-101.866L-107.032,153.59Z" clip-rule="nonzero"/>
                </clipPath>
                <g clip-path="url(#_clip2)">
                    <path d="M-423.836,-317.447L-333.85,-317.447L-85.095,113.613L-175.081,113.613L-423.836,-317.447Z" style="fill:none;fill-rule:nonzero;stroke:black;stroke-width:1px;"/>
                </g>
            </g>
        </g>
        <g transform="matrix(-0.866025,-0.5,-0.5,0.866025,279.878,728.724)">
            <path d="M-428.009,-316.326L-333.603,-316.326L-84.759,114.685L-179.166,114.684L-428.009,-316.326Z" style="fill:none;fill-rule:nonzero;stroke:black;stroke-width:1px;"/>
        </g>
        <g transform="matrix(-0.865923,-0.500177,-0.500177,0.865923,279.08,729.48)">
            <g>
                <clipPath id="_clip3">
                    <path d="M-107.031,153.588L-549.458,-101.968L-401.9,-357.424L40.527,-101.868L-107.031,153.588Z" clip-rule="nonzero"/>
                </clipPath>
                <g clip-path="url(#_clip3)">
                    <path d="M-423.836,-317.447L-333.85,-317.447L-85.095,113.614L-175.081,113.613L-423.836,-317.447Z" style="fill:none;fill-rule:nonzero;stroke:black;stroke-width:1px;"/>
                </g>
            </g>
        </g>
        <g transform="matrix(-0.866025,0.500001,0.500001,0.866025,448.481,925.826)">
            <path d="M-444.048,-48.66L53.639,-48.66L13.039,-118.983L-484.648,-118.983L-444.048,-48.66Z" style="fill:none;fill-rule:nonzero;stroke:black;stroke-width:1px;"/>
        </g>
        <g transform="matrix(-0.866026,0.5,0.5,0.866026,466.11,1009.42)">
            <path d="M-461.676,-114.452L36.01,-114.452L30.668,-123.705L-467.019,-123.706L-461.676,-114.452Z" style="fill:none;fill-rule:nonzero;stroke:black;stroke-width:1px;"/>
        </g>
        <g transform="matrix(-0.866026,0.5,0.5,0.866026,466.11,1027.23)">
            <path d="M-461.677,-114.453L36.01,-114.453L30.668,-123.705L-467.019,-123.706L-461.677,-114.453Z" style="fill:none;fill-rule:nonzero;stroke:black;stroke-width:1px;"/>
        </g>
        <g transform="matrix(-0.866026,0.5,0.5,0.866026,466.11,1045.04)">
            <path d="M-461.676,-114.452L36.01,-114.452L30.668,-123.705L-467.019,-123.706L-461.676,-114.452Z" style="fill:none;fill-rule:nonzero;stroke:black;stroke-width:1px;"/>
        </g>
        <g transform="matrix(0.866089,0.499891,0.499891,-0.866089,763.517,698.874)">
            <path d="M-112.574,125.146L-20.056,125.146L-268.953,-305.831L-625.719,-305.835L-572.101,-212.993" style="fill:none;fill-rule:nonzero;stroke:black;stroke-width:1px;"/>
        </g>
        <g transform="matrix(-0.866023,-0.500003,-0.500003,0.866023,333.518,770.261)">
            <path d="M-108.384,99.363L-13.976,99.363L26.625,29.042L-67.783,29.042L-108.384,99.363Z" style="fill:none;fill-rule:nonzero;stroke:black;stroke-width:1px;"/>
        </g>
        <g transform="matrix(-0.866118,-0.49984,-0.49984,0.866118,150.336,611.962)">
            <path d="M-278.44,191.18L-16.082,191.18L51.207,74.58L-211.151,74.58L-278.44,191.18Z" style="fill:none;fill-rule:nonzero;stroke:black;stroke-width:1px;"/>
        </g>
        <g transform="matrix(-0.866028,-0.499995,-0.499995,0.866028,315.888,853.862)">
            <path d="M-90.754,33.57L3.653,33.57L8.995,24.317L-85.411,24.316L-90.754,33.57Z" style="fill:none;fill-rule:nonzero;stroke:black;stroke-width:1px;"/>
        </g>
        <g transform="matrix(-0.866028,-0.499995,-0.499995,0.866028,315.888,871.669)">
            <path d="M-90.754,33.57L3.653,33.57L8.995,24.317L-85.412,24.317L-90.754,33.57Z" style="fill:none;fill-rule:nonzero;stroke:black;stroke-width:1px;"/>
        </g>
        <g transform="matrix(-0.866023,-0.500003,-0.500003,0.866023,315.888,889.476)">
            <path d="M-90.754,33.57L3.653,33.57L8.995,24.318L-85.412,24.317L-90.754,33.57Z" style="fill:none;fill-rule:nonzero;stroke:black;stroke-width:1px;"/>
        </g>
        <g transform="matrix(-0.499992,-0.86603,-0.86603,0.499992,446.966,797.849)">
            <path d="M-28.722,-49.747C-34.891,-46.185 -39.892,-28.449 -39.892,-10.132C-39.894,8.183 -34.892,20.145 -28.722,16.583C-22.552,13.021 -17.55,-4.716 -17.549,-23.032C-17.549,-41.349 -22.551,-53.309 -28.722,-49.747Z" style="fill:none;fill-rule:nonzero;stroke:black;stroke-width:1px;"/>
        </g>
        <g transform="matrix(-0.866027,0.499997,0.499997,0.866027,441.389,864.404)">
            <path d="M-112.197,-25.691L9.408,-25.691L6.884,-30.063L-114.721,-30.063L-112.197,-25.691Z" style="fill:none;fill-rule:nonzero;stroke:black;stroke-width:1px;"/>
        </g>
        <g transform="matrix(-0.500006,-0.866022,-0.866022,0.500006,449.4,800.278)">
            <path d="M-23.653,-40.968C-27.273,-38.877 -30.209,-24.955 -30.21,-9.87C-30.21,5.214 -27.274,15.747 -23.653,13.656C-20.03,11.564 -17.094,-2.358 -17.094,-17.442C-17.095,-32.526 -20.031,-43.059 -23.653,-40.968Z" style="fill:none;fill-rule:nonzero;stroke:black;stroke-width:1px;"/>
        </g>
        <g transform="matrix(-0.866006,0.500033,0.500033,0.866006,517.2,810.914)">
            <path d="M-14.611,-8.287L-0.304,-8.287L2.221,-3.915L-12.086,-3.915L-14.611,-8.287Z" style="fill:none;fill-rule:nonzero;stroke:black;stroke-width:1px;"/>
        </g>
        <g transform="matrix(0,1,1,0,808.759,623.567)">
            <path d="M-29.315,-23.936L20.829,-23.936L23.936,-29.315L-26.209,-29.315L-29.315,-23.936Z" style="fill:none;fill-rule:nonzero;stroke:black;stroke-width:1px;"/>
        </g>
        <g transform="matrix(-0.866035,0.499983,0.499983,0.866035,741.069,587.906)">
            <path d="M-34.721,27.37L-28.508,27.37L-7.333,-9.303L-13.547,-9.302L-34.721,27.37Z" style="fill:none;fill-rule:nonzero;stroke:black;stroke-width:1px;"/>
        </g>
        <g transform="matrix(-0.865995,0.500052,0.500052,0.865995,779.965,646.339)">
            <path d="M-5.179,0.746L1.032,0.746L-1.453,-3.558L-2.654,-3.558L-5.179,0.746Z" style="fill:none;fill-rule:nonzero;stroke:black;stroke-width:1px;"/>
        </g>
        <g transform="matrix(-0.86569,-0.50058,-0.50058,0.86569,768.853,637.601)">
            <path d="M7.875,-45.521L12.887,-45.521L-12.236,-2.074L-17.226,-2.113L7.875,-45.521Z" style="fill:none;fill-rule:nonzero;stroke:black;stroke-width:1px;"/>
        </g>
        <g transform="matrix(-0.866007,-0.500032,-0.500032,0.866007,754.659,569.964)">
            <path d="M-38.268,5.95L4.08,5.95L1.595,10.254L-40.753,10.255L-38.268,5.95Z" style="fill:none;fill-rule:nonzero;stroke:black;stroke-width:1px;"/>
        </g>
        <g transform="matrix(0.866105,-0.499862,-0.499862,-0.866105,743.284,577.485)">
            <path d="M0.206,1.386L6.417,1.386L3.934,-2.918L2.69,-2.919L0.206,1.386Z" style="fill:none;fill-rule:nonzero;stroke:black;stroke-width:1px;"/>
        </g>
        <g transform="matrix(0,1,1,0,797.895,629.838)">
            <path d="M-29.314,-23.935L20.829,-23.935L23.935,-29.314L-26.209,-29.314L-29.314,-23.935Z" style="fill:none;fill-rule:nonzero;stroke:black;stroke-width:1px;"/>
        </g>
        <g transform="matrix(-0.866006,0.500034,0.500034,0.866006,730.206,594.18)">
            <path d="M-34.721,27.37L-28.507,27.37L-7.334,-9.303L-13.548,-9.304L-34.721,27.37Z" style="fill:none;fill-rule:nonzero;stroke:black;stroke-width:1px;"/>
        </g>
        <g transform="matrix(-0.865995,0.500052,0.500052,0.865995,769.102,652.61)">
            <path d="M-5.179,0.747L1.032,0.747L-1.453,-3.558L-2.654,-3.558L-5.179,0.747Z" style="fill:none;fill-rule:nonzero;stroke:black;stroke-width:1px;"/>
        </g>
        <g transform="matrix(-0.865604,-0.50073,-0.50073,0.865604,757.987,643.87)">
            <path d="M7.878,-45.518L12.891,-45.518L-12.239,-2.076L-17.23,-2.115L7.878,-45.518Z" style="fill:none;fill-rule:nonzero;stroke:black;stroke-width:1px;"/>
        </g>
        <g transform="matrix(-0.865992,-0.500058,-0.500058,0.865992,743.796,576.233)">
            <path d="M-38.269,5.952L4.08,5.952L1.594,10.257L-40.754,10.256L-38.269,5.952Z" style="fill:none;fill-rule:nonzero;stroke:black;stroke-width:1px;"/>
        </g>
        <g transform="matrix(0.865995,-0.500052,-0.500052,-0.865995,732.423,583.757)">
            <path d="M0.205,1.386L6.417,1.386L3.931,-2.918L2.689,-2.918L0.205,1.386Z" style="fill:none;fill-rule:nonzero;stroke:black;stroke-width:1px;"/>
        </g>
        <g transform="matrix(0,1,1,0,787.033,636.109)">
            <path d="M-29.314,-23.935L20.829,-23.935L23.935,-29.314L-26.209,-29.314L-29.314,-23.935Z" style="fill:none;fill-rule:nonzero;stroke:black;stroke-width:1px;"/>
        </g>
        <g transform="matrix(-0.866076,0.499913,0.499913,0.866076,719.344,600.448)">
            <path d="M-34.721,27.369L-28.508,27.369L-7.332,-9.302L-13.544,-9.302L-34.721,27.369Z" style="fill:none;fill-rule:nonzero;stroke:black;stroke-width:1px;"/>
        </g>
        <g transform="matrix(-0.866065,0.499932,0.499932,0.866065,758.239,658.88)">
            <path d="M-5.179,0.747L1.032,0.747L-1.452,-3.556L-2.652,-3.557L-5.179,0.747Z" style="fill:none;fill-rule:nonzero;stroke:black;stroke-width:1px;"/>
        </g>
        <g transform="matrix(-0.865654,-0.500643,-0.500643,0.865654,747.126,650.142)">
            <path d="M7.875,-45.52L12.889,-45.52L-12.238,-2.074L-17.229,-2.113L7.875,-45.52Z" style="fill:none;fill-rule:nonzero;stroke:black;stroke-width:1px;"/>
        </g>
        <g transform="matrix(-0.866013,-0.500022,-0.500022,0.866013,732.933,582.506)">
            <path d="M-38.269,5.951L4.079,5.951L1.595,10.255L-40.753,10.255L-38.269,5.951Z" style="fill:none;fill-rule:nonzero;stroke:black;stroke-width:1px;"/>
        </g>
        <g transform="matrix(0.866065,-0.499932,-0.499932,-0.866065,721.56,590.029)">
            <path d="M0.205,1.386L6.416,1.386L3.932,-2.917L2.689,-2.918L0.205,1.386Z" style="fill:none;fill-rule:nonzero;stroke:black;stroke-width:1px;"/>
        </g>
        <g transform="matrix(0,1,1,0,776.17,642.381)">
            <path d="M-29.314,-23.935L20.829,-23.935L23.935,-29.314L-26.209,-29.314L-29.314,-23.935Z" style="fill:none;fill-rule:nonzero;stroke:black;stroke-width:1px;"/>
        </g>
        <g transform="matrix(-0.866035,0.499983,0.499983,0.866035,708.481,606.721)">
            <path d="M-34.721,27.37L-28.508,27.37L-7.333,-9.303L-13.547,-9.302L-34.721,27.37Z" style="fill:none;fill-rule:nonzero;stroke:black;stroke-width:1px;"/>
        </g>
        <g transform="matrix(-0.866065,0.499932,0.499932,0.866065,747.376,665.151)">
            <path d="M-5.179,0.748L1.032,0.748L-1.452,-3.555L-2.653,-3.557L-5.179,0.748Z" style="fill:none;fill-rule:nonzero;stroke:black;stroke-width:1px;"/>
        </g>
        <g transform="matrix(-0.865604,-0.50073,-0.50073,0.865604,736.262,656.413)">
            <path d="M7.878,-45.518L12.891,-45.518L-12.239,-2.076L-17.23,-2.115L7.878,-45.518Z" style="fill:none;fill-rule:nonzero;stroke:black;stroke-width:1px;"/>
        </g>
        <g transform="matrix(-0.865996,-0.50005,-0.50005,0.865996,722.072,588.777)">
            <path d="M-38.268,5.952L4.08,5.952L1.595,10.256L-40.753,10.255L-38.268,5.952Z" style="fill:none;fill-rule:nonzero;stroke:black;stroke-width:1px;"/>
        </g>
        <g transform="matrix(0.866105,-0.499862,-0.499862,-0.866105,710.696,596.3)">
            <path d="M0.206,1.386L6.417,1.386L3.934,-2.918L2.691,-2.92L0.206,1.386Z" style="fill:none;fill-rule:nonzero;stroke:black;stroke-width:1px;"/>
        </g>
        <g transform="matrix(0,1,1,0,765.308,648.652)">
            <path d="M-29.315,-23.935L20.829,-23.935L23.935,-29.315L-26.209,-29.315L-29.315,-23.935Z" style="fill:none;fill-rule:nonzero;stroke:black;stroke-width:1px;"/>
        </g>
        <g transform="matrix(-0.866076,0.499913,0.499913,0.866076,697.618,612.991)">
            <path d="M-34.723,27.369L-28.51,27.369L-7.332,-9.302L-13.545,-9.302L-34.723,27.369Z" style="fill:none;fill-rule:nonzero;stroke:black;stroke-width:1px;"/>
        </g>
        <g transform="matrix(-0.866105,0.499862,0.499862,0.866105,736.514,671.423)">
            <path d="M-5.18,0.747L1.032,0.747L-1.452,-3.556L-2.653,-3.557L-5.18,0.747Z" style="fill:none;fill-rule:nonzero;stroke:black;stroke-width:1px;"/>
        </g>
        <g transform="matrix(-0.86574,-0.500494,-0.500494,0.86574,725.404,662.689)">
            <path d="M7.872,-45.523L12.885,-45.523L-12.233,-2.074L-17.225,-2.112L7.872,-45.523Z" style="fill:none;fill-rule:nonzero;stroke:black;stroke-width:1px;"/>
        </g>
        <g transform="matrix(-0.866018,-0.500012,-0.500012,0.866018,711.206,595.05)">
            <path d="M-38.269,5.95L4.08,5.95L1.595,10.253L-40.755,10.254L-38.269,5.95Z" style="fill:none;fill-rule:nonzero;stroke:black;stroke-width:1px;"/>
        </g>
        <g transform="matrix(0.866065,-0.499932,-0.499932,-0.866065,699.834,602.571)">
            <path d="M0.206,1.386L6.417,1.386L3.932,-2.918L2.689,-2.919L0.206,1.386Z" style="fill:none;fill-rule:nonzero;stroke:black;stroke-width:1px;"/>
        </g>
        <g transform="matrix(0,1,1,0,754.446,654.923)">
            <path d="M-29.315,-23.936L20.83,-23.936L23.936,-29.315L-26.209,-29.315L-29.315,-23.936Z" style="fill:none;fill-rule:nonzero;stroke:black;stroke-width:1px;"/>
        </g>
        <g transform="matrix(-0.866076,0.499913,0.499913,0.866076,686.756,619.261)">
            <path d="M-34.721,27.369L-28.508,27.369L-7.332,-9.302L-13.544,-9.302L-34.721,27.369Z" style="fill:none;fill-rule:nonzero;stroke:black;stroke-width:1px;"/>
        </g>
        <g transform="matrix(-0.865995,0.500052,0.500052,0.865995,725.652,677.695)">
            <path d="M-5.179,0.747L1.032,0.747L-1.453,-3.557L-2.653,-3.558L-5.179,0.747Z" style="fill:none;fill-rule:nonzero;stroke:black;stroke-width:1px;"/>
        </g>
        <g transform="matrix(-0.86574,-0.500494,-0.500494,0.86574,714.542,668.96)">
            <path d="M7.872,-45.523L12.885,-45.523L-12.234,-2.074L-17.225,-2.112L7.872,-45.523Z" style="fill:none;fill-rule:nonzero;stroke:black;stroke-width:1px;"/>
        </g>
        <g transform="matrix(-0.866018,-0.500012,-0.500012,0.866018,700.344,601.321)">
            <path d="M-38.269,5.95L4.08,5.95L1.595,10.254L-40.755,10.254L-38.269,5.95Z" style="fill:none;fill-rule:nonzero;stroke:black;stroke-width:1px;"/>
        </g>
        <g transform="matrix(0.866065,-0.499932,-0.499932,-0.866065,688.972,608.842)">
            <path d="M0.206,1.386L6.417,1.386L3.932,-2.918L2.689,-2.919L0.206,1.386Z" style="fill:none;fill-rule:nonzero;stroke:black;stroke-width:1px;"/>
        </g>
        <g transform="matrix(0,1,1,0,743.582,661.195)">
            <path d="M-29.314,-23.935L20.829,-23.935L23.935,-29.314L-26.209,-29.314L-29.314,-23.935Z" style="fill:none;fill-rule:nonzero;stroke:black;stroke-width:1px;"/>
        </g>
        <g transform="matrix(-0.866035,0.499983,0.499983,0.866035,675.893,625.535)">
            <path d="M-34.72,27.371L-28.508,27.371L-7.333,-9.302L-13.548,-9.302L-34.72,27.371Z" style="fill:none;fill-rule:nonzero;stroke:black;stroke-width:1px;"/>
        </g>
        <g transform="matrix(-0.866065,0.499932,0.499932,0.866065,714.789,683.966)">
            <path d="M-5.179,0.747L1.032,0.747L-1.452,-3.556L-2.653,-3.557L-5.179,0.747Z" style="fill:none;fill-rule:nonzero;stroke:black;stroke-width:1px;"/>
        </g>
        <g transform="matrix(-0.865604,-0.50073,-0.50073,0.865604,703.674,675.227)">
            <path d="M7.878,-45.518L12.891,-45.518L-12.24,-2.076L-17.23,-2.115L7.878,-45.518Z" style="fill:none;fill-rule:nonzero;stroke:black;stroke-width:1px;"/>
        </g>
        <g transform="matrix(-0.865996,-0.50005,-0.50005,0.865996,689.484,607.591)">
            <path d="M-38.268,5.952L4.08,5.952L1.595,10.256L-40.753,10.255L-38.268,5.952Z" style="fill:none;fill-rule:nonzero;stroke:black;stroke-width:1px;"/>
        </g>
        <g transform="matrix(0.865995,-0.500052,-0.500052,-0.865995,678.111,615.115)">
            <path d="M0.205,1.386L6.417,1.386L3.931,-2.918L2.689,-2.918L0.205,1.386Z" style="fill:none;fill-rule:nonzero;stroke:black;stroke-width:1px;"/>
        </g>
        <g transform="matrix(0,1,1,0,732.72,667.467)">
            <path d="M-29.315,-23.935L20.829,-23.935L23.935,-29.315L-26.21,-29.315L-29.315,-23.935Z" style="fill:none;fill-rule:nonzero;stroke:black;stroke-width:1px;"/>
        </g>
        <g transform="matrix(-0.866076,0.499913,0.499913,0.866076,665.031,631.805)">
            <path d="M-34.722,27.369L-28.509,27.369L-7.332,-9.302L-13.545,-9.302L-34.722,27.369Z" style="fill:none;fill-rule:nonzero;stroke:black;stroke-width:1px;"/>
        </g>
        <g transform="matrix(-0.866105,0.499862,0.499862,0.866105,703.925,690.237)">
            <path d="M-5.18,0.748L1.032,0.748L-1.452,-3.555L-2.653,-3.557L-5.18,0.748Z" style="fill:none;fill-rule:nonzero;stroke:black;stroke-width:1px;"/>
        </g>
        <g transform="matrix(-0.865654,-0.500643,-0.500643,0.865654,692.813,681.5)">
            <path d="M7.875,-45.521L12.889,-45.521L-12.237,-2.075L-17.229,-2.113L7.875,-45.521Z" style="fill:none;fill-rule:nonzero;stroke:black;stroke-width:1px;"/>
        </g>
        <g transform="matrix(-0.866013,-0.500022,-0.500022,0.866013,678.62,613.864)">
            <path d="M-38.269,5.95L4.08,5.95L1.595,10.254L-40.754,10.255L-38.269,5.95Z" style="fill:none;fill-rule:nonzero;stroke:black;stroke-width:1px;"/>
        </g>
        <g transform="matrix(0.866065,-0.499932,-0.499932,-0.866065,667.247,621.386)">
            <path d="M0.205,1.386L6.416,1.386L3.932,-2.917L2.689,-2.918L0.205,1.386Z" style="fill:none;fill-rule:nonzero;stroke:black;stroke-width:1px;"/>
        </g>
        <g transform="matrix(0,1,1,0,721.858,673.738)">
            <path d="M-29.314,-23.935L20.829,-23.935L23.935,-29.314L-26.209,-29.314L-29.314,-23.935Z" style="fill:none;fill-rule:nonzero;stroke:black;stroke-width:1px;"/>
        </g>
        <g transform="matrix(-0.866035,0.499983,0.499983,0.866035,654.168,638.078)">
            <path d="M-34.721,27.37L-28.508,27.37L-7.333,-9.303L-13.547,-9.302L-34.721,27.37Z" style="fill:none;fill-rule:nonzero;stroke:black;stroke-width:1px;"/>
        </g>
        <g transform="matrix(-0.866065,0.499932,0.499932,0.866065,693.064,696.509)">
            <path d="M-5.179,0.747L1.032,0.747L-1.452,-3.556L-2.652,-3.557L-5.179,0.747Z" style="fill:none;fill-rule:nonzero;stroke:black;stroke-width:1px;"/>
        </g>
        <g transform="matrix(-0.86574,-0.500494,-0.500494,0.86574,681.954,687.774)">
            <path d="M7.872,-45.522L12.885,-45.522L-12.234,-2.074L-17.225,-2.112L7.872,-45.522Z" style="fill:none;fill-rule:nonzero;stroke:black;stroke-width:1px;"/>
        </g>
        <g transform="matrix(-0.866013,-0.500022,-0.500022,0.866013,667.758,620.135)">
            <path d="M-38.269,5.951L4.079,5.951L1.595,10.255L-40.753,10.255L-38.269,5.951Z" style="fill:none;fill-rule:nonzero;stroke:black;stroke-width:1px;"/>
        </g>
        <g transform="matrix(0.866105,-0.499862,-0.499862,-0.866105,656.384,627.657)">
            <path d="M0.206,1.386L6.417,1.386L3.934,-2.918L2.69,-2.919L0.206,1.386Z" style="fill:none;fill-rule:nonzero;stroke:black;stroke-width:1px;"/>
        </g>
        <g transform="matrix(0,1,1,0,710.995,680.009)">
            <path d="M-29.314,-23.935L20.83,-23.935L23.935,-29.314L-26.209,-29.314L-29.314,-23.935Z" style="fill:none;fill-rule:nonzero;stroke:black;stroke-width:1px;"/>
        </g>
        <g transform="matrix(-0.866076,0.499913,0.499913,0.866076,643.306,644.347)">
            <path d="M-34.722,27.369L-28.509,27.369L-7.332,-9.302L-13.545,-9.302L-34.722,27.369Z" style="fill:none;fill-rule:nonzero;stroke:black;stroke-width:1px;"/>
        </g>
        <g transform="matrix(-0.866065,0.499932,0.499932,0.866065,682.201,702.78)">
            <path d="M-5.179,0.747L1.032,0.747L-1.452,-3.556L-2.653,-3.557L-5.179,0.747Z" style="fill:none;fill-rule:nonzero;stroke:black;stroke-width:1px;"/>
        </g>
        <g transform="matrix(-0.86569,-0.50058,-0.50058,0.86569,671.089,694.045)">
            <path d="M7.875,-45.522L12.887,-45.522L-12.236,-2.075L-17.226,-2.113L7.875,-45.522Z" style="fill:none;fill-rule:nonzero;stroke:black;stroke-width:1px;"/>
        </g>
        <g transform="matrix(-0.866007,-0.500032,-0.500032,0.866007,656.895,626.408)">
            <path d="M-38.267,5.95L4.08,5.95L1.595,10.253L-40.753,10.254L-38.267,5.95Z" style="fill:none;fill-rule:nonzero;stroke:black;stroke-width:1px;"/>
        </g>
        <g transform="matrix(0.866065,-0.499932,-0.499932,-0.866065,645.522,633.928)">
            <path d="M0.206,1.386L6.417,1.386L3.932,-2.918L2.689,-2.919L0.206,1.386Z" style="fill:none;fill-rule:nonzero;stroke:black;stroke-width:1px;"/>
        </g>
        <g transform="matrix(1,0,0,1,236.628,190.038)">
            <path d="M0,196.095L-104.112,131.648L79.953,25.379L86.949,21.34L299.317,23.284L424.199,0" style="fill:none;fill-rule:nonzero;stroke:black;stroke-width:1px;"/>
        </g>
        <g transform="matrix(1,0,0,1,725.09,190.039)">
            <path d="M0,392.188L0,30.791L-64.263,0" style="fill:none;fill-rule:nonzero;stroke:black;stroke-width:1px;"/>
        </g>
        <g transform="matrix(0.866025,-0.500001,-0.500001,-0.866025,526.191,797.609)">
            <path d="M-107.195,123.429L300.931,123.429L460.642,400.055L52.517,400.056L-107.195,123.429Z" style="fill:none;fill-rule:nonzero;stroke:black;stroke-width:1px;"/>
        </g>
        <g transform="matrix(0.866025,-0.5,-0.5,-0.866025,532.43,744.352)">
            <path d="M-88.827,100.493L241.669,100.493L375.045,331.506L44.548,331.505L-88.827,100.493Z" style="fill:none;fill-rule:nonzero;stroke:black;stroke-width:1px;"/>
        </g>
        <g transform="matrix(1,0,0,1,725.09,786.291)">
            <path d="M0,-246.038L0,-204.066L-100.454,-146.067L-102.594,-144.831L-250.851,-59.235L-252.991,-57.999L-353.445,0L-353.445,-41.978L0,-246.038Z" style="fill:none;fill-rule:nonzero;stroke:black;stroke-width:1px;"/>
        </g>
        <g transform="matrix(1,0,0,1,624.636,728.292)">
            <path d="M0,-116.901L0,-88.068L-2.14,-86.832L-2.14,-112.789L-150.396,-27.193L-150.396,-1.235L-152.537,0L-152.537,-28.834L0,-116.901Z" style="fill:none;fill-rule:nonzero;stroke:black;stroke-width:1px;"/>
        </g>
        <g transform="matrix(0.866027,0.499997,0.499997,-0.866027,232.19,711.822)">
            <path d="M83.8,5.235L158.005,5.235L-22.693,318.215L-93.742,312.749L83.8,5.235Z" style="fill:none;fill-rule:nonzero;stroke:black;stroke-width:1px;"/>
        </g>
        <g transform="matrix(1,0,0,1,307.38,676.772)">
            <path d="M0,-282.67L-70.752,-290.639L-174.864,-355.086L-177.098,-107.793L-114.208,-48.008L-48.076,18.633L0,72.416L0,-282.67Z" style="fill:none;fill-rule:nonzero;stroke:black;stroke-width:1px;"/>
        </g>
        <g transform="matrix(-0.866025,0.500001,0.500001,0.866025,449.728,481.455)">
            <path d="M-328.526,-146.825L79.6,-146.825L39.342,-88.028L-368.783,-88.027L-328.526,-146.825Z" style="fill:none;fill-rule:nonzero;stroke:black;stroke-width:1px;"/>
        </g>
        <g transform="matrix(-0.983059,0.183291,0.183291,0.983059,258.923,431.249)">
            <path d="M-439.307,-163.459L-312.274,-163.459L13.648,-48.437L-54.445,-27.636L-439.307,-163.459Z" style="fill:none;fill-rule:nonzero;stroke:black;stroke-width:1px;"/>
        </g>
    </g>
</svg>
