<?xml version="1.0" encoding="UTF-8" standalone="no"?>
<!DOCTYPE svg PUBLIC "-//W3C//DTD SVG 1.1//EN" "http://www.w3.org/Graphics/SVG/1.1/DTD/svg11.dtd">
<svg width="100%" height="100%" viewBox="0 0 671 891" version="1.1" xmlns="http://www.w3.org/2000/svg" xmlns:xlink="http://www.w3.org/1999/xlink" xml:space="preserve" xmlns:serif="http://www.serif.com/" style="fill-rule:evenodd;clip-rule:evenodd;stroke-miterlimit:10;">
    <g transform="matrix(1,0,0,1,-1099.87,-1158.97)">
        <g transform="matrix(-0.857573,-0.514363,-0.514363,0.857573,1324.71,1231.48)">
            <path d="M-534.416,589.198L-101.488,589.198L163.149,147.98L-265.446,140.757L-534.416,589.198Z" style="fill:none;fill-rule:nonzero;stroke:black;stroke-width:1px;"/>
        </g>
        <g transform="matrix(-0.866118,-0.499839,-0.499839,0.866118,1188.44,1216.3)">
            <path d="M-401.318,112.194L27.338,112.194L30.051,107.493L-398.605,107.493L-401.318,112.194Z" style="fill:none;fill-rule:nonzero;stroke:black;stroke-width:1px;"/>
        </g>
        <g transform="matrix(-0.857572,-0.514365,-0.514365,0.857572,1193.79,1692.05)">
            <path d="M-403.493,116.382L29.435,116.382L32.226,111.728L-400.701,111.727L-403.493,116.382Z" style="fill:none;fill-rule:nonzero;stroke:black;stroke-width:1px;"/>
        </g>
        <g transform="matrix(-0.866117,-0.499841,-0.499841,0.866117,1423.53,1149.66)">
            <path d="M-214.982,265.463L214.688,265.463L69.097,56.425L-346.815,37.221L-214.982,265.463Z" style="fill:none;fill-rule:nonzero;stroke:black;stroke-width:1px;"/>
        </g>
        <g transform="matrix(-0.866024,0.500003,0.500003,0.866024,1454.53,1604.93)">
            <path d="M-115.193,421.994L148.387,421.994L-113.074,-30.867L-376.654,-30.866L-115.193,421.994Z" style="fill:none;fill-rule:nonzero;stroke:black;stroke-width:1px;"/>
        </g>
        <g transform="matrix(-0.866027,0.499997,0.499997,0.866027,1468.81,1604.85)">
            <path d="M-95.58,402.596L139.349,402.596L-107.874,-25.61L-342.804,-25.611L-95.58,402.596Z" style="fill:none;fill-rule:nonzero;stroke:black;stroke-width:1px;"/>
        </g>
        <g transform="matrix(-0.866024,0.500003,0.500003,0.866024,1471.67,1605.39)">
            <path d="M-92.409,397.963L137.427,397.963L-106.635,-24.762L-336.471,-24.761L-92.409,397.963Z" style="fill:none;fill-rule:nonzero;stroke:black;stroke-width:1px;"/>
        </g>
        <g transform="matrix(-0.866027,0.499996,0.499996,0.866027,1594.35,1753.7)">
            <path d="M-215.093,-59.895L14.743,-59.895L16.049,-57.633L-213.788,-57.635L-215.093,-59.895Z" style="fill:none;fill-rule:nonzero;stroke:black;stroke-width:1px;"/>
        </g>
        <g transform="matrix(-0.866027,0.499996,0.499996,0.866027,1594.35,1693.12)">
            <path d="M-215.093,-59.895L14.743,-59.895L16.049,-57.633L-213.788,-57.635L-215.093,-59.895Z" style="fill:none;fill-rule:nonzero;stroke:black;stroke-width:1px;"/>
        </g>
        <g transform="matrix(-0.866027,0.499996,0.499996,0.866027,1594.35,1632.54)">
            <path d="M-215.092,-59.894L14.743,-59.894L16.048,-57.633L-213.788,-57.634L-215.092,-59.894Z" style="fill:none;fill-rule:nonzero;stroke:black;stroke-width:1px;"/>
        </g>
        <g transform="matrix(-0.866027,0.499997,0.499997,0.866027,1626.4,1812.93)">
            <path d="M-173.799,-106.156L-5.958,-106.156L28.444,-46.569L-139.397,-46.569L-173.799,-106.156Z" style="fill:none;fill-rule:nonzero;stroke:black;stroke-width:1px;"/>
        </g>
        <g transform="matrix(-0.866026,0.499998,0.499998,0.866026,1626.76,1809.02)">
            <path d="M-167.949,-101.301L-5.361,-101.301L27.143,-45.002L-135.445,-45.002L-167.949,-101.301Z" style="fill:none;fill-rule:nonzero;stroke:black;stroke-width:1px;"/>
        </g>
        <g transform="matrix(1,0,0,1,1738.89,1676.4)">
            <g>
                <clipPath id="_clip1">
                    <rect x="-183.828" y="-106.815" width="188.99" height="117.6" clip-rule="nonzero"/>
                </clipPath>
                <g clip-path="url(#_clip1)">
                    <path d="M0,-95.931L-183.329,9.915L-183.329,-17.723L-179.119,-24.993L4.211,-105.846L0,-95.931Z" style="fill:none;fill-rule:nonzero;stroke:black;stroke-width:1px;"/>
                </g>
            </g>
        </g>
        <g transform="matrix(-0.823772,0.566922,0.566922,0.823772,1612.13,1716.12)">
            <path d="M-206.42,-62.412L20.608,-62.412L6.44,-82.999L-204.589,-66.257L-206.42,-62.412Z" style="fill:none;fill-rule:nonzero;stroke:black;stroke-width:1px;"/>
        </g>
        <g transform="matrix(-0.866026,0.499999,0.499999,0.866026,1595.95,1693.95)">
            <path d="M-191.264,-29.607L20.428,-29.607L7.933,-51.25L-203.759,-51.249L-191.264,-29.607Z" style="fill:none;fill-rule:nonzero;stroke:black;stroke-width:1px;"/>
        </g>
        <g transform="matrix(-0.865995,0.500053,0.500053,0.865995,1706.34,1609.01)">
            <path d="M-8.898,1.519L1.847,1.519L-0.407,-2.385L-11.152,-2.385L-8.898,1.519Z" style="fill:none;fill-rule:nonzero;stroke:black;stroke-width:1px;"/>
        </g>
        <g transform="matrix(-0.499983,-0.866035,-0.866035,0.499983,1629.65,1820.12)">
            <path d="M-21.504,-37.244C-33.306,-30.431 -42.872,-13.79 -42.872,-0.077C-42.873,13.636 -33.306,19.229 -21.504,12.415C-9.702,5.602 -0.134,-11.038 -0.134,-24.751C-0.134,-38.464 -9.701,-44.058 -21.504,-37.244Z" style="fill:none;fill-rule:nonzero;stroke:black;stroke-width:1px;"/>
        </g>
        <g transform="matrix(-0.500003,-0.866024,-0.866024,0.500003,1632.43,1821.73)">
            <path d="M-17.549,-30.395C-27.181,-24.834 -34.99,-11.255 -34.989,-0.061C-34.989,11.129 -27.181,15.694 -17.549,10.133C-7.919,4.573 -0.111,-9.008 -0.11,-20.199C-0.11,-31.393 -7.918,-35.956 -17.549,-30.395Z" style="fill:none;fill-rule:nonzero;stroke:black;stroke-width:1px;"/>
        </g>
        <g transform="matrix(1,0,0,1,1642.08,1810.19)">
            <path d="M0,45.6L-4.984,42.762L-5.396,22.341L19.775,0L24.945,3.032L0,45.6Z" style="fill:none;fill-rule:nonzero;stroke:black;stroke-width:1px;"/>
        </g>
        <g transform="matrix(-0.499987,-0.866033,-0.866033,0.499987,1636.68,1870.2)">
            <path d="M-14.473,-25.068C-22.418,-20.482 -28.857,-9.283 -28.856,-0.052C-28.857,9.177 -22.418,12.943 -14.474,8.356C-6.529,3.77 -0.091,-7.431 -0.09,-16.659C-0.091,-25.891 -6.529,-29.655 -14.473,-25.068Z" style="fill:none;fill-rule:nonzero;stroke:black;stroke-width:1px;"/>
        </g>
        <g transform="matrix(-0.499989,-0.866032,-0.866032,0.499989,1638.8,1871.44)">
            <path d="M-10.813,-18.73C-16.749,-15.303 -21.558,-6.935 -21.559,-0.04C-21.56,6.856 -16.748,9.669 -10.813,6.243C-4.878,2.816 -0.068,-5.552 -0.068,-12.448C-0.067,-19.343 -4.878,-22.156 -10.813,-18.73Z" style="fill:none;fill-rule:nonzero;stroke:black;stroke-width:1px;"/>
        </g>
        <g transform="matrix(-0.865984,0.500072,0.500072,0.865984,1616.03,1851.08)">
            <path d="M-5.148,5.093L2.373,5.093L-1.365,-1.38L-8.886,-1.38L-5.148,5.093Z" style="fill:none;fill-rule:nonzero;stroke:black;stroke-width:1px;"/>
        </g>
        <g transform="matrix(-0.866042,0.499972,0.499972,0.866042,1616.03,1896.7)">
            <path d="M-5.148,5.093L2.372,5.093L-1.365,-1.379L-8.885,-1.379L-5.148,5.093Z" style="fill:none;fill-rule:nonzero;stroke:black;stroke-width:1px;"/>
        </g>
        <g transform="matrix(-0.866024,0.500003,0.500003,0.866024,1591.8,2031.26)">
            <path d="M-212.542,-50.376L17.294,-50.376L13.498,-56.952L-216.338,-56.951L-212.542,-50.376Z" style="fill:none;fill-rule:nonzero;stroke:black;stroke-width:1px;"/>
        </g>
        <g transform="matrix(-0.866026,0.5,0.5,0.866026,1591.8,2047.04)">
            <path d="M-212.542,-50.375L17.294,-50.375L13.498,-56.95L-216.338,-56.95L-212.542,-50.375Z" style="fill:none;fill-rule:nonzero;stroke:black;stroke-width:1px;"/>
        </g>
        <g transform="matrix(-0.866024,0.500003,0.500003,0.866024,1591.8,2015.49)">
            <path d="M-212.542,-50.376L17.294,-50.376L13.497,-56.953L-216.338,-56.951L-212.542,-50.376Z" style="fill:none;fill-rule:nonzero;stroke:black;stroke-width:1px;"/>
        </g>
        <g transform="matrix(-0.866024,0.500003,0.500003,0.866024,1611.16,1781.99)">
            <path d="M-152.35,-43.081L10.24,-43.081L11.544,-40.822L-151.045,-40.821L-152.35,-43.081Z" style="fill:none;fill-rule:nonzero;stroke:black;stroke-width:1px;"/>
        </g>
        <g transform="matrix(1,0,0,1,1642.49,1866.39)">
            <path d="M0,24.722L3.758,26.882L17.939,-0.017L14.221,-2.16L1.252,7.815L0,24.722Z" style="fill:none;fill-rule:nonzero;stroke:black;stroke-width:1px;"/>
        </g>
        <g transform="matrix(-0.866109,-0.499855,-0.499855,0.866109,1620.4,1509.37)">
            <path d="M-195.314,505.222L-126.056,505.222L135.329,52.317L66.071,52.317L-195.314,505.222Z" style="fill:none;fill-rule:nonzero;stroke:black;stroke-width:1px;"/>
        </g>
        <g transform="matrix(-0.866053,-0.499953,-0.499953,0.866053,1566.79,1652.3)">
            <path d="M-10.22,24.382L-5.962,24.382L6.532,2.738L2.274,2.738L-10.22,24.382Z" style="fill:none;fill-rule:nonzero;stroke:black;stroke-width:1px;"/>
        </g>
        <g transform="matrix(-0.499992,-0.86603,-0.86603,0.499992,1636.12,1823.86)">
            <path d="M-17.55,-30.396C-27.181,-24.835 -34.99,-11.254 -34.99,-0.062C-34.99,11.128 -27.182,15.694 -17.55,10.133C-7.919,4.573 -0.111,-9.009 -0.11,-20.2C-0.11,-31.392 -7.919,-35.956 -17.55,-30.396Z" style="fill:none;fill-rule:nonzero;stroke:black;stroke-width:1px;"/>
        </g>
        <g transform="matrix(-0.500001,-0.866025,-0.866025,0.500001,1641.33,1827.5)">
            <path d="M-14.448,-25.021C-22.376,-20.444 -28.805,-9.264 -28.805,-0.05C-28.804,9.161 -22.377,12.92 -14.448,8.342C-6.519,3.764 -0.091,-7.416 -0.092,-16.628C-0.091,-25.842 -6.519,-29.599 -14.448,-25.021Z" style="fill:none;fill-rule:nonzero;stroke:black;stroke-width:1px;"/>
        </g>
        <g transform="matrix(-0.499972,-0.866042,-0.866042,0.499972,1642.49,1873.57)">
            <path d="M-10.814,-18.73C-16.749,-15.303 -21.56,-6.935 -21.559,-0.041C-21.561,6.857 -16.749,9.67 -10.814,6.244C-4.879,2.817 -0.068,-5.551 -0.068,-12.448C-0.067,-19.343 -4.879,-22.156 -10.814,-18.73Z" style="fill:none;fill-rule:nonzero;stroke:black;stroke-width:1px;"/>
        </g>
        <g transform="matrix(-0.866109,-0.499855,-0.499855,0.866109,1735.63,1408.45)">
            <path d="M115.426,197.326L184.684,197.326L52.857,-30.918L-16.401,-30.92L115.426,197.326Z" style="fill:none;fill-rule:nonzero;stroke:black;stroke-width:1px;"/>
        </g>
        <g transform="matrix(-0.500028,-0.866009,-0.866009,0.500028,1720.72,1594.21)">
            <g>
                <clipPath id="_clip2">
                    <path d="M-11.46,7.195L-18.955,-5.786L-2.527,-15.272L4.969,-2.29L-11.46,7.195Z" clip-rule="nonzero"/>
                </clipPath>
                <g clip-path="url(#_clip2)">
                    <path d="M-6.993,-12.114C-10.832,-9.898 -13.943,-4.487 -13.944,-0.026C-13.943,4.433 -10.831,6.253 -6.993,4.037C-3.155,1.821 -0.045,-3.592 -0.044,-8.052C-0.045,-12.512 -3.155,-14.33 -6.993,-12.114Z" style="fill:none;fill-rule:nonzero;stroke:black;stroke-width:1px;"/>
                </g>
            </g>
        </g>
        <g transform="matrix(-0.499982,-0.866036,-0.866036,0.499982,1723.15,1591.01)">
            <path d="M-6.994,-12.113C-10.831,-9.897 -13.943,-4.485 -13.944,-0.024C-13.944,4.435 -10.832,6.254 -6.994,4.038C-3.154,1.821 -0.043,-3.59 -0.044,-8.049C-0.043,-12.51 -3.154,-14.329 -6.994,-12.113Z" style="fill:none;fill-rule:nonzero;stroke:black;stroke-width:1px;"/>
        </g>
        <g transform="matrix(-0.8694,-0.49411,-0.49411,0.8694,1721.97,1599.24)">
            <path d="M-7.779,-17.509L-4.699,-17.509L-4.688,2.162L-7.413,2.224L-7.779,-17.509Z" style="fill:none;fill-rule:nonzero;stroke:black;stroke-width:1px;"/>
        </g>
        <g transform="matrix(-0.499982,-0.866036,-0.866036,0.499982,1725.24,1592.21)">
            <path d="M-6.994,-12.113C-10.833,-9.896 -13.943,-4.484 -13.944,-0.024C-13.944,4.435 -10.833,6.254 -6.994,4.038C-3.156,1.822 -0.044,-3.59 -0.043,-8.05C-0.043,-12.509 -3.155,-14.329 -6.994,-12.113Z" style="fill:none;fill-rule:nonzero;stroke:black;stroke-width:1px;"/>
        </g>
        <g transform="matrix(-0.865992,0.500058,0.500058,0.865992,1704.05,1679.33)">
            <path d="M-9.754,-5.532L-0.203,-5.532L1.483,-2.614L-8.068,-2.614L-9.754,-5.532Z" style="fill:none;fill-rule:nonzero;stroke:black;stroke-width:1px;"/>
        </g>
        <g transform="matrix(-0.459189,-0.888339,-0.888339,0.459189,1643.33,1681.66)">
            <path d="M-14.801,-24.312C-17.995,-22.673 -20.585,-13.886 -20.584,-4.682C-20.585,4.519 -17.995,10.651 -14.801,9.012C-11.607,7.373 -9.018,-1.416 -9.018,-10.619C-9.017,-19.82 -11.606,-25.951 -14.801,-24.312Z" style="fill:none;fill-rule:nonzero;stroke:black;stroke-width:1px;"/>
        </g>
        <g transform="matrix(-0.866021,0.500008,0.500008,0.866021,1626.26,1738.69)">
            <path d="M-104.701,-25.852L8.199,-25.852L6.927,-28.056L-105.973,-28.055L-104.701,-25.852Z" style="fill:none;fill-rule:nonzero;stroke:black;stroke-width:1px;"/>
        </g>
        <g transform="matrix(-0.459198,-0.888334,-0.888334,0.459198,1644.36,1683.05)">
            <path d="M-12.188,-20.022C-14.063,-19.061 -15.583,-12.136 -15.582,-4.558C-15.582,3.02 -14.063,8.383 -12.188,7.422C-10.314,6.459 -8.793,-0.464 -8.793,-8.043C-8.794,-15.62 -10.314,-20.984 -12.188,-20.022Z" style="fill:none;fill-rule:nonzero;stroke:black;stroke-width:1px;"/>
        </g>
        <g transform="matrix(-0.50009,0.865973,0.865973,0.50009,1244.43,1488.96)">
            <path d="M3.429,-5.942C5.312,-4.854 6.839,-2.201 6.838,-0.012C6.838,2.174 5.312,3.066 3.429,1.979C1.547,0.892 0.021,-1.763 0.021,-3.949C0.022,-6.138 1.546,-7.029 3.429,-5.942Z" style="fill:none;fill-rule:nonzero;stroke:black;stroke-width:1px;"/>
        </g>
        <g transform="matrix(-0.499941,0.866059,0.866059,0.499941,1264.9,1512.56)">
            <path d="M3.43,-5.94C5.313,-4.854 6.838,-2.199 6.838,-0.011C6.839,2.175 5.313,3.067 3.43,1.98C1.548,0.894 0.021,-1.761 0.02,-3.947C0.021,-6.135 1.547,-7.027 3.43,-5.94Z" style="fill:none;fill-rule:nonzero;stroke:black;stroke-width:1px;"/>
        </g>
        <g transform="matrix(-0.500145,0.865942,0.865942,0.500145,1251.27,1504.69)">
            <path d="M3.429,-5.94C5.312,-4.853 6.838,-2.199 6.838,-0.012C6.837,2.175 5.312,3.067 3.429,1.979C1.547,0.893 0.021,-1.762 0.021,-3.949C0.021,-6.136 1.546,-7.028 3.429,-5.94Z" style="fill:none;fill-rule:nonzero;stroke:black;stroke-width:1px;"/>
        </g>
        <g transform="matrix(-0.500036,0.866005,0.866005,0.500036,1237.61,1496.81)">
            <path d="M3.43,-5.941C5.313,-4.854 6.839,-2.2 6.839,-0.011C6.839,2.175 5.313,3.067 3.43,1.98C1.548,0.894 0.022,-1.761 0.021,-3.948C0.022,-6.137 1.547,-7.028 3.43,-5.941Z" style="fill:none;fill-rule:nonzero;stroke:black;stroke-width:1px;"/>
        </g>
        <g transform="matrix(-0.500036,0.866005,0.866005,0.500036,1230.78,1481.08)">
            <path d="M3.43,-5.942C5.312,-4.855 6.84,-2.2 6.838,-0.012C6.839,2.174 5.312,3.067 3.43,1.979C1.547,0.892 0.022,-1.762 0.021,-3.948C0.022,-6.137 1.547,-7.029 3.43,-5.942Z" style="fill:none;fill-rule:nonzero;stroke:black;stroke-width:1px;"/>
        </g>
        <g transform="matrix(-0.499996,0.866028,0.866028,0.499996,1217.14,1473.21)">
            <path d="M3.429,-5.94C5.312,-4.853 6.838,-2.198 6.839,-0.011C6.838,2.176 5.312,3.067 3.43,1.98C1.548,0.894 0.021,-1.76 0.021,-3.948C0.02,-6.135 1.547,-7.027 3.429,-5.94Z" style="fill:none;fill-rule:nonzero;stroke:black;stroke-width:1px;"/>
        </g>
        <g transform="matrix(-0.500036,0.866005,0.866005,0.500036,1237.61,1496.81)">
            <path d="M3.43,-5.941C5.313,-4.854 6.839,-2.2 6.839,-0.011C6.839,2.175 5.313,3.067 3.43,1.98C1.548,0.894 0.022,-1.761 0.021,-3.948C0.022,-6.137 1.547,-7.028 3.43,-5.941Z" style="fill:none;fill-rule:nonzero;stroke:black;stroke-width:1px;"/>
        </g>
        <g transform="matrix(-0.499996,0.866028,0.866028,0.499996,1223.98,1488.94)">
            <path d="M3.429,-5.94C5.312,-4.853 6.838,-2.198 6.839,-0.011C6.838,2.177 5.312,3.067 3.43,1.98C1.547,0.893 0.021,-1.759 0.021,-3.948C0.02,-6.135 1.547,-7.027 3.429,-5.94Z" style="fill:none;fill-rule:nonzero;stroke:black;stroke-width:1px;"/>
        </g>
        <g transform="matrix(-0.500036,0.866005,0.866005,0.500036,1210.35,1481.07)">
            <path d="M3.43,-5.941C5.313,-4.854 6.838,-2.201 6.838,-0.013C6.839,2.175 5.313,3.067 3.43,1.98C1.547,0.893 0.022,-1.761 0.021,-3.949C0.022,-6.137 1.547,-7.028 3.43,-5.941Z" style="fill:none;fill-rule:nonzero;stroke:black;stroke-width:1px;"/>
        </g>
        <g transform="matrix(-0.499941,0.866059,0.866059,0.499941,1196.72,1473.2)">
            <path d="M3.43,-5.94C5.312,-4.854 6.838,-2.199 6.838,-0.011C6.839,2.176 5.313,3.067 3.43,1.98C1.547,0.894 0.02,-1.76 0.02,-3.947C0.021,-6.135 1.547,-7.027 3.43,-5.94Z" style="fill:none;fill-rule:nonzero;stroke:black;stroke-width:1px;"/>
        </g>
        <g transform="matrix(-0.499941,0.866059,0.866059,0.499941,1271.69,1528.8)">
            <path d="M3.43,-5.94C5.313,-4.854 6.84,-2.2 6.839,-0.012C6.839,2.175 5.313,3.067 3.43,1.98C1.547,0.894 0.022,-1.761 0.021,-3.948C0.021,-6.136 1.547,-7.027 3.43,-5.94Z" style="fill:none;fill-rule:nonzero;stroke:black;stroke-width:1px;"/>
        </g>
        <g transform="matrix(-0.500036,0.866005,0.866005,0.500036,1258.06,1520.93)">
            <path d="M3.43,-5.94C5.313,-4.853 6.838,-2.199 6.838,-0.011C6.839,2.175 5.313,3.068 3.43,1.981C1.548,0.894 0.023,-1.76 0.02,-3.948C0.021,-6.135 1.548,-7.028 3.43,-5.94Z" style="fill:none;fill-rule:nonzero;stroke:black;stroke-width:1px;"/>
        </g>
        <g transform="matrix(-0.50009,0.865973,0.865973,0.50009,1244.43,1513.06)">
            <path d="M3.429,-5.942C5.312,-4.854 6.839,-2.201 6.838,-0.012C6.838,2.174 5.312,3.066 3.429,1.979C1.547,0.892 0.021,-1.763 0.021,-3.949C0.022,-6.138 1.546,-7.029 3.429,-5.942Z" style="fill:none;fill-rule:nonzero;stroke:black;stroke-width:1px;"/>
        </g>
        <g transform="matrix(-0.499981,0.866036,0.866036,0.499981,1278.53,1544.53)">
            <path d="M3.43,-5.942C5.313,-4.855 6.84,-2.2 6.839,-0.014C6.839,2.175 5.313,3.067 3.43,1.98C1.547,0.893 0.022,-1.761 0.022,-3.949C0.022,-6.137 1.547,-7.029 3.43,-5.942Z" style="fill:none;fill-rule:nonzero;stroke:black;stroke-width:1px;"/>
        </g>
        <g transform="matrix(-0.500036,0.866005,0.866005,0.500036,1264.9,1536.66)">
            <path d="M3.43,-5.94C5.313,-4.853 6.838,-2.199 6.838,-0.011C6.839,2.175 5.312,3.068 3.43,1.981C1.548,0.894 0.021,-1.761 0.02,-3.948C0.021,-6.135 1.548,-7.028 3.43,-5.94Z" style="fill:none;fill-rule:nonzero;stroke:black;stroke-width:1px;"/>
        </g>
        <g transform="matrix(-0.500145,0.865942,0.865942,0.500145,1251.27,1528.79)">
            <path d="M3.429,-5.94C5.312,-4.853 6.838,-2.199 6.838,-0.012C6.837,2.175 5.312,3.067 3.429,1.979C1.547,0.893 0.021,-1.762 0.021,-3.949C0.021,-6.136 1.546,-7.028 3.429,-5.94Z" style="fill:none;fill-rule:nonzero;stroke:black;stroke-width:1px;"/>
        </g>
        <g transform="matrix(-0.500036,0.866005,0.866005,0.500036,1237.61,1520.91)">
            <path d="M3.43,-5.942C5.312,-4.855 6.839,-2.201 6.838,-0.012C6.839,2.174 5.312,3.067 3.43,1.979C1.548,0.893 0.022,-1.762 0.021,-3.948C0.022,-6.137 1.547,-7.029 3.43,-5.942Z" style="fill:none;fill-rule:nonzero;stroke:black;stroke-width:1px;"/>
        </g>
        <g transform="matrix(-0.499941,0.866059,0.866059,0.499941,1285.32,1560.24)">
            <path d="M3.43,-5.94C5.313,-4.854 6.838,-2.199 6.838,-0.011C6.839,2.175 5.313,3.067 3.43,1.98C1.547,0.894 0.021,-1.761 0.02,-3.947C0.021,-6.135 1.547,-7.027 3.43,-5.94Z" style="fill:none;fill-rule:nonzero;stroke:black;stroke-width:1px;"/>
        </g>
        <g transform="matrix(-0.500036,0.866005,0.866005,0.500036,1271.69,1552.37)">
            <path d="M3.43,-5.94C5.313,-4.853 6.84,-2.199 6.839,-0.011C6.839,2.175 5.313,3.068 3.43,1.981C1.549,0.894 0.021,-1.761 0.021,-3.948C0.022,-6.136 1.548,-7.028 3.43,-5.94Z" style="fill:none;fill-rule:nonzero;stroke:black;stroke-width:1px;"/>
        </g>
        <g transform="matrix(-0.500036,0.866005,0.866005,0.500036,1258.06,1544.5)">
            <path d="M3.43,-5.942C5.312,-4.855 6.839,-2.2 6.838,-0.012C6.839,2.174 5.312,3.067 3.43,1.979C1.547,0.892 0.022,-1.762 0.021,-3.948C0.021,-6.136 1.547,-7.029 3.43,-5.942Z" style="fill:none;fill-rule:nonzero;stroke:black;stroke-width:1px;"/>
        </g>
        <g transform="matrix(-0.499996,0.866028,0.866028,0.499996,1244.43,1536.63)">
            <path d="M3.429,-5.94C5.312,-4.853 6.838,-2.201 6.838,-0.012C6.839,2.175 5.312,3.067 3.43,1.98C1.548,0.894 0.021,-1.762 0.02,-3.948C0.021,-6.137 1.547,-7.027 3.429,-5.94Z" style="fill:none;fill-rule:nonzero;stroke:black;stroke-width:1px;"/>
        </g>
        <g transform="matrix(-0.500036,0.866005,0.866005,0.500036,1292.16,1575.97)">
            <path d="M3.43,-5.942C5.312,-4.855 6.84,-2.2 6.838,-0.012C6.839,2.174 5.312,3.067 3.43,1.979C1.547,0.892 0.022,-1.762 0.021,-3.948C0.022,-6.137 1.547,-7.029 3.43,-5.942Z" style="fill:none;fill-rule:nonzero;stroke:black;stroke-width:1px;"/>
        </g>
        <g transform="matrix(-0.499981,0.866036,0.866036,0.499981,1278.53,1568.1)">
            <path d="M3.431,-5.941C5.314,-4.854 6.84,-2.199 6.839,-0.013C6.839,2.176 5.313,3.068 3.431,1.981C1.549,0.895 0.022,-1.76 0.022,-3.948C0.022,-6.136 1.548,-7.028 3.431,-5.941Z" style="fill:none;fill-rule:nonzero;stroke:black;stroke-width:1px;"/>
        </g>
        <g transform="matrix(-0.500036,0.866005,0.866005,0.500036,1264.9,1560.23)">
            <path d="M3.43,-5.941C5.313,-4.854 6.838,-2.2 6.838,-0.012C6.839,2.175 5.313,3.067 3.43,1.98C1.547,0.893 0.022,-1.761 0.021,-3.948C0.021,-6.136 1.547,-7.028 3.43,-5.941Z" style="fill:none;fill-rule:nonzero;stroke:black;stroke-width:1px;"/>
        </g>
        <g transform="matrix(-0.50005,0.865996,0.865996,0.50005,1251.27,1552.36)">
            <path d="M3.429,-5.94C5.312,-4.852 6.837,-2.199 6.838,-0.012C6.838,2.175 5.312,3.067 3.429,1.98C1.546,0.892 0.02,-1.761 0.02,-3.949C0.02,-6.135 1.546,-7.027 3.429,-5.94Z" style="fill:none;fill-rule:nonzero;stroke:black;stroke-width:1px;"/>
        </g>
        <g transform="matrix(-0.499941,0.866059,0.866059,0.499941,1237.61,1544.47)">
            <path d="M3.43,-5.94C5.313,-4.854 6.839,-2.2 6.838,-0.011C6.839,2.175 5.313,3.067 3.43,1.98C1.547,0.894 0.021,-1.761 0.02,-3.947C0.021,-6.136 1.547,-7.027 3.43,-5.94Z" style="fill:none;fill-rule:nonzero;stroke:black;stroke-width:1px;"/>
        </g>
        <g transform="matrix(-0.500036,0.866005,0.866005,0.500036,1285.32,1583.8)">
            <path d="M3.43,-5.94C5.313,-4.853 6.838,-2.199 6.838,-0.011C6.839,2.175 5.313,3.068 3.43,1.981C1.548,0.894 0.021,-1.761 0.02,-3.948C0.021,-6.135 1.548,-7.028 3.43,-5.94Z" style="fill:none;fill-rule:nonzero;stroke:black;stroke-width:1px;"/>
        </g>
        <g transform="matrix(-0.500036,0.866005,0.866005,0.500036,1271.69,1575.93)">
            <path d="M3.43,-5.942C5.312,-4.855 6.84,-2.2 6.839,-0.013C6.839,2.174 5.312,3.067 3.43,1.979C1.548,0.893 0.022,-1.762 0.021,-3.949C0.022,-6.137 1.547,-7.029 3.43,-5.942Z" style="fill:none;fill-rule:nonzero;stroke:black;stroke-width:1px;"/>
        </g>
        <g transform="matrix(-0.499941,0.866059,0.866059,0.499941,1258.06,1568.06)">
            <path d="M3.43,-5.94C5.313,-4.854 6.839,-2.199 6.839,-0.011C6.839,2.175 5.313,3.067 3.43,1.98C1.549,0.895 0.022,-1.761 0.021,-3.947C0.021,-6.135 1.547,-7.027 3.43,-5.94Z" style="fill:none;fill-rule:nonzero;stroke:black;stroke-width:1px;"/>
        </g>
        <g transform="matrix(-0.50009,0.865973,0.865973,0.50009,1244.43,1560.19)">
            <path d="M3.429,-5.941C5.312,-4.854 6.838,-2.201 6.837,-0.012C6.838,2.174 5.312,3.067 3.43,1.98C1.547,0.893 0.022,-1.762 0.02,-3.949C0.022,-6.137 1.547,-7.028 3.429,-5.941Z" style="fill:none;fill-rule:nonzero;stroke:black;stroke-width:1px;"/>
        </g>
        <g transform="matrix(-0.500036,0.866005,0.866005,0.500036,1292.16,1599.53)">
            <path d="M3.43,-5.94C5.313,-4.853 6.839,-2.2 6.838,-0.011C6.839,2.175 5.312,3.068 3.43,1.981C1.548,0.894 0.021,-1.761 0.02,-3.948C0.022,-6.136 1.548,-7.028 3.43,-5.94Z" style="fill:none;fill-rule:nonzero;stroke:black;stroke-width:1px;"/>
        </g>
        <g transform="matrix(-0.499981,0.866036,0.866036,0.499981,1278.53,1591.66)">
            <path d="M3.43,-5.942C5.313,-4.855 6.839,-2.2 6.84,-0.013C6.839,2.175 5.313,3.068 3.43,1.981C1.549,0.894 0.022,-1.76 0.022,-3.949C0.022,-6.136 1.548,-7.029 3.43,-5.942Z" style="fill:none;fill-rule:nonzero;stroke:black;stroke-width:1px;"/>
        </g>
        <g transform="matrix(-0.499941,0.866059,0.866059,0.499941,1264.9,1583.79)">
            <path d="M3.43,-5.94C5.313,-4.854 6.839,-2.199 6.839,-0.011C6.839,2.175 5.313,3.067 3.43,1.98C1.547,0.894 0.022,-1.761 0.021,-3.947C0.021,-6.135 1.547,-7.027 3.43,-5.94Z" style="fill:none;fill-rule:nonzero;stroke:black;stroke-width:1px;"/>
        </g>
        <g transform="matrix(-0.500145,0.865942,0.865942,0.500145,1251.27,1575.92)">
            <path d="M3.429,-5.94C5.312,-4.853 6.837,-2.199 6.837,-0.012C6.837,2.175 5.312,3.067 3.429,1.979C1.546,0.892 0.021,-1.762 0.021,-3.949C0.021,-6.136 1.546,-7.028 3.429,-5.94Z" style="fill:none;fill-rule:nonzero;stroke:black;stroke-width:1px;"/>
        </g>
        <g transform="matrix(-0.500036,0.866005,0.866005,0.500036,1237.61,1568.04)">
            <path d="M3.43,-5.941C5.313,-4.854 6.839,-2.2 6.838,-0.012C6.839,2.175 5.313,3.067 3.43,1.98C1.547,0.893 0.022,-1.761 0.021,-3.948C0.022,-6.137 1.547,-7.028 3.43,-5.941Z" style="fill:none;fill-rule:nonzero;stroke:black;stroke-width:1px;"/>
        </g>
        <g transform="matrix(-0.500036,0.866005,0.866005,0.500036,1285.32,1607.37)">
            <path d="M3.43,-5.942C5.312,-4.855 6.839,-2.2 6.838,-0.012C6.839,2.174 5.312,3.067 3.43,1.979C1.547,0.892 0.022,-1.762 0.021,-3.948C0.021,-6.136 1.547,-7.029 3.43,-5.942Z" style="fill:none;fill-rule:nonzero;stroke:black;stroke-width:1px;"/>
        </g>
        <g transform="matrix(-0.499941,0.866059,0.866059,0.499941,1271.69,1599.5)">
            <path d="M3.43,-5.94C5.313,-4.854 6.839,-2.2 6.839,-0.012C6.839,2.175 5.313,3.067 3.43,1.98C1.547,0.894 0.021,-1.761 0.02,-3.948C0.021,-6.136 1.547,-7.027 3.43,-5.94Z" style="fill:none;fill-rule:nonzero;stroke:black;stroke-width:1px;"/>
        </g>
        <g transform="matrix(-0.500036,0.866005,0.866005,0.500036,1258.06,1591.63)">
            <path d="M3.43,-5.941C5.313,-4.854 6.839,-2.199 6.839,-0.011C6.839,2.175 5.313,3.067 3.43,1.98C1.548,0.894 0.022,-1.761 0.021,-3.948C0.021,-6.136 1.547,-7.028 3.43,-5.941Z" style="fill:none;fill-rule:nonzero;stroke:black;stroke-width:1px;"/>
        </g>
        <g transform="matrix(-0.499996,0.866028,0.866028,0.499996,1244.43,1583.76)">
            <path d="M3.429,-5.94C5.312,-4.853 6.839,-2.2 6.839,-0.011C6.839,2.175 5.312,3.067 3.43,1.98C1.547,0.893 0.022,-1.761 0.021,-3.948C0.021,-6.137 1.547,-7.027 3.429,-5.94Z" style="fill:none;fill-rule:nonzero;stroke:black;stroke-width:1px;"/>
        </g>
        <g transform="matrix(-0.499886,0.866091,0.866091,0.499886,1278.53,1615.23)">
            <path d="M3.43,-5.941C5.313,-4.854 6.839,-2.2 6.84,-0.013C6.84,2.175 5.313,3.068 3.43,1.981C1.548,0.894 0.021,-1.76 0.021,-3.948C0.021,-6.135 1.548,-7.028 3.43,-5.941Z" style="fill:none;fill-rule:nonzero;stroke:black;stroke-width:1px;"/>
        </g>
        <g transform="matrix(-0.500036,0.866005,0.866005,0.500036,1264.9,1607.36)">
            <path d="M3.43,-5.941C5.313,-4.854 6.839,-2.199 6.839,-0.011C6.839,2.175 5.313,3.067 3.43,1.98C1.548,0.894 0.022,-1.761 0.021,-3.948C0.021,-6.136 1.547,-7.028 3.43,-5.941Z" style="fill:none;fill-rule:nonzero;stroke:black;stroke-width:1px;"/>
        </g>
        <g transform="matrix(-0.50005,0.865996,0.865996,0.50005,1251.27,1599.49)">
            <path d="M3.429,-5.94C5.312,-4.852 6.838,-2.199 6.838,-0.011C6.838,2.175 5.312,3.067 3.429,1.98C1.546,0.892 0.021,-1.761 0.02,-3.949C0.02,-6.135 1.546,-7.027 3.429,-5.94Z" style="fill:none;fill-rule:nonzero;stroke:black;stroke-width:1px;"/>
        </g>
        <g transform="matrix(-0.499941,0.866059,0.866059,0.499941,1237.61,1591.6)">
            <path d="M3.43,-5.94C5.313,-4.854 6.84,-2.2 6.839,-0.011C6.839,2.175 5.313,3.067 3.43,1.98C1.547,0.894 0.021,-1.761 0.021,-3.947C0.021,-6.136 1.547,-7.027 3.43,-5.94Z" style="fill:none;fill-rule:nonzero;stroke:black;stroke-width:1px;"/>
        </g>
        <g transform="matrix(-0.500036,0.866005,0.866005,0.500036,1230.78,1505.18)">
            <path d="M3.43,-5.942C5.312,-4.855 6.84,-2.2 6.838,-0.012C6.839,2.174 5.312,3.067 3.43,1.979C1.548,0.893 0.022,-1.762 0.021,-3.948C0.022,-6.137 1.547,-7.029 3.43,-5.942Z" style="fill:none;fill-rule:nonzero;stroke:black;stroke-width:1px;"/>
        </g>
        <g transform="matrix(-0.50009,0.865973,0.865973,0.50009,1217.14,1497.31)">
            <path d="M3.43,-5.94C5.313,-4.853 6.838,-2.198 6.839,-0.011C6.838,2.176 5.312,3.067 3.43,1.981C1.548,0.894 0.021,-1.761 0.021,-3.948C0.021,-6.135 1.547,-7.027 3.43,-5.94Z" style="fill:none;fill-rule:nonzero;stroke:black;stroke-width:1px;"/>
        </g>
        <g transform="matrix(-0.500036,0.866005,0.866005,0.500036,1203.51,1489.44)">
            <path d="M3.43,-5.942C5.312,-4.855 6.838,-2.2 6.839,-0.013C6.839,2.174 5.313,3.067 3.43,1.979C1.548,0.893 0.022,-1.762 0.021,-3.949C0.021,-6.136 1.548,-7.029 3.43,-5.942Z" style="fill:none;fill-rule:nonzero;stroke:black;stroke-width:1px;"/>
        </g>
        <g transform="matrix(-0.499886,0.866091,0.866091,0.499886,1189.88,1481.57)">
            <path d="M3.43,-5.941C5.313,-4.854 6.84,-2.2 6.839,-0.011C6.84,2.175 5.313,3.068 3.43,1.981C1.548,0.894 0.021,-1.76 0.02,-3.947C0.021,-6.135 1.548,-7.028 3.43,-5.941Z" style="fill:none;fill-rule:nonzero;stroke:black;stroke-width:1px;"/>
        </g>
        <g transform="matrix(-0.500036,0.866005,0.866005,0.500036,1237.61,1520.91)">
            <path d="M3.43,-5.942C5.312,-4.855 6.839,-2.201 6.838,-0.012C6.839,2.174 5.312,3.067 3.43,1.979C1.548,0.893 0.022,-1.762 0.021,-3.948C0.022,-6.137 1.547,-7.029 3.43,-5.942Z" style="fill:none;fill-rule:nonzero;stroke:black;stroke-width:1px;"/>
        </g>
        <g transform="matrix(-0.499996,0.866028,0.866028,0.499996,1223.98,1513.04)">
            <path d="M3.429,-5.94C5.312,-4.853 6.838,-2.198 6.839,-0.011C6.838,2.177 5.312,3.067 3.43,1.98C1.547,0.893 0.021,-1.759 0.021,-3.948C0.02,-6.135 1.547,-7.027 3.429,-5.94Z" style="fill:none;fill-rule:nonzero;stroke:black;stroke-width:1px;"/>
        </g>
        <g transform="matrix(-0.500036,0.866005,0.866005,0.500036,1210.35,1505.17)">
            <path d="M3.43,-5.941C5.313,-4.854 6.839,-2.2 6.838,-0.013C6.839,2.175 5.313,3.067 3.43,1.98C1.547,0.893 0.022,-1.761 0.022,-3.948C0.022,-6.137 1.547,-7.028 3.43,-5.941Z" style="fill:none;fill-rule:nonzero;stroke:black;stroke-width:1px;"/>
        </g>
        <g transform="matrix(-0.499941,0.866059,0.866059,0.499941,1196.72,1497.3)">
            <path d="M3.43,-5.94C5.313,-4.854 6.838,-2.199 6.838,-0.011C6.839,2.176 5.313,3.067 3.43,1.98C1.547,0.894 0.02,-1.76 0.02,-3.947C0.021,-6.135 1.547,-7.027 3.43,-5.94Z" style="fill:none;fill-rule:nonzero;stroke:black;stroke-width:1px;"/>
        </g>
        <g transform="matrix(-0.500036,0.866005,0.866005,0.500036,1183.09,1489.43)">
            <path d="M3.43,-5.941C5.313,-4.854 6.839,-2.199 6.839,-0.012C6.839,2.175 5.313,3.067 3.43,1.98C1.548,0.894 0.022,-1.761 0.022,-3.948C0.021,-6.136 1.547,-7.028 3.43,-5.941Z" style="fill:none;fill-rule:nonzero;stroke:black;stroke-width:1px;"/>
        </g>
        <g transform="matrix(-0.500036,0.866005,0.866005,0.500036,1230.77,1528.74)">
            <path d="M3.43,-5.94C5.313,-4.853 6.84,-2.199 6.838,-0.011C6.839,2.175 5.312,3.068 3.43,1.981C1.548,0.894 0.021,-1.761 0.02,-3.948C0.022,-6.136 1.548,-7.028 3.43,-5.94Z" style="fill:none;fill-rule:nonzero;stroke:black;stroke-width:1px;"/>
        </g>
        <g transform="matrix(-0.50009,0.865973,0.865973,0.50009,1217.14,1520.88)">
            <path d="M3.429,-5.941C5.312,-4.854 6.838,-2.199 6.838,-0.011C6.837,2.175 5.312,3.067 3.43,1.98C1.548,0.893 0.021,-1.761 0.021,-3.948C0.021,-6.135 1.547,-7.028 3.429,-5.941Z" style="fill:none;fill-rule:nonzero;stroke:black;stroke-width:1px;"/>
        </g>
        <g transform="matrix(-0.499941,0.866059,0.866059,0.499941,1203.51,1513)">
            <path d="M3.43,-5.94C5.313,-4.854 6.839,-2.199 6.84,-0.012C6.839,2.175 5.313,3.067 3.43,1.98C1.548,0.894 0.022,-1.761 0.021,-3.948C0.021,-6.135 1.547,-7.027 3.43,-5.94Z" style="fill:none;fill-rule:nonzero;stroke:black;stroke-width:1px;"/>
        </g>
        <g transform="matrix(-0.499981,0.866036,0.866036,0.499981,1189.88,1505.14)">
            <path d="M3.43,-5.942C5.313,-4.855 6.839,-2.2 6.839,-0.011C6.839,2.175 5.313,3.068 3.43,1.981C1.548,0.894 0.022,-1.76 0.021,-3.947C0.022,-6.136 1.548,-7.029 3.43,-5.942Z" style="fill:none;fill-rule:nonzero;stroke:black;stroke-width:1px;"/>
        </g>
        <g transform="matrix(-0.499941,0.866059,0.866059,0.499941,1176.25,1497.27)">
            <path d="M3.43,-5.94C5.313,-4.854 6.838,-2.199 6.839,-0.012C6.839,2.176 5.313,3.067 3.43,1.98C1.547,0.894 0.02,-1.76 0.02,-3.948C0.021,-6.135 1.547,-7.027 3.43,-5.94Z" style="fill:none;fill-rule:nonzero;stroke:black;stroke-width:1px;"/>
        </g>
        <g transform="matrix(-0.499941,0.866059,0.866059,0.499941,1237.61,1544.47)">
            <path d="M3.43,-5.94C5.313,-4.854 6.839,-2.2 6.838,-0.011C6.839,2.175 5.313,3.067 3.43,1.98C1.547,0.894 0.021,-1.761 0.02,-3.947C0.021,-6.136 1.547,-7.027 3.43,-5.94Z" style="fill:none;fill-rule:nonzero;stroke:black;stroke-width:1px;"/>
        </g>
        <g transform="matrix(-0.50009,0.865973,0.865973,0.50009,1223.98,1536.61)">
            <path d="M3.429,-5.941C5.312,-4.854 6.838,-2.199 6.838,-0.011C6.837,2.176 5.312,3.067 3.43,1.98C1.548,0.893 0.021,-1.76 0.021,-3.948C0.021,-6.135 1.547,-7.028 3.429,-5.941Z" style="fill:none;fill-rule:nonzero;stroke:black;stroke-width:1px;"/>
        </g>
        <g transform="matrix(-0.499941,0.866059,0.866059,0.499941,1210.35,1528.74)">
            <path d="M3.43,-5.94C5.313,-4.854 6.84,-2.2 6.84,-0.012C6.839,2.175 5.313,3.067 3.43,1.98C1.547,0.894 0.021,-1.761 0.021,-3.948C0.021,-6.136 1.547,-7.027 3.43,-5.94Z" style="fill:none;fill-rule:nonzero;stroke:black;stroke-width:1px;"/>
        </g>
        <g transform="matrix(-0.500036,0.866005,0.866005,0.500036,1196.72,1520.87)">
            <path d="M3.43,-5.941C5.313,-4.854 6.839,-2.199 6.838,-0.012C6.838,2.176 5.313,3.067 3.43,1.98C1.547,0.893 0.022,-1.76 0.021,-3.948C0.021,-6.136 1.547,-7.028 3.43,-5.941Z" style="fill:none;fill-rule:nonzero;stroke:black;stroke-width:1px;"/>
        </g>
        <g transform="matrix(-0.499941,0.866059,0.866059,0.499941,1183.09,1513)">
            <path d="M3.43,-5.94C5.313,-4.854 6.838,-2.199 6.839,-0.012C6.839,2.175 5.313,3.067 3.43,1.98C1.547,0.894 0.021,-1.761 0.02,-3.948C0.021,-6.135 1.547,-7.027 3.43,-5.94Z" style="fill:none;fill-rule:nonzero;stroke:black;stroke-width:1px;"/>
        </g>
        <g transform="matrix(-0.499981,0.866036,0.866036,0.499981,1169.46,1505.13)">
            <path d="M3.43,-5.942C5.313,-4.855 6.839,-2.2 6.839,-0.011C6.839,2.175 5.313,3.068 3.43,1.981C1.549,0.894 0.022,-1.76 0.021,-3.947C0.022,-6.136 1.548,-7.029 3.43,-5.942Z" style="fill:none;fill-rule:nonzero;stroke:black;stroke-width:1px;"/>
        </g>
        <g transform="matrix(-0.500036,0.866005,0.866005,0.500036,1230.78,1552.31)">
            <path d="M3.43,-5.941C5.313,-4.854 6.839,-2.2 6.839,-0.011C6.839,2.175 5.314,3.068 3.43,1.98C1.548,0.894 0.022,-1.761 0.021,-3.948C0.022,-6.137 1.548,-7.028 3.43,-5.941Z" style="fill:none;fill-rule:nonzero;stroke:black;stroke-width:1px;"/>
        </g>
        <g transform="matrix(-0.499996,0.866028,0.866028,0.499996,1217.14,1544.44)">
            <path d="M3.429,-5.94C5.312,-4.853 6.837,-2.199 6.838,-0.012C6.838,2.176 5.312,3.067 3.43,1.98C1.547,0.893 0.02,-1.761 0.02,-3.948C0.02,-6.135 1.547,-7.027 3.429,-5.94Z" style="fill:none;fill-rule:nonzero;stroke:black;stroke-width:1px;"/>
        </g>
        <g transform="matrix(-0.500036,0.866005,0.866005,0.500036,1203.51,1536.57)">
            <path d="M3.43,-5.941C5.313,-4.854 6.839,-2.199 6.839,-0.012C6.839,2.175 5.313,3.067 3.43,1.98C1.547,0.893 0.022,-1.761 0.022,-3.948C0.021,-6.136 1.547,-7.028 3.43,-5.941Z" style="fill:none;fill-rule:nonzero;stroke:black;stroke-width:1px;"/>
        </g>
        <g transform="matrix(-0.499886,0.866091,0.866091,0.499886,1189.88,1528.7)">
            <path d="M3.43,-5.941C5.313,-4.854 6.84,-2.2 6.839,-0.011C6.84,2.175 5.313,3.068 3.43,1.981C1.548,0.894 0.022,-1.76 0.021,-3.946C0.021,-6.135 1.548,-7.028 3.43,-5.941Z" style="fill:none;fill-rule:nonzero;stroke:black;stroke-width:1px;"/>
        </g>
        <g transform="matrix(-0.500036,0.866005,0.866005,0.500036,1176.25,1520.83)">
            <path d="M3.43,-5.941C5.313,-4.854 6.839,-2.199 6.839,-0.012C6.838,2.176 5.313,3.067 3.43,1.98C1.547,0.893 0.022,-1.76 0.022,-3.948C0.021,-6.136 1.547,-7.028 3.43,-5.941Z" style="fill:none;fill-rule:nonzero;stroke:black;stroke-width:1px;"/>
        </g>
        <g transform="matrix(-0.500036,0.866005,0.866005,0.500036,1237.61,1568.04)">
            <path d="M3.43,-5.941C5.313,-4.854 6.839,-2.2 6.838,-0.012C6.839,2.175 5.313,3.067 3.43,1.98C1.547,0.893 0.022,-1.761 0.021,-3.948C0.022,-6.137 1.547,-7.028 3.43,-5.941Z" style="fill:none;fill-rule:nonzero;stroke:black;stroke-width:1px;"/>
        </g>
        <g transform="matrix(-0.499996,0.866028,0.866028,0.499996,1223.98,1560.17)">
            <path d="M3.429,-5.94C5.312,-4.853 6.837,-2.199 6.838,-0.012C6.838,2.177 5.312,3.067 3.43,1.98C1.547,0.893 0.02,-1.76 0.02,-3.948C0.02,-6.135 1.547,-7.027 3.429,-5.94Z" style="fill:none;fill-rule:nonzero;stroke:black;stroke-width:1px;"/>
        </g>
        <g transform="matrix(-0.500036,0.866005,0.866005,0.500036,1210.35,1552.3)">
            <path d="M3.43,-5.941C5.313,-4.854 6.839,-2.2 6.839,-0.012C6.839,2.175 5.313,3.067 3.43,1.98C1.548,0.894 0.022,-1.761 0.022,-3.948C0.022,-6.137 1.547,-7.028 3.43,-5.941Z" style="fill:none;fill-rule:nonzero;stroke:black;stroke-width:1px;"/>
        </g>
        <g transform="matrix(-0.499941,0.866059,0.866059,0.499941,1196.72,1544.43)">
            <path d="M3.43,-5.94C5.313,-4.854 6.839,-2.199 6.839,-0.011C6.839,2.176 5.313,3.067 3.43,1.98C1.547,0.894 0.021,-1.76 0.021,-3.947C0.021,-6.135 1.547,-7.027 3.43,-5.94Z" style="fill:none;fill-rule:nonzero;stroke:black;stroke-width:1px;"/>
        </g>
        <g transform="matrix(-0.500036,0.866005,0.866005,0.500036,1183.09,1536.56)">
            <path d="M3.43,-5.941C5.313,-4.854 6.838,-2.2 6.838,-0.013C6.839,2.175 5.313,3.067 3.43,1.98C1.547,0.893 0.022,-1.761 0.021,-3.949C0.021,-6.136 1.547,-7.028 3.43,-5.941Z" style="fill:none;fill-rule:nonzero;stroke:black;stroke-width:1px;"/>
        </g>
        <g transform="matrix(-0.499981,0.866036,0.866036,0.499981,1169.46,1528.69)">
            <path d="M3.43,-5.942C5.313,-4.855 6.84,-2.2 6.838,-0.012C6.839,2.175 5.313,3.067 3.43,1.98C1.548,0.893 0.022,-1.761 0.021,-3.948C0.022,-6.137 1.547,-7.029 3.43,-5.942Z" style="fill:none;fill-rule:nonzero;stroke:black;stroke-width:1px;"/>
        </g>
        <g transform="matrix(-0.499941,0.866059,0.866059,0.499941,1230.77,1575.87)">
            <path d="M3.43,-5.94C5.313,-4.854 6.84,-2.2 6.839,-0.011C6.839,2.175 5.313,3.067 3.43,1.98C1.547,0.894 0.022,-1.761 0.021,-3.947C0.021,-6.136 1.547,-7.027 3.43,-5.94Z" style="fill:none;fill-rule:nonzero;stroke:black;stroke-width:1px;"/>
        </g>
        <g transform="matrix(-0.50009,0.865973,0.865973,0.50009,1217.14,1568.01)">
            <path d="M3.429,-5.941C5.312,-4.854 6.838,-2.199 6.838,-0.011C6.837,2.175 5.312,3.067 3.43,1.98C1.547,0.893 0.021,-1.761 0.021,-3.948C0.021,-6.135 1.547,-7.028 3.429,-5.941Z" style="fill:none;fill-rule:nonzero;stroke:black;stroke-width:1px;"/>
        </g>
        <g transform="matrix(-0.499941,0.866059,0.866059,0.499941,1203.51,1560.13)">
            <path d="M3.43,-5.94C5.313,-4.854 6.838,-2.199 6.839,-0.012C6.839,2.175 5.313,3.067 3.43,1.98C1.547,0.894 0.021,-1.761 0.02,-3.948C0.021,-6.135 1.547,-7.027 3.43,-5.94Z" style="fill:none;fill-rule:nonzero;stroke:black;stroke-width:1px;"/>
        </g>
        <g transform="matrix(-0.499981,0.866036,0.866036,0.499981,1189.88,1552.26)">
            <path d="M3.43,-5.942C5.313,-4.855 6.839,-2.2 6.839,-0.011C6.839,2.175 5.313,3.068 3.43,1.981C1.549,0.894 0.022,-1.76 0.021,-3.947C0.022,-6.136 1.548,-7.029 3.43,-5.942Z" style="fill:none;fill-rule:nonzero;stroke:black;stroke-width:1px;"/>
        </g>
        <g transform="matrix(-0.499941,0.866059,0.866059,0.499941,1176.25,1544.4)">
            <path d="M3.43,-5.94C5.313,-4.854 6.839,-2.199 6.84,-0.012C6.839,2.176 5.313,3.067 3.43,1.98C1.547,0.894 0.021,-1.76 0.021,-3.948C0.021,-6.135 1.547,-7.027 3.43,-5.94Z" style="fill:none;fill-rule:nonzero;stroke:black;stroke-width:1px;"/>
        </g>
        <g transform="matrix(-0.499941,0.866059,0.866059,0.499941,1237.61,1591.6)">
            <path d="M3.43,-5.94C5.313,-4.854 6.84,-2.2 6.839,-0.011C6.839,2.175 5.313,3.067 3.43,1.98C1.547,0.894 0.021,-1.761 0.021,-3.947C0.021,-6.136 1.547,-7.027 3.43,-5.94Z" style="fill:none;fill-rule:nonzero;stroke:black;stroke-width:1px;"/>
        </g>
        <g transform="matrix(-0.50009,0.865973,0.865973,0.50009,1223.98,1583.74)">
            <path d="M3.429,-5.941C5.312,-4.854 6.837,-2.199 6.837,-0.012C6.837,2.176 5.312,3.067 3.43,1.98C1.547,0.893 0.021,-1.76 0.021,-3.948C0.021,-6.135 1.547,-7.028 3.429,-5.941Z" style="fill:none;fill-rule:nonzero;stroke:black;stroke-width:1px;"/>
        </g>
        <g transform="matrix(-0.499941,0.866059,0.866059,0.499941,1210.35,1575.87)">
            <path d="M3.43,-5.94C5.313,-4.854 6.839,-2.2 6.839,-0.012C6.839,2.175 5.313,3.067 3.43,1.98C1.547,0.894 0.021,-1.761 0.02,-3.948C0.021,-6.136 1.547,-7.027 3.43,-5.94Z" style="fill:none;fill-rule:nonzero;stroke:black;stroke-width:1px;"/>
        </g>
        <g transform="matrix(-0.500036,0.866005,0.866005,0.500036,1196.72,1568)">
            <path d="M3.43,-5.941C5.313,-4.854 6.839,-2.199 6.838,-0.012C6.838,2.176 5.313,3.067 3.43,1.98C1.548,0.894 0.022,-1.76 0.021,-3.948C0.021,-6.136 1.547,-7.028 3.43,-5.941Z" style="fill:none;fill-rule:nonzero;stroke:black;stroke-width:1px;"/>
        </g>
        <g transform="matrix(-0.500036,0.866005,0.866005,0.500036,1183.09,1560.13)">
            <path d="M3.43,-5.942C5.312,-4.855 6.839,-2.2 6.839,-0.013C6.839,2.174 5.312,3.067 3.43,1.979C1.547,0.892 0.022,-1.762 0.021,-3.949C0.021,-6.136 1.547,-7.029 3.43,-5.942Z" style="fill:none;fill-rule:nonzero;stroke:black;stroke-width:1px;"/>
        </g>
        <g transform="matrix(-0.500036,0.866005,0.866005,0.500036,1271.69,1623.6)">
            <path d="M3.43,-5.94C5.313,-4.853 6.839,-2.2 6.839,-0.012C6.839,2.175 5.312,3.068 3.43,1.981C1.548,0.894 0.021,-1.761 0.021,-3.949C0.022,-6.136 1.548,-7.028 3.43,-5.94Z" style="fill:none;fill-rule:nonzero;stroke:black;stroke-width:1px;"/>
        </g>
        <g transform="matrix(-0.500036,0.866005,0.866005,0.500036,1258.06,1615.73)">
            <path d="M3.43,-5.941C5.313,-4.854 6.839,-2.199 6.839,-0.011C6.839,2.175 5.313,3.067 3.43,1.98C1.548,0.894 0.022,-1.761 0.021,-3.948C0.021,-6.136 1.547,-7.028 3.43,-5.941Z" style="fill:none;fill-rule:nonzero;stroke:black;stroke-width:1px;"/>
        </g>
        <g transform="matrix(-0.499996,0.866028,0.866028,0.499996,1244.43,1607.86)">
            <path d="M3.429,-5.94C5.312,-4.853 6.839,-2.2 6.839,-0.011C6.839,2.175 5.312,3.067 3.43,1.98C1.547,0.893 0.021,-1.762 0.021,-3.948C0.021,-6.137 1.547,-7.027 3.429,-5.94Z" style="fill:none;fill-rule:nonzero;stroke:black;stroke-width:1px;"/>
        </g>
        <g transform="matrix(-0.500036,0.866005,0.866005,0.500036,1264.9,1631.46)">
            <path d="M3.43,-5.941C5.313,-4.854 6.839,-2.199 6.839,-0.011C6.839,2.175 5.313,3.067 3.43,1.98C1.547,0.893 0.022,-1.761 0.021,-3.948C0.021,-6.136 1.547,-7.028 3.43,-5.941Z" style="fill:none;fill-rule:nonzero;stroke:black;stroke-width:1px;"/>
        </g>
        <g transform="matrix(-0.50005,0.865996,0.865996,0.50005,1251.27,1623.59)">
            <path d="M3.429,-5.94C5.312,-4.852 6.838,-2.199 6.838,-0.012C6.838,2.175 5.312,3.067 3.429,1.98C1.546,0.892 0.021,-1.761 0.02,-3.948C0.02,-6.135 1.546,-7.027 3.429,-5.94Z" style="fill:none;fill-rule:nonzero;stroke:black;stroke-width:1px;"/>
        </g>
        <g transform="matrix(-0.499941,0.866059,0.866059,0.499941,1237.61,1615.71)">
            <path d="M3.43,-5.94C5.313,-4.854 6.839,-2.2 6.839,-0.011C6.839,2.175 5.313,3.067 3.43,1.98C1.547,0.894 0.022,-1.761 0.021,-3.947C0.021,-6.136 1.547,-7.027 3.43,-5.94Z" style="fill:none;fill-rule:nonzero;stroke:black;stroke-width:1px;"/>
        </g>
        <g transform="matrix(-0.50009,0.865973,0.865973,0.50009,1244.43,1631.42)">
            <path d="M3.429,-5.941C5.312,-4.854 6.839,-2.2 6.838,-0.011C6.838,2.174 5.312,3.067 3.43,1.98C1.548,0.893 0.022,-1.762 0.021,-3.948C0.022,-6.137 1.547,-7.028 3.429,-5.941Z" style="fill:none;fill-rule:nonzero;stroke:black;stroke-width:1px;"/>
        </g>
        <g transform="matrix(-0.499941,0.866059,0.866059,0.499941,1230.77,1599.97)">
            <path d="M3.43,-5.94C5.313,-4.854 6.84,-2.2 6.839,-0.011C6.839,2.175 5.313,3.067 3.43,1.98C1.547,0.894 0.022,-1.761 0.02,-3.947C0.021,-6.136 1.547,-7.027 3.43,-5.94Z" style="fill:none;fill-rule:nonzero;stroke:black;stroke-width:1px;"/>
        </g>
        <g transform="matrix(-0.50009,0.865973,0.865973,0.50009,1217.14,1592.11)">
            <path d="M3.429,-5.941C5.311,-4.854 6.838,-2.199 6.838,-0.011C6.837,2.175 5.312,3.067 3.43,1.98C1.547,0.893 0.021,-1.761 0.021,-3.948C0.021,-6.135 1.547,-7.028 3.429,-5.941Z" style="fill:none;fill-rule:nonzero;stroke:black;stroke-width:1px;"/>
        </g>
        <g transform="matrix(-0.499941,0.866059,0.866059,0.499941,1203.51,1584.24)">
            <path d="M3.43,-5.94C5.313,-4.854 6.838,-2.199 6.839,-0.012C6.839,2.175 5.313,3.067 3.43,1.98C1.547,0.894 0.021,-1.761 0.02,-3.948C0.021,-6.135 1.547,-7.027 3.43,-5.94Z" style="fill:none;fill-rule:nonzero;stroke:black;stroke-width:1px;"/>
        </g>
        <g transform="matrix(-0.499981,0.866036,0.866036,0.499981,1189.88,1576.37)">
            <path d="M3.43,-5.942C5.313,-4.855 6.839,-2.2 6.839,-0.011C6.839,2.175 5.313,3.068 3.43,1.981C1.549,0.894 0.022,-1.76 0.021,-3.947C0.022,-6.136 1.548,-7.029 3.43,-5.942Z" style="fill:none;fill-rule:nonzero;stroke:black;stroke-width:1px;"/>
        </g>
        <g transform="matrix(-0.499941,0.866059,0.866059,0.499941,1237.61,1615.71)">
            <path d="M3.43,-5.94C5.313,-4.854 6.839,-2.2 6.839,-0.011C6.839,2.175 5.313,3.067 3.43,1.98C1.547,0.894 0.022,-1.761 0.021,-3.947C0.021,-6.136 1.547,-7.027 3.43,-5.94Z" style="fill:none;fill-rule:nonzero;stroke:black;stroke-width:1px;"/>
        </g>
        <g transform="matrix(-0.50009,0.865973,0.865973,0.50009,1223.98,1607.84)">
            <path d="M3.429,-5.941C5.312,-4.854 6.838,-2.199 6.837,-0.012C6.837,2.176 5.312,3.067 3.43,1.98C1.547,0.893 0.021,-1.76 0.021,-3.948C0.021,-6.135 1.547,-7.028 3.429,-5.941Z" style="fill:none;fill-rule:nonzero;stroke:black;stroke-width:1px;"/>
        </g>
        <g transform="matrix(-0.499941,0.866059,0.866059,0.499941,1210.35,1599.97)">
            <path d="M3.43,-5.94C5.313,-4.854 6.839,-2.2 6.839,-0.012C6.839,2.175 5.313,3.067 3.43,1.98C1.547,0.894 0.021,-1.761 0.02,-3.948C0.021,-6.136 1.547,-7.027 3.43,-5.94Z" style="fill:none;fill-rule:nonzero;stroke:black;stroke-width:1px;"/>
        </g>
        <g transform="matrix(-0.500036,0.866005,0.866005,0.500036,1196.72,1592.1)">
            <path d="M3.43,-5.941C5.313,-4.854 6.839,-2.199 6.839,-0.011C6.838,2.176 5.313,3.067 3.43,1.98C1.548,0.894 0.022,-1.76 0.021,-3.948C0.021,-6.136 1.547,-7.028 3.43,-5.941Z" style="fill:none;fill-rule:nonzero;stroke:black;stroke-width:1px;"/>
        </g>
        <g transform="matrix(-0.500036,0.866005,0.866005,0.500036,1230.78,1623.54)">
            <path d="M3.43,-5.941C5.313,-4.854 6.839,-2.2 6.839,-0.011C6.839,2.175 5.313,3.067 3.43,1.98C1.548,0.894 0.022,-1.761 0.021,-3.948C0.022,-6.137 1.547,-7.028 3.43,-5.941Z" style="fill:none;fill-rule:nonzero;stroke:black;stroke-width:1px;"/>
        </g>
        <g transform="matrix(-0.499996,0.866028,0.866028,0.499996,1217.14,1615.67)">
            <path d="M3.429,-5.94C5.312,-4.853 6.838,-2.198 6.839,-0.011C6.838,2.176 5.312,3.067 3.43,1.98C1.547,0.893 0.021,-1.76 0.021,-3.948C0.02,-6.135 1.547,-7.027 3.429,-5.94Z" style="fill:none;fill-rule:nonzero;stroke:black;stroke-width:1px;"/>
        </g>
        <g transform="matrix(-0.499905,0.86608,0.86608,0.499905,1268.45,1819.64)">
            <path d="M2.943,-5.099C4.558,-4.167 5.868,-1.889 5.869,-0.012C5.869,1.865 4.56,2.631 2.943,1.698C1.327,0.766 0.019,-1.512 0.018,-3.389C0.018,-5.265 1.328,-6.031 2.943,-5.099Z" style="fill:none;fill-rule:nonzero;stroke:black;stroke-width:1px;"/>
        </g>
        <g transform="matrix(-0.499952,0.866053,0.866053,0.499952,1256.76,1812.88)">
            <path d="M2.944,-5.099C4.559,-4.166 5.87,-1.888 5.869,-0.011C5.87,1.866 4.56,2.633 2.944,1.7C1.328,0.767 0.02,-1.511 0.018,-3.389C0.019,-5.266 1.328,-6.032 2.944,-5.099Z" style="fill:none;fill-rule:nonzero;stroke:black;stroke-width:1px;"/>
        </g>
        <g transform="matrix(-0.500015,0.866017,0.866017,0.500015,1245.06,1806.13)">
            <path d="M2.944,-5.098C4.559,-4.165 5.868,-1.887 5.868,-0.011C5.869,1.866 4.559,2.633 2.944,1.7C1.328,0.767 0.019,-1.512 0.018,-3.388C0.019,-5.265 1.329,-6.03 2.944,-5.098Z" style="fill:none;fill-rule:nonzero;stroke:black;stroke-width:1px;"/>
        </g>
        <g transform="matrix(-0.499905,0.86608,0.86608,0.499905,1233.36,1799.38)">
            <path d="M2.943,-5.098C4.558,-4.166 5.87,-1.889 5.869,-0.011C5.869,1.866 4.56,2.632 2.943,1.7C1.327,0.767 0.019,-1.511 0.018,-3.388C0.019,-5.266 1.328,-6.03 2.943,-5.098Z" style="fill:none;fill-rule:nonzero;stroke:black;stroke-width:1px;"/>
        </g>
        <g transform="matrix(-0.499905,0.86608,0.86608,0.499905,1221.65,1792.61)">
            <path d="M2.943,-5.099C4.558,-4.167 5.869,-1.89 5.869,-0.012C5.869,1.865 4.56,2.631 2.943,1.698C1.327,0.766 0.019,-1.512 0.018,-3.389C0.019,-5.267 1.327,-6.031 2.943,-5.099Z" style="fill:none;fill-rule:nonzero;stroke:black;stroke-width:1px;"/>
        </g>
        <g transform="matrix(-0.499905,0.86608,0.86608,0.499905,1221.65,1792.61)">
            <path d="M2.943,-5.099C4.558,-4.167 5.869,-1.89 5.869,-0.012C5.869,1.865 4.56,2.631 2.943,1.698C1.327,0.766 0.019,-1.512 0.018,-3.389C0.019,-5.267 1.327,-6.031 2.943,-5.099Z" style="fill:none;fill-rule:nonzero;stroke:black;stroke-width:1px;"/>
        </g>
        <g transform="matrix(-0.499905,0.86608,0.86608,0.499905,1209.95,1785.86)">
            <path d="M2.943,-5.098C4.558,-4.166 5.869,-1.889 5.868,-0.012C5.87,1.865 4.56,2.632 2.943,1.699C1.328,0.767 0.019,-1.512 0.018,-3.389C0.018,-5.266 1.327,-6.031 2.943,-5.098Z" style="fill:none;fill-rule:nonzero;stroke:black;stroke-width:1px;"/>
        </g>
        <g transform="matrix(-0.499905,0.86608,0.86608,0.499905,1198.25,1779.11)">
            <path d="M2.943,-5.098C4.559,-4.165 5.869,-1.888 5.869,-0.011C5.869,1.866 4.56,2.632 2.943,1.7C1.328,0.767 0.019,-1.51 0.018,-3.388C0.019,-5.265 1.327,-6.03 2.943,-5.098Z" style="fill:none;fill-rule:nonzero;stroke:black;stroke-width:1px;"/>
        </g>
        <g transform="matrix(-0.499905,0.86608,0.86608,0.499905,1186.56,1772.36)">
            <path d="M2.943,-5.099C4.558,-4.167 5.868,-1.889 5.869,-0.012C5.868,1.866 4.56,2.631 2.943,1.698C1.327,0.766 0.018,-1.511 0.018,-3.389C0.018,-5.265 1.328,-6.031 2.943,-5.099Z" style="fill:none;fill-rule:nonzero;stroke:black;stroke-width:1px;"/>
        </g>
        <g transform="matrix(-0.500015,0.866017,0.866017,0.500015,1174.86,1765.6)">
            <path d="M2.943,-5.098C4.559,-4.166 5.868,-1.888 5.869,-0.011C5.869,1.866 4.559,2.632 2.943,1.699C1.328,0.766 0.019,-1.512 0.018,-3.389C0.018,-5.266 1.328,-6.031 2.943,-5.098Z" style="fill:none;fill-rule:nonzero;stroke:black;stroke-width:1px;"/>
        </g>
        <g transform="matrix(-0.499952,0.866053,0.866053,0.499952,1163.16,1758.85)">
            <path d="M2.944,-5.098C4.56,-4.166 5.869,-1.888 5.869,-0.012C5.869,1.866 4.56,2.633 2.944,1.701C1.328,0.768 0.019,-1.511 0.019,-3.389C0.019,-5.265 1.329,-6.03 2.944,-5.098Z" style="fill:none;fill-rule:nonzero;stroke:black;stroke-width:1px;"/>
        </g>
        <g transform="matrix(-0.500015,0.866017,0.866017,0.500015,1268.45,1807.06)">
            <path d="M2.944,-5.098C4.559,-4.165 5.868,-1.887 5.868,-0.011C5.869,1.866 4.559,2.633 2.944,1.7C1.328,0.767 0.019,-1.512 0.018,-3.388C0.019,-5.265 1.329,-6.03 2.944,-5.098Z" style="fill:none;fill-rule:nonzero;stroke:black;stroke-width:1px;"/>
        </g>
        <g transform="matrix(-0.499841,0.866117,0.866117,0.499841,1256.76,1800.31)">
            <path d="M2.943,-5.1C4.558,-4.167 5.869,-1.889 5.869,-0.012C5.87,1.865 4.56,2.632 2.943,1.699C1.328,0.766 0.019,-1.512 0.018,-3.388C0.019,-5.266 1.329,-6.031 2.943,-5.1Z" style="fill:none;fill-rule:nonzero;stroke:black;stroke-width:1px;"/>
        </g>
        <g transform="matrix(-0.500015,0.866017,0.866017,0.500015,1245.06,1793.56)">
            <path d="M2.943,-5.098C4.559,-4.166 5.868,-1.888 5.869,-0.011C5.869,1.866 4.559,2.632 2.943,1.699C1.328,0.766 0.019,-1.512 0.018,-3.389C0.018,-5.266 1.328,-6.031 2.943,-5.098Z" style="fill:none;fill-rule:nonzero;stroke:black;stroke-width:1px;"/>
        </g>
        <g transform="matrix(-0.500015,0.866017,0.866017,0.500015,1233.36,1786.8)">
            <path d="M2.944,-5.098C4.559,-4.165 5.869,-1.889 5.868,-0.011C5.869,1.866 4.559,2.633 2.944,1.7C1.328,0.767 0.019,-1.512 0.018,-3.388C0.02,-5.267 1.329,-6.03 2.944,-5.098Z" style="fill:none;fill-rule:nonzero;stroke:black;stroke-width:1px;"/>
        </g>
        <g transform="matrix(-0.499795,0.866144,0.866144,0.499795,1221.65,1780.04)">
            <path d="M2.943,-5.098C4.558,-4.166 5.869,-1.89 5.869,-0.012C5.87,1.865 4.559,2.632 2.943,1.699C1.329,0.768 0.019,-1.511 0.018,-3.388C0.019,-5.266 1.327,-6.03 2.943,-5.098Z" style="fill:none;fill-rule:nonzero;stroke:black;stroke-width:1px;"/>
        </g>
        <g transform="matrix(-0.499795,0.866144,0.866144,0.499795,1221.65,1780.04)">
            <path d="M2.943,-5.098C4.558,-4.166 5.869,-1.89 5.869,-0.012C5.87,1.865 4.559,2.632 2.943,1.699C1.329,0.768 0.019,-1.511 0.018,-3.388C0.019,-5.266 1.327,-6.03 2.943,-5.098Z" style="fill:none;fill-rule:nonzero;stroke:black;stroke-width:1px;"/>
        </g>
        <g transform="matrix(-0.499905,0.86608,0.86608,0.499905,1209.95,1773.29)">
            <path d="M2.943,-5.099C4.558,-4.167 5.869,-1.889 5.869,-0.012C5.869,1.865 4.56,2.631 2.943,1.698C1.327,0.766 0.019,-1.512 0.018,-3.389C0.019,-5.266 1.327,-6.031 2.943,-5.099Z" style="fill:none;fill-rule:nonzero;stroke:black;stroke-width:1px;"/>
        </g>
        <g transform="matrix(-0.499905,0.86608,0.86608,0.499905,1198.25,1766.53)">
            <path d="M2.943,-5.098C4.558,-4.166 5.869,-1.889 5.868,-0.012C5.869,1.866 4.56,2.632 2.943,1.699C1.328,0.767 0.018,-1.511 0.018,-3.389C0.018,-5.266 1.327,-6.031 2.943,-5.098Z" style="fill:none;fill-rule:nonzero;stroke:black;stroke-width:1px;"/>
        </g>
        <g transform="matrix(-0.499905,0.86608,0.86608,0.499905,1186.56,1759.78)">
            <path d="M2.943,-5.098C4.559,-4.165 5.868,-1.888 5.869,-0.011C5.868,1.867 4.56,2.632 2.943,1.7C1.328,0.767 0.018,-1.51 0.018,-3.388C0.018,-5.264 1.328,-6.03 2.943,-5.098Z" style="fill:none;fill-rule:nonzero;stroke:black;stroke-width:1px;"/>
        </g>
        <g transform="matrix(-0.500015,0.866017,0.866017,0.500015,1174.86,1753.03)">
            <path d="M2.943,-5.099C4.558,-4.167 5.868,-1.888 5.868,-0.012C5.869,1.865 4.559,2.632 2.943,1.699C1.327,0.766 0.019,-1.513 0.018,-3.389C0.019,-5.266 1.329,-6.031 2.943,-5.099Z" style="fill:none;fill-rule:nonzero;stroke:black;stroke-width:1px;"/>
        </g>
        <g transform="matrix(-0.499952,0.866053,0.866053,0.499952,1163.16,1746.27)">
            <path d="M2.944,-5.1C4.559,-4.167 5.868,-1.889 5.87,-0.012C5.87,1.866 4.56,2.632 2.944,1.699C1.328,0.766 0.019,-1.512 0.018,-3.39C0.018,-5.266 1.328,-6.032 2.944,-5.1Z" style="fill:none;fill-rule:nonzero;stroke:black;stroke-width:1px;"/>
        </g>
        <g transform="matrix(-0.499905,0.86608,0.86608,0.499905,1268.45,1794.49)">
            <path d="M2.943,-5.098C4.558,-4.166 5.868,-1.888 5.869,-0.012C5.87,1.865 4.56,2.632 2.943,1.699C1.328,0.767 0.019,-1.512 0.018,-3.389C0.018,-5.265 1.328,-6.031 2.943,-5.098Z" style="fill:none;fill-rule:nonzero;stroke:black;stroke-width:1px;"/>
        </g>
        <g transform="matrix(-0.499952,0.866053,0.866053,0.499952,1256.76,1787.73)">
            <path d="M2.944,-5.098C4.56,-4.166 5.869,-1.888 5.869,-0.011C5.869,1.866 4.56,2.633 2.944,1.701C1.328,0.768 0.019,-1.511 0.018,-3.388C0.019,-5.265 1.329,-6.03 2.944,-5.098Z" style="fill:none;fill-rule:nonzero;stroke:black;stroke-width:1px;"/>
        </g>
        <g transform="matrix(-0.500015,0.866017,0.866017,0.500015,1245.06,1780.98)">
            <path d="M2.943,-5.099C4.558,-4.167 5.868,-1.888 5.868,-0.012C5.869,1.865 4.559,2.632 2.943,1.699C1.327,0.766 0.019,-1.513 0.018,-3.389C0.019,-5.266 1.329,-6.031 2.943,-5.099Z" style="fill:none;fill-rule:nonzero;stroke:black;stroke-width:1px;"/>
        </g>
        <g transform="matrix(-0.500015,0.866017,0.866017,0.500015,1233.37,1774.23)">
            <path d="M2.943,-5.099C4.558,-4.167 5.869,-1.89 5.869,-0.011C5.87,1.865 4.559,2.632 2.943,1.699C1.327,0.766 0.019,-1.513 0.017,-3.39C0.019,-5.268 1.328,-6.032 2.943,-5.099Z" style="fill:none;fill-rule:nonzero;stroke:black;stroke-width:1px;"/>
        </g>
        <g transform="matrix(-0.500015,0.866017,0.866017,0.500015,1221.65,1767.46)">
            <path d="M2.943,-5.1C4.559,-4.167 5.869,-1.891 5.868,-0.013C5.869,1.865 4.559,2.631 2.943,1.698C1.328,0.765 0.019,-1.513 0.018,-3.39C0.019,-5.268 1.328,-6.032 2.943,-5.1Z" style="fill:none;fill-rule:nonzero;stroke:black;stroke-width:1px;"/>
        </g>
        <g transform="matrix(-0.500015,0.866017,0.866017,0.500015,1221.65,1767.46)">
            <path d="M2.943,-5.1C4.559,-4.167 5.869,-1.891 5.868,-0.013C5.869,1.865 4.559,2.631 2.943,1.698C1.328,0.765 0.019,-1.513 0.018,-3.39C0.019,-5.268 1.328,-6.032 2.943,-5.1Z" style="fill:none;fill-rule:nonzero;stroke:black;stroke-width:1px;"/>
        </g>
        <g transform="matrix(-0.499795,0.866144,0.866144,0.499795,1209.95,1760.71)">
            <path d="M2.943,-5.098C4.558,-4.166 5.869,-1.889 5.869,-0.012C5.87,1.865 4.56,2.632 2.943,1.699C1.329,0.768 0.019,-1.511 0.018,-3.388C0.018,-5.265 1.327,-6.03 2.943,-5.098Z" style="fill:none;fill-rule:nonzero;stroke:black;stroke-width:1px;"/>
        </g>
        <g transform="matrix(-0.499905,0.86608,0.86608,0.499905,1198.25,1753.96)">
            <path d="M2.943,-5.099C4.558,-4.167 5.869,-1.889 5.869,-0.012C5.869,1.865 4.56,2.631 2.943,1.698C1.327,0.766 0.019,-1.511 0.018,-3.389C0.019,-5.266 1.328,-6.031 2.943,-5.099Z" style="fill:none;fill-rule:nonzero;stroke:black;stroke-width:1px;"/>
        </g>
        <g transform="matrix(-0.500015,0.866017,0.866017,0.500015,1186.56,1747.2)">
            <path d="M2.943,-5.098C4.559,-4.166 5.868,-1.888 5.868,-0.012C5.868,1.867 4.559,2.632 2.943,1.699C1.328,0.766 0.018,-1.511 0.018,-3.389C0.018,-5.266 1.328,-6.031 2.943,-5.098Z" style="fill:none;fill-rule:nonzero;stroke:black;stroke-width:1px;"/>
        </g>
        <g transform="matrix(-0.499905,0.86608,0.86608,0.499905,1174.86,1740.45)">
            <path d="M2.943,-5.098C4.559,-4.165 5.868,-1.888 5.869,-0.011C5.869,1.866 4.56,2.632 2.943,1.7C1.328,0.767 0.019,-1.511 0.018,-3.388C0.018,-5.264 1.328,-6.03 2.943,-5.098Z" style="fill:none;fill-rule:nonzero;stroke:black;stroke-width:1px;"/>
        </g>
        <g transform="matrix(-0.499952,0.866053,0.866053,0.499952,1163.16,1733.7)">
            <path d="M2.943,-5.1C4.558,-4.168 5.869,-1.89 5.87,-0.013C5.87,1.865 4.559,2.631 2.943,1.698C1.327,0.765 0.019,-1.513 0.019,-3.39C0.019,-5.267 1.329,-6.032 2.943,-5.1Z" style="fill:none;fill-rule:nonzero;stroke:black;stroke-width:1px;"/>
        </g>
        <g transform="matrix(-0.499905,0.86608,0.86608,0.499905,1268.45,1781.91)">
            <path d="M2.943,-5.099C4.558,-4.167 5.868,-1.889 5.869,-0.012C5.869,1.865 4.56,2.631 2.943,1.698C1.327,0.766 0.019,-1.512 0.018,-3.389C0.018,-5.265 1.328,-6.031 2.943,-5.099Z" style="fill:none;fill-rule:nonzero;stroke:black;stroke-width:1px;"/>
        </g>
        <g transform="matrix(-0.499952,0.866053,0.866053,0.499952,1256.76,1775.16)">
            <path d="M2.944,-5.099C4.559,-4.166 5.869,-1.889 5.869,-0.011C5.87,1.866 4.56,2.633 2.944,1.7C1.328,0.767 0.02,-1.511 0.018,-3.389C0.019,-5.266 1.329,-6.031 2.944,-5.099Z" style="fill:none;fill-rule:nonzero;stroke:black;stroke-width:1px;"/>
        </g>
        <g transform="matrix(-0.500015,0.866017,0.866017,0.500015,1245.06,1768.4)">
            <path d="M2.944,-5.098C4.559,-4.165 5.868,-1.887 5.868,-0.011C5.869,1.866 4.559,2.633 2.944,1.7C1.328,0.767 0.019,-1.512 0.018,-3.388C0.019,-5.265 1.329,-6.03 2.944,-5.098Z" style="fill:none;fill-rule:nonzero;stroke:black;stroke-width:1px;"/>
        </g>
        <g transform="matrix(-0.500015,0.866017,0.866017,0.500015,1233.37,1761.65)">
            <path d="M2.943,-5.099C4.558,-4.167 5.87,-1.889 5.869,-0.011C5.869,1.865 4.559,2.632 2.943,1.699C1.327,0.766 0.019,-1.513 0.018,-3.389C0.02,-5.268 1.329,-6.031 2.943,-5.099Z" style="fill:none;fill-rule:nonzero;stroke:black;stroke-width:1px;"/>
        </g>
        <g transform="matrix(-0.499905,0.86608,0.86608,0.499905,1221.65,1754.89)">
            <path d="M2.943,-5.099C4.558,-4.167 5.869,-1.89 5.869,-0.012C5.869,1.865 4.56,2.631 2.943,1.698C1.327,0.766 0.019,-1.512 0.018,-3.389C0.019,-5.267 1.327,-6.031 2.943,-5.099Z" style="fill:none;fill-rule:nonzero;stroke:black;stroke-width:1px;"/>
        </g>
        <g transform="matrix(-0.499905,0.86608,0.86608,0.499905,1221.65,1754.89)">
            <path d="M2.943,-5.099C4.558,-4.167 5.869,-1.89 5.869,-0.012C5.869,1.865 4.56,2.631 2.943,1.698C1.327,0.766 0.019,-1.512 0.018,-3.389C0.019,-5.267 1.327,-6.031 2.943,-5.099Z" style="fill:none;fill-rule:nonzero;stroke:black;stroke-width:1px;"/>
        </g>
        <g transform="matrix(-0.499905,0.86608,0.86608,0.499905,1209.95,1748.13)">
            <path d="M2.943,-5.098C4.558,-4.166 5.869,-1.889 5.868,-0.012C5.87,1.865 4.56,2.632 2.943,1.699C1.328,0.767 0.019,-1.512 0.018,-3.389C0.018,-5.266 1.327,-6.031 2.943,-5.098Z" style="fill:none;fill-rule:nonzero;stroke:black;stroke-width:1px;"/>
        </g>
        <g transform="matrix(-0.499795,0.866144,0.866144,0.499795,1198.25,1741.38)">
            <path d="M2.943,-5.098C4.558,-4.166 5.869,-1.889 5.869,-0.012C5.869,1.866 4.56,2.632 2.943,1.699C1.329,0.768 0.019,-1.51 0.018,-3.388C0.018,-5.265 1.328,-6.03 2.943,-5.098Z" style="fill:none;fill-rule:nonzero;stroke:black;stroke-width:1px;"/>
        </g>
        <g transform="matrix(-0.500015,0.866017,0.866017,0.500015,1186.56,1734.63)">
            <path d="M2.943,-5.099C4.558,-4.167 5.868,-1.888 5.868,-0.012C5.868,1.867 4.559,2.632 2.943,1.699C1.327,0.766 0.018,-1.511 0.018,-3.389C0.019,-5.266 1.329,-6.031 2.943,-5.099Z" style="fill:none;fill-rule:nonzero;stroke:black;stroke-width:1px;"/>
        </g>
        <g transform="matrix(-0.499905,0.86608,0.86608,0.499905,1174.86,1727.87)">
            <path d="M2.943,-5.099C4.558,-4.167 5.868,-1.889 5.868,-0.013C5.87,1.865 4.56,2.631 2.943,1.698C1.327,0.766 0.018,-1.513 0.017,-3.39C0.017,-5.266 1.327,-6.031 2.943,-5.099Z" style="fill:none;fill-rule:nonzero;stroke:black;stroke-width:1px;"/>
        </g>
        <g transform="matrix(-0.499841,0.866117,0.866117,0.499841,1163.16,1721.12)">
            <path d="M2.944,-5.098C4.56,-4.165 5.87,-1.888 5.87,-0.011C5.87,1.866 4.56,2.633 2.944,1.7C1.329,0.768 0.019,-1.511 0.019,-3.388C0.019,-5.265 1.329,-6.03 2.944,-5.098Z" style="fill:none;fill-rule:nonzero;stroke:black;stroke-width:1px;"/>
        </g>
        <g transform="matrix(-0.500015,0.866017,0.866017,0.500015,1268.45,1769.33)">
            <path d="M2.944,-5.098C4.559,-4.165 5.868,-1.887 5.868,-0.011C5.869,1.866 4.559,2.633 2.944,1.7C1.328,0.767 0.019,-1.512 0.018,-3.388C0.019,-5.265 1.329,-6.03 2.944,-5.098Z" style="fill:none;fill-rule:nonzero;stroke:black;stroke-width:1px;"/>
        </g>
        <g transform="matrix(-0.499952,0.866053,0.866053,0.499952,1256.76,1762.58)">
            <path d="M2.944,-5.1C4.559,-4.167 5.869,-1.889 5.869,-0.012C5.869,1.865 4.56,2.632 2.944,1.699C1.328,0.766 0.019,-1.512 0.018,-3.389C0.019,-5.266 1.329,-6.031 2.944,-5.1Z" style="fill:none;fill-rule:nonzero;stroke:black;stroke-width:1px;"/>
        </g>
        <g transform="matrix(-0.500015,0.866017,0.866017,0.500015,1245.06,1755.83)">
            <path d="M2.943,-5.099C4.558,-4.167 5.868,-1.889 5.869,-0.011C5.87,1.865 4.559,2.632 2.943,1.699C1.327,0.766 0.019,-1.513 0.017,-3.39C0.018,-5.266 1.328,-6.032 2.943,-5.099Z" style="fill:none;fill-rule:nonzero;stroke:black;stroke-width:1px;"/>
        </g>
        <g transform="matrix(-0.500015,0.866017,0.866017,0.500015,1233.36,1749.08)">
            <path d="M2.943,-5.098C4.559,-4.165 5.87,-1.889 5.869,-0.011C5.869,1.866 4.559,2.632 2.943,1.699C1.328,0.766 0.019,-1.512 0.018,-3.389C0.019,-5.267 1.328,-6.031 2.943,-5.098Z" style="fill:none;fill-rule:nonzero;stroke:black;stroke-width:1px;"/>
        </g>
        <g transform="matrix(-0.499795,0.866144,0.866144,0.499795,1221.65,1742.31)">
            <path d="M2.943,-5.098C4.558,-4.166 5.869,-1.89 5.869,-0.012C5.87,1.865 4.56,2.632 2.943,1.699C1.329,0.768 0.019,-1.511 0.018,-3.388C0.019,-5.266 1.327,-6.03 2.943,-5.098Z" style="fill:none;fill-rule:nonzero;stroke:black;stroke-width:1px;"/>
        </g>
        <g transform="matrix(-0.499795,0.866144,0.866144,0.499795,1221.65,1742.31)">
            <path d="M2.943,-5.098C4.558,-4.166 5.869,-1.89 5.869,-0.012C5.87,1.865 4.56,2.632 2.943,1.699C1.329,0.768 0.019,-1.511 0.018,-3.388C0.019,-5.266 1.327,-6.03 2.943,-5.098Z" style="fill:none;fill-rule:nonzero;stroke:black;stroke-width:1px;"/>
        </g>
        <g transform="matrix(-0.499905,0.86608,0.86608,0.499905,1209.95,1735.56)">
            <path d="M2.943,-5.099C4.558,-4.167 5.869,-1.889 5.869,-0.012C5.869,1.865 4.56,2.631 2.943,1.698C1.327,0.766 0.019,-1.512 0.018,-3.389C0.019,-5.266 1.328,-6.031 2.943,-5.099Z" style="fill:none;fill-rule:nonzero;stroke:black;stroke-width:1px;"/>
        </g>
        <g transform="matrix(-0.500015,0.866017,0.866017,0.500015,1198.25,1728.8)">
            <path d="M2.943,-5.098C4.559,-4.166 5.869,-1.889 5.868,-0.012C5.869,1.867 4.559,2.632 2.943,1.699C1.328,0.766 0.018,-1.512 0.018,-3.389C0.019,-5.266 1.328,-6.031 2.943,-5.098Z" style="fill:none;fill-rule:nonzero;stroke:black;stroke-width:1px;"/>
        </g>
        <g transform="matrix(-0.499905,0.86608,0.86608,0.499905,1186.56,1722.05)">
            <path d="M2.943,-5.098C4.559,-4.165 5.868,-1.888 5.869,-0.011C5.868,1.867 4.56,2.632 2.943,1.7C1.328,0.767 0.018,-1.51 0.018,-3.388C0.018,-5.264 1.328,-6.03 2.943,-5.098Z" style="fill:none;fill-rule:nonzero;stroke:black;stroke-width:1px;"/>
        </g>
        <g transform="matrix(-0.500015,0.866017,0.866017,0.500015,1174.86,1715.3)">
            <path d="M2.943,-5.1C4.558,-4.167 5.869,-1.888 5.869,-0.012C5.869,1.865 4.559,2.631 2.943,1.698C1.327,0.765 0.019,-1.513 0.018,-3.39C0.018,-5.267 1.328,-6.032 2.943,-5.1Z" style="fill:none;fill-rule:nonzero;stroke:black;stroke-width:1px;"/>
        </g>
        <g transform="matrix(-0.499952,0.866053,0.866053,0.499952,1163.16,1708.55)">
            <path d="M2.944,-5.1C4.56,-4.167 5.869,-1.889 5.869,-0.013C5.87,1.866 4.56,2.632 2.944,1.699C1.328,0.766 0.018,-1.513 0.018,-3.39C0.018,-5.266 1.328,-6.032 2.944,-5.1Z" style="fill:none;fill-rule:nonzero;stroke:black;stroke-width:1px;"/>
        </g>
        <g transform="matrix(-0.499992,-0.86603,-0.86603,0.499992,1645.35,1875.39)">
            <path d="M-9.21,-15.95C-14.264,-13.032 -18.362,-5.906 -18.362,-0.032C-18.362,5.841 -14.264,8.236 -9.21,5.318C-4.156,2.4 -0.059,-4.726 -0.057,-10.6C-0.057,-16.474 -4.155,-18.869 -9.21,-15.95Z" style="fill:none;fill-rule:nonzero;stroke:black;stroke-width:1px;"/>
        </g>
        <g transform="matrix(1,0,0,1,1726.37,1591.25)">
            <path d="M0,9.289C0,5.187 2.896,0.19 6.472,-1.874C9.579,-3.668 12.17,-2.648 12.795,0.344C12.499,-3.606 9.524,-5.138 5.858,-3.021C1.996,-0.79 -1.135,4.61 -1.135,9.042C-1.135,12.618 0.916,14.427 3.731,13.84C1.532,13.922 0,12.262 0,9.289Z" style="fill:none;fill-rule:nonzero;stroke:black;stroke-width:1px;"/>
        </g>
        <g transform="matrix(-0.866153,-0.499779,-0.499779,0.866153,1537.19,1919.54)">
            <path d="M-157.955,-153.426L-150.361,-153.426L-39.191,39.012L-42.986,45.589L-157.955,-153.426Z" style="fill:none;fill-rule:nonzero;stroke:black;stroke-width:1px;"/>
        </g>
        <g transform="matrix(1,0,0,1,1750.68,1973.92)">
            <g>
                <clipPath id="_clip3">
                    <rect x="-199.54" y="-112.699" width="201.41" height="117.36" clip-rule="nonzero"/>
                </clipPath>
                <g clip-path="url(#_clip3)">
                    <path d="M0,-108.331L-2.42,-109.727L-6.577,-112.126L-199.044,-1.006L-199.044,3.795L-4.837,-108.331L0,-108.331Z" style="fill:none;fill-rule:nonzero;stroke:black;stroke-width:1px;"/>
                </g>
            </g>
        </g>
        <g transform="matrix(-0.86621,-0.499681,-0.499681,0.86621,1537.19,1935.33)">
            <path d="M-157.965,-153.42L-150.373,-153.42L-39.18,39.005L-42.974,45.582L-157.965,-153.42Z" style="fill:none;fill-rule:nonzero;stroke:black;stroke-width:1px;"/>
        </g>
        <g transform="matrix(1,0,0,1,1750.68,1989.7)">
            <g>
                <clipPath id="_clip4">
                    <rect x="-199.54" y="-112.708" width="201.41" height="117.37" clip-rule="nonzero"/>
                </clipPath>
                <g clip-path="url(#_clip4)">
                    <path d="M0,-108.333L-2.42,-109.729L-6.577,-112.127L-199.044,-1.007L-199.044,3.794L-4.837,-108.333L0,-108.333Z" style="fill:none;fill-rule:nonzero;stroke:black;stroke-width:1px;"/>
                </g>
            </g>
        </g>
        <g transform="matrix(-0.866096,-0.499878,-0.499878,0.866096,1537.19,1951.08)">
            <path d="M-157.944,-153.431L-150.35,-153.431L-39.203,39.021L-42.998,45.597L-157.944,-153.431Z" style="fill:none;fill-rule:nonzero;stroke:black;stroke-width:1px;"/>
        </g>
        <g transform="matrix(1,0,0,1,1750.68,2005.47)">
            <g>
                <clipPath id="_clip5">
                    <rect x="-199.54" y="-112.703" width="201.41" height="117.36" clip-rule="nonzero"/>
                </clipPath>
                <g clip-path="url(#_clip5)">
                    <path d="M0,-108.329L-2.42,-109.725L-6.577,-112.125L-199.044,-1.003L-199.044,3.796L-4.837,-108.329L0,-108.329Z" style="fill:none;fill-rule:nonzero;stroke:black;stroke-width:1px;"/>
                </g>
            </g>
        </g>
    </g>
</svg>
