<?xml version="1.0" encoding="UTF-8" standalone="no"?>
<!DOCTYPE svg PUBLIC "-//W3C//DTD SVG 1.1//EN" "http://www.w3.org/Graphics/SVG/1.1/DTD/svg11.dtd">
<svg width="100%" height="100%" viewBox="0 0 228 825" version="1.1" xmlns="http://www.w3.org/2000/svg" xmlns:xlink="http://www.w3.org/1999/xlink" xml:space="preserve" xmlns:serif="http://www.serif.com/" style="fill-rule:evenodd;clip-rule:evenodd;stroke-miterlimit:10;">
    <g transform="matrix(1,0,0,1,-960.069,-302.197)">
        <g transform="matrix(1,0,0,1,1028.14,1103.7)">
            <path d="M0,-517.33L-44.605,-535.16L-54.146,-520.962L-63.043,-309.14L-54.146,-61.757L-36.973,-33.777L0,-4.631L46.538,17.83L52.676,-16.561L28.867,-66.269L21.841,-275.55L48.807,-340.257L50.354,-477.885L43.676,-488.857L0,-517.33Z" style="fill:none;fill-rule:nonzero;stroke:black;stroke-width:1px;"/>
        </g>
        <g transform="matrix(1,0,0,1,1017.34,843.424)">
            <path d="M0,-0.534L12.598,256.515L10.797,255.645L-1.818,-1.719L10.797,-257.049L12.613,-255.865L0,-0.534Z" style="fill:none;fill-rule:nonzero;stroke:black;stroke-width:1px;"/>
        </g>
        <g transform="matrix(1,0,0,1,1080.81,621.949)">
            <path d="M0,465.194L-6.138,499.583L-50.877,477.99L-63.475,220.941L-50.861,-34.389L-9.001,-7.106L-2.32,3.867L-3.867,141.497L-30.837,206.206L-23.809,415.485L0,465.194Z" style="fill:none;fill-rule:nonzero;stroke:black;stroke-width:1px;"/>
        </g>
        <g transform="matrix(0.866025,-0.500001,-0.500001,-0.866025,1130.33,1043.13)">
            <path d="M-60.65,41.594L56.676,41.594L155.231,226.349L37.906,226.35L-60.65,41.594Z" style="fill:none;fill-rule:nonzero;stroke:black;stroke-width:1px;"/>
        </g>
        <g transform="matrix(1,0,0,1,1148.27,936.297)">
            <path d="M0,29.36L-17.75,39.609C-19.778,40.779 -22.323,39.367 -22.402,37.027L-23.524,3.679C-23.591,1.711 -22.567,-0.135 -20.86,-1.12L-3.109,-11.369C-1.082,-12.539 1.463,-11.127 1.541,-8.786L2.664,24.561C2.73,26.53 1.706,28.375 0,29.36ZM3.537,-10.597C3.45,-13.179 0.642,-14.738 -1.596,-13.445L-21.184,-2.137C-23.066,-1.05 -24.196,0.986 -24.123,3.159L-22.884,39.957C-22.797,42.539 -19.989,44.098 -17.751,42.806L1.836,31.497C3.718,30.411 4.849,28.375 4.775,26.201L3.537,-10.597Z" style="fill:none;fill-rule:nonzero;stroke:black;stroke-width:1px;"/>
        </g>
        <g transform="matrix(1,0,0,1,1085.63,869.968)">
            <path d="M0,78.27L-17.752,88.519C-19.779,89.689 -22.324,88.277 -22.402,85.937L-25.059,5.153C-25.125,3.184 -24.101,1.338 -22.395,0.354L-4.644,-9.895C-2.616,-11.065 -0.071,-9.653 0.008,-7.313L2.664,73.471C2.729,75.439 1.705,77.285 0,78.27ZM1.714,-9.676C1.627,-12.259 -1.181,-13.818 -3.419,-12.526L-23.006,-1.218C-24.889,-0.13 -26.019,1.906 -25.946,4.078L-23.122,87.947C-23.035,90.53 -20.228,92.088 -17.989,90.797L1.598,79.488C3.48,78.401 4.611,76.365 4.538,74.192L1.714,-9.676Z" style="fill:none;fill-rule:nonzero;stroke:black;stroke-width:1px;"/>
        </g>
        <g transform="matrix(0.866023,-0.500005,-0.500005,-0.866023,1080.43,782.511)">
            <path d="M6.511,18.255L123.836,18.255L68.131,-24.3L-49.196,-24.299L6.511,18.255Z" style="fill:none;fill-rule:nonzero;stroke:black;stroke-width:1px;"/>
        </g>
        <g transform="matrix(1,0,0,1,1166.7,812.595)">
            <path d="M0,-92.255L-10.478,-67.114L-17.016,-51.432C-18.326,-48.269 -20.646,-45.636 -23.608,-43.923L-24.595,-43.356L-71.054,-16.529L-102.811,1.803C-104.006,2.496 -105.395,1.274 -104.865,0.001L-87.85,-40.828C-86.532,-43.984 -84.214,-46.623 -81.251,-48.33L-40.614,-71.791L-2.049,-94.062C-0.854,-94.751 0.534,-93.528 0,-92.255Z" style="fill:none;fill-rule:nonzero;stroke:black;stroke-width:1px;"/>
        </g>
        <g transform="matrix(1,0,0,1,1081.24,765.181)">
            <path d="M0,17.691L69.021,-22.159C69.777,-22.595 70.655,-21.823 70.319,-21.018L63.199,-3.934C62.51,-2.279 61.295,-0.896 59.742,0L-9.279,39.85C-10.034,40.286 -10.913,39.515 -10.577,38.709L-3.457,21.626C-2.768,19.97 -1.553,18.587 0,17.691Z" style="fill:none;fill-rule:nonzero;stroke:black;stroke-width:1px;"/>
        </g>
        <g transform="matrix(1,0,0,1,1150.26,804.938)">
            <path d="M0,-61.916L-1.128,-61.265C-1.104,-61.109 -1.11,-60.944 -1.182,-60.775L-8.301,-43.692C-8.99,-42.036 -10.205,-40.654 -11.758,-39.757L-79.652,-0.559C-79.561,0.026 -78.897,0.437 -78.301,0.092L-9.279,-39.757C-7.727,-40.654 -6.511,-42.036 -5.822,-43.692L1.298,-60.775C1.634,-61.58 0.756,-62.353 0,-61.916Z" style="fill:none;fill-rule:nonzero;stroke:black;stroke-width:1px;"/>
        </g>
        <g transform="matrix(0.866025,-0.500001,-0.500001,-0.866025,1065.45,656.122)">
            <path d="M26.444,19.725L143.77,19.725L73.615,-98.69L-43.711,-98.69L26.444,19.725Z" style="fill:none;fill-rule:nonzero;stroke:black;stroke-width:1px;"/>
        </g>
        <g transform="matrix(1,0,0,1,1101.88,706.835)">
            <path d="M0,-83.07L50.843,-112.424C58.468,-116.826 67.987,-111.259 67.888,-102.455L66.999,-23.44C66.89,-13.754 61.679,-4.844 53.29,-0.001L2.447,29.354C-5.179,33.756 -14.696,28.189 -14.598,19.385L-13.709,-59.63C-13.6,-69.316 -8.389,-78.226 0,-83.07Z" style="fill:none;fill-rule:nonzero;stroke:black;stroke-width:1px;"/>
        </g>
        <g transform="matrix(1,0,0,1,1100.12,701.847)">
            <path d="M0,-73.094L44.737,-98.923C51.447,-102.797 59.822,-97.898 59.735,-90.152L58.954,-20.625C58.857,-12.101 54.272,-4.261 46.891,0.001L2.153,25.83C-4.557,29.703 -12.932,24.805 -12.845,17.058L-12.063,-52.469C-11.967,-60.992 -7.382,-68.832 0,-73.094Z" style="fill:none;fill-rule:nonzero;stroke:black;stroke-width:1px;"/>
        </g>
        <g transform="matrix(0.866023,-0.500005,-0.500005,-0.866023,1090.99,638.722)">
            <path d="M-4.669,30.267L112.656,30.267L112.955,17.424L-4.371,17.425L-4.669,30.267Z" style="fill:none;fill-rule:nonzero;stroke:black;stroke-width:1px;"/>
        </g>
        <g transform="matrix(0.866025,-0.500001,-0.500001,-0.866025,1067.64,1068.19)">
            <path d="M6.162,31.954L123.488,31.954L119.253,-22.999L1.928,-22.999L6.162,31.954Z" style="fill:none;fill-rule:nonzero;stroke:black;stroke-width:1px;"/>
        </g>
        <g transform="matrix(0.866023,-0.500005,-0.500005,-0.866023,1093.28,1109.38)">
            <path d="M0.327,25.493L117.652,25.493L95.141,-1.223L-22.184,-1.221L0.327,25.493Z" style="fill:none;fill-rule:nonzero;stroke:black;stroke-width:1px;"/>
        </g>
        <g transform="matrix(-0.866022,0.500006,0.500006,0.866022,1049.43,608.383)">
            <path d="M-110.87,-27.774L6.461,-27.774L7.442,-29.709L-109.888,-29.708L-110.87,-27.774Z" style="fill:none;fill-rule:nonzero;stroke:black;stroke-width:1px;"/>
        </g>
        <g transform="matrix(-0.86604,0.499975,0.499975,0.86604,1047.4,621.319)">
            <path d="M-141.703,6.596L-24.377,6.596L-1.765,-37.963L-119.096,-37.965L-141.703,6.596Z" style="fill:none;fill-rule:nonzero;stroke:black;stroke-width:1px;"/>
        </g>
        <g transform="matrix(0.866025,-0.500001,-0.500001,-0.866025,1003.53,602.36)">
            <path d="M-0.414,39.288L116.912,39.288L146.626,1.545L29.3,1.545L-0.414,39.288Z" style="fill:none;fill-rule:nonzero;stroke:black;stroke-width:1px;"/>
        </g>
        <g transform="matrix(1,0,0,1,1085.14,1099.07)">
            <g>
                <clipPath id="_clip1">
                    <rect x="-120.545" y="-589.618" width="120.806" height="590.69" clip-rule="nonzero"/>
                </clipPath>
                <g clip-path="url(#_clip1)">
                    <path d="M0,-589.189L-98.223,-530.149L-57.002,-512.696L-99.324,-528.222L-108.298,-514.129L-116.377,-299.297L-107.196,-57.768L-90.671,-31.397L-57.252,-5.051L-57.004,0L-93.975,-29.143L-111.148,-57.123L-120.045,-304.506L-111.148,-516.328L-101.607,-530.526L0,-589.189Z" style="fill:none;fill-rule:nonzero;stroke:black;stroke-width:1px;"/>
                </g>
            </g>
        </g>
        <g transform="matrix(1,0,0,1,1015.45,557.671)">
            <g>
                <clipPath id="_clip2">
                    <rect x="-14.503" y="-1.031" width="40.26" height="22.08" clip-rule="nonzero"/>
                </clipPath>
                <g clip-path="url(#_clip2)">
                    <path d="M0,20.02L-13.604,13.772L-13.981,7.367L-1.177,0.002L11.251,-0.524L24.855,5.724L25.233,12.129L6.06,20.544L0,20.02Z" style="fill:none;fill-rule:nonzero;stroke:black;stroke-width:1px;"/>
                </g>
            </g>
        </g>
        <g transform="matrix(1,0,0,1,1021.51,557.693)">
            <path d="M0,20.522L-13.605,14.882L-13.981,8.621L-1.178,0.953L11.251,0L24.856,5.639L25.232,11.9L12.429,19.567L0,20.522Z" style="fill:none;fill-rule:nonzero;stroke:black;stroke-width:1px;"/>
        </g>
        <g transform="matrix(1,0,0,1,1021.51,552.534)">
            <path d="M0,20.544L-13.605,14.296L-13.981,7.891L-1.178,0.525L11.251,0L24.856,6.247L25.232,12.653L12.429,20.018L0,20.544Z" style="fill:none;fill-rule:nonzero;stroke:black;stroke-width:1px;"/>
        </g>
        <g transform="matrix(0,-1,-1,0,1007.53,566.688)">
            <path d="M0.374,0.002L6.263,0.002L-0.142,-0.374L-5.888,-0.374L0.374,0.002Z" style="fill:none;fill-rule:nonzero;stroke:black;stroke-width:1px;"/>
        </g>
        <g transform="matrix(0,1,1,0,1046.38,577.626)">
            <path d="M-12.439,0.365L-8.033,0.365L-0.366,-12.439L-5.075,-12.439L-12.439,0.365Z" style="fill:none;fill-rule:nonzero;stroke:black;stroke-width:1px;"/>
        </g>
        <g transform="matrix(0,1,1,0,1030.03,569.169)">
            <path d="M3.909,-8.52L9.046,-8.52L8.092,3.909L3.383,3.909L3.909,-8.52Z" style="fill:none;fill-rule:nonzero;stroke:black;stroke-width:1px;"/>
        </g>
        <g transform="matrix(1,0,0,1,1143.51,632.128)">
            <path d="M0,8.461C-1.438,8.46 -2.443,7.299 -2.443,5.636C-2.443,3.712 -1.132,1.449 0.543,0.482C1.097,0.163 1.649,0 2.187,0C3.625,0 4.63,1.162 4.63,2.824C4.63,4.748 3.318,7.012 1.645,7.979C1.09,8.298 0.537,8.461 0,8.461Z" style="fill:none;fill-rule:nonzero;stroke:black;stroke-width:1px;"/>
        </g>
        <g transform="matrix(1,0,0,1,1143.51,649.879)">
            <path d="M0,8.461C-1.438,8.461 -2.443,7.299 -2.443,5.637C-2.443,3.713 -1.132,1.449 0.542,0.482C1.097,0.163 1.649,0 2.187,0C3.625,0 4.63,1.162 4.63,2.824C4.63,4.749 3.318,7.012 1.645,7.979C1.09,8.298 0.537,8.461 0,8.461Z" style="fill:none;fill-rule:nonzero;stroke:black;stroke-width:1px;"/>
        </g>
        <g transform="matrix(1,0,0,1,1143.51,667.63)">
            <path d="M0,8.459C-1.438,8.459 -2.443,7.298 -2.443,5.635C-2.443,3.712 -1.132,1.448 0.543,0.481C1.096,0.162 1.649,0 2.187,0C3.625,0 4.63,1.161 4.63,2.824C4.63,4.747 3.318,7.01 1.645,7.978C1.09,8.298 0.537,8.459 0,8.459Z" style="fill:none;fill-rule:nonzero;stroke:black;stroke-width:1px;"/>
        </g>
        <g transform="matrix(1,0,0,1,1133.39,629.931)">
            <path d="M0,8.461C-1.439,8.461 -2.444,7.299 -2.444,5.637C-2.444,3.713 -1.133,1.45 0.541,0.482C1.096,0.163 1.649,0 2.186,0C3.625,0 4.629,1.162 4.629,2.825C4.629,4.748 3.317,7.012 1.644,7.979C1.09,8.298 0.536,8.461 0,8.461Z" style="fill:none;fill-rule:nonzero;stroke:black;stroke-width:1px;"/>
        </g>
        <g transform="matrix(1,0,0,1,1133.39,647.682)">
            <path d="M0,8.461C-1.439,8.46 -2.444,7.298 -2.444,5.636C-2.444,3.712 -1.133,1.448 0.542,0.482C1.096,0.163 1.649,0 2.186,0C3.625,0 4.629,1.162 4.629,2.823C4.629,4.747 3.317,7.011 1.644,7.978C1.09,8.298 0.536,8.461 0,8.461Z" style="fill:none;fill-rule:nonzero;stroke:black;stroke-width:1px;"/>
        </g>
        <g transform="matrix(1,0,0,1,1133.39,665.433)">
            <path d="M0,8.46C-1.439,8.46 -2.444,7.299 -2.444,5.636C-2.444,3.712 -1.133,1.448 0.542,0.482C1.096,0.162 1.649,0 2.186,0C3.625,0 4.629,1.162 4.629,2.824C4.629,4.749 3.317,7.011 1.644,7.979C1.09,8.298 0.536,8.46 0,8.46Z" style="fill:none;fill-rule:nonzero;stroke:black;stroke-width:1px;"/>
        </g>
        <g transform="matrix(1,0,0,1,1133.39,683.183)">
            <path d="M0,8.46C-1.439,8.46 -2.444,7.298 -2.444,5.636C-2.444,3.712 -1.133,1.448 0.542,0.482C1.096,0.162 1.649,0 2.186,0C3.625,0 4.629,1.162 4.629,2.825C4.629,4.748 3.317,7.011 1.644,7.979C1.09,8.298 0.536,8.46 0,8.46Z" style="fill:none;fill-rule:nonzero;stroke:black;stroke-width:1px;"/>
        </g>
        <g transform="matrix(1,0,0,1,1123.17,643.872)">
            <path d="M0,8.46C-1.439,8.46 -2.443,7.298 -2.443,5.635C-2.443,3.712 -1.132,1.448 0.542,0.482C1.097,0.162 1.649,0 2.186,0C3.625,0 4.63,1.162 4.63,2.824C4.63,4.748 3.318,7.011 1.644,7.979C1.09,8.297 0.537,8.46 0,8.46Z" style="fill:none;fill-rule:nonzero;stroke:black;stroke-width:1px;"/>
        </g>
        <g transform="matrix(1,0,0,1,1123.17,661.622)">
            <path d="M0,8.46C-1.439,8.46 -2.443,7.299 -2.443,5.636C-2.443,3.713 -1.132,1.448 0.542,0.482C1.097,0.162 1.649,0 2.186,0C3.625,0 4.63,1.162 4.63,2.824C4.63,4.748 3.318,7.011 1.644,7.978C1.09,8.298 0.537,8.46 0,8.46Z" style="fill:none;fill-rule:nonzero;stroke:black;stroke-width:1px;"/>
        </g>
        <g transform="matrix(1,0,0,1,1123.17,679.372)">
            <path d="M0,8.461C-1.439,8.461 -2.443,7.299 -2.443,5.637C-2.443,3.713 -1.132,1.449 0.542,0.482C1.097,0.163 1.649,0 2.186,0C3.625,0 4.63,1.162 4.63,2.824C4.63,4.748 3.318,7.012 1.644,7.979C1.09,8.298 0.537,8.461 0,8.461Z" style="fill:none;fill-rule:nonzero;stroke:black;stroke-width:1px;"/>
        </g>
        <g transform="matrix(1,0,0,1,1113.05,641.674)">
            <path d="M0,8.46C-1.437,8.46 -2.443,7.299 -2.443,5.636C-2.443,3.713 -1.132,1.449 0.542,0.482C1.097,0.162 1.649,0 2.187,0C3.625,0 4.63,1.162 4.63,2.825C4.63,4.748 3.319,7.012 1.645,7.979C1.091,8.298 0.538,8.46 0,8.46Z" style="fill:none;fill-rule:nonzero;stroke:black;stroke-width:1px;"/>
        </g>
        <g transform="matrix(1,0,0,1,1113.05,659.425)">
            <path d="M0,8.459C-1.437,8.459 -2.443,7.298 -2.443,5.635C-2.443,3.712 -1.132,1.448 0.542,0.481C1.097,0.161 1.649,0 2.187,0C3.625,0 4.63,1.161 4.63,2.824C4.63,4.747 3.319,7.011 1.645,7.978C1.091,8.297 0.538,8.459 0,8.459Z" style="fill:none;fill-rule:nonzero;stroke:black;stroke-width:1px;"/>
        </g>
        <g transform="matrix(1,0,0,1,1113.05,677.176)">
            <path d="M0,8.46C-1.437,8.46 -2.443,7.298 -2.443,5.635C-2.443,3.711 -1.132,1.448 0.542,0.481C1.097,0.162 1.649,0 2.187,0C3.625,0 4.63,1.161 4.63,2.824C4.63,4.747 3.319,7.011 1.645,7.978C1.09,8.297 0.538,8.46 0,8.46Z" style="fill:none;fill-rule:nonzero;stroke:black;stroke-width:1px;"/>
        </g>
        <g transform="matrix(1,0,0,1,1113.05,694.926)">
            <path d="M0,8.461C-1.437,8.46 -2.443,7.298 -2.443,5.636C-2.443,3.712 -1.132,1.448 0.542,0.482C1.097,0.162 1.649,0 2.187,0C3.625,0 4.63,1.162 4.63,2.824C4.63,4.748 3.319,7.012 1.645,7.979C1.09,8.297 0.538,8.461 0,8.461Z" style="fill:none;fill-rule:nonzero;stroke:black;stroke-width:1px;"/>
        </g>
        <g transform="matrix(1,0,0,1,1102.84,655.613)">
            <path d="M0,8.461C-1.438,8.461 -2.443,7.299 -2.443,5.637C-2.443,3.713 -1.132,1.449 0.542,0.482C1.096,0.163 1.649,0 2.186,0C3.625,0 4.629,1.163 4.629,2.825C4.629,4.749 3.318,7.013 1.644,7.979C1.091,8.298 0.537,8.461 0.001,8.461L0,8.461Z" style="fill:none;fill-rule:nonzero;stroke:black;stroke-width:1px;"/>
        </g>
        <g transform="matrix(1,0,0,1,1102.84,673.365)">
            <path d="M0,8.46C-1.438,8.46 -2.443,7.299 -2.443,5.636C-2.443,3.712 -1.132,1.448 0.542,0.482C1.096,0.162 1.649,0 2.186,0C3.625,0 4.629,1.162 4.629,2.824C4.629,4.748 3.318,7.011 1.644,7.979C1.091,8.297 0.537,8.46 0.001,8.46L0,8.46Z" style="fill:none;fill-rule:nonzero;stroke:black;stroke-width:1px;"/>
        </g>
        <g transform="matrix(1,0,0,1,1102.84,691.115)">
            <path d="M0,8.46C-1.438,8.46 -2.443,7.299 -2.443,5.636C-2.443,3.713 -1.132,1.449 0.542,0.482C1.096,0.162 1.649,0 2.186,0C3.625,0 4.629,1.162 4.629,2.824C4.629,4.748 3.318,7.011 1.644,7.979C1.091,8.298 0.537,8.46 0,8.46Z" style="fill:none;fill-rule:nonzero;stroke:black;stroke-width:1px;"/>
        </g>
        <g transform="matrix(0.500118,0.865958,0.865958,-0.500118,1141.71,634.714)">
            <path d="M2.435,-1.405C3.77,-2.177 4.854,-1.544 4.854,0.009C4.854,1.562 3.771,3.446 2.435,4.217C1.098,4.989 0.015,4.357 0.015,2.804C0.015,1.25 1.098,-0.634 2.435,-1.405Z" style="fill:none;fill-rule:nonzero;stroke:black;stroke-width:1px;"/>
        </g>
        <g transform="matrix(0.500251,0.86588,0.86588,-0.500251,1141.71,652.465)">
            <path d="M2.434,-1.405C3.77,-2.177 4.854,-1.545 4.854,0.009C4.854,1.562 3.771,3.445 2.434,4.218C1.099,4.989 0.016,4.357 0.015,2.804C0.015,1.251 1.098,-0.633 2.434,-1.405Z" style="fill:none;fill-rule:nonzero;stroke:black;stroke-width:1px;"/>
        </g>
        <g transform="matrix(0.500118,0.865958,0.865958,-0.500118,1141.71,670.216)">
            <path d="M2.434,-1.406C3.77,-2.177 4.854,-1.544 4.855,0.008C4.854,1.562 3.77,3.445 2.434,4.217C1.099,4.988 0.016,4.356 0.015,2.804C0.015,1.25 1.098,-0.634 2.434,-1.406Z" style="fill:none;fill-rule:nonzero;stroke:black;stroke-width:1px;"/>
        </g>
        <g transform="matrix(0.500041,0.866002,0.866002,-0.500041,1131.59,632.516)">
            <path d="M2.435,-1.406C3.771,-2.178 4.855,-1.544 4.854,0.009C4.855,1.561 3.772,3.445 2.435,4.218C1.098,4.989 0.015,4.356 0.015,2.803C0.016,1.25 1.099,-0.635 2.435,-1.406Z" style="fill:none;fill-rule:nonzero;stroke:black;stroke-width:1px;"/>
        </g>
        <g transform="matrix(0.500041,0.866002,0.866002,-0.500041,1131.59,650.266)">
            <path d="M2.435,-1.406C3.771,-2.177 4.855,-1.544 4.855,0.009C4.855,1.562 3.772,3.446 2.435,4.218C1.1,4.989 0.015,4.356 0.015,2.803C0.016,1.251 1.1,-0.635 2.435,-1.406Z" style="fill:none;fill-rule:nonzero;stroke:black;stroke-width:1px;"/>
        </g>
        <g transform="matrix(0.500041,0.866002,0.866002,-0.500041,1131.59,668.017)">
            <path d="M2.435,-1.406C3.771,-2.177 4.855,-1.544 4.855,0.009C4.855,1.562 3.772,3.446 2.435,4.218C1.099,4.989 0.015,4.356 0.015,2.803C0.015,1.251 1.099,-0.634 2.435,-1.406Z" style="fill:none;fill-rule:nonzero;stroke:black;stroke-width:1px;"/>
        </g>
        <g transform="matrix(0.500041,0.866002,0.866002,-0.500041,1131.59,685.768)">
            <path d="M2.435,-1.406C3.771,-2.177 4.855,-1.544 4.855,0.009C4.855,1.562 3.771,3.446 2.435,4.218C1.099,4.989 0.015,4.356 0.015,2.803C0.015,1.251 1.099,-0.634 2.435,-1.406Z" style="fill:none;fill-rule:nonzero;stroke:black;stroke-width:1px;"/>
        </g>
        <g transform="matrix(0.500041,0.866002,0.866002,-0.500041,1121.37,646.456)">
            <path d="M2.435,-1.406C3.772,-2.177 4.855,-1.544 4.856,0.01C4.855,1.561 3.772,3.446 2.435,4.218C1.099,4.99 0.015,4.356 0.016,2.804C0.015,1.251 1.099,-0.634 2.435,-1.406Z" style="fill:none;fill-rule:nonzero;stroke:black;stroke-width:1px;"/>
        </g>
        <g transform="matrix(0.500041,0.866002,0.866002,-0.500041,1121.37,664.207)">
            <path d="M2.435,-1.406C3.772,-2.177 4.855,-1.544 4.856,0.01C4.855,1.561 3.772,3.446 2.435,4.218C1.099,4.99 0.015,4.356 0.016,2.804C0.015,1.251 1.099,-0.634 2.435,-1.406Z" style="fill:none;fill-rule:nonzero;stroke:black;stroke-width:1px;"/>
        </g>
        <g transform="matrix(0.500041,0.866002,0.866002,-0.500041,1121.37,681.957)">
            <path d="M2.435,-1.406C3.77,-2.177 4.855,-1.544 4.855,0.01C4.855,1.561 3.771,3.446 2.435,4.218C1.099,4.989 0.015,4.356 0.016,2.804C0.016,1.25 1.099,-0.634 2.435,-1.406Z" style="fill:none;fill-rule:nonzero;stroke:black;stroke-width:1px;"/>
        </g>
        <g transform="matrix(0.500041,0.866002,0.866002,-0.500041,1111.25,644.259)">
            <path d="M2.435,-1.406C3.771,-2.178 4.855,-1.545 4.856,0.009C4.855,1.561 3.772,3.445 2.435,4.218C1.099,4.989 0.015,4.356 0.015,2.804C0.015,1.25 1.098,-0.634 2.435,-1.406Z" style="fill:none;fill-rule:nonzero;stroke:black;stroke-width:1px;"/>
        </g>
        <g transform="matrix(0.500041,0.866002,0.866002,-0.500041,1111.25,662.009)">
            <path d="M2.435,-1.406C3.771,-2.178 4.855,-1.545 4.855,0.01C4.855,1.561 3.772,3.445 2.435,4.218C1.099,4.989 0.015,4.356 0.015,2.804C0.015,1.25 1.099,-0.635 2.435,-1.406Z" style="fill:none;fill-rule:nonzero;stroke:black;stroke-width:1px;"/>
        </g>
        <g transform="matrix(0.500041,0.866002,0.866002,-0.500041,1111.25,679.76)">
            <path d="M2.435,-1.406C3.771,-2.178 4.855,-1.545 4.855,0.01C4.855,1.561 3.772,3.445 2.435,4.218C1.098,4.989 0.015,4.356 0.015,2.804C0.015,1.25 1.099,-0.635 2.435,-1.406Z" style="fill:none;fill-rule:nonzero;stroke:black;stroke-width:1px;"/>
        </g>
        <g transform="matrix(0.500041,0.866002,0.866002,-0.500041,1111.25,697.51)">
            <path d="M2.435,-1.406C3.771,-2.178 4.855,-1.545 4.855,0.01C4.855,1.561 3.772,3.445 2.435,4.218C1.099,4.989 0.015,4.356 0.015,2.804C0.015,1.25 1.099,-0.635 2.435,-1.406Z" style="fill:none;fill-rule:nonzero;stroke:black;stroke-width:1px;"/>
        </g>
        <g transform="matrix(0.500041,0.866002,0.866002,-0.500041,1101.04,658.199)">
            <path d="M2.435,-1.406C3.771,-2.178 4.855,-1.544 4.854,0.009C4.854,1.561 3.772,3.445 2.435,4.218C1.098,4.989 0.015,4.355 0.015,2.803C0.016,1.25 1.099,-0.635 2.435,-1.406Z" style="fill:none;fill-rule:nonzero;stroke:black;stroke-width:1px;"/>
        </g>
        <g transform="matrix(0.499907,0.866079,0.866079,-0.499907,1101.04,675.949)">
            <path d="M2.435,-1.406C3.772,-2.177 4.856,-1.543 4.855,0.009C4.855,1.561 3.772,3.446 2.435,4.217C1.099,4.989 0.014,4.355 0.015,2.803C0.016,1.25 1.1,-0.635 2.435,-1.406Z" style="fill:none;fill-rule:nonzero;stroke:black;stroke-width:1px;"/>
        </g>
        <g transform="matrix(0.500041,0.866002,0.866002,-0.500041,1101.04,693.7)">
            <path d="M2.435,-1.406C3.771,-2.177 4.855,-1.544 4.855,0.009C4.855,1.561 3.771,3.446 2.435,4.218C1.099,4.989 0.015,4.356 0.015,2.803C0.015,1.251 1.099,-0.634 2.435,-1.406Z" style="fill:none;fill-rule:nonzero;stroke:black;stroke-width:1px;"/>
        </g>
        <g transform="matrix(1,0,0,1,1038.25,562.807)">
            <path d="M0,-0.001L0.001,-0.001L0.001,-3.202L-1.528,-3.202C-2.005,-3.673 -2.579,-4.119 -3.278,-4.523C-7.631,-7.037 -14.667,-7.049 -18.993,-4.552C-19.705,-4.141 -20.287,-3.684 -20.764,-3.202L-22.224,-3.202L-22.224,-0.001L-22.221,-0.001C-22.203,1.635 -21.111,3.27 -18.944,4.522C-14.591,7.035 -7.555,7.048 -3.229,4.55C-1.058,3.296 0.018,1.648 0,-0.001Z" style="fill:none;fill-rule:nonzero;stroke:black;stroke-width:1px;"/>
        </g>
        <g transform="matrix(0.499962,-0.866047,-0.866047,-0.499962,1035.02,555.053)">
            <path d="M-7.883,-4.551C-12.209,-2.054 -15.715,4.046 -15.716,9.074C-15.714,14.1 -12.208,16.15 -7.882,13.652C-3.556,11.154 -0.049,5.054 -0.05,0.028C-0.049,-4.999 -3.556,-7.049 -7.883,-4.551Z" style="fill:none;fill-rule:nonzero;stroke:black;stroke-width:1px;"/>
        </g>
        <g transform="matrix(0.499918,-0.866073,-0.866073,-0.499918,1029.69,558.691)">
            <path d="M-2.551,-1.473C-3.95,-0.665 -5.085,1.31 -5.085,2.936C-5.085,4.562 -3.949,5.225 -2.551,4.418C-1.151,3.609 -0.016,1.636 -0.016,0.009C-0.016,-1.618 -1.152,-2.28 -2.551,-1.473Z" style="fill:none;fill-rule:nonzero;stroke:black;stroke-width:1px;"/>
        </g>
        <g transform="matrix(0.499791,-0.866146,-0.866146,-0.499791,1029.69,407.014)">
            <path d="M-2.551,-1.473C-3.951,-0.665 -5.086,1.31 -5.084,2.936C-5.084,4.562 -3.948,5.225 -2.551,4.418C-1.15,3.609 -0.016,1.635 -0.016,0.008C-0.017,-1.619 -1.152,-2.281 -2.551,-1.473Z" style="fill:none;fill-rule:nonzero;stroke:black;stroke-width:1px;"/>
        </g>
        <g transform="matrix(-1,0,0,1,2054.28,-2325.35)">
            <rect x="1023.54" y="2733.84" width="7.192" height="151.677" style="fill:none;stroke:black;stroke-width:1px;"/>
        </g>
        <g transform="matrix(0.500001,-0.866025,-0.866025,-0.500001,1032.98,430.965)">
            <path d="M-5.837,-3.37C-9.041,-1.521 -11.638,2.996 -11.639,6.72C-11.638,10.441 -9.041,11.959 -5.837,10.11C-2.634,8.261 -0.037,3.744 -0.037,0.021C-0.037,-3.703 -2.634,-5.22 -5.837,-3.37Z" style="fill:none;fill-rule:nonzero;stroke:black;stroke-width:1px;"/>
        </g>
        <g transform="matrix(0.500001,-0.866025,-0.866025,-0.500001,1032.98,308.603)">
            <path d="M-5.837,-3.37C-9.041,-1.52 -11.638,2.996 -11.639,6.72C-11.638,10.441 -9.041,11.96 -5.837,10.11C-2.634,8.26 -0.036,3.744 -0.037,0.021C-0.036,-3.702 -2.634,-5.219 -5.837,-3.37Z" style="fill:none;fill-rule:nonzero;stroke:black;stroke-width:1px;"/>
        </g>
        <g transform="matrix(-1,0,0,1,2054.28,-2547.69)">
            <rect x="1018.91" y="2859.66" width="16.458" height="122.363" style="fill:none;stroke:black;stroke-width:1px;"/>
        </g>
        <g transform="matrix(-0.865971,0.500094,0.500094,0.865971,1125.28,1060.79)">
            <path d="M2.199,-34.131L6.468,-34.131L9.148,0.589L4.879,0.59L2.199,-34.131Z" style="fill:none;fill-rule:nonzero;stroke:black;stroke-width:1px;"/>
        </g>
        <g transform="matrix(-0.865981,0.500078,0.500078,0.865981,1123.73,1061.87)">
            <path d="M1.581,-25.058L4.748,-25.058L6.715,0.424L3.548,0.424L1.581,-25.058Z" style="fill:none;fill-rule:nonzero;stroke:black;stroke-width:1px;"/>
        </g>
        <g transform="matrix(-0.86603,0.499993,0.499993,0.86603,1119.58,1080.06)">
            <path d="M-9.697,-13.253L-5.427,-13.253L3.551,-2.598L-0.719,-2.598L-9.697,-13.253Z" style="fill:none;fill-rule:nonzero;stroke:black;stroke-width:1px;"/>
        </g>
        <g transform="matrix(-0.865981,0.500078,0.500078,0.865981,1119.73,1078.14)">
            <path d="M-8.052,-11.662L-4.885,-11.662L3.125,-2.158L-0.042,-2.157L-8.052,-11.662Z" style="fill:none;fill-rule:nonzero;stroke:black;stroke-width:1px;"/>
        </g>
        <g transform="matrix(-0.865971,0.500094,0.500094,0.865971,1132.19,1056.8)">
            <path d="M2.199,-34.131L6.468,-34.131L9.147,0.589L4.878,0.589L2.199,-34.131Z" style="fill:none;fill-rule:nonzero;stroke:black;stroke-width:1px;"/>
        </g>
        <g transform="matrix(-0.865981,0.500078,0.500078,0.865981,1130.65,1057.88)">
            <path d="M1.581,-25.057L4.748,-25.057L6.714,0.424L3.548,0.424L1.581,-25.057Z" style="fill:none;fill-rule:nonzero;stroke:black;stroke-width:1px;"/>
        </g>
        <g transform="matrix(-0.865971,0.500094,0.500094,0.865971,1126.49,1076.07)">
            <path d="M-9.698,-13.252L-5.428,-13.252L3.552,-2.599L-0.718,-2.599L-9.698,-13.252Z" style="fill:none;fill-rule:nonzero;stroke:black;stroke-width:1px;"/>
        </g>
        <g transform="matrix(-0.865902,0.500214,0.500214,0.865902,1126.65,1074.15)">
            <path d="M-8.053,-11.661L-4.886,-11.661L3.126,-2.159L-0.042,-2.158L-8.053,-11.661Z" style="fill:none;fill-rule:nonzero;stroke:black;stroke-width:1px;"/>
        </g>
        <g transform="matrix(-0.866072,0.499918,0.499918,0.866072,1139.11,1052.8)">
            <path d="M2.202,-34.132L6.471,-34.132L9.143,0.59L4.875,0.589L2.202,-34.132Z" style="fill:none;fill-rule:nonzero;stroke:black;stroke-width:1px;"/>
        </g>
        <g transform="matrix(-0.866117,0.499841,0.499841,0.866117,1137.56,1053.89)">
            <path d="M1.585,-25.058L4.752,-25.058L6.712,0.425L3.544,0.424L1.585,-25.058Z" style="fill:none;fill-rule:nonzero;stroke:black;stroke-width:1px;"/>
        </g>
        <g transform="matrix(-0.866014,0.50002,0.50002,0.866014,1133.41,1072.08)">
            <path d="M-9.697,-13.253L-5.43,-13.253L3.551,-2.599L-0.719,-2.598L-9.697,-13.253Z" style="fill:none;fill-rule:nonzero;stroke:black;stroke-width:1px;"/>
        </g>
        <g transform="matrix(-0.866117,0.499841,0.499841,0.866117,1133.56,1070.15)">
            <path d="M-8.051,-11.664L-4.884,-11.664L3.124,-2.156L-0.043,-2.157L-8.051,-11.664Z" style="fill:none;fill-rule:nonzero;stroke:black;stroke-width:1px;"/>
        </g>
        <g transform="matrix(-0.865971,0.500094,0.500094,0.865971,1146.03,1048.81)">
            <path d="M2.199,-34.131L6.468,-34.131L9.147,0.59L4.879,0.59L2.199,-34.131Z" style="fill:none;fill-rule:nonzero;stroke:black;stroke-width:1px;"/>
        </g>
        <g transform="matrix(-0.866117,0.499841,0.499841,0.866117,1144.48,1049.89)">
            <path d="M1.585,-25.058L4.752,-25.058L6.712,0.425L3.545,0.425L1.585,-25.058Z" style="fill:none;fill-rule:nonzero;stroke:black;stroke-width:1px;"/>
        </g>
        <g transform="matrix(-0.866014,0.50002,0.50002,0.866014,1140.33,1068.08)">
            <path d="M-9.697,-13.253L-5.429,-13.253L3.551,-2.598L-0.72,-2.598L-9.697,-13.253Z" style="fill:none;fill-rule:nonzero;stroke:black;stroke-width:1px;"/>
        </g>
        <g transform="matrix(-0.866117,0.499841,0.499841,0.866117,1140.48,1066.16)">
            <path d="M-8.051,-11.663L-4.884,-11.663L3.124,-2.156L-0.043,-2.156L-8.051,-11.663Z" style="fill:none;fill-rule:nonzero;stroke:black;stroke-width:1px;"/>
        </g>
        <g transform="matrix(1,0,0,1,1087.36,885.184)">
            <path d="M0,-16.733C-0.029,-17.632 -0.551,-18.34 -1.254,-18.703L-1.251,-18.707L-6.275,-21.294C-6.351,-21.338 -6.428,-21.379 -6.509,-21.414C-7.148,-21.702 -7.917,-21.708 -8.607,-21.31L-21.839,-13.67C-22.601,-13.231 -23.175,-12.559 -23.506,-11.778L-23.509,-11.78L-23.542,-11.701C-23.547,-11.689 -23.553,-11.676 -23.558,-11.664L-25.812,-6.295L-25.812,-6.294C-26.007,-5.798 -26.103,-5.261 -26.084,-4.712L-25.852,2.178C-25.793,3.923 -23.896,4.975 -22.385,4.103L-17.474,1.267L-17.399,1.306L-17.393,1.298C-16.704,1.744 -15.793,1.84 -14.985,1.373L-1.753,-6.267C-0.481,-7.001 0.282,-8.376 0.232,-9.844L0,-16.733Z" style="fill:none;fill-rule:nonzero;stroke:black;stroke-width:1px;"/>
        </g>
        <g transform="matrix(1,0,0,1,1086.05,874.461)">
            <path d="M0,4.16C1.005,3.385 1.589,2.168 1.546,0.879L1.313,-6.01C1.256,-7.755 -0.641,-8.808 -2.152,-7.935L-15.385,-0.296C-16.656,0.438 -17.42,1.814 -17.37,3.282L-17.139,10.171C-17.08,11.915 -15.183,12.968 -13.672,12.096L-12.897,11.648" style="fill:none;fill-rule:nonzero;stroke:black;stroke-width:1px;"/>
        </g>
        <g transform="matrix(1,0,0,1,1087.36,906.625)">
            <path d="M0,-16.733C-0.029,-17.632 -0.551,-18.34 -1.254,-18.703L-1.251,-18.707L-6.275,-21.294C-6.351,-21.338 -6.428,-21.379 -6.509,-21.414C-7.148,-21.702 -7.917,-21.708 -8.607,-21.31L-21.839,-13.67C-22.601,-13.231 -23.175,-12.559 -23.506,-11.778L-23.509,-11.78L-23.542,-11.701C-23.547,-11.689 -23.553,-11.676 -23.558,-11.664L-25.812,-6.295L-25.812,-6.294C-26.007,-5.798 -26.103,-5.261 -26.084,-4.712L-25.852,2.178C-25.793,3.923 -23.896,4.975 -22.385,4.103L-17.474,1.267L-17.399,1.306L-17.393,1.298C-16.704,1.744 -15.793,1.84 -14.985,1.373L-1.753,-6.267C-0.481,-7.001 0.282,-8.376 0.232,-9.844L0,-16.733Z" style="fill:none;fill-rule:nonzero;stroke:black;stroke-width:1px;"/>
        </g>
        <g transform="matrix(1,0,0,1,1086.05,895.902)">
            <path d="M0,4.16C1.005,3.385 1.589,2.168 1.546,0.879L1.313,-6.01C1.256,-7.755 -0.641,-8.808 -2.152,-7.935L-15.385,-0.296C-16.656,0.438 -17.42,1.814 -17.37,3.282L-17.139,10.171C-17.08,11.915 -15.183,12.968 -13.672,12.096L-12.897,11.648" style="fill:none;fill-rule:nonzero;stroke:black;stroke-width:1px;"/>
        </g>
        <g transform="matrix(1,0,0,1,1087.36,928.922)">
            <path d="M0,-16.733C-0.029,-17.632 -0.551,-18.34 -1.254,-18.703L-1.251,-18.707L-6.275,-21.294C-6.351,-21.338 -6.428,-21.379 -6.509,-21.414C-7.148,-21.702 -7.917,-21.708 -8.607,-21.31L-21.839,-13.67C-22.601,-13.231 -23.175,-12.559 -23.506,-11.778L-23.509,-11.78L-23.542,-11.701C-23.547,-11.689 -23.553,-11.676 -23.558,-11.664L-25.812,-6.295L-25.812,-6.294C-26.007,-5.798 -26.103,-5.261 -26.084,-4.712L-25.852,2.178C-25.793,3.923 -23.896,4.975 -22.385,4.103L-17.474,1.267L-17.399,1.306L-17.393,1.298C-16.704,1.744 -15.793,1.84 -14.985,1.373L-1.753,-6.267C-0.481,-7.001 0.282,-8.376 0.232,-9.844L0,-16.733Z" style="fill:none;fill-rule:nonzero;stroke:black;stroke-width:1px;"/>
        </g>
        <g transform="matrix(1,0,0,1,1086.05,918.199)">
            <path d="M0,4.16C1.005,3.385 1.589,2.168 1.546,0.879L1.313,-6.01C1.256,-7.755 -0.641,-8.808 -2.152,-7.935L-15.385,-0.296C-16.656,0.438 -17.42,1.814 -17.37,3.282L-17.139,10.171C-17.08,11.915 -15.183,12.968 -13.672,12.096L-12.897,11.648" style="fill:none;fill-rule:nonzero;stroke:black;stroke-width:1px;"/>
        </g>
        <g transform="matrix(1,0,0,1,1089.46,951.42)">
            <path d="M0,-16.733C-0.029,-17.631 -0.551,-18.34 -1.254,-18.703L-1.251,-18.706L-6.275,-21.294C-6.351,-21.338 -6.428,-21.378 -6.508,-21.414L-6.509,-21.414C-7.148,-21.702 -7.917,-21.708 -8.607,-21.309L-21.839,-13.67C-22.601,-13.23 -23.174,-12.558 -23.506,-11.778L-23.509,-11.779L-23.542,-11.701C-23.547,-11.689 -23.553,-11.676 -23.558,-11.663L-25.812,-6.295L-25.812,-6.294C-26.007,-5.798 -26.103,-5.261 -26.084,-4.711L-25.852,2.178C-25.793,3.923 -23.896,4.975 -22.385,4.103L-17.474,1.267L-17.399,1.306L-17.393,1.298C-16.704,1.745 -15.793,1.84 -14.984,1.373L-1.753,-6.267C-0.481,-7 0.282,-8.376 0.233,-9.843L0,-16.733Z" style="fill:none;fill-rule:nonzero;stroke:black;stroke-width:1px;"/>
        </g>
        <g transform="matrix(1,0,0,1,1088.14,940.7)">
            <path d="M0,4.158C1.004,3.384 1.589,2.167 1.546,0.877L1.313,-6.012C1.255,-7.756 -0.642,-8.809 -2.153,-7.937L-15.386,-0.297C-16.657,0.437 -17.421,1.812 -17.371,3.28L-17.14,10.169C-17.081,11.913 -15.184,12.967 -13.672,12.094L-12.898,11.647" style="fill:none;fill-rule:nonzero;stroke:black;stroke-width:1px;"/>
        </g>
        <g transform="matrix(1,0,0,1,1116.3,853.835)">
            <path d="M0,78.27L-17.751,88.519C-19.778,89.689 -22.323,88.277 -22.402,85.937L-25.058,5.153C-25.125,3.184 -24.101,1.339 -22.395,0.354L-4.643,-9.895C-2.615,-11.065 -0.071,-9.653 0.008,-7.313L2.664,73.471C2.73,75.44 1.706,77.285 0,78.27ZM1.714,-9.676C1.627,-12.259 -1.181,-13.818 -3.419,-12.526L-23.006,-1.217C-24.889,-0.13 -26.019,1.906 -25.946,4.079L-23.122,87.947C-23.035,90.53 -20.227,92.088 -17.989,90.797L1.599,79.488C3.48,78.401 4.611,76.365 4.538,74.192L1.714,-9.676Z" style="fill:none;fill-rule:nonzero;stroke:black;stroke-width:1px;"/>
        </g>
        <g transform="matrix(1,0,0,1,1118.03,869.051)">
            <path d="M0,-16.733C-0.03,-17.632 -0.552,-18.34 -1.254,-18.703L-1.252,-18.706L-6.275,-21.294C-6.352,-21.338 -6.429,-21.379 -6.509,-21.414L-6.51,-21.414C-7.149,-21.702 -7.918,-21.708 -8.608,-21.309L-21.84,-13.67C-22.602,-13.231 -23.175,-12.559 -23.507,-11.778L-23.51,-11.779L-23.543,-11.701C-23.548,-11.689 -23.554,-11.676 -23.559,-11.664L-25.812,-6.295L-25.813,-6.295L-25.813,-6.294C-26.008,-5.798 -26.104,-5.261 -26.085,-4.711L-25.853,2.178C-25.794,3.923 -23.897,4.975 -22.385,4.103L-17.475,1.267L-17.399,1.306L-17.394,1.298C-16.705,1.744 -15.794,1.84 -14.985,1.373L-1.754,-6.267C-0.481,-7.001 0.281,-8.376 0.232,-9.844L0,-16.733Z" style="fill:none;fill-rule:nonzero;stroke:black;stroke-width:1px;"/>
        </g>
        <g transform="matrix(1,0,0,1,1116.72,858.329)">
            <path d="M0,4.16C1.004,3.386 1.589,2.168 1.546,0.879L1.313,-6.01C1.255,-7.755 -0.642,-8.808 -2.153,-7.935L-15.386,-0.295C-16.657,0.439 -17.421,1.814 -17.371,3.282L-17.14,10.171C-17.08,11.915 -15.184,12.968 -13.672,12.096L-12.898,11.649" style="fill:none;fill-rule:nonzero;stroke:black;stroke-width:1px;"/>
        </g>
        <g transform="matrix(1,0,0,1,1118.03,890.492)">
            <path d="M0,-16.733C-0.03,-17.632 -0.552,-18.34 -1.254,-18.703L-1.252,-18.706L-6.275,-21.294C-6.352,-21.338 -6.429,-21.379 -6.509,-21.414L-6.51,-21.414C-7.149,-21.702 -7.918,-21.708 -8.608,-21.309L-21.84,-13.67C-22.602,-13.231 -23.175,-12.559 -23.507,-11.778L-23.51,-11.779L-23.543,-11.701C-23.548,-11.689 -23.554,-11.676 -23.559,-11.664L-25.812,-6.295L-25.813,-6.295L-25.813,-6.294C-26.008,-5.798 -26.104,-5.261 -26.085,-4.711L-25.853,2.178C-25.794,3.923 -23.897,4.975 -22.385,4.103L-17.475,1.267L-17.399,1.306L-17.394,1.298C-16.705,1.744 -15.794,1.84 -14.985,1.373L-1.754,-6.267C-0.481,-7.001 0.281,-8.376 0.232,-9.844L0,-16.733Z" style="fill:none;fill-rule:nonzero;stroke:black;stroke-width:1px;"/>
        </g>
        <g transform="matrix(1,0,0,1,1116.72,879.77)">
            <path d="M0,4.16C1.004,3.386 1.589,2.168 1.546,0.879L1.313,-6.01C1.255,-7.755 -0.642,-8.808 -2.153,-7.935L-15.386,-0.295C-16.657,0.439 -17.421,1.814 -17.371,3.282L-17.14,10.171C-17.08,11.915 -15.184,12.968 -13.672,12.096L-12.898,11.649" style="fill:none;fill-rule:nonzero;stroke:black;stroke-width:1px;"/>
        </g>
        <g transform="matrix(1,0,0,1,1118.03,912.79)">
            <path d="M0,-16.733C-0.03,-17.632 -0.552,-18.34 -1.254,-18.703L-1.252,-18.706L-6.275,-21.294C-6.352,-21.338 -6.429,-21.379 -6.509,-21.414L-6.51,-21.414C-7.149,-21.702 -7.918,-21.708 -8.608,-21.309L-21.84,-13.67C-22.602,-13.231 -23.175,-12.559 -23.507,-11.778L-23.51,-11.779L-23.543,-11.701C-23.548,-11.689 -23.554,-11.676 -23.559,-11.664L-25.812,-6.295L-25.813,-6.295L-25.813,-6.294C-26.008,-5.798 -26.104,-5.261 -26.085,-4.711L-25.853,2.178C-25.794,3.923 -23.897,4.975 -22.385,4.103L-17.475,1.267L-17.399,1.306L-17.394,1.298C-16.705,1.744 -15.794,1.84 -14.985,1.373L-1.754,-6.267C-0.481,-7.001 0.281,-8.376 0.232,-9.844L0,-16.733Z" style="fill:none;fill-rule:nonzero;stroke:black;stroke-width:1px;"/>
        </g>
        <g transform="matrix(1,0,0,1,1116.72,902.067)">
            <path d="M0,4.16C1.004,3.386 1.589,2.168 1.546,0.879L1.313,-6.01C1.255,-7.755 -0.642,-8.808 -2.153,-7.935L-15.386,-0.295C-16.657,0.439 -17.421,1.814 -17.371,3.282L-17.14,10.171C-17.08,11.915 -15.184,12.968 -13.672,12.096L-12.898,11.649" style="fill:none;fill-rule:nonzero;stroke:black;stroke-width:1px;"/>
        </g>
        <g transform="matrix(1,0,0,1,1120.13,935.289)">
            <path d="M0,-16.733C-0.03,-17.632 -0.552,-18.34 -1.254,-18.703L-1.251,-18.707L-6.275,-21.294C-6.352,-21.338 -6.429,-21.379 -6.509,-21.414L-6.51,-21.414C-7.149,-21.702 -7.918,-21.708 -8.608,-21.31L-21.84,-13.67C-22.602,-13.231 -23.175,-12.559 -23.507,-11.778L-23.51,-11.78L-23.543,-11.701C-23.548,-11.689 -23.554,-11.676 -23.559,-11.664L-25.812,-6.295L-25.813,-6.295L-25.813,-6.294C-26.008,-5.798 -26.104,-5.261 -26.085,-4.712L-25.853,2.178C-25.793,3.923 -23.897,4.975 -22.385,4.103L-17.475,1.267L-17.399,1.306L-17.394,1.298C-16.705,1.744 -15.794,1.84 -14.985,1.373L-1.754,-6.267C-0.481,-7.001 0.281,-8.376 0.232,-9.844L0,-16.733Z" style="fill:none;fill-rule:nonzero;stroke:black;stroke-width:1px;"/>
        </g>
        <g transform="matrix(1,0,0,1,1118.81,924.566)">
            <path d="M0,4.16C1.005,3.385 1.589,2.168 1.546,0.879L1.313,-6.01C1.255,-7.755 -0.642,-8.808 -2.153,-7.935L-15.386,-0.296C-16.657,0.438 -17.42,1.814 -17.371,3.282L-17.14,10.171C-17.08,11.915 -15.184,12.968 -13.672,12.096L-12.898,11.648" style="fill:none;fill-rule:nonzero;stroke:black;stroke-width:1px;"/>
        </g>
        <g transform="matrix(1,0,0,1,1146.92,834.332)">
            <path d="M0,78.27L-17.752,88.519C-19.779,89.689 -22.323,88.277 -22.402,85.937L-25.058,5.153C-25.125,3.184 -24.101,1.338 -22.395,0.354L-4.644,-9.895C-2.616,-11.065 -0.071,-9.653 0.008,-7.313L2.664,73.471C2.73,75.439 1.706,77.285 0,78.27ZM1.714,-9.676C1.627,-12.259 -1.181,-13.818 -3.419,-12.526L-23.006,-1.218C-24.889,-0.13 -26.019,1.906 -25.946,4.078L-23.122,87.947C-23.035,90.53 -20.228,92.088 -17.989,90.797L1.599,79.488C3.48,78.401 4.611,76.365 4.538,74.192L1.714,-9.676Z" style="fill:none;fill-rule:nonzero;stroke:black;stroke-width:1px;"/>
        </g>
        <g transform="matrix(1,0,0,1,1148.65,849.547)">
            <path d="M0,-16.733C-0.03,-17.632 -0.552,-18.34 -1.254,-18.703L-1.252,-18.706L-6.276,-21.294C-6.352,-21.338 -6.429,-21.379 -6.509,-21.414L-6.51,-21.414C-7.149,-21.702 -7.918,-21.708 -8.608,-21.309L-21.84,-13.67C-22.602,-13.231 -23.175,-12.559 -23.507,-11.778L-23.51,-11.78L-23.543,-11.701C-23.548,-11.689 -23.554,-11.676 -23.559,-11.664L-25.812,-6.295L-25.813,-6.295L-25.813,-6.294C-26.008,-5.798 -26.104,-5.261 -26.085,-4.712L-25.853,2.178C-25.794,3.923 -23.897,4.975 -22.386,4.103L-17.475,1.267L-17.4,1.306L-17.394,1.298C-16.705,1.744 -15.794,1.84 -14.985,1.373L-1.754,-6.267C-0.482,-7.001 0.281,-8.376 0.232,-9.844L0,-16.733Z" style="fill:none;fill-rule:nonzero;stroke:black;stroke-width:1px;"/>
        </g>
        <g transform="matrix(1,0,0,1,1147.34,838.825)">
            <path d="M0,4.16C1.004,3.385 1.589,2.168 1.546,0.879L1.313,-6.01C1.255,-7.755 -0.642,-8.808 -2.153,-7.935L-15.386,-0.296C-16.657,0.438 -17.421,1.814 -17.371,3.282L-17.14,10.171C-17.081,11.915 -15.184,12.968 -13.672,12.096L-12.898,11.648" style="fill:none;fill-rule:nonzero;stroke:black;stroke-width:1px;"/>
        </g>
        <g transform="matrix(1,0,0,1,1148.65,870.988)">
            <path d="M0,-16.733C-0.03,-17.632 -0.552,-18.34 -1.254,-18.703L-1.252,-18.706L-6.276,-21.294C-6.352,-21.338 -6.429,-21.379 -6.509,-21.414L-6.51,-21.414C-7.149,-21.702 -7.918,-21.708 -8.608,-21.309L-21.84,-13.67C-22.602,-13.231 -23.175,-12.559 -23.507,-11.778L-23.51,-11.78L-23.543,-11.701C-23.548,-11.689 -23.554,-11.676 -23.559,-11.664L-25.812,-6.295L-25.813,-6.295L-25.813,-6.294C-26.008,-5.798 -26.104,-5.261 -26.085,-4.712L-25.853,2.178C-25.794,3.923 -23.897,4.975 -22.386,4.103L-17.475,1.267L-17.4,1.306L-17.394,1.298C-16.705,1.744 -15.794,1.84 -14.985,1.373L-1.754,-6.267C-0.482,-7.001 0.281,-8.376 0.232,-9.844L0,-16.733Z" style="fill:none;fill-rule:nonzero;stroke:black;stroke-width:1px;"/>
        </g>
        <g transform="matrix(1,0,0,1,1147.34,860.266)">
            <path d="M0,4.16C1.004,3.385 1.589,2.168 1.546,0.879L1.313,-6.01C1.255,-7.755 -0.642,-8.808 -2.153,-7.935L-15.386,-0.296C-16.657,0.438 -17.421,1.814 -17.371,3.282L-17.14,10.171C-17.081,11.915 -15.184,12.968 -13.672,12.096L-12.898,11.648" style="fill:none;fill-rule:nonzero;stroke:black;stroke-width:1px;"/>
        </g>
        <g transform="matrix(1,0,0,1,1148.65,893.286)">
            <path d="M0,-16.733C-0.03,-17.632 -0.552,-18.34 -1.254,-18.703L-1.252,-18.706L-6.276,-21.294C-6.352,-21.338 -6.429,-21.379 -6.509,-21.414L-6.51,-21.414C-7.149,-21.702 -7.918,-21.708 -8.608,-21.309L-21.84,-13.67C-22.602,-13.231 -23.175,-12.559 -23.507,-11.778L-23.51,-11.78L-23.543,-11.701C-23.548,-11.689 -23.554,-11.676 -23.559,-11.664L-25.812,-6.295L-25.813,-6.295L-25.813,-6.294C-26.008,-5.798 -26.104,-5.261 -26.085,-4.712L-25.853,2.178C-25.794,3.923 -23.897,4.975 -22.386,4.103L-17.475,1.267L-17.4,1.306L-17.394,1.298C-16.705,1.744 -15.794,1.84 -14.985,1.373L-1.754,-6.267C-0.482,-7.001 0.281,-8.376 0.232,-9.844L0,-16.733Z" style="fill:none;fill-rule:nonzero;stroke:black;stroke-width:1px;"/>
        </g>
        <g transform="matrix(1,0,0,1,1147.34,882.563)">
            <path d="M0,4.16C1.004,3.385 1.589,2.168 1.546,0.879L1.313,-6.01C1.255,-7.755 -0.642,-8.808 -2.153,-7.935L-15.386,-0.296C-16.657,0.438 -17.421,1.814 -17.371,3.282L-17.14,10.171C-17.081,11.915 -15.184,12.968 -13.672,12.096L-12.898,11.648" style="fill:none;fill-rule:nonzero;stroke:black;stroke-width:1px;"/>
        </g>
        <g transform="matrix(1,0,0,1,1150.74,915.784)">
            <path d="M0,-16.733C-0.03,-17.631 -0.552,-18.34 -1.254,-18.703L-1.252,-18.706L-6.276,-21.294C-6.352,-21.338 -6.429,-21.378 -6.509,-21.414L-6.51,-21.414C-7.149,-21.702 -7.918,-21.708 -8.608,-21.309L-21.84,-13.67C-22.602,-13.23 -23.175,-12.558 -23.507,-11.778L-23.51,-11.779L-23.543,-11.701C-23.548,-11.688 -23.554,-11.676 -23.559,-11.663L-25.812,-6.295L-25.813,-6.294C-26.008,-5.798 -26.104,-5.261 -26.085,-4.711L-25.853,2.178C-25.794,3.923 -23.897,4.975 -22.385,4.103L-17.475,1.267L-17.399,1.306L-17.394,1.298C-16.705,1.745 -15.794,1.84 -14.985,1.373L-1.754,-6.267C-0.481,-7 0.281,-8.376 0.232,-9.843L0,-16.733Z" style="fill:none;fill-rule:nonzero;stroke:black;stroke-width:1px;"/>
        </g>
        <g transform="matrix(1,0,0,1,1149.43,905.064)">
            <path d="M0,4.158C1.004,3.384 1.589,2.167 1.546,0.877L1.313,-6.012C1.255,-7.756 -0.642,-8.809 -2.153,-7.937L-15.386,-0.297C-16.657,0.437 -17.421,1.812 -17.371,3.28L-17.14,10.169C-17.081,11.913 -15.184,12.967 -13.672,12.094L-12.898,11.647" style="fill:none;fill-rule:nonzero;stroke:black;stroke-width:1px;"/>
        </g>
        <g transform="matrix(1,0,0,1,1150.74,950.812)">
            <path d="M0,-16.733C-0.03,-17.632 -0.552,-18.34 -1.254,-18.703L-1.252,-18.707L-6.276,-21.294C-6.352,-21.338 -6.429,-21.379 -6.509,-21.414L-6.51,-21.414C-7.149,-21.702 -7.918,-21.708 -8.608,-21.31L-21.84,-13.67C-22.602,-13.231 -23.175,-12.559 -23.507,-11.778L-23.51,-11.78L-23.543,-11.701C-23.548,-11.689 -23.554,-11.676 -23.559,-11.664L-25.812,-6.295L-25.813,-6.295L-25.813,-6.294C-26.008,-5.799 -26.104,-5.261 -26.085,-4.712L-25.853,2.178C-25.794,3.923 -23.897,4.975 -22.385,4.103L-17.475,1.267L-17.399,1.306L-17.394,1.298C-16.705,1.744 -15.794,1.84 -14.985,1.373L-1.754,-6.267C-0.481,-7.001 0.281,-8.376 0.232,-9.844L0,-16.733Z" style="fill:none;fill-rule:nonzero;stroke:black;stroke-width:1px;"/>
        </g>
        <g transform="matrix(1,0,0,1,1149.43,940.09)">
            <path d="M0,4.158C1.004,3.384 1.589,2.167 1.546,0.877L1.313,-6.012C1.255,-7.756 -0.642,-8.809 -2.153,-7.937L-15.386,-0.297C-16.657,0.437 -17.421,1.812 -17.371,3.28L-17.14,10.17C-17.081,11.913 -15.184,12.967 -13.672,12.094L-12.898,11.647" style="fill:none;fill-rule:nonzero;stroke:black;stroke-width:1px;"/>
        </g>
        <g transform="matrix(1,0,0,1,1150.74,971.622)">
            <path d="M0,-16.733C-0.03,-17.631 -0.552,-18.34 -1.254,-18.703L-1.252,-18.706L-6.276,-21.294C-6.352,-21.338 -6.429,-21.378 -6.509,-21.414L-6.51,-21.414C-7.149,-21.702 -7.918,-21.708 -8.608,-21.309L-21.84,-13.67C-22.602,-13.23 -23.175,-12.558 -23.507,-11.778L-23.51,-11.779L-23.543,-11.701C-23.548,-11.688 -23.554,-11.676 -23.559,-11.663L-25.812,-6.295L-25.813,-6.294C-26.008,-5.798 -26.104,-5.261 -26.085,-4.711L-25.853,2.178C-25.794,3.923 -23.897,4.975 -22.385,4.103L-17.475,1.267L-17.399,1.306L-17.394,1.298C-16.705,1.745 -15.794,1.84 -14.985,1.373L-1.754,-6.267C-0.481,-7 0.281,-8.376 0.232,-9.843L0,-16.733Z" style="fill:none;fill-rule:nonzero;stroke:black;stroke-width:1px;"/>
        </g>
        <g transform="matrix(1,0,0,1,1149.43,960.901)">
            <path d="M0,4.158C1.004,3.384 1.589,2.167 1.546,0.877L1.313,-6.012C1.255,-7.756 -0.642,-8.809 -2.153,-7.937L-15.386,-0.297C-16.657,0.437 -17.421,1.812 -17.371,3.28L-17.14,10.17C-17.081,11.913 -15.184,12.967 -13.672,12.094L-12.898,11.647" style="fill:none;fill-rule:nonzero;stroke:black;stroke-width:1px;"/>
        </g>
        <g transform="matrix(1,0,0,1,1118.48,954.659)">
            <path d="M0,29.36L-17.751,39.609C-19.779,40.779 -22.324,39.367 -22.402,37.027L-23.525,3.679C-23.591,1.711 -22.567,-0.135 -20.861,-1.12L-3.11,-11.369C-1.082,-12.539 1.462,-11.126 1.541,-8.786L2.664,24.561C2.729,26.53 1.705,28.376 0,29.36ZM3.536,-10.596C3.449,-13.179 0.642,-14.738 -1.597,-13.445L-21.184,-2.137C-23.066,-1.05 -24.197,0.986 -24.124,3.159L-22.885,39.957C-22.798,42.539 -19.99,44.098 -17.752,42.806L1.835,31.497C3.718,30.411 4.848,28.375 4.774,26.202L3.536,-10.596Z" style="fill:none;fill-rule:nonzero;stroke:black;stroke-width:1px;"/>
        </g>
        <g transform="matrix(1,0,0,1,1120.96,969.174)">
            <path d="M0,-16.733C-0.03,-17.632 -0.552,-18.34 -1.254,-18.703L-1.251,-18.706L-6.275,-21.294C-6.352,-21.338 -6.429,-21.379 -6.509,-21.414L-6.51,-21.414C-7.148,-21.702 -7.918,-21.708 -8.607,-21.309L-21.84,-13.67C-22.601,-13.231 -23.175,-12.559 -23.506,-11.778L-23.51,-11.779L-23.542,-11.701C-23.547,-11.689 -23.553,-11.676 -23.559,-11.664L-25.812,-6.295L-25.813,-6.295L-25.813,-6.294C-26.007,-5.798 -26.103,-5.261 -26.085,-4.711L-25.853,2.178C-25.793,3.923 -23.897,4.975 -22.385,4.103L-17.474,1.267L-17.399,1.306L-17.394,1.298C-16.704,1.744 -15.794,1.84 -14.985,1.373L-1.754,-6.267C-0.481,-7.001 0.282,-8.376 0.232,-9.844L0,-16.733Z" style="fill:none;fill-rule:nonzero;stroke:black;stroke-width:1px;"/>
        </g>
        <g transform="matrix(1,0,0,1,1119.64,958.452)">
            <path d="M0,4.16C1.005,3.386 1.589,2.168 1.546,0.879L1.313,-6.01C1.256,-7.755 -0.642,-8.808 -2.153,-7.935L-15.386,-0.295C-16.656,0.439 -17.42,1.814 -17.371,3.282L-17.139,10.171C-17.08,11.915 -15.184,12.968 -13.672,12.096L-12.898,11.649" style="fill:none;fill-rule:nonzero;stroke:black;stroke-width:1px;"/>
        </g>
        <g transform="matrix(1,0,0,1,1120.96,989.985)">
            <path d="M0,-16.733C-0.03,-17.632 -0.552,-18.34 -1.254,-18.703L-1.251,-18.706L-6.275,-21.294C-6.352,-21.338 -6.429,-21.379 -6.509,-21.414L-6.51,-21.414C-7.148,-21.702 -7.918,-21.708 -8.607,-21.309L-21.84,-13.67C-22.601,-13.231 -23.175,-12.559 -23.506,-11.778L-23.51,-11.78L-23.542,-11.701C-23.547,-11.689 -23.553,-11.676 -23.559,-11.664L-25.812,-6.295L-25.813,-6.295L-25.813,-6.294C-26.007,-5.798 -26.103,-5.261 -26.085,-4.712L-25.853,2.178C-25.793,3.923 -23.897,4.975 -22.385,4.103L-17.474,1.267L-17.399,1.306L-17.394,1.298C-16.704,1.744 -15.794,1.84 -14.985,1.373L-1.754,-6.267C-0.481,-7.001 0.282,-8.376 0.232,-9.844L0,-16.733Z" style="fill:none;fill-rule:nonzero;stroke:black;stroke-width:1px;"/>
        </g>
        <g transform="matrix(1,0,0,1,1119.64,979.262)">
            <path d="M0,4.16C1.005,3.385 1.589,2.168 1.546,0.879L1.313,-6.01C1.256,-7.755 -0.642,-8.808 -2.153,-7.935L-15.386,-0.296C-16.656,0.438 -17.42,1.814 -17.371,3.282L-17.139,10.171C-17.08,11.915 -15.184,12.968 -13.672,12.096L-12.898,11.648" style="fill:none;fill-rule:nonzero;stroke:black;stroke-width:1px;"/>
        </g>
        <g transform="matrix(1,0,0,1,1087.81,972.107)">
            <path d="M0,29.36L-17.75,39.609C-19.778,40.779 -22.323,39.367 -22.402,37.027L-23.524,3.679C-23.591,1.711 -22.566,-0.135 -20.86,-1.12L-3.109,-11.369C-1.081,-12.539 1.463,-11.127 1.541,-8.786L2.664,24.561C2.73,26.53 1.706,28.376 0,29.36ZM3.537,-10.597C3.45,-13.179 0.642,-14.738 -1.596,-13.445L-21.184,-2.137C-23.066,-1.05 -24.196,0.986 -24.123,3.159L-22.884,39.957C-22.797,42.539 -19.989,44.098 -17.751,42.806L1.836,31.497C3.719,30.411 4.849,28.375 4.775,26.201L3.537,-10.597Z" style="fill:none;fill-rule:nonzero;stroke:black;stroke-width:1px;"/>
        </g>
        <g transform="matrix(1,0,0,1,1090.29,986.622)">
            <path d="M0,-16.733C-0.03,-17.632 -0.552,-18.34 -1.254,-18.703L-1.252,-18.706L-6.275,-21.294C-6.352,-21.338 -6.429,-21.379 -6.509,-21.414L-6.51,-21.414C-7.149,-21.702 -7.918,-21.708 -8.608,-21.309L-21.84,-13.67C-22.602,-13.231 -23.175,-12.559 -23.507,-11.778L-23.51,-11.779L-23.543,-11.701C-23.548,-11.689 -23.554,-11.676 -23.559,-11.664L-25.812,-6.295L-25.813,-6.295L-25.813,-6.294C-26.008,-5.798 -26.104,-5.261 -26.085,-4.712L-25.853,2.178C-25.794,3.923 -23.897,4.975 -22.385,4.103L-17.475,1.267L-17.399,1.306L-17.394,1.298C-16.705,1.744 -15.794,1.84 -14.985,1.373L-1.754,-6.267C-0.481,-7.001 0.281,-8.376 0.232,-9.844L0,-16.733Z" style="fill:none;fill-rule:nonzero;stroke:black;stroke-width:1px;"/>
        </g>
        <g transform="matrix(1,0,0,1,1088.97,975.899)">
            <path d="M0,4.16C1.005,3.385 1.589,2.168 1.546,0.879L1.313,-6.01C1.255,-7.755 -0.642,-8.808 -2.153,-7.935L-15.386,-0.295C-16.657,0.439 -17.42,1.814 -17.371,3.282L-17.14,10.171C-17.08,11.915 -15.184,12.968 -13.672,12.096L-12.898,11.648" style="fill:none;fill-rule:nonzero;stroke:black;stroke-width:1px;"/>
        </g>
        <g transform="matrix(1,0,0,1,1090.29,1007.43)">
            <path d="M0,-16.733C-0.03,-17.632 -0.552,-18.34 -1.254,-18.703L-1.252,-18.707L-6.275,-21.294C-6.352,-21.338 -6.429,-21.379 -6.509,-21.414L-6.51,-21.414C-7.149,-21.702 -7.918,-21.708 -8.608,-21.31L-21.84,-13.67C-22.602,-13.231 -23.175,-12.559 -23.507,-11.778L-23.51,-11.78L-23.543,-11.701C-23.548,-11.689 -23.554,-11.676 -23.559,-11.664L-25.812,-6.295L-25.813,-6.295L-25.813,-6.294C-26.008,-5.798 -26.104,-5.261 -26.085,-4.712L-25.853,2.178C-25.794,3.923 -23.897,4.975 -22.385,4.103L-17.475,1.267L-17.399,1.306L-17.394,1.298C-16.705,1.744 -15.794,1.84 -14.985,1.373L-1.754,-6.267C-0.481,-7.001 0.281,-8.376 0.232,-9.844L0,-16.733Z" style="fill:none;fill-rule:nonzero;stroke:black;stroke-width:1px;"/>
        </g>
        <g transform="matrix(1,0,0,1,1088.97,996.71)">
            <path d="M0,4.16C1.005,3.385 1.589,2.168 1.546,0.879L1.313,-6.01C1.255,-7.755 -0.642,-8.808 -2.153,-7.935L-15.386,-0.296C-16.657,0.438 -17.42,1.814 -17.371,3.282L-17.14,10.171C-17.08,11.915 -15.184,12.968 -13.672,12.096L-12.898,11.648" style="fill:none;fill-rule:nonzero;stroke:black;stroke-width:1px;"/>
        </g>
        <g transform="matrix(1,0,0,1,1029.95,704.78)">
            <g>
                <clipPath id="_clip3">
                    <rect x="-0.271" y="-176.3" width="150.92" height="234.98" clip-rule="nonzero"/>
                </clipPath>
                <g clip-path="url(#_clip3)">
                    <path d="M0,-117.22L41.245,-93.033L139.812,-148.597L101.611,-175.886L143.47,-148.596L150.147,-137.625L148.599,0.003L147.743,-136.237L140.17,-146.692L44.687,-91.108L51.387,-80.605L46.992,58.666L48.54,-78.962L41.86,-89.937L0,-117.22Z" style="fill:none;fill-rule:nonzero;stroke:black;stroke-width:1px;"/>
                </g>
            </g>
        </g>
        <g transform="matrix(1,0,0,1,1049.98,1059.85)">
            <g>
                <clipPath id="_clip4">
                    <rect x="-0.508" y="-293.567" width="34.03" height="355.37" clip-rule="nonzero"/>
                </clipPath>
                <g clip-path="url(#_clip4)">
                    <path d="M0,-231.695L7.026,-22.414L30.835,27.294L24.697,61.685L32.993,26.183L9.829,-24.031L2.153,-232.938L25.707,-293.38L0,-231.695Z" style="fill:none;fill-rule:nonzero;stroke:black;stroke-width:1px;"/>
                </g>
            </g>
        </g>
        <g transform="matrix(1,0,0,1,1151.59,1001.19)">
            <g>
                <clipPath id="_clip5">
                    <rect x="-0.505" y="-293.575" width="31.86" height="355.35" clip-rule="nonzero"/>
                </clipPath>
                <g clip-path="url(#_clip5)">
                    <path d="M0,-231.695L4.224,-20.797L28.675,28.406L24.696,61.685L30.834,27.293L7.026,-22.415L2.152,-232.938L25.706,-293.38L0,-231.695Z" style="fill:none;fill-rule:nonzero;stroke:black;stroke-width:1px;"/>
                </g>
            </g>
        </g>
        <g transform="matrix(1,0,0,1,1158.02,738.857)">
            <g>
                <clipPath id="_clip6">
                    <rect x="-66.844" y="-50.667" width="73.95" height="48.83" clip-rule="nonzero"/>
                </clipPath>
                <g clip-path="url(#_clip6)">
                    <path d="M0,-48.555C0,-48.555 -1.4,-41.195 -11.442,-35.47C-21.482,-29.746 -54.555,-9.825 -54.555,-9.825C-54.555,-9.825 -59.905,-6.335 -65,-9.09C-68.649,-8.745 -63.711,-3.459 -63.711,-3.459C-63.711,-3.459 -59.836,0 -51.229,-5.234C-44.427,-9.369 -4.269,-32.5 -4.269,-32.5C-4.269,-32.5 3.856,-36.62 6.335,-43.512C1.791,-42.554 0,-48.555 0,-48.555Z" style="fill:none;fill-rule:nonzero;stroke:black;stroke-width:1px;"/>
                </g>
            </g>
        </g>
    </g>
</svg>
