<?xml version="1.0" encoding="UTF-8" standalone="no"?>
<!DOCTYPE svg PUBLIC "-//W3C//DTD SVG 1.1//EN" "http://www.w3.org/Graphics/SVG/1.1/DTD/svg11.dtd">
<svg width="100%" height="100%" viewBox="0 0 807 828" version="1.1" xmlns="http://www.w3.org/2000/svg" xmlns:xlink="http://www.w3.org/1999/xlink" xml:space="preserve" xmlns:serif="http://www.serif.com/" style="fill-rule:evenodd;clip-rule:evenodd;stroke-miterlimit:10;">
    <g transform="matrix(1,0,0,1,-143.007,-1197.11)">
        <g transform="matrix(0.866295,-0.499532,-0.499532,-0.866295,669.775,1777.57)">
            <path d="M-44.433,106.209L378.843,106.209L377.188,177.319L-20.203,176.876L-44.433,106.209Z" style="fill:none;fill-rule:nonzero;stroke:black;stroke-width:1px;"/>
        </g>
        <g transform="matrix(1,0,0,1,907.952,1406.17)">
            <path d="M0,29.369L-344.034,228.265L-739.4,-0.001L-701.299,-22.028L-687.724,-29.876L-680.679,-25.806L-680.679,-33.951L-680.493,-34.055L-672.22,-38.84L-665.169,-34.764L-665.169,-42.916L-664.988,-43.02L-656.722,-47.798L-649.658,-43.717L-649.658,-51.88L-649.49,-51.979L-641.223,-56.757L-634.148,-52.67L-634.148,-60.85L-633.991,-60.937L-625.724,-65.722L-618.637,-61.629L-618.637,-69.815L-618.486,-69.902L-610.226,-74.68L-603.128,-70.582L-603.128,-78.785L-602.988,-78.86L-594.727,-83.639L-587.617,-79.534L-587.617,-87.749L-587.495,-87.824L-587.49,-87.824L-579.222,-92.603L-572.106,-88.493L-572.106,-96.713L-571.991,-96.783L-563.73,-101.561L-556.597,-97.446L-556.597,-105.683L-556.492,-105.741L-556.486,-105.741L-548.231,-110.52L-541.086,-106.399L-541.086,-114.648L-540.993,-114.705L-532.727,-119.484L-525.576,-115.357L-525.576,-123.618L-525.489,-123.664L-517.229,-128.443L-510.065,-124.309L-510.065,-132.582L-509.99,-132.628L-501.729,-137.401L-494.556,-133.262L-494.556,-141.552L-494.491,-141.587L-486.225,-146.365L-479.051,-142.22L-479.051,-150.51L-478.993,-150.546L-470.727,-155.324L-463.541,-151.173L-463.541,-159.481L-463.495,-159.504L-455.233,-164.282L-448.03,-160.126L-448.03,-168.445L-447.996,-168.468L-433.468,-176.869L-395.361,-198.896L0,29.369Z" style="fill:none;fill-rule:nonzero;stroke:black;stroke-width:1px;"/>
        </g>
        <g transform="matrix(1,0,0,1,578.916,1384.02)">
            <path d="M0,-94.425L-268.012,60.31L-372.264,0.118L-372.467,0.002L-358.881,-7.841L-358.689,-7.73L-351.644,-3.66L-351.644,-12.02L-343.371,-16.799L-343.185,-16.695L-336.134,-12.618L-336.134,-20.979L-327.861,-25.751L-327.687,-25.653L-320.623,-21.571L-320.623,-29.931L-312.351,-34.704L-312.188,-34.612L-305.113,-30.524L-305.113,-38.884L-296.84,-43.663L-296.689,-43.576L-289.602,-39.483L-289.602,-47.842L-281.331,-52.615L-281.191,-52.534L-274.093,-48.436L-274.093,-56.795L-265.82,-61.568L-265.691,-61.493L-258.582,-57.388L-258.582,-65.748L-250.31,-70.527L-250.187,-70.457L-243.071,-66.347L-243.071,-74.707L-234.805,-79.48L-234.695,-79.415L-227.562,-75.3L-227.562,-83.659L-219.294,-88.433L-219.196,-88.374L-212.051,-84.253L-212.051,-92.612L-203.785,-97.391L-203.779,-97.391L-203.691,-97.338L-196.541,-93.211L-196.541,-101.571L-188.274,-106.343L-188.193,-106.297L-181.03,-102.163L-181.03,-110.524L-172.764,-115.296L-172.694,-115.255L-165.521,-111.116L-165.521,-119.476L-157.253,-124.254L-157.189,-124.219L-150.016,-120.074L-150.016,-128.434L-150.01,-128.434L-141.744,-133.207L-141.691,-133.178L-134.506,-129.028L-134.506,-137.387L-126.233,-142.16L-126.198,-142.136L-118.995,-137.98L-118.995,-146.34L-104.456,-154.735L-104.433,-154.723L0,-94.425Z" style="fill:none;fill-rule:nonzero;stroke:black;stroke-width:1px;"/>
        </g>
        <g transform="matrix(-1,0,0,1,590.4,1449.43)">
            <g>
                <clipPath id="_clip1">
                    <rect x="-40.617" y="-1.127" width="59.26" height="49.52" clip-rule="nonzero"/>
                </clipPath>
                <g clip-path="url(#_clip1)">
                    <path d="M-22.028,47.889L-7.989,47.889L17.643,33.09L-39.671,0L-22.028,47.889Z" style="fill:none;fill-rule:nonzero;stroke:black;stroke-width:1px;"/>
                </g>
            </g>
        </g>
        <g transform="matrix(1,0,0,1,691.66,1505.64)">
            <g>
                <clipPath id="_clip2">
                    <rect x="-56.964" y="-20.517" width="57.788" height="33.38" clip-rule="nonzero"/>
                </clipPath>
                <g clip-path="url(#_clip2)">
                    <path d="M0,-7.575L-20.628,12.368L-34.543,12.368L-55.964,0L-21.422,-19.943L0,-7.575Z" style="fill:none;fill-rule:nonzero;stroke:black;stroke-width:1px;"/>
                </g>
            </g>
        </g>
        <g transform="matrix(1,0,0,1,727.968,1526.6)">
            <g>
                <clipPath id="_clip3">
                    <rect x="-56.964" y="-20.52" width="57.789" height="33.39" clip-rule="nonzero"/>
                </clipPath>
                <g clip-path="url(#_clip3)">
                    <path d="M0,-7.576L-20.628,12.368L-34.543,12.368L-55.964,0L-21.422,-19.944L0,-7.576Z" style="fill:none;fill-rule:nonzero;stroke:black;stroke-width:1px;"/>
                </g>
            </g>
        </g>
        <g transform="matrix(-0.866295,0.499532,0.499532,0.866295,666.191,1824.95)">
            <path d="M-405.619,-145.472L17.657,-145.472L38.937,-108.568L-384.338,-108.567L-405.619,-145.472Z" style="fill:none;fill-rule:nonzero;stroke:black;stroke-width:1px;"/>
        </g>
        <g transform="matrix(-0.836745,-0.547593,-0.547593,0.836745,729.026,1659.31)">
            <path d="M46.288,108.054L50.683,108.054L73.834,72.678L29.137,-15.814L46.288,108.054Z" style="fill:none;fill-rule:nonzero;stroke:black;stroke-width:1px;"/>
        </g>
        <g transform="matrix(0.866026,0.499999,0.499999,-0.866026,225.639,1364.9)">
            <path d="M-19.972,-120.622L476.775,-120.622L427.721,-64.278L-28.808,-64.278L-19.972,-120.622Z" style="fill:none;fill-rule:nonzero;stroke:black;stroke-width:1px;"/>
        </g>
        <g transform="matrix(-0.866026,-0.499999,-0.499999,0.866026,228.292,1408.22)">
            <path d="M-452.822,84.44L43.926,84.44L22.626,121.332L-474.122,121.333L-452.822,84.44Z" style="fill:none;fill-rule:nonzero;stroke:black;stroke-width:1px;"/>
        </g>
        <g transform="matrix(0.866025,-0.500001,-0.500001,-0.866025,786.726,1535.93)">
            <path d="M12.02,26.332L109.776,26.332L98.272,-44.861L0.515,-44.86L12.02,26.332Z" style="fill:none;fill-rule:nonzero;stroke:black;stroke-width:1px;"/>
        </g>
        <g transform="matrix(0.866026,-0.499999,-0.499999,-0.866026,604.824,1641.35)">
            <path d="M11.928,26.678L111.068,26.678L99.563,-44.515L0.422,-44.514L11.928,26.678Z" style="fill:none;fill-rule:nonzero;stroke:black;stroke-width:1px;"/>
        </g>
        <g transform="matrix(1,0,0,1,733.538,1503.8)">
            <path d="M0,-132.356L38.126,-154.368L-98.801,-233.424L-443.066,-34.662L-306.139,44.393L-268.012,22.38L-131.723,101.068L-45.864,51.498L-182.155,-27.19L-85.858,-82.786L50.432,-4.099L136.29,-53.669L0,-132.356Z" style="fill:none;fill-rule:nonzero;stroke:black;stroke-width:1px;"/>
        </g>
        <g transform="matrix(1,0,0,1,397.65,1375.15)">
            <g>
                <clipPath id="_clip4">
                    <rect x="-134.888" y="-0.942" width="156.235" height="120.7" clip-rule="nonzero"/>
                </clipPath>
                <g clip-path="url(#_clip4)">
                    <path d="M0,119.26L-63.401,119.26L-107.179,93.985L-107.179,101.405L-133.875,85.992L20.675,0L0,119.26Z" style="fill:none;fill-rule:nonzero;stroke:black;stroke-width:1px;"/>
                </g>
            </g>
        </g>
        <g transform="matrix(1,0,0,1,309.754,1376.18)">
            <path d="M0,43.438L-7.238,47.618L-82.481,4.18L-82.481,-4.18L-82.295,-4.069L0,43.438Z" style="fill:none;fill-rule:nonzero;stroke:black;stroke-width:1px;"/>
        </g>
        <g transform="matrix(1,0,0,1,325.265,1367.22)">
            <path d="M0,43.445L-7.238,47.624L-82.482,4.181L-82.482,-4.179L-82.301,-4.074L0,43.445Z" style="fill:none;fill-rule:nonzero;stroke:black;stroke-width:1px;"/>
        </g>
        <g transform="matrix(1,0,0,1,340.774,1358.27)">
            <path d="M0,43.438L-7.237,47.618L-82.48,4.18L-82.48,-4.18L-82.312,-4.081L0,43.438Z" style="fill:none;fill-rule:nonzero;stroke:black;stroke-width:1px;"/>
        </g>
        <g transform="matrix(1,0,0,1,356.285,1349.32)">
            <path d="M0,43.438L-7.238,47.618L-82.481,4.18L-82.481,-4.18L-82.324,-4.086L0,43.438Z" style="fill:none;fill-rule:nonzero;stroke:black;stroke-width:1px;"/>
        </g>
        <g transform="matrix(1,0,0,1,371.795,1340.36)">
            <path d="M0,43.443L-7.238,47.623L-82.481,4.179L-82.481,-4.18L-82.33,-4.094L0,43.443Z" style="fill:none;fill-rule:nonzero;stroke:black;stroke-width:1px;"/>
        </g>
        <g transform="matrix(1,0,0,1,387.305,1331.4)">
            <path d="M0,43.438L-7.243,47.618L-82.481,4.18L-82.481,-4.18L-82.341,-4.099L0,43.438Z" style="fill:none;fill-rule:nonzero;stroke:black;stroke-width:1px;"/>
        </g>
        <g transform="matrix(1,0,0,1,402.815,1322.45)">
            <path d="M0,43.438L-7.243,47.618L-82.481,4.18L-82.481,-4.18L-82.359,-4.11L-82.354,-4.11L0,43.438Z" style="fill:none;fill-rule:nonzero;stroke:black;stroke-width:1px;"/>
        </g>
        <g transform="matrix(1,0,0,1,418.326,1313.49)">
            <path d="M0,43.444L-7.243,47.624L-82.48,4.18L-82.48,-4.18L-82.365,-4.11L0,43.444Z" style="fill:none;fill-rule:nonzero;stroke:black;stroke-width:1px;"/>
        </g>
        <g transform="matrix(1,0,0,1,433.836,1304.54)">
            <path d="M0,43.438L-7.244,47.618L-82.482,4.179L-82.482,-4.18L-82.377,-4.116L-82.371,-4.116L0,43.438Z" style="fill:none;fill-rule:nonzero;stroke:black;stroke-width:1px;"/>
        </g>
        <g transform="matrix(1,0,0,1,449.346,1295.59)">
            <path d="M0,43.438L-7.243,47.618L-82.481,4.179L-82.481,-4.18L-82.388,-4.127L0,43.438Z" style="fill:none;fill-rule:nonzero;stroke:black;stroke-width:1px;"/>
        </g>
        <g transform="matrix(1,0,0,1,464.851,1286.63)">
            <path d="M0,43.444L-7.238,47.624L-82.476,4.18L-82.476,-4.18L-82.388,-4.128L0,43.444Z" style="fill:none;fill-rule:nonzero;stroke:black;stroke-width:1px;"/>
        </g>
        <g transform="matrix(1,0,0,1,480.361,1277.67)">
            <path d="M0,43.44L-7.238,47.619L-82.475,4.182L-82.475,-4.179L-82.399,-4.137L0,43.44Z" style="fill:none;fill-rule:nonzero;stroke:black;stroke-width:1px;"/>
        </g>
        <g transform="matrix(1,0,0,1,495.872,1268.72)">
            <path d="M0,43.44L-7.238,47.619L-82.476,4.181L-82.476,-4.179L-82.411,-4.143L0,43.44Z" style="fill:none;fill-rule:nonzero;stroke:black;stroke-width:1px;"/>
        </g>
        <g transform="matrix(1,0,0,1,511.382,1259.77)">
            <path d="M0,43.444L-7.238,47.624L-82.481,4.18L-82.481,-4.18L-82.476,-4.18L-82.423,-4.145L0,43.444Z" style="fill:none;fill-rule:nonzero;stroke:black;stroke-width:1px;"/>
        </g>
        <g transform="matrix(1,0,0,1,526.892,1250.82)">
            <path d="M0,43.432L-7.237,47.618L-82.481,4.174L-82.481,-4.186L-82.435,-4.157L0,43.432Z" style="fill:none;fill-rule:nonzero;stroke:black;stroke-width:1px;"/>
        </g>
        <g transform="matrix(1,0,0,1,542.402,1241.86)">
            <path d="M0,43.438L-7.238,47.618L-82.48,4.18L-82.48,-4.18L-82.446,-4.162L0,43.438Z" style="fill:none;fill-rule:nonzero;stroke:black;stroke-width:1px;"/>
        </g>
        <g transform="matrix(-0.866027,0.499998,0.499998,0.866027,415.198,1544.51)">
            <path d="M-326.772,-39.48L-17.298,-39.48L10.58,-87.556L-298.895,-87.558L-326.772,-39.48Z" style="fill:none;fill-rule:nonzero;stroke:black;stroke-width:1px;"/>
        </g>
        <g transform="matrix(1,0,0,1,665.742,1459.96)">
            <path d="M0,-105.685L-242.803,34.497L-268.092,34.452L-302.552,14.555L-34.541,-140.182L-0.08,-120.286L0,-105.685Z" style="fill:none;fill-rule:nonzero;stroke:black;stroke-width:1px;"/>
        </g>
        <g transform="matrix(-0.866023,0.500004,0.500004,0.866023,598.081,1506.34)">
            <path d="M-83.118,-0.645L-16.938,-0.645L-2.14,-26.278L-88.204,-9.455L-83.118,-0.645Z" style="fill:none;fill-rule:nonzero;stroke:black;stroke-width:1px;"/>
        </g>
        <g transform="matrix(-0.86603,0.499991,0.499991,0.86603,637.7,1699.34)">
            <path d="M-80.93,18.393L18.21,18.393L-4.928,-21.684L-104.068,-21.685L-80.93,18.393Z" style="fill:none;fill-rule:nonzero;stroke:black;stroke-width:1px;"/>
        </g>
        <g transform="matrix(-0.836641,-0.547752,-0.547752,0.836641,911.184,1554.15)">
            <path d="M46.275,108.056L50.671,108.056L73.828,72.685L29.149,-15.815L46.275,108.056Z" style="fill:none;fill-rule:nonzero;stroke:black;stroke-width:1px;"/>
        </g>
        <g transform="matrix(-0.866023,0.500003,0.500003,0.866023,819.856,1594.18)">
            <path d="M-80.929,18.391L18.21,18.391L-4.928,-21.685L-104.067,-21.685L-80.929,18.391Z" style="fill:none;fill-rule:nonzero;stroke:black;stroke-width:1px;"/>
        </g>
        <g transform="matrix(-0.86603,0.499992,0.499992,0.86603,655.801,1521.17)">
            <path d="M-54.659,4.875L-14.772,4.875L-2.404,-16.546L-59.745,-3.935L-54.659,4.875Z" style="fill:none;fill-rule:nonzero;stroke:black;stroke-width:1px;"/>
        </g>
        <g transform="matrix(-0.866013,0.500022,0.500022,0.866013,692.11,1542.13)">
            <path d="M-54.659,4.875L-14.772,4.875L-2.404,-16.547L-59.745,-3.934L-54.659,4.875Z" style="fill:none;fill-rule:nonzero;stroke:black;stroke-width:1px;"/>
        </g>
        <g transform="matrix(-0.86603,0.499992,0.499992,0.86603,596.924,1491.85)">
            <path d="M-81.961,3.671L-15.782,3.671L-0.983,-21.96L-67.163,-21.961L-81.961,3.671Z" style="fill:none;fill-rule:nonzero;stroke:black;stroke-width:1px;"/>
        </g>
        <g transform="matrix(-0.86603,0.499992,0.499992,0.86603,655.252,1508.95)">
            <path d="M-54.11,6.923L-14.223,6.923L-1.855,-14.498L-41.742,-14.498L-54.11,6.923Z" style="fill:none;fill-rule:nonzero;stroke:black;stroke-width:1px;"/>
        </g>
        <g transform="matrix(-0.866024,0.500003,0.500003,0.866024,691.561,1529.91)">
            <path d="M-54.11,6.924L-14.224,6.924L-1.855,-14.498L-41.742,-14.498L-54.11,6.924Z" style="fill:none;fill-rule:nonzero;stroke:black;stroke-width:1px;"/>
        </g>
        <g transform="matrix(0.866023,-0.500003,-0.500003,-0.866023,785.768,1530.08)">
            <path d="M13.631,27.207L112.771,27.207L101.537,-50.873L2.397,-50.873L13.631,27.207Z" style="fill:none;fill-rule:nonzero;stroke:black;stroke-width:1px;"/>
        </g>
        <g transform="matrix(0.86602,-0.500009,-0.500009,-0.86602,603.787,1635.2)">
            <path d="M13.458,27.254L113.982,27.254L101.363,-50.826L2.224,-50.825L13.458,27.254Z" style="fill:none;fill-rule:nonzero;stroke:black;stroke-width:1px;"/>
        </g>
        <g transform="matrix(1,0,0,1,452.824,1649.09)">
            <g>
                <clipPath id="_clip5">
                    <rect x="-43.395" y="-0.536" width="365.256" height="246.63" clip-rule="nonzero"/>
                </clipPath>
                <g clip-path="url(#_clip5)">
                    <path d="M0,245.397C-32.6,222.664 -48.784,207.246 -40.939,190.924C-40.462,189.926 -39.933,188.699 -39.319,187.284C-31.968,170.289 -12.527,125.001 63.827,127.131C119.808,128.607 165.873,147.683 196.349,160.311C209.558,165.778 219.987,170.101 226.613,171.09C249.602,174.561 283.038,175.49 307.724,143.957C312.089,138.379 313.531,132.222 312.124,125.136C305.038,89.604 231.695,47.872 230.953,47.453L229.102,46.413L220.355,0L233.314,0.759L237.084,40.921C249.167,47.964 313.412,86.96 320.667,123.44C322.578,133.024 320.54,141.74 314.596,149.329C287.096,184.469 250.497,183.498 225.316,179.72C217.633,178.56 206.77,174.066 193.015,168.361C163.127,155.988 117.967,137.279 63.605,135.847C-6.881,134.047 -23.97,173.768 -31.32,190.746C-31.977,192.281 -32.557,193.611 -33.077,194.693C-37.537,203.98 -27.219,215.782 4.998,238.251L0,245.397Z" style="fill:none;fill-rule:nonzero;stroke:black;stroke-width:1px;"/>
                </g>
            </g>
        </g>
        <g transform="matrix(0.866026,-0.499998,-0.499998,-0.866026,638.843,1635.94)">
            <path d="M1.16,13.946L55,13.946L52.047,-4.33L-1.792,-4.33L1.16,13.946Z" style="fill:none;fill-rule:nonzero;stroke:black;stroke-width:1px;"/>
        </g>
        <g transform="matrix(0.866034,-0.499985,-0.499985,-0.866034,825.349,1528.26)">
            <path d="M1.16,13.945L55,13.945L52.047,-4.33L-1.793,-4.33L1.16,13.945Z" style="fill:none;fill-rule:nonzero;stroke:black;stroke-width:1px;"/>
        </g>
        <g transform="matrix(1,0,0,1,866.009,1532.9)">
            <path d="M0,-44.224L-8.565,-39.279L-5.192,-30.408L-43.254,-8.433L-40.047,0L6.58,-26.92L0,-44.224Z" style="fill:none;fill-rule:nonzero;stroke:black;stroke-width:1px;"/>
        </g>
        <g transform="matrix(1,0,0,1,639.227,1652.1)">
            <path d="M0,-32.34L0,-19.196L13.431,-11.442L33.952,-3.012L53.815,-3.012L55.652,-4.053L62.671,0L76.93,-8.232L76.93,-16.464" style="fill:none;fill-rule:nonzero;stroke:black;stroke-width:1px;"/>
        </g>
        <g transform="matrix(-0.866028,0.499996,0.499996,0.866028,646.649,1632.1)">
            <path d="M-53.732,-0.967L-7.496,-0.967L0.259,-14.398L-45.977,-14.398L-53.732,-0.967Z" style="fill:none;fill-rule:nonzero;stroke:black;stroke-width:1px;"/>
        </g>
        <g transform="matrix(-0.866048,0.499961,0.499961,0.866048,695.369,1644.32)">
            <path d="M-22.345,2.87L-5.882,2.87L-0.768,-5.985L-17.232,-5.987L-22.345,2.87Z" style="fill:none;fill-rule:nonzero;stroke:black;stroke-width:1px;"/>
        </g>
        <g transform="matrix(-0.866026,0.499999,0.499999,0.866026,657.821,1635.51)">
            <path d="M-50.601,6.963L-13.713,6.963L0.472,-9.51L-45.765,-9.511L-50.601,6.963Z" style="fill:none;fill-rule:nonzero;stroke:black;stroke-width:1px;"/>
        </g>
        <g transform="matrix(-0.866022,0.500006,0.500006,0.866022,674.342,1633.31)">
            <path d="M-30.712,12.721L-14.248,12.721L1.697,0.614L-35.191,0.615L-30.712,12.721Z" style="fill:none;fill-rule:nonzero;stroke:black;stroke-width:1px;"/>
        </g>
        <g transform="matrix(1,0,0,1,684.912,1600.93)">
            <path d="M0,26.987L-13.013,26.617L-26.949,22.668L-38.264,16.135L-10.316,0L0.999,6.532L7.839,14.579L8.479,22.091L0,26.987Z" style="fill:none;fill-rule:nonzero;stroke:black;stroke-width:1px;"/>
        </g>
        <g transform="matrix(-0.866035,0.499983,0.499983,0.866035,656.182,1625.65)">
            <path d="M-32.131,-4.35L-1.293,-4.35L1.166,-8.609L-29.672,-8.609L-32.131,-4.35Z" style="fill:none;fill-rule:nonzero;stroke:black;stroke-width:1px;"/>
        </g>
        <g transform="matrix(-0.866031,0.49999,0.49999,0.866031,665.475,1626.65)">
            <path d="M-25.456,-1.04L-3.059,-1.04L1.157,-5.3L-24.754,-5.299L-25.456,-1.04Z" style="fill:none;fill-rule:nonzero;stroke:black;stroke-width:1px;"/>
        </g>
        <g transform="matrix(-0.865982,0.500074,0.500074,0.865982,675.167,1625.77)">
            <path d="M-15.35,3.13L-5.02,3.13L0.884,-1.13L-16.337,-1.129L-15.35,3.13Z" style="fill:none;fill-rule:nonzero;stroke:black;stroke-width:1px;"/>
        </g>
        <g transform="matrix(1,0,0,1,665.742,1342.32)">
            <path d="M0,-105.685L-242.803,34.497L-268.092,34.451L-302.552,14.555L-34.541,-140.182L-0.08,-120.286L0,-105.685Z" style="fill:none;fill-rule:nonzero;stroke:black;stroke-width:1px;"/>
        </g>
        <g transform="matrix(1,0,0,1,363.19,1222.08)">
            <path d="M0,134.795L35.966,151.241L55.969,150.307L296.193,12.029L298.408,0.938L268.011,-19.942L302.473,-0.046L302.552,14.555L59.749,154.737L34.46,154.691L0,134.795Z" style="fill:none;fill-rule:nonzero;stroke:black;stroke-width:1px;"/>
        </g>
        <g transform="matrix(0,1,1,0,449.188,1408.41)">
            <path d="M-51.538,-85.998L66.101,-85.998L85.998,-51.538L-31.642,-51.538L-51.538,-85.998Z" style="fill:none;fill-rule:nonzero;stroke:black;stroke-width:1px;"/>
        </g>
        <g transform="matrix(0.999998,0.00181897,0.00181897,-0.999998,397.757,1376.75)">
            <path d="M-0.107,-0.023L25.182,-0.023L25.396,-117.662L0.107,-117.663L-0.107,-0.023Z" style="fill:none;fill-rule:nonzero;stroke:black;stroke-width:1px;"/>
        </g>
        <g transform="matrix(0,1,1,0,673.251,1486.95)">
            <path d="M-250.312,-7.509L-132.673,-7.509L7.509,-250.312L-110.13,-250.312L-250.312,-7.509Z" style="fill:none;fill-rule:nonzero;stroke:black;stroke-width:1px;"/>
        </g>
        <g transform="matrix(1,0,0,1,642.184,1473.33)">
            <path d="M0,-181.418L0,-105.453L-195.687,7.529L-195.687,-68.478C-195.687,-74.903 -192.258,-80.841 -186.693,-84.055L-9.027,-186.63C-5.016,-188.947 0,-186.051 0,-181.418Z" style="fill:none;fill-rule:nonzero;stroke:black;stroke-width:1px;"/>
        </g>
        <g transform="matrix(0,1,1,0,619.966,1540.23)">
            <g>
                <clipPath id="_clip6">
                    <rect x="-197.893" y="-197.527" width="152.98" height="243.803" clip-rule="nonzero"/>
                </clipPath>
                <g clip-path="url(#_clip6)">
                    <path d="M-197.027,45.776L-185.958,45.776L-45.776,-197.027L-56.845,-197.027L-197.027,45.776Z" style="fill:none;fill-rule:nonzero;stroke:black;stroke-width:1px;"/>
                </g>
            </g>
        </g>
        <g transform="matrix(0,1,1,0,415.853,1476.26)">
            <g>
                <clipPath id="_clip7">
                    <rect x="6.585" y="-18.703" width="12.12" height="26.289" clip-rule="nonzero"/>
                </clipPath>
                <g clip-path="url(#_clip7)">
                    <rect x="7.086" y="-18.203" width="11.116" height="25.289" style="fill:none;stroke:black;stroke-width:1px;"/>
                </g>
            </g>
        </g>
        <g transform="matrix(0,1,1,0,612.098,1472.01)">
            <path d="M0.33,-25.303L10.504,-25.303L25.303,0.33L15.129,0.33L0.33,-25.303Z" style="fill:none;fill-rule:nonzero;stroke:black;stroke-width:1px;"/>
        </g>
        <g transform="matrix(0,1,1,0,671.592,1496.02)">
            <path d="M-0.56,-21.982L9.614,-21.982L21.982,-0.56L11.808,-0.56L-0.56,-21.982Z" style="fill:none;fill-rule:nonzero;stroke:black;stroke-width:1px;"/>
        </g>
        <g transform="matrix(0,1,1,0,707.9,1516.99)">
            <path d="M-0.56,-21.982L9.613,-21.982L21.982,-0.56L11.808,-0.56L-0.56,-21.982Z" style="fill:none;fill-rule:nonzero;stroke:black;stroke-width:1px;"/>
        </g>
        <g transform="matrix(0,1,1,0,439.166,1521.83)">
            <path d="M26.36,-11.768L33.78,-11.768L11.768,26.36L4.348,26.36L26.36,-11.768Z" style="fill:none;fill-rule:nonzero;stroke:black;stroke-width:1px;"/>
        </g>
        <g transform="matrix(0.866028,0.499995,0.499995,-0.866028,544.862,1449.06)">
            <path d="M19.422,-20.598L26.842,-20.598L78.729,69.271L75.019,75.697L19.422,-20.598Z" style="fill:none;fill-rule:nonzero;stroke:black;stroke-width:1px;"/>
        </g>
        <g transform="matrix(0.866028,0.499995,0.499995,-0.866028,731.516,1360.69)">
            <path d="M7.129,-8.305L14.549,-8.305L32.851,23.395L29.142,29.82L7.129,-8.305Z" style="fill:none;fill-rule:nonzero;stroke:black;stroke-width:1px;"/>
        </g>
        <g transform="matrix(1,0,0,1,428.9,1259.81)">
            <path d="M0,4.14L0,4.145L-7.173,-0.005L0,4.14Z" style="fill:none;fill-rule:nonzero;stroke:black;stroke-width:1px;"/>
        </g>
        <g transform="matrix(1,0,0,1,361.722,1963.13)">
            <path d="M0,-26.54L0,0C-1.601,-1.161 -2.413,-2.564 -2.478,-3.968L-2.522,-3.968L-2.522,-26.035L0,-26.54Z" style="fill:none;fill-rule:nonzero;stroke:black;stroke-width:1px;"/>
        </g>
        <g transform="matrix(1,0,0,1,659.373,1965.33)">
            <g>
                <clipPath id="_clip8">
                    <rect x="-316.359" y="-132.251" width="320.181" height="186.71" clip-rule="nonzero"/>
                </clipPath>
                <g clip-path="url(#_clip8)">
                    <path d="M0,-77.141L-90.637,-129.815C-95.088,-132.401 -102.323,-132.401 -106.818,-129.815L-312.491,-11.071C-316.963,-8.485 -316.985,-4.275 -312.535,-1.688L-221.918,50.985C-217.468,53.572 -199.569,55.26 -195.074,52.673L-0.065,-67.78C4.429,-70.367 4.451,-74.554 0,-77.141Z" style="fill:none;fill-rule:nonzero;stroke:black;stroke-width:1px;"/>
                </g>
            </g>
        </g>
        <g transform="matrix(0,1,1,0,482.588,2004.43)">
            <path d="M-27.269,-14.268L12.405,-14.268C14.114,-18.039 14.268,-23.257 12.866,-27.269L-27.269,-27.269L-27.269,-14.268Z" style="fill:none;fill-rule:nonzero;stroke:black;stroke-width:1px;"/>
        </g>
        <g transform="matrix(0,1,1,0,690.212,1884.66)">
            <path d="M-13.719,-11.834L8.283,-11.834C9.51,-11.855 10.76,-12.491 11.834,-13.719L-13.347,-13.719L-13.719,-11.834Z" style="fill:none;fill-rule:nonzero;stroke:black;stroke-width:1px;"/>
        </g>
        <g transform="matrix(1,0,0,1,455.319,1975.74)">
            <path d="M0,-0.132L0,41.558C-0.768,41.295 -1.513,40.967 -2.17,40.572L-92.787,-12.08C-93.072,-12.256 -93.356,-12.43 -93.597,-12.607L-93.597,-39.147L-80.685,-41.69L0,-0.132Z" style="fill:none;fill-rule:nonzero;stroke:black;stroke-width:1px;"/>
        </g>
        <g transform="matrix(1,0,0,1,675.002,2014.07)">
            <path d="M0,-118.999L-205.673,-0.255C-206.002,-0.081 -206.331,0.095 -206.682,0.271C-210.453,1.981 -215.671,2.134 -219.683,0.731C-220.451,0.468 -221.196,0.14 -221.854,-0.255L-312.47,-52.907C-312.755,-53.082 -313.04,-53.257 -313.28,-53.434C-314.881,-54.595 -315.693,-55.998 -315.758,-57.401L-315.802,-57.401L-315.802,-54.91L-315.758,-54.91C-315.693,-53.507 -314.881,-52.103 -313.28,-50.941C-313.04,-50.766 -312.755,-50.592 -312.47,-50.416L-221.854,2.236C-221.196,2.631 -220.451,2.959 -219.683,3.223C-215.671,4.625 -210.453,4.472 -206.682,2.762C-206.331,2.586 -206.002,2.41 -205.673,2.236L0,-116.507C0.57,-116.836 1.074,-117.209 1.49,-117.582C2.718,-118.655 3.354,-119.905 3.375,-121.133L3.375,-123.624C3.354,-122.396 2.718,-121.146 1.49,-120.073C1.074,-119.7 0.57,-119.327 0,-118.999Z" style="fill:none;fill-rule:nonzero;stroke:black;stroke-width:1px;"/>
        </g>
        <g transform="matrix(1,0,0,1,675.068,1941.5)">
            <path d="M0,-75.454L-90.638,-128.127C-95.089,-130.714 -102.323,-130.714 -106.818,-128.127L-312.491,-9.384C-316.964,-6.797 -316.986,-2.587 -312.536,-0.001L-221.919,52.673C-217.468,55.26 -210.233,55.237 -205.739,52.65L-0.065,-66.092C4.429,-68.68 4.451,-72.867 0,-75.454Z" style="fill:none;fill-rule:nonzero;stroke:black;stroke-width:1px;"/>
        </g>
        <g transform="matrix(1,0,0,1,461.185,1816.67)">
            <path d="M0,174.205C-2.102,174.205 -4.072,173.761 -5.407,172.985C-5.407,172.985 -74.138,133.03 -92.243,122.502C-94.04,121.457 -94.035,118.862 -92.235,117.823C-63.433,101.188 109.68,1.24 109.68,1.24C111.046,0.454 113.049,0 115.17,0C117.284,0 119.268,0.449 120.614,1.232C120.614,1.232 189.338,41.172 207.445,51.698C209.242,52.743 209.24,55.336 207.441,56.375C182.703,70.661 56.85,148.192 56.85,148.192L5.527,172.956C4.149,173.749 2.132,174.205 0,174.205Z" style="fill:none;fill-rule:nonzero;stroke:black;stroke-width:1px;"/>
        </g>
        <g transform="matrix(1,0,0,1,484.38,1908.02)">
            <path d="M0,-3.335L26.781,12.127C29.312,13.588 32.429,13.588 34.96,12.127L48.621,4.24C50.253,3.299 50.253,0.942 48.621,-0L21.839,-15.461C19.309,-16.923 16.19,-16.923 13.66,-15.461L0,-7.574C-1.632,-6.633 -1.632,-4.277 0,-3.335Z" style="fill:none;fill-rule:nonzero;stroke:black;stroke-width:1px;"/>
        </g>
        <g transform="matrix(1,0,0,1,675.068,1942.32)">
            <path d="M0,-76.275L-90.638,-128.948C-92.183,-129.846 -94.072,-130.412 -96.057,-130.686C-95.899,-130.604 -95.722,-130.544 -95.571,-130.455L-4.934,-77.783C-0.482,-75.195 -0.505,-71.007 -4.999,-68.42L-210.671,50.322C-213.611,52.014 -217.714,52.588 -221.452,52.073C-216.977,54.411 -210.086,54.332 -205.739,51.829L-0.065,-66.913C4.429,-69.501 4.451,-73.688 0,-76.275Z" style="fill:none;fill-rule:nonzero;stroke:black;stroke-width:1px;"/>
        </g>
        <g transform="matrix(1,0,0,1,562.851,1876.86)">
            <path d="M0,-44.141C-1.015,-43.555 -1.902,-42.873 -2.619,-42.105L-31.541,-11.125C-35.463,-6.913 -32.775,-1.649 -25.498,0.62L-22.655,1.509C-16.713,3.358 -9.54,2.639 -4.97,0.002C-3.958,-0.583 -3.073,-1.263 -2.358,-2.029L26.545,-33.019C30.485,-37.242 27.779,-42.495 20.502,-44.764L17.677,-45.644C11.724,-47.499 4.566,-46.777 0,-44.141Z" style="fill:none;fill-rule:nonzero;stroke:black;stroke-width:1px;"/>
        </g>
        <g transform="matrix(1,0,0,1,547.253,1834.72)">
            <path d="M0,43.33C-2.157,43.33 -4.296,43.018 -6.183,42.433L-9.021,41.542C-12.699,40.396 -14.379,38.597 -14.724,37.293C-14.81,36.972 -15.069,35.992 -13.789,34.616L15.132,3.639C15.633,3.101 16.285,2.597 17.07,2.142C19.431,0.781 22.762,0 26.206,0C28.367,0 30.506,0.311 32.398,0.901L35.225,1.781C38.909,2.929 40.588,4.727 40.933,6.028C41.019,6.351 41.277,7.326 39.99,8.706L11.086,39.696C10.586,40.234 9.933,40.736 9.154,41.186C6.795,42.548 3.457,43.33 0.002,43.33L0,43.33Z" style="fill:none;fill-rule:nonzero;stroke:black;stroke-width:1px;"/>
        </g>
        <g transform="matrix(1,0,0,1,599.799,1898.33)">
            <path d="M0,-44.139C-1.016,-43.552 -1.904,-42.87 -2.621,-42.103L-31.542,-11.122C-35.463,-6.911 -32.776,-1.647 -25.499,0.622L-22.674,1.502C-16.721,3.358 -9.563,2.634 -4.998,0C-3.982,-0.587 -3.095,-1.269 -2.378,-2.037L26.544,-33.017C30.485,-37.24 27.778,-42.493 20.5,-44.762L17.676,-45.642C11.723,-47.497 4.565,-46.775 0,-44.139Z" style="fill:none;fill-rule:nonzero;stroke:black;stroke-width:1px;"/>
        </g>
        <g transform="matrix(1,0,0,1,584.195,1856.19)">
            <path d="M0,43.324C-2.16,43.324 -4.302,43.012 -6.194,42.422L-9.021,41.542C-12.694,40.397 -14.373,38.597 -14.718,37.294C-14.804,36.972 -15.066,35.993 -13.783,34.615L15.138,3.639C15.642,3.097 16.291,2.596 17.073,2.145C19.434,0.782 22.764,0 26.209,0C28.369,0 30.511,0.313 32.404,0.902L35.23,1.782C38.914,2.929 40.594,4.728 40.938,6.03C41.025,6.35 41.284,7.326 39.996,8.707L11.075,39.684C10.568,40.226 9.918,40.727 9.136,41.179C6.775,42.542 3.448,43.324 0,43.324Z" style="fill:none;fill-rule:nonzero;stroke:black;stroke-width:1px;"/>
        </g>
        <g transform="matrix(1,0,0,1,559.302,1875.54)">
            <path d="M0,-12.864L-23.387,-13.196L-23.387,-7.081L-23.333,-7.081C-23.342,-4.672 -21.18,-2.335 -17.247,-1.115C-12.607,0.332 -7.014,-0.233 -3.453,-2.291C-2.662,-2.746 -1.973,-3.275 -1.414,-3.873C-0.413,-4.944 -0.013,-6.1 -0.055,-7.237L0,-7.238L0,-12.864Z" style="fill:none;fill-rule:nonzero;stroke:black;stroke-width:1px;"/>
        </g>
        <g transform="matrix(1,0,0,1,585.05,1848.32)">
            <path d="M0,-13.491L-23.379,-13.196L-23.379,-7.167L-23.324,-7.159C-23.185,-4.834 -21.035,-2.618 -17.26,-1.44C-12.604,0 -7.01,-0.567 -3.447,-2.625C-2.656,-3.082 -1.966,-3.61 -1.409,-4.208C-0.427,-5.258 -0.029,-6.389 -0.053,-7.503L0,-7.513L0,-13.491Z" style="fill:none;fill-rule:nonzero;stroke:black;stroke-width:1px;"/>
        </g>
        <g transform="matrix(1,0,0,1,596.237,1897.34)">
            <path d="M0,-13.556L-23.376,-13.197L-23.376,-7.059L-23.322,-7.051C-23.121,-4.773 -20.978,-2.61 -17.253,-1.458C-12.598,0 -7.002,-0.566 -3.439,-2.622C-2.65,-3.078 -1.96,-3.608 -1.402,-4.204C-0.311,-5.384 0.097,-6.665 -0.056,-7.909L0,-7.925L0,-13.556Z" style="fill:none;fill-rule:nonzero;stroke:black;stroke-width:1px;"/>
        </g>
        <g transform="matrix(1,0,0,1,621.997,1869.79)">
            <path d="M0,-13.302L-23.391,-13.201L-23.391,-7.413L-23.336,-7.413C-23.349,-5.002 -21.182,-2.667 -17.26,-1.439C-12.604,0 -7.01,-0.568 -3.447,-2.625C-2.657,-3.08 -1.966,-3.611 -1.409,-4.207C-0.431,-5.255 -0.032,-6.382 -0.053,-7.494L0,-7.494L0,-13.302Z" style="fill:none;fill-rule:nonzero;stroke:black;stroke-width:1px;"/>
        </g>
        <g transform="matrix(1,0,0,1,539.366,1867.46)">
            <path d="M0,-9.58C-0.789,-9.124 -1.48,-8.595 -2.037,-7.998C-5.11,-4.709 -3.016,-0.595 2.689,1.175C7.329,2.623 12.921,2.057 16.483,0C17.274,-0.456 17.964,-0.985 18.522,-1.583C21.595,-4.871 19.5,-8.985 13.794,-10.755C9.155,-12.203 3.563,-11.638 0,-9.58Z" style="fill:none;fill-rule:nonzero;stroke:black;stroke-width:1px;"/>
        </g>
        <g transform="matrix(1,0,0,1,565.119,1839.92)">
            <path d="M0,-9.582C-0.79,-9.127 -1.479,-8.597 -2.037,-8C-5.11,-4.69 -2.997,-0.587 2.671,1.183C7.327,2.622 12.921,2.055 16.484,-0.003C17.274,-0.459 17.965,-0.988 18.522,-1.585C21.596,-4.874 19.482,-8.978 13.814,-10.747C9.159,-12.204 3.563,-11.64 0,-9.582Z" style="fill:none;fill-rule:nonzero;stroke:black;stroke-width:1px;"/>
        </g>
        <g transform="matrix(1,0,0,1,576.313,1888.93)">
            <path d="M0,-9.578C-0.791,-9.122 -1.481,-8.592 -2.038,-7.996C-5.112,-4.706 -3.017,-0.592 2.67,1.166C7.325,2.623 12.921,2.059 16.484,0.002C17.273,-0.454 17.963,-0.983 18.521,-1.579C21.576,-4.88 19.481,-8.994 13.793,-10.753C9.154,-12.201 3.562,-11.635 0,-9.578Z" style="fill:none;fill-rule:nonzero;stroke:black;stroke-width:1px;"/>
        </g>
        <g transform="matrix(1,0,0,1,602.067,1861.38)">
            <path d="M0,-9.581C-0.791,-9.126 -1.481,-8.597 -2.038,-7.999C-5.13,-4.699 -3.017,-0.596 2.67,1.185C7.325,2.623 12.919,2.056 16.483,-0.002C17.272,-0.457 17.963,-0.987 18.521,-1.584C21.594,-4.873 19.481,-8.977 13.793,-10.756C9.153,-12.204 3.562,-11.639 0,-9.581Z" style="fill:none;fill-rule:nonzero;stroke:black;stroke-width:1px;"/>
        </g>
        <g transform="matrix(1,0,0,1,602.691,1860.33)">
            <path d="M0,-8.853C-0.73,-8.432 -1.368,-7.943 -1.882,-7.391C-4.74,-4.342 -2.787,-0.551 2.468,1.094C6.769,2.424 11.938,1.9 15.231,0C15.961,-0.422 16.6,-0.913 17.115,-1.463C19.954,-4.503 18.001,-8.294 12.746,-9.939C8.459,-11.277 3.292,-10.754 0,-8.853Z" style="fill:none;fill-rule:nonzero;stroke:black;stroke-width:1px;"/>
        </g>
        <g transform="matrix(1,0,0,1,576.938,1888.06)">
            <path d="M0,-8.854C-0.729,-8.433 -1.367,-7.943 -1.883,-7.392C-4.74,-4.343 -2.787,-0.55 2.468,1.093C6.77,2.424 11.939,1.9 15.231,-0.001C15.961,-0.423 16.6,-0.912 17.115,-1.464C19.954,-4.502 18.002,-8.294 12.747,-9.939C8.459,-11.278 3.292,-10.754 0,-8.854Z" style="fill:none;fill-rule:nonzero;stroke:black;stroke-width:1px;"/>
        </g>
        <g transform="matrix(1,0,0,1,565.624,1839.04)">
            <path d="M0,-8.855C-0.73,-8.433 -1.368,-7.944 -1.882,-7.392C-4.74,-4.343 -2.787,-0.551 2.468,1.093C6.769,2.423 11.939,1.899 15.231,-0.002C15.961,-0.423 16.599,-0.913 17.115,-1.464C19.954,-4.503 18.001,-8.294 12.746,-9.94C8.459,-11.278 3.292,-10.755 0,-8.855Z" style="fill:none;fill-rule:nonzero;stroke:black;stroke-width:1px;"/>
        </g>
        <g transform="matrix(1,0,0,1,539.872,1866.58)">
            <path d="M0,-8.853C-0.73,-8.432 -1.368,-7.943 -1.884,-7.391C-4.741,-4.342 -2.787,-0.55 2.467,1.094C6.769,2.424 11.938,1.9 15.231,0C15.961,-0.422 16.599,-0.912 17.114,-1.463C19.953,-4.502 18.001,-8.294 12.746,-9.938C8.458,-11.277 3.291,-10.753 0,-8.853Z" style="fill:none;fill-rule:nonzero;stroke:black;stroke-width:1px;"/>
        </g>
        <g transform="matrix(1,0,0,1,507.183,1903.63)">
            <path d="M0,-3.78L0,-7.236L-3.812,-6.236C-5.301,-6.401 -6.889,-6.199 -8.047,-5.53L-9.332,-4.789L-16.438,-2.925L-16.438,0.448C-16.44,1.15 -15.98,1.853 -15.056,2.391C-13.222,3.456 -10.222,3.456 -8.375,2.391L-1.375,-1.652C-0.361,-2.236 0.083,-3.017 0,-3.78Z" style="fill:none;fill-rule:nonzero;stroke:black;stroke-width:1px;"/>
        </g>
        <g transform="matrix(1,0,0,1,499.135,1902.66)">
            <path d="M0,-7.913L-7.001,-3.871C-8.847,-2.805 -8.857,-1.066 -7.009,0.008C-5.174,1.074 -2.174,1.073 -0.328,0.008L6.673,-4.034C8.534,-5.108 8.543,-6.847 6.709,-7.913C4.861,-8.987 1.86,-8.987 0,-7.913Z" style="fill:none;fill-rule:nonzero;stroke:black;stroke-width:1px;"/>
        </g>
        <g transform="matrix(1,0,0,1,521.024,1915.12)">
            <path d="M0,-10.62L-3.697,-9.676C-5.222,-9.869 -6.868,-9.668 -8.062,-8.978L-9.366,-8.226L-16.454,-6.415L-16.454,-3.037C-16.455,-3.015 -16.454,-2.992 -16.454,-2.969L-16.454,-2.902L-16.444,-2.904C-16.408,-2.238 -15.965,-1.577 -15.086,-1.066C-13.251,0 -10.25,0 -8.404,-1.066L-1.403,-5.108C-0.41,-5.682 0.039,-6.442 -0.021,-7.191L0,-7.197L0,-10.62Z" style="fill:none;fill-rule:nonzero;stroke:black;stroke-width:1px;"/>
        </g>
        <g transform="matrix(1,0,0,1,512.961,1910.68)">
            <path d="M0,-7.897L-7.001,-3.855C-8.847,-2.789 -8.871,-1.059 -7.023,0.015C-5.188,1.082 -2.188,1.082 -0.341,0.015L6.66,-4.027C8.52,-5.101 8.53,-6.838 6.696,-7.905C4.848,-8.979 1.861,-8.971 0,-7.897Z" style="fill:none;fill-rule:nonzero;stroke:black;stroke-width:1px;"/>
        </g>
        <g transform="matrix(1,0,0,1,449.912,1962.98)">
            <path d="M0,-44.992C-3.016,-45.339 -6.092,-45.47 -9.156,-45.387C-11.254,-45.33 -13.347,-45.173 -15.41,-44.914M-32.22,-40.032C-32.868,-39.705 -33.5,-39.364 -34.118,-39.008C-48.926,-30.458 -48.985,-16.609 -34.292,-8.071C-19.581,0.478 4.309,0.478 19.117,-8.071C33.905,-16.609 34.002,-30.458 19.29,-39.008C18.653,-39.378 17.999,-39.732 17.329,-40.07" style="fill:none;fill-rule:nonzero;stroke:black;stroke-width:1px;"/>
        </g>
        <g transform="matrix(1,0,0,1,415.908,1957.74)">
            <path d="M0,-32.266C-10.604,-24.818 -8.692,-14.364 3.282,-7.407C16.024,0 36.75,0 49.575,-7.406C60.969,-13.985 61.883,-24.56 53.101,-31.949" style="fill:none;fill-rule:nonzero;stroke:black;stroke-width:1px;"/>
        </g>
        <g transform="matrix(1,0,0,1,425.812,1930.57)">
            <path d="M0,-15.736L-8.936,-10.577C-10.232,-9.829 -10.218,-8.628 -8.95,-7.891L3.055,0.736L16.643,-7.109L4.637,-15.736C3.369,-16.472 1.275,-16.472 0,-15.736Z" style="fill:none;fill-rule:nonzero;stroke:black;stroke-width:1px;"/>
        </g>
        <g transform="matrix(1,0,0,1,455.954,1945.23)">
            <path d="M0,-13.921L-13.587,-6.076L-1.582,-0.748C-0.313,-0.012 1.759,0 3.056,-0.748L11.991,-5.907C13.267,-6.644 13.274,-7.856 12.006,-8.593L0,-13.921Z" style="fill:none;fill-rule:nonzero;stroke:black;stroke-width:1px;"/>
        </g>
        <g transform="matrix(-0.866026,0.499998,0.499998,0.866026,446.295,1938.13)">
            <path d="M-4.005,-14.616L11.685,-14.616L3.915,-1.073L-11.773,-1.072L-4.005,-14.616Z" style="fill:none;fill-rule:nonzero;stroke:black;stroke-width:1px;"/>
        </g>
        <g transform="matrix(1,0,0,1,428.868,1945.23)">
            <path d="M0,-13.921L-12.084,-8.594C-13.381,-7.845 -13.368,-6.644 -12.099,-5.907L-3.223,-0.749C-1.934,0 0.118,0 1.415,-0.748L13.5,-6.076L0,-13.921Z" style="fill:none;fill-rule:nonzero;stroke:black;stroke-width:1px;"/>
        </g>
        <g transform="matrix(1,0,0,1,454.54,1930.57)">
            <path d="M0,-15.736L-12.084,-7.109L1.415,0.736L13.5,-7.891C14.775,-8.628 14.803,-9.829 13.514,-10.577L4.638,-15.736C3.37,-16.472 1.276,-16.472 0,-15.736Z" style="fill:none;fill-rule:nonzero;stroke:black;stroke-width:1px;"/>
        </g>
        <g transform="matrix(-0.502453,0.864604,0.864604,0.502453,447.918,1928.17)">
            <path d="M5.481,-9.524C8.533,-11.273 11.007,-9.856 11.008,-6.354C11.008,-2.853 8.533,1.405 5.481,3.156C2.429,4.906 -0.044,3.486 -0.045,-0.014C-0.045,-3.515 2.429,-7.774 5.481,-9.524Z" style="fill:none;fill-rule:nonzero;stroke:black;stroke-width:1px;"/>
        </g>
        <g transform="matrix(-0.50244,0.864612,0.864612,0.50244,445.158,1930.42)">
            <path d="M3.253,-5.65C5.063,-6.689 6.53,-5.847 6.531,-3.769C6.531,-1.693 5.062,0.833 3.253,1.871C1.442,2.91 -0.026,2.069 -0.025,-0.009C-0.026,-2.086 1.442,-4.611 3.253,-5.65Z" style="fill:none;fill-rule:nonzero;stroke:black;stroke-width:1px;"/>
        </g>
        <g transform="matrix(-0.865973,0.500091,0.500091,0.865973,433.901,1923.95)">
            <path d="M5.279,-9.495L7.157,-9.495L2.546,1.414L0.667,1.415L5.279,-9.495Z" style="fill:none;fill-rule:nonzero;stroke:black;stroke-width:1px;"/>
        </g>
        <g transform="matrix(-0.865973,0.500091,0.500091,0.865973,460.891,1938.69)">
            <path d="M6.088,-6.402L7.966,-6.402L1.717,1.631L-0.162,1.631L6.088,-6.402Z" style="fill:none;fill-rule:nonzero;stroke:black;stroke-width:1px;"/>
        </g>
        <g transform="matrix(-0.92734,0.374219,0.374219,0.92734,425.653,1942.26)">
            <path d="M-8.465,-3.136L1.77,-3.136L0.607,-1.643L-9.625,-1.643L-8.465,-3.136Z" style="fill:none;fill-rule:nonzero;stroke:black;stroke-width:1px;"/>
        </g>
        <g transform="matrix(-0.799687,0.600417,0.600417,0.799687,455.69,1928)">
            <path d="M-9.516,-4.917L2.378,-4.917L1.641,-3.175L-10.253,-3.175L-9.516,-4.917Z" style="fill:none;fill-rule:nonzero;stroke:black;stroke-width:1px;"/>
        </g>
        <g transform="matrix(1,0,0,1,469.008,1943.7)">
            <path d="M0,-22.491L-0.022,-22.495C-0.074,-22.931 -0.374,-23.361 -0.955,-23.699L-9.832,-28.858C-11.099,-29.595 -13.192,-29.595 -14.469,-28.858L-26.553,-20.231L-38.56,-28.858C-39.827,-29.595 -41.92,-29.595 -43.196,-28.858L-52.131,-23.699C-52.746,-23.345 -53.056,-22.888 -53.088,-22.428L-53.194,-22.424L-53.194,-16.679L-53.061,-16.665C-53.013,-16.22 -52.728,-15.782 -52.146,-15.444L-43.976,-10.696L-52.225,-7.059C-52.892,-6.674 -53.207,-6.17 -53.188,-5.67L-53.194,-5.67L-53.194,-0.152L-53.19,-0.152C-53.196,0.336 -52.879,0.825 -52.241,1.196L-43.364,6.355C-42.075,7.104 -40.023,7.104 -38.726,6.355L-30.019,1.327L-26.641,3.29L-23.264,1.34L-14.636,6.355C-13.368,7.092 -11.295,7.104 -9.998,6.355L-1.063,1.196C-0.423,0.826 -0.104,0.336 -0.104,-0.152L-0.102,-0.152L-0.102,-5.847L-0.123,-5.847C-0.172,-6.29 -0.472,-6.723 -1.048,-7.058L-9.216,-10.683L-0.969,-15.444C-0.244,-15.863 0.03,-16.429 -0.065,-16.98L0,-16.999L0,-22.491Z" style="fill:none;fill-rule:nonzero;stroke:black;stroke-width:1px;"/>
        </g>
        <g transform="matrix(0.866023,-0.500003,-0.500003,-0.866023,477.463,2000.93)">
            <path d="M-9.378,32.503L122.743,32.503L121.304,34.998L-10.82,34.998L-9.378,32.503Z" style="fill:none;fill-rule:nonzero;stroke:black;stroke-width:1px;"/>
        </g>
        <g transform="matrix(0.86602,-0.500009,-0.500009,-0.86602,484.948,2005.25)">
            <path d="M-9.378,32.504L122.743,32.504L121.304,34.998L-10.819,34.999L-9.378,32.504Z" style="fill:none;fill-rule:nonzero;stroke:black;stroke-width:1px;"/>
        </g>
        <g transform="matrix(1,0,0,1,627.447,1528.59)">
            <g>
                <clipPath id="_clip9">
                    <rect x="-165.112" y="-5.906" width="165.612" height="202.56" clip-rule="nonzero"/>
                </clipPath>
                <g clip-path="url(#_clip9)">
                    <path d="M0,193.385L-4.174,195.792L-4.174,153.193L-29.349,86.083L-164.523,6.515L-161.922,-2.407L-161.922,5.013L-25.632,83.7L0,151.108L0,193.385Z" style="fill:none;fill-rule:nonzero;stroke:black;stroke-width:1px;"/>
                </g>
            </g>
        </g>
        <g transform="matrix(1,0,0,1,809.602,1423.42)">
            <g>
                <clipPath id="_clip10">
                    <rect x="-165.113" y="-5.91" width="165.613" height="202.57" clip-rule="nonzero"/>
                </clipPath>
                <g clip-path="url(#_clip10)">
                    <path d="M0,193.384L-4.174,195.792L-4.174,153.191L-29.35,86.083L-164.524,6.514L-161.923,-2.408L-161.923,5.012L-25.632,83.7L0,151.107L0,193.384Z" style="fill:none;fill-rule:nonzero;stroke:black;stroke-width:1px;"/>
                </g>
            </g>
        </g>
    </g>
</svg>
