<svg width="20" height="20" viewBox="0 0 20 20" fill="none" xmlns="http://www.w3.org/2000/svg">
<path d="M2.77389 8.54107C6.05209 8.00288 8.62247 5.43251 9.16066 2.15432L9.42491 0.559256C9.47378 0.249375 9.22266 -0.0213621 8.90947 0.00146913C6.41415 0.193919 4.06234 1.02244 2.76085 1.55412C2.1313 1.81182 1.71704 2.42505 1.71704 3.11005V8.14963C1.71704 8.44651 1.98126 8.67157 2.27483 8.62263L2.77389 8.54107Z" fill="#60646C"/>
<path d="M10.7393 2.15419C11.2775 5.4324 13.8479 8.00277 17.1261 8.54096L17.6251 8.62252C17.9187 8.67146 18.1829 8.4464 18.1829 8.14952V3.10992C18.1829 2.42819 17.7686 1.81495 17.1391 1.554C15.8409 1.01905 13.4858 0.193797 10.9905 0.00134706C10.6773 -0.0214842 10.4229 0.249253 10.4751 0.559134L10.7393 2.15419Z" fill="#60646C"/>
<path d="M17.1287 10.1233C13.8506 10.6615 11.2802 13.2319 10.7419 16.5101L10.4158 19.622C10.3864 19.9025 10.6963 20.1015 10.9312 19.9449C10.9312 19.9449 10.9344 19.9449 10.9377 19.9416C12.9927 18.5553 17.6832 14.9248 18.1464 10.3908C18.1693 10.169 17.9703 9.98635 17.7517 10.0222L17.132 10.1233H17.1287Z" fill="#60646C"/>
<path d="M9.15922 16.5086C8.62103 13.2304 6.05066 10.6601 2.77246 10.1218L2.10378 10.011C1.90807 9.97833 1.73192 10.1414 1.75149 10.3404C2.19185 14.9005 6.94768 18.5538 9.01897 19.9401C9.23428 20.0836 9.51803 19.9108 9.49197 19.6531L9.16253 16.5054L9.15922 16.5086Z" fill="#60646C"/>
</svg>
