<svg width="21" height="20" viewBox="0 0 21 20" fill="none" xmlns="http://www.w3.org/2000/svg">
<path d="M15.7336 3.88501L17.4571 3.44122L17.4699 3.46015L17.5134 13.8664L17.4571 13.9229L17.102 13.9381L15.7538 13.7283L15.7336 13.6752V3.88501ZM5.76611 14.6459L5.77247 14.6463L10.3218 15.9682L10.3333 15.9771L10.3531 15.9929L10.3467 19.9541L10.3333 19.9709L5.76611 17.7521V14.6459Z" fill="#60646C"/>
<path d="M15.7336 13.6752L10.3408 14.9667L7.6332 14.3131L5.76611 14.6459L10.3333 15.9771L17.3823 14.0687L17.4571 13.9229L15.7336 13.6752Z" fill="#60646C"/>
<path d="M14.9004 5.32717L14.8565 5.27708L10.3823 3.97704L10.3332 3.99596L10.2883 3.97302L3.24793 6.00315L3.20947 6.05016L3.26598 6.08112L4.876 6.31719L4.93291 6.29786L10.3257 5.00644L13.0333 5.66001L14.9004 5.32717Z" fill="#60646C"/>
<path d="M4.933 16.0881L3.20956 16.5041L3.20655 16.4942L3.13867 6.12681L3.20956 6.05017L4.933 6.29788V16.0881Z" fill="#60646C"/>
<path d="M7.25977 12.0666L10.3333 12.4272L10.3564 12.3927L10.3689 7.58529L10.3333 7.5459L7.25977 7.90649V12.0666Z" fill="#60646C"/>
<path d="M13.4068 12.0666L10.3333 12.4272V7.5459L13.4068 7.90649V12.0666ZM14.9005 5.32719L10.3333 3.99597V0.00219727L14.9005 2.22091V5.32719Z" fill="#60646C"/>
<path d="M10.3332 0.00219727L1.77319 4.1346V15.8385L3.20947 16.5041V6.05017L10.3332 3.99597V0.00219727Z" fill="#60646C"/>
<path d="M17.457 3.44122V13.9229L10.3333 15.9771V19.9709L18.8933 15.8384V4.13458L17.457 3.44122Z" fill="#60646C"/>
</svg>
