<svg width="21" height="20" viewBox="0 0 21 20" fill="none" xmlns="http://www.w3.org/2000/svg">
<g clip-path="url(#clip0_5081_57813)">
<path d="M7.32653 0.600475H13.2377L7.10128 18.7928C7.0699 18.8857 7.02424 18.9731 6.96593 19.052C6.90774 19.1309 6.83757 19.2001 6.75791 19.2572C6.67825 19.3144 6.59035 19.3589 6.49695 19.3888C6.40355 19.4188 6.30616 19.4343 6.20827 19.4343H1.60788C1.45855 19.4343 1.31121 19.3988 1.17836 19.3304C1.04537 19.2622 0.930565 19.1632 0.843483 19.0417C0.756344 18.9202 0.699338 18.7798 0.677168 18.6319C0.654943 18.4841 0.668428 18.333 0.716125 18.1914L6.43327 1.24151C6.46449 1.14862 6.51019 1.06121 6.56862 0.982301C6.62681 0.903388 6.69723 0.834215 6.77664 0.777029C6.8563 0.719842 6.9442 0.675392 7.0376 0.645425C7.131 0.615458 7.22839 0.599976 7.32628 0.599976V0.600225L7.32653 0.600475Z" fill="#60646C"/>
<path d="M18.2234 19.4342H12.9156C12.8564 19.4342 12.7972 19.4287 12.7388 19.4174C12.6806 19.4065 12.6234 19.39 12.5682 19.3682C12.513 19.3465 12.4601 19.3196 12.4099 19.2881C12.3598 19.2564 12.3127 19.2201 12.2693 19.1797L6.246 13.5545C6.18229 13.495 6.13792 13.4177 6.11864 13.3327C6.09938 13.2477 6.10616 13.1588 6.13809 13.0777C6.17003 12.9966 6.22564 12.927 6.29769 12.878C6.36986 12.829 6.45502 12.8028 6.54217 12.8028H15.9158L18.2229 19.4344L18.2234 19.4342Z" fill="#60646C"/>
<path d="M20.5938 18.1913C20.6415 18.333 20.655 18.4839 20.633 18.6318C20.6108 18.7796 20.5539 18.92 20.4669 19.0416C20.3798 19.163 20.2651 19.2619 20.1321 19.3302C19.9992 19.3985 19.852 19.4341 19.7025 19.4342H13.1144C13.2637 19.4342 13.411 19.3984 13.5441 19.3303C13.677 19.2621 13.7919 19.163 13.879 19.0416C13.9662 18.9202 14.0231 18.7796 14.0453 18.6318C14.0675 18.484 14.0541 18.3329 14.0064 18.1913L8.28897 1.24088C8.22603 1.05416 8.10612 0.89188 7.9461 0.776896C7.86669 0.719709 7.77879 0.675508 7.68564 0.645542C7.59249 0.615575 7.4951 0.600342 7.39746 0.600342H13.9854C14.0833 0.600342 14.1804 0.615575 14.2738 0.645542C14.367 0.675508 14.4549 0.719959 14.5345 0.776896C14.6139 0.834082 14.6841 0.903255 14.7423 0.981918C14.8005 1.06058 14.8459 1.14798 14.8774 1.24088L20.5948 18.1913H20.5938Z" fill="#60646C"/>
</g>
<defs>
<clipPath id="clip0_5081_57813">
<rect width="20" height="20" fill="white" transform="translate(0.666748)"/>
</clipPath>
</defs>
</svg>
