<svg width="20" height="20" viewBox="0 0 20 20" fill="none" xmlns="http://www.w3.org/2000/svg">
<g clip-path="url(#clip0_5081_57828)">
<path d="M19.5482 8.18182H10.23V12.0455H15.5936C15.0936 14.5 13.0027 15.9091 10.23 15.9091C6.95725 15.9091 4.32089 13.2727 4.32089 10C4.32089 6.72727 6.95725 4.09091 10.23 4.09091C11.6391 4.09091 12.9118 4.59092 13.9118 5.4091L16.8209 2.5C15.0482 0.954545 12.7754 0 10.23 0C4.68453 0 0.22998 4.45455 0.22998 10C0.22998 15.5455 4.68453 20 10.23 20C15.23 20 19.7754 16.3636 19.7754 10C19.7754 9.40909 19.6845 8.77273 19.5482 8.18182Z" fill="#60646C"/>
</g>
<defs>
<clipPath id="clip0_5081_57828">
<rect width="20" height="20" fill="white"/>
</clipPath>
</defs>
</svg>
