<svg width="21" height="20" viewBox="0 0 21 20" fill="none" xmlns="http://www.w3.org/2000/svg">
<g clip-path="url(#clip0_5081_57855)">
<mask id="mask0_5081_57855" style="mask-type:luminance" maskUnits="userSpaceOnUse" x="0" y="5" width="21" height="10">
<path d="M20.4334 5.20001H0.43335V15H20.4334V5.20001Z" fill="white"/>
</mask>
<g mask="url(#mask0_5081_57855)">
<path d="M20.3889 12.1589C20.3889 12.8759 20.1041 13.5635 19.5971 14.0704C19.0902 14.5774 18.4026 14.8622 17.6857 14.8622H16.9425C16.865 13.9611 15.9352 13.1949 14.6209 12.8391C14.9524 12.5121 15.179 12.0939 15.2722 11.6377C15.3653 11.1814 15.3207 10.7079 15.144 10.2771C14.9672 9.84631 14.6664 9.47783 14.2797 9.2185C13.893 8.95916 13.4378 8.82069 12.9722 8.82069C12.5066 8.82069 12.0516 8.95916 11.6649 9.2185C11.2781 9.47783 10.9773 9.84631 10.8006 10.2771C10.6238 10.7079 10.5792 11.1814 10.6723 11.6377C10.7655 12.0939 10.9922 12.5121 11.3236 12.8391C10.6984 12.9885 10.1174 13.2835 9.62768 13.7C9.31863 13.5228 8.98773 13.3867 8.6434 13.2953C8.92834 13.016 9.12366 12.6582 9.20443 12.2675C9.28521 11.8767 9.24778 11.4708 9.09693 11.1014C8.94609 10.732 8.68865 10.4159 8.35745 10.1934C8.02624 9.97087 7.63627 9.85204 7.23727 9.85204C6.83825 9.85204 6.44829 9.97087 6.11709 10.1934C5.78587 10.4159 5.52845 10.732 5.3776 11.1014C5.22674 11.4708 5.18933 11.8767 5.2701 12.2675C5.35087 12.6582 5.54618 13.016 5.83114 13.2953C4.79518 13.5823 4.04047 14.1562 3.87977 14.8507H3.13653C2.43446 14.8278 1.76879 14.5328 1.28025 14.0281C0.791698 13.5234 0.518555 12.8485 0.518555 12.146C0.518555 11.4436 0.791698 10.7687 1.28025 10.264C1.76879 9.75923 2.43446 9.46426 3.13653 9.44139C3.48062 9.4426 3.82139 9.50882 4.14091 9.63653C4.35758 9.16573 4.70529 8.76732 5.14245 8.48895C5.5796 8.21057 6.08768 8.06402 6.60595 8.06683C6.67195 8.06683 6.73795 8.06683 6.80108 8.06683C6.93633 7.36689 7.28067 6.72444 7.78866 6.22428C8.29665 5.72413 8.94437 5.3898 9.64633 5.26545C10.3483 5.1411 11.0714 5.23257 11.7203 5.52779C12.3693 5.82301 12.9133 6.30808 13.2808 6.91897C13.7011 6.79128 14.1451 6.76178 14.5786 6.83277C15.0121 6.90375 15.4236 7.07329 15.7812 7.32835C16.1388 7.58341 16.4331 7.91718 16.6414 8.30393C16.8497 8.69068 16.9664 9.12007 16.9826 9.55904C17.3834 9.44989 17.804 9.43478 18.2116 9.5149C18.6193 9.59502 19.003 9.76821 19.3326 10.021C19.6624 10.2737 19.9291 10.5992 20.1124 10.972C20.2956 11.3449 20.3902 11.755 20.3889 12.1704V12.1589ZM24.1194 14.5809V9.9895H22.7162V14.7789C22.7162 15.1004 22.6128 15.3156 22.2944 15.3156C22.1836 15.3166 22.073 15.306 21.9644 15.284L21.9012 16.4921C22.0512 16.517 22.2026 16.5313 22.3546 16.5352C23.6575 16.5237 24.1309 15.769 24.1309 14.5809H24.1194ZM28.2919 14.8679H29.6637V9.96654H28.2689V12.6927C28.283 12.8268 28.2681 12.9624 28.2253 13.0903C28.1825 13.2182 28.1128 13.3355 28.0209 13.4342C27.929 13.5329 27.817 13.6107 27.6925 13.6625C27.568 13.7143 27.4338 13.7388 27.299 13.7344C26.7825 13.7344 26.5558 13.3958 26.5558 12.8879V9.96654H25.1525V13.281C25.1525 14.3456 25.6289 15.0028 26.5558 15.0028C27.3306 15.0028 27.9303 14.5063 28.2087 13.568H28.312L28.2919 14.8679ZM32.0597 12.1417C32.0483 12.0076 32.0655 11.8725 32.1101 11.7455C32.1546 11.6184 32.2256 11.5023 32.3183 11.4047C32.4111 11.307 32.5234 11.2302 32.6481 11.1792C32.7726 11.1282 32.9066 11.1041 33.0412 11.1087C33.5463 11.1087 33.7844 11.4502 33.7844 11.9466V14.8679H35.1877V12.1417C35.175 12.0083 35.1908 11.8737 35.2343 11.7468C35.2776 11.62 35.3475 11.5038 35.4393 11.4061C35.531 11.3083 35.6426 11.2313 35.7664 11.18C35.8903 11.1287 36.0237 11.1044 36.1576 11.1087C36.6741 11.1087 36.9009 11.4502 36.9009 11.9466V14.8679H38.3156V11.5477C38.3156 10.4831 37.8307 9.82592 36.8808 9.82592C36.0744 9.82592 35.5177 10.331 35.2508 11.2894H35.1361C35.0758 10.3712 34.6511 9.82592 33.7844 9.82592C33.0096 9.82592 32.4214 10.3195 32.143 11.2608H32.0397V9.94932H30.668V14.8449H32.0713L32.0597 12.1417ZM44.0349 12.4287C44.0349 10.7442 43.4237 9.84601 42.3503 9.84601C41.567 9.84601 41.0303 10.3626 40.772 11.2177H40.6802V9.97802H39.2741V16.4405H40.6802V13.5909H40.7606C41.0102 14.4518 41.5353 15.0257 42.3503 15.0257C43.415 15.0057 44.0521 14.1074 44.0521 12.4258L44.0349 12.4287ZM41.6702 13.7688C41.0705 13.7688 40.6802 13.3154 40.6802 12.621V12.2364C40.6802 11.5362 41.0619 11.0886 41.6818 11.0886C42.3503 11.0886 42.6516 11.5133 42.6516 12.4115C42.6516 13.3097 42.3619 13.766 41.6818 13.766L41.6702 13.7688ZM48.0093 11.9638L49.3093 11.7142C49.1343 10.529 48.5144 9.8374 47.0595 9.8374C45.5013 9.8374 44.5514 10.816 44.5514 12.4804C44.5514 14.1448 45.5213 15.0085 47.0681 15.0085C48.4627 15.0085 49.1543 14.2969 49.3207 13.1605L48.0294 12.8505C47.9261 13.3556 47.688 13.7803 47.0595 13.7803C46.3363 13.7803 45.9862 13.2752 45.9862 12.4057C45.9862 11.4788 46.388 11.0656 47.0394 11.0656C47.6908 11.0656 47.8974 11.4329 48.0208 11.9609L48.0093 11.9638ZM51.5275 8.23327H50.1357V14.8622H51.539L51.5275 8.23327ZM54.8333 15.0057C56.3915 15.0057 57.3414 14.0242 57.3414 12.423C57.3414 10.8217 56.36 9.84027 54.8333 9.84027C53.3066 9.84027 52.3024 10.7901 52.3024 12.423C52.3024 14.0558 53.2551 15.0057 54.8449 15.0057H54.8333ZM54.8333 11.0111C55.6082 11.0111 55.9468 11.5162 55.9468 12.4029C55.9468 13.2896 55.6168 13.809 54.8333 13.809C54.05 13.809 53.717 13.2925 53.717 12.4029C53.717 11.5133 54.0585 11.0111 54.8333 11.0111ZM61.2441 14.8622H62.6158V9.96654H61.204V12.6927C61.2176 12.827 61.2022 12.9626 61.1591 13.0905C61.1161 13.2184 61.0461 13.3356 60.9539 13.4343C60.8618 13.5329 60.7496 13.6107 60.625 13.6625C60.5003 13.7142 60.3661 13.7388 60.2312 13.7344C59.7175 13.7344 59.488 13.3958 59.488 12.8879V9.96654H58.0846V13.281C58.0846 14.3456 58.5611 15.0028 59.488 15.0028C60.2627 15.0028 60.8625 14.5063 61.1408 13.568H61.2441V14.8622ZM66.7252 14.8622H68.1284V8.23327H66.7224V11.2062H66.6305C66.3722 10.3453 65.8443 9.83453 65.0608 9.83453C63.9876 9.83453 63.3677 10.7528 63.3677 12.4545C63.3677 14.1074 63.9876 15.0057 65.0407 15.0057C65.8557 15.0057 66.3924 14.4317 66.6392 13.5708H66.7224L66.7252 14.8622ZM65.7352 13.766C65.0436 13.766 64.7422 13.3326 64.7422 12.4545C64.7422 11.5764 65.0522 11.1029 65.7237 11.1029C66.3436 11.1029 66.7252 11.5563 66.7252 12.2709V12.6583C66.7224 13.3326 66.3234 13.766 65.7352 13.766ZM24.1883 8.60058C24.1883 8.75043 24.1439 8.89689 24.0607 9.02148C23.9774 9.14607 23.859 9.24316 23.7207 9.30051C23.5822 9.35784 23.4299 9.37285 23.283 9.34362C23.1359 9.31439 23.0009 9.24223 22.895 9.13628C22.789 9.03033 22.7169 8.89534 22.6877 8.74839C22.6584 8.60143 22.6734 8.4491 22.7308 8.31066C22.7882 8.17223 22.8852 8.05391 23.0099 7.97068C23.1344 7.88743 23.2809 7.843 23.4307 7.843C23.5302 7.843 23.6287 7.86259 23.7207 7.90066C23.8126 7.93873 23.8961 7.99454 23.9664 8.06489C24.0368 8.13523 24.0926 8.21876 24.1307 8.31066C24.1687 8.40258 24.1883 8.50109 24.1883 8.60058Z" fill="#60646C"/>
</g>
</g>
<defs>
<clipPath id="clip0_5081_57855">
<rect width="20" height="20" fill="white" transform="translate(0.333252)"/>
</clipPath>
</defs>
</svg>
