<svg width="21" height="20" viewBox="0 0 21 20" fill="none" xmlns="http://www.w3.org/2000/svg">
<g clip-path="url(#clip0_5081_57870)">
<path fill-rule="evenodd" clip-rule="evenodd" d="M11.657 0.144275L11.2464 5.2048C11.0522 5.1826 10.8579 5.17151 10.6582 5.17151C10.4085 5.17151 10.1643 5.18815 9.92574 5.227L9.69269 2.77442C9.68714 2.69673 9.74818 2.63015 9.82586 2.63015H10.242L10.0423 0.149824C10.0367 0.0721401 10.0978 0.0055542 10.1699 0.0055542H11.5294C11.607 0.0055542 11.6681 0.0721401 11.657 0.149824V0.144275ZM8.2278 0.393972C8.20561 0.321837 8.12792 0.277446 8.05579 0.305191L6.77956 0.771292C6.70742 0.799036 6.67413 0.882268 6.70742 0.948854L7.74505 3.21277L7.35109 3.35704C7.27895 3.38479 7.24566 3.46802 7.27895 3.5346L8.33878 5.75968C8.72165 5.54883 9.13781 5.38791 9.57617 5.28803L8.23335 0.393972H8.2278ZM5.09827 1.80337L8.03359 5.94279C7.66182 6.18694 7.32334 6.47548 7.0348 6.80841L5.27583 5.07718C5.22034 5.02169 5.22589 4.93291 5.28138 4.88297L5.60321 4.61662L3.85533 2.84655C3.79984 2.79106 3.80539 2.70228 3.86643 2.65234L4.90406 1.78118C4.96509 1.73124 5.04833 1.74234 5.09272 1.80337H5.09827ZM2.63459 4.20046C2.57355 4.15607 2.48477 4.17827 2.44593 4.24485L1.76897 5.4212C1.73013 5.48779 1.75788 5.57102 1.82446 5.60432L4.07728 6.66969L3.86643 7.03036C3.82759 7.09695 3.85533 7.18573 3.92746 7.21347L6.16919 8.24001C6.3301 7.82384 6.54651 7.43543 6.81285 7.08585L2.63459 4.20046ZM0.975492 7.39658C0.98659 7.3189 1.06427 7.27451 1.13641 7.29116L6.04711 8.57294C5.91949 8.9891 5.84736 9.42745 5.83626 9.88246L3.37813 9.6827C3.30045 9.67715 3.24496 9.60502 3.26161 9.52733L3.33374 9.11672L0.853418 8.88367C0.775735 8.87812 0.725795 8.80599 0.736893 8.7283L0.969943 7.39104L0.975492 7.39658ZM0.792381 10.7148C0.714697 10.7203 0.664758 10.7925 0.675856 10.8701L0.914455 12.2074C0.925553 12.2851 1.00324 12.3295 1.07537 12.3128L3.48356 11.6858L3.55569 12.0964C3.56679 12.1741 3.64447 12.2185 3.71661 12.2019L6.09151 11.5471C5.95278 11.1365 5.864 10.6981 5.84181 10.2487L0.786832 10.7148H0.792381ZM1.58031 14.2327C1.54147 14.1661 1.56922 14.0829 1.6358 14.0496L6.21913 11.8745C6.39114 12.2851 6.62419 12.668 6.90163 13.012L4.89296 14.4436C4.83192 14.488 4.74314 14.4713 4.7043 14.4047L4.49344 14.0385L2.44593 15.4535C2.38489 15.4979 2.29611 15.4757 2.25727 15.4091L1.57476 14.2327H1.58031ZM7.13468 13.2783L3.56679 16.8906C3.5113 16.9461 3.51685 17.0349 3.57789 17.0848L4.62107 17.956C4.6821 18.0059 4.76534 17.9948 4.80973 17.9338L6.25242 15.9029L6.57425 16.1748C6.63529 16.2248 6.72407 16.2137 6.76846 16.1471L8.16676 14.1162C7.78944 13.8832 7.43987 13.6002 7.14023 13.2783H7.13468ZM6.42998 19.0769C6.35785 19.0491 6.32456 18.9659 6.35785 18.8993L8.47195 14.2827C8.86037 14.4824 9.28208 14.6322 9.72043 14.7155L9.09897 17.1015C9.08232 17.1736 8.99909 17.218 8.92695 17.1903L8.53299 17.046L7.87268 19.4486C7.85048 19.5208 7.7728 19.5652 7.70066 19.5374L6.42443 19.0713L6.42998 19.0769ZM10.07 14.7765L9.6594 19.837C9.65385 19.9147 9.71489 19.9813 9.78702 19.9813H11.1465C11.2242 19.9813 11.2852 19.9147 11.2741 19.837L11.0743 17.3567H11.4905C11.5682 17.3567 11.6292 17.2901 11.6237 17.2125L11.3906 14.7599C11.152 14.7987 10.9079 14.8154 10.6582 14.8154C10.4584 14.8154 10.2642 14.8043 10.07 14.7765ZM14.9641 1.07648C14.9974 1.00434 14.9641 0.926659 14.8919 0.898915L13.6157 0.432813C13.5436 0.405069 13.4659 0.44946 13.4437 0.521595L12.7834 2.92423L12.3894 2.77996C12.3173 2.75222 12.2396 2.79661 12.2174 2.86875L11.5959 5.25474C12.0398 5.34352 12.456 5.49334 12.8444 5.68755L14.9641 1.07648ZM17.7496 3.0907L14.1817 6.70298C13.8821 6.38115 13.538 6.09816 13.1552 5.86511L14.5535 3.83424C14.5978 3.7732 14.6866 3.75656 14.7477 3.8065L15.0695 4.07839L16.5122 2.04752C16.5566 1.98648 16.6454 1.97539 16.7009 2.02533L17.744 2.89649C17.8051 2.94643 17.8051 3.03521 17.7551 3.0907H17.7496ZM19.6806 5.9317C19.7527 5.8984 19.7749 5.81517 19.7361 5.74858L19.0536 4.57223C19.0147 4.50565 18.9259 4.489 18.8649 4.52784L16.8174 5.94279L16.6065 5.58212C16.5677 5.51553 16.4789 5.49334 16.4179 5.54328L14.4092 6.97487C14.6866 7.3189 14.9141 7.70177 15.0917 8.11238L19.675 5.93724L19.6806 5.9317ZM20.4019 7.7739L20.635 9.11117C20.6461 9.18885 20.5961 9.25544 20.5184 9.26654L15.4635 9.73819C15.4413 9.28318 15.3525 8.85038 15.2138 8.43976L17.5887 7.785C17.6608 7.76281 17.7385 7.81275 17.7496 7.89043L17.8217 8.30104L20.2299 7.67403C20.302 7.65738 20.3797 7.70177 20.3908 7.77945L20.4019 7.7739ZM20.1744 12.6846C20.2465 12.7013 20.3242 12.6569 20.3353 12.5792L20.5684 11.2419C20.5795 11.1642 20.5295 11.0976 20.4519 11.0866L17.9715 10.8535L18.0437 10.4429C18.0548 10.3652 18.0048 10.2986 17.9271 10.2875L15.469 10.0878C15.4579 10.5428 15.3858 10.9811 15.2582 11.3973L20.1689 12.6791L20.1744 12.6846ZM18.8649 15.7365C18.826 15.8031 18.7373 15.8197 18.6762 15.7809L14.498 12.8955C14.7643 12.5459 14.9807 12.1575 15.1416 11.7413L17.3834 12.7678C17.4555 12.8011 17.4832 12.8844 17.4444 12.951L17.2335 13.3116L19.4864 14.377C19.5529 14.4103 19.5807 14.4935 19.5418 14.5601L18.8649 15.7365ZM13.2772 14.033L16.2126 18.1724C16.2569 18.2334 16.3457 18.2445 16.4012 18.1946L17.4388 17.3234C17.4999 17.2735 17.4999 17.1847 17.4499 17.1292L15.7021 15.3591L16.0239 15.0928C16.0849 15.0429 16.0849 14.9541 16.0294 14.8986L14.2705 13.1674C13.9764 13.5003 13.6435 13.7944 13.2717 14.033H13.2772ZM13.2495 19.6706C13.1774 19.6983 13.0997 19.6539 13.0775 19.5818L11.7347 14.6877C12.173 14.5879 12.5892 14.4269 12.972 14.2161L14.0319 16.4412C14.0652 16.5133 14.0319 16.5965 13.9597 16.6187L13.5658 16.763L14.6034 19.0269C14.6367 19.0991 14.6034 19.1767 14.5313 19.2045L13.255 19.6706H13.2495Z" fill="#60646C"/>
</g>
<defs>
<clipPath id="clip0_5081_57870">
<rect width="20" height="20" fill="white" transform="translate(0.666748)"/>
</clipPath>
</defs>
</svg>
