<svg width="64" height="65" viewBox="0 0 64 65" fill="none" xmlns="http://www.w3.org/2000/svg">
<path d="M52.8 44.7333C52.8 44.7333 57.6 44.2 57.6 38.3333C57.6 32.4666 52 31.6666 52 31.6666H41.8667V50.8666H46.9334V46.3333L51.4667 50.8666H58.6667L52.8 44.7333ZM50.6667 41H46.6667V36.7333H50.6667C50.6667 36.7333 51.7334 37.2666 51.7334 38.8666C52 40.4666 50.6667 41 50.6667 41ZM56.8 22.0666V22.6C35.2 16.4666 26.6667 35.4 28.2667 50.0666C28.2667 50.0666 13.0667 50.0666 11.4667 50.0666C13.3334 35.6666 31.4667 7.1333 56.8 22.0666ZM54.6667 18.6C52.8 17.8 50.9334 17 49.0667 16.4666L49.3334 13L54.9334 15.1333L54.6667 18.6ZM49.3334 23.4C51.2 23.4 53.0667 23.6666 54.9334 24.2L54.6667 27.4L49.8667 26.8666L49.3334 23.4ZM37.0667 15.6666L36 12.4666L41.6 11.9333L42.6667 15.4C42.1334 15.4 37.6 15.6666 37.0667 15.6666ZM40.5334 25.5333C41.6 25 43.4667 24.2 45.8667 23.6666L46.9334 26.8666L42.1334 28.7333L40.5334 25.5333ZM31.4667 17.5333C29.8667 18.3333 28.2667 19.1333 26.6667 20.2L24.5334 16.7333L29.3334 14.0666L31.4667 17.5333ZM38.1334 27.1333L40.2667 30.3333L37.3334 33.8L34.4 31.1333C35.2 29.5333 36.5334 28.2 38.1334 27.1333ZM30.9334 40.2C31.2 38.0666 31.7334 36.2 32.5334 34.0666L35.7334 36.7333L34.9334 41.8L30.9334 40.2ZM21.0667 25C19.7334 26.3333 18.4 27.9333 17.3334 29.2666L13.8667 26.3333L17.8667 22.0666L21.0667 25ZM12.8 36.7333C11.7334 38.8666 10.9334 41 10.1334 42.8666L5.33337 41L7.73337 34.8666L12.8 36.7333ZM30.6667 43.6666L35.4667 45.2666L36.2667 50.6L30.9334 49.2666C30.9334 48.7333 30.6667 46.8666 30.6667 43.6666Z" fill="white"/>
</svg>
