<svg width="24" height="25" viewBox="0 0 24 25" fill="none" xmlns="http://www.w3.org/2000/svg">
<path d="M20 5.5V4.5C20 3.95 19.55 3.5 19 3.5H17C16.45 3.5 16 3.95 16 4.5V5.5H15V9.5C15 10.05 15.45 10.5 16 10.5H17V17.5C17 18.6 16.1 19.5 15 19.5C13.9 19.5 13 18.6 13 17.5V7.5C13 5.29 11.21 3.5 9 3.5C6.79 3.5 5 5.29 5 7.5V14.5H4C3.45 14.5 3 14.95 3 15.5V19.5H4V20.5C4 21.05 4.45 21.5 5 21.5H7C7.55 21.5 8 21.05 8 20.5V19.5H9V15.5C9 14.95 8.55 14.5 8 14.5H7V7.5C7 6.4 7.9 5.5 9 5.5C10.1 5.5 11 6.4 11 7.5V17.5C11 19.71 12.79 21.5 15 21.5C17.21 21.5 19 19.71 19 17.5V10.5H20C20.55 10.5 21 10.05 21 9.5V5.5H20Z" fill="black"/>
</svg>
