<svg xmlns="http://www.w3.org/2000/svg" viewBox="0 0 428.32 299.13"><defs><style>.cls-1{fill:#050505;}</style></defs><g id="Layer_2" data-name="Layer 2"><g id="Layer_1-2" data-name="Layer 1"><path class="cls-1" d="M202.18,160.9a42.16,42.16,0,0,0,11.89-36.21c-.06-.93-.1-1.85-.17-2.77-.2-3.08-.43-6.15-.59-9.23-.24-4.78,0-9.57,1.78-14a24.22,24.22,0,0,1,5.37-8.25l0,0A24.67,24.67,0,0,1,228.73,85c4.49-1.81,9.27-2,14.05-1.78,3.08.16,6.15.38,9.23.59l2.77.16a42.22,42.22,0,1,0-35.42-35.55c.06,1,.11,1.94.17,2.91.21,3.08.44,6.15.59,9.23.25,4.78,0,9.57-1.78,14A24.57,24.57,0,0,1,213,82.86l0,0a24.22,24.22,0,0,1-8.25,5.37c-4.48,1.81-9.26,2-14,1.78-3.07-.16-6.15-.39-9.22-.59-1-.07-1.94-.12-2.91-.17a42.23,42.23,0,1,0,23.66,71.63Z"/><circle class="cls-1" cx="172.42" cy="42.33" r="30.98" transform="translate(91.61 200.41) rotate(-76.72)"/><circle class="cls-1" cx="261.08" cy="130.99" r="30.98" transform="translate(12.4 284.22) rotate(-58.28)"/><path class="cls-1" d="M29.45,226.93h-.57a16.68,16.68,0,0,0-10,2.85,16.89,16.89,0,0,0-5.65,7.56V210.78H0v69.35H13.21V250.3a11.61,11.61,0,0,1,3-8.31A10.25,10.25,0,0,1,24,238.81a9.79,9.79,0,0,1,7.31,2.9,10.55,10.55,0,0,1,2.85,7.74v30.68H47.41V250.68q0-11.58-4.57-17.67T29.45,226.93Z"/><path class="cls-1" d="M103.59,234.77a26.07,26.07,0,0,0-8.88-5.89,31,31,0,0,0-11.79-2.14,31.27,31.27,0,0,0-11.82,2.14,25.59,25.59,0,0,0-14.49,14.44,27.17,27.17,0,0,0-1.9,10.12v2a27.33,27.33,0,0,0,1.85,10A25,25,0,0,0,62,273.86a26.19,26.19,0,0,0,8.83,5.89,31,31,0,0,0,12.06,2.19,30.72,30.72,0,0,0,12-2.19,26.24,26.24,0,0,0,8.84-5.89,24.86,24.86,0,0,0,5.46-8.45,27.12,27.12,0,0,0,1.85-10v-2a27.17,27.17,0,0,0-1.9-10.12A25.68,25.68,0,0,0,103.59,234.77ZM96.08,262.7A13.89,13.89,0,0,1,91,268.5a14.68,14.68,0,0,1-8.08,2.13,14.87,14.87,0,0,1-8.17-2.13,14,14,0,0,1-5.08-5.8,20.46,20.46,0,0,1,0-16.67,14,14,0,0,1,5.18-5.84,14.6,14.6,0,0,1,8-2.14,14.43,14.43,0,0,1,8,2.14A14.21,14.21,0,0,1,96,246a20.41,20.41,0,0,1,0,16.67Z"/><path class="cls-1" d="M165.2,234.77a26.07,26.07,0,0,0-8.88-5.89,31,31,0,0,0-11.78-2.14,31.36,31.36,0,0,0-11.83,2.14,26,26,0,0,0-8.93,5.89,25.52,25.52,0,0,0-5.55,8.55,27.17,27.17,0,0,0-1.9,10.12v2a27.12,27.12,0,0,0,1.85,10,24.86,24.86,0,0,0,5.46,8.45,26.24,26.24,0,0,0,8.84,5.89,34.05,34.05,0,0,0,24,0,26.34,26.34,0,0,0,8.84-5.89,25.17,25.17,0,0,0,5.46-8.45,27.33,27.33,0,0,0,1.85-10v-2a27.17,27.17,0,0,0-1.9-10.12A25.7,25.7,0,0,0,165.2,234.77Zm-7.5,27.93a14,14,0,0,1-5.08,5.8,14.68,14.68,0,0,1-8.08,2.13,14.85,14.85,0,0,1-8.17-2.13,13.89,13.89,0,0,1-5.08-5.8,19,19,0,0,1-1.76-8.31,18.76,18.76,0,0,1,1.81-8.36,14,14,0,0,1,5.17-5.84,14.66,14.66,0,0,1,8-2.14,14.42,14.42,0,0,1,8,2.14,14.07,14.07,0,0,1,5.13,5.84,20.35,20.35,0,0,1,0,16.67Z"/><path class="cls-1" d="M228.91,234.53a22.29,22.29,0,0,0-7.6-5.6,23.87,23.87,0,0,0-9.93-2,22.47,22.47,0,0,0-10.83,2.62,19.05,19.05,0,0,0-7.74,7.93,24,24,0,0,0-1.66,3.89V228.55H180.7v70.58h13.2V273.27a18.09,18.09,0,0,0,6.89,6.15,23.1,23.1,0,0,0,10.59,2.42,23.77,23.77,0,0,0,10-2,22.55,22.55,0,0,0,7.64-5.65,24.76,24.76,0,0,0,4.85-8.46,31.93,31.93,0,0,0,1.66-10.45v-2a30.51,30.51,0,0,0-1.71-10.31A25.58,25.58,0,0,0,228.91,234.53Zm-8.45,28.27a13.75,13.75,0,0,1-5,5.84,13.4,13.4,0,0,1-7.41,2.09,15.14,15.14,0,0,1-7-1.71,14.22,14.22,0,0,1-5.42-4.85,13.41,13.41,0,0,1-2.09-7.6v-3.8a14.73,14.73,0,0,1,2-7.93,14.09,14.09,0,0,1,5.32-5,15,15,0,0,1,7.18-1.76,13.17,13.17,0,0,1,12.4,7.74,19.44,19.44,0,0,1,1.75,8.5A19.89,19.89,0,0,1,220.46,262.8Z"/><path class="cls-1" d="M248.46,263.68a8.07,8.07,0,0,0-8.07,8.07v.31a8.07,8.07,0,1,0,16.14,0v-.31A8.07,8.07,0,0,0,248.46,263.68Z"/><path class="cls-1" d="M303,235.82a17.85,17.85,0,0,0-6.46-6.27,21.56,21.56,0,0,0-10.73-2.62,23.74,23.74,0,0,0-10,2,22.94,22.94,0,0,0-7.69,5.65,24.93,24.93,0,0,0-4.95,8.45,31.19,31.19,0,0,0-1.71,10.36v2a29.76,29.76,0,0,0,1.81,10.45,24.77,24.77,0,0,0,5.13,8.41,23.69,23.69,0,0,0,7.84,5.56,24.52,24.52,0,0,0,10,2A22.19,22.19,0,0,0,297,279.23a19.61,19.61,0,0,0,7.75-7.88c.34-.63.65-1.29.95-2v10.74h10.54V210.78H303Zm.38,20.09a15.57,15.57,0,0,1-1.95,7.93,13.31,13.31,0,0,1-5.13,5.13,14.4,14.4,0,0,1-7.07,1.76,13.76,13.76,0,0,1-12.64-7.65,18.36,18.36,0,0,1-1.9-8.6,18.85,18.85,0,0,1,1.85-8.59,14.39,14.39,0,0,1,5.13-5.75,13.78,13.78,0,0,1,7.56-2.09,14.91,14.91,0,0,1,6.93,1.66,13.4,13.4,0,0,1,5.23,4.8,13.86,13.86,0,0,1,2,7.6Z"/><path class="cls-1" d="M364.42,230.4q-5.64-3.66-14-3.66A26.8,26.8,0,0,0,339.16,229a23.25,23.25,0,0,0-8.13,6,26.1,26.1,0,0,0-4.89,8.55,30.08,30.08,0,0,0-1.66,9.93v1.8a29,29,0,0,0,1.66,9.69,26.85,26.85,0,0,0,4.94,8.6,23.44,23.44,0,0,0,8.26,6.13,30.68,30.68,0,0,0,23,.09,21.32,21.32,0,0,0,8.22-6.17,21.73,21.73,0,0,0,4.37-9.31H362.67a8.69,8.69,0,0,1-3.9,4.8A14.17,14.17,0,0,1,351,271a13.9,13.9,0,0,1-8-2.13,12.71,12.71,0,0,1-4.65-5.89,20.81,20.81,0,0,1-1.32-5.37h38.75v-4.85A29.09,29.09,0,0,0,372.93,240,23.24,23.24,0,0,0,364.42,230.4Zm-27.18,19a18.22,18.22,0,0,1,1.16-4,12.59,12.59,0,0,1,4.6-5.75,13,13,0,0,1,7.41-2,12.71,12.71,0,0,1,7.22,1.9A11.86,11.86,0,0,1,362,245a18.85,18.85,0,0,1,1.17,4.47Z"/><polygon class="cls-1" points="415.59 228.55 405.08 269.3 402.84 269.3 390.61 228.55 377.02 228.55 393.17 280.13 397.07 280.13 402.29 280.13 406.09 280.13 411.03 280.13 414.36 280.13 428.32 228.55 415.59 228.55"/></g></g></svg>