<svg xmlns="http://www.w3.org/2000/svg" viewBox="0 0 102.05 102.05"><defs><style>.cls-1{fill:#050505;}</style></defs><g id="Layer_2" data-name="Layer 2"><g id="Layer_1-2" data-name="Layer 1"><path class="cls-1" d="M66.37,49c1.81.1,3.62.23,5.43.35l1.64.1A24.87,24.87,0,1,0,52.57,28.52c0,.57.07,1.14.11,1.71.12,1.81.25,3.63.34,5.44a19.18,19.18,0,0,1-1,8.27,14.63,14.63,0,0,1-3.17,4.86h0A14.37,14.37,0,0,1,43.94,52a19.18,19.18,0,0,1-8.27,1c-1.81-.09-3.63-.22-5.44-.34l-1.71-.11A24.87,24.87,0,1,0,49.46,73.44c0-.55-.06-1.09-.1-1.64-.12-1.81-.25-3.62-.35-5.43a19.15,19.15,0,0,1,1.05-8.27,14.21,14.21,0,0,1,3.16-4.86l0,0a14.61,14.61,0,0,1,4.86-3.16A19.15,19.15,0,0,1,66.37,49Z"/><circle class="cls-1" cx="24.93" cy="24.93" r="18.24"/><circle class="cls-1" cx="77.15" cy="77.15" r="18.24"/></g></g></svg>