<svg width="40" height="29" viewBox="0 0 40 29" fill="none" xmlns="http://www.w3.org/2000/svg">
<g id="hoop-symbol+text_white" clip-path="url(#clip0_2477_3002)">
<g id="Layer 2">
<g id="Layer 1">
<path id="Vector" d="M24.5938 13.7482C25.1009 13.7762 25.6079 13.8127 26.115 13.8464L26.5744 13.8744C28.0244 14.0947 29.5068 13.8511 30.8105 13.1783C32.1142 12.5055 33.1727 11.4379 33.8351 10.1275C34.4976 8.81715 34.7303 7.33082 34.5 5.88027C34.2698 4.42971 33.5884 3.08891 32.5528 2.04884C31.5173 1.00878 30.1805 0.322494 28.7327 0.0877485C27.285 -0.146997 25.8002 0.0817679 24.4899 0.741457C23.1796 1.40115 22.1105 2.45811 21.435 3.76181C20.7595 5.0655 20.512 6.54942 20.7278 8.00221C20.7278 8.16213 20.7474 8.32205 20.7586 8.48198C20.7922 8.9898 20.8286 9.50042 20.8538 10.0082C20.9313 10.7929 20.8357 11.585 20.5737 12.3285C20.3715 12.8378 20.0696 13.3015 19.6856 13.6921C19.2936 14.0828 18.8253 14.3884 18.3101 14.5899C17.5677 14.8522 16.7768 14.948 15.9933 14.8704C15.4862 14.8452 14.9764 14.8087 14.4693 14.775L13.9902 14.7442C12.5399 14.5286 11.0585 14.7767 9.75718 15.4533C8.45582 16.1298 7.40076 17.2003 6.74222 18.5124C6.08369 19.8244 5.85526 21.311 6.08945 22.7606C6.32364 24.2102 7.00851 25.5489 8.04656 26.586C9.0846 27.6231 10.4229 28.3058 11.8709 28.5369C13.3189 28.768 14.8028 28.5356 16.1113 27.873C17.4198 27.2103 18.4861 26.1511 19.1586 24.8462C19.831 23.5413 20.0753 22.0572 19.8565 20.6052C19.8565 20.4508 19.8397 20.2993 19.8285 20.145C19.7949 19.6372 19.7585 19.1294 19.7304 18.6216C19.6572 17.8359 19.7576 17.0437 20.0246 16.3013C20.223 15.7907 20.5244 15.3265 20.9099 14.9378C21.3 14.5541 21.763 14.2527 22.2714 14.0512C23.0138 13.7801 23.8068 13.6766 24.5938 13.7482Z" fill="white"/>
<path id="Vector_2" d="M12.9849 12.1119C15.807 12.1119 18.0947 9.82076 18.0947 6.99444C18.0947 4.16813 15.807 1.87695 12.9849 1.87695C10.1628 1.87695 7.875 4.16813 7.875 6.99444C7.875 9.82076 10.1628 12.1119 12.9849 12.1119Z" fill="white"/>
<path id="Vector_3" d="M27.6138 26.7643C30.4359 26.7643 32.7236 24.4731 32.7236 21.6468C32.7236 18.8205 30.4359 16.5293 27.6138 16.5293C24.7917 16.5293 22.5039 18.8205 22.5039 21.6468C22.5039 24.4731 24.7917 26.7643 27.6138 26.7643Z" fill="white"/>
</g>
</g>
</g>
<defs>
<clipPath id="clip0_2477_3002">
<rect width="40" height="29" fill="white"/>
</clipPath>
</defs>
</svg>
