<svg width="64" height="65" viewBox="0 0 64 65" fill="none" xmlns="http://www.w3.org/2000/svg">
<path d="M31.6324 51.3969C31.4184 51.3979 31.208 51.342 31.0227 51.2349L29.0968 50.0904C28.8085 49.9292 28.9496 49.8717 29.0446 49.8386C29.3502 49.7432 29.6428 49.6101 29.9156 49.4423C29.9383 49.4318 29.9634 49.4272 29.9884 49.429C30.0134 49.4308 30.0375 49.439 30.0584 49.4528L31.5392 50.3334C31.5669 50.348 31.5977 50.3556 31.6289 50.3556C31.6602 50.3556 31.691 50.348 31.7186 50.3334L37.4979 46.9973C37.5248 46.9809 37.5469 46.9579 37.5621 46.9304C37.5774 46.9029 37.5853 46.872 37.585 46.8405V40.1737C37.5852 40.1419 37.5773 40.1106 37.5621 40.0827C37.5469 40.0548 37.5248 40.0313 37.4979 40.0143L31.723 36.6765C31.6963 36.6617 31.6664 36.6539 31.6359 36.6539C31.6054 36.6539 31.5754 36.6617 31.5488 36.6765L25.773 40.0108C25.7452 40.0269 25.722 40.05 25.7058 40.0778C25.6896 40.1056 25.681 40.1371 25.6806 40.1693V46.8388C25.6799 46.8701 25.6876 46.901 25.7029 46.9283C25.7182 46.9556 25.7406 46.9782 25.7677 46.9938L27.3513 47.9084C28.2101 48.3378 28.7362 47.8318 28.7362 47.324V40.7424C28.7362 40.7204 28.7406 40.6987 28.749 40.6784C28.7575 40.6581 28.7699 40.6397 28.7856 40.6242C28.8012 40.6087 28.8197 40.5965 28.8401 40.5882C28.8605 40.58 28.8823 40.5758 28.9043 40.5761H29.6369C29.6588 40.576 29.6805 40.5802 29.7008 40.5885C29.7211 40.5968 29.7395 40.609 29.7551 40.6245C29.7706 40.64 29.7829 40.6583 29.7914 40.6786C29.7998 40.6988 29.8041 40.7205 29.8041 40.7424V47.3283C29.8348 47.5645 29.8125 47.8045 29.7388 48.0309C29.6651 48.2574 29.5418 48.4645 29.378 48.6373C29.2141 48.8101 29.0138 48.9442 28.7916 49.0298C28.5693 49.1154 28.3308 49.1504 28.0934 49.1322C27.6243 49.1403 27.1627 49.0146 26.7625 48.7699L25.2469 47.8988C25.0617 47.7919 24.9078 47.6382 24.8008 47.453C24.6938 47.2679 24.6374 47.0579 24.6371 46.844V40.1737C24.6375 39.96 24.694 39.7501 24.801 39.5651C24.9081 39.3802 25.0618 39.2266 25.2469 39.1197L31.027 35.7802C31.2133 35.6785 31.422 35.6253 31.6341 35.6253C31.8463 35.6253 32.055 35.6785 32.2413 35.7802L38.0206 39.1197C38.2056 39.2266 38.3594 39.3802 38.4664 39.5651C38.5734 39.7501 38.6299 39.96 38.6303 40.1737V46.8432C38.6301 47.057 38.5736 47.267 38.4666 47.4522C38.3596 47.6373 38.2058 47.7911 38.0206 47.898L32.2413 51.2349C32.0561 51.3417 31.8461 51.3975 31.6324 51.3969Z" fill="white"/>
<path d="M33.418 46.8013C30.892 46.8013 30.359 45.6403 30.359 44.6673C30.3588 44.6453 30.3631 44.6235 30.3714 44.6032C30.3798 44.5828 30.3921 44.5644 30.4077 44.5488C30.4232 44.5332 30.4417 44.5209 30.4621 44.5126C30.4824 44.5042 30.5042 44.5 30.5262 44.5001H31.2735C31.3135 44.5 31.3522 44.5143 31.3826 44.5404C31.413 44.5664 31.433 44.6025 31.439 44.6421C31.5523 45.4025 31.8885 45.7866 33.418 45.7866C34.6375 45.7866 35.154 45.5113 35.154 44.865C35.154 44.4931 35.0068 44.2161 33.1149 44.0306C31.5331 43.8747 30.5549 43.5254 30.5549 42.2598C30.5549 41.0935 31.5383 40.3984 33.1863 40.3984C35.0381 40.3984 35.9536 41.0412 36.0703 42.4201C36.0721 42.4433 36.0691 42.4667 36.0615 42.4887C36.0539 42.5108 36.0417 42.531 36.0259 42.5481C36.0104 42.565 35.9915 42.5785 35.9705 42.5878C35.9496 42.5971 35.9269 42.6019 35.9039 42.6021H35.1531C35.1153 42.6018 35.0787 42.5888 35.0493 42.565C35.0199 42.5413 34.9994 42.5083 34.9911 42.4714C34.8117 41.671 34.3735 41.4149 33.1863 41.4149C31.8571 41.4149 31.7056 41.8783 31.7056 42.2249C31.7056 42.6456 31.8885 42.7676 33.6828 43.0089C35.4597 43.2432 36.3029 43.5759 36.3029 44.8241C36.3029 46.0723 35.2498 46.8013 33.418 46.8013Z" fill="white"/>
<path d="M41.7555 39.8061C41.7555 40.0265 41.6902 40.2419 41.5678 40.4251C41.4454 40.6083 41.2714 40.7511 41.0678 40.8354C40.8642 40.9197 40.6402 40.9418 40.4241 40.8988C40.208 40.8558 40.0095 40.7497 39.8537 40.5939C39.6979 40.4381 39.5918 40.2396 39.5488 40.0235C39.5058 39.8074 39.5279 39.5834 39.6122 39.3798C39.6965 39.1762 39.8393 39.0022 40.0225 38.8798C40.2057 38.7574 40.4211 38.6921 40.6415 38.6921C40.9367 38.6928 41.2197 38.8104 41.4285 39.0191C41.6372 39.2279 41.7548 39.5109 41.7555 39.8061ZM39.7077 39.8061C39.707 39.9913 39.7614 40.1725 39.8638 40.3267C39.9662 40.4809 40.1121 40.6012 40.2831 40.6724C40.454 40.7436 40.6422 40.7624 40.8238 40.7264C41.0054 40.6905 41.1723 40.6014 41.3032 40.4705C41.4341 40.3396 41.5232 40.1727 41.5592 39.9911C41.5951 39.8095 41.5763 39.6213 41.5051 39.4503C41.434 39.2794 41.3136 39.1335 41.1594 39.0311C41.0052 38.9286 40.824 38.8743 40.6389 38.875C40.392 38.875 40.1552 38.9726 39.9801 39.1466C39.805 39.3205 39.7058 39.5567 39.7042 39.8035L39.7077 39.8061ZM40.2234 39.1842H40.6537C40.8009 39.1842 41.0892 39.1842 41.0892 39.5143C41.0951 39.5857 41.0741 39.6566 41.0305 39.7133C40.9868 39.77 40.9236 39.8084 40.8531 39.8209C41.0273 39.8323 41.036 39.9446 41.0596 40.104C41.0657 40.2165 41.0874 40.3276 41.124 40.4342H40.8627C40.8566 40.3749 40.8148 40.0561 40.8148 40.0387C40.7983 39.9681 40.7739 39.9333 40.6859 39.9333H40.4673V40.4342H40.226L40.2234 39.1842ZM40.4594 39.7321H40.6537C40.678 39.7352 40.7026 39.7329 40.7259 39.7254C40.7493 39.718 40.7707 39.7055 40.7887 39.6889C40.8067 39.6723 40.8208 39.652 40.8302 39.6294C40.8395 39.6067 40.8438 39.5823 40.8427 39.5579C40.8427 39.3837 40.7242 39.3837 40.6598 39.3837H40.4594V39.7321Z" fill="white"/>
<path fill-rule="evenodd" clip-rule="evenodd" d="M13.7353 25.3008C13.7359 25.1705 13.7019 25.0424 13.6369 24.9295C13.5719 24.8166 13.4781 24.7229 13.3651 24.658L7.23741 21.1312C7.13441 21.0716 7.01838 21.0381 6.89945 21.0336H6.83674C6.71757 21.0383 6.60132 21.0718 6.49791 21.1312L0.370191 24.6562C0.257458 24.7214 0.163887 24.8152 0.0989002 24.928C0.0339129 25.0409 -0.000198173 25.1688 8.66083e-07 25.2991L0.0130675 34.7933C0.0127366 34.8583 0.0297578 34.9222 0.0623734 34.9784C0.094989 35.0346 0.142016 35.081 0.198597 35.113C0.254111 35.1463 0.317639 35.1639 0.382385 35.1639C0.447131 35.1639 0.51066 35.1463 0.566173 35.113L4.20709 33.0277C4.31969 32.9623 4.41319 32.8686 4.47829 32.7558C4.54339 32.643 4.57782 32.5151 4.57815 32.3849V27.9522C4.57797 27.8225 4.61202 27.6949 4.67686 27.5825C4.7417 27.4701 4.83504 27.3768 4.94747 27.312L6.49791 26.4183C6.61075 26.3533 6.73871 26.319 6.86897 26.319C6.99841 26.3189 7.12556 26.3532 7.23741 26.4183L8.78698 27.312C8.89962 27.3766 8.99319 27.4699 9.0582 27.5823C9.12321 27.6947 9.15735 27.8224 9.15717 27.9522V32.3884C9.15776 32.5186 9.1923 32.6463 9.25737 32.7591C9.32245 32.8718 9.41581 32.9656 9.52823 33.0312L13.1691 35.1165C13.2251 35.1498 13.2891 35.1675 13.3542 35.1675C13.4194 35.1675 13.4834 35.1498 13.5393 35.1165C13.5951 35.0838 13.6414 35.0371 13.6736 34.981C13.7059 34.925 13.7229 34.8615 13.7231 34.7968L13.7353 25.3008ZM43.2198 12.2475C43.1635 12.2158 43.0999 12.1994 43.0353 12.2C42.9707 12.2006 42.9073 12.2181 42.8516 12.2508C42.7959 12.2835 42.7498 12.3303 42.7178 12.3864C42.6858 12.4425 42.6691 12.5061 42.6693 12.5707V21.9778C42.6687 22.023 42.6563 22.0673 42.6335 22.1064C42.6106 22.1454 42.578 22.1778 42.5388 22.2005C42.4997 22.2231 42.4553 22.2352 42.4101 22.2356C42.3649 22.2359 42.3203 22.2246 42.2808 22.2025L40.746 21.3184C40.6335 21.2534 40.5058 21.2191 40.3759 21.2191C40.2459 21.2191 40.1182 21.2534 40.0057 21.3184L33.8762 24.8557C33.7637 24.9207 33.6703 25.0142 33.6054 25.1267C33.5404 25.2392 33.5061 25.3669 33.506 25.4968V32.5739C33.506 32.7038 33.5402 32.8313 33.605 32.9438C33.6698 33.0563 33.763 33.1499 33.8753 33.215L40.0057 36.7558C40.1182 36.8208 40.2459 36.8551 40.3759 36.8551C40.5058 36.8551 40.6335 36.8208 40.746 36.7558L46.8772 33.215C46.9896 33.1499 47.0828 33.0563 47.1476 32.9438C47.2124 32.8313 47.2465 32.7038 47.2466 32.5739V14.9294C47.2467 14.7977 47.2116 14.6684 47.145 14.5547C47.0784 14.4411 46.9827 14.3473 46.8677 14.2831L43.2198 12.2475ZM42.651 30.2457C42.6509 30.2781 42.6422 30.3099 42.6259 30.3379C42.6095 30.3659 42.586 30.3891 42.5578 30.4051L40.4534 31.6184C40.4253 31.6347 40.3935 31.6433 40.361 31.6433C40.3286 31.6433 40.2968 31.6347 40.2687 31.6184L38.1634 30.4051C38.1354 30.3889 38.1122 30.3657 38.096 30.3377C38.0798 30.3097 38.0712 30.278 38.0711 30.2457V27.8146C38.0713 27.7822 38.0799 27.7504 38.0961 27.7223C38.1123 27.6942 38.1355 27.6708 38.1634 27.6543L40.2687 26.4392C40.2968 26.423 40.3286 26.4144 40.361 26.4144C40.3935 26.4144 40.4253 26.423 40.4534 26.4392L42.5587 27.6543C42.5866 27.6708 42.6098 27.6942 42.626 27.7223C42.6422 27.7504 42.6508 27.7822 42.651 27.8146V30.2457Z" fill="white"/>
<path fill-rule="evenodd" clip-rule="evenodd" d="M63.6315 27.751C63.7435 27.6861 63.8365 27.5928 63.9012 27.4806C63.9658 27.3684 63.9999 27.2412 64 27.1117V25.3966C64.0001 25.267 63.9661 25.1396 63.9014 25.0272C63.8367 24.9149 63.7437 24.8215 63.6315 24.7564L57.5404 21.22C57.4278 21.1548 57.2999 21.1204 57.1698 21.1204C57.0396 21.1204 56.9118 21.1548 56.7991 21.22L50.6714 24.7573C50.5589 24.8223 50.4654 24.9157 50.4005 25.0282C50.3355 25.1408 50.3013 25.2684 50.3012 25.3984V32.4738C50.3013 32.6044 50.3359 32.7326 50.4015 32.8455C50.4672 32.9584 50.5615 33.0519 50.6749 33.1166L56.7643 36.5894C56.8752 36.6517 57.0003 36.6845 57.1275 36.6845C57.2547 36.6845 57.3798 36.6517 57.4907 36.5894L61.1743 34.5416C61.2314 34.5093 61.2789 34.4625 61.3119 34.4059C61.345 34.3493 61.3624 34.2849 61.3624 34.2193C61.3624 34.1538 61.345 34.0894 61.3119 34.0327C61.2789 33.9761 61.2314 33.9293 61.1743 33.897L55.0074 30.358C54.9509 30.3255 54.9039 30.2787 54.8712 30.2223C54.8385 30.1659 54.8212 30.1018 54.821 30.0366V27.8198C54.8211 27.7548 54.8383 27.691 54.8708 27.6347C54.9034 27.5784 54.9502 27.5317 55.0066 27.4993L56.9228 26.3931C56.9789 26.3606 57.0426 26.3435 57.1075 26.3435C57.1723 26.3435 57.236 26.3606 57.2921 26.3931L59.2084 27.4993C59.2648 27.5317 59.3116 27.5784 59.3442 27.6347C59.3767 27.691 59.3939 27.7548 59.3939 27.8198V29.5619C59.3939 29.6269 59.411 29.6908 59.4435 29.7472C59.4761 29.8035 59.5228 29.8503 59.5792 29.8828C59.6355 29.9153 59.6994 29.9324 59.7645 29.9323C59.8295 29.9322 59.8934 29.915 59.9497 29.8824L63.6315 27.751Z" fill="white"/>
<path fill-rule="evenodd" clip-rule="evenodd" d="M57.0796 27.42C57.1012 27.4077 57.1257 27.4011 57.1506 27.4011C57.1755 27.4011 57.2 27.4077 57.2216 27.42L58.3975 28.0986C58.4192 28.1109 58.4372 28.1288 58.4498 28.1503C58.4623 28.1719 58.4689 28.1964 58.4689 28.2214V29.5802C58.4689 29.6052 58.4623 29.6297 58.4498 29.6512C58.4372 29.6728 58.4192 29.6907 58.3975 29.703L57.2216 30.3815C57.2 30.3939 57.1755 30.4004 57.1506 30.4004C57.1257 30.4004 57.1012 30.3939 57.0796 30.3815L55.9046 29.703C55.8829 29.6907 55.8648 29.6728 55.8523 29.6512C55.8397 29.6297 55.8331 29.6052 55.8332 29.5802V28.2214C55.8331 28.1964 55.8397 28.1719 55.8523 28.1503C55.8648 28.1288 55.8829 28.1109 55.9046 28.0986L57.0796 27.42Z" fill="white"/>
<path fill-rule="evenodd" clip-rule="evenodd" d="M23.213 21.2932C23.3247 21.229 23.4513 21.1952 23.5801 21.1952C23.709 21.1952 23.8356 21.229 23.9473 21.2932L30.028 24.8026C30.1396 24.867 30.2323 24.9597 30.2968 25.0713C30.3613 25.1829 30.3954 25.3095 30.3955 25.4384V32.4624C30.3954 32.5913 30.3613 32.7179 30.2968 32.8295C30.2323 32.9411 30.1396 33.0338 30.028 33.0983L23.9473 36.6103C23.8356 36.6745 23.709 36.7082 23.5801 36.7082C23.4513 36.7082 23.3247 36.6745 23.213 36.6103L17.1332 33.0983C17.0218 33.0336 16.9293 32.9409 16.8649 32.8293C16.8006 32.7177 16.7666 32.5912 16.7665 32.4624V25.4402C16.7666 25.3112 16.8007 25.1846 16.8652 25.073C16.9297 24.9614 17.0224 24.8688 17.1341 24.8043L23.213 21.2932Z" fill="url(#paint0_linear_1_7871)"/>
<mask id="mask0_1_7871" style="mask-type:luminance" maskUnits="userSpaceOnUse" x="16" y="21" width="15" height="16">
<path fill-rule="evenodd" clip-rule="evenodd" d="M23.949 21.2932C23.8373 21.229 23.7107 21.1952 23.5819 21.1952C23.453 21.1952 23.3264 21.229 23.2147 21.2932L17.1341 24.8026C17.0224 24.867 16.9297 24.9597 16.8652 25.0713C16.8007 25.1829 16.7666 25.3095 16.7665 25.4384V32.4624C16.7666 32.5912 16.8006 32.7177 16.8649 32.8293C16.9293 32.9409 17.0218 33.0336 17.1332 33.0983L23.2139 36.6103C23.3257 36.6745 23.4525 36.7082 23.5814 36.7082C23.7104 36.7082 23.8371 36.6745 23.949 36.6103L30.028 33.0983C30.1396 33.0338 30.2323 32.9411 30.2968 32.8295C30.3613 32.7179 30.3954 32.5913 30.3955 32.4624V25.4402C30.3954 25.3112 30.3613 25.1846 30.2968 25.073C30.2323 24.9614 30.1396 24.8688 30.028 24.8043L23.949 21.2932Z" fill="white"/>
</mask>
<g mask="url(#mask0_1_7871)">
<path opacity="0.66" d="M29.9966 24.8026L23.9429 21.2932C23.8826 21.2591 23.8178 21.2336 23.7504 21.2174L16.9093 32.9223C16.9672 32.9923 17.0371 33.0513 17.1158 33.0965L23.2025 36.6103C23.2903 36.6612 23.3878 36.693 23.4886 36.7036C23.5895 36.7143 23.6914 36.7035 23.7879 36.6721L30.1804 24.9654C30.1301 24.8999 30.0677 24.8446 29.9966 24.8026Z" fill="#4B4B4B"/>
<path d="M23.9333 36.6103L29.9966 33.0983C30.1046 33.0321 30.1929 32.9383 30.2523 32.8264C30.3117 32.7146 30.3401 32.5889 30.3346 32.4624V32.4345L23.7748 21.2235C23.6801 21.1967 23.5811 21.189 23.4834 21.201C23.3857 21.213 23.2914 21.2443 23.206 21.2932L17.1924 24.7625L23.7391 36.6878C23.8073 36.6715 23.8727 36.6454 23.9333 36.6103Z" fill="url(#paint1_linear_1_7871)"/>
</g>
<path d="M31.6324 51.3969C31.4184 51.3979 31.208 51.342 31.0227 51.2349L29.0968 50.0904C28.8085 49.9293 28.9496 49.8718 29.0446 49.8387C29.3503 49.7433 29.6429 49.6101 29.9156 49.4423C29.9383 49.4318 29.9634 49.4272 29.9884 49.429C30.0134 49.4309 30.0375 49.439 30.0585 49.4528L31.5392 50.3334C31.5669 50.348 31.5977 50.3556 31.6289 50.3556C31.6602 50.3556 31.691 50.348 31.7187 50.3334L37.498 46.9974C37.5248 46.981 37.5469 46.9579 37.5622 46.9304C37.5774 46.903 37.5853 46.872 37.5851 46.8406V40.1737C37.5853 40.1419 37.5774 40.1106 37.5621 40.0827C37.5469 40.0548 37.5248 40.0313 37.498 40.0143L31.723 36.6765C31.6964 36.6617 31.6664 36.6539 31.6359 36.6539C31.6054 36.6539 31.5755 36.6617 31.5488 36.6765L25.773 40.0108C25.7452 40.027 25.722 40.0501 25.7059 40.0779C25.6897 40.1056 25.681 40.1372 25.6807 40.1693V46.8388C25.6799 46.8701 25.6876 46.901 25.7029 46.9283C25.7183 46.9556 25.7407 46.9782 25.7678 46.9939L27.3513 47.9085C28.2101 48.3379 28.7362 47.8318 28.7362 47.324V40.7425C28.7362 40.7205 28.7406 40.6987 28.7491 40.6784C28.7575 40.6581 28.7699 40.6397 28.7856 40.6242C28.8012 40.6087 28.8198 40.5965 28.8401 40.5883C28.8605 40.58 28.8824 40.5759 28.9043 40.5761H29.6369C29.6588 40.576 29.6805 40.5802 29.7008 40.5885C29.7211 40.5968 29.7395 40.6091 29.7551 40.6245C29.7706 40.64 29.783 40.6584 29.7914 40.6786C29.7998 40.6988 29.8041 40.7206 29.8041 40.7425V47.3283C29.8349 47.5645 29.8126 47.8045 29.7388 48.031C29.6651 48.2574 29.5419 48.4646 29.378 48.6373C29.2141 48.8101 29.0138 48.9442 28.7916 49.0298C28.5694 49.1154 28.3309 49.1504 28.0934 49.1323C27.6244 49.1404 27.1627 49.0147 26.7625 48.7699L25.2469 47.8989C25.0617 47.792 24.9079 47.6382 24.8008 47.4531C24.6938 47.2679 24.6374 47.0579 24.6372 46.8441V40.1737C24.6375 39.96 24.6941 39.7501 24.8011 39.5652C24.9081 39.3802 25.0618 39.2266 25.2469 39.1197L31.0271 35.7802C31.2133 35.6786 31.422 35.6253 31.6342 35.6253C31.8463 35.6253 32.0551 35.6786 32.2413 35.7802L38.0206 39.1197C38.2056 39.2266 38.3594 39.3802 38.4664 39.5652C38.5734 39.7501 38.6299 39.96 38.6303 40.1737V46.8432C38.6301 47.057 38.5736 47.2671 38.4666 47.4522C38.3596 47.6373 38.2058 47.7911 38.0206 47.898L32.2413 51.2349C32.0562 51.3417 31.8461 51.3976 31.6324 51.3969Z" fill="#669F66"/>
<path d="M33.418 46.8014C30.892 46.8014 30.359 45.6403 30.359 44.6673C30.3589 44.6453 30.3631 44.6236 30.3715 44.6032C30.3798 44.5829 30.3921 44.5644 30.4077 44.5488C30.4232 44.5333 30.4417 44.521 30.4621 44.5126C30.4824 44.5042 30.5042 44.5 30.5262 44.5001H31.2736C31.3136 44.5001 31.3523 44.5144 31.3826 44.5404C31.413 44.5665 31.433 44.6025 31.4391 44.6421C31.5523 45.4025 31.8885 45.7866 33.418 45.7866C34.6375 45.7866 35.154 45.5114 35.154 44.8651C35.154 44.4931 35.0068 44.2161 33.1149 44.0306C31.5331 43.8747 30.555 43.5254 30.555 42.2598C30.555 41.0935 31.5383 40.3984 33.1863 40.3984C35.0382 40.3984 35.9536 41.0412 36.0703 42.4201C36.0722 42.4433 36.0692 42.4667 36.0615 42.4888C36.0539 42.5108 36.0418 42.531 36.0259 42.5481C36.0104 42.565 35.9915 42.5785 35.9706 42.5878C35.9496 42.5971 35.9269 42.602 35.904 42.6021H35.1531C35.1153 42.6019 35.0788 42.5888 35.0493 42.5651C35.0199 42.5413 34.9994 42.5084 34.9911 42.4715C34.8117 41.671 34.3736 41.4149 33.1863 41.4149C31.8571 41.4149 31.7056 41.8783 31.7056 42.225C31.7056 42.6457 31.8885 42.7676 33.6828 43.0089C35.4597 43.2432 36.3029 43.5759 36.3029 44.8241C36.3029 46.0723 35.2498 46.8014 33.418 46.8014Z" fill="#669F66"/>
<path d="M41.7556 39.8061C41.7556 40.0265 41.6902 40.2418 41.5678 40.425C41.4454 40.6083 41.2714 40.751 41.0678 40.8354C40.8643 40.9197 40.6403 40.9417 40.4242 40.8988C40.2081 40.8558 40.0096 40.7497 39.8538 40.5939C39.698 40.4381 39.5919 40.2396 39.5489 40.0235C39.5059 39.8073 39.5279 39.5833 39.6123 39.3798C39.6966 39.1762 39.8394 39.0022 40.0226 38.8798C40.2058 38.7574 40.4212 38.6921 40.6415 38.6921C40.9368 38.6928 41.2197 38.8103 41.4285 39.0191C41.6373 39.2279 41.7549 39.5109 41.7556 39.8061ZM39.7078 39.8061C39.7071 39.9913 39.7614 40.1724 39.8638 40.3267C39.9663 40.4809 40.1122 40.6012 40.2831 40.6724C40.454 40.7436 40.6422 40.7624 40.8239 40.7264C41.0055 40.6905 41.1723 40.6014 41.3033 40.4705C41.4342 40.3395 41.5233 40.1727 41.5592 39.9911C41.5952 39.8095 41.5764 39.6212 41.5052 39.4503C41.434 39.2794 41.3137 39.1335 41.1595 39.031C41.0052 38.9286 40.8241 38.8743 40.6389 38.875C40.3921 38.875 40.1553 38.9726 39.9802 39.1466C39.8051 39.3205 39.7059 39.5567 39.7043 39.8035L39.7078 39.8061ZM40.2234 39.1842H40.6537C40.8009 39.1842 41.0892 39.1842 41.0892 39.5143C41.0951 39.5856 41.0742 39.6566 41.0305 39.7133C40.9869 39.77 40.9236 39.8084 40.8532 39.8209C41.0274 39.8322 41.0361 39.9446 41.0596 40.104C41.0657 40.2165 41.0874 40.3276 41.1241 40.4341H40.8628C40.8567 40.3749 40.8149 40.0561 40.8149 40.0387C40.7983 39.9681 40.7739 39.9333 40.6859 39.9333H40.4673V40.4341H40.226L40.2234 39.1842ZM40.4595 39.7321H40.6537C40.678 39.7351 40.7027 39.7329 40.726 39.7254C40.7493 39.718 40.7707 39.7055 40.7887 39.6889C40.8067 39.6723 40.8209 39.652 40.8302 39.6294C40.8395 39.6067 40.8438 39.5823 40.8427 39.5579C40.8427 39.3837 40.7243 39.3837 40.6598 39.3837H40.4595V39.7321Z" fill="#669F66"/>
<path fill-rule="evenodd" clip-rule="evenodd" d="M13.7353 25.3008C13.7359 25.1705 13.7019 25.0424 13.6369 24.9295C13.5719 24.8166 13.4781 24.7229 13.3651 24.658L7.23741 21.1312C7.13441 21.0716 7.01838 21.0381 6.89945 21.0336H6.83674C6.71757 21.0383 6.60132 21.0718 6.49791 21.1312L0.370191 24.6562C0.257458 24.7214 0.163887 24.8152 0.0989002 24.928C0.0339129 25.0409 -0.000198173 25.1688 8.66083e-07 25.2991L0.0130675 34.7933C0.0127366 34.8583 0.0297578 34.9222 0.0623734 34.9784C0.094989 35.0346 0.142016 35.081 0.198597 35.113C0.254111 35.1463 0.317639 35.1639 0.382385 35.1639C0.447131 35.1639 0.51066 35.1463 0.566173 35.113L4.20709 33.0277C4.31969 32.9623 4.41319 32.8686 4.47829 32.7558C4.54339 32.643 4.57782 32.5151 4.57815 32.3849V27.9522C4.57797 27.8225 4.61202 27.6949 4.67686 27.5825C4.7417 27.4701 4.83504 27.3768 4.94747 27.312L6.49791 26.4183C6.61075 26.3533 6.73871 26.319 6.86897 26.319C6.99841 26.3189 7.12556 26.3532 7.23741 26.4183L8.78698 27.312C8.89962 27.3766 8.99319 27.4699 9.0582 27.5823C9.12321 27.6947 9.15735 27.8224 9.15717 27.9522V32.3884C9.15776 32.5186 9.1923 32.6463 9.25737 32.7591C9.32245 32.8718 9.41581 32.9656 9.52823 33.0312L13.1691 35.1165C13.2251 35.1498 13.2891 35.1675 13.3542 35.1675C13.4194 35.1675 13.4834 35.1498 13.5393 35.1165C13.5951 35.0838 13.6414 35.0371 13.6736 34.981C13.7059 34.925 13.7229 34.8615 13.7231 34.7968L13.7353 25.3008ZM43.2198 12.2475C43.1635 12.2158 43.0999 12.1994 43.0353 12.2C42.9707 12.2006 42.9073 12.2181 42.8516 12.2508C42.7959 12.2835 42.7498 12.3303 42.7178 12.3864C42.6858 12.4425 42.6691 12.5061 42.6693 12.5707V21.9778C42.6687 22.023 42.6563 22.0673 42.6335 22.1064C42.6106 22.1454 42.578 22.1778 42.5388 22.2005C42.4997 22.2231 42.4553 22.2352 42.4101 22.2356C42.3649 22.2359 42.3203 22.2246 42.2808 22.2025L40.746 21.3184C40.6335 21.2534 40.5058 21.2191 40.3759 21.2191C40.2459 21.2191 40.1182 21.2534 40.0057 21.3184L33.8762 24.8557C33.7637 24.9207 33.6703 25.0142 33.6054 25.1267C33.5404 25.2392 33.5061 25.3669 33.506 25.4968V32.5739C33.506 32.7038 33.5402 32.8313 33.605 32.9438C33.6698 33.0563 33.763 33.1499 33.8753 33.215L40.0057 36.7558C40.1182 36.8208 40.2459 36.8551 40.3759 36.8551C40.5058 36.8551 40.6335 36.8208 40.746 36.7558L46.8772 33.215C46.9896 33.1499 47.0828 33.0563 47.1476 32.9438C47.2124 32.8313 47.2465 32.7038 47.2466 32.5739V14.9294C47.2467 14.7977 47.2116 14.6684 47.145 14.5547C47.0784 14.4411 46.9827 14.3473 46.8677 14.2831L43.2198 12.2475ZM42.651 30.2457C42.6509 30.2781 42.6422 30.3099 42.6259 30.3379C42.6095 30.3659 42.586 30.3891 42.5578 30.4051L40.4534 31.6184C40.4253 31.6347 40.3935 31.6433 40.361 31.6433C40.3286 31.6433 40.2968 31.6347 40.2687 31.6184L38.1634 30.4051C38.1354 30.3889 38.1122 30.3657 38.096 30.3377C38.0798 30.3097 38.0712 30.278 38.0711 30.2457V27.8146C38.0713 27.7822 38.0799 27.7504 38.0961 27.7223C38.1123 27.6942 38.1355 27.6708 38.1634 27.6543L40.2687 26.4392C40.2968 26.423 40.3286 26.4144 40.361 26.4144C40.3935 26.4144 40.4253 26.423 40.4534 26.4392L42.5587 27.6543C42.5866 27.6708 42.6098 27.6942 42.626 27.7223C42.6422 27.7504 42.6508 27.7822 42.651 27.8146V30.2457Z" fill="#333333"/>
<path fill-rule="evenodd" clip-rule="evenodd" d="M63.6316 27.751C63.7436 27.686 63.8366 27.5928 63.9012 27.4806C63.9659 27.3684 63.9999 27.2412 64 27.1117V25.3966C64.0001 25.267 63.9661 25.1396 63.9014 25.0272C63.8368 24.9149 63.7437 24.8215 63.6316 24.7564L57.5404 21.22C57.4278 21.1548 57.3 21.1204 57.1698 21.1204C57.0396 21.1204 56.9118 21.1548 56.7992 21.22L50.6715 24.7573C50.5589 24.8223 50.4655 24.9157 50.4005 25.0282C50.3355 25.1408 50.3013 25.2684 50.3013 25.3984V32.4738C50.3013 32.6043 50.3359 32.7326 50.4016 32.8455C50.4672 32.9584 50.5615 33.0519 50.6749 33.1166L56.7643 36.5894C56.8752 36.6517 57.0003 36.6845 57.1276 36.6845C57.2548 36.6845 57.3799 36.6517 57.4908 36.5894L61.1744 34.5416C61.2315 34.5093 61.2789 34.4625 61.312 34.4059C61.345 34.3493 61.3624 34.2849 61.3624 34.2193C61.3624 34.1538 61.345 34.0894 61.312 34.0327C61.2789 33.9761 61.2315 33.9293 61.1744 33.897L55.0075 30.358C54.9509 30.3255 54.904 30.2787 54.8713 30.2223C54.8385 30.1658 54.8212 30.1018 54.8211 30.0366V27.8198C54.8211 27.7548 54.8383 27.691 54.8709 27.6347C54.9034 27.5784 54.9502 27.5317 55.0066 27.4993L56.9229 26.3931C56.979 26.3606 57.0427 26.3435 57.1075 26.3435C57.1724 26.3435 57.2361 26.3606 57.2922 26.3931L59.2085 27.4993C59.2648 27.5317 59.3116 27.5784 59.3442 27.6347C59.3768 27.691 59.3939 27.7548 59.394 27.8198V29.5619C59.3939 29.6269 59.4111 29.6908 59.4436 29.7472C59.4761 29.8035 59.5229 29.8503 59.5792 29.8828C59.6355 29.9153 59.6995 29.9323 59.7645 29.9323C59.8295 29.9322 59.8934 29.915 59.9497 29.8824L63.6316 27.751Z" fill="#333333"/>
<path fill-rule="evenodd" clip-rule="evenodd" d="M57.0797 27.42C57.1013 27.4076 57.1257 27.4011 57.1506 27.4011C57.1755 27.4011 57.2 27.4076 57.2216 27.42L58.3975 28.0986C58.4192 28.1109 58.4373 28.1287 58.4498 28.1503C58.4624 28.1719 58.469 28.1964 58.4689 28.2214V29.5802C58.469 29.6051 58.4624 29.6297 58.4498 29.6512C58.4373 29.6728 58.4192 29.6907 58.3975 29.703L57.2216 30.3815C57.2 30.3939 57.1755 30.4004 57.1506 30.4004C57.1257 30.4004 57.1013 30.3939 57.0797 30.3815L55.9046 29.703C55.8829 29.6907 55.8649 29.6728 55.8523 29.6512C55.8398 29.6297 55.8332 29.6051 55.8332 29.5802V28.2214C55.8332 28.1964 55.8398 28.1719 55.8523 28.1503C55.8649 28.1287 55.8829 28.1109 55.9046 28.0986L57.0797 27.42Z" fill="#669F66"/>
<path fill-rule="evenodd" clip-rule="evenodd" d="M23.9865 21.2592C23.8746 21.1946 23.7477 21.1606 23.6185 21.1606C23.4893 21.1606 23.3624 21.1946 23.2505 21.2592L17.1533 24.7773C17.0411 24.8417 16.9479 24.9345 16.8832 25.0465C16.8185 25.1585 16.7846 25.2856 16.7848 25.4149V32.452C16.7848 32.5812 16.8188 32.7081 16.8833 32.82C16.9478 32.9319 17.0406 33.0248 17.1524 33.0896L23.2496 36.6103C23.3615 36.6749 23.4884 36.7089 23.6176 36.7089C23.7468 36.7089 23.8737 36.6749 23.9856 36.6103L30.0829 33.0896C30.1946 33.0248 30.2874 32.9319 30.3519 32.82C30.4165 32.7081 30.4504 32.5812 30.4504 32.452V25.4106C30.4505 25.2815 30.4166 25.1547 30.3521 25.0429C30.2875 24.9311 30.1947 24.8383 30.0829 24.7738L23.9865 21.2592Z" fill="url(#paint2_linear_1_7871)"/>
<mask id="mask1_1_7871" style="mask-type:luminance" maskUnits="userSpaceOnUse" x="16" y="21" width="15" height="16">
<path fill-rule="evenodd" clip-rule="evenodd" d="M23.9865 21.2592C23.8746 21.1946 23.7477 21.1606 23.6185 21.1606C23.4893 21.1606 23.3624 21.1946 23.2505 21.2592L17.1533 24.7773C17.0411 24.8417 16.9479 24.9345 16.8832 25.0465C16.8185 25.1585 16.7846 25.2856 16.7848 25.4149V32.452C16.7848 32.5812 16.8188 32.7081 16.8833 32.82C16.9478 32.9319 17.0406 33.0248 17.1524 33.0896L23.2496 36.6103C23.3615 36.6749 23.4884 36.7089 23.6176 36.7089C23.7468 36.7089 23.8737 36.6749 23.9856 36.6103L30.0829 33.0896C30.1946 33.0248 30.2874 32.9319 30.3519 32.82C30.4165 32.7081 30.4504 32.5812 30.4504 32.452V25.4106C30.4505 25.2815 30.4166 25.1547 30.3521 25.0429C30.2875 24.9311 30.1947 24.8383 30.0829 24.7738L23.9865 21.2592Z" fill="white"/>
</mask>
<g mask="url(#mask1_1_7871)">
<path d="M30.0951 24.773L23.9865 21.2592C23.9266 21.2249 23.8621 21.1994 23.7949 21.1834L16.9311 32.9206C16.9904 32.9874 17.0598 33.0444 17.1367 33.0896L23.2601 36.6103C23.3455 36.6591 23.4398 36.6904 23.5374 36.7026C23.635 36.7147 23.7341 36.7073 23.8288 36.6809L30.2579 24.8993C30.2092 24.8504 30.1545 24.808 30.0951 24.773Z" fill="url(#paint3_linear_1_7871)"/>
<path d="M30.0985 33.0896C30.1866 33.0392 30.2638 32.9718 30.3257 32.8914C30.3876 32.8109 30.433 32.719 30.4591 32.621L23.7583 21.1721C23.5807 21.1376 23.3966 21.1685 23.24 21.2592L17.1689 24.7555L23.7252 36.7018C23.8196 36.69 23.9109 36.6604 23.9943 36.6147L30.0985 33.0896Z" fill="url(#paint4_linear_1_7871)"/>
<path d="M30.0985 33.0896L23.997 36.6103C23.9135 36.6561 23.8222 36.6856 23.7278 36.6974L23.8489 36.9186L30.6273 32.999V32.9067L30.4591 32.6201C30.4331 32.7183 30.3878 32.8104 30.3259 32.891C30.264 32.9716 30.1867 33.0391 30.0985 33.0896Z" fill="url(#paint5_linear_1_7871)"/>
<path d="M30.0985 33.0896L23.997 36.6103C23.9135 36.6561 23.8222 36.6856 23.7278 36.6974L23.8489 36.9186L30.6273 32.999V32.9067L30.4591 32.6201C30.4331 32.7183 30.3878 32.8104 30.3259 32.891C30.264 32.9716 30.1867 33.0391 30.0985 33.0896Z" fill="url(#paint6_linear_1_7871)"/>
</g>
<defs>
<linearGradient id="paint0_linear_1_7871" x1="16.7665" y1="28.9522" x2="30.3955" y2="28.9522" gradientUnits="userSpaceOnUse">
<stop offset="0.005" stop-color="white"/>
<stop offset="0.192" stop-color="#E8E8E8"/>
<stop offset="0.541" stop-color="#C3C3C3"/>
<stop offset="0.823" stop-color="#ABABAB"/>
<stop offset="1" stop-color="#A3A3A3"/>
</linearGradient>
<linearGradient id="paint1_linear_1_7871" x1="16.6724" y1="28.9417" x2="30.7318" y2="28.9417" gradientUnits="userSpaceOnUse">
<stop stop-color="#A3A3A3"/>
<stop offset="0.177" stop-color="#ABABAB"/>
<stop offset="0.459" stop-color="#C3C3C3"/>
<stop offset="0.808" stop-color="#E8E8E8"/>
<stop offset="0.995" stop-color="white"/>
</linearGradient>
<linearGradient id="paint2_linear_1_7871" x1="26.0988" y1="23.8758" x2="20.5921" y2="35.1095" gradientUnits="userSpaceOnUse">
<stop stop-color="#3F873F"/>
<stop offset="0.33" stop-color="#3F8B3D"/>
<stop offset="0.637" stop-color="#3E9637"/>
<stop offset="0.934" stop-color="#3DA92E"/>
<stop offset="1" stop-color="#3DAE2B"/>
</linearGradient>
<linearGradient id="paint3_linear_1_7871" x1="22.6921" y1="29.7553" x2="38.1451" y2="18.3378" gradientUnits="userSpaceOnUse">
<stop offset="0.138" stop-color="#3F873F"/>
<stop offset="0.397" stop-color="#529F44"/>
<stop offset="0.711" stop-color="#63B649"/>
<stop offset="0.908" stop-color="#6ABF4B"/>
</linearGradient>
<linearGradient id="paint4_linear_1_7871" x1="16.5731" y1="28.9295" x2="30.6673" y2="28.9295" gradientUnits="userSpaceOnUse">
<stop offset="0.092" stop-color="#6ABF4B"/>
<stop offset="0.289" stop-color="#63B649"/>
<stop offset="0.603" stop-color="#529F44"/>
<stop offset="0.862" stop-color="#3F873F"/>
</linearGradient>
<linearGradient id="paint5_linear_1_7871" x1="16.5731" y1="34.7716" x2="30.6673" y2="34.7716" gradientUnits="userSpaceOnUse">
<stop offset="0.092" stop-color="#6ABF4B"/>
<stop offset="0.289" stop-color="#63B649"/>
<stop offset="0.603" stop-color="#529F44"/>
<stop offset="0.862" stop-color="#3F873F"/>
</linearGradient>
<linearGradient id="paint6_linear_1_7871" x1="32.7204" y1="23.5422" x2="24.0283" y2="41.2747" gradientUnits="userSpaceOnUse">
<stop stop-color="#3F873F"/>
<stop offset="0.33" stop-color="#3F8B3D"/>
<stop offset="0.637" stop-color="#3E9637"/>
<stop offset="0.934" stop-color="#3DA92E"/>
<stop offset="1" stop-color="#3DAE2B"/>
</linearGradient>
</defs>
</svg>
