<svg width="64" height="65" viewBox="0 0 64 65" fill="none" xmlns="http://www.w3.org/2000/svg">
<g clip-path="url(#clip0_1_7880)">
<path d="M20.2666 43.9334H1.06662C0.4775 43.9334 0 44.4109 0 45V57.8C0 58.3891 0.4775 58.8666 1.06662 58.8666H7.33262C6.85987 60.7084 5.19075 62.0666 3.2 62.0666C1.77775 62.0666 1.77775 64.2 3.2 64.2H18.1334C19.5556 64.2 19.5556 62.0666 18.1334 62.0666C16.1426 62.0666 14.4735 60.7084 14.0007 58.8666H20.2668C20.8559 58.8666 21.3334 58.3891 21.3334 57.8V45C21.3334 44.4109 20.8557 43.9334 20.2666 43.9334ZM13.361 62.0666H7.97225C8.76038 61.1856 9.30775 60.0846 9.51163 58.8666H11.8215C12.0256 60.0848 12.573 61.1856 13.361 62.0666ZM19.2 56.7334H12.8H8.53337H2.13337V46.0668H19.2V56.7334Z" fill="black"/>
<path d="M32 30.0666C32.0001 30.0666 32.0001 30.0666 32.0002 30.0666C32.0004 30.0666 32.0006 30.0666 32.0007 30.0666C40.2481 30.0663 46.9334 23.3809 46.9334 15.1333C46.9334 6.88564 40.2481 0.200387 32.0007 0.200012C32.0006 0.200012 32.0005 0.200012 32.0004 0.200012C32.0002 0.200012 32.0001 0.200012 32 0.200012C23.7522 0.200012 17.0666 6.88551 17.0666 15.1334C17.0666 23.3813 23.7522 30.0666 32 30.0666ZM19.2446 16.2H23.6552C23.8185 20.4579 24.9525 24.2544 26.7134 26.7939C22.5889 24.921 19.6344 20.9244 19.2446 16.2ZM33.0666 27.7313V16.2H38.2091C37.9637 22.0624 35.7192 26.7249 33.0666 27.7313ZM33.0666 14.0666V2.53539C35.7192 3.54176 37.9636 8.20439 38.2091 14.0666H33.0666ZM30.9334 2.53564V14.0668H25.7905C26.0359 8.20501 28.2806 3.54251 30.9334 2.53564ZM30.9334 16.2V27.7311C28.2806 26.7243 26.036 22.0616 25.7905 16.2H30.9334ZM37.2871 26.7936C39.0475 24.2543 40.1812 20.4578 40.3444 16.2H44.7554C44.3656 20.9243 41.4112 24.9208 37.2871 26.7936ZM44.7554 14.0666H40.3444C40.1812 9.80876 39.0475 6.01239 37.2871 3.47301C41.4112 5.34589 44.3656 9.34239 44.7554 14.0666ZM26.7132 3.47276C24.9525 6.01226 23.8184 9.80876 23.6551 14.0666H19.2445C19.6344 9.34226 22.5889 5.34564 26.7132 3.47276Z" fill="black"/>
<path d="M62.9334 43.9334H43.7334C43.1442 43.9334 42.6667 44.4109 42.6667 45V57.8C42.6667 58.3891 43.1442 58.8666 43.7334 58.8666H49.9994C49.5266 60.7084 47.8575 62.0666 45.8667 62.0666C44.4445 62.0666 44.4445 64.2 45.8667 64.2H60.8C62.2222 64.2 62.2222 62.0666 60.8 62.0666C58.8092 62.0666 57.1401 60.7084 56.6674 58.8666H62.9334C63.5225 58.8666 64 58.3891 64 57.8V45C64 44.4109 63.5225 43.9334 62.9334 43.9334ZM56.0277 62.0666H50.639C51.4271 61.1856 51.9745 60.0846 52.1784 58.8666H54.4882C54.6922 60.0848 55.2396 61.1856 56.0277 62.0666ZM61.8666 56.7334H55.4666H51.2H44.8V46.0668H61.8666V56.7334Z" fill="black"/>
<path d="M52.2666 40.7334C52.2666 41.3225 52.7441 41.8 53.3332 41.8C53.9223 41.8 54.3998 41.3225 54.3998 40.7334V36.4668C54.3998 35.8776 53.9223 35.4001 53.3332 35.4001H33.0666V33.2668C33.0666 32.6776 32.5891 32.2001 32 32.2001C31.4109 32.2001 30.9333 32.6776 30.9333 33.2668V35.4H10.6666C10.0775 35.4 9.59998 35.8775 9.59998 36.4666V40.7333C9.59998 41.3224 10.0775 41.7999 10.6666 41.7999C11.2557 41.7999 11.7332 41.3224 11.7332 40.7333V37.5333H52.2666V40.7334Z" fill="black"/>
</g>
<defs>
<clipPath id="clip0_1_7880">
<rect width="64" height="64" fill="white" transform="translate(0 0.200012)"/>
</clipPath>
</defs>
</svg>
