<svg width="64" height="64" viewBox="0 0 64 64" fill="none" xmlns="http://www.w3.org/2000/svg">
<rect width="64" height="64" rx="32" fill="#FF9900"/>
<path d="M21.0909 30.0668C21.0909 30.6822 21.1574 31.1811 21.2738 31.5469C21.4069 31.9128 21.5732 32.3119 21.806 32.7443C21.8891 32.8774 21.9224 33.0104 21.9224 33.1268C21.9224 33.2931 21.8226 33.4594 21.6064 33.6257L20.5587 34.3242C20.409 34.424 20.2594 34.4739 20.1263 34.4739C19.96 34.4739 19.7937 34.3907 19.6274 34.241C19.3946 33.9916 19.195 33.7255 19.0287 33.4594C18.8624 33.1767 18.6961 32.8607 18.5132 32.4782C17.216 34.0082 15.5863 34.7732 13.6239 34.7732C12.227 34.7732 11.1127 34.3741 10.2978 33.5758C9.48296 32.7776 9.0672 31.7132 9.0672 30.3828C9.0672 28.9692 9.56611 27.8218 10.5806 26.957C11.595 26.0922 12.9421 25.6598 14.655 25.6598C15.2204 25.6598 15.8025 25.7097 16.4178 25.7929C17.0331 25.876 17.6651 26.0091 18.3303 26.1587V24.9447C18.3303 23.6808 18.0642 22.7994 17.5486 22.2839C17.0165 21.7683 16.1184 21.5189 14.8379 21.5189C14.2558 21.5189 13.6572 21.5854 13.0418 21.7351C12.4265 21.8847 11.8278 22.0677 11.2458 22.3005C10.9797 22.4169 10.7801 22.4834 10.6637 22.5167C10.5473 22.55 10.4641 22.5666 10.3976 22.5666C10.1648 22.5666 10.0484 22.4003 10.0484 22.0511V21.2362C10.0484 20.9701 10.0816 20.7705 10.1648 20.6541C10.2479 20.5377 10.3976 20.4213 10.6304 20.3049C11.2125 20.0055 11.911 19.7561 12.7259 19.5565C13.5407 19.3403 14.4055 19.2405 15.3202 19.2405C17.2992 19.2405 18.746 19.6896 19.6773 20.5876C20.592 21.4856 21.0576 22.8493 21.0576 24.6786V30.0668H21.0909ZM14.339 32.5946C14.8878 32.5946 15.4532 32.4949 16.0519 32.2953C16.6506 32.0957 17.1828 31.7299 17.6318 31.231C17.8979 30.915 18.0974 30.5658 18.1972 30.1666C18.297 29.7675 18.3635 29.2852 18.3635 28.7198V28.0213C17.8812 27.9049 17.3657 27.8051 16.8335 27.7386C16.3014 27.6721 15.7858 27.6388 15.2703 27.6388C14.1561 27.6388 13.3412 27.855 12.7924 28.304C12.2436 28.7531 11.9775 29.385 11.9775 30.2165C11.9775 30.9981 12.1771 31.5802 12.5928 31.9793C12.9919 32.3951 13.574 32.5946 14.339 32.5946ZM27.6931 34.3907C27.3938 34.3907 27.1942 34.3408 27.0612 34.2244C26.9281 34.1246 26.8117 33.8918 26.7119 33.5758L22.8038 20.7206C22.704 20.388 22.6541 20.1718 22.6541 20.0554C22.6541 19.7893 22.7872 19.6397 23.0533 19.6397H24.683C24.999 19.6397 25.2152 19.6896 25.3316 19.806C25.4646 19.9057 25.5644 20.1386 25.6642 20.4545L28.4581 31.4638L31.0524 20.4545C31.1356 20.1219 31.2353 19.9057 31.3684 19.806C31.5014 19.7062 31.7343 19.6397 32.0336 19.6397H33.364C33.68 19.6397 33.8962 19.6896 34.0292 19.806C34.1623 19.9057 34.2787 20.1386 34.3452 20.4545L36.9728 31.5968L39.8498 20.4545C39.9496 20.1219 40.066 19.9057 40.1824 19.806C40.3155 19.7062 40.5317 19.6397 40.831 19.6397H42.3776C42.6437 19.6397 42.7934 19.7727 42.7934 20.0554C42.7934 20.1386 42.7768 20.2217 42.7601 20.3215C42.7435 20.4213 42.7102 20.5543 42.6437 20.7373L38.6358 33.5925C38.536 33.9251 38.4196 34.1413 38.2866 34.241C38.1535 34.3408 37.9373 34.4073 37.6546 34.4073H36.2244C35.9085 34.4073 35.6923 34.3575 35.5592 34.241C35.4262 34.1246 35.3098 33.9084 35.2432 33.5758L32.6656 22.8493L30.1045 33.5592C30.0213 33.8918 29.9216 34.108 29.7885 34.2244C29.6555 34.3408 29.4227 34.3907 29.1233 34.3907H27.6931ZM49.063 34.8397C48.1982 34.8397 47.3335 34.74 46.5019 34.5404C45.6704 34.3408 45.0218 34.1246 44.5895 33.8752C44.3234 33.7255 44.1404 33.5592 44.0739 33.4095C44.0074 33.2599 43.9741 33.0936 43.9741 32.9439V32.0957C43.9741 31.7465 44.1072 31.5802 44.3566 31.5802C44.4564 31.5802 44.5562 31.5968 44.656 31.6301C44.7558 31.6634 44.9054 31.7299 45.0717 31.7964C45.6372 32.0458 46.2525 32.2454 46.9011 32.3785C47.5663 32.5115 48.2149 32.578 48.8801 32.578C49.9278 32.578 50.7427 32.3951 51.3081 32.0292C51.8735 31.6633 52.1729 31.1312 52.1729 30.4493C52.1729 29.9837 52.0232 29.6012 51.7238 29.2852C51.4245 28.9692 50.8591 28.6865 50.0442 28.4204L47.6328 27.6721C46.4188 27.2896 45.5208 26.7242 44.972 25.9758C44.4232 25.2441 44.1404 24.4292 44.1404 23.5644C44.1404 22.8659 44.2901 22.2506 44.5895 21.7184C44.8888 21.1863 45.2879 20.7206 45.7868 20.3548C46.2857 19.9723 46.8512 19.6896 47.5164 19.49C48.1816 19.2904 48.8801 19.2073 49.6118 19.2073C49.9777 19.2073 50.3602 19.2239 50.726 19.2738C51.1085 19.3237 51.4578 19.3902 51.807 19.4567C52.1396 19.5399 52.4556 19.623 52.7549 19.7228C53.0543 19.8226 53.2871 19.9224 53.4534 20.0222C53.6862 20.1552 53.8525 20.2882 53.9523 20.4379C54.0521 20.571 54.102 20.7539 54.102 20.9867V21.7683C54.102 22.1176 53.9689 22.3005 53.7195 22.3005C53.5864 22.3005 53.3702 22.234 53.0875 22.1009C52.1396 21.6686 51.0753 21.4524 49.8945 21.4524C48.9466 21.4524 48.1982 21.602 47.6827 21.918C47.1671 22.234 46.9011 22.7163 46.9011 23.3981C46.9011 23.8638 47.0674 24.2629 47.4 24.5789C47.7326 24.8948 48.3479 25.2108 49.2293 25.4935L51.5908 26.2419C52.7882 26.6244 53.653 27.1565 54.1685 27.8384C54.684 28.5202 54.9335 29.3019 54.9335 30.1666C54.9335 30.8817 54.7838 31.5303 54.5011 32.0957C54.2018 32.6612 53.8026 33.1601 53.2871 33.5592C52.7715 33.975 52.1562 34.2743 51.4411 34.4905C50.6928 34.7233 49.9111 34.8397 49.063 34.8397Z" fill="#1C2024"/>
<path fill-rule="evenodd" clip-rule="evenodd" d="M52.2064 42.922C46.735 46.9632 38.7858 49.1085 31.9507 49.1085C22.3717 49.1085 13.7406 45.5663 7.22152 39.6791C6.70598 39.2135 7.17163 38.5815 7.78695 38.9474C14.8382 43.0385 23.5358 45.5164 32.5328 45.5164C38.6028 45.5164 45.2716 44.2525 51.4082 41.6581C52.3228 41.2424 53.1044 42.2568 52.2064 42.922Z" fill="#1C2024"/>
<path fill-rule="evenodd" clip-rule="evenodd" d="M54.4845 40.3278C53.786 39.4298 49.8613 39.8954 48.0819 40.1116C47.5497 40.1782 47.4665 39.7125 47.9488 39.3633C51.0753 37.1681 56.2141 37.8 56.8128 38.5318C57.4114 39.2801 56.6464 44.4189 53.7195 46.8802C53.2705 47.2627 52.8381 47.0631 53.0377 46.5642C53.7029 44.9178 55.183 41.2092 54.4845 40.3278Z" fill="#1C2024"/>
</svg>
