<svg width="64" height="64" viewBox="0 0 64 64" fill="none" xmlns="http://www.w3.org/2000/svg">
<path d="M60.2483 43.9846L32.0095 39.8363L3.75171 43.9899L32.0022 54.4592L60.2483 43.9846Z" fill="#B7CA9D"/>
<path d="M9.40601 43.5007L14.1795 44.9928L14.6145 44.4989V11.0971L14.1795 10.5266L9.40601 12.3526V43.5007Z" fill="#4B612C"/>
<path d="M31.0802 42.0244L14.1795 44.9929V10.5276L31.0802 14.3283V42.0244Z" fill="#759C3E"/>
<path d="M23.5445 47.8651L16.9574 45.8346V3.29443L23.5445 0.000854492L24.121 0.628717V47.1629L23.5445 47.8651Z" fill="#4B612C"/>
<path d="M46.1169 42.5697L23.5445 47.8652V0L46.1169 8.79801V42.5697Z" fill="#759C3E"/>
<path d="M31.9923 54.0059L3.75171 43.9899V49.7993L31.9923 63.9197V54.0059Z" fill="#4B612C"/>
<path d="M60.2483 49.7924L31.9923 63.9196V54.0058L60.2483 43.9845V49.7924Z" fill="#759C3E"/>
<path d="M52.3121 34.3596H45.4649L25.946 35.6895L32 36.8055L52.3121 34.3596Z" fill="#B7CA9D"/>
<path d="M25.946 48.5309L31.9974 50.3463L32.1715 50.159L32.1664 36.5095L31.9923 36.3423L25.946 35.6895V48.5309Z" fill="#4B612C"/>
<path d="M52.3121 34.3596L31.9923 36.3414L31.9974 50.3464L52.3121 44.2308V34.3596Z" fill="#759C3E"/>
</svg>
