<svg width="64" height="64" viewBox="0 0 64 64" fill="none" xmlns="http://www.w3.org/2000/svg">
<path d="M18.1896 26.9789C18.1896 27.7579 18.2738 28.3895 18.4212 28.8526C18.5896 29.3158 18.8001 29.821 19.0949 30.3684C19.2001 30.5368 19.2423 30.7053 19.2423 30.8526C19.2423 31.0631 19.1159 31.2737 18.8423 31.4842L17.5159 32.3684C17.3265 32.4947 17.137 32.5579 16.9686 32.5579C16.758 32.5579 16.5475 32.4526 16.337 32.2631C16.0423 31.9474 15.7896 31.6105 15.5791 31.2737C15.3686 30.9158 15.158 30.5158 14.9265 30.0316C13.2844 31.9684 11.2212 32.9368 8.73699 32.9368C6.96857 32.9368 5.55804 32.4316 4.52646 31.421C3.49488 30.4105 2.96857 29.0631 2.96857 27.3789C2.96857 25.5895 3.60015 24.1368 4.88436 23.0421C6.16857 21.9474 7.87383 21.4 10.0423 21.4C10.758 21.4 11.4949 21.4631 12.2738 21.5684C13.0528 21.6737 13.8528 21.8421 14.6949 22.0316V20.4947C14.6949 18.8947 14.358 17.7789 13.7054 17.1263C13.0317 16.4737 11.8949 16.1579 10.2738 16.1579C9.53699 16.1579 8.77909 16.2421 8.00015 16.4316C7.2212 16.621 6.4633 16.8526 5.72646 17.1474C5.38962 17.2947 5.13699 17.3789 4.98962 17.421C4.84225 17.4631 4.73699 17.4842 4.65278 17.4842C4.35804 17.4842 4.21067 17.2737 4.21067 16.8316V15.8C4.21067 15.4631 4.25278 15.2105 4.35804 15.0631C4.4633 14.9158 4.65278 14.7684 4.94751 14.621C5.68436 14.2421 6.56857 13.9263 7.60015 13.6737C8.63172 13.4 9.72646 13.2737 10.8844 13.2737C13.3896 13.2737 15.2212 13.8421 16.4001 14.9789C17.558 16.1158 18.1475 17.8421 18.1475 20.1579V26.9789H18.1896ZM9.64225 30.1789C10.337 30.1789 11.0528 30.0526 11.8107 29.8C12.5686 29.5474 13.2423 29.0842 13.8107 28.4526C14.1475 28.0526 14.4001 27.6105 14.5265 27.1053C14.6528 26.6 14.737 25.9895 14.737 25.2737V24.3895C14.1265 24.2421 13.4738 24.1158 12.8001 24.0316C12.1265 23.9474 11.4738 23.9053 10.8212 23.9053C9.41067 23.9053 8.37909 24.1789 7.68436 24.7474C6.98962 25.3158 6.65278 26.1158 6.65278 27.1684C6.65278 28.1579 6.90541 28.8947 7.43172 29.4C7.93699 29.9263 8.67383 30.1789 9.64225 30.1789ZM26.5475 32.4526C26.1686 32.4526 25.9159 32.3895 25.7475 32.2421C25.5791 32.1158 25.4317 31.821 25.3054 31.421L20.358 15.1474C20.2317 14.7263 20.1686 14.4526 20.1686 14.3053C20.1686 13.9684 20.337 13.7789 20.6738 13.7789H22.737C23.137 13.7789 23.4107 13.8421 23.558 13.9895C23.7265 14.1158 23.8528 14.4105 23.9791 14.8105L27.5159 28.7474L30.8001 14.8105C30.9054 14.3895 31.0317 14.1158 31.2001 13.9895C31.3686 13.8631 31.6633 13.7789 32.0422 13.7789H33.7265C34.1265 13.7789 34.4001 13.8421 34.5686 13.9895C34.737 14.1158 34.8844 14.4105 34.9686 14.8105L38.2949 28.9158L41.937 14.8105C42.0633 14.3895 42.2107 14.1158 42.358 13.9895C42.5265 13.8631 42.8001 13.7789 43.1791 13.7789H45.137C45.4738 13.7789 45.6633 13.9474 45.6633 14.3053C45.6633 14.4105 45.6423 14.5158 45.6212 14.6421C45.6001 14.7684 45.558 14.9368 45.4738 15.1684L40.4001 31.4421C40.2738 31.8631 40.1265 32.1368 39.958 32.2631C39.7896 32.3895 39.5159 32.4737 39.158 32.4737H37.3475C36.9475 32.4737 36.6738 32.4105 36.5054 32.2631C36.337 32.1158 36.1896 31.8421 36.1054 31.421L32.8423 17.8421L29.6001 31.4C29.4949 31.821 29.3686 32.0947 29.2001 32.2421C29.0317 32.3895 28.737 32.4526 28.358 32.4526H26.5475ZM53.6001 33.021C52.5054 33.021 51.4107 32.8947 50.358 32.6421C49.3054 32.3895 48.4844 32.1158 47.937 31.8C47.6001 31.6105 47.3686 31.4 47.2844 31.2105C47.2001 31.021 47.158 30.8105 47.158 30.621V29.5474C47.158 29.1053 47.3265 28.8947 47.6423 28.8947C47.7686 28.8947 47.8949 28.9158 48.0212 28.9579C48.1475 29 48.337 29.0842 48.5475 29.1684C49.2633 29.4842 50.0423 29.7368 50.8633 29.9053C51.7054 30.0737 52.5265 30.1579 53.3686 30.1579C54.6949 30.1579 55.7265 29.9263 56.4423 29.4631C57.158 29 57.537 28.3263 57.537 27.4631C57.537 26.8737 57.3475 26.3895 56.9686 25.9895C56.5896 25.5895 55.8738 25.2316 54.8423 24.8947L51.7896 23.9474C50.2528 23.4631 49.1159 22.7474 48.4212 21.8C47.7265 20.8737 47.3686 19.8421 47.3686 18.7474C47.3686 17.8631 47.558 17.0842 47.937 16.4105C48.3159 15.7368 48.8212 15.1474 49.4528 14.6842C50.0844 14.2 50.8001 13.8421 51.6423 13.5895C52.4844 13.3368 53.3686 13.2316 54.2949 13.2316C54.758 13.2316 55.2423 13.2526 55.7054 13.3158C56.1896 13.3789 56.6317 13.4631 57.0738 13.5474C57.4949 13.6526 57.8949 13.7579 58.2738 13.8842C58.6528 14.0105 58.9475 14.1368 59.158 14.2631C59.4528 14.4316 59.6633 14.6 59.7896 14.7895C59.9159 14.9579 59.9791 15.1895 59.9791 15.4842V16.4737C59.9791 16.9158 59.8107 17.1474 59.4949 17.1474C59.3265 17.1474 59.0528 17.0631 58.6949 16.8947C57.4949 16.3474 56.1475 16.0737 54.6528 16.0737C53.4528 16.0737 52.5054 16.2631 51.8528 16.6631C51.2001 17.0631 50.8633 17.6737 50.8633 18.5368C50.8633 19.1263 51.0738 19.6316 51.4949 20.0316C51.9159 20.4316 52.6949 20.8316 53.8107 21.1895L56.8001 22.1368C58.3159 22.621 59.4107 23.2947 60.0633 24.1579C60.7159 25.021 61.0317 26.0105 61.0317 27.1053C61.0317 28.0105 60.8422 28.8316 60.4844 29.5474C60.1054 30.2631 59.6001 30.8947 58.9475 31.4C58.2949 31.9263 57.5159 32.3053 56.6107 32.5789C55.6633 32.8737 54.6738 33.021 53.6001 33.021Z" fill="#252F3E"/>
<path fill-rule="evenodd" clip-rule="evenodd" d="M57.5794 43.2527C50.6531 48.3685 40.59 51.0842 31.9373 51.0842C19.811 51.0842 8.88471 46.6 0.632079 39.1474C-0.0205529 38.5579 0.568921 37.7579 1.34787 38.2211C10.2742 43.4 21.2847 46.5369 32.6742 46.5369C40.3584 46.5369 48.8005 44.9369 56.5689 41.6527C57.7268 41.1264 58.7163 42.4106 57.5794 43.2527Z" fill="#FF9900"/>
<path fill-rule="evenodd" clip-rule="evenodd" d="M60.4634 39.9684C59.5792 38.8316 54.6107 39.4211 52.3581 39.6947C51.6844 39.779 51.5792 39.1895 52.1897 38.7474C56.1476 35.9684 62.6528 36.7684 63.4107 37.6947C64.1686 38.6421 63.2002 45.1474 59.4949 48.2632C58.9265 48.7474 58.3792 48.4947 58.6318 47.8632C59.4739 45.779 61.3476 41.0842 60.4634 39.9684Z" fill="#FF9900"/>
</svg>
