<svg width="25" height="24" viewBox="0 0 25 24" fill="none" xmlns="http://www.w3.org/2000/svg">
<path d="M15.1237 23.9586H15.415L20.1702 21.5807L20.2494 21.4688V2.48836L20.1702 2.37592L15.415 0H15.1201L15.1237 23.9586Z" fill="#5294CF"/>
<path d="M8.93554 23.9586H8.64015L3.88898 21.5807L3.79257 21.4148L3.74365 2.58502L3.88898 2.37592L8.64015 0H8.9392L8.93554 23.9586Z" fill="#1F5B98"/>
<path d="M8.64844 0H15.4105V23.9586H8.64844V0Z" fill="#2D72B8"/>
<path d="M22.6594 11.4411L22.4987 11.4055L20.2044 11.1915L20.1703 11.2085L15.4108 11.0181H8.64848L3.88893 11.2085V7.57908L3.88394 7.58173L3.88893 7.5711L8.64848 6.46827H15.4108L20.1703 7.5711L21.92 8.50112V7.9032L22.6594 7.82232L22.5829 7.673L20.2416 5.9989L20.1703 6.02207L15.4108 4.54727H8.64848L3.88893 6.02207V2.37598L1.3999 5.29193V7.83859L1.41917 7.82464L2.13933 7.9032V8.51342L1.3999 8.90913V11.4431L1.41917 11.4411L2.13933 11.4517V12.5153L1.51799 12.5246L1.3999 12.5133V15.0482L2.13933 15.4458V16.0631L1.43088 16.1413L1.3999 16.1181V18.6643L3.88893 21.5807V17.935L8.64848 19.4097H15.4108L20.1843 17.9306L20.2478 17.9585L22.5582 16.309L22.6594 16.1447L21.92 16.0631V15.4582L21.8231 15.4195L20.2416 16.272L20.1843 16.3916L15.4108 17.488V17.4893H8.64848V17.488L3.88893 16.3869V12.7442L8.64848 12.9339V12.9386H15.4108L20.1703 12.7442L20.2787 12.7941L22.5025 12.6026L22.6594 12.5259L21.92 12.5153V11.4517L22.6594 11.4411Z" fill="#1A476F"/>
<path d="M20.1704 17.935V21.5807L22.6595 18.6643V16.1347L20.1848 17.9306L20.1704 17.935ZM20.1704 16.3949L20.1848 16.3916L22.6595 15.0605V12.5153L20.1704 12.7442V16.3949ZM20.1848 7.57443L20.1704 7.5711V11.2085L22.6595 11.4411V8.89708L20.1848 7.57443ZM20.1848 6.03635L22.6595 7.82232V5.2926L20.1704 2.37598V6.02207L20.1848 6.02705V6.03635Z" fill="#2D72B8"/>
</svg>
