<svg width="24" height="24" viewBox="0 0 24 24" fill="none" xmlns="http://www.w3.org/2000/svg">
<g clip-path="url(#clip0_5259_16486)">
<mask id="mask0_5259_16486" style="mask-type:luminance" maskUnits="userSpaceOnUse" x="0" y="6" width="24" height="15">
<path d="M0 6H24V21H0V6Z" fill="white"/>
</mask>
<g mask="url(#mask0_5259_16486)">
<path d="M18.9162 10.5416C19.0864 12.5243 15.966 14.4115 11.9467 14.7563C7.92739 15.1011 4.53113 13.773 4.36114 11.7903C4.19093 9.80722 7.31134 7.92018 11.3306 7.57536C15.3499 7.23064 18.7462 8.55847 18.9162 10.5416Z" fill="#BBE6FB"/>
</g>
<mask id="mask1_5259_16486" style="mask-type:luminance" maskUnits="userSpaceOnUse" x="0" y="6" width="24" height="14">
<path d="M0 6H24V20H0V6Z" fill="white"/>
</mask>
<g mask="url(#mask1_5259_16486)">
<mask id="mask2_5259_16486" style="mask-type:luminance" maskUnits="userSpaceOnUse" x="6" y="7" width="11" height="8">
<path d="M6.57275 7.80735H16.0601V14.4885H6.57275V7.80735Z" fill="white"/>
</mask>
<g mask="url(#mask2_5259_16486)">
<g opacity="0.350006">
<path d="M11.4487 7.80809C9.91549 7.78316 8.12141 8.3919 6.78648 8.96196C6.64754 9.36234 6.57275 9.78819 6.57275 10.2296C6.57275 12.5816 8.69651 14.4885 11.3164 14.4885C13.9363 14.4885 16.06 12.5816 16.06 10.2296C16.06 9.48527 15.8468 8.78594 15.473 8.1771C14.405 8.01108 12.9361 7.83227 11.4487 7.80809Z" fill="white"/>
</g>
</g>
</g>
<mask id="mask3_5259_16486" style="mask-type:luminance" maskUnits="userSpaceOnUse" x="0" y="6" width="24" height="13">
<path d="M0 6H24V19H0V6Z" fill="white"/>
</mask>
<g mask="url(#mask3_5259_16486)">
<path d="M11.3166 7.80756C10.4678 7.75577 9.00483 8.1986 7.78489 8.64035C7.59952 9.0778 7.49658 9.55652 7.49658 10.0589C7.49658 12.1197 9.36503 13.7903 11.3416 13.7903C13.3051 13.7903 15.0424 12.117 15.1866 10.0589C15.2334 9.38867 15.0027 8.75715 14.6824 8.21267C13.4176 7.98992 12.0754 7.85388 11.3166 7.80756Z" fill="white"/>
</g>
<mask id="mask4_5259_16486" style="mask-type:luminance" maskUnits="userSpaceOnUse" x="0" y="6" width="24" height="13">
<path d="M0 6H24V19H0V6Z" fill="white"/>
</mask>
<g mask="url(#mask4_5259_16486)">
<path d="M9.13832 9.78841C9.24245 9.55781 9.40019 9.44487 9.55299 9.25156C9.53602 9.20578 9.49884 9.05609 9.49884 9.00419C9.49884 8.77252 9.68678 8.58447 9.91856 8.58447C9.97325 8.58447 10.0255 8.59532 10.0733 8.61434C10.768 8.08491 11.6826 7.85409 12.6016 8.05955C12.6856 8.07846 12.7679 8.10135 12.8487 8.12649C11.9403 8.00055 10.9165 8.32228 10.2201 8.88438C10.2414 8.93456 10.3004 9.07802 10.3004 9.13572C10.3004 9.3675 10.1503 9.42392 9.91856 9.42392C9.86591 9.42392 9.81562 9.41382 9.76909 9.39609C9.61177 9.60734 9.419 10.0098 9.32465 10.2613C9.70977 10.6058 10.0577 10.7307 10.5112 10.9001C10.51 10.8785 10.5268 10.8586 10.5268 10.8365C10.5268 10.1377 11.1419 9.56984 11.8408 9.56984C12.4671 9.56984 12.9857 10.0252 13.0869 10.6227C13.3994 10.4239 13.7015 10.2715 13.9318 9.97688C13.8781 9.91134 13.8202 9.72576 13.8202 9.63442C13.8202 9.42413 13.9908 9.2536 14.2011 9.2536C14.2309 9.2536 14.2595 9.2579 14.2873 9.26434C14.4042 9.02407 14.4924 8.7694 14.5488 8.50678C13.456 7.69774 11.3416 7.8081 11.3416 7.8081C11.3416 7.8081 9.65905 7.72031 8.52002 8.27543C8.59599 8.82463 8.81509 9.34676 9.13832 9.78841Z" fill="#373535"/>
<path d="M14.3619 9.47304C14.4391 9.54267 14.4812 9.60382 14.5144 9.66335C14.6166 9.8471 14.4116 10.0153 14.2013 10.0153C14.1799 10.0153 14.1593 10.0124 14.1388 10.0089C13.9018 10.3792 13.4868 10.8541 13.1182 11.093C13.6835 11.1857 14.2166 11.4121 14.6408 11.762C14.9498 11.2085 15.1867 10.4092 15.1867 9.73029C15.1867 9.21354 14.9586 8.83475 14.6142 8.55687C14.5961 8.83368 14.4484 9.22084 14.3619 9.47304Z" fill="#373535"/>
<path d="M9.77283 12.9788C9.9612 12.4586 10.4245 12.0555 10.8629 11.7009C10.7987 11.6131 10.7025 11.3957 10.6625 11.2928C10.1279 11.1302 9.65484 10.8259 9.28799 10.423C9.2853 10.4347 9.28197 10.4461 9.27918 10.4578C9.21008 10.7674 9.1974 11.0776 9.23179 11.3802C9.48775 11.428 9.68149 11.6522 9.68149 11.922C9.68149 12.082 9.54126 12.3139 9.43241 12.4148C9.55072 12.6701 9.63142 12.7933 9.77283 12.9788Z" fill="#373535"/>
<path d="M9.73951 13.4155C9.51482 13.1921 9.35944 12.7465 9.21362 12.4667C9.18633 12.4709 9.15839 12.4738 9.12981 12.4738C8.82506 12.4738 8.50581 12.2181 8.57802 11.9221C8.61799 11.7584 8.73104 11.6512 8.91511 11.5618C8.8732 11.2226 8.86181 10.7349 8.94058 10.3823C8.96314 10.2814 9.01096 10.2341 9.04266 10.138C8.70643 9.64599 8.48915 9.00018 8.48915 8.35942C8.48915 8.33599 8.49033 8.31289 8.49087 8.28968C7.92264 8.57465 7.49658 9.0236 7.49658 9.73034C7.49658 11.2936 8.39696 12.8271 9.73661 13.4282C9.73758 13.424 9.73844 13.4197 9.73951 13.4155Z" fill="#373535"/>
<path d="M13.0337 11.2544C12.8606 11.7467 12.3925 12.1004 11.8409 12.1004C11.5458 12.1004 11.2752 11.9986 11.06 11.8295C10.6166 12.1748 10.2143 12.7815 10.0098 13.3078C10.1015 13.4066 10.1655 13.4878 10.2684 13.5754C10.5786 13.6562 11.0059 13.5754 11.3417 13.5754C12.6924 13.5754 13.8887 12.9745 14.5746 11.9208C14.1186 11.605 13.5806 11.3044 13.0337 11.2544Z" fill="#373535"/>
</g>
<mask id="mask5_5259_16486" style="mask-type:luminance" maskUnits="userSpaceOnUse" x="0" y="6" width="24" height="13">
<path d="M0 6H24V19H0V6Z" fill="white"/>
</mask>
<g mask="url(#mask5_5259_16486)">
<path d="M9.10365 9.97102C9.20778 9.74042 9.33834 9.52702 9.49103 9.3337C9.47405 9.28803 9.46417 9.23871 9.46417 9.18681C9.46417 8.95514 9.65211 8.76709 9.88389 8.76709C9.93859 8.76709 9.99081 8.77794 10.0386 8.79696C10.7333 8.26752 11.6479 8.03671 12.567 8.24217C12.6509 8.26108 12.7332 8.28397 12.814 8.30911C11.9057 8.18317 10.9672 8.46159 10.2707 9.0238C10.292 9.07387 10.3036 9.12911 10.3036 9.18681C10.3036 9.41859 10.1157 9.60653 9.88389 9.60653C9.83124 9.60653 9.78095 9.59643 9.73442 9.5787C9.5771 9.78996 9.44848 10.0234 9.35413 10.275C9.68488 10.6314 10.0909 10.9133 10.5442 11.0828C10.5431 11.0612 10.5409 11.0398 10.5409 11.0178C10.5409 10.319 11.1073 9.75246 11.8062 9.75246C12.4324 9.75246 12.951 10.2079 13.0522 10.8053C13.3647 10.6065 13.6424 10.3512 13.8725 10.0566C13.8188 9.99101 13.7855 9.90838 13.7855 9.81704C13.7855 9.60675 13.9562 9.43622 14.1664 9.43622C14.1962 9.43622 14.2248 9.44051 14.2526 9.44696C14.3695 9.20669 14.4578 8.95202 14.5142 8.6894C13.4213 7.88036 11.3069 7.99072 11.3069 7.99072C11.3069 7.99072 9.62438 7.90293 8.48535 8.45804C8.56132 9.00725 8.78043 9.52938 9.10365 9.97102Z" fill="#1287B1"/>
<path d="M14.421 9.53541C14.4982 9.60504 14.5478 9.70487 14.5478 9.81705C14.5478 10.0273 14.3771 10.198 14.1668 10.198C14.1454 10.198 14.1248 10.1951 14.1043 10.1916C13.8673 10.5619 13.5534 10.8776 13.1846 11.1166C13.7296 11.2018 14.2426 11.4331 14.6667 11.783C14.9756 11.2295 15.1522 10.5919 15.1522 9.91301C15.1522 9.39625 14.9241 9.01747 14.5797 8.73959C14.5616 9.0164 14.5075 9.28321 14.421 9.53541Z" fill="#1287B1"/>
<path d="M9.83097 13.1038C10.0193 12.5836 10.3467 12.1168 10.785 11.7623C10.7208 11.6744 10.6679 11.5784 10.6279 11.4755C10.0932 11.3129 9.62025 11.0086 9.25339 10.6057C9.25071 10.6174 9.24727 10.6288 9.24458 10.6405C9.17538 10.9501 9.1627 11.2604 9.19719 11.5629C9.45305 11.6107 9.6469 11.8349 9.6469 12.1047C9.6469 12.2647 9.57823 12.4086 9.46938 12.5095C9.56813 12.7189 9.68956 12.9183 9.83097 13.1038Z" fill="#1287B1"/>
<path d="M9.73805 13.4092C9.51336 13.1858 9.32477 12.9292 9.17906 12.6495C9.15166 12.6537 9.12372 12.6565 9.09524 12.6565C8.7905 12.6565 8.54346 12.4094 8.54346 12.1048C8.54346 11.8864 8.67069 11.6982 8.85476 11.6088C8.81296 11.2696 8.82714 10.9176 8.90601 10.5649C8.92858 10.4641 8.95609 10.3657 8.98779 10.2695C8.65156 9.77761 8.45459 9.18285 8.45459 8.54209C8.45459 8.51866 8.45567 8.49556 8.4562 8.47245C7.88798 8.75732 7.46191 9.20638 7.46191 9.91301C7.46191 11.4764 8.39549 12.8208 9.73515 13.4219C9.73611 13.4177 9.73697 13.4134 9.73805 13.4092Z" fill="#1287B1"/>
<path d="M12.9992 11.437C12.8261 11.9294 12.358 12.283 11.8064 12.283C11.5114 12.283 11.2407 12.1812 11.0255 12.0121C10.5821 12.3575 10.2473 12.8282 10.043 13.3547C10.1346 13.4534 10.2326 13.5465 10.3356 13.6339C10.6459 13.7148 10.9714 13.7581 11.3072 13.7581C12.6579 13.7581 13.8454 13.0607 14.5313 12.0071C14.0753 11.6911 13.5461 11.4871 12.9992 11.437Z" fill="#1287B1"/>
</g>
<mask id="mask6_5259_16486" style="mask-type:luminance" maskUnits="userSpaceOnUse" x="0" y="6" width="24" height="13">
<path d="M0 6H24V19H0V6Z" fill="white"/>
</mask>
<g mask="url(#mask6_5259_16486)">
<mask id="mask7_5259_16486" style="mask-type:luminance" maskUnits="userSpaceOnUse" x="9" y="8" width="6" height="6">
<path d="M9.28027 8.61881H14.2124V13.5466H9.28027V8.61881Z" fill="white"/>
</mask>
<g mask="url(#mask7_5259_16486)">
<path d="M13.0434 11.1108L14.2124 10.832L13.039 10.7721L13.9939 10.0423L12.9104 10.4307L13.6467 9.41022L12.6297 10.0862L12.9852 8.89164L12.2868 9.87626L12.2709 8.63202L11.8113 9.74033L11.4281 8.61881L11.4488 9.93998L10.7866 8.75571L11.145 10.0132L10.0707 9.23195L10.9122 10.2893L9.57857 9.79889L10.6311 10.5776L9.28146 10.6191L10.6614 10.9752L9.28027 11.2738L10.6436 11.3727L9.4939 12.1089L10.6777 11.6797L9.85634 12.72L10.8943 11.8829L10.5205 13.2789L11.3218 12.1428L11.2095 13.4845L11.6644 12.2682L12.0516 13.5466L12.1457 12.2644L12.7204 13.3584L12.3808 12.107L13.4331 12.9222L12.7538 11.8829L13.9083 12.3327L13.0255 11.4652L14.2093 11.5583L13.0434 11.1108Z" fill="white"/>
</g>
<mask id="mask8_5259_16486" style="mask-type:luminance" maskUnits="userSpaceOnUse" x="0" y="6" width="24" height="8">
<path d="M0.597656 6.70494H23.4215V13.3477H0.597656V6.70494Z" fill="white"/>
</mask>
<g mask="url(#mask8_5259_16486)">
<g opacity="0.350006">
<path d="M0.597656 13.3477C4.22322 9.7222 7.11884 8.60294 9.74678 8.09198C10.0945 8.02439 10.1603 7.26457 10.1603 7.26457C10.1603 7.26457 10.2089 7.8242 10.4523 7.89717C10.6956 7.97024 11.0119 7.02119 11.0119 7.02119C11.0119 7.02119 10.7199 7.87288 11.0119 7.92156C11.3039 7.97024 11.8392 7.09426 11.8392 7.09426C11.8392 7.09426 11.6203 7.84849 11.7663 7.89717C11.9121 7.94584 12.6421 6.8023 12.6421 6.8023C12.6421 6.8023 12.2041 7.55653 12.6178 7.6296C13.0316 7.70256 13.6351 7.11478 13.6351 7.11478C13.6351 7.11478 13.1605 7.6526 13.372 7.72685C14.2724 8.04331 15.0009 6.87311 15.0009 6.87311C15.0009 6.87311 14.8321 7.38621 14.3941 7.94584C15.343 8.18913 16.0478 6.75964 16.0478 6.75964L15.343 8.18913C15.708 8.38394 17.1681 6.70494 17.1681 6.70494C17.1681 6.70494 16.4138 8.01891 15.9758 8.28648C16.2191 8.48119 17.095 7.70256 17.095 7.70256C17.095 7.70256 16.3894 8.57844 16.6571 8.62712C17.0464 8.94347 18.4819 6.9969 18.4819 6.9969C18.4819 6.9969 17.9224 8.14045 17.095 9.04082C17.7865 9.38672 19.504 7.16722 19.504 7.16722C19.504 7.16722 19.4553 7.87288 18.2143 8.99214C19.139 8.8705 20.3313 7.11854 20.3313 7.11854C20.3313 7.11854 19.8933 8.43251 18.8469 9.35706C19.7548 9.26261 21.2071 7.02119 21.2071 7.02119C21.2071 7.02119 20.6475 8.57844 19.504 9.47881C20.7693 9.75863 22.5942 7.87288 22.5942 7.87288C22.5942 7.87288 21.8764 9.21125 20.9395 9.75863C21.9859 10.1601 23.4215 8.50548 23.4215 8.50548C23.4215 8.50548 21.9859 10.7198 19.6987 10.6225C18.9482 10.5906 16.6782 8.34569 11.8149 8.52987C5.39116 8.77326 4.02862 11.4984 0.597656 13.3477Z" fill="#373535"/>
</g>
</g>
<path d="M0.746094 13.0723C4.37166 9.44681 7.26717 8.32765 9.89511 7.81659C10.2429 7.749 10.3087 6.98929 10.3087 6.98929C10.3087 6.98929 10.3573 7.54903 10.6008 7.62188C10.8441 7.69485 11.1603 6.74601 11.1603 6.74601C11.1603 6.74601 10.8683 7.59771 11.1603 7.64628C11.4524 7.69485 11.9876 6.81897 11.9876 6.81897C11.9876 6.81897 11.7687 7.57321 11.9145 7.62188C12.0606 7.67056 12.7905 6.52691 12.7905 6.52691C12.7905 6.52691 12.3525 7.28125 12.7662 7.35421C13.1798 7.42728 13.7835 6.8395 13.7835 6.8395C13.7835 6.8395 13.309 7.37731 13.5205 7.45157C14.4208 7.76792 15.1492 6.59783 15.1492 6.59783C15.1492 6.59783 14.9804 7.11093 14.5426 7.67056C15.4914 7.91395 16.1962 6.48425 16.1962 6.48425L15.4914 7.91395C15.8564 8.10855 17.3163 6.42977 17.3163 6.42977C17.3163 6.42977 16.5622 7.74352 16.1242 8.0112C16.3675 8.20591 17.2435 7.42728 17.2435 7.42728C17.2435 7.42728 16.5378 8.30326 16.8055 8.35183C17.1948 8.66829 18.6303 6.72162 18.6303 6.72162C18.6303 6.72162 18.0706 7.86527 17.2435 8.76554C17.935 9.11155 19.6524 6.89194 19.6524 6.89194C19.6524 6.89194 19.6038 7.59771 18.3627 8.71697C19.2874 8.59522 20.4797 6.84326 20.4797 6.84326C20.4797 6.84326 20.0417 8.15723 18.9953 9.08189C19.9032 8.98743 21.3555 6.74601 21.3555 6.74601C21.3555 6.74601 20.796 8.30326 19.6524 9.20353C20.9177 9.48334 22.7427 7.59771 22.7427 7.59771C22.7427 7.59771 22.0248 8.93586 21.0879 9.48334C22.1343 9.8848 23.57 8.23019 23.57 8.23019C23.57 8.23019 22.1343 10.4445 19.8469 10.3472C19.0967 10.3152 16.8267 8.0703 11.9632 8.25458C5.5396 8.49787 4.17695 11.2231 0.746094 13.0723Z" fill="#373535"/>
</g>
<mask id="mask9_5259_16486" style="mask-type:luminance" maskUnits="userSpaceOnUse" x="0" y="6" width="24" height="13">
<path d="M0 6H24V19H0V6Z" fill="white"/>
</mask>
<g mask="url(#mask9_5259_16486)">
<mask id="mask10_5259_16486" style="mask-type:luminance" maskUnits="userSpaceOnUse" x="0" y="10" width="22" height="9">
<path d="M0.50293 10.7392H21.9276V18.6714H0.50293V10.7392Z" fill="white"/>
</mask>
<g mask="url(#mask10_5259_16486)">
<g opacity="0.350006">
<path d="M0.50293 13.7439C2.41908 14.7051 4.17115 13.5979 6.37927 14.2202C8.05805 14.6934 10.1021 15.2768 12.8758 14.8753C15.6497 14.4739 18.0222 13.2694 19.1538 11.1159C19.5066 10.1549 20.9421 11.335 20.9421 11.335C20.9421 11.335 19.8959 10.897 19.9203 11.1039C19.9446 11.3106 21.4897 12.0284 21.4897 12.0284C21.4897 12.0284 20.0905 11.5904 20.1758 11.9189C20.261 12.2474 21.9275 13.5614 21.9275 13.5614C21.9275 13.5614 20.0419 12.1258 19.8838 12.3204C19.7255 12.5151 20.6867 13.306 20.6867 13.306C20.6867 13.306 19.0929 12.3204 18.5332 12.6111C18.1307 12.8198 20.1879 14.1698 20.1879 14.1698C20.1879 14.1698 18.8495 13.1477 18.5332 13.4154C18.2169 13.6831 20.0419 15.873 20.0419 15.873C20.0419 15.873 17.9734 13.6344 17.7668 13.7439C17.5598 13.8534 18.3385 14.924 18.3385 14.924C18.3385 14.924 17.3166 13.8047 17.0369 13.9994C16.757 14.1941 18.4968 17.1017 18.4968 17.1017C18.4968 17.1017 16.611 14.1211 15.8324 14.6197C17.0551 17.3025 16.5989 17.6858 16.5989 17.6858C16.5989 17.6858 16.4428 14.9489 14.9199 15.0213C14.1534 15.0578 15.2848 17.0652 15.2848 17.0652C15.2848 17.0652 14.2434 15.2318 13.5499 15.2683C14.8281 17.6873 14.3725 18.6711 14.3725 18.6711C14.3725 18.6711 14.5839 16.6052 12.8503 15.4555C13.5071 16.0393 12.4381 18.6711 12.4381 18.6711C12.4381 18.6711 13.3785 14.7929 11.7444 15.5324C11.4862 15.6489 11.7262 17.4668 11.7262 17.4668C11.7262 17.4668 11.3977 15.3862 10.9051 15.4958C10.6179 15.5595 9.08006 18.3792 9.08006 18.3792C9.08006 18.3792 10.3393 15.3315 9.95615 15.4593C9.67698 15.5524 9.15314 16.8098 9.15314 16.8098C9.15314 16.8098 9.40856 15.5688 9.15314 15.4958C8.89771 15.4227 7.47414 16.8098 7.47414 16.8098C7.47414 16.8098 8.53268 15.5688 8.35012 15.3133C8.07352 14.9261 7.74933 14.9079 7.36464 15.0578C6.8049 15.276 6.05077 16.2987 6.05077 16.2987C6.05077 16.2987 6.80254 15.2632 6.67112 14.8753C6.46018 14.252 4.29881 16.0797 4.29881 16.0797C4.29881 16.0797 5.57625 14.8753 5.28429 14.6197C4.99233 14.3643 3.40693 14.4433 2.91188 14.4419C1.45198 14.4374 0.946078 14.0949 0.50293 13.7439Z" fill="#373535"/>
</g>
</g>
<path d="M0.430176 13.5251C2.34633 14.4863 4.09829 13.3792 6.30641 14.0016C7.98519 14.4746 10.0293 15.0581 12.8032 14.6565C15.5771 14.2551 17.9494 13.0506 19.081 10.8973C19.4338 9.93618 20.8693 11.1162 20.8693 11.1162C20.8693 11.1162 19.8231 10.6783 19.8475 10.8851C19.8718 11.0919 21.4169 11.8097 21.4169 11.8097C21.4169 11.8097 20.0177 11.3718 20.1029 11.7003C20.1881 12.0287 21.8549 13.3426 21.8549 13.3426C21.8549 13.3426 19.969 11.9069 19.8109 12.1017C19.6529 12.2963 20.614 13.0871 20.614 13.0871C20.614 13.0871 19.0201 12.1017 18.4604 12.3922C18.0578 12.6011 20.115 13.951 20.115 13.951C20.115 13.951 18.7767 12.9289 18.4604 13.1966C18.1441 13.4644 19.9692 15.6542 19.9692 15.6542C19.9692 15.6542 17.9007 13.4156 17.6939 13.5251C17.4872 13.6347 18.2658 14.7052 18.2658 14.7052C18.2658 14.7052 17.2437 13.5859 16.964 13.7806C16.6842 13.9752 18.4239 16.883 18.4239 16.883C18.4239 16.883 16.5381 13.9023 15.7595 14.4011C16.9823 17.0837 16.526 17.467 16.526 17.467C16.526 17.467 16.37 14.7301 14.847 14.8027C14.0805 14.8392 15.2119 16.8465 15.2119 16.8465C15.2119 16.8465 14.1706 15.0129 13.4772 15.0495C14.7555 17.4685 14.2996 18.4524 14.2996 18.4524C14.2996 18.4524 14.511 16.3863 12.7774 15.2367C13.4343 15.8206 12.3652 18.4524 12.3652 18.4524C12.3652 18.4524 13.3059 14.5742 11.6718 15.3136C11.4136 15.4303 11.6535 17.248 11.6535 17.248C11.6535 17.248 11.3248 15.1676 10.8323 15.2771C10.545 15.3408 9.0072 18.1604 9.0072 18.1604C9.0072 18.1604 10.2665 15.1128 9.88329 15.2406C9.60412 15.3336 9.08027 16.5909 9.08027 16.5909C9.08027 16.5909 9.3358 15.35 9.08027 15.2771C8.82485 15.2041 7.40138 16.5909 7.40138 16.5909C7.40138 16.5909 8.45993 15.35 8.27726 15.0945C8.00066 14.7073 7.67647 14.6893 7.29188 14.8392C6.73204 15.0572 5.97791 16.08 5.97791 16.08C5.97791 16.08 6.72967 15.0443 6.59836 14.6565C6.38732 14.0334 4.22606 15.861 4.22606 15.861C4.22606 15.861 5.50349 14.6565 5.21143 14.4011C4.91947 14.1456 3.33407 14.2246 2.83902 14.2231C1.37912 14.2185 0.873324 13.8762 0.430176 13.5251Z" fill="#373535"/>
</g>
</g>
<defs>
<clipPath id="clip0_5259_16486">
<rect width="24" height="24" fill="white"/>
</clipPath>
</defs>
</svg>
