<svg width="64" height="64" viewBox="0 0 64 64" fill="none" xmlns="http://www.w3.org/2000/svg">
<rect width="64" height="64" rx="32" fill="white"/>
<path d="M32.0231 5.82312C17.6831 5.82312 6 17.5062 6 31.8462C6 46.1862 17.6831 57.8693 32.0231 57.8693C46.3631 57.8693 58.0462 46.1862 58.0462 31.8462C58.0462 17.5062 46.3631 5.82312 32.0231 5.82312Z" fill="white"/>
<path d="M31.0621 32.3174L30.3083 33.9945C29.3661 36.1427 28.3109 38.7431 27.934 40.4014C27.7833 41.1174 27.7267 41.8335 27.7267 42.5495L27.7644 43.5482C30.4025 44.5281 33.3045 44.5658 35.9614 43.6801C35.6599 43.4163 35.3961 43.1148 35.1511 42.8133C33.4929 40.684 32.5507 37.556 31.0621 32.3174ZM24.9002 21.7273C19.2848 25.6656 17.928 33.4104 21.8664 39.0069C22.6578 40.1375 23.6377 41.1362 24.7683 41.9465C25.5409 38.7619 27.4441 35.86 30.3083 29.9997C30.1387 29.5286 29.9503 29.0198 29.7242 28.4922C28.9327 26.4947 27.7833 24.177 26.7657 23.1406C26.2192 22.5941 25.5974 22.123 24.9002 21.7273Z" fill="#91DC47"/>
<path d="M42.877 46.1675C41.2377 45.9602 39.8621 45.7152 38.6749 45.3007C31.2882 48.9752 22.3186 45.9414 18.6441 38.5546C15.6291 32.487 17.0801 25.138 22.1867 20.672C21.3388 20.4647 20.472 20.3517 19.5863 20.3517C15.2146 20.3894 10.5602 22.8202 8.63815 29.3778C8.44971 30.3388 8.50624 31.0549 8.50624 31.9028C8.50624 44.8861 19.021 55.4197 32.0043 55.4197C39.6736 55.4197 46.8531 51.6887 51.2625 45.4137C49.1708 45.9414 47.0227 46.2429 44.8556 46.2617C44.2149 46.2805 43.5554 46.2429 42.877 46.1675Z" fill="#63B132"/>
<path d="M38.4676 41.6072C38.7691 41.7391 39.0895 41.8522 39.391 41.9276C44.931 37.8573 46.1181 30.0749 42.0479 24.5349C39.7113 21.3503 35.9991 19.4659 32.0419 19.4659C30.7229 19.4659 29.4038 19.6732 28.1413 20.0878C30.6663 22.9709 31.8912 27.0788 33.0595 31.5824C33.0595 31.5824 33.4364 32.8261 34.077 34.4843C34.7177 36.1426 35.6222 38.1777 36.6021 39.6663C37.2616 40.665 37.9777 41.3811 38.4676 41.6072Z" fill="#90B4FE"/>
<path d="M32.0419 8.36694C24.4479 8.36694 17.3439 12.0226 12.9345 18.1845C14.8565 16.9408 17.1178 16.3001 19.3978 16.3001C22.1302 16.3001 24.2784 17.1481 25.3148 17.7322C25.5597 17.883 25.8047 18.0337 26.0308 18.1845C33.5871 14.868 42.4059 18.2975 45.7224 25.8538C48.2098 31.5258 46.9473 38.1399 42.5378 42.4928C43.2351 42.5682 43.9511 42.6058 44.6672 42.6058C47.2676 42.6058 50.0941 42.0405 52.2046 40.2504C53.5802 39.0821 54.7297 37.3862 55.3704 34.8423C57.0475 21.9909 47.9837 10.1948 35.1134 8.53653C34.0959 8.42347 33.0783 8.36694 32.0419 8.36694Z" fill="#5881D8"/>
</svg>
