<svg width="64" height="64" viewBox="0 0 64 64" fill="none" xmlns="http://www.w3.org/2000/svg">
<g clip-path="url(#clip0_47_2449)">
<path d="M32.0231 -0.153809C14.3895 -0.153809 0.0230713 14.2126 0.0230713 31.8462C0.0230713 49.4798 14.3895 63.8462 32.0231 63.8462C49.6567 63.8462 64.0231 49.4798 64.0231 31.8462C64.0231 14.2126 49.6567 -0.153809 32.0231 -0.153809Z" fill="white"/>
<path d="M30.8413 32.4255L29.9145 34.4878C28.7559 37.1294 27.4583 40.327 26.9949 42.3661C26.8095 43.2467 26.74 44.1272 26.74 45.0077L26.7863 46.2358C30.0303 47.4407 33.5988 47.4871 36.866 46.398C36.4952 46.0736 36.1708 45.7029 35.8696 45.3321C33.8305 42.7137 32.6719 38.8672 30.8413 32.4255ZM23.2642 19.4031C16.3591 24.2459 14.6907 33.7695 19.5336 40.6515C20.5068 42.0417 21.7117 43.2698 23.102 44.2662C24.0521 40.3502 26.3924 36.7818 29.9145 29.5754C29.7059 28.9961 29.4742 28.3705 29.1962 27.7217C28.223 25.2655 26.8095 22.4154 25.5582 21.1409C24.8862 20.469 24.1216 19.8897 23.2642 19.4031Z" fill="#91DC47"/>
<path d="M45.37 49.4567C43.354 49.2018 41.6625 48.9005 40.2027 48.3908C31.1194 52.9092 20.0897 49.1786 15.5713 40.0953C11.8638 32.6341 13.648 23.5971 19.9275 18.1055C18.8848 17.8506 17.8189 17.7115 16.7298 17.7115C11.354 17.7579 5.63064 20.747 3.26713 28.8108C3.03541 29.9925 3.10493 30.873 3.10493 31.9157C3.10493 47.881 16.0347 60.8339 31.9999 60.8339C41.4308 60.8339 50.2592 56.2459 55.6813 48.5298C53.1093 49.1786 50.4677 49.5494 47.803 49.5725C47.0151 49.5957 46.2041 49.5494 45.37 49.4567Z" fill="#63B132"/>
<path d="M39.9478 43.8491C40.3185 44.0113 40.7125 44.1503 41.0832 44.243C47.8957 39.2379 49.3555 29.6681 44.3504 22.8556C41.4771 18.9396 36.9123 16.6224 32.0463 16.6224C30.4243 16.6224 28.8023 16.8773 27.2498 17.3871C30.3548 20.9324 31.8609 25.9838 33.2975 31.5218C33.2975 31.5218 33.761 33.0511 34.5488 35.0902C35.3366 37.1293 36.4489 39.6319 37.6538 41.4624C38.4648 42.6905 39.3453 43.571 39.9478 43.8491Z" fill="#90B4FE"/>
<path d="M32.0463 2.97437C22.7081 2.97437 13.9724 7.46966 8.55026 15.0468C10.9138 13.5174 13.6944 12.7296 16.4981 12.7296C19.858 12.7296 22.4996 13.7723 23.774 14.4907C24.0752 14.676 24.3765 14.8614 24.6545 15.0468C33.9464 10.9686 44.7907 15.1858 48.8689 24.4776C51.9275 31.4523 50.375 39.5855 44.9529 44.9382C45.8102 45.0308 46.6907 45.0772 47.5713 45.0772C50.7689 45.0772 54.2447 44.382 56.8399 42.1807C58.5314 40.7441 59.9449 38.6587 60.7327 35.5305C62.795 19.7274 51.6495 5.22201 35.8233 3.18291C34.572 3.04388 33.3207 2.97437 32.0463 2.97437Z" fill="#5881D8"/>
</g>
<defs>
<clipPath id="clip0_47_2449">
<rect width="64" height="64" fill="white"/>
</clipPath>
</defs>
</svg>
