<svg width="25" height="24" viewBox="0 0 25 24" fill="none" xmlns="http://www.w3.org/2000/svg">
<path d="M10.9827 0H14.9047V17.9755C12.8958 18.3555 11.4169 18.505 9.81679 18.505C5.02668 18.5 2.5332 16.36 2.5332 12.25C2.5332 8.29002 5.1781 5.71999 9.2767 5.71999C9.91271 5.71999 10.3972 5.77004 10.9827 5.91999V0ZM11.1202 9.15938C10.6608 9.00936 10.2823 8.95938 9.79773 8.95938C7.81409 8.95938 6.66831 10.1693 6.66831 12.2898C6.66831 14.3544 7.76367 15.4943 9.77255 15.4943C10.2066 15.4943 10.5599 15.4699 11.1202 15.3949V9.15938Z" fill="#2BA977"/>
<path d="M21.3181 6.20259V15.2027C21.3181 18.3021 21.0859 19.7926 20.4045 21.0777C19.7685 22.3131 18.9306 23.0922 17.1993 23.9526L13.5601 22.2377C15.2914 21.4331 16.1292 20.7221 16.6643 19.6372C17.2245 18.5277 17.4012 17.2426 17.4012 13.8626V6.20266L21.3181 6.20259ZM17.0059 0H20.9279V3.98501H17.0059V0Z" fill="#2BA977"/>
</svg>
