<svg width="64" height="64" viewBox="0 0 64 64" fill="none" xmlns="http://www.w3.org/2000/svg">
<path d="M61.0249 28.4577C59.554 27.4676 55.6886 27.0447 52.8785 27.8016C52.7269 25.0025 51.2838 22.6438 48.6434 20.5858L47.666 19.9296L47.0146 20.9134C45.7341 22.8572 45.1946 25.4468 45.3858 27.8008C45.5365 29.2511 46.0411 30.8815 47.0146 32.0644C43.3571 34.1859 39.986 33.7044 25.0561 33.7044H2.00517C1.93774 37.0754 2.47962 43.5606 6.60362 48.8397C7.05902 49.4229 7.55886 49.987 8.10074 50.5304C11.4536 53.888 16.5193 56.3499 24.0945 56.357C35.651 56.3673 45.5524 50.121 51.5749 35.0174C53.5568 35.0499 58.7884 35.3728 61.3486 30.4253C61.4113 30.342 62 29.1131 62 29.1131L61.0241 28.4569L61.0249 28.4577ZM17.0485 25.3746H10.5666V31.8566H17.0485V25.3746ZM25.4227 25.3746H18.9407V31.8566H25.4227V25.3746ZM33.7968 25.3746H27.3149V31.8566H33.7968V25.3746ZM42.171 25.3746H35.689V31.8566H42.171V25.3746ZM8.67435 25.3746H2.19241V31.8566H8.67435V25.3746ZM17.0485 17.1877H10.5666V23.6697H17.0485V17.1877ZM25.4227 17.1877H18.9407V23.6697H25.4227V17.1877ZM33.7968 17.1877H27.3149V23.6697H33.7968V17.1877ZM33.7968 9H27.3149V15.4819H33.7968V9Z" fill="#1D63ED"/>
</svg>
