<svg width="64" height="65" viewBox="0 0 64 65" fill="none" xmlns="http://www.w3.org/2000/svg">
<rect y="0.193115" width="64" height="64" rx="32" fill="#1D63ED"/>
<path d="M58.8567 29.1486C57.6359 28.3268 54.4279 27.9759 52.0957 28.604C51.9699 26.281 50.7722 24.3234 48.5809 22.6154L47.7696 22.0709L47.2291 22.8873C46.1663 24.5006 45.7186 26.6498 45.8773 28.6034C46.0024 29.807 46.4211 31.1602 47.2291 32.1419C44.1936 33.9026 41.3958 33.5029 29.005 33.5029H9.87429C9.81832 36.3007 10.268 41.6829 13.6907 46.0643C14.0686 46.5482 14.4835 47.0164 14.9332 47.4674C17.7158 50.254 21.9201 52.2972 28.207 52.3031C37.798 52.3117 46.0155 47.1277 51.0139 34.5927C52.6587 34.6197 57.0005 34.8877 59.1254 30.7816C59.1774 30.7124 59.6659 29.6925 59.6659 29.6925L58.856 29.1479L58.8567 29.1486ZM22.3592 26.5898H16.9797V31.9694H22.3592V26.5898ZM29.3092 26.5898H23.9297V31.9694H29.3092V26.5898ZM36.2592 26.5898H30.8796V31.9694H36.2592V26.5898ZM43.2092 26.5898H37.8296V31.9694H43.2092V26.5898ZM15.4093 26.5898H10.0297V31.9694H15.4093V26.5898ZM22.3592 19.7952H16.9797V25.1748H22.3592V19.7952ZM29.3092 19.7952H23.9297V25.1748H29.3092V19.7952ZM36.2592 19.7952H30.8796V25.1748H36.2592V19.7952ZM36.2592 13H30.8796V18.3796H36.2592V13Z" fill="white"/>
</svg>
