<svg width="64" height="65" viewBox="0 0 64 65" fill="none" xmlns="http://www.w3.org/2000/svg">
<path fill-rule="evenodd" clip-rule="evenodd" d="M33.3148 3.33643C29.0831 4.83799 25.1244 9.20619 21.1657 16.3045C15.296 27.0885 7.78812 42.3772 18.1626 54.5262C22.9403 60.123 30.9942 63.3991 41.3686 58.2119C49.6955 53.9802 52.1526 41.8312 49.013 36.2344C42.7337 24.4949 36.4544 21.6282 34.8163 14.3934C33.7243 9.4792 33.1783 5.79354 33.3148 3.33643Z" fill="url(#paint0_linear_1_7861)"/>
<path fill-rule="evenodd" clip-rule="evenodd" d="M33.3148 3.19995C29.0831 4.70152 24.9879 9.06972 21.1657 16.168C15.296 26.952 7.78812 42.2407 18.1626 54.3898C22.9403 59.9865 30.8577 61.7611 35.2259 58.4849C38.0925 56.3008 40.0036 54.2533 41.0956 49.8851C42.3242 44.9708 41.3686 38.555 40.6861 35.4154C39.8671 31.5932 39.594 27.498 39.8671 22.8568C39.8671 22.8568 39.7306 22.8568 39.7306 22.7203C37.4099 19.9902 35.7719 17.5331 34.9528 14.1204C33.7243 9.34273 33.1783 5.65706 33.3148 3.19995Z" fill="url(#paint1_linear_1_7861)"/>
<path fill-rule="evenodd" clip-rule="evenodd" d="M29.7655 5.11108C25.8069 8.25072 22.9402 13.438 21.0292 20.6728C18.1625 31.5933 17.8895 41.6947 18.8451 47.701C20.7561 59.1675 30.9941 63.3992 41.3686 58.0755C47.7844 54.7993 50.5145 47.8375 50.378 40.1932C50.2415 32.2758 34.9528 23.4029 32.3592 16.8506C30.5846 12.3459 29.7655 8.52374 29.7655 5.11108Z" fill="url(#paint2_linear_1_7861)"/>
<path fill-rule="evenodd" clip-rule="evenodd" d="M39.7306 25.5869C44.5083 31.5932 45.4638 35.8249 42.8702 38.1455C38.9115 41.6946 29.0831 44.0152 23.0768 39.7836C18.9816 36.9169 17.4801 30.7741 18.4356 21.3552C16.7975 24.9044 15.296 28.317 14.2039 32.0027C13.1119 35.5519 12.7023 39.374 13.2484 43.1962C14.7499 46.0628 18.1626 48.1104 23.7593 49.066C32.0862 50.5675 40.0036 49.7485 45.3273 47.1549C48.8765 45.3803 50.5145 43.6057 50.378 41.8311C50.5145 39.2375 49.6955 36.7804 47.9209 34.3233C46.2829 31.8662 43.5527 28.9996 39.7306 25.5869Z" fill="url(#paint3_linear_1_7861)"/>
<path fill-rule="evenodd" clip-rule="evenodd" d="M21.3022 19.5807C21.3022 23.9489 22.3943 28.0441 24.7149 32.0027C28.1275 37.8725 32.0862 43.7423 38.0925 48.52C42.0512 51.7961 45.3273 52.7517 47.6479 51.6596C45.7368 55.2088 43.5527 56.8469 41.3686 56.8469C38.0925 56.7104 33.9973 55.3453 27.5815 47.5644C23.2133 42.3772 20.3467 37.463 18.7086 32.8218C18.9816 31.0472 19.2546 29.1361 19.5277 27.3615C19.9372 25.587 20.4832 22.9933 21.3022 19.5807Z" fill="url(#paint4_linear_1_7861)"/>
<path fill-rule="evenodd" clip-rule="evenodd" d="M31.5401 25.5869C31.9496 29.1361 33.3147 34.8693 31.5401 38.555C29.7655 42.3772 21.7117 49.2025 23.8958 55.2088C26.0799 61.215 31.5401 59.85 34.9528 57.1198C38.3654 54.3897 40.14 49.885 40.5495 46.6089C40.959 43.4692 39.594 37.3265 39.1845 32.0027C38.9115 28.4536 39.048 25.4504 39.7305 22.8568L38.6384 21.4917L32.4957 19.7172C31.6766 21.2187 31.2671 23.1298 31.5401 25.5869Z" fill="url(#paint5_linear_1_7861)"/>
<path fill-rule="evenodd" clip-rule="evenodd" d="M33.7243 7.97766C31.6767 8.7967 29.9021 10.4348 28.1276 13.0284C25.3974 16.7141 24.0324 19.0347 25.1244 26.406C25.807 31.3202 26.2165 35.8249 26.626 40.0566L35.2259 15.076C34.9529 13.8474 34.6799 12.6189 34.4068 11.6633C33.9973 10.4348 33.8608 9.34272 33.7243 7.97766Z" fill="url(#paint6_linear_1_7861)"/>
<path fill-rule="evenodd" clip-rule="evenodd" d="M35.0894 14.9395C32.9053 16.168 31.2672 18.8981 30.0387 22.7203C28.8101 26.679 27.7181 32.1392 26.7625 39.2375C28.1276 34.7328 28.9466 31.4567 29.3561 29.4091C30.0387 26.406 30.1752 22.0378 31.9497 19.1711C33.0418 17.2601 34.1338 15.895 35.0894 14.9395Z" fill="#330A4C" fill-opacity="0.3163"/>
<path fill-rule="evenodd" clip-rule="evenodd" d="M24.8514 57.2563C28.4005 57.8024 30.3116 58.2119 30.4481 58.6214C30.7211 59.1674 30.0386 59.7135 27.991 59.4404C26.7625 59.1674 25.6704 58.4849 24.8514 57.2563Z" fill="white"/>
<path fill-rule="evenodd" clip-rule="evenodd" d="M26.7624 7.97766C24.8513 10.2983 23.0768 12.8919 21.5752 15.4855C20.0736 18.0791 19.1181 20.1267 18.4355 21.3553C18.299 22.3108 18.1625 23.8124 18.1625 25.7235C18.1625 27.6345 18.299 29.6821 18.7086 32.0027C18.9816 27.498 19.8006 22.9933 21.3022 18.7616C22.6672 14.53 24.5783 10.8443 26.7624 7.97766Z" fill="#EDEDED" fill-opacity="0.6033"/>
<defs>
<linearGradient id="paint0_linear_1_7861" x1="32.1929" y1="7.55187" x2="30.1886" y2="60.8719" gradientUnits="userSpaceOnUse">
<stop stop-color="#D9D8DC"/>
<stop offset="1" stop-color="white" stop-opacity="0.3853"/>
</linearGradient>
<linearGradient id="paint1_linear_1_7861" x1="31.4638" y1="6.66485" x2="10.5245" y2="52.5573" gradientUnits="userSpaceOnUse">
<stop stop-color="#8D67AF" stop-opacity="0.6719"/>
<stop offset="1" stop-color="#9F8DAF"/>
</linearGradient>
<linearGradient id="paint2_linear_1_7861" x1="34.4086" y1="22.4226" x2="34.4086" y2="59.3377" gradientUnits="userSpaceOnUse">
<stop stop-color="#26053D" stop-opacity="0.7616"/>
<stop offset="1" stop-color="#B7B4B4" stop-opacity="0.2777"/>
</linearGradient>
<linearGradient id="paint3_linear_1_7861" x1="20.6302" y1="23.4796" x2="30.028" y2="48.3726" gradientUnits="userSpaceOnUse">
<stop stop-color="#91739F" stop-opacity="0.4595"/>
<stop offset="1" stop-color="#32054F" stop-opacity="0.5399"/>
</linearGradient>
<linearGradient id="paint4_linear_1_7861" x1="41.8714" y1="55.5726" x2="16.0319" y2="34.171" gradientUnits="userSpaceOnUse">
<stop stop-color="#463D49" stop-opacity="0.3312"/>
<stop offset="1" stop-color="#340A50" stop-opacity="0.8214"/>
</linearGradient>
<linearGradient id="paint5_linear_1_7861" x1="35.4768" y1="22.0087" x2="17.2535" y2="49.7369" gradientUnits="userSpaceOnUse">
<stop stop-color="#715383" stop-opacity="0.1452"/>
<stop offset="1" stop-color="#F4F4F4" stop-opacity="0.2336"/>
</linearGradient>
<linearGradient id="paint6_linear_1_7861" x1="38.5027" y1="28.8635" x2="25.5975" y2="28.0758" gradientUnits="userSpaceOnUse">
<stop stop-color="#A5A1A8" stop-opacity="0.3561"/>
<stop offset="1" stop-color="#370C50" stop-opacity="0.582"/>
</linearGradient>
</defs>
</svg>
