<svg width="64" height="65" viewBox="0 0 64 65" fill="none" xmlns="http://www.w3.org/2000/svg">
<g clip-path="url(#clip0_112_28571)">
<path d="M32 0.193115C28.6497 0.193115 20.9669 0.793094 19.1666 2.8598C23.1902 7.27488 19.1666 2.8598 23.1902 7.27488L30.5404 14.6251C31.4046 14.3317 32.3336 14.2859 33.2225 14.4929C34.1113 14.6999 34.9245 15.1515 35.57 15.7966C36.2191 16.4464 36.6723 17.2658 36.8776 18.161C37.0829 19.0562 37.0321 19.9912 36.7311 20.8589L43.8177 27.9434C44.6856 27.642 45.6209 27.5912 46.5164 27.7969C47.4119 28.0026 48.2313 28.4565 48.8806 29.1065C49.3355 29.5613 49.6963 30.1012 49.9425 30.6955C50.1886 31.2897 50.3154 31.9266 50.3154 32.5698C50.3154 33.2131 50.1886 33.85 49.9425 34.4442C49.6963 35.0384 49.3355 35.5784 48.8806 36.0331C47.961 36.9518 46.7144 37.4678 45.4145 37.4678C44.1147 37.4678 42.868 36.9518 41.9484 36.0331C41.2653 35.3489 40.7999 34.4778 40.6107 33.5296C40.4216 32.5814 40.5172 31.5984 40.8855 30.7045L34.2768 24.0978V41.4871C34.9743 41.8316 35.5797 42.3374 36.0429 42.9626C36.506 43.5877 36.8136 44.3142 36.94 45.0818C37.0665 45.8495 37.0083 46.6362 36.7701 47.3769C36.532 48.1176 36.1208 48.7909 35.5707 49.341C35.1159 49.7958 34.576 50.1567 33.9818 50.4028C33.3875 50.649 32.7506 50.7757 32.1074 50.7757C31.4642 50.7757 30.8273 50.649 30.233 50.4028C29.6388 50.1567 29.0989 49.7958 28.6441 49.341C28.1891 48.8862 27.8282 48.3462 27.582 47.7519C27.3357 47.1576 27.209 46.5206 27.209 45.8773C27.209 45.234 27.3357 44.597 27.582 44.0027C27.8282 43.4084 28.1891 42.8685 28.6441 42.4137C29.1024 41.9544 29.6471 41.5906 30.2469 41.3431V23.7938C29.6496 23.5478 29.1068 23.1862 28.6497 22.7298C28.1926 22.2734 27.8302 21.7312 27.5832 21.1343C27.3363 20.5374 27.2097 19.8976 27.2108 19.2516C27.2119 18.6056 27.3406 17.9663 27.5895 17.3702L20.3422 10.1215C15.1666 4.8598 19.8422 9.62149 14.6666 4.3598C7.2676 8.05931 -0.000976562 6.8598 -0.000976562 32.1671C-0.000976562 53.8598 17.1666 64.1937 32 64.1937C49.6666 64.1937 64 50.2359 64 32.2978C64 14.3598 50.3154 0.193115 32 0.193115Z" fill="#F03C2E"/>
</g>
<defs>
<clipPath id="clip0_112_28571">
<rect y="0.193115" width="64" height="64" rx="32" fill="white"/>
</clipPath>
</defs>
</svg>
