<?xml version="1.0" encoding="UTF-8" standalone="no"?>
<svg
   width="62.92556"
   height="61.264336"
   viewBox="0 0 62.92556 61.264336"
   fill="none"
   version="1.1"
   id="svg7"
   xml:space="preserve"
   xmlns="http://www.w3.org/2000/svg"
   xmlns:svg="http://www.w3.org/2000/svg"><g
     clip-path="url(#clip0_169_1860)"
     id="g4"
     transform="matrix(0.96808551,0,0,0.96808551,-25.170223,-19.361711)"><mask
       id="mask0_169_1860"
       maskUnits="userSpaceOnUse"
       x="26"
       y="20"
       width="65"
       height="64"><path
         d="M 91,20 H 26 v 64 h 65 z"
         fill="#ffffff"
         id="path2" /></mask><g
       mask="url(#mask0_169_1860)"
       id="g3"><path
         d="m 53.4854,66.2565 c -8.379,-1.0208 -14.2823,-7.082 -14.2823,-14.9297 0,-3.1901 1.1426,-6.6354 3.0469,-8.9323 -0.8252,-2.1054 -0.6982,-6.5716 0.2539,-8.4218 2.539,-0.319 5.9668,1.0208 7.998,2.871 2.4121,-0.7656 4.9512,-1.1484 8.0616,-1.1484 3.1104,0 5.6494,0.3828 7.9346,1.0846 1.9677,-1.7864 5.459,-3.1262 7.998,-2.8072 0.8886,1.7226 1.0156,6.1888 0.1904,8.358 2.0313,2.4245 3.1103,5.6784 3.1103,8.9961 0,7.8477 -5.9032,13.7813 -14.4091,14.8659 2.1582,1.4036 3.6181,4.4662 3.6181,7.9753 v 6.6354 c 0,1.9141 1.587,2.9987 3.4913,2.2331 C 81.9864,78.6341 91,67.0859 91,52.7943 91,34.7383 76.4004,20 58.4365,20 40.4726,20 26,34.7383 26,52.7943 c 0,14.164 8.9502,25.9036 21.0107,30.306 1.7139,0.638 3.3643,-0.5104 3.3643,-2.2331 V 75.763 c -0.8886,0.3829 -2.0312,0.6381 -3.0469,0.6381 -4.1895,0 -6.665,-2.2969 -8.4424,-6.5717 -0.6982,-1.7226 -1.4599,-2.7435 -2.9199,-2.9349 -0.7617,-0.0638 -1.0156,-0.3828 -1.0156,-0.7656 0,-0.7656 1.2695,-1.3398 2.5391,-1.3398 1.8408,0 3.4277,1.1484 5.0781,3.5091 1.2695,1.8503 2.6025,2.6797 4.1894,2.6797 1.587,0 2.6025,-0.5742 4.0625,-2.0417 1.0792,-1.0847 1.9043,-2.0417 2.6661,-2.6797 z"
         fill="#000000"
         id="path3" /></g></g><g
     clip-path="url(#clip1_169_1860)"
     id="g6"
     transform="matrix(0.96808551,0,0,0.96808551,-114.23409,-19.361711)"
     style="display:none"><mask
       id="mask1_169_1860"
       maskUnits="userSpaceOnUse"
       x="118"
       y="20"
       width="65"
       height="64"><path
         d="m 183,20 h -65 v 64 h 65 z"
         fill="#ffffff"
         id="path4" /></mask><g
       mask="url(#mask1_169_1860)"
       id="g5"><path
         d="m 145.485,66.2565 c -8.379,-1.0208 -14.282,-7.082 -14.282,-14.9297 0,-3.1901 1.143,-6.6354 3.047,-8.9323 -0.825,-2.1054 -0.698,-6.5716 0.254,-8.4218 2.539,-0.319 5.967,1.0208 7.998,2.871 2.412,-0.7656 4.951,-1.1484 8.061,-1.1484 3.111,0 5.65,0.3828 7.935,1.0846 1.968,-1.7864 5.459,-3.1262 7.998,-2.8072 0.889,1.7226 1.016,6.1888 0.191,8.358 2.031,2.4245 3.11,5.6784 3.11,8.9961 0,7.8477 -5.903,13.7813 -14.409,14.8659 2.158,1.4036 3.618,4.4662 3.618,7.9753 v 6.6354 c 0,1.9141 1.587,2.9987 3.491,2.2331 C 173.986,78.6341 183,67.0859 183,52.7943 183,34.7383 168.4,20 150.437,20 132.473,20 118,34.7383 118,52.7943 c 0,14.164 8.95,25.9036 21.011,30.306 1.714,0.638 3.364,-0.5104 3.364,-2.2331 V 75.763 c -0.889,0.3829 -2.031,0.6381 -3.047,0.6381 -4.189,0 -6.665,-2.2969 -8.442,-6.5717 -0.698,-1.7226 -1.46,-2.7435 -2.92,-2.9349 -0.762,-0.0638 -1.016,-0.3828 -1.016,-0.7656 0,-0.7656 1.27,-1.3398 2.539,-1.3398 1.841,0 3.428,1.1484 5.078,3.5091 1.27,1.8503 2.603,2.6797 4.19,2.6797 1.587,0 2.602,-0.5742 4.062,-2.0417 1.079,-1.0847 1.905,-2.0417 2.666,-2.6797 z"
         fill="#ffffff"
         id="path5" /></g></g><defs
     id="defs7"><clipPath
       id="clip0_169_1860"><rect
         width="65"
         height="64"
         fill="#ffffff"
         transform="translate(26,20)"
         id="rect6"
         x="0"
         y="0" /></clipPath><clipPath
       id="clip1_169_1860"><rect
         width="65"
         height="64"
         fill="#ffffff"
         transform="translate(118,20)"
         id="rect7"
         x="0"
         y="0" /></clipPath></defs></svg>
