<svg width="25" height="24" viewBox="0 0 25 24" fill="none" xmlns="http://www.w3.org/2000/svg">
<g clip-path="url(#clip0_5259_16591)">
<path d="M5.57963 21.3004L0.780206 12.9872C0.59568 12.6676 0.498535 12.305 0.498535 11.936C0.498535 11.5669 0.59568 11.2044 0.780206 10.8848L5.57963 2.57181C5.76418 2.25215 6.02963 1.98671 6.34929 1.80217C6.66895 1.61763 7.03156 1.52049 7.40067 1.52051H16.9995C17.3686 1.52052 17.7312 1.61768 18.0508 1.80222C18.3704 1.98676 18.6358 2.25218 18.8204 2.57181L23.6198 10.8848C23.8044 11.2044 23.9015 11.567 23.9015 11.9361C23.9015 12.3052 23.8044 12.6678 23.6198 12.9874L18.8204 21.3004C18.6358 21.6199 18.3704 21.8853 18.0508 22.0698C17.7311 22.2543 17.3686 22.3515 16.9995 22.3515H7.40067C7.03156 22.3515 6.66894 22.2544 6.34928 22.0698C6.02962 21.8853 5.76417 21.62 5.57963 21.3004Z" fill="url(#paint0_linear_5259_16591)"/>
<path opacity="0.07" d="M22.298 16.0463L15.2399 8.98775L12.2002 8.17432L9.46994 9.18905L8.41553 11.9362L9.26333 14.9948L16.7482 22.4797L18.3365 22.4091L22.298 16.0463Z" fill="black"/>
<path d="M12.2003 7.69507C9.85822 7.69507 7.95947 9.59381 7.95947 11.9361C7.95947 14.2782 9.85822 16.177 12.2003 16.177C14.5425 16.177 16.441 14.2782 16.441 11.9361C16.441 9.59381 14.5423 7.69507 12.2003 7.69507ZM12.2003 15.1538C10.4232 15.1538 8.98244 13.7131 8.98244 11.9359C8.98244 10.1588 10.4232 8.71821 12.2003 8.71821C13.9775 8.71821 15.4182 10.159 15.4182 11.9361C15.4182 13.7133 13.9775 15.1538 12.2003 15.1538Z" fill="white"/>
<path d="M10.187 11.7724V13.0906C10.3821 13.4255 10.6572 13.7066 10.9878 13.9088V11.7724H10.187ZM11.7749 10.6611V14.2101C11.9111 14.2352 12.0505 14.2504 12.1936 14.2504C12.3242 14.2504 12.4514 14.2367 12.5763 14.2158V10.6611H11.7749ZM13.4371 12.3202V13.8856C13.7729 13.672 14.0487 13.3763 14.2383 13.0263V12.3204L13.4371 12.3202ZM15.2517 14.5484L14.8124 14.9881C14.7752 15.0254 14.7543 15.0759 14.7543 15.1286C14.7543 15.1813 14.7752 15.2318 14.8124 15.2691L16.4789 16.9351C16.5162 16.9723 16.5667 16.9932 16.6194 16.9932C16.6721 16.9932 16.7226 16.9723 16.7599 16.9351L17.1993 16.496C17.2363 16.4586 17.257 16.4081 17.257 16.3555C17.257 16.303 17.2363 16.2525 17.1993 16.2151L15.5326 14.5484C15.4952 14.5113 15.4448 14.4905 15.3921 14.4905C15.3395 14.4905 15.2891 14.5113 15.2517 14.5484Z" fill="white"/>
</g>
<defs>
<linearGradient id="paint0_linear_5259_16591" x1="12.2001" y1="1.52069" x2="12.2001" y2="22.3191" gradientUnits="userSpaceOnUse">
<stop stop-color="#4387FD"/>
<stop offset="1" stop-color="#4683EA"/>
</linearGradient>
<clipPath id="clip0_5259_16591">
<rect width="24" height="24" fill="white" transform="translate(0.200195)"/>
</clipPath>
</defs>
</svg>
