<svg width="64" height="65" viewBox="0 0 64 65" fill="none" xmlns="http://www.w3.org/2000/svg">
<rect y="0.193115" width="64" height="64" rx="32" fill="white"/>
<path d="M39.5921 21.8877L43.5907 17.8891L43.8572 16.2054C36.5707 9.5798 24.9878 10.3311 18.4194 17.773C16.5948 19.84 15.2412 22.4169 14.5194 25.0779L15.9515 24.8761L23.9485 23.5574L24.5659 22.9259C28.1232 19.0192 34.1379 18.4936 38.2452 21.8176L39.5921 21.8877Z" fill="#EA4335"/>
<path d="M49.2868 24.9603C48.3677 21.5757 46.4808 18.5331 43.8572 16.2056L38.2452 21.8176C40.6149 23.7539 41.9649 26.6709 41.9071 29.7305V30.7267C44.6655 30.7267 46.9019 32.9629 46.9019 35.7213C46.9019 38.4798 44.6655 40.66 41.9071 40.66H31.9037L30.9215 41.7262V47.717L31.9037 48.657H41.9071C49.082 48.7129 54.9438 42.9979 54.9997 35.823C55.0334 31.474 52.8892 27.3969 49.2868 24.9603Z" fill="#4285F4"/>
<path d="M21.9142 48.6571H31.9036V40.6599H21.9142C21.2025 40.6597 20.5132 40.5068 19.866 40.2111L18.4488 40.6459L14.4222 44.6445L14.0714 46.0054C16.3295 47.7105 19.0847 48.6693 21.9142 48.6571Z" fill="#34A853"/>
<path d="M21.9142 22.7155C14.7391 22.7583 8.9575 28.6097 9.00027 35.7846C9.02416 39.7913 10.8954 43.5629 14.0714 46.0054L19.866 40.211C17.352 39.0752 16.2349 36.1166 17.3707 33.6028C18.5063 31.089 21.465 29.9719 23.9787 31.1075C25.0864 31.6079 25.9736 32.4952 26.474 33.6028L32.2686 27.8084C29.8031 24.5854 25.9721 22.701 21.9142 22.7155Z" fill="#FBBC05"/>
</svg>
