<svg width="64" height="65" viewBox="0 0 64 65" fill="none" xmlns="http://www.w3.org/2000/svg">
<path d="M42.5629 20.6477L48.1262 15.0845L48.4969 12.742C38.3592 3.52375 22.2439 4.569 13.1052 14.923C10.5667 17.7987 8.68345 21.384 7.6792 25.0863L9.6717 24.8055L20.798 22.9708L21.6569 22.0922C26.6062 16.6567 34.9744 15.9255 40.6889 20.5502L42.5629 20.6477Z" fill="#EA4335"/>
<path d="M56.0512 24.9227C54.7725 20.2137 52.1472 15.9804 48.497 12.7422L40.689 20.5502C43.986 23.2442 45.8642 27.3027 45.7837 31.5594V32.9454C49.6215 32.9454 52.733 36.0567 52.733 39.8944C52.733 43.7324 49.6215 46.7657 45.7837 46.7657H31.866L30.4995 48.2492V56.5842L31.866 57.8919H45.7837C55.7662 57.9697 63.9217 50.0184 63.9995 40.0359C64.0465 33.9852 61.0632 28.3127 56.0512 24.9227Z" fill="#4285F4"/>
<path d="M17.9676 57.892H31.8659V46.7655H17.9676C16.9774 46.7652 16.0184 46.5525 15.1179 46.141L13.1461 46.746L7.54388 52.3092L7.05588 54.2027C10.1976 56.575 14.0309 57.909 17.9676 57.892Z" fill="#34A853"/>
<path d="M17.9676 21.7994C7.98489 21.8589 -0.059111 29.9999 0.000389 39.9824C0.033639 45.5569 2.63714 50.8044 7.05589 54.2027L15.1179 46.1409C11.6201 44.5607 10.0659 40.4444 11.6461 36.9469C13.2261 33.4494 17.3426 31.8952 20.8399 33.4752C22.3811 34.1714 23.6154 35.4059 24.3116 36.9469L32.3736 28.8852C28.9434 24.4009 23.6134 21.7792 17.9676 21.7994Z" fill="#FBBC05"/>
</svg>
