<svg width="64" height="65" viewBox="0 0 64 65" fill="none" xmlns="http://www.w3.org/2000/svg">
<g clip-path="url(#clip0_65_2676)">
<rect y="0.193115" width="64" height="64" rx="32" fill="#0F1689"/>
<path fill-rule="evenodd" clip-rule="evenodd" d="M9.74997 26.9292H12.5569V30.7188H15.948V26.9292H18.7549V37.5741H15.948V33.5149H12.5569V37.5741H9.74997V26.9292ZM21.975 37.5741V26.9292H28.6147V29.2427H24.7819V30.9743H28.173V33.3303H24.7819V35.289H28.6147V37.5741H21.975ZM31.6923 37.5741V26.9292H34.4992V34.7639H38.3463V37.5741H31.6923ZM42.692 26.9292L47.052 30.8749L51.3977 26.9292H52.6658V37.5741H49.8447V32.1097L47.052 34.6503L44.2451 32.1239V37.5741H41.4239V26.9292H42.692Z" fill="white"/>
<mask id="mask0_65_2676" style="mask-type:luminance" maskUnits="userSpaceOnUse" x="9" y="41" width="46" height="24">
<path fill-rule="evenodd" clip-rule="evenodd" d="M9.78961 64.5577H54.2363V41.9432H9.78961V64.5577Z" fill="white"/>
</mask>
<g mask="url(#mask0_65_2676)">
<path fill-rule="evenodd" clip-rule="evenodd" d="M41.5179 44.2757C42.324 43.7129 44.1824 44.9727 45.6689 47.0896C47.1554 49.2064 47.707 51.3787 46.9009 51.9415C46.0949 52.5043 44.2364 51.2445 42.7499 49.1276C41.2634 47.0108 40.7119 44.8385 41.5179 44.2757Z" fill="white"/>
<path fill-rule="evenodd" clip-rule="evenodd" d="M22.3131 44.2757C21.5071 43.7129 19.6486 44.9727 18.1621 47.0896C16.6756 49.2064 16.1241 51.3787 16.9301 51.9415C17.7362 52.5043 19.5946 51.2445 21.0811 49.1276C22.5676 47.0108 23.1192 44.8385 22.3131 44.2757Z" fill="white"/>
<path fill-rule="evenodd" clip-rule="evenodd" d="M31.9058 47.5901C30.9218 47.5901 30.1241 49.685 30.1241 52.2692C30.1241 54.8534 30.9218 56.9484 31.9058 56.9484C32.8898 56.9484 33.6875 54.8534 33.6875 52.2692C33.6875 49.685 32.8898 47.5901 31.9058 47.5901Z" fill="white"/>
</g>
<mask id="mask1_65_2676" style="mask-type:luminance" maskUnits="userSpaceOnUse" x="9" y="41" width="46" height="24">
<path fill-rule="evenodd" clip-rule="evenodd" d="M9.78961 64.5577H54.2363V41.9432H9.78961V64.5577Z" fill="white"/>
</mask>
<g mask="url(#mask1_65_2676)">
<path d="M45.464 40.0709C42.594 44.8254 37.3933 48.0023 31.454 48.0023C25.6771 48.0023 20.5991 44.9969 17.6848 40.4576M17.9966 22.1852C20.9531 17.9084 25.878 15.1084 31.454 15.1084C37.0401 15.1084 41.9728 17.9186 44.9275 22.2085" stroke="white" stroke-width="2.8373"/>
</g>
<mask id="mask2_65_2676" style="mask-type:luminance" maskUnits="userSpaceOnUse" x="9" y="0" width="46" height="23">
<path fill-rule="evenodd" clip-rule="evenodd" d="M9.78961 0.193115H54.2363V22.8077H9.78961V0.193115Z" fill="white"/>
</mask>
<g mask="url(#mask2_65_2676)">
<path fill-rule="evenodd" clip-rule="evenodd" d="M41.5179 20.1273C42.324 20.6901 44.1824 19.4303 45.6689 17.3134C47.1554 15.1965 47.707 13.0242 46.9009 12.4614C46.0949 11.8986 44.2364 13.1584 42.7499 15.2753C41.2634 17.3922 40.7119 19.5645 41.5179 20.1273Z" fill="white"/>
<path fill-rule="evenodd" clip-rule="evenodd" d="M22.3131 20.1273C21.5071 20.6901 19.6486 19.4303 18.1621 17.3134C16.6756 15.1965 16.1241 13.0242 16.9301 12.4614C17.7362 11.8986 19.5946 13.1584 21.0811 15.2753C22.5676 17.3922 23.1192 19.5645 22.3131 20.1273Z" fill="white"/>
<path fill-rule="evenodd" clip-rule="evenodd" d="M31.9058 16.8127C30.9218 16.8127 30.1241 14.7178 30.1241 12.1336C30.1241 9.54939 30.9218 7.45447 31.9058 7.45447C32.8898 7.45447 33.6875 9.54939 33.6875 12.1336C33.6875 14.7178 32.8898 16.8127 31.9058 16.8127Z" fill="white"/>
</g>
<mask id="mask3_65_2676" style="mask-type:luminance" maskUnits="userSpaceOnUse" x="9" y="0" width="46" height="23">
<path fill-rule="evenodd" clip-rule="evenodd" d="M9.78961 0.193115H54.2363V22.8077H9.78961V0.193115Z" fill="white"/>
</mask>
<g mask="url(#mask3_65_2676)">
<path d="M45.464 24.332C42.594 19.5775 37.3933 16.4006 31.454 16.4006C25.6771 16.4006 20.5991 19.4061 17.6848 23.9454M17.9966 42.2178C20.9531 46.4945 25.878 49.2946 31.454 49.2946C37.0401 49.2946 41.9728 46.4843 44.9275 42.1945" stroke="white" stroke-width="2.8373"/>
</g>
</g>
<defs>
<clipPath id="clip0_65_2676">
<rect y="0.193115" width="64" height="64" rx="32" fill="white"/>
</clipPath>
</defs>
</svg>
