<svg width="64" height="65" viewBox="0 0 64 65" fill="none" xmlns="http://www.w3.org/2000/svg">
<g clip-path="url(#clip0_59_2736)">
<path fill-rule="evenodd" clip-rule="evenodd" d="M4.32971 25.3555H7.94769V30.2401H12.3187V25.3555H15.9366V39.0763H12.3187V33.8441H7.94769V39.0763H4.32971V25.3555ZM20.0872 39.0763V25.3555H28.6455V28.3375H23.7052V30.5694H28.0762V33.6062H23.7052V36.1309H28.6455V39.0763H20.0872ZM32.6124 39.0763V25.3555H36.2304V35.454H41.189V39.0763H32.6124ZM46.7905 25.3555L52.4103 30.4413L58.0117 25.3555H59.6463V39.0763H56.0099V32.0329L52.4103 35.3076L48.7923 32.0512V39.0763H45.156V25.3555H46.7905Z" fill="#0F1689"/>
<mask id="mask0_59_2736" style="mask-type:luminance" maskUnits="userSpaceOnUse" x="4" y="44" width="58" height="30">
<path fill-rule="evenodd" clip-rule="evenodd" d="M4.38083 73.8569H61.6705V44.7078H4.38083V73.8569Z" fill="white"/>
</mask>
<g mask="url(#mask0_59_2736)">
<path fill-rule="evenodd" clip-rule="evenodd" d="M45.2771 47.7143C46.3161 46.9888 48.7116 48.6127 50.6276 51.3412C52.5436 54.0698 53.2546 56.8698 52.2156 57.5952C51.1766 58.3206 48.7812 56.6968 46.8651 53.9682C44.9491 51.2397 44.2382 48.4397 45.2771 47.7143Z" fill="#0F1689"/>
<path fill-rule="evenodd" clip-rule="evenodd" d="M20.5231 47.7143C19.4841 46.9888 17.0886 48.6127 15.1726 51.3412C13.2566 54.0698 12.5456 56.8698 13.5846 57.5952C14.6236 58.3206 17.0191 56.6968 18.9351 53.9682C20.8511 51.2397 21.5621 48.4397 20.5231 47.7143Z" fill="#0F1689"/>
<path fill-rule="evenodd" clip-rule="evenodd" d="M32.8876 51.9864C31.6192 51.9864 30.591 54.6867 30.591 58.0176C30.591 61.3486 31.6192 64.0488 32.8876 64.0488C34.1559 64.0488 35.1841 61.3486 35.1841 58.0176C35.1841 54.6867 34.1559 51.9864 32.8876 51.9864Z" fill="#0F1689"/>
</g>
<mask id="mask1_59_2736" style="mask-type:luminance" maskUnits="userSpaceOnUse" x="4" y="44" width="58" height="30">
<path fill-rule="evenodd" clip-rule="evenodd" d="M4.38083 73.8569H61.6705V44.7078H4.38083V73.8569Z" fill="white"/>
</mask>
<g mask="url(#mask1_59_2736)">
<path d="M50.3634 42.2946C46.6642 48.4229 39.9608 52.5178 32.3052 52.5178C24.8591 52.5178 18.3137 48.6439 14.5573 42.793M14.9593 19.2407C18.7701 13.7282 25.1181 10.1191 32.3052 10.1191C39.5054 10.1191 45.8634 13.7413 49.6719 19.2708" stroke="#0F1689" stroke-width="3.65714"/>
</g>
<mask id="mask2_59_2736" style="mask-type:luminance" maskUnits="userSpaceOnUse" x="4" y="-10" width="58" height="31">
<path fill-rule="evenodd" clip-rule="evenodd" d="M4.38083 -9.10608H61.6705V20.0431H4.38083V-9.10608Z" fill="white"/>
</mask>
<g mask="url(#mask2_59_2736)">
<path fill-rule="evenodd" clip-rule="evenodd" d="M45.2771 16.5881C46.3161 17.3135 48.7116 15.6897 50.6276 12.9611C52.5436 10.2326 53.2546 7.4326 52.2156 6.70717C51.1766 5.98175 48.7812 7.6056 46.8651 10.3341C44.9491 13.0627 44.2382 15.8627 45.2771 16.5881Z" fill="#0F1689"/>
<path fill-rule="evenodd" clip-rule="evenodd" d="M20.5231 16.5881C19.4841 17.3135 17.0886 15.6897 15.1726 12.9611C13.2566 10.2326 12.5456 7.4326 13.5846 6.70718C14.6236 5.98175 17.0191 7.6056 18.9351 10.3341C20.8511 13.0627 21.5621 15.8627 20.5231 16.5881Z" fill="#0F1689"/>
<path fill-rule="evenodd" clip-rule="evenodd" d="M32.8876 12.3159C31.6192 12.3159 30.591 9.61567 30.591 6.28473C30.591 2.9538 31.6192 0.25354 32.8876 0.25354C34.1559 0.25354 35.1841 2.9538 35.1841 6.28473C35.1841 9.61567 34.1559 12.3159 32.8876 12.3159Z" fill="#0F1689"/>
</g>
<mask id="mask3_59_2736" style="mask-type:luminance" maskUnits="userSpaceOnUse" x="4" y="-10" width="58" height="31">
<path fill-rule="evenodd" clip-rule="evenodd" d="M4.38083 -9.10608H61.6705V20.0431H4.38083V-9.10608Z" fill="white"/>
</mask>
<g mask="url(#mask3_59_2736)">
<path d="M50.3634 22.0079C46.6642 15.8796 39.9608 11.7847 32.3052 11.7847C24.8591 11.7847 18.3137 15.6586 14.5573 21.5095M14.9593 45.0618C18.7701 50.5743 25.1181 54.1834 32.3052 54.1834C39.5054 54.1834 45.8634 50.5612 49.6719 45.0317" stroke="#0F1689" stroke-width="3.65714"/>
</g>
</g>
<defs>
<clipPath id="clip0_59_2736">
<rect width="64" height="64" fill="white" transform="translate(0 0.193115)"/>
</clipPath>
</defs>
</svg>
