<svg width="64" height="65" viewBox="0 0 64 65" fill="none" xmlns="http://www.w3.org/2000/svg">
<rect y="0.193115" width="64" height="64" rx="32" fill="black"/>
<path d="M54.9167 32.1931C54.9167 44.8497 44.6565 55.1098 32 55.1098M54.9167 32.1931C54.9167 19.5366 44.6565 9.27646 32 9.27646M54.9167 32.1931H9.08334M32 55.1098C19.3435 55.1098 9.08334 44.8497 9.08334 32.1931M32 55.1098C26.1155 48.9311 22.8333 40.7256 22.8333 32.1931C22.8333 23.6607 26.1155 15.4551 32 9.27646M32 55.1098C37.8845 48.9311 41.1667 40.7256 41.1667 32.1931C41.1667 23.6607 37.8845 15.4551 32 9.27646M9.08334 32.1931C9.08334 19.5366 19.3435 9.27646 32 9.27646" stroke="white" stroke-width="4.58333" stroke-linecap="round" stroke-linejoin="round"/>
</svg>
