<svg width="64" height="64" viewBox="0 0 64 64" fill="none" xmlns="http://www.w3.org/2000/svg">
<rect width="64" height="64" rx="32" fill="white"/>
<path d="M17.4688 27.2005C22.9782 27.2005 28.1857 28.5823 32.714 30.9096L48.865 12.2188H16.865V49.3096V27.2005H17.4688Z" fill="#E9478B"/>
<path d="M32.714 30.9097L16.865 49.3097V52.2188H48.7895C46.9782 43.0552 40.9405 35.2734 32.714 30.9097Z" fill="#3EBEB0"/>
<path d="M32.714 30.9097L16.865 49.3097V52.2188H22.5254L37.9216 34.3279C37.9216 34.3279 36.865 33.5279 35.431 32.5097C34.3744 31.7825 32.714 30.9097 32.714 30.9097Z" fill="#37A595"/>
<path d="M17.4688 27.2004H16.865V49.3095L32.714 30.9095C28.1857 28.5823 22.9782 27.2004 17.4688 27.2004Z" fill="#353535"/>
</svg>
