<svg width="64" height="64" viewBox="0 0 64 64" fill="none" xmlns="http://www.w3.org/2000/svg">
<path d="M15.6438 26.48C21.1532 26.48 26.3608 28 30.8891 30.56L47.04 10H15.04V50.8V26.48H15.6438Z" fill="#E9478B"/>
<path d="M30.8891 30.5601L15.04 50.8001V54.0001H46.9646C45.1532 43.9201 39.1155 35.3601 30.8891 30.5601Z" fill="#3EBEB0"/>
<path d="M30.8891 30.5601L15.04 50.8001V54.0001H20.7004L36.0966 34.3201C36.0966 34.3201 35.04 33.4401 33.6061 32.3201C32.5495 31.5201 30.8891 30.5601 30.8891 30.5601Z" fill="#37A595"/>
<path d="M15.6438 26.48H15.04V50.8L30.8891 30.56C26.3608 28 21.1532 26.48 15.6438 26.48Z" fill="#353535"/>
</svg>
