<svg width="64" height="65" viewBox="0 0 64 65" fill="none" xmlns="http://www.w3.org/2000/svg">
<g clip-path="url(#clip0_1_7863)">
<path d="M31.7886 1.89104C31.253 1.92141 30.7284 2.06055 30.2451 2.30045L9.1684 12.679C8.62312 12.9446 8.14325 13.3339 7.76482 13.8178C7.38636 14.3017 7.11919 14.8677 6.98325 15.4732L1.78659 38.7767C1.66686 39.3143 1.65371 39.8711 1.74792 40.4139C1.84214 40.9566 2.04178 41.474 2.33486 41.9355C2.40638 42.0481 2.48186 42.1585 2.5633 42.2628L17.1521 60.9547C17.5314 61.4391 18.0114 61.8299 18.5566 62.098C19.1019 62.3662 19.6985 62.5051 20.3027 62.5041H43.6976C44.3018 62.5051 44.8979 62.3665 45.4432 62.0987C45.9885 61.8308 46.4685 61.4407 46.8483 60.9566L61.4311 42.2628C61.808 41.7812 62.0739 41.218 62.2093 40.6155C62.3443 40.0126 62.3453 39.386 62.2119 38.7828L57.0032 15.4609C56.8669 14.8555 56.5997 14.2897 56.2215 13.8058C55.8429 13.3219 55.3632 12.9325 54.8179 12.6667L33.7434 2.29431C33.1341 1.99509 32.4624 1.85651 31.7886 1.89104Z" fill="#326CE5"/>
<path d="M31.7767 0.198219C31.2123 0.228761 30.6593 0.374168 30.1497 0.626053L7.90099 11.5778C7.32602 11.859 6.82003 12.2704 6.42074 12.7811C6.02141 13.2918 5.73904 13.8888 5.59466 14.5276L0.107967 39.1432C-0.0195758 39.7106 -0.0342842 40.2984 0.0647276 40.8715C0.163739 41.4446 0.374422 41.9912 0.684051 42.4779C0.759539 42.5966 0.840989 42.7115 0.926409 42.8219L16.3257 62.5554C16.7261 63.0677 17.2329 63.4805 17.8088 63.764C18.3847 64.0475 19.0149 64.1941 19.6531 64.1931H44.3491C44.9872 64.1938 45.6173 64.0469 46.1933 63.7634C46.769 63.4798 47.2758 63.0674 47.6765 62.5554L63.0701 42.82C63.4694 42.3102 63.751 41.7138 63.8934 41.0754C64.0358 40.437 64.0355 39.7733 63.8925 39.1352L58.3958 14.5276C58.2522 13.8893 57.9702 13.2928 57.5718 12.7824C57.1731 12.2719 56.6678 11.8609 56.0934 11.5798L33.8426 0.628101C33.199 0.310692 32.4893 0.162975 31.7767 0.198219ZM31.7886 1.88704C32.463 1.85337 33.135 1.99411 33.7434 2.29644L54.8221 12.6668C55.3667 12.9337 55.8461 13.3237 56.2243 13.8078C56.6029 14.2919 56.8704 14.8577 57.007 15.4631L62.2138 38.773C62.3475 39.3758 62.3469 40.0021 62.2122 40.605C62.0771 41.2075 61.8115 41.771 61.4352 42.253L46.8522 60.9464C46.4726 61.4309 45.9926 61.8213 45.4474 62.0891C44.9024 62.357 44.3056 62.4952 43.7018 62.4939H20.3067C19.7026 62.4946 19.106 62.3557 18.5609 62.0875C18.0157 61.8194 17.5357 61.4286 17.1561 60.9445L2.56328 42.2651C2.48183 42.1595 2.40495 42.0501 2.33285 41.9374C2.0401 41.476 1.84081 40.9586 1.74694 40.4158C1.65307 39.8731 1.66654 39.3163 1.78656 38.779L6.9872 15.4672C7.12365 14.8619 7.39107 14.2962 7.76944 13.8123C8.14781 13.3285 8.62739 12.939 9.17235 12.673L30.2491 2.29644C30.7311 2.0578 31.2545 1.92071 31.7886 1.89318V1.88704Z" fill="white"/>
<path d="M31.9991 9.81934C31.6465 9.83946 31.316 10.0025 31.0797 10.2729C30.8433 10.5433 30.7204 10.899 30.7377 11.2625V11.633C30.7736 12.0454 30.8313 12.4554 30.9105 12.8613C31.0308 13.6408 31.078 14.4306 31.0516 15.2195C30.9786 15.4787 30.8361 15.7115 30.6404 15.8909L30.6106 16.4415C26.5931 16.7797 22.8405 18.6428 20.0802 21.6697C19.927 21.5607 19.7754 21.4495 19.6253 21.336C19.375 21.4125 19.1056 21.3853 18.8744 21.2603C18.2589 20.7912 17.6894 20.2613 17.1739 19.6779C16.9146 19.3585 16.6374 19.055 16.3436 18.769C16.2661 18.7015 16.1449 18.6094 16.0635 18.5377C15.8138 18.3302 15.5059 18.2111 15.1855 18.1979C14.9949 18.187 14.8045 18.2227 14.6298 18.3021C14.4551 18.3814 14.3011 18.5021 14.1803 18.6544C13.9752 18.9513 13.8927 19.3199 13.9508 19.6794C14.0089 20.0389 14.2028 20.36 14.4902 20.5725L14.5081 20.5868C14.5915 20.6544 14.6928 20.7445 14.7703 20.8018C15.1064 21.0326 15.4553 21.2432 15.8152 21.4323C16.4823 21.8214 17.1111 22.2766 17.6924 22.7915C17.8423 23.0123 17.9296 23.2717 17.9447 23.5407L18.342 23.9133C16.108 27.3609 15.1884 31.5373 15.7596 35.6408L15.2312 35.8005C15.0929 36.0271 14.9077 36.2194 14.6888 36.3634C13.9493 36.5672 13.1921 36.6952 12.4282 36.7461C12.0228 36.7563 11.6182 36.7896 11.2164 36.8466C11.1211 36.8651 10.986 36.9019 10.8807 36.9262H10.8509C10.6766 36.9506 10.5091 37.0117 10.3591 37.1061C10.209 37.2008 10.0797 37.3266 9.97944 37.4754C9.87918 37.6242 9.81013 37.7928 9.77669 37.9707C9.74325 38.1486 9.74616 38.332 9.78526 38.5086C9.82434 38.6853 9.89874 38.8517 10.0037 38.997C10.1087 39.1426 10.2419 39.2638 10.3949 39.3531C10.5479 39.4424 10.7172 39.4981 10.8922 39.5163C11.0672 39.5343 11.2439 39.5147 11.4111 39.4587H11.4548C11.5581 39.4341 11.6892 39.4075 11.7806 39.3829C12.1658 39.2562 12.5439 39.107 12.9129 38.9365C13.6302 38.6408 14.3741 38.4184 15.1338 38.2734C15.3948 38.2894 15.6461 38.381 15.8589 38.5374L16.4091 38.4392C17.6431 42.3704 20.2307 45.7003 23.6837 47.8002L23.4552 48.3672C23.5626 48.5954 23.602 48.8511 23.5685 49.1023C23.2532 49.8427 22.8707 50.5506 22.4262 51.2168C22.1809 51.5496 21.9547 51.8968 21.7488 52.2568C21.6992 52.3528 21.6356 52.5023 21.5879 52.6069C21.4981 52.7627 21.4408 52.9365 21.4198 53.1163C21.3988 53.2965 21.4144 53.4792 21.4657 53.6527C21.5171 53.8261 21.603 53.9867 21.718 54.124C21.8329 54.2613 21.9744 54.3727 22.1335 54.4504C22.2925 54.5282 22.4655 54.5707 22.6415 54.5759C22.8174 54.5807 22.9924 54.5477 23.1553 54.4792C23.3183 54.4104 23.4655 54.3074 23.5876 54.1768C23.7096 54.0463 23.804 53.8907 23.8645 53.7205C23.9121 53.62 23.9797 53.485 24.0194 53.3909C24.1626 53.0011 24.2847 52.6034 24.3849 52.1995C24.6022 51.3775 24.9305 50.5912 25.3603 49.8638C25.5109 49.7179 25.7006 49.6226 25.9046 49.5893L26.1906 49.0571C29.9356 50.5403 34.0793 50.5512 37.8317 49.0879C37.9129 49.2331 38.0621 49.5157 38.1017 49.5874C38.3603 49.6309 38.5917 49.7781 38.7453 49.9967C39.1027 50.6946 39.3929 51.4267 39.6115 52.1829C39.7113 52.5871 39.8342 52.9848 39.9789 53.3746C40.0185 53.4706 40.0861 53.6056 40.1337 53.708C40.1936 53.8795 40.2873 54.0363 40.4093 54.1682C40.5315 54.3003 40.6787 54.4043 40.8422 54.4741C41.0057 54.5439 41.1814 54.5775 41.3581 54.573C41.535 54.5685 41.7088 54.5256 41.8688 54.4479C42.0285 54.3698 42.1709 54.2584 42.2864 54.1205C42.4019 53.9826 42.4883 53.821 42.5395 53.6469C42.591 53.4725 42.6064 53.2888 42.5846 53.108C42.5632 52.9272 42.5053 52.7528 42.4144 52.5967C42.3667 52.4943 42.3011 52.3426 42.2496 52.2466C42.0435 51.8885 41.8179 51.5426 41.5741 51.2107C41.1366 50.5624 40.7619 49.8712 40.4557 49.1474C40.4221 49.019 40.4134 48.8853 40.4301 48.7535C40.4467 48.6216 40.4886 48.4946 40.5529 48.3797C40.472 48.2098 40.4016 48.0347 40.3424 47.8555C43.8057 45.7371 46.3936 42.3819 47.615 38.4267C47.7779 38.4536 48.0621 38.5048 48.1533 38.525C48.3453 38.3429 48.5993 38.2456 48.8605 38.2549C49.6128 38.4027 50.3494 38.6264 51.0595 38.9224C51.4285 39.0933 51.8067 39.243 52.192 39.3704C52.2832 39.3973 52.4144 39.4197 52.5177 39.4443H52.5613C52.7286 39.5003 52.9053 39.5202 53.0803 39.5019C53.2553 39.4837 53.4246 39.4283 53.5776 39.3387C53.7305 39.2495 53.8637 39.1282 53.9686 38.9829C54.0739 38.8373 54.1481 38.6709 54.1872 38.4942C54.2262 38.3176 54.2291 38.1346 54.1958 37.9566C54.1622 37.7787 54.0934 37.6098 53.9929 37.461C53.8928 37.3122 53.7635 37.1864 53.6134 37.092C53.4633 36.9973 53.296 36.9362 53.1216 36.9122C53.0144 36.8853 52.8592 36.8424 52.7539 36.8219C52.3529 36.7653 51.9491 36.7317 51.5443 36.7218C50.7805 36.6709 50.023 36.5426 49.2835 36.3387C49.055 36.2072 48.8665 36.012 48.7395 35.7758L48.2288 35.6226C48.7734 31.5227 47.8384 27.3595 45.6006 23.9235L46.0477 23.5141C46.0307 23.2464 46.1161 22.9825 46.2861 22.7792C46.8665 22.2643 47.4947 21.8091 48.1613 21.42C48.5225 21.2314 48.8729 21.0208 49.2102 20.7895C49.2915 20.7281 49.4089 20.6298 49.4883 20.5602C49.6393 20.4622 49.7683 20.3324 49.8675 20.1795C49.9664 20.0265 50.0329 19.8538 50.0627 19.6725C50.0928 19.4912 50.0851 19.3055 50.0406 19.1275C49.9961 18.9494 49.9158 18.783 49.8045 18.6392C49.6934 18.4953 49.5542 18.3772 49.3958 18.2926C49.2374 18.2079 49.0637 18.1586 48.8854 18.1478C48.7072 18.1371 48.5289 18.1652 48.3622 18.2302C48.1952 18.2953 48.0435 18.3959 47.9168 18.5254L47.6368 18.7568C47.3417 19.0428 47.0633 19.3462 46.8025 19.6656C46.287 20.2496 45.7174 20.7802 45.1021 21.2501C44.8601 21.3523 44.5949 21.3821 44.3373 21.336L43.8566 21.6902C41.0973 18.6989 37.3779 16.8417 33.3897 16.4641C33.3897 16.2901 33.3638 15.9769 33.3619 15.8827C33.1469 15.7307 32.9984 15.4976 32.9488 15.2338C32.9209 14.4448 32.9689 13.6549 33.0918 12.8756C33.1709 12.4697 33.2288 12.0597 33.2646 11.6474V11.2768C33.2749 11.0954 33.2505 10.9135 33.1926 10.7419C33.1344 10.5702 33.0438 10.4121 32.9264 10.2766C32.8086 10.1411 32.6662 10.031 32.5072 9.95246C32.3478 9.87399 32.1753 9.82874 31.9991 9.81934ZM30.41 19.9011L30.0345 26.7218L30.0127 26.7423C30.0044 26.9496 29.9416 27.1507 29.8311 27.3241C29.7205 27.4974 29.5662 27.6366 29.3848 27.7265C29.2034 27.8166 29.0017 27.854 28.8012 27.835C28.6007 27.8159 28.409 27.7411 28.2467 27.6184H28.2367L22.8096 23.6554C24.5372 21.9052 26.7054 20.6878 29.0691 20.1406C29.522 20.0423 29.971 19.9645 30.41 19.9072V19.9011ZM33.5725 19.9011C36.4262 20.2664 39.0841 21.5885 41.1369 23.6635L35.7456 27.6021H35.7257C35.5635 27.7245 35.3718 27.7992 35.1715 27.8182C34.9712 27.8373 34.7693 27.8 34.5878 27.7103C34.4064 27.6206 34.2521 27.4819 34.1411 27.3089C34.0301 27.1359 33.9667 26.9351 33.9577 26.728L33.5725 19.9011ZM20.839 26.2019L25.7933 30.7688V30.7955C26.0097 30.9892 26.145 31.2616 26.1709 31.5558C26.1968 31.8499 26.1114 32.143 25.9324 32.3736C25.7866 32.565 25.5844 32.7022 25.3563 32.7647V32.7874L18.9995 34.6766C18.6836 31.7189 19.3329 28.737 20.845 26.2019H20.839ZM43.1056 26.2019C44.6163 28.7298 45.2838 31.6971 45.0067 34.652L38.624 32.7586V32.7301C38.4301 32.675 38.2544 32.5672 38.1152 32.4174C37.976 32.2677 37.8787 32.082 37.8339 31.88C37.7891 31.678 37.7984 31.4672 37.8605 31.2701C37.9225 31.073 38.0355 30.8969 38.1872 30.7607V30.7463L43.1136 26.2019H43.1056ZM30.9741 31.1148H33.0022L34.2656 32.74L33.8128 34.7688L31.9991 35.6837L30.1716 34.7771L29.7187 32.7502L30.9741 31.1148ZM37.48 36.6766C37.5657 36.6725 37.6518 36.6786 37.7363 36.6952L37.7481 36.6808L44.3174 37.8271C43.3475 40.6357 41.4963 43.0306 39.0573 44.6335L36.5085 38.2875V38.2754C36.3955 38.004 36.3885 37.6978 36.4886 37.4213C36.5888 37.1445 36.7888 36.9179 37.0467 36.7893C37.1798 36.7224 37.3245 36.6843 37.472 36.6766H37.48ZM26.4469 36.7032C26.6296 36.7064 26.8088 36.7557 26.9687 36.8469C27.1285 36.9381 27.2642 37.0683 27.3637 37.2261C27.4632 37.3842 27.5235 37.565 27.5392 37.7525C27.555 37.94 27.5257 38.1288 27.4541 38.3019L27.4719 38.3266L24.957 44.619C22.5357 43.0235 20.693 40.6488 19.7147 37.8638L26.2264 36.7259V36.74C26.2985 36.7262 26.3716 36.7195 26.4449 36.7195L26.4469 36.7032ZM31.9495 39.4565C32.1296 39.4504 32.3081 39.4898 32.4701 39.571C32.6832 39.6744 32.8579 39.8462 32.9686 40.0603H32.9923L36.2105 46.052C35.7933 46.1954 35.3657 46.3182 34.9273 46.4207C32.5667 46.9787 30.1022 46.8485 27.8096 46.044L31.0059 40.0747C31.0988 39.8965 31.2357 39.7464 31.4027 39.6402C31.5698 39.5336 31.7611 39.4747 31.9574 39.469L31.9495 39.4565Z" fill="white"/>
</g>
<defs>
<clipPath id="clip0_1_7863">
<rect width="64" height="64" fill="white" transform="translate(0 0.193115)"/>
</clipPath>
</defs>
</svg>
