<svg width="64" height="65" viewBox="0 0 64 65" fill="none" xmlns="http://www.w3.org/2000/svg">
<rect y="0.193115" width="64" height="64" rx="32" fill="#326CE5"/>
<path fill-rule="evenodd" clip-rule="evenodd" d="M30.6709 8.50771C31.0377 8.32567 31.4357 8.22009 31.8421 8.19705C32.3534 8.17084 32.8631 8.27599 33.3254 8.50305L49.3169 16.3737C49.7307 16.5754 50.0947 16.8709 50.3819 17.2381C50.6689 17.6052 50.8717 18.0346 50.9751 18.494L54.9275 36.1907C55.0287 36.6484 55.028 37.1239 54.9255 37.5813C54.8228 38.0386 54.621 38.4659 54.335 38.8314L43.2695 53.0163C42.9813 53.3837 42.6171 53.6797 42.2033 53.8829C41.7896 54.0861 41.3372 54.1913 40.8787 54.1906H23.1266C22.6681 54.1913 22.2154 54.0859 21.8016 53.8824C21.3879 53.6789 21.0237 53.3825 20.7359 53.0148L9.66581 38.8314C9.60401 38.7522 9.54674 38.6684 9.49247 38.583C9.27008 38.2328 9.11859 37.8402 9.0471 37.4284C8.97561 37.0165 8.98559 36.594 9.07644 36.1861L13.0197 18.5033C13.1228 18.0438 13.3256 17.6143 13.6128 17.2472C13.8999 16.8799 14.264 16.5845 14.6778 16.383L30.6709 8.50771ZM31.3042 14.5572C31.4835 14.352 31.7343 14.2283 32.0019 14.2131C32.1356 14.2202 32.2665 14.2545 32.3874 14.3141C32.5081 14.3736 32.6161 14.4572 32.7055 14.56C32.7946 14.6628 32.8633 14.7828 32.9075 14.9131C32.9515 15.0433 32.9699 15.1813 32.9621 15.319V15.6002C32.9349 15.9131 32.891 16.2242 32.831 16.5322C32.7378 17.1235 32.7013 17.7229 32.7225 18.3216C32.7601 18.5218 32.8728 18.6986 33.036 18.814C33.0365 18.8408 33.0396 18.8912 33.0433 18.9507C33.0494 19.0493 33.0571 19.1727 33.0571 19.2551C36.0833 19.5417 38.9056 20.9509 40.9994 23.2207L41.3641 22.952C41.5596 22.9869 41.7609 22.9643 41.9444 22.8868C42.4114 22.5302 42.8436 22.1276 43.2348 21.6845C43.4327 21.4421 43.6439 21.2118 43.8678 20.9948L44.0803 20.8193C44.1764 20.721 44.2915 20.6447 44.4183 20.5953C44.5448 20.5459 44.68 20.5246 44.8153 20.5328C44.9505 20.5409 45.0824 20.5783 45.2026 20.6426C45.3228 20.7068 45.4284 20.7964 45.5127 20.9056C45.5972 21.0148 45.6581 21.141 45.6919 21.2761C45.7256 21.4112 45.7314 21.5521 45.7086 21.6897C45.686 21.8272 45.6355 21.9583 45.5605 22.0744C45.4852 22.1904 45.3874 22.2889 45.2728 22.3633C45.2125 22.4161 45.1234 22.4907 45.0617 22.5373C44.8058 22.7128 44.5399 22.8726 44.2658 23.0157C43.76 23.3109 43.2833 23.6564 42.8429 24.0471C42.7139 24.2014 42.6491 24.4016 42.662 24.6047L42.3228 24.9154C44.0208 27.5226 44.7303 30.6817 44.317 33.7927L44.7046 33.909C44.801 34.0882 44.944 34.2363 45.1173 34.3361C45.6785 34.4908 46.2532 34.5882 46.8329 34.6268C47.14 34.6343 47.4465 34.6598 47.7507 34.7028C47.8088 34.7141 47.887 34.7344 47.9566 34.7524C47.9827 34.7592 48.0075 34.7657 48.0297 34.7712C48.162 34.7894 48.289 34.8358 48.4029 34.9077C48.5168 34.9793 48.6149 35.0748 48.6909 35.1877C48.7671 35.3006 48.8193 35.4288 48.8448 35.5638C48.8701 35.6988 48.8679 35.8377 48.8383 35.9717C48.8087 36.1058 48.7523 36.232 48.6724 36.3425C48.5928 36.4527 48.4918 36.5448 48.3757 36.6125C48.2596 36.6805 48.1312 36.7225 47.9984 36.7364C47.8656 36.7502 47.7315 36.7351 47.6045 36.6927H47.5715C47.5413 36.6854 47.5079 36.6785 47.4743 36.6715C47.4208 36.6603 47.3668 36.6491 47.3243 36.6366C47.032 36.5399 46.745 36.4263 46.465 36.2966C45.9262 36.072 45.3672 35.9023 44.7963 35.7901C44.5982 35.7831 44.4054 35.8569 44.2597 35.995C44.1905 35.9797 43.9749 35.9409 43.8513 35.9205C42.9245 38.9217 40.9608 41.4677 38.3328 43.0751C38.3777 43.2111 38.4311 43.3439 38.4925 43.4728C38.4437 43.56 38.4119 43.6564 38.3993 43.7565C38.3867 43.8565 38.3932 43.958 38.4187 44.0554C38.6511 44.6046 38.9355 45.1291 39.2674 45.6211C39.4524 45.8729 39.6236 46.1353 39.78 46.4071C39.808 46.4593 39.8415 46.5331 39.8715 46.5994C39.8834 46.6257 39.8948 46.6507 39.905 46.6727C39.974 46.7912 40.0179 46.9235 40.0342 47.0607C40.0507 47.1979 40.0391 47.3373 40 47.4696C39.9611 47.6017 39.8956 47.7243 39.8079 47.829C39.7202 47.9337 39.6122 48.0182 39.491 48.0774C39.3696 48.1364 39.2378 48.1689 39.1035 48.1723C38.9694 48.1757 38.8361 48.1503 38.7121 48.0973C38.588 48.0444 38.4763 47.9655 38.3835 47.8652C38.291 47.7651 38.2199 47.6462 38.1745 47.516C38.1631 47.4915 38.1502 47.4646 38.1369 47.4369C38.1081 47.3767 38.0776 47.3129 38.0569 47.263C37.9472 46.9672 37.8539 46.6654 37.7782 46.3587C37.6123 45.785 37.3921 45.2294 37.1209 44.6998C37.0043 44.534 36.8288 44.4223 36.6326 44.3892C36.6211 44.3686 36.5978 44.325 36.5698 44.2727C36.524 44.1872 36.4659 44.0786 36.4276 44.0102C33.5803 45.1206 30.4361 45.1124 27.5944 43.9869L27.3773 44.3907C27.2225 44.416 27.0786 44.4883 26.9643 44.599C26.6382 45.151 26.389 45.7476 26.2242 46.3714C26.1481 46.6778 26.0555 46.9796 25.9468 47.2754C25.9252 47.3266 25.8927 47.3939 25.8626 47.456C25.8509 47.4804 25.8395 47.504 25.8292 47.5255C25.7834 47.6547 25.7118 47.7727 25.6191 47.8717C25.5265 47.9708 25.4148 48.049 25.2912 48.1012C25.1675 48.1532 25.0347 48.1782 24.9012 48.1745C24.7677 48.1706 24.6364 48.1384 24.5158 48.0793C24.3951 48.0203 24.2877 47.9358 24.2005 47.8317C24.1132 47.7275 24.0481 47.6056 24.0091 47.474C23.9701 47.3424 23.9583 47.2037 23.9742 47.067C23.9902 46.9306 24.0336 46.7987 24.1018 46.6805C24.1123 46.6575 24.1238 46.6316 24.1357 46.6047C24.165 46.5388 24.1971 46.4666 24.2239 46.4148C24.3801 46.1417 24.5518 45.8782 24.7379 45.6257C25.0752 45.1201 25.3654 44.583 25.6046 44.0211C25.6301 43.8305 25.6002 43.6365 25.5187 43.4634L25.6921 43.0331C23.072 41.4397 21.1085 38.913 20.1721 35.93L19.7546 36.0045C19.5931 35.8858 19.4024 35.8163 19.2044 35.8042C18.6279 35.9142 18.0635 36.0829 17.5192 36.3073C17.2391 36.4367 16.9523 36.5499 16.66 36.646C16.6171 36.6576 16.5627 36.6697 16.5088 36.6817C16.4756 36.6891 16.4427 36.6964 16.4128 36.7036H16.3796C16.2527 36.7461 16.1186 36.7609 15.9858 36.7473C15.8531 36.7334 15.7245 36.6912 15.6084 36.6234C15.4924 36.5557 15.3913 36.4637 15.3116 36.3532C15.232 36.243 15.1755 36.1167 15.1459 35.9827C15.1162 35.8486 15.114 35.7095 15.1394 35.5745C15.1647 35.4395 15.2171 35.3115 15.2932 35.1986C15.3693 35.0857 15.4674 34.9903 15.5813 34.9184C15.6951 34.8468 15.8222 34.8004 15.9545 34.7819H15.9771C16.0073 34.775 16.0406 34.7666 16.0744 34.7582C16.1301 34.7444 16.1868 34.7302 16.2319 34.7215C16.5367 34.6782 16.8437 34.653 17.1514 34.6452C17.731 34.6066 18.3056 34.5095 18.8667 34.3548C19.0328 34.2455 19.1734 34.0996 19.2782 33.9277L19.6792 33.8065C19.2458 30.6927 19.9436 27.5237 21.6388 24.9076L21.3373 24.6249C21.3259 24.4208 21.2596 24.224 21.1459 24.0564C20.7047 23.6657 20.2276 23.3203 19.7214 23.025C19.4483 22.8815 19.1836 22.7218 18.9285 22.5466C18.8915 22.5192 18.8473 22.4819 18.8039 22.4453C18.7783 22.4238 18.753 22.4025 18.7296 22.3835L18.716 22.3726C18.4979 22.2114 18.3508 21.9677 18.3067 21.6949C18.2626 21.4221 18.3253 21.1425 18.4809 20.9172C18.5725 20.8016 18.6894 20.71 18.8219 20.6498C18.9545 20.5896 19.0989 20.5625 19.2436 20.5708C19.4868 20.5808 19.7204 20.6712 19.9098 20.8286C19.942 20.8569 19.9823 20.8894 20.0219 20.9213C20.0583 20.9507 20.0942 20.9795 20.1224 21.0041C20.3453 21.2212 20.5557 21.4514 20.7524 21.6938C21.1435 22.1364 21.5757 22.5386 22.0427 22.8945C22.2182 22.9894 22.4226 23.01 22.6125 22.952C22.7264 23.0381 22.8415 23.1225 22.9577 23.2052C25.0523 20.9083 27.8998 19.4946 30.9483 19.238L30.9709 18.8202C31.1194 18.684 31.2275 18.5074 31.2829 18.3107C31.3029 17.7121 31.2671 17.1128 31.1758 16.5213C31.1157 16.2133 31.0719 15.9022 31.0447 15.5893V15.3081C31.0316 15.0323 31.1248 14.7624 31.3042 14.5572ZM30.7957 21.8678C30.4627 21.9113 30.1221 21.9703 29.7785 22.0449C27.9849 22.4601 26.3397 23.3839 25.0288 24.7119L29.1469 27.7191H29.1545C29.2777 27.8122 29.4231 27.869 29.5753 27.8834C29.7274 27.8979 29.8805 27.8694 30.0181 27.8011C30.1558 27.7328 30.2728 27.6273 30.3567 27.4957C30.4406 27.3642 30.4883 27.2116 30.4945 27.0543L30.5111 27.0388L30.7957 21.8678ZM38.9357 24.7181C37.378 23.1435 35.3612 22.1403 33.1957 21.8631L33.4881 27.0434C33.4949 27.2006 33.543 27.3529 33.6272 27.4842C33.7115 27.6155 33.8285 27.7207 33.9662 27.7888C34.1039 27.8569 34.2571 27.8852 34.4091 27.8707C34.5611 27.8563 34.7065 27.7996 34.8296 27.7067H34.8447L38.9357 24.7181ZM23.5364 26.6469C22.3902 28.57 21.8981 30.8316 22.1377 33.0749L26.9613 31.6413V31.6241C27.1343 31.5767 27.2878 31.4726 27.3984 31.3274C27.5342 31.1524 27.599 30.93 27.5794 30.7068C27.5597 30.4836 27.4571 30.2769 27.2929 30.1298V30.1096L23.5364 26.6469ZM40.4317 26.6478L36.6974 30.0926V30.1035C36.5823 30.2068 36.4966 30.3404 36.4495 30.49C36.4024 30.6395 36.3953 30.7995 36.4293 30.9528C36.4633 31.1061 36.5371 31.247 36.6428 31.3606C36.7484 31.4743 36.8817 31.5561 37.0288 31.5979V31.6195L41.8721 33.0562C42.0822 30.8154 41.5765 28.5653 40.4317 26.6478ZM32.763 30.3722H31.2241L30.2715 31.6131L30.6151 33.1512L32.0019 33.8391L33.3781 33.1448L33.7217 31.6054L32.763 30.3722ZM36.3553 34.6066C36.2912 34.594 36.2258 34.5894 36.1608 34.5925H36.1547C36.0428 34.5984 35.933 34.6272 35.832 34.678C35.6363 34.7756 35.4845 34.9475 35.4085 35.1576C35.3325 35.3674 35.3379 35.5997 35.4236 35.8056V35.8149L37.3576 40.6302C39.2084 39.4139 40.6131 37.5967 41.3491 35.4655L36.3643 34.5957L36.3553 34.6066ZM28.1847 34.7217C28.0634 34.6525 27.9275 34.6151 27.7888 34.6127L27.7873 34.6251C27.7317 34.6251 27.6762 34.6302 27.6215 34.6406V34.6299L22.6804 35.4934C23.4227 37.6066 24.821 39.4086 26.6583 40.6193L28.5666 35.8445L28.5531 35.8258C28.6074 35.6944 28.6296 35.5512 28.6177 35.4089C28.6057 35.2666 28.56 35.1294 28.4845 35.0094C28.409 34.8897 28.306 34.7909 28.1847 34.7217ZM32.3592 36.7888C32.2364 36.7271 32.1009 36.6973 31.9642 36.7019L31.9702 36.7113C31.8213 36.7157 31.6761 36.7604 31.5493 36.8413C31.4226 36.9219 31.3187 37.0358 31.2482 37.171L28.8229 41.7005C30.5624 42.311 32.4326 42.4098 34.2238 41.9863C34.5565 41.9086 34.8809 41.8154 35.1975 41.7066L32.7555 37.1601H32.7375C32.6535 36.9976 32.5209 36.8672 32.3592 36.7888Z" fill="white"/>
</svg>
