<svg width="25" height="24" viewBox="0 0 25 24" fill="none" xmlns="http://www.w3.org/2000/svg">
<path d="M24.2913 5.47549C24.2999 5.5073 24.3043 5.54008 24.3043 5.57303V10.6932C24.3043 10.7589 24.287 10.8235 24.2541 10.8804C24.2211 10.9372 24.1737 10.9844 24.1167 11.0171L19.8193 13.4913V18.3954C19.8193 18.5289 19.7483 18.6521 19.6326 18.7193L10.662 23.8834C10.6415 23.895 10.6191 23.9025 10.5967 23.9104C10.5883 23.9132 10.5803 23.9184 10.5715 23.9207C10.5088 23.9372 10.4428 23.9372 10.3801 23.9207C10.3699 23.9179 10.3605 23.9123 10.3507 23.9086C10.3302 23.9011 10.3087 23.8946 10.2891 23.8834L1.32041 18.7193C1.26343 18.6866 1.21609 18.6394 1.18316 18.5825C1.15022 18.5257 1.13286 18.4611 1.13281 18.3954V3.03486C1.13281 3.00126 1.13748 2.9686 1.14588 2.93687C1.14868 2.92613 1.15521 2.91633 1.15895 2.9056C1.16595 2.886 1.17248 2.86593 1.18275 2.84773C1.18974 2.8356 1.20001 2.8258 1.20841 2.8146C1.21914 2.79967 1.22894 2.78427 1.24154 2.7712C1.25228 2.76047 1.26628 2.75253 1.27841 2.7432C1.29194 2.732 1.30408 2.71987 1.31948 2.711L5.80454 0.128974C5.86133 0.0962988 5.92569 0.0791016 5.99121 0.0791016C6.05672 0.0791016 6.12109 0.0962988 6.17787 0.128974L10.6625 2.711H10.6634C10.6783 2.72034 10.6909 2.732 10.7045 2.74274C10.7166 2.75207 10.7301 2.76047 10.7409 2.77073C10.7539 2.78427 10.7633 2.79967 10.7745 2.8146C10.7824 2.8258 10.7931 2.8356 10.7997 2.84773C10.8104 2.8664 10.8165 2.886 10.8239 2.9056C10.8277 2.91633 10.8342 2.92613 10.837 2.93733C10.8456 2.96913 10.85 3.00192 10.8501 3.03486V12.6289L14.5871 10.4772V5.57256C14.5871 5.53989 14.5917 5.50676 14.6001 5.47549C14.6034 5.46429 14.6095 5.45449 14.6132 5.44376C14.6207 5.42416 14.6272 5.4041 14.6375 5.3859C14.6445 5.37376 14.6547 5.36396 14.6627 5.35276C14.6739 5.33783 14.6832 5.32243 14.6963 5.30936C14.707 5.29863 14.7205 5.2907 14.7327 5.28136C14.7467 5.27016 14.7588 5.25803 14.7737 5.24916L19.2593 2.66714C19.316 2.63442 19.3804 2.61719 19.4459 2.61719C19.5115 2.61719 19.5758 2.63442 19.6326 2.66714L24.1172 5.24916C24.1331 5.2585 24.1452 5.27016 24.1592 5.2809C24.1709 5.29023 24.1844 5.29863 24.1951 5.3089C24.2082 5.32243 24.2175 5.33783 24.2287 5.35276C24.2371 5.36396 24.2474 5.37376 24.2539 5.3859C24.2647 5.4041 24.2707 5.42416 24.2782 5.44376C24.2824 5.45449 24.2885 5.46429 24.2913 5.47549ZM23.5567 10.4772V6.21935L21.9874 7.1228L19.8193 8.37112V12.6289L23.5572 10.4772H23.5567ZM19.0721 18.1794V13.9188L16.9395 15.1367L10.8496 18.6124V22.9132L19.0721 18.1794ZM1.8804 3.68119V18.1794L10.102 22.9127V18.6129L5.80688 16.1821L5.80548 16.1811L5.80361 16.1802C5.78914 16.1718 5.77701 16.1597 5.76348 16.1494C5.75181 16.1401 5.73828 16.1326 5.72801 16.1223L5.72708 16.1209C5.71494 16.1093 5.70654 16.0948 5.69628 16.0817C5.68694 16.0691 5.67574 16.0584 5.66828 16.0453L5.66781 16.0439C5.65941 16.0299 5.65428 16.0131 5.64821 15.9973C5.64214 15.9833 5.63421 15.9702 5.63048 15.9553C5.62581 15.9375 5.62488 15.9184 5.62301 15.9002C5.62115 15.8862 5.61741 15.8722 5.61741 15.8582V5.83296L3.44978 4.58417L1.8804 3.68119ZM5.99167 0.884029L2.25513 3.03486L5.99074 5.1857L9.72682 3.0344L5.99074 0.884029H5.99167ZM7.93484 14.307L10.1025 13.0592V3.68119L8.5331 4.58464L6.365 5.83296V15.2109L7.93484 14.307ZM19.4459 3.42219L15.7099 5.57303L19.4459 7.72386L23.1816 5.57256L19.4459 3.42219ZM19.0721 8.37112L16.904 7.1228L15.3347 6.21935V10.4772L17.5023 11.725L19.0721 12.6289V8.37112ZM10.4753 17.9661L15.9553 14.8376L18.6946 13.2743L14.9613 11.1249L10.6629 13.5996L6.74533 15.8549L10.4753 17.9661Z" fill="#FF2D20"/>
</svg>
