<svg width="64" height="65" viewBox="0 0 64 65" fill="none" xmlns="http://www.w3.org/2000/svg">
<g clip-path="url(#clip0_1_7867)">
<path d="M32 64.1931C49.673 64.1931 64 49.8661 64 32.1931C64 14.52 49.673 0.193115 32 0.193115C14.3269 0.193115 0 14.52 0 32.1931C0 49.8661 14.3269 64.1931 32 64.1931Z" fill="#13AA52"/>
<path d="M42.1256 27.5428C39.7218 16.9332 34.0404 13.4448 33.4288 12.1119C32.7597 11.1716 32.0819 9.49916 32.0819 9.49916C32.0709 9.47092 32.053 9.4211 32.0321 9.3728C31.9628 10.3131 31.9273 10.6758 31.0382 11.6243C29.6616 12.7007 22.5984 18.6273 22.0239 30.6811C21.4879 41.923 30.1447 48.6221 31.3155 49.4761L31.4485 49.5705V49.5625C31.456 49.6189 31.8202 52.2384 32.0758 55.014H32.993C33.2085 53.0521 33.5308 51.1031 33.9593 49.1766L34.0339 49.1283C34.5576 48.7526 35.057 48.3443 35.5285 47.9055L35.5822 47.8571C38.0708 45.558 42.545 40.2405 42.5012 31.7619C42.4917 30.3476 42.3665 28.9365 42.1256 27.5428ZM31.9784 43.1287C31.9784 43.1287 31.9784 27.3614 32.499 27.3643C32.9047 27.3643 33.4303 47.7026 33.4303 47.7026C32.7076 47.6155 31.9784 44.3554 31.9784 43.1287Z" fill="white"/>
</g>
<defs>
<clipPath id="clip0_1_7867">
<rect width="64" height="64" fill="white" transform="translate(0 0.193115)"/>
</clipPath>
</defs>
</svg>
