<svg width="64" height="65" viewBox="0 0 64 65" fill="none" xmlns="http://www.w3.org/2000/svg">
<rect y="0.193115" width="64" height="64" rx="32" fill="#B71C1C"/>
<path d="M31.0784 19.7949C29.3505 17.2036 28.977 13.7405 28.8955 12.3173C24.5066 13.2664 20.1462 14.9689 20.398 16.2227C20.4297 16.3804 20.6287 16.5698 20.9588 16.7539L20.4424 17.6776C19.8118 17.3242 19.4573 16.9169 19.3611 16.4301C19.0764 15.0112 20.6837 13.7278 24.2727 12.5057C26.7233 11.6708 29.195 11.1725 29.2997 11.1524L29.9314 11.0254V11.6719C29.9314 11.7163 29.9589 16.209 31.9587 19.2087L31.0784 19.7949Z" fill="#DCC2C2"/>
<path d="M32.8421 53.3609H32.5766C23.9087 53.3609 14.262 50.6384 13.1224 46.0822C12.4273 43.2994 14.7011 40.2246 19.6974 37.1932L20.2476 38.0968C15.7518 40.8256 13.5859 43.5693 14.1499 45.8262C15.1392 49.7813 24.2811 52.2467 32.2993 52.3017C33.2527 50.8765 38.3749 42.5038 35.4514 31.2742L36.4746 31.0076C39.8065 43.802 33.0696 53.0551 33.0019 53.1471L32.8421 53.3609Z" fill="#DCC2C2"/>
<path d="M17.1612 49.4522C16.5909 49.4522 16.3084 49.3898 16.2618 49.3782C16.0756 49.3327 15.9296 49.1898 15.8788 49.0057C15.827 48.8216 15.8799 48.6237 16.0153 48.4894C16.0915 48.4132 23.6304 40.8626 24.6483 34.7574L25.6916 34.9309C24.8165 40.1833 19.6446 46.1711 17.5908 48.3761C19.6425 48.2587 24.8229 47.2979 34.7679 41.7313C27.0068 40.8806 25.7794 34.6675 25.7667 34.6008L26.8068 34.4093C26.8565 34.6696 28.104 40.7695 36.5878 40.7695C36.591 40.7695 36.5931 40.7695 36.5963 40.7695C36.8365 40.7695 37.0449 40.9303 37.1063 41.161C37.1698 41.3917 37.0682 41.6361 36.8619 41.7567C24.9742 48.6438 19.2097 49.4512 17.1612 49.4522Z" fill="#DCC2C2"/>
<path d="M22.0211 51.9854C21.8021 51.9854 21.6031 51.8499 21.5259 51.6415C21.4423 51.4182 21.5185 51.1653 21.7132 51.0257C21.7492 50.9992 23.6315 49.61 25.6345 46.5521C24.8642 46.2114 24.0844 45.8135 23.3109 45.349C22.3713 44.785 21.6613 44.1798 21.1312 43.5598C18.4119 44.2772 15.9021 44.5607 13.6981 44.3734L13.787 43.3196C15.772 43.4878 18.0289 43.2529 20.4752 42.6424C18.8108 39.7982 20.3387 36.9753 20.3599 36.9372L21.2847 37.4525C21.2138 37.5815 19.9462 39.9601 21.5481 42.3546C23.877 41.6859 26.3614 40.6966 28.9326 39.411C29.524 37.4694 29.9864 35.2611 30.2287 32.7704C30.2457 32.6 30.343 32.4487 30.4911 32.363C30.6393 32.2773 30.8202 32.2699 30.9757 32.3408C31.0096 32.3567 34.4294 33.9184 36.9053 34.9374C37.0852 35.0114 37.21 35.1786 37.2301 35.3722C37.2513 35.5659 37.1635 35.7542 37.0016 35.8643C34.5796 37.5149 32.1735 38.9465 29.8298 40.1411C29.087 42.4953 28.1676 44.4549 27.228 46.0569C31.145 47.5202 34.5447 47.5424 34.5881 47.5424C34.8293 47.5424 35.0399 47.7054 35.1002 47.9392C35.1605 48.1731 35.0557 48.4175 34.8452 48.5349C30.0414 51.2034 22.3946 51.9547 22.0719 51.9854C22.0549 51.9843 22.038 51.9854 22.0211 51.9854ZM26.6608 46.9774C25.5604 48.6852 24.479 49.9115 23.6707 50.7125C25.7847 50.4014 29.4912 49.72 32.5671 48.4492C31.0942 48.2683 28.9622 47.8662 26.6608 46.9774ZM22.2782 43.236C22.694 43.6508 23.2125 44.056 23.8548 44.4422C24.6335 44.9099 25.4239 45.3067 26.2037 45.6432C27.0015 44.3057 27.7919 42.7006 28.4702 40.8098C26.3318 41.8277 24.2558 42.6403 22.2782 43.236ZM31.2032 33.6052C30.9863 35.4759 30.652 37.1826 30.2372 38.737C31.9936 37.8006 33.786 36.7308 35.5933 35.5352C33.9543 34.8411 32.1523 34.0338 31.2032 33.6052Z" fill="#DCC2C2"/>
<path d="M25.6186 19.0786C25.4948 19.0786 25.3721 19.0341 25.2747 18.9516C23.5712 17.4935 21.5661 14.5266 21.4814 14.4007C21.3449 14.1986 21.3661 13.9288 21.5301 13.749C21.6931 13.568 21.9618 13.5257 22.1734 13.641C22.1851 13.6442 23.1659 14.0484 29.8097 15.1552C30.0012 15.1869 30.1589 15.3202 30.2224 15.5022C30.2869 15.6842 30.2456 15.8874 30.1165 16.0313C28.2564 18.0977 25.9064 19.0077 25.8069 19.0447C25.7456 19.0669 25.681 19.0786 25.6186 19.0786ZM23.2093 15.0007C23.877 15.899 24.8388 17.1126 25.7191 17.9305C26.2598 17.684 27.4724 17.065 28.6225 16.0281C25.8895 15.5615 24.2219 15.2292 23.2093 15.0007Z" fill="#DCC2C2"/>
<path d="M29.7653 33.6803C29.6933 33.6803 29.6203 33.6655 29.5526 33.6359C29.342 33.5428 29.2151 33.3248 29.2394 33.0963C29.5484 30.1876 25.0853 29.0205 25.0398 29.0099C24.8557 28.9634 24.7097 28.8205 24.66 28.6375C24.6102 28.4544 24.6621 28.2576 24.7965 28.1232C25.0155 27.9042 30.234 22.7291 36.7815 19.887C36.9645 19.8077 37.1719 19.8373 37.3264 19.9611C37.4798 20.086 37.5507 20.2859 37.5105 20.4785C36.2556 26.5562 30.4107 33.2222 30.1631 33.5026C30.0584 33.6179 29.9123 33.6803 29.7653 33.6803ZM26.1804 28.2682C27.4332 28.7391 29.6277 29.8289 30.1832 31.8192C31.7164 29.9061 34.9891 25.4992 36.2112 21.3081C31.5693 23.5406 27.6607 26.9075 26.1804 28.2682Z" fill="white"/>
<path d="M20.4921 37.8703L19.9895 36.9392C21.9819 35.8652 24.2642 33.8887 26.1338 31.5916C24.5424 32.6814 23.6314 33.4274 23.6029 33.4517L22.9267 32.637C22.968 32.6031 24.7932 31.1059 27.8268 29.2299C28.6595 27.8904 29.2996 26.5127 29.6287 25.1922C29.6848 24.9679 29.7335 24.751 29.7726 24.5415C27.7358 23.8146 25.8566 23.3839 24.5657 23.1988C24.37 23.1713 24.207 23.0369 24.1414 22.8517C24.0758 22.6665 24.1192 22.4592 24.2515 22.3153C24.3414 22.2179 26.4904 19.9155 29.1758 18.6511C29.3843 18.5527 29.634 18.6014 29.7906 18.7717C29.8615 18.8489 31.3143 20.4805 30.945 23.8558C32.1671 24.332 33.4262 24.9108 34.6388 25.5996C37.5581 24.2875 40.8731 23.1067 44.4039 22.3936C44.5859 22.3576 44.788 22.4232 44.9129 22.5713C45.0367 22.7195 45.0705 22.9237 45.0007 23.1035C43.6252 26.6291 39.9367 30.3949 39.7801 30.5536C39.6732 30.6615 39.5272 30.7155 39.3748 30.7102C39.2235 30.7017 39.0838 30.6298 38.9886 30.5113C37.8035 29.0215 36.2545 27.7877 34.5838 26.7836C32.2824 27.8459 30.2445 28.9823 28.5696 30.0097C26.4322 33.3459 23.2061 36.4091 20.4921 37.8703ZM35.7424 26.2694C37.1073 27.1497 38.3781 28.1845 39.4288 29.3886C40.3049 28.4384 42.4073 26.0366 43.5998 23.6516C40.7958 24.2971 38.1421 25.2314 35.7424 26.2694ZM30.7767 24.9213C30.7418 25.0938 30.7016 25.2705 30.6572 25.4504C30.435 26.3381 30.0816 27.2502 29.6287 28.1602C30.7884 27.4978 32.0718 26.8143 33.4569 26.1519C32.5702 25.6821 31.6655 25.2737 30.7767 24.9213ZM25.7497 22.329C26.9253 22.5597 28.3738 22.9364 29.9197 23.4781C30.0805 21.528 29.5536 20.3335 29.2351 19.8044C27.7792 20.5641 26.5042 21.6328 25.7497 22.329Z" fill="white"/>
<path d="M25.752 27.4375C25.752 32.0719 21.8899 35.7541 19.1071 38.4417C18.6416 38.8966 17.065 38.9707 17.065 38.9707C17.4565 38.5686 17.9009 38.1454 18.377 37.6904C21.0223 35.1298 24.6939 31.6275 24.6939 27.4375C24.6939 22.475 22.6941 20.5175 21.1175 18.9516C20.4192 18.2426 19.8266 17.5655 19.4669 16.7402L19.7949 16.6026C20.1546 16.7613 20.5673 16.9412 20.8847 17.0787C21.1387 17.4491 21.4773 17.8088 21.8687 18.2003C23.4876 19.8192 25.752 22.0412 25.752 27.4375Z" fill="white"/>
<path d="M52.0826 28.8067C52.0826 28.8067 51.4425 28.8977 51.2626 28.9189C41.9937 29.9452 32.4285 32.6116 26.9582 34.8019C24.9795 35.5954 22.9268 36.5583 21.054 37.6376C21.0434 37.6481 21.0328 37.6481 21.0117 37.6587C19.9113 38.2936 17.2343 39.6056 15.0652 40.7589C18.2395 37.3836 24.186 34.7807 26.5561 33.8284C31.9206 31.6805 41.1366 29.0882 50.2045 27.9772C49.1358 26.7286 46.5223 24.0834 41.38 22.1153C38.375 20.9514 33.804 20.2954 29.7727 19.7134C23.3606 18.7929 19.7102 18.1792 19.361 16.4334C19.287 16.0842 19.3399 15.735 19.4986 15.3964C19.8478 15.9678 20.3451 16.3699 20.6731 16.6027C20.8318 16.7085 20.9482 16.7719 20.9905 16.7931L21.0011 16.8037C22.5036 17.5973 26.5561 18.1792 29.9314 18.6659C34.0156 19.2585 38.6395 19.9251 41.7609 21.1207C49.03 23.9247 51.5377 27.9348 51.6435 28.1041C51.7387 28.2628 52.0826 28.8067 52.0826 28.8067Z" fill="white"/>
</svg>
