<svg width="64" height="65" viewBox="0 0 64 65" fill="none" xmlns="http://www.w3.org/2000/svg">
<g clip-path="url(#clip0_61_2609)">
<path d="M30.3298 13.4503C27.7177 9.53295 27.153 4.29759 27.0299 2.14618C20.3949 3.58098 13.8031 6.15468 14.1838 8.05015C14.2318 8.28849 14.5325 8.57481 15.0316 8.85313L14.251 10.2495C13.2977 9.7153 12.7618 9.09947 12.6162 8.36367C12.186 6.21866 14.6157 4.27839 20.0414 2.4309C23.746 1.16885 27.4826 0.415454 27.6409 0.385062L28.5958 0.193115V1.17045C28.5958 1.23763 28.6374 8.02936 31.6606 12.5641L30.3298 13.4503Z" fill="#CFD8DC"/>
<path d="M32.9961 64.1931H32.5946C19.491 64.1931 4.90784 60.0775 3.18512 53.1897C2.13421 48.9829 5.57166 44.3346 13.1248 39.7518L13.9566 41.1179C7.16002 45.2431 3.88573 49.3908 4.73829 52.8027C6.23388 58.7818 20.0541 62.5088 32.1755 62.592C33.6167 60.4374 41.3602 47.78 36.9406 30.8039L38.4874 30.4008C43.5244 49.7427 33.34 63.7309 33.2376 63.87L32.9961 64.1931Z" fill="#CFD8DC"/>
<path d="M9.29071 58.2843C8.42855 58.2843 8.00147 58.19 7.93109 58.1724C7.64956 58.1036 7.42882 57.8876 7.35204 57.6093C7.27367 57.331 7.35364 57.0319 7.55839 56.8287C7.67355 56.7136 19.0704 45.2991 20.6092 36.0696L22.1864 36.332C20.8635 44.2722 13.0449 53.3241 9.94013 56.6576C13.0417 56.48 20.8731 55.0276 35.9074 46.6123C24.1746 45.3263 22.3191 35.9337 22.2999 35.8329L23.8723 35.5434C23.9475 35.9369 25.8334 45.1584 38.6586 45.1584C38.6634 45.1584 38.6666 45.1584 38.6714 45.1584C39.0345 45.1584 39.3496 45.4015 39.4424 45.7502C39.5384 46.0989 39.3848 46.4684 39.0729 46.6507C21.1019 57.0623 12.3875 58.2827 9.29071 58.2843Z" fill="#CFD8DC"/>
<path d="M16.6375 62.1137C16.3064 62.1137 16.0057 61.909 15.8889 61.5939C15.7626 61.2563 15.8777 60.8741 16.1721 60.6629C16.2264 60.6229 19.0721 58.5227 22.1 53.9C20.9355 53.3849 19.7567 52.7835 18.5874 52.0813C17.167 51.2287 16.0937 50.3138 15.2923 49.3764C11.1814 50.4609 7.38727 50.8896 4.05539 50.6065L4.18975 49.0133C7.19053 49.2676 10.6024 48.9125 14.3006 47.9896C11.7845 43.69 14.0942 39.4224 14.1262 39.3648L15.5242 40.1438C15.4171 40.3389 13.5008 43.9347 15.9225 47.5545C19.4432 46.5436 23.1989 45.048 27.0859 43.1045C27.98 40.1693 28.679 36.8311 29.0453 33.0657C29.0709 32.8082 29.2181 32.5794 29.442 32.4499C29.6659 32.3203 29.9395 32.3091 30.1746 32.4163C30.2258 32.4403 35.3956 34.8012 39.1385 36.3416C39.4105 36.4536 39.5992 36.7063 39.6296 36.999C39.6616 37.2917 39.5288 37.5765 39.2841 37.7428C35.6227 40.2381 31.9853 42.4023 28.4423 44.2082C27.3194 47.7673 25.9294 50.7296 24.509 53.1514C30.4305 55.3636 35.5699 55.3972 35.6355 55.3972C36.0002 55.3972 36.3185 55.6435 36.4097 55.997C36.5009 56.3505 36.3425 56.72 36.0242 56.8975C28.7622 60.9316 17.2022 62.0673 16.7143 62.1137C16.6887 62.1121 16.6631 62.1137 16.6375 62.1137ZM23.6516 54.543C21.9881 57.1247 20.3533 58.9786 19.1312 60.1894C22.3272 59.7192 27.9304 58.6891 32.5803 56.768C30.3538 56.4945 27.1306 55.8866 23.6516 54.543ZM17.0262 48.8869C17.6548 49.514 18.4386 50.1266 19.4096 50.7104C20.5868 51.4175 21.7817 52.0173 22.9606 52.526C24.1667 50.5041 25.3615 48.0776 26.3868 45.2192C23.1541 46.7579 20.0158 47.9864 17.0262 48.8869ZM30.5185 34.3278C30.1906 37.1558 29.6851 39.7359 29.0581 42.0856C31.7134 40.67 34.423 39.0529 37.1551 37.2454C34.6774 36.196 31.9533 34.9756 30.5185 34.3278Z" fill="#CFD8DC"/>
<path d="M22.076 12.3674C21.8888 12.3674 21.7033 12.3002 21.5561 12.1754C18.9808 9.97122 15.9497 5.48606 15.8217 5.29571C15.6154 4.9902 15.6474 4.58231 15.8953 4.31038C16.1416 4.03686 16.5479 3.97288 16.8678 4.14723C16.8854 4.15203 18.3682 4.76306 28.4118 6.4362C28.7014 6.48418 28.9397 6.68573 29.0357 6.96085C29.1332 7.23598 29.0709 7.54309 28.8757 7.76063C26.0637 10.8846 22.5111 12.2602 22.3607 12.3162C22.2679 12.3498 22.1704 12.3674 22.076 12.3674ZM18.4338 6.20266C19.4431 7.56069 20.8971 9.39538 22.2279 10.6318C23.0453 10.2591 24.8784 9.3234 26.6171 7.75583C22.4855 7.05043 19.9646 6.54817 18.4338 6.20266Z" fill="#CFD8DC"/>
<path d="M28.3447 34.4413C28.2359 34.4413 28.1255 34.4189 28.0232 34.3741C27.7049 34.2333 27.5129 33.9038 27.5497 33.5583C28.0168 29.1611 21.2698 27.3968 21.201 27.3808C20.9227 27.3104 20.702 27.0945 20.6268 26.8178C20.5516 26.541 20.63 26.2435 20.8331 26.0404C21.1642 25.7093 29.0533 17.8858 38.9514 13.5894C39.2281 13.4694 39.5416 13.5142 39.7751 13.7014C40.0071 13.8901 40.1142 14.1924 40.0535 14.4836C38.1564 23.6714 29.3204 33.7487 28.9461 34.1725C28.7878 34.3469 28.567 34.4413 28.3447 34.4413ZM22.9254 26.2595C24.8192 26.9713 28.1367 28.6189 28.9765 31.6276C31.2943 28.7356 36.2417 22.0735 38.0892 15.7376C31.0719 19.1127 25.1631 24.2025 22.9254 26.2595Z" fill="#B71C1C"/>
<path d="M14.326 40.7756L13.5662 39.368C16.5782 37.7444 20.0284 34.7564 22.8549 31.2838C20.4491 32.9313 19.0719 34.059 19.0287 34.0958L18.0066 32.8642C18.069 32.813 20.8282 30.5496 25.4142 27.7136C26.673 25.6885 27.6408 23.6059 28.1382 21.6096C28.223 21.2705 28.2966 20.9426 28.3558 20.6259C25.2766 19.527 22.4358 18.876 20.4843 18.5961C20.1884 18.5545 19.9421 18.3513 19.8429 18.0714C19.7437 17.7915 19.8093 17.478 20.0093 17.2604C20.1452 17.1133 23.3939 13.6326 27.4536 11.7212C27.7687 11.5724 28.1462 11.646 28.3829 11.9035C28.4901 12.0203 30.6863 14.4868 30.1281 19.5894C31.9756 20.3092 33.879 21.1842 35.7121 22.2255C40.1253 20.242 45.1367 18.4569 50.4745 17.3788C50.7496 17.3244 51.0551 17.4236 51.2439 17.6475C51.431 17.8715 51.4822 18.1802 51.3766 18.4521C49.2972 23.7819 43.7211 29.4747 43.4844 29.7146C43.3228 29.8778 43.1021 29.9594 42.8718 29.9514C42.643 29.9386 42.4319 29.8298 42.2879 29.6506C40.4964 27.3985 38.1547 25.5334 35.629 24.0154C32.1499 25.6213 29.0692 27.3393 26.5371 28.8924C23.3059 33.9359 18.4289 38.5666 14.326 40.7756ZM37.3805 23.238C39.4439 24.5688 41.365 26.1332 42.9533 27.9535C44.2778 26.5171 47.4561 22.8861 49.2588 19.2807C45.02 20.2564 41.0083 21.6688 37.3805 23.238ZM29.8737 21.2002C29.821 21.4609 29.7602 21.728 29.693 21.9999C29.3571 23.342 28.8228 24.7208 28.1382 26.0964C29.8913 25.0951 31.8316 24.0618 33.9254 23.0605C32.585 22.3502 31.2174 21.7328 29.8737 21.2002ZM22.2742 17.2812C24.0513 17.6299 26.2411 18.1994 28.5781 19.0184C28.8212 16.0704 28.0246 14.2645 27.5432 13.4647C25.3422 14.6132 23.4147 16.2287 22.2742 17.2812Z" fill="#B71C1C"/>
<path d="M22.2776 25.0039C22.2776 32.01 16.4392 37.5764 12.2324 41.6393C11.5285 42.3271 9.1452 42.4391 9.1452 42.4391C9.73704 41.8313 10.4089 41.1914 11.1287 40.5036C15.1276 36.6327 20.678 31.3381 20.678 25.0039C20.678 17.5019 17.6549 14.5428 15.2715 12.1754C14.2158 11.1037 13.3201 10.08 12.7762 8.83233L13.2721 8.62439C13.8159 8.86432 14.4397 9.13625 14.9196 9.34419C15.3035 9.90404 15.8154 10.4479 16.4072 11.0397C18.8545 13.4871 22.2776 16.8461 22.2776 25.0039Z" fill="#B71C1C"/>
<path d="M62.0826 27.0737C62.0826 27.0737 61.1149 27.2113 60.843 27.2433C46.8308 28.7949 32.3708 32.8257 24.1011 36.1368C21.1099 37.3365 18.0067 38.7921 15.1755 40.4237C15.1595 40.4396 15.1435 40.4396 15.1115 40.4556C13.448 41.4154 9.40111 43.3988 6.12201 45.1424C10.9207 40.0398 19.9102 36.1048 23.4932 34.6652C31.603 31.4181 45.5352 27.4992 59.2434 25.8197C57.6278 23.9322 53.6769 19.9333 45.9031 16.9581C41.3603 15.1986 34.4502 14.2069 28.3559 13.3271C18.6626 11.9355 13.1441 11.0077 12.6162 8.36847C12.5043 7.84062 12.5842 7.31276 12.8242 6.8009C13.352 7.66467 14.1038 8.2725 14.5997 8.6244C14.8396 8.78436 15.0156 8.88033 15.0795 8.91232L15.0955 8.92832C17.3669 10.128 23.4932 11.0077 28.5958 11.7435C34.7701 12.6393 41.7602 13.647 46.4789 15.4545C57.4679 19.6934 61.2588 25.7557 61.4188 26.0116C61.5628 26.2516 62.0826 27.0737 62.0826 27.0737Z" fill="#B71C1C"/>
</g>
<defs>
<clipPath id="clip0_61_2609">
<rect width="64" height="64" fill="white" transform="translate(0 0.193115)"/>
</clipPath>
</defs>
</svg>
