<svg width="64" height="65" viewBox="0 0 64 65" fill="none" xmlns="http://www.w3.org/2000/svg">
<rect y="0.193115" width="64" height="64" rx="32" fill="#00758F"/>
<mask id="path-2-outside-1_65_2782" maskUnits="userSpaceOnUse" x="11.6043" y="12.3736" width="41" height="40" fill="black">
<rect fill="white" x="11.6043" y="12.3736" width="41" height="40"/>
<path fill-rule="evenodd" clip-rule="evenodd" d="M48.3353 42.7236C46.2236 42.6707 44.5883 42.882 43.2168 43.4644C42.8211 43.623 42.1886 43.623 42.1345 44.1257C42.347 44.3369 42.3724 44.6805 42.5584 44.9728C42.874 45.5018 43.427 46.215 43.9293 46.5863C44.4834 47.0098 45.0376 47.4315 45.6187 47.8017C46.647 48.4394 47.8082 48.8081 48.8093 49.4433C49.3917 49.8131 49.97 50.2889 50.5523 50.6867C50.8415 50.8983 51.0247 51.2427 51.3956 51.3736V51.2935C51.2096 51.0561 51.1578 50.7121 50.974 50.4461C50.7107 50.1836 50.4464 49.944 50.182 49.6806C49.4165 48.6491 48.4655 47.7505 47.439 47.0098C46.594 46.4262 44.7461 45.6325 44.4045 44.6567C44.4045 44.6567 44.3769 44.6286 44.351 44.6026C44.9316 44.5489 45.6187 44.3369 46.1723 44.1765C47.068 43.9391 47.886 43.9928 48.8093 43.7554C49.2321 43.6488 49.6543 43.5156 50.0783 43.3856V43.1458C49.6008 42.6707 49.2592 42.0348 48.758 41.5855C47.4136 40.422 45.9344 39.2853 44.4045 38.3316C43.5854 37.8023 42.5302 37.4601 41.6593 37.0093C41.3441 36.8503 40.8171 36.772 40.6316 36.5059C40.1564 35.9241 39.8915 35.158 39.5493 34.4691C38.7849 33.0158 38.0448 31.4027 37.3863 29.8659C36.9117 28.8349 36.6214 27.804 36.0408 26.851C33.322 22.3531 30.3682 19.6299 25.8303 16.9575C24.8539 16.4014 23.6933 16.1634 22.4542 15.8723C21.7936 15.8446 21.1346 15.7932 20.4751 15.7672C20.0523 15.5813 19.6295 15.0782 19.2608 14.8403C17.7563 13.8884 13.8797 11.8254 12.7708 14.5497C12.0583 16.2702 13.8261 17.9625 14.4332 18.8358C14.8814 19.4434 15.4626 20.1323 15.7777 20.8191C15.9626 21.269 16.0156 21.746 16.201 22.2214C16.6227 23.3851 17.0178 24.6817 17.5731 25.7669C17.8623 26.3225 18.1785 26.9053 18.5477 27.4055C18.7608 27.6983 19.1289 27.8288 19.2084 28.3064C18.8403 28.8349 18.8115 29.6285 18.6007 30.2903C17.6514 33.2797 18.0201 36.983 19.3662 39.1783C19.7873 39.8395 20.7913 41.295 22.1369 40.7381C23.324 40.2628 23.0602 38.7548 23.403 37.433C23.4819 37.1133 23.4289 36.9036 23.5867 36.6922V36.7457C23.956 37.4853 24.3263 38.1978 24.6691 38.941C25.4881 40.2359 26.9115 41.5853 28.0998 42.4839C28.7311 42.9619 29.2328 43.7806 30.0243 44.0725V43.9925H29.9724C29.8135 43.7552 29.5767 43.6486 29.3653 43.4642C28.8907 42.9877 28.3642 42.4055 27.9932 41.8767C26.8856 40.3959 25.9081 38.7548 25.0394 37.062C24.6161 36.2401 24.2474 35.3415 23.9041 34.5219C23.7463 34.206 23.7463 33.7284 23.4819 33.5701C23.085 34.1514 22.5061 34.6548 22.2163 35.3669C21.7146 36.5057 21.6622 37.9074 21.4762 39.3631C21.3713 39.3907 21.4243 39.3631 21.3713 39.4156C20.528 39.2041 20.2377 38.3313 19.9204 37.5931C19.1289 35.7124 18.9959 32.6968 19.683 30.5273C19.8668 29.9729 20.6605 28.2269 20.3426 27.6979C20.1831 27.1932 19.656 26.9049 19.3662 26.5064C19.0241 26.0039 18.6526 25.3703 18.4175 24.8136C17.7839 23.3328 17.4654 21.6919 16.7816 20.2111C16.4648 19.5221 15.9096 18.8077 15.4625 18.1741C14.9603 17.4596 14.4067 16.9572 14.0104 16.1116C13.8796 15.82 13.6947 15.3435 13.905 15.027C13.9569 14.815 14.064 14.7353 14.2754 14.6822C14.6164 14.3911 15.5939 14.7607 15.9361 14.9196C16.913 15.3152 17.7309 15.6877 18.5477 16.2422C18.9175 16.5072 19.3132 17.0097 19.7873 17.1431H20.3426C21.1864 17.3268 22.1369 17.1945 22.9289 17.4336C24.3263 17.883 25.5924 18.5443 26.7277 19.2587C30.1827 21.4545 33.0322 24.5768 34.9573 28.306C35.2747 28.9137 35.4077 29.4698 35.6975 30.1034C36.2516 31.4023 36.9382 32.7249 37.4912 33.9934C38.0447 35.2368 38.5735 36.5055 39.3661 37.5388C39.7607 38.0934 41.3441 38.3844 42.0567 38.6756C42.5832 38.9129 43.4022 39.1249 43.8774 39.4155C44.7743 39.97 45.6695 40.6059 46.515 41.2153C46.9361 41.5328 48.2558 42.1934 48.3353 42.7233"/>
</mask>
<path fill-rule="evenodd" clip-rule="evenodd" d="M48.3353 42.7236C46.2236 42.6707 44.5883 42.882 43.2168 43.4644C42.8211 43.623 42.1886 43.623 42.1345 44.1257C42.347 44.3369 42.3724 44.6805 42.5584 44.9728C42.874 45.5018 43.427 46.215 43.9293 46.5863C44.4834 47.0098 45.0376 47.4315 45.6187 47.8017C46.647 48.4394 47.8082 48.8081 48.8093 49.4433C49.3917 49.8131 49.97 50.2889 50.5523 50.6867C50.8415 50.8983 51.0247 51.2427 51.3956 51.3736V51.2935C51.2096 51.0561 51.1578 50.7121 50.974 50.4461C50.7107 50.1836 50.4464 49.944 50.182 49.6806C49.4165 48.6491 48.4655 47.7505 47.439 47.0098C46.594 46.4262 44.7461 45.6325 44.4045 44.6567C44.4045 44.6567 44.3769 44.6286 44.351 44.6026C44.9316 44.5489 45.6187 44.3369 46.1723 44.1765C47.068 43.9391 47.886 43.9928 48.8093 43.7554C49.2321 43.6488 49.6543 43.5156 50.0783 43.3856V43.1458C49.6008 42.6707 49.2592 42.0348 48.758 41.5855C47.4136 40.422 45.9344 39.2853 44.4045 38.3316C43.5854 37.8023 42.5302 37.4601 41.6593 37.0093C41.3441 36.8503 40.8171 36.772 40.6316 36.5059C40.1564 35.9241 39.8915 35.158 39.5493 34.4691C38.7849 33.0158 38.0448 31.4027 37.3863 29.8659C36.9117 28.8349 36.6214 27.804 36.0408 26.851C33.322 22.3531 30.3682 19.6299 25.8303 16.9575C24.8539 16.4014 23.6933 16.1634 22.4542 15.8723C21.7936 15.8446 21.1346 15.7932 20.4751 15.7672C20.0523 15.5813 19.6295 15.0782 19.2608 14.8403C17.7563 13.8884 13.8797 11.8254 12.7708 14.5497C12.0583 16.2702 13.8261 17.9625 14.4332 18.8358C14.8814 19.4434 15.4626 20.1323 15.7777 20.8191C15.9626 21.269 16.0156 21.746 16.201 22.2214C16.6227 23.3851 17.0178 24.6817 17.5731 25.7669C17.8623 26.3225 18.1785 26.9053 18.5477 27.4055C18.7608 27.6983 19.1289 27.8288 19.2084 28.3064C18.8403 28.8349 18.8115 29.6285 18.6007 30.2903C17.6514 33.2797 18.0201 36.983 19.3662 39.1783C19.7873 39.8395 20.7913 41.295 22.1369 40.7381C23.324 40.2628 23.0602 38.7548 23.403 37.433C23.4819 37.1133 23.4289 36.9036 23.5867 36.6922V36.7457C23.956 37.4853 24.3263 38.1978 24.6691 38.941C25.4881 40.2359 26.9115 41.5853 28.0998 42.4839C28.7311 42.9619 29.2328 43.7806 30.0243 44.0725V43.9925H29.9724C29.8135 43.7552 29.5767 43.6486 29.3653 43.4642C28.8907 42.9877 28.3642 42.4055 27.9932 41.8767C26.8856 40.3959 25.9081 38.7548 25.0394 37.062C24.6161 36.2401 24.2474 35.3415 23.9041 34.5219C23.7463 34.206 23.7463 33.7284 23.4819 33.5701C23.085 34.1514 22.5061 34.6548 22.2163 35.3669C21.7146 36.5057 21.6622 37.9074 21.4762 39.3631C21.3713 39.3907 21.4243 39.3631 21.3713 39.4156C20.528 39.2041 20.2377 38.3313 19.9204 37.5931C19.1289 35.7124 18.9959 32.6968 19.683 30.5273C19.8668 29.9729 20.6605 28.2269 20.3426 27.6979C20.1831 27.1932 19.656 26.9049 19.3662 26.5064C19.0241 26.0039 18.6526 25.3703 18.4175 24.8136C17.7839 23.3328 17.4654 21.6919 16.7816 20.2111C16.4648 19.5221 15.9096 18.8077 15.4625 18.1741C14.9603 17.4596 14.4067 16.9572 14.0104 16.1116C13.8796 15.82 13.6947 15.3435 13.905 15.027C13.9569 14.815 14.064 14.7353 14.2754 14.6822C14.6164 14.3911 15.5939 14.7607 15.9361 14.9196C16.913 15.3152 17.7309 15.6877 18.5477 16.2422C18.9175 16.5072 19.3132 17.0097 19.7873 17.1431H20.3426C21.1864 17.3268 22.1369 17.1945 22.9289 17.4336C24.3263 17.883 25.5924 18.5443 26.7277 19.2587C30.1827 21.4545 33.0322 24.5768 34.9573 28.306C35.2747 28.9137 35.4077 29.4698 35.6975 30.1034C36.2516 31.4023 36.9382 32.7249 37.4912 33.9934C38.0447 35.2368 38.5735 36.5055 39.3661 37.5388C39.7607 38.0934 41.3441 38.3844 42.0567 38.6756C42.5832 38.9129 43.4022 39.1249 43.8774 39.4155C44.7743 39.97 45.6695 40.6059 46.515 41.2153C46.9361 41.5328 48.2558 42.1934 48.3353 42.7233" fill="white"/>
<path d="M43.2168 43.4644L43.4123 43.9247L43.4027 43.9286L43.2168 43.4644ZM42.1345 44.1257L41.7819 44.4802L41.6116 44.3109L41.6373 44.0721L42.1345 44.1257ZM42.5584 44.9728L42.9802 44.7043L42.984 44.7104L42.9877 44.7166L42.5584 44.9728ZM43.9293 46.5863L44.2266 46.1842L44.2329 46.189L43.9293 46.5863ZM45.6187 47.8017L45.3552 48.2267L45.3501 48.2234L45.6187 47.8017ZM48.8093 49.4433L49.0772 49.0211L49.0774 49.0212L48.8093 49.4433ZM50.5523 50.6867L50.8344 50.2739L50.841 50.2784L50.8475 50.2832L50.5523 50.6867ZM51.3956 51.3736H51.8956V52.0803L51.2292 51.8451L51.3956 51.3736ZM51.3956 51.2935L51.7892 50.9851L51.8956 51.1209V51.2935H51.3956ZM50.974 50.4461L51.327 50.092L51.3594 50.1243L51.3854 50.1619L50.974 50.4461ZM50.182 49.6806L49.8291 50.0348L49.8027 50.0085L49.7805 49.9786L50.182 49.6806ZM47.439 47.0098L47.7231 46.5982L47.7316 46.6043L47.439 47.0098ZM44.4045 44.6567L44.7607 44.3058L44.8394 44.3856L44.8764 44.4915L44.4045 44.6567ZM44.351 44.6026L43.9966 44.9553L43.2474 44.2025L44.3049 44.1047L44.351 44.6026ZM46.1723 44.1765L46.0331 43.6961L46.0442 43.6932L46.1723 44.1765ZM48.8093 43.7554L48.6848 43.2711L48.6871 43.2706L48.8093 43.7554ZM50.0783 43.3856H50.5783V43.7552L50.2249 43.8636L50.0783 43.3856ZM50.0783 43.1458L50.4309 42.7914L50.5783 42.938V43.1458H50.0783ZM48.758 41.5855L49.0853 41.2074L49.0918 41.2132L48.758 41.5855ZM44.4045 38.3316L44.14 38.7559L44.1332 38.7515L44.4045 38.3316ZM41.6593 37.0093L41.8845 36.5629L41.8891 36.5653L41.6593 37.0093ZM40.6316 36.5059L41.0188 36.1896L41.0309 36.2044L41.0418 36.22L40.6316 36.5059ZM39.5493 34.4691L39.9919 34.2363L39.9971 34.2467L39.5493 34.4691ZM37.3863 29.8659L37.8407 29.6567L37.8459 29.669L37.3863 29.8659ZM36.0408 26.851L35.6138 27.1112L35.6129 27.1097L36.0408 26.851ZM25.8303 16.9575L26.0778 16.523L26.084 16.5267L25.8303 16.9575ZM22.4542 15.8723L22.4752 15.3728L22.5225 15.3748L22.5686 15.3856L22.4542 15.8723ZM20.4751 15.7672L20.4554 16.2668L20.3606 16.2631L20.2737 16.2249L20.4751 15.7672ZM19.2608 14.8403L19.5281 14.4177L19.532 14.4202L19.2608 14.8403ZM12.7708 14.5497L13.234 14.7382L13.2328 14.7411L12.7708 14.5497ZM14.4332 18.8358L14.0307 19.1327L14.0227 19.1212L14.4332 18.8358ZM15.7777 20.8191L16.2321 20.6106L16.2363 20.6197L16.2401 20.629L15.7777 20.8191ZM16.201 22.2214L16.667 22.0396L16.6711 22.051L16.201 22.2214ZM17.5731 25.7669L17.1295 25.9978L17.128 25.9947L17.5731 25.7669ZM18.5477 27.4055L18.95 27.1086L18.952 27.1113L18.5477 27.4055ZM19.2084 28.3064L19.7016 28.2244L19.735 28.4252L19.6187 28.5922L19.2084 28.3064ZM18.6007 30.2903L18.1242 30.139L18.1243 30.1386L18.6007 30.2903ZM19.3662 39.1783L18.9444 39.4469L18.94 39.4397L19.3662 39.1783ZM22.1369 40.7381L21.9457 40.2761L21.951 40.2739L22.1369 40.7381ZM23.403 37.433L23.8884 37.5528L23.887 37.5585L23.403 37.433ZM23.5867 36.6922L23.1861 36.393L24.0867 35.1872V36.6922H23.5867ZM23.5867 36.7457L23.1394 36.969L23.0867 36.8635V36.7457H23.5867ZM24.6691 38.941L24.2465 39.2082L24.2288 39.1803L24.215 39.1504L24.6691 38.941ZM28.0998 42.4839L28.4014 42.0851L28.4016 42.0852L28.0998 42.4839ZM30.0243 44.0725H30.5243V44.7898L29.8513 44.5416L30.0243 44.0725ZM30.0243 43.9925V43.4925H30.5243V43.9925H30.0243ZM29.9724 43.9925V44.4925H29.7055L29.557 44.2708L29.9724 43.9925ZM29.3653 43.4642L29.0367 43.841L29.0235 43.8295L29.0111 43.8171L29.3653 43.4642ZM27.9932 41.8767L28.3936 41.5772L28.3982 41.5834L28.4026 41.5896L27.9932 41.8767ZM25.0394 37.062L25.4839 36.8331L25.4843 36.8338L25.0394 37.062ZM23.9041 34.5219L24.3514 34.2985L24.3588 34.3134L24.3653 34.3287L23.9041 34.5219ZM23.4819 33.5701L23.0689 33.2882L23.3346 32.8991L23.7388 33.1411L23.4819 33.5701ZM22.2163 35.3669L22.6795 35.5553L22.6768 35.5619L22.6739 35.5684L22.2163 35.3669ZM21.4762 39.3631L21.9722 39.4265L21.9294 39.7607L21.6036 39.8466L21.4762 39.3631ZM21.3713 39.4156L21.7235 39.7706L21.5233 39.9692L21.2497 39.9006L21.3713 39.4156ZM19.9204 37.5931L19.461 37.7905L19.4595 37.787L19.9204 37.5931ZM19.683 30.5273L19.2063 30.3763L19.2084 30.37L19.683 30.5273ZM20.3426 27.6979L19.914 27.9554L19.8836 27.9048L19.8658 27.8486L20.3426 27.6979ZM19.3662 26.5064L18.9618 26.8005L18.9573 26.7942L18.953 26.7878L19.3662 26.5064ZM18.4175 24.8136L18.8772 24.6169L18.8781 24.6191L18.4175 24.8136ZM16.7816 20.2111L16.3277 20.4207L16.3274 20.42L16.7816 20.2111ZM15.4625 18.1741L15.054 18.4623L15.0535 18.4616L15.4625 18.1741ZM14.0104 16.1116L13.5576 16.3238L13.5542 16.3162L14.0104 16.1116ZM13.905 15.027L14.3907 15.1458L14.3699 15.2308L14.3215 15.3036L13.905 15.027ZM14.2754 14.6822L14.6 15.0625L14.5109 15.1385L14.3972 15.1671L14.2754 14.6822ZM15.9361 14.9196L15.7484 15.383L15.7368 15.3783L15.7255 15.3731L15.9361 14.9196ZM18.5477 16.2422L18.8286 15.8283L18.839 15.8358L18.5477 16.2422ZM19.7873 17.1431V17.6431H19.7183L19.6519 17.6244L19.7873 17.1431ZM20.3426 17.1431V16.6431H20.3964L20.4489 16.6546L20.3426 17.1431ZM22.9289 17.4336L23.0734 16.9549L23.0819 16.9576L22.9289 17.4336ZM26.7277 19.2587L26.994 18.8355L26.9959 18.8367L26.7277 19.2587ZM34.9573 28.306L34.5141 28.5375L34.513 28.5354L34.9573 28.306ZM35.6975 30.1034L36.1523 29.8954L36.1573 29.9072L35.6975 30.1034ZM37.4912 33.9934L37.0344 34.1967L37.0328 34.1932L37.4912 33.9934ZM39.3661 37.5388L39.7628 37.2345L39.7683 37.2416L39.7735 37.2489L39.3661 37.5388ZM42.0567 38.6756L42.2458 38.2128L42.254 38.2161L42.2621 38.2198L42.0567 38.6756ZM43.8774 39.4155L44.1383 38.9889L44.1404 38.9902L43.8774 39.4155ZM46.515 41.2153L46.8074 40.8096L46.816 40.8161L46.515 41.2153ZM48.3227 43.2235C46.2459 43.1714 44.6911 43.3815 43.4122 43.9246L43.0213 43.0042C44.4854 42.3824 46.2013 42.17 48.3478 42.2238L48.3227 43.2235ZM43.4027 43.9286C43.269 43.9821 43.1231 44.0195 43.0143 44.0478C42.8924 44.0795 42.8032 44.1033 42.7274 44.1325C42.6522 44.1615 42.628 44.1824 42.6245 44.1859C42.6242 44.1862 42.6251 44.1853 42.6266 44.1832C42.6282 44.1811 42.6297 44.1785 42.631 44.1758C42.634 44.1695 42.6327 44.1689 42.6316 44.1792L41.6373 44.0721C41.6632 43.832 41.7641 43.6323 41.917 43.4792C42.0596 43.3364 42.2285 43.2531 42.3676 43.1995C42.5061 43.146 42.6527 43.1086 42.7623 43.0801C42.8852 43.0481 42.9667 43.026 43.0308 43.0003L43.4027 43.9286ZM42.487 43.7711C42.6779 43.9608 42.7682 44.1941 42.8242 44.3423C42.8902 44.5175 42.9222 44.6133 42.9802 44.7043L42.1366 45.2413C42.0085 45.04 41.9348 44.8179 41.8885 44.6954C41.8322 44.546 41.8036 44.5018 41.7819 44.4802L42.487 43.7711ZM42.9877 44.7166C43.287 45.218 43.7995 45.8685 44.2266 46.1843L43.6321 46.9884C43.0546 46.5614 42.4611 45.7856 42.129 45.229L42.9877 44.7166ZM44.2329 46.189C44.7892 46.6142 45.327 47.023 45.8874 47.38L45.3501 48.2234C44.7482 47.8399 44.1777 47.4054 43.6257 46.9836L44.2329 46.189ZM45.8823 47.3768C46.3658 47.6766 46.8845 47.9157 47.4339 48.1695C47.9735 48.4188 48.5441 48.6829 49.0772 49.0211L48.5415 49.8655C48.0734 49.5685 47.5629 49.3306 47.0145 49.0773C46.476 48.8286 45.8999 48.5644 45.3552 48.2267L45.8823 47.3768ZM49.0774 49.0212C49.3852 49.2167 49.688 49.4376 49.9784 49.6527C50.2734 49.8712 50.5533 50.0819 50.8344 50.2739L50.2703 51.0996C49.9691 50.8938 49.6686 50.6676 49.3833 50.4563C49.0933 50.2416 48.8158 50.0397 48.5413 49.8654L49.0774 49.0212ZM50.8475 50.2832C51.0342 50.4197 51.2073 50.6168 51.2977 50.7077C51.4107 50.8211 51.4846 50.8748 51.562 50.9021L51.2292 51.8451C50.9358 51.7415 50.7326 51.5575 50.589 51.4131C50.4228 51.2461 50.3596 51.1653 50.2572 51.0903L50.8475 50.2832ZM50.8956 51.3736V51.2935H51.8956V51.3736H50.8956ZM51.0021 51.6019C50.8577 51.4177 50.7748 51.2047 50.7193 51.0652C50.6546 50.9023 50.6159 50.8074 50.5626 50.7303L51.3854 50.1619C51.5159 50.3508 51.595 50.5609 51.6486 50.6959C51.7115 50.8542 51.7475 50.9319 51.7892 50.9851L51.0021 51.6019ZM50.621 50.8002C50.4941 50.6737 50.3664 50.5521 50.2338 50.4259C50.1024 50.3009 49.966 50.1713 49.8291 50.0348L50.5349 49.3264C50.6623 49.4534 50.7903 49.5752 50.923 49.7014C51.0545 49.8265 51.1906 49.956 51.327 50.092L50.621 50.8002ZM49.7805 49.9786C49.0496 48.9938 48.1372 48.1302 47.1464 47.4152L47.7316 46.6043C48.7938 47.3708 49.7833 48.3044 50.5835 49.3826L49.7805 49.9786ZM47.1548 47.4212C46.9635 47.2891 46.7086 47.1407 46.4064 46.9661C46.1116 46.7959 45.7795 46.6052 45.4621 46.4006C45.1455 46.1965 44.8274 45.9687 44.5612 45.718C44.2986 45.4708 44.0555 45.1729 43.9326 44.8219L44.8764 44.4915C44.9244 44.6284 45.0403 44.7956 45.2467 44.9899C45.4494 45.1808 45.7102 45.3708 46.0038 45.5601C46.2967 45.7488 46.6064 45.9269 46.9064 46.1001C47.1989 46.2691 47.4919 46.4387 47.7231 46.5983L47.1548 47.4212ZM44.4045 44.6567C44.0483 45.0076 44.0483 45.0076 44.0483 45.0076C44.0483 45.0076 44.0483 45.0076 44.0483 45.0076C44.0483 45.0076 44.0483 45.0076 44.0483 45.0076C44.0483 45.0076 44.0483 45.0076 44.0483 45.0076C44.0483 45.0076 44.0483 45.0076 44.0483 45.0075C44.0482 45.0075 44.0482 45.0074 44.0481 45.0073C44.0479 45.0071 44.0476 45.0068 44.0472 45.0064C44.0464 45.0057 44.0453 45.0045 44.0439 45.003C44.041 45.0001 44.0368 44.9959 44.0319 44.9909C44.0219 44.9808 44.009 44.9677 43.9966 44.9553L44.7054 44.2499C44.7189 44.2635 44.7327 44.2774 44.7431 44.2879C44.7483 44.2932 44.7526 44.2976 44.7557 44.3007C44.7573 44.3023 44.7585 44.3035 44.7593 44.3044C44.7598 44.3048 44.7601 44.3052 44.7603 44.3054C44.7604 44.3055 44.7605 44.3056 44.7606 44.3057C44.7606 44.3057 44.7606 44.3057 44.7607 44.3057C44.7607 44.3057 44.7607 44.3057 44.7607 44.3057C44.7607 44.3057 44.7607 44.3058 44.7607 44.3058C44.7607 44.3058 44.7607 44.3058 44.7607 44.3058C44.7607 44.3058 44.7607 44.3058 44.4045 44.6567ZM44.3049 44.1047C44.8262 44.0565 45.4572 43.8632 46.0331 43.6962L46.3115 44.6567C45.7803 44.8107 45.037 45.0413 44.397 45.1005L44.3049 44.1047ZM46.0442 43.6932C46.5345 43.5632 46.9998 43.5142 47.4276 43.4687C47.8636 43.4224 48.2637 43.3794 48.6848 43.2711L48.9338 44.2396C48.4316 44.3688 47.9611 44.4176 47.5333 44.4631C47.0974 44.5095 46.7058 44.5523 46.3004 44.6598L46.0442 43.6932ZM48.6871 43.2706C49.0944 43.1679 49.5016 43.0395 49.9316 42.9076L50.2249 43.8636C49.8071 43.9917 49.3698 44.1297 48.9316 44.2402L48.6871 43.2706ZM49.5783 43.3856V43.1458H50.5783V43.3856H49.5783ZM49.7256 43.5002C49.4564 43.2323 49.2282 42.9218 49.0283 42.6577C48.8189 42.381 48.6344 42.1462 48.4243 41.9578L49.0918 41.2132C49.3828 41.4741 49.6197 41.782 49.8257 42.0543C50.0414 42.3392 50.2227 42.5842 50.4309 42.7914L49.7256 43.5002ZM48.4308 41.9636C47.1008 40.8125 45.6426 39.6926 44.14 38.7559L44.669 37.9073C46.2262 38.8781 47.7264 40.0315 49.0852 41.2075L48.4308 41.9636ZM44.1332 38.7515C43.7601 38.5105 43.3236 38.3061 42.8507 38.099C42.3905 37.8975 41.8839 37.6886 41.4294 37.4533L41.8891 36.5653C42.3055 36.7808 42.762 36.9685 43.2519 37.183C43.7292 37.3921 44.2299 37.6234 44.6759 37.9116L44.1332 38.7515ZM41.434 37.4557C41.3861 37.4315 41.3201 37.4057 41.2265 37.3728C41.1449 37.3443 41.0243 37.3045 40.9216 37.266C40.7337 37.1958 40.4129 37.0665 40.2214 36.7919L41.0418 36.22C41.0358 36.2114 41.0712 36.2543 41.272 36.3295C41.3637 36.3638 41.4455 36.39 41.5572 36.4291C41.6568 36.464 41.7748 36.5076 41.8845 36.5629L41.434 37.4557ZM40.2444 36.8222C39.9696 36.4858 39.7644 36.1072 39.5899 35.7443C39.5025 35.5625 39.4196 35.3775 39.3403 35.2022C39.2599 35.0243 39.1825 34.8547 39.1015 34.6915L39.9971 34.2467C40.0871 34.4279 40.1712 34.6125 40.2515 34.7902C40.333 34.9704 40.4102 35.1425 40.4912 35.3111C40.6536 35.6489 40.8184 35.9443 41.0188 36.1896L40.2444 36.8222ZM39.1068 34.7019C38.3341 33.2328 37.5882 31.6067 36.9267 30.0628L37.8459 29.669C38.5013 31.1987 39.2357 32.7988 39.9918 34.2364L39.1068 34.7019ZM36.9322 30.075C36.6883 29.5453 36.4872 29.0048 36.2898 28.5166C36.0881 28.0179 35.8825 27.5522 35.6138 27.1112L36.4677 26.5909C36.7797 27.1028 37.0095 27.629 37.2168 28.1418C37.4284 28.665 37.6097 29.1555 37.8405 29.6568L36.9322 30.075ZM35.6129 27.1097C32.9423 22.6915 30.0525 20.0242 25.5766 17.3884L26.084 16.5267C30.6838 19.2355 33.7017 22.0146 36.4687 26.5924L35.6129 27.1097ZM25.5828 17.392C24.6844 16.8802 23.6101 16.6575 22.3399 16.3591L22.5686 15.3856C23.7765 15.6694 25.0235 15.9225 26.0778 16.5231L25.5828 17.392ZM22.4333 16.3719C22.0978 16.3578 21.7633 16.3378 21.4346 16.3183C21.1043 16.2987 20.7794 16.2796 20.4554 16.2668L20.4948 15.2676C20.8302 15.2808 21.1646 15.3005 21.4938 15.32C21.8246 15.3397 22.15 15.3591 22.4752 15.3728L22.4333 16.3719ZM20.2737 16.2249C19.9835 16.0972 19.7198 15.8754 19.5187 15.6998C19.2898 15.4998 19.134 15.3535 18.9897 15.2604L19.532 14.4202C19.7563 14.565 19.9963 14.7892 20.1766 14.9467C20.3848 15.1285 20.5438 15.2512 20.6764 15.3095L20.2737 16.2249ZM18.9935 15.2628C18.2534 14.7946 16.9668 14.0788 15.7567 13.804C15.1522 13.6668 14.6172 13.6517 14.1944 13.7879C13.7973 13.9158 13.4575 14.189 13.2339 14.7382L12.3077 14.3613C12.6386 13.5483 13.1992 13.0578 13.8878 12.836C14.5507 12.6226 15.2869 12.6719 15.9781 12.8289C17.3597 13.1425 18.7637 13.9341 19.5281 14.4177L18.9935 15.2628ZM13.2328 14.7411C12.9646 15.3886 13.1418 16.0662 13.5408 16.7616C13.7377 17.1047 13.9764 17.4302 14.2117 17.7325C14.4351 18.0195 14.682 18.3177 14.8437 18.5503L14.0227 19.1212C13.8809 18.9172 13.6791 18.6763 13.4226 18.3467C13.1779 18.0324 12.9054 17.6635 12.6735 17.2593C12.215 16.4602 11.8645 15.4314 12.3089 14.3584L13.2328 14.7411ZM14.8356 18.539C15.2515 19.1029 15.8885 19.8618 16.2321 20.6106L15.3232 21.0276C15.0366 20.4029 14.5112 19.7838 14.0308 19.1325L14.8356 18.539ZM16.2401 20.629C16.3481 20.8917 16.4153 21.157 16.4738 21.3878C16.5347 21.6282 16.5873 21.8358 16.6668 22.0396L15.7352 22.4031C15.6293 22.1316 15.5626 21.863 15.5045 21.6335C15.4439 21.3945 15.3921 21.1964 15.3152 21.0091L16.2401 20.629ZM16.6711 22.051C17.106 23.2512 17.482 24.4912 18.0182 25.5392L17.128 25.9947C16.5537 24.8723 16.1394 23.519 15.7309 22.3917L16.6711 22.051ZM18.0166 25.5361C18.3054 26.091 18.6062 26.6428 18.95 27.1086L18.1455 27.7024C17.7508 27.1678 17.4191 26.5541 17.1296 25.9978L18.0166 25.5361ZM18.952 27.1113C18.9765 27.145 19.0113 27.182 19.0695 27.2358C19.1154 27.2783 19.2096 27.3608 19.2822 27.4336C19.4554 27.6073 19.6391 27.8489 19.7016 28.2244L18.7152 28.3885C18.6982 28.2864 18.6581 28.2239 18.5741 28.1397C18.5181 28.0836 18.4754 28.0487 18.3899 27.9694C18.3166 27.9015 18.2255 27.8124 18.1435 27.6997L18.952 27.1113ZM19.6187 28.5922C19.4931 28.7725 19.4104 29.022 19.333 29.36C19.2633 29.6638 19.1906 30.0858 19.0771 30.4421L18.1243 30.1386C18.2216 29.833 18.2687 29.5273 18.3582 29.1367C18.4399 28.7804 18.5556 28.3689 18.7981 28.0207L19.6187 28.5922ZM19.0773 30.4417C18.1647 33.3155 18.5339 36.8644 19.7925 38.9169L18.94 39.4397C17.5063 37.1017 17.1382 33.244 18.1242 30.139L19.0773 30.4417ZM19.788 38.9097C19.9963 39.2368 20.3152 39.7034 20.7169 40.0243C21.1058 40.3349 21.5012 40.4601 21.9457 40.2761L22.3281 41.2001C21.427 41.573 20.6476 41.2488 20.0928 40.8056C19.5509 40.3728 19.1573 39.781 18.9445 39.4469L19.788 38.9097ZM21.951 40.2739C22.3118 40.1295 22.4845 39.8418 22.5971 39.3011C22.6545 39.0254 22.6878 38.725 22.7314 38.3779C22.7736 38.042 22.8245 37.6719 22.919 37.3075L23.887 37.5585C23.8101 37.855 23.7655 38.169 23.7236 38.5025C23.6831 38.8248 23.644 39.1789 23.5761 39.5049C23.4381 40.1675 23.1491 40.8714 22.3227 41.2023L21.951 40.2739ZM22.9175 37.3132C22.9488 37.1867 22.9467 37.1225 22.9699 36.9538C22.9913 36.7984 23.0342 36.5964 23.1861 36.393L23.9873 36.9914C23.9814 36.9993 23.9719 37.0079 23.9606 37.0901C23.9511 37.1591 23.9361 37.3596 23.8884 37.5528L22.9175 37.3132ZM24.0867 36.6922V36.7457H23.0867V36.6922H24.0867ZM24.0341 36.5224C24.3985 37.2524 24.776 37.979 25.1231 38.7316L24.215 39.1504C23.8766 38.4165 23.5134 37.7182 23.1394 36.969L24.0341 36.5224ZM25.0916 38.6737C25.8663 39.8984 27.2384 41.2057 28.4014 42.0851L27.7982 42.8827C26.5846 41.9649 25.1099 40.5733 24.2465 39.2082L25.0916 38.6737ZM28.4016 42.0852C28.7527 42.3511 29.0874 42.7284 29.3542 42.993C29.6477 43.2843 29.9075 43.4965 30.1973 43.6034L29.8513 44.5416C29.3496 44.3566 28.9629 44.0135 28.6498 43.7029C28.31 43.3657 28.0782 43.0947 27.798 42.8825L28.4016 42.0852ZM29.5243 44.0725V43.9925H30.5243V44.0725H29.5243ZM30.0243 44.4925H29.9724V43.4925H30.0243V44.4925ZM29.557 44.2708C29.5232 44.2204 29.4757 44.1741 29.3879 44.108C29.32 44.0569 29.1588 43.9475 29.0367 43.841L29.6939 43.0874C29.7832 43.1652 29.8461 43.2013 29.9892 43.309C30.1123 43.4016 30.2627 43.5274 30.3879 43.7143L29.557 44.2708ZM29.0111 43.8171C28.5275 43.3316 27.9784 42.7263 27.5839 42.1639L28.4026 41.5896C28.7499 42.0847 29.2538 42.6438 29.7195 43.1113L29.0111 43.8171ZM27.5929 42.1762C26.4642 40.6674 25.4724 39.001 24.5946 37.2903L25.4843 36.8338C26.3438 38.5087 27.3069 40.1245 28.3936 41.5772L27.5929 42.1762ZM24.5949 37.291C24.1605 36.4474 23.7833 35.5277 23.4429 34.7151L24.3653 34.3287C24.7115 35.1553 25.0717 36.0327 25.4839 36.8331L24.5949 37.291ZM23.4568 34.7454C23.3967 34.625 23.3571 34.501 23.3281 34.4002C23.3134 34.3489 23.2997 34.2974 23.2878 34.2528C23.2754 34.2063 23.2646 34.1662 23.2534 34.1285C23.2302 34.0501 23.2126 34.0067 23.1992 33.9824C23.1876 33.9613 23.1928 33.9798 23.225 33.9991L23.7388 33.1411C24.0548 33.3304 24.1619 33.674 24.2125 33.8452C24.2277 33.8969 24.2416 33.9486 24.2539 33.9945C24.2667 34.0423 24.2777 34.0837 24.2893 34.1242C24.313 34.2067 24.3326 34.2609 24.3514 34.2985L23.4568 34.7454ZM23.8948 33.852C23.6824 34.1632 23.4048 34.4757 23.199 34.7323C22.9778 35.0081 22.7968 35.267 22.6795 35.5553L21.7532 35.1784C21.9257 34.7547 22.179 34.4058 22.4189 34.1067C22.6742 33.7882 22.8845 33.5584 23.0689 33.2882L23.8948 33.852ZM22.6739 35.5684C22.4496 36.0775 22.3191 36.6614 22.2226 37.3188C22.1228 37.9983 22.0703 38.6582 21.9722 39.4265L20.9802 39.2997C21.0681 38.6123 21.1348 37.8435 21.2332 37.1735C21.3348 36.4815 21.4814 35.795 21.7588 35.1653L22.6739 35.5684ZM21.6036 39.8466C21.5664 39.8564 21.5401 39.8621 21.5209 39.8659C21.5189 39.8663 21.5171 39.8666 21.5158 39.8669C21.5142 39.8672 21.5137 39.8673 21.5131 39.8674C21.5114 39.8678 21.5146 39.8671 21.5193 39.8661C21.5238 39.8651 21.5359 39.8623 21.5516 39.8576C21.5679 39.8527 21.5925 39.8443 21.6209 39.8306C21.6509 39.8162 21.6803 39.7983 21.7081 39.7768C21.7348 39.7561 21.7545 39.7364 21.7672 39.7227C21.7789 39.7101 21.7871 39.6998 21.7887 39.6978C21.789 39.6974 21.7927 39.6927 21.7881 39.6985C21.7824 39.7058 21.7734 39.7169 21.7614 39.7306C21.7497 39.7438 21.7372 39.757 21.7235 39.7706L21.0192 39.0607C21.016 39.0639 21.0092 39.0713 21.0026 39.0797C20.9936 39.0911 21.0141 39.0642 21.0331 39.0437C21.0663 39.0078 21.1166 38.9635 21.1877 38.9294C21.2439 38.9024 21.293 38.892 21.3025 38.8899C21.3102 38.8882 21.3168 38.8869 21.3191 38.8864C21.3235 38.8855 21.3227 38.8857 21.3252 38.8852C21.3272 38.8848 21.3336 38.8836 21.3488 38.8796L21.6036 39.8466ZM21.2497 39.9006C20.6647 39.7539 20.2885 39.3755 20.0286 38.9732C19.7812 38.5902 19.606 38.1278 19.461 37.7905L20.3797 37.3956C20.5521 37.7966 20.6807 38.1397 20.8686 38.4306C21.0441 38.7021 21.2347 38.8659 21.493 38.9307L21.2497 39.9006ZM19.4595 37.787C18.6195 35.791 18.4853 32.6528 19.2064 30.3764L20.1597 30.6783C19.5064 32.7408 19.6383 35.6337 20.3812 37.3991L19.4595 37.787ZM19.2084 30.37C19.259 30.2175 19.3505 29.9854 19.4411 29.7476C19.5357 29.4996 19.638 29.2237 19.7244 28.9517C19.8118 28.6765 19.8769 28.4237 19.9038 28.2198C19.9347 27.986 19.8989 27.9303 19.914 27.9554L20.7711 27.4403C20.9452 27.73 20.9295 28.0909 20.8952 28.3506C20.857 28.6402 20.7717 28.9577 20.6775 29.2544C20.5822 29.5544 20.4716 29.852 20.3755 30.1038C20.2756 30.3659 20.199 30.56 20.1577 30.6846L19.2084 30.37ZM19.8658 27.8486C19.8249 27.7191 19.7294 27.5928 19.5525 27.4187C19.4051 27.2735 19.1391 27.0442 18.9618 26.8005L19.7706 26.2124C19.8832 26.3671 20.0256 26.4811 20.254 26.706C20.4529 26.9018 20.7007 27.172 20.8193 27.5472L19.8658 27.8486ZM18.953 26.7878C18.5993 26.2686 18.209 25.6051 17.9569 25.0081L18.8781 24.6191C19.0962 25.1355 19.4488 25.7393 19.7795 26.225L18.953 26.7878ZM17.9578 25.0103C17.629 24.2417 17.383 23.4342 17.1412 22.6617C16.8963 21.8794 16.6543 21.128 16.3277 20.4207L17.2356 20.0015C17.5928 20.775 17.8518 21.5844 18.0956 22.363C18.3423 23.1513 18.5725 23.9047 18.8772 24.6169L17.9578 25.0103ZM16.3274 20.42C16.0358 19.7858 15.5243 19.1289 15.054 18.4623L15.8711 17.8858C16.2948 18.4864 16.8939 19.2584 17.2359 20.0022L16.3274 20.42ZM15.0535 18.4616C14.8112 18.1169 14.5745 17.8474 14.3029 17.5C14.0413 17.1655 13.7785 16.7949 13.5577 16.3238L14.4632 15.8994C14.6387 16.2739 14.8508 16.5773 15.0906 16.884C15.3204 17.1779 15.6117 17.5168 15.8716 17.8865L15.0535 18.4616ZM13.5542 16.3162C13.4858 16.1636 13.386 15.9266 13.3383 15.67C13.2918 15.4203 13.2788 15.0661 13.4885 14.7503L14.3215 15.3036C14.321 15.3044 14.2953 15.3467 14.3214 15.4872C14.3463 15.6209 14.4043 15.7679 14.4667 15.907L13.5542 16.3162ZM13.4193 14.9081C13.4612 14.7369 13.5406 14.5614 13.6982 14.4213C13.8464 14.2895 14.0177 14.2314 14.1535 14.1973L14.3972 15.1671C14.3801 15.1714 14.3672 15.1752 14.3576 15.1784C14.348 15.1815 14.3428 15.1837 14.3408 15.1846C14.3388 15.1855 14.3406 15.1849 14.3448 15.1822C14.3491 15.1795 14.3554 15.1751 14.3626 15.1687C14.3698 15.1623 14.3766 15.155 14.3825 15.1475C14.3884 15.14 14.3924 15.1336 14.3947 15.1292C14.3991 15.1211 14.3961 15.1236 14.3907 15.1458L13.4193 14.9081ZM13.9508 14.3019C14.1628 14.1209 14.4242 14.0794 14.6175 14.0743C14.821 14.069 15.0314 14.1021 15.2174 14.1449C15.591 14.2308 15.9548 14.377 16.1466 14.466L15.7255 15.3731C15.5752 15.3033 15.2791 15.1852 14.9932 15.1194C14.8495 15.0864 14.7301 15.0717 14.6437 15.074C14.5472 15.0765 14.5585 15.0979 14.6 15.0625L13.9508 14.3019ZM16.1237 14.4561C17.1108 14.8559 17.9676 15.2441 18.8286 15.8285L18.2669 16.6558C17.4942 16.1313 16.7151 15.7745 15.7484 15.383L16.1237 14.4561ZM18.839 15.8358C19.0448 15.9833 19.296 16.2269 19.454 16.3626C19.65 16.5307 19.7975 16.6265 19.9227 16.6618L19.6519 17.6244C19.3031 17.5263 19.0157 17.3042 18.8028 17.1214C18.552 16.9063 18.4205 16.7661 18.2564 16.6485L18.839 15.8358ZM19.7873 16.6431H20.3426V17.6431H19.7873V16.6431ZM20.4489 16.6546C20.8197 16.7353 21.2186 16.7476 21.6775 16.7681C22.1144 16.7876 22.6095 16.8149 23.0734 16.955L22.7844 17.9123C22.4562 17.8132 22.0801 17.7871 21.6328 17.7671C21.2075 17.7481 20.7093 17.7346 20.2362 17.6317L20.4489 16.6546ZM23.0819 16.9576C24.5309 17.4236 25.8356 18.1065 26.994 18.8355L26.4614 19.6819C25.3492 18.982 24.1217 18.3424 22.7758 17.9096L23.0819 16.9576ZM26.9959 18.8367C30.5268 21.0808 33.4366 24.27 35.4016 28.0767L34.513 28.5354C32.6279 24.8835 29.8386 21.8283 26.4595 19.6807L26.9959 18.8367ZM35.4005 28.0746C35.5746 28.4079 35.6962 28.7238 35.8065 29.0211C35.9187 29.3234 36.0169 29.5996 36.1522 29.8955L35.2427 30.3114C35.0883 29.9736 34.9751 29.655 34.869 29.3689C34.761 29.0778 34.6574 28.8118 34.5141 28.5375L35.4005 28.0746ZM36.1573 29.9072C36.4298 30.5459 36.7358 31.1926 37.0462 31.8449C37.3551 32.4941 37.669 33.1501 37.9495 33.7936L37.0328 34.1932C36.7603 33.5681 36.4544 32.9286 36.1432 32.2746C35.8336 31.6238 35.5192 30.9597 35.2376 30.2996L36.1573 29.9072ZM37.948 33.79C38.5118 35.0566 39.0148 36.2593 39.7628 37.2345L38.9693 37.8431C38.1322 36.7517 37.5777 35.4171 37.0344 34.1967L37.948 33.79ZM39.7735 37.2489C39.8015 37.2883 39.8874 37.3657 40.0801 37.4641C40.2623 37.5572 40.4921 37.6454 40.7506 37.7317C41.0086 37.8179 41.275 37.8958 41.5356 37.9744C41.7874 38.0504 42.0423 38.1296 42.2458 38.2128L41.8675 39.1384C41.7147 39.076 41.5045 39.0096 41.2467 38.9318C40.9977 38.8566 40.7099 38.7725 40.4337 38.6802C40.1579 38.5881 39.8733 38.4813 39.6254 38.3547C39.388 38.2335 39.128 38.0666 38.9587 37.8287L39.7735 37.2489ZM42.2621 38.2198C42.502 38.3279 42.8066 38.4293 43.1559 38.5552C43.4821 38.6728 43.8514 38.8135 44.1383 38.9889L43.6166 39.842C43.4282 39.7268 43.1505 39.6163 42.8167 39.4959C42.5061 39.3839 42.1379 39.2606 41.8512 39.1314L42.2621 38.2198ZM44.1404 38.9902C45.0538 39.555 45.9617 40.2002 46.8074 40.8097L46.2227 41.621C45.3773 41.0116 44.4948 40.3851 43.6145 39.8407L44.1404 38.9902ZM46.816 40.8161C46.8994 40.8789 47.038 40.9661 47.2305 41.0861C47.4129 41.1998 47.6299 41.3349 47.8374 41.4782C48.0427 41.62 48.257 41.7822 48.43 41.9551C48.5881 42.1131 48.7849 42.3505 48.8297 42.6491L47.8408 42.7974C47.8458 42.831 47.8479 42.7872 47.7231 42.6624C47.6131 42.5525 47.4563 42.4303 47.2691 42.3011C47.0841 42.1733 46.8873 42.0506 46.7013 41.9346C46.5254 41.8249 46.3412 41.7105 46.214 41.6146L46.816 40.8161Z" fill="white" mask="url(#path-2-outside-1_65_2782)"/>
<path d="M21.4238 19.5825H21.486L21.53 19.6266C21.603 19.6998 21.6924 19.761 21.7959 19.8319C21.8249 19.8518 21.8551 19.8724 21.8863 19.8943C22.0181 19.9867 22.1652 20.0997 22.2618 20.2583C22.328 20.352 22.3709 20.4457 22.4076 20.5259C22.4122 20.536 22.4167 20.5459 22.4212 20.5556C22.4627 20.6453 22.5018 20.7224 22.5677 20.7994L22.6037 20.8415V20.8969C22.6037 21.5562 22.4126 22.0309 21.9969 22.332L21.9906 22.3388C21.9805 22.3496 21.9666 22.3641 21.9522 22.3785L21.8047 22.5264L21.7117 22.3394C21.6095 22.1338 21.5134 21.929 21.4182 21.726C21.4143 21.7179 21.4105 21.7098 21.4067 21.7016C21.3091 21.4936 21.2122 21.2875 21.1089 21.0812C21.0129 20.947 20.903 20.8243 20.7863 20.6939C20.753 20.6567 20.7191 20.6189 20.6848 20.5799C20.5502 20.4271 20.4132 20.2615 20.3036 20.0685H20.192V19.9185V19.8654V19.7479L20.3061 19.7197C20.6339 19.6389 20.9618 19.5825 21.4238 19.5825Z" fill="white" stroke="white" stroke-width="0.3"/>
</svg>
