<svg width="64" height="65" viewBox="0 0 64 65" fill="none" xmlns="http://www.w3.org/2000/svg">
<g clip-path="url(#clip0_53_2625)">
<path fill-rule="evenodd" clip-rule="evenodd" d="M58.9508 49.5083C55.4669 49.4209 52.7689 49.7695 50.5061 50.7305C49.8532 50.9921 48.8097 50.9921 48.7204 51.8214C49.071 52.17 49.1129 52.7369 49.4198 53.2191C49.9406 54.0919 50.853 55.2685 51.6816 55.8811C52.5959 56.5798 53.5101 57.2755 54.469 57.8864C56.1654 58.9384 58.0812 59.5468 59.733 60.5947C60.6937 61.2049 61.6479 61.9899 62.6087 62.6463C63.0858 62.9952 63.388 63.5635 64 63.7795V63.6473C63.6931 63.2557 63.6075 62.6882 63.3043 62.2492C62.87 61.8162 62.4338 61.4209 61.9976 60.9863C60.7346 59.2845 59.1657 57.8019 57.4721 56.5798C56.0779 55.6171 53.0293 54.3075 52.4657 52.6975C52.4657 52.6975 52.4201 52.6513 52.3773 52.6083C53.3353 52.5197 54.469 52.17 55.3823 51.9053C56.8601 51.5136 58.2096 51.6022 59.733 51.2105C60.4305 51.0347 61.1271 50.815 61.8265 50.6004V50.2048C61.0388 49.421 60.4751 48.3719 59.6483 47.6306C57.4302 45.7109 54.9898 43.8356 52.4657 42.262C51.1143 41.3889 49.3733 40.8243 47.9364 40.0805C47.4165 39.8182 46.5469 39.6889 46.2409 39.25C45.4569 38.2901 45.0198 37.0261 44.4552 35.8896C43.1941 33.4918 41.973 30.8304 40.8867 28.2948C40.1036 26.5939 39.6246 24.893 38.6667 23.3208C34.1811 15.8998 29.3077 11.407 21.8209 6.99801C20.2101 6.08041 18.2951 5.68782 16.2509 5.20758C15.1609 5.16188 14.0737 5.07703 12.9855 5.03413C12.288 4.72733 11.5905 3.89739 10.9822 3.5048C8.49995 1.93444 2.10408 -1.46925 0.274694 3.02548C-0.900874 5.86407 2.01573 8.65603 3.01738 10.0968C3.75675 11.0992 4.71564 12.236 5.23553 13.369C5.54059 14.1113 5.628 14.8983 5.93399 15.6825C6.62966 17.6026 7.28161 19.7418 8.1977 21.5322C8.67481 22.4489 9.19656 23.4103 9.80574 24.2356C10.1573 24.7186 10.7646 24.9341 10.8957 25.722C10.2884 26.5939 10.241 27.9032 9.89316 28.9952C8.32697 33.9273 8.93521 40.0371 11.1561 43.659C11.8509 44.75 13.5073 47.1512 15.7273 46.2325C17.6859 45.4483 17.2507 42.9604 17.8162 40.7795C17.9464 40.252 17.8589 39.906 18.1193 39.5573V39.6455C18.7285 40.8658 19.3396 42.0413 19.905 43.2674C21.2564 45.4038 23.6047 47.6302 25.5652 49.1127C26.6069 49.9014 27.4346 51.2521 28.7404 51.7337V51.6018H28.6548C28.3925 51.2102 28.0019 51.0343 27.6532 50.7301C26.8701 49.944 26.0014 48.9834 25.3895 48.111C23.5619 45.6679 21.9492 42.9604 20.5161 40.1675C19.8176 38.8113 19.2093 37.3288 18.643 35.9767C18.3825 35.4554 18.3825 34.6675 17.9464 34.4063C17.2916 35.3654 16.3365 36.1959 15.8584 37.3707C15.0307 39.2496 14.9442 41.5623 14.6373 43.9639C14.4643 44.0095 14.5517 43.9639 14.4643 44.0506C13.0729 43.7017 12.594 42.2616 12.0704 41.0436C10.7646 37.9407 10.5451 32.9655 11.6788 29.3862C11.982 28.4714 13.2915 25.5908 12.767 24.718C12.5038 23.8853 11.6342 23.4097 11.1561 22.7523C10.5916 21.9232 9.97872 20.8779 9.59089 19.9594C8.54553 17.5162 8.02006 14.8091 6.89192 12.3659C6.36924 11.2291 5.45315 10.0504 4.71563 9.00508C3.88696 7.82638 2.97366 6.99737 2.31985 5.60233C2.10407 5.12115 1.79902 4.33503 2.14593 3.81282C2.23149 3.46312 2.4082 3.33163 2.75696 3.24397C3.31964 2.76374 4.93232 3.3736 5.49685 3.63564C7.10861 4.2884 8.4581 4.90292 9.80573 5.81772C10.4158 6.25506 11.0687 7.08409 11.8509 7.30416H12.767C14.1592 7.60723 15.7273 7.38902 17.034 7.78347C19.3395 8.52483 21.4284 9.61586 23.3015 10.7946C29.0017 14.4174 33.703 19.5686 36.8791 25.7214C37.4027 26.7238 37.6222 27.6414 38.1003 28.6868C39.0145 30.8297 40.1473 33.0118 41.0597 35.1047C41.973 37.1562 42.8453 39.2493 44.153 40.9541C44.804 41.869 47.4165 42.3492 48.592 42.8296C49.4607 43.2212 50.812 43.5709 51.5961 44.0503C53.0757 44.9653 54.5527 46.0144 55.9477 47.0198C56.6424 47.5436 58.8197 48.6334 58.9508 49.5077" fill="#00758F"/>
<path fill-rule="evenodd" clip-rule="evenodd" d="M14.5508 11.5763C13.8123 11.5763 13.2915 11.6658 12.7661 11.7955V11.8831H12.8507C13.2022 12.5797 13.8123 13.0637 14.2439 13.6735C14.5945 14.372 14.8995 15.0676 15.2474 15.767C15.2902 15.7241 15.332 15.6784 15.332 15.6784C15.9458 15.2439 16.25 14.5464 16.25 13.4973C15.9868 13.1895 15.9458 12.8865 15.7263 12.5797C15.4659 12.1442 14.8996 11.926 14.5508 11.5763Z" fill="#00758F"/>
</g>
<defs>
<clipPath id="clip0_53_2625">
<rect width="64" height="64" fill="white" transform="translate(0 0.193115)"/>
</clipPath>
</defs>
</svg>
