<svg width="64" height="65" viewBox="0 0 64 65" fill="none" xmlns="http://www.w3.org/2000/svg">
<path d="M31.6324 51.39C31.4184 51.391 31.208 51.3351 31.0227 51.228L29.0968 50.0835C28.8085 49.9223 28.9496 49.8649 29.0446 49.8318C29.3503 49.7364 29.6429 49.6032 29.9156 49.4354C29.9383 49.4249 29.9634 49.4203 29.9884 49.4221C30.0134 49.4239 30.0375 49.4321 30.0585 49.4459L31.5392 50.3265C31.5669 50.3411 31.5977 50.3487 31.6289 50.3487C31.6602 50.3487 31.691 50.3411 31.7186 50.3265L37.4979 46.9904C37.5248 46.9741 37.5469 46.951 37.5621 46.9235C37.5774 46.896 37.5853 46.8651 37.585 46.8337V40.1668C37.5852 40.135 37.5774 40.1037 37.5621 40.0758C37.5469 40.0479 37.5248 40.0244 37.4979 40.0074L31.723 36.6696C31.6963 36.6548 31.6664 36.647 31.6359 36.647C31.6054 36.647 31.5754 36.6548 31.5488 36.6696L25.773 40.0039C25.7452 40.02 25.722 40.0432 25.7058 40.0709C25.6897 40.0987 25.681 40.1303 25.6806 40.1624V46.8319C25.6799 46.8632 25.6876 46.8941 25.7029 46.9214C25.7182 46.9487 25.7406 46.9713 25.7677 46.987L27.3513 47.9015C28.2101 48.331 28.7362 47.8249 28.7362 47.3171V40.7356C28.7362 40.7136 28.7406 40.6918 28.7491 40.6715C28.7575 40.6512 28.7699 40.6328 28.7856 40.6173C28.8012 40.6018 28.8197 40.5896 28.8401 40.5814C28.8605 40.5731 28.8823 40.569 28.9043 40.5692H29.6369C29.6588 40.5691 29.6805 40.5733 29.7008 40.5816C29.7211 40.5899 29.7395 40.6021 29.7551 40.6176C29.7706 40.6331 29.783 40.6514 29.7914 40.6717C29.7998 40.6919 29.8041 40.7136 29.8041 40.7356V47.3214C29.8348 47.5576 29.8125 47.7976 29.7388 48.024C29.6651 48.2505 29.5418 48.4576 29.378 48.6304C29.2141 48.8032 29.0138 48.9373 28.7916 49.0229C28.5694 49.1085 28.3308 49.1435 28.0934 49.1253C27.6243 49.1334 27.1627 49.0078 26.7625 48.763L25.2469 47.892C25.0617 47.785 24.9079 47.6313 24.8008 47.4462C24.6938 47.261 24.6374 47.051 24.6371 46.8371V40.1668C24.6375 39.9531 24.694 39.7432 24.801 39.5583C24.9081 39.3733 25.0618 39.2197 25.2469 39.1128L31.027 35.7733C31.2133 35.6717 31.422 35.6184 31.6342 35.6184C31.8463 35.6184 32.055 35.6717 32.2413 35.7733L38.0206 39.1128C38.2056 39.2197 38.3594 39.3733 38.4664 39.5583C38.5734 39.7432 38.6299 39.9531 38.6303 40.1668V46.8363C38.6301 47.0501 38.5736 47.2601 38.4666 47.4453C38.3596 47.6304 38.2058 47.7842 38.0206 47.8911L32.2413 51.228C32.0561 51.3348 31.8461 51.3907 31.6324 51.39Z" fill="white"/>
<path d="M33.418 46.7944C30.892 46.7944 30.359 45.6334 30.359 44.6604C30.3588 44.6384 30.3631 44.6166 30.3714 44.5963C30.3798 44.5759 30.3921 44.5574 30.4077 44.5419C30.4232 44.5263 30.4417 44.514 30.4621 44.5057C30.4824 44.4973 30.5042 44.4931 30.5262 44.4932H31.2735C31.3135 44.4931 31.3522 44.5074 31.3826 44.5335C31.413 44.5595 31.433 44.5956 31.439 44.6351C31.5523 45.3956 31.8885 45.7797 33.418 45.7797C34.6375 45.7797 35.154 45.5044 35.154 44.8581C35.154 44.4862 35.0068 44.2092 33.1149 44.0237C31.5331 43.8678 30.5549 43.5185 30.5549 42.2529C30.5549 41.0866 31.5383 40.3915 33.1863 40.3915C35.0381 40.3915 35.9536 41.0343 36.0703 42.4131C36.0721 42.4364 36.0691 42.4598 36.0615 42.4818C36.0539 42.5039 36.0417 42.5241 36.0259 42.5412C36.0104 42.5581 35.9915 42.5716 35.9705 42.5809C35.9496 42.5902 35.9269 42.595 35.9039 42.5952H35.1531C35.1153 42.5949 35.0787 42.5819 35.0493 42.5581C35.0199 42.5344 34.9994 42.5014 34.9911 42.4645C34.8117 41.6641 34.3735 41.408 33.1863 41.408C31.8571 41.408 31.7056 41.8714 31.7056 42.218C31.7056 42.6387 31.8885 42.7607 33.6828 43.002C35.4597 43.2363 36.3029 43.569 36.3029 44.8172C36.3029 46.0654 35.2498 46.7944 33.418 46.7944Z" fill="white"/>
<path d="M41.7555 39.7992C41.7555 40.0196 41.6902 40.235 41.5678 40.4182C41.4453 40.6014 41.2714 40.7442 41.0678 40.8285C40.8642 40.9128 40.6402 40.9349 40.4241 40.8919C40.208 40.8489 40.0095 40.7428 39.8537 40.587C39.6979 40.4312 39.5918 40.2327 39.5488 40.0166C39.5058 39.8005 39.5279 39.5765 39.6122 39.3729C39.6965 39.1693 39.8393 38.9953 40.0225 38.8729C40.2057 38.7505 40.4211 38.6852 40.6415 38.6852C40.9367 38.6859 41.2197 38.8035 41.4285 39.0122C41.6372 39.221 41.7548 39.504 41.7555 39.7992ZM39.7077 39.7992C39.707 39.9844 39.7613 40.1656 39.8638 40.3198C39.9662 40.474 40.1121 40.5943 40.2831 40.6655C40.454 40.7367 40.6422 40.7555 40.8238 40.7195C41.0054 40.6836 41.1723 40.5945 41.3032 40.4636C41.4341 40.3327 41.5232 40.1658 41.5592 39.9842C41.5951 39.8026 41.5763 39.6144 41.5051 39.4434C41.434 39.2725 41.3136 39.1266 41.1594 39.0242C41.0052 38.9217 40.824 38.8674 40.6388 38.8681C40.392 38.8681 40.1552 38.9657 39.9801 39.1397C39.805 39.3136 39.7058 39.5498 39.7042 39.7966L39.7077 39.7992ZM40.2234 39.1773H40.6537C40.8009 39.1773 41.0892 39.1773 41.0892 39.5074C41.095 39.5788 41.0741 39.6497 41.0305 39.7064C40.9868 39.7631 40.9236 39.8015 40.8531 39.814C41.0273 39.8254 41.036 39.9377 41.0596 40.0971C41.0657 40.2096 41.0874 40.3207 41.124 40.4272H40.8627C40.8566 40.368 40.8148 40.0492 40.8148 40.0318C40.7982 39.9612 40.7739 39.9264 40.6859 39.9264H40.4673V40.4272H40.226L40.2234 39.1773ZM40.4594 39.7252H40.6537C40.6779 39.7283 40.7026 39.726 40.7259 39.7185C40.7492 39.7111 40.7707 39.6986 40.7887 39.682C40.8067 39.6654 40.8208 39.6451 40.8301 39.6225C40.8395 39.5998 40.8437 39.5754 40.8427 39.551C40.8427 39.3768 40.7242 39.3768 40.6598 39.3768H40.4594V39.7252Z" fill="white"/>
<path fill-rule="evenodd" clip-rule="evenodd" d="M13.7353 25.2939C13.7359 25.1636 13.7019 25.0355 13.6369 24.9226C13.5719 24.8097 13.4781 24.716 13.3651 24.6511L7.23741 21.1243C7.13441 21.0647 7.01838 21.0312 6.89945 21.0267H6.83674C6.71757 21.0314 6.60132 21.0649 6.49791 21.1243L0.370191 24.6493C0.257458 24.7145 0.163887 24.8083 0.0989002 24.9211C0.0339129 25.034 -0.000198173 25.1619 8.66083e-07 25.2922L0.0130675 34.7864C0.0127366 34.8514 0.0297578 34.9153 0.0623734 34.9715C0.094989 35.0277 0.142016 35.0741 0.198597 35.1061C0.254111 35.1394 0.317639 35.157 0.382385 35.157C0.447131 35.157 0.51066 35.1394 0.566173 35.1061L4.20709 33.0208C4.31969 32.9554 4.41319 32.8617 4.47829 32.7489C4.54339 32.6361 4.57782 32.5082 4.57815 32.378V27.9453C4.57797 27.8156 4.61202 27.688 4.67686 27.5756C4.7417 27.4632 4.83504 27.3699 4.94747 27.3051L6.49791 26.4114C6.61075 26.3464 6.73871 26.3121 6.86897 26.3121C6.99841 26.312 7.12556 26.3463 7.23741 26.4114L8.78698 27.3051C8.89962 27.3697 8.99319 27.463 9.0582 27.5754C9.12321 27.6879 9.15735 27.8155 9.15717 27.9453V32.3815C9.15776 32.5117 9.1923 32.6394 9.25737 32.7522C9.32245 32.8649 9.41581 32.9587 9.52823 33.0243L13.1691 35.1096C13.2251 35.1429 13.2891 35.1606 13.3542 35.1606C13.4194 35.1606 13.4834 35.1429 13.5393 35.1096C13.5951 35.0769 13.6414 35.0302 13.6736 34.9741C13.7059 34.9181 13.7229 34.8546 13.7231 34.7899L13.7353 25.2939ZM43.2198 12.2406C43.1635 12.2089 43.0999 12.1925 43.0353 12.1931C42.9707 12.1937 42.9073 12.2112 42.8516 12.2439C42.7959 12.2766 42.7498 12.3234 42.7178 12.3795C42.6858 12.4356 42.6691 12.4992 42.6693 12.5638V21.9709C42.6687 22.0161 42.6563 22.0604 42.6335 22.0995C42.6106 22.1385 42.578 22.1709 42.5388 22.1936C42.4997 22.2162 42.4553 22.2283 42.4101 22.2287C42.3649 22.229 42.3203 22.2177 42.2808 22.1956L40.746 21.3115C40.6335 21.2465 40.5058 21.2122 40.3759 21.2122C40.2459 21.2122 40.1182 21.2465 40.0057 21.3115L33.8762 24.8488C33.7637 24.9138 33.6703 25.0073 33.6054 25.1198C33.5404 25.2323 33.5061 25.36 33.506 25.4899V32.567C33.506 32.6969 33.5402 32.8244 33.605 32.9369C33.6698 33.0495 33.763 33.143 33.8753 33.2081L40.0057 36.7489C40.1182 36.8139 40.2459 36.8482 40.3759 36.8482C40.5058 36.8482 40.6335 36.8139 40.746 36.7489L46.8772 33.2081C46.9896 33.143 47.0828 33.0495 47.1476 32.9369C47.2124 32.8244 47.2465 32.6969 47.2466 32.567V14.9225C47.2467 14.7908 47.2116 14.6615 47.145 14.5478C47.0784 14.4342 46.9827 14.3404 46.8677 14.2762L43.2198 12.2406ZM42.651 30.2388C42.6509 30.2712 42.6422 30.303 42.6259 30.331C42.6095 30.359 42.586 30.3822 42.5578 30.3982L40.4534 31.6115C40.4253 31.6278 40.3935 31.6364 40.361 31.6364C40.3286 31.6364 40.2968 31.6278 40.2687 31.6115L38.1634 30.3982C38.1354 30.382 38.1122 30.3588 38.096 30.3308C38.0798 30.3028 38.0712 30.2711 38.0711 30.2388V27.8077C38.0713 27.7753 38.0799 27.7435 38.0961 27.7154C38.1123 27.6873 38.1355 27.6639 38.1634 27.6474L40.2687 26.4323C40.2968 26.4161 40.3286 26.4075 40.361 26.4075C40.3935 26.4075 40.4253 26.4161 40.4534 26.4323L42.5587 27.6474C42.5866 27.6639 42.6098 27.6873 42.626 27.7154C42.6422 27.7435 42.6508 27.7753 42.651 27.8077V30.2388Z" fill="white"/>
<path fill-rule="evenodd" clip-rule="evenodd" d="M63.6315 27.7441C63.7435 27.6791 63.8365 27.5859 63.9012 27.4737C63.9658 27.3615 63.9999 27.2343 64 27.1048V25.3897C64.0001 25.2601 63.9661 25.1327 63.9014 25.0203C63.8367 24.9079 63.7437 24.8145 63.6315 24.7495L57.5404 21.2131C57.4278 21.1479 57.2999 21.1135 57.1698 21.1135C57.0396 21.1135 56.9118 21.1479 56.7991 21.2131L50.6714 24.7504C50.5589 24.8153 50.4654 24.9088 50.4005 25.0213C50.3355 25.1339 50.3013 25.2615 50.3012 25.3914V32.4668C50.3013 32.5974 50.3359 32.7257 50.4015 32.8386C50.4672 32.9515 50.5615 33.045 50.6749 33.1097L56.7643 36.5825C56.8752 36.6448 57.0003 36.6776 57.1275 36.6776C57.2547 36.6776 57.3798 36.6448 57.4907 36.5825L61.1743 34.5347C61.2314 34.5024 61.2789 34.4556 61.3119 34.399C61.345 34.3423 61.3624 34.278 61.3624 34.2124C61.3624 34.1468 61.345 34.0825 61.3119 34.0258C61.2789 33.9692 61.2314 33.9224 61.1743 33.8901L55.0074 30.3511C54.9509 30.3186 54.9039 30.2718 54.8712 30.2153C54.8385 30.1589 54.8212 30.0949 54.821 30.0297V27.8129C54.8211 27.7479 54.8383 27.684 54.8708 27.6278C54.9034 27.5715 54.9502 27.5248 55.0066 27.4924L56.9228 26.3862C56.9789 26.3537 57.0426 26.3366 57.1075 26.3366C57.1723 26.3366 57.236 26.3537 57.2921 26.3862L59.2084 27.4924C59.2648 27.5248 59.3116 27.5715 59.3442 27.6278C59.3767 27.684 59.3939 27.7479 59.3939 27.8129V29.555C59.3939 29.62 59.411 29.6839 59.4435 29.7403C59.4761 29.7966 59.5228 29.8434 59.5792 29.8759C59.6355 29.9084 59.6994 29.9254 59.7645 29.9254C59.8295 29.9253 59.8934 29.9081 59.9497 29.8755L63.6315 27.7441Z" fill="white"/>
<path fill-rule="evenodd" clip-rule="evenodd" d="M57.0796 27.4131C57.1012 27.4007 57.1257 27.3942 57.1506 27.3942C57.1755 27.3942 57.2 27.4007 57.2216 27.4131L58.3975 28.0916C58.4192 28.104 58.4372 28.1218 58.4498 28.1434C58.4623 28.165 58.4689 28.1895 58.4689 28.2145V29.5733C58.4689 29.5982 58.4623 29.6228 58.4498 29.6443C58.4372 29.6659 58.4192 29.6838 58.3975 29.6961L57.2216 30.3746C57.2 30.387 57.1755 30.3935 57.1506 30.3935C57.1257 30.3935 57.1012 30.387 57.0796 30.3746L55.9046 29.6961C55.8829 29.6838 55.8648 29.6659 55.8523 29.6443C55.8397 29.6228 55.8331 29.5982 55.8332 29.5733V28.2145C55.8331 28.1895 55.8397 28.165 55.8523 28.1434C55.8648 28.1218 55.8829 28.104 55.9046 28.0916L57.0796 27.4131Z" fill="white"/>
<path fill-rule="evenodd" clip-rule="evenodd" d="M23.213 21.2863C23.3247 21.2221 23.4513 21.1883 23.5801 21.1883C23.709 21.1883 23.8356 21.2221 23.9473 21.2863L30.028 24.7957C30.1396 24.8601 30.2323 24.9528 30.2968 25.0644C30.3613 25.176 30.3954 25.3026 30.3955 25.4315V32.4555C30.3954 32.5844 30.3613 32.711 30.2968 32.8226C30.2323 32.9342 30.1396 33.0269 30.028 33.0914L23.9473 36.6034C23.8356 36.6676 23.709 36.7013 23.5801 36.7013C23.4513 36.7013 23.3247 36.6676 23.213 36.6034L17.1332 33.0914C17.0218 33.0267 16.9293 32.934 16.8649 32.8224C16.8006 32.7108 16.7666 32.5843 16.7665 32.4555V25.4333C16.7666 25.3043 16.8007 25.1777 16.8652 25.0661C16.9297 24.9545 17.0224 24.8619 17.1341 24.7974L23.213 21.2863Z" fill="url(#paint0_linear_1_7871)"/>
<mask id="mask0_1_7871" style="mask-type:luminance" maskUnits="userSpaceOnUse" x="16" y="21" width="15" height="16">
<path fill-rule="evenodd" clip-rule="evenodd" d="M23.949 21.2863C23.8373 21.2221 23.7107 21.1883 23.5819 21.1883C23.453 21.1883 23.3264 21.2221 23.2147 21.2863L17.1341 24.7957C17.0224 24.8601 16.9297 24.9528 16.8652 25.0644C16.8007 25.176 16.7666 25.3026 16.7665 25.4315V32.4555C16.7666 32.5843 16.8006 32.7108 16.8649 32.8224C16.9293 32.934 17.0218 33.0267 17.1332 33.0914L23.2139 36.6034C23.3257 36.6676 23.4525 36.7013 23.5814 36.7013C23.7104 36.7013 23.8371 36.6676 23.949 36.6034L30.028 33.0914C30.1396 33.0269 30.2323 32.9342 30.2968 32.8226C30.3613 32.711 30.3954 32.5844 30.3955 32.4555V25.4333C30.3954 25.3043 30.3613 25.1777 30.2968 25.0661C30.2323 24.9545 30.1396 24.8619 30.028 24.7974L23.949 21.2863Z" fill="white"/>
</mask>
<g mask="url(#mask0_1_7871)">
<path opacity="0.66" d="M29.9966 24.7957L23.9429 21.2863C23.8826 21.2522 23.8178 21.2267 23.7504 21.2105L16.9093 32.9155C16.9672 32.9854 17.0371 33.0444 17.1158 33.0897L23.2025 36.6034C23.2903 36.6543 23.3878 36.6861 23.4886 36.6968C23.5895 36.7074 23.6914 36.6967 23.7879 36.6652L30.1804 24.9586C30.1301 24.893 30.0677 24.8377 29.9966 24.7957Z" fill="#4B4B4B"/>
<path d="M23.9333 36.6034L29.9966 33.0914C30.1046 33.0252 30.1929 32.9314 30.2523 32.8195C30.3117 32.7077 30.3401 32.582 30.3346 32.4555V32.4276L23.7748 21.2166C23.6801 21.1898 23.5811 21.1821 23.4834 21.1941C23.3857 21.2061 23.2914 21.2374 23.206 21.2863L17.1924 24.7556L23.7391 36.6809C23.8073 36.6646 23.8727 36.6385 23.9333 36.6034Z" fill="url(#paint1_linear_1_7871)"/>
</g>
<path d="M31.6324 51.39C31.4184 51.391 31.208 51.3351 31.0227 51.228L29.0969 50.0835C28.8086 49.9223 28.9497 49.8649 29.0446 49.8318C29.3503 49.7364 29.6429 49.6032 29.9156 49.4354C29.9384 49.4249 29.9634 49.4203 29.9884 49.4221C30.0134 49.4239 30.0375 49.4321 30.0585 49.4459L31.5392 50.3265C31.5669 50.3411 31.5977 50.3487 31.629 50.3487C31.6602 50.3487 31.691 50.3411 31.7187 50.3265L37.498 46.9904C37.5248 46.9741 37.5469 46.951 37.5622 46.9235C37.5774 46.896 37.5853 46.8651 37.5851 46.8337V40.1668C37.5853 40.135 37.5774 40.1037 37.5621 40.0758C37.5469 40.0479 37.5248 40.0244 37.498 40.0074L31.723 36.6696C31.6964 36.6548 31.6664 36.647 31.6359 36.647C31.6054 36.647 31.5755 36.6548 31.5488 36.6696L25.773 40.0039C25.7452 40.02 25.7221 40.0432 25.7059 40.0709C25.6897 40.0987 25.681 40.1303 25.6807 40.1624V46.8319C25.6799 46.8632 25.6876 46.8941 25.703 46.9214C25.7183 46.9487 25.7407 46.9713 25.7678 46.987L27.3513 47.9015C28.2102 48.331 28.7363 47.8249 28.7363 47.3171V40.7356C28.7363 40.7136 28.7406 40.6918 28.7491 40.6715C28.7576 40.6512 28.77 40.6328 28.7856 40.6173C28.8012 40.6018 28.8198 40.5896 28.8402 40.5814C28.8605 40.5731 28.8824 40.569 28.9044 40.5692H29.6369C29.6588 40.5691 29.6806 40.5733 29.7008 40.5816C29.7211 40.5899 29.7396 40.6021 29.7551 40.6176C29.7706 40.6331 29.783 40.6514 29.7914 40.6717C29.7998 40.6919 29.8041 40.7136 29.8041 40.7356V47.3214C29.8349 47.5576 29.8126 47.7976 29.7389 48.024C29.6651 48.2505 29.5419 48.4576 29.378 48.6304C29.2141 48.8032 29.0138 48.9373 28.7916 49.0229C28.5694 49.1085 28.3309 49.1435 28.0934 49.1253C27.6244 49.1334 27.1627 49.0078 26.7625 48.763L25.2469 47.892C25.0617 47.785 24.9079 47.6313 24.8009 47.4462C24.6938 47.261 24.6374 47.051 24.6372 46.8371V40.1668C24.6375 39.9531 24.6941 39.7432 24.8011 39.5583C24.9081 39.3733 25.0618 39.2197 25.2469 39.1128L31.0271 35.7733C31.2133 35.6717 31.422 35.6184 31.6342 35.6184C31.8463 35.6184 32.0551 35.6717 32.2413 35.7733L38.0206 39.1128C38.2057 39.2197 38.3594 39.3733 38.4664 39.5583C38.5734 39.7432 38.6299 39.9531 38.6303 40.1668V46.8363C38.6301 47.0501 38.5737 47.2601 38.4666 47.4453C38.3596 47.6304 38.2058 47.7842 38.0206 47.8911L32.2413 51.228C32.0562 51.3348 31.8461 51.3907 31.6324 51.39Z" fill="#669F66"/>
<path d="M33.418 46.7944C30.8921 46.7944 30.359 45.6334 30.359 44.6604C30.3589 44.6384 30.3631 44.6166 30.3715 44.5963C30.3798 44.5759 30.3922 44.5574 30.4077 44.5419C30.4233 44.5263 30.4417 44.514 30.4621 44.5057C30.4824 44.4973 30.5042 44.4931 30.5262 44.4932H31.2736C31.3136 44.4931 31.3523 44.5074 31.3826 44.5335C31.413 44.5595 31.433 44.5956 31.4391 44.6351C31.5523 45.3956 31.8885 45.7797 33.418 45.7797C34.6375 45.7797 35.154 45.5044 35.154 44.8581C35.154 44.4862 35.0068 44.2092 33.1149 44.0237C31.5331 43.8678 30.555 43.5185 30.555 42.2529C30.555 41.0866 31.5384 40.3915 33.1864 40.3915C35.0382 40.3915 35.9536 41.0343 36.0703 42.4131C36.0722 42.4364 36.0692 42.4598 36.0615 42.4818C36.0539 42.5039 36.0418 42.5241 36.0259 42.5412C36.0104 42.5581 35.9915 42.5716 35.9706 42.5809C35.9496 42.5902 35.9269 42.595 35.904 42.5952H35.1531C35.1153 42.5949 35.0788 42.5819 35.0493 42.5581C35.0199 42.5344 34.9994 42.5014 34.9911 42.4645C34.8117 41.6641 34.3736 41.408 33.1864 41.408C31.8572 41.408 31.7056 41.8714 31.7056 42.218C31.7056 42.6387 31.8885 42.7607 33.6828 43.002C35.4597 43.2363 36.3029 43.569 36.3029 44.8172C36.3029 46.0654 35.2498 46.7944 33.418 46.7944Z" fill="#669F66"/>
<path d="M41.7556 39.7992C41.7556 40.0196 41.6902 40.235 41.5678 40.4182C41.4454 40.6014 41.2714 40.7442 41.0678 40.8285C40.8643 40.9128 40.6403 40.9349 40.4242 40.8919C40.2081 40.8489 40.0096 40.7428 39.8538 40.587C39.698 40.4312 39.5919 40.2327 39.5489 40.0166C39.5059 39.8005 39.5279 39.5765 39.6123 39.3729C39.6966 39.1693 39.8394 38.9953 40.0226 38.8729C40.2058 38.7505 40.4212 38.6852 40.6415 38.6852C40.9368 38.6859 41.2197 38.8035 41.4285 39.0122C41.6373 39.221 41.7549 39.504 41.7556 39.7992ZM39.7078 39.7992C39.7071 39.9844 39.7614 40.1656 39.8638 40.3198C39.9663 40.474 40.1122 40.5943 40.2831 40.6655C40.454 40.7367 40.6422 40.7555 40.8239 40.7195C41.0055 40.6836 41.1723 40.5945 41.3033 40.4636C41.4342 40.3327 41.5233 40.1658 41.5592 39.9842C41.5952 39.8026 41.5764 39.6144 41.5052 39.4434C41.434 39.2725 41.3137 39.1266 41.1595 39.0242C41.0052 38.9217 40.8241 38.8674 40.6389 38.8681C40.3921 38.8681 40.1553 38.9657 39.9802 39.1397C39.8051 39.3136 39.7059 39.5498 39.7043 39.7966L39.7078 39.7992ZM40.2234 39.1773H40.6537C40.8009 39.1773 41.0892 39.1773 41.0892 39.5074C41.0951 39.5788 41.0742 39.6497 41.0305 39.7064C40.9869 39.7631 40.9236 39.8015 40.8532 39.814C41.0274 39.8254 41.0361 39.9377 41.0596 40.0971C41.0657 40.2096 41.0874 40.3207 41.1241 40.4272H40.8628C40.8567 40.368 40.8149 40.0492 40.8149 40.0318C40.7983 39.9612 40.7739 39.9264 40.6859 39.9264H40.4673V40.4272H40.226L40.2234 39.1773ZM40.4595 39.7252H40.6537C40.678 39.7283 40.7027 39.726 40.726 39.7185C40.7493 39.7111 40.7707 39.6986 40.7887 39.682C40.8067 39.6654 40.8209 39.6451 40.8302 39.6225C40.8395 39.5998 40.8438 39.5754 40.8427 39.551C40.8427 39.3768 40.7243 39.3768 40.6598 39.3768H40.4595V39.7252Z" fill="#669F66"/>
<path fill-rule="evenodd" clip-rule="evenodd" d="M13.7353 25.2939C13.7359 25.1636 13.7019 25.0355 13.6369 24.9226C13.5719 24.8097 13.4781 24.716 13.3651 24.6511L7.23741 21.1243C7.13441 21.0647 7.01838 21.0312 6.89945 21.0267H6.83674C6.71757 21.0314 6.60132 21.0649 6.49791 21.1243L0.370191 24.6493C0.257458 24.7145 0.163887 24.8083 0.0989002 24.9211C0.0339129 25.034 -0.000198173 25.1619 8.66083e-07 25.2922L0.0130675 34.7864C0.0127366 34.8514 0.0297578 34.9153 0.0623734 34.9715C0.094989 35.0277 0.142016 35.0741 0.198597 35.1061C0.254111 35.1394 0.317639 35.157 0.382385 35.157C0.447131 35.157 0.51066 35.1394 0.566173 35.1061L4.20709 33.0208C4.31969 32.9554 4.41319 32.8617 4.47829 32.7489C4.54339 32.6361 4.57782 32.5082 4.57815 32.378V27.9453C4.57797 27.8156 4.61202 27.688 4.67686 27.5756C4.7417 27.4632 4.83504 27.3699 4.94747 27.3051L6.49791 26.4114C6.61075 26.3464 6.73871 26.3121 6.86897 26.3121C6.99841 26.312 7.12556 26.3463 7.23741 26.4114L8.78698 27.3051C8.89962 27.3697 8.99319 27.463 9.0582 27.5754C9.12321 27.6879 9.15735 27.8155 9.15717 27.9453V32.3815C9.15776 32.5117 9.1923 32.6394 9.25737 32.7522C9.32245 32.8649 9.41581 32.9587 9.52823 33.0243L13.1691 35.1096C13.2251 35.1429 13.2891 35.1606 13.3542 35.1606C13.4194 35.1606 13.4834 35.1429 13.5393 35.1096C13.5951 35.0769 13.6414 35.0302 13.6736 34.9741C13.7059 34.9181 13.7229 34.8546 13.7231 34.7899L13.7353 25.2939ZM43.2198 12.2406C43.1635 12.2089 43.0999 12.1925 43.0353 12.1931C42.9707 12.1937 42.9073 12.2112 42.8516 12.2439C42.7959 12.2766 42.7498 12.3234 42.7178 12.3795C42.6858 12.4356 42.6691 12.4992 42.6693 12.5638V21.9709C42.6687 22.0161 42.6563 22.0604 42.6335 22.0995C42.6106 22.1385 42.578 22.1709 42.5388 22.1936C42.4997 22.2162 42.4553 22.2283 42.4101 22.2287C42.3649 22.229 42.3203 22.2177 42.2808 22.1956L40.746 21.3115C40.6335 21.2465 40.5058 21.2122 40.3759 21.2122C40.2459 21.2122 40.1182 21.2465 40.0057 21.3115L33.8762 24.8488C33.7637 24.9138 33.6703 25.0073 33.6054 25.1198C33.5404 25.2323 33.5061 25.36 33.506 25.4899V32.567C33.506 32.6969 33.5402 32.8244 33.605 32.9369C33.6698 33.0495 33.763 33.143 33.8753 33.2081L40.0057 36.7489C40.1182 36.8139 40.2459 36.8482 40.3759 36.8482C40.5058 36.8482 40.6335 36.8139 40.746 36.7489L46.8772 33.2081C46.9896 33.143 47.0828 33.0495 47.1476 32.9369C47.2124 32.8244 47.2465 32.6969 47.2466 32.567V14.9225C47.2467 14.7908 47.2116 14.6615 47.145 14.5478C47.0784 14.4342 46.9827 14.3404 46.8677 14.2762L43.2198 12.2406ZM42.651 30.2388C42.6509 30.2712 42.6422 30.303 42.6259 30.331C42.6095 30.359 42.586 30.3822 42.5578 30.3982L40.4534 31.6115C40.4253 31.6278 40.3935 31.6364 40.361 31.6364C40.3286 31.6364 40.2968 31.6278 40.2687 31.6115L38.1634 30.3982C38.1354 30.382 38.1122 30.3588 38.096 30.3308C38.0798 30.3028 38.0712 30.2711 38.0711 30.2388V27.8077C38.0713 27.7753 38.0799 27.7435 38.0961 27.7154C38.1123 27.6873 38.1355 27.6639 38.1634 27.6474L40.2687 26.4323C40.2968 26.4161 40.3286 26.4075 40.361 26.4075C40.3935 26.4075 40.4253 26.4161 40.4534 26.4323L42.5587 27.6474C42.5866 27.6639 42.6098 27.6873 42.626 27.7154C42.6422 27.7435 42.6508 27.7753 42.651 27.8077V30.2388Z" fill="#333333"/>
<path fill-rule="evenodd" clip-rule="evenodd" d="M63.6316 27.7441C63.7436 27.6791 63.8366 27.5859 63.9012 27.4737C63.9659 27.3615 63.9999 27.2343 64 27.1048V25.3897C64.0001 25.2601 63.9661 25.1327 63.9014 25.0203C63.8368 24.9079 63.7437 24.8145 63.6316 24.7495L57.5404 21.2131C57.4278 21.1479 57.2999 21.1135 57.1698 21.1135C57.0396 21.1135 56.9118 21.1479 56.7992 21.2131L50.6715 24.7504C50.5589 24.8153 50.4655 24.9088 50.4005 25.0213C50.3355 25.1339 50.3013 25.2615 50.3013 25.3914V32.4668C50.3013 32.5974 50.3359 32.7257 50.4016 32.8386C50.4672 32.9515 50.5615 33.045 50.6749 33.1097L56.7643 36.5825C56.8752 36.6448 57.0003 36.6776 57.1276 36.6776C57.2548 36.6776 57.3799 36.6448 57.4908 36.5825L61.1744 34.5347C61.2314 34.5024 61.2789 34.4556 61.312 34.399C61.345 34.3423 61.3624 34.278 61.3624 34.2124C61.3624 34.1468 61.345 34.0825 61.312 34.0258C61.2789 33.9692 61.2314 33.9224 61.1744 33.8901L55.0075 30.3511C54.9509 30.3186 54.904 30.2718 54.8712 30.2153C54.8385 30.1589 54.8212 30.0949 54.8211 30.0297V27.8129C54.8211 27.7479 54.8383 27.684 54.8709 27.6278C54.9034 27.5715 54.9502 27.5248 55.0066 27.4924L56.9229 26.3862C56.979 26.3537 57.0427 26.3366 57.1075 26.3366C57.1724 26.3366 57.2361 26.3537 57.2922 26.3862L59.2084 27.4924C59.2648 27.5248 59.3116 27.5715 59.3442 27.6278C59.3768 27.684 59.3939 27.7479 59.394 27.8129V29.555C59.3939 29.62 59.411 29.6839 59.4436 29.7403C59.4761 29.7966 59.5229 29.8434 59.5792 29.8759C59.6355 29.9084 59.6995 29.9254 59.7645 29.9254C59.8295 29.9253 59.8934 29.9081 59.9497 29.8755L63.6316 27.7441Z" fill="#333333"/>
<path fill-rule="evenodd" clip-rule="evenodd" d="M57.0796 27.4131C57.1013 27.4007 57.1257 27.3942 57.1506 27.3942C57.1755 27.3942 57.2 27.4007 57.2216 27.4131L58.3975 28.0916C58.4192 28.104 58.4373 28.1218 58.4498 28.1434C58.4624 28.165 58.469 28.1895 58.4689 28.2145V29.5733C58.469 29.5982 58.4624 29.6228 58.4498 29.6443C58.4373 29.6659 58.4192 29.6838 58.3975 29.6961L57.2216 30.3746C57.2 30.387 57.1755 30.3935 57.1506 30.3935C57.1257 30.3935 57.1013 30.387 57.0796 30.3746L55.9046 29.6961C55.8829 29.6838 55.8649 29.6659 55.8523 29.6443C55.8398 29.6228 55.8332 29.5982 55.8332 29.5733V28.2145C55.8332 28.1895 55.8398 28.165 55.8523 28.1434C55.8649 28.1218 55.8829 28.104 55.9046 28.0916L57.0796 27.4131Z" fill="#669F66"/>
<path fill-rule="evenodd" clip-rule="evenodd" d="M23.9865 21.2523C23.8746 21.1877 23.7477 21.1537 23.6185 21.1537C23.4893 21.1537 23.3624 21.1877 23.2505 21.2523L17.1532 24.7704C17.0411 24.8348 16.9479 24.9276 16.8832 25.0396C16.8185 25.1516 16.7845 25.2787 16.7848 25.408V32.4451C16.7848 32.5742 16.8188 32.7011 16.8833 32.813C16.9478 32.9249 17.0406 33.0179 17.1524 33.0827L23.2496 36.6034C23.3615 36.668 23.4884 36.702 23.6176 36.702C23.7468 36.702 23.8737 36.668 23.9856 36.6034L30.0828 33.0827C30.1946 33.0179 30.2874 32.9249 30.3519 32.813C30.4164 32.7011 30.4504 32.5742 30.4504 32.4451V25.4036C30.4505 25.2746 30.4166 25.1477 30.3521 25.036C30.2875 24.9242 30.1947 24.8314 30.0828 24.7669L23.9865 21.2523Z" fill="url(#paint2_linear_1_7871)"/>
<mask id="mask1_1_7871" style="mask-type:luminance" maskUnits="userSpaceOnUse" x="16" y="21" width="15" height="16">
<path fill-rule="evenodd" clip-rule="evenodd" d="M23.9865 21.2523C23.8746 21.1877 23.7477 21.1537 23.6185 21.1537C23.4893 21.1537 23.3624 21.1877 23.2505 21.2523L17.1532 24.7704C17.0411 24.8348 16.9479 24.9276 16.8832 25.0396C16.8185 25.1516 16.7845 25.2787 16.7848 25.408V32.4451C16.7848 32.5742 16.8188 32.7011 16.8833 32.813C16.9478 32.9249 17.0406 33.0179 17.1524 33.0827L23.2496 36.6034C23.3615 36.668 23.4884 36.702 23.6176 36.702C23.7468 36.702 23.8737 36.668 23.9856 36.6034L30.0828 33.0827C30.1946 33.0179 30.2874 32.9249 30.3519 32.813C30.4164 32.7011 30.4504 32.5742 30.4504 32.4451V25.4036C30.4505 25.2746 30.4166 25.1477 30.3521 25.036C30.2875 24.9242 30.1947 24.8314 30.0828 24.7669L23.9865 21.2523Z" fill="white"/>
</mask>
<g mask="url(#mask1_1_7871)">
<path d="M30.095 24.766L23.9865 21.2523C23.9266 21.218 23.862 21.1925 23.7949 21.1765L16.9311 32.9137C16.9904 32.9804 17.0597 33.0375 17.1367 33.0827L23.26 36.6034C23.3455 36.6522 23.4397 36.6835 23.5374 36.6956C23.635 36.7077 23.7341 36.7004 23.8288 36.6739L30.2579 24.8923C30.2092 24.8435 30.1545 24.801 30.095 24.766Z" fill="url(#paint3_linear_1_7871)"/>
<path d="M30.0985 33.0827C30.1866 33.0322 30.2638 32.9649 30.3257 32.8844C30.3876 32.804 30.433 32.7121 30.4591 32.614L23.7583 21.1652C23.5807 21.1307 23.3966 21.1616 23.24 21.2523L17.1689 24.7486L23.7252 36.6948C23.8196 36.683 23.9109 36.6535 23.9943 36.6077L30.0985 33.0827Z" fill="url(#paint4_linear_1_7871)"/>
<path d="M30.0985 33.0826L23.9969 36.6034C23.9135 36.6491 23.8222 36.6787 23.7278 36.6905L23.8489 36.9117L30.6272 32.9921V32.8997L30.4591 32.6132C30.4331 32.7114 30.3878 32.8034 30.3259 32.884C30.264 32.9646 30.1867 33.0321 30.0985 33.0826Z" fill="url(#paint5_linear_1_7871)"/>
<path d="M30.0985 33.0826L23.9969 36.6034C23.9135 36.6491 23.8222 36.6787 23.7278 36.6905L23.8489 36.9117L30.6272 32.9921V32.8997L30.4591 32.6132C30.4331 32.7114 30.3878 32.8034 30.3259 32.884C30.264 32.9646 30.1867 33.0321 30.0985 33.0826Z" fill="url(#paint6_linear_1_7871)"/>
</g>
<defs>
<linearGradient id="paint0_linear_1_7871" x1="16.7665" y1="28.9453" x2="30.3955" y2="28.9453" gradientUnits="userSpaceOnUse">
<stop offset="0.005" stop-color="white"/>
<stop offset="0.192" stop-color="#E8E8E8"/>
<stop offset="0.541" stop-color="#C3C3C3"/>
<stop offset="0.823" stop-color="#ABABAB"/>
<stop offset="1" stop-color="#A3A3A3"/>
</linearGradient>
<linearGradient id="paint1_linear_1_7871" x1="16.6724" y1="28.9348" x2="30.7317" y2="28.9348" gradientUnits="userSpaceOnUse">
<stop stop-color="#A3A3A3"/>
<stop offset="0.177" stop-color="#ABABAB"/>
<stop offset="0.459" stop-color="#C3C3C3"/>
<stop offset="0.808" stop-color="#E8E8E8"/>
<stop offset="0.995" stop-color="white"/>
</linearGradient>
<linearGradient id="paint2_linear_1_7871" x1="26.0987" y1="23.8689" x2="20.5921" y2="35.1026" gradientUnits="userSpaceOnUse">
<stop stop-color="#3F873F"/>
<stop offset="0.33" stop-color="#3F8B3D"/>
<stop offset="0.637" stop-color="#3E9637"/>
<stop offset="0.934" stop-color="#3DA92E"/>
<stop offset="1" stop-color="#3DAE2B"/>
</linearGradient>
<linearGradient id="paint3_linear_1_7871" x1="22.6921" y1="29.7483" x2="38.1451" y2="18.3308" gradientUnits="userSpaceOnUse">
<stop offset="0.138" stop-color="#3F873F"/>
<stop offset="0.397" stop-color="#529F44"/>
<stop offset="0.711" stop-color="#63B649"/>
<stop offset="0.908" stop-color="#6ABF4B"/>
</linearGradient>
<linearGradient id="paint4_linear_1_7871" x1="16.5731" y1="28.9226" x2="30.6673" y2="28.9226" gradientUnits="userSpaceOnUse">
<stop offset="0.092" stop-color="#6ABF4B"/>
<stop offset="0.289" stop-color="#63B649"/>
<stop offset="0.603" stop-color="#529F44"/>
<stop offset="0.862" stop-color="#3F873F"/>
</linearGradient>
<linearGradient id="paint5_linear_1_7871" x1="16.5731" y1="34.7646" x2="30.6673" y2="34.7646" gradientUnits="userSpaceOnUse">
<stop offset="0.092" stop-color="#6ABF4B"/>
<stop offset="0.289" stop-color="#63B649"/>
<stop offset="0.603" stop-color="#529F44"/>
<stop offset="0.862" stop-color="#3F873F"/>
</linearGradient>
<linearGradient id="paint6_linear_1_7871" x1="32.7203" y1="23.5353" x2="24.0283" y2="41.2677" gradientUnits="userSpaceOnUse">
<stop stop-color="#3F873F"/>
<stop offset="0.33" stop-color="#3F8B3D"/>
<stop offset="0.637" stop-color="#3E9637"/>
<stop offset="0.934" stop-color="#3DA92E"/>
<stop offset="1" stop-color="#3DAE2B"/>
</linearGradient>
</defs>
</svg>
