<svg width="64" height="65" viewBox="0 0 64 65" fill="none" xmlns="http://www.w3.org/2000/svg">
<rect y="0.193115" width="64" height="64" rx="32" fill="#333333"/>
<path d="M31.7128 49.1029C31.5456 49.1036 31.3812 49.06 31.2365 48.9763L29.7319 48.0822C29.5067 47.9563 29.6169 47.9113 29.6911 47.8855C29.9299 47.811 30.1585 47.707 30.3716 47.5759C30.3893 47.5676 30.4089 47.564 30.4284 47.5655C30.448 47.5669 30.4668 47.5733 30.4832 47.584L31.64 48.272C31.6616 48.2834 31.6857 48.2893 31.7101 48.2893C31.7345 48.2893 31.7586 48.2834 31.7802 48.272L36.2953 45.6657C36.3162 45.6529 36.3335 45.6349 36.3454 45.6134C36.3574 45.592 36.3635 45.5678 36.3633 45.5432V40.3347C36.3635 40.3099 36.3573 40.2854 36.3454 40.2637C36.3335 40.2419 36.3162 40.2235 36.2953 40.2102L31.7836 37.6025C31.7628 37.591 31.7394 37.5849 31.7155 37.5849C31.6917 37.5849 31.6683 37.591 31.6475 37.6025L27.1351 40.2075C27.1134 40.2201 27.0953 40.2381 27.0827 40.2599C27.07 40.2816 27.0633 40.3062 27.063 40.3313V45.5419C27.0624 45.5663 27.0684 45.5905 27.0804 45.6118C27.0924 45.6331 27.1099 45.6508 27.1311 45.663L28.3682 46.3775C29.0392 46.713 29.4502 46.3176 29.4502 45.9209V40.7791C29.4502 40.7619 29.4536 40.7449 29.4602 40.729C29.4668 40.7132 29.4765 40.6988 29.4887 40.6867C29.5009 40.6746 29.5154 40.6651 29.5314 40.6586C29.5473 40.6522 29.5643 40.6489 29.5815 40.6491H30.1538C30.1709 40.649 30.1879 40.6523 30.2038 40.6588C30.2196 40.6653 30.234 40.6749 30.2462 40.6869C30.2583 40.699 30.2679 40.7134 30.2745 40.7292C30.2811 40.745 30.2845 40.762 30.2845 40.7791V45.9243C30.3085 46.1088 30.2911 46.2963 30.2335 46.4732C30.1759 46.6501 30.0796 46.812 29.9515 46.947C29.8235 47.0819 29.667 47.1867 29.4934 47.2536C29.3198 47.3205 29.1335 47.3478 28.948 47.3336C28.5815 47.3399 28.2208 47.2417 27.9082 47.0505L26.7241 46.37C26.5794 46.2865 26.4593 46.1664 26.3757 46.0217C26.292 45.8771 26.2479 45.713 26.2478 45.5459V40.3347C26.2481 40.1678 26.2922 40.0038 26.3758 39.8593C26.4594 39.7148 26.5795 39.5948 26.7241 39.5113L31.2399 36.9023C31.3854 36.8229 31.5484 36.7813 31.7142 36.7813C31.8799 36.7813 32.043 36.8229 32.1885 36.9023L36.7036 39.5113C36.8482 39.5948 36.9683 39.7148 37.0519 39.8593C37.1355 40.0038 37.1796 40.1678 37.1799 40.3347V45.5453C37.1797 45.7123 37.1356 45.8764 37.052 46.0211C36.9684 46.1657 36.8483 46.2858 36.7036 46.3693L32.1885 48.9763C32.0439 49.0597 31.8798 49.1034 31.7128 49.1029Z" fill="white"/>
<path d="M33.1078 45.5126C31.1344 45.5126 30.7179 44.6055 30.7179 43.8454C30.7178 43.8282 30.7212 43.8111 30.7277 43.7952C30.7342 43.7794 30.7438 43.7649 30.756 43.7528C30.7681 43.7406 30.7826 43.731 30.7985 43.7245C30.8144 43.7179 30.8314 43.7146 30.8486 43.7147H31.4324C31.4637 43.7147 31.4939 43.7258 31.5177 43.7462C31.5414 43.7665 31.557 43.7947 31.5617 43.8256C31.6502 44.4197 31.9129 44.7198 33.1078 44.7198C34.0605 44.7198 34.464 44.5048 34.464 43.9998C34.464 43.7093 34.349 43.4929 32.871 43.3479C31.6352 43.2261 30.871 42.9532 30.871 41.9645C30.871 41.0533 31.6393 40.5103 32.9268 40.5103C34.3735 40.5103 35.0887 41.0125 35.1799 42.0897C35.1814 42.1078 35.179 42.1261 35.173 42.1433C35.1671 42.1605 35.1576 42.1763 35.1452 42.1897C35.1331 42.2029 35.1184 42.2135 35.102 42.2207C35.0856 42.228 35.0679 42.2318 35.05 42.2319H34.4634C34.4338 42.2317 34.4053 42.2215 34.3823 42.203C34.3593 42.1844 34.3433 42.1586 34.3368 42.1298C34.1966 41.5045 33.8543 41.3044 32.9268 41.3044C31.8884 41.3044 31.77 41.6664 31.77 41.9373C31.77 42.2659 31.9129 42.3612 33.3147 42.5497C34.7029 42.7327 35.3616 42.9927 35.3616 43.9678C35.3616 44.943 34.5389 45.5126 33.1078 45.5126Z" fill="white"/>
<path d="M39.6215 40.0475C39.6215 40.2197 39.5705 40.388 39.4748 40.5311C39.3792 40.6742 39.2433 40.7858 39.0842 40.8516C38.9252 40.9175 38.7502 40.9347 38.5814 40.9012C38.4125 40.8676 38.2574 40.7847 38.1357 40.663C38.014 40.5412 37.9311 40.3862 37.8975 40.2173C37.8639 40.0485 37.8812 39.8735 37.9471 39.7145C38.0129 39.5554 38.1245 39.4195 38.2676 39.3239C38.4107 39.2282 38.579 39.1772 38.7512 39.1772C38.9818 39.1777 39.2029 39.2696 39.366 39.4327C39.5291 39.5958 39.621 39.8169 39.6215 40.0475ZM38.0217 40.0475C38.0211 40.1922 38.0636 40.3337 38.1436 40.4542C38.2236 40.5747 38.3376 40.6687 38.4711 40.7243C38.6047 40.7799 38.7517 40.7946 38.8936 40.7665C39.0355 40.7384 39.1659 40.6688 39.2681 40.5666C39.3704 40.4643 39.44 40.3339 39.4681 40.192C39.4962 40.0501 39.4815 39.9031 39.4259 39.7696C39.3703 39.636 39.2763 39.522 39.1558 39.442C39.0353 39.362 38.8938 39.3196 38.7491 39.3201C38.5563 39.3201 38.3713 39.3964 38.2345 39.5323C38.0977 39.6682 38.0202 39.8527 38.0189 40.0455L38.0217 40.0475ZM38.4245 39.5617H38.7607C38.8757 39.5617 39.1009 39.5617 39.1009 39.8196C39.1055 39.8753 39.0892 39.9307 39.0551 39.975C39.021 40.0193 38.9716 40.0493 38.9165 40.0591C39.0526 40.068 39.0594 40.1557 39.0778 40.2803C39.0826 40.3681 39.0995 40.4549 39.1281 40.5382H38.924C38.9192 40.4919 38.8866 40.2428 38.8866 40.2292C38.8736 40.1741 38.8546 40.1469 38.7859 40.1469H38.6151V40.5382H38.4266L38.4245 39.5617ZM38.6089 39.9897H38.7607C38.7797 39.9921 38.7989 39.9903 38.8171 39.9845C38.8354 39.9787 38.8521 39.9689 38.8661 39.956C38.8802 39.943 38.8913 39.9271 38.8986 39.9094C38.9059 39.8918 38.9092 39.8727 38.9083 39.8536C38.9083 39.7175 38.8158 39.7175 38.7654 39.7175H38.6089V39.9897Z" fill="white"/>
<path fill-rule="evenodd" clip-rule="evenodd" d="M17.7307 28.7153C17.7311 28.6135 17.7046 28.5134 17.6538 28.4252C17.603 28.337 17.5298 28.2638 17.4415 28.2131L12.6542 25.4578C12.5738 25.4112 12.4831 25.385 12.3902 25.3815H12.3412C12.2481 25.3852 12.1573 25.4114 12.0765 25.4578L7.28921 28.2117C7.20114 28.2626 7.12804 28.3359 7.07727 28.424C7.02649 28.5122 6.99985 28.6122 7 28.7139L7.01021 36.1313C7.00995 36.1821 7.02325 36.232 7.04873 36.2759C7.07421 36.3198 7.11095 36.3561 7.15515 36.381C7.19852 36.4071 7.24816 36.4208 7.29874 36.4208C7.34932 36.4208 7.39895 36.4071 7.44232 36.381L10.2868 34.7519C10.3748 34.7008 10.4478 34.6276 10.4987 34.5395C10.5495 34.4514 10.5764 34.3515 10.5767 34.2497V30.7867C10.5765 30.6853 10.6031 30.5857 10.6538 30.4979C10.7045 30.4101 10.7774 30.3372 10.8652 30.2865L12.0765 29.5884C12.1646 29.5375 12.2646 29.5108 12.3664 29.5108C12.4675 29.5107 12.5668 29.5375 12.6542 29.5884L13.8648 30.2865C13.9528 30.337 14.0259 30.4099 14.0767 30.4977C14.1275 30.5855 14.1542 30.6852 14.154 30.7867V34.2525C14.1545 34.3542 14.1815 34.454 14.2323 34.542C14.2832 34.6301 14.3561 34.7034 14.4439 34.7547L17.2884 36.3838C17.3321 36.4098 17.3821 36.4236 17.433 36.4236C17.4839 36.4236 17.5339 36.4098 17.5776 36.3838C17.6212 36.3582 17.6573 36.3217 17.6825 36.2779C17.7077 36.2341 17.721 36.1845 17.7212 36.134L17.7307 28.7153ZM40.7654 18.5174C40.7215 18.4926 40.6718 18.4798 40.6213 18.4803C40.5708 18.4808 40.5214 18.4944 40.4778 18.52C40.4343 18.5455 40.3983 18.5821 40.3732 18.6259C40.3483 18.6697 40.3352 18.7194 40.3354 18.7699V26.1192C40.3349 26.1545 40.3253 26.1891 40.3074 26.2196C40.2895 26.2501 40.2641 26.2754 40.2335 26.2931C40.2029 26.3108 40.1682 26.3203 40.1329 26.3206C40.0975 26.3209 40.0627 26.312 40.0319 26.2948L38.8328 25.6041C38.7449 25.5532 38.6452 25.5265 38.5436 25.5265C38.4421 25.5265 38.3423 25.5532 38.2544 25.6041L33.4658 28.3675C33.3779 28.4184 33.3049 28.4914 33.2542 28.5793C33.2034 28.6672 33.1767 28.7669 33.1766 28.8684V34.3974C33.1766 34.4988 33.2033 34.5985 33.2539 34.6864C33.3045 34.7743 33.3774 34.8474 33.4651 34.8983L38.2544 37.6645C38.3423 37.7153 38.4421 37.7421 38.5436 37.7421C38.6452 37.7421 38.7449 37.7153 38.8328 37.6645L43.6228 34.8983C43.7106 34.8474 43.7834 34.7743 43.8341 34.6864C43.8847 34.5985 43.9114 34.4988 43.9114 34.3974V20.6126C43.9115 20.5097 43.8841 20.4087 43.832 20.3199C43.78 20.2311 43.7052 20.1579 43.6154 20.1077L40.7654 18.5174ZM40.3211 32.5784C40.321 32.6038 40.3142 32.6286 40.3015 32.6505C40.2887 32.6724 40.2703 32.6905 40.2483 32.703L38.6042 33.6509C38.5823 33.6636 38.5574 33.6703 38.5321 33.6703C38.5067 33.6703 38.4818 33.6636 38.4599 33.6509L36.8152 32.703C36.7933 32.6903 36.7751 32.6722 36.7625 32.6503C36.7498 32.6285 36.7431 32.6037 36.743 32.5784V30.6792C36.7432 30.6539 36.7499 30.629 36.7626 30.6071C36.7752 30.5851 36.7933 30.5668 36.8152 30.554L38.4599 29.6047C38.4818 29.592 38.5067 29.5853 38.5321 29.5853C38.5574 29.5853 38.5823 29.592 38.6042 29.6047L40.249 30.554C40.2708 30.5668 40.2889 30.5851 40.3016 30.6071C40.3142 30.629 40.3209 30.6539 40.3211 30.6792V32.5784Z" fill="white"/>
<path fill-rule="evenodd" clip-rule="evenodd" d="M56.7121 30.6295C56.7996 30.5787 56.8723 30.5059 56.9228 30.4182C56.9733 30.3306 56.9999 30.2312 57 30.13V28.7901C57.0001 28.6888 56.9735 28.5893 56.923 28.5015C56.8725 28.4137 56.7997 28.3408 56.7121 28.2899L51.9534 25.5271C51.8654 25.4762 51.7656 25.4493 51.6639 25.4493C51.5622 25.4493 51.4623 25.4762 51.3743 25.5271L46.5871 28.2906C46.4991 28.3414 46.4261 28.4144 46.3754 28.5023C46.3246 28.5902 46.2979 28.6899 46.2979 28.7915V34.3191C46.2979 34.4211 46.3249 34.5213 46.3762 34.6095C46.4275 34.6977 46.5012 34.7708 46.5898 34.8213L51.3471 37.5345C51.4338 37.5832 51.5315 37.6087 51.6309 37.6087C51.7303 37.6087 51.828 37.5832 51.9146 37.5345L54.7925 35.9346C54.8371 35.9094 54.8742 35.8728 54.9 35.8286C54.9258 35.7844 54.9394 35.7341 54.9394 35.6828C54.9394 35.6316 54.9258 35.5813 54.9 35.5371C54.8742 35.4928 54.8371 35.4563 54.7925 35.4311L49.9746 32.6662C49.9304 32.6408 49.8937 32.6042 49.8681 32.5601C49.8426 32.5161 49.8291 32.466 49.8289 32.4151V30.6832C49.829 30.6324 49.8424 30.5826 49.8678 30.5386C49.8933 30.4946 49.9299 30.4582 49.9739 30.4328L51.471 29.5686C51.5148 29.5432 51.5646 29.5298 51.6152 29.5298C51.6659 29.5298 51.7157 29.5432 51.7595 29.5686L53.2566 30.4328C53.3006 30.4582 53.3372 30.4946 53.3626 30.5386C53.3881 30.5826 53.4015 30.6324 53.4015 30.6832V32.0442C53.4015 32.095 53.4149 32.145 53.4403 32.189C53.4657 32.233 53.5022 32.2695 53.5462 32.2949C53.5903 32.3203 53.6402 32.3336 53.691 32.3336C53.7418 32.3336 53.7917 32.3201 53.8357 32.2947L56.7121 30.6295Z" fill="white"/>
<path fill-rule="evenodd" clip-rule="evenodd" d="M51.5934 30.3709C51.6103 30.3612 51.6294 30.3561 51.6489 30.3561C51.6684 30.3561 51.6875 30.3612 51.7044 30.3709L52.623 30.901C52.64 30.9106 52.6541 30.9246 52.6639 30.9414C52.6737 30.9583 52.6789 30.9775 52.6788 30.997V32.0585C52.6789 32.078 52.6737 32.0972 52.6639 32.114C52.6541 32.1309 52.64 32.1448 52.623 32.1545L51.7044 32.6846C51.6875 32.6942 51.6684 32.6993 51.6489 32.6993C51.6294 32.6993 51.6103 32.6942 51.5934 32.6846L50.6755 32.1545C50.6585 32.1448 50.6444 32.1309 50.6346 32.114C50.6248 32.0972 50.6196 32.078 50.6197 32.0585V30.997C50.6196 30.9775 50.6248 30.9583 50.6346 30.9414C50.6444 30.9246 50.6585 30.9106 50.6755 30.901L51.5934 30.3709Z" fill="white"/>
<path fill-rule="evenodd" clip-rule="evenodd" d="M25.1352 25.5843C25.2224 25.5341 25.3213 25.5078 25.422 25.5078C25.5226 25.5078 25.6215 25.5341 25.7088 25.5843L30.4593 28.326C30.5466 28.3764 30.619 28.4488 30.6694 28.536C30.7198 28.6231 30.7464 28.7221 30.7465 28.8228V34.3103C30.7464 34.411 30.7198 34.5099 30.6694 34.5971C30.619 34.6843 30.5466 34.7567 30.4593 34.807L25.7088 37.5508C25.6215 37.6009 25.5226 37.6273 25.422 37.6273C25.3213 37.6273 25.2224 37.6009 25.1352 37.5508L20.3853 34.807C20.2983 34.7565 20.226 34.6841 20.1757 34.5969C20.1254 34.5097 20.0989 34.4109 20.0988 34.3103V28.8241C20.0989 28.7234 20.1255 28.6245 20.1759 28.5373C20.2263 28.4501 20.2988 28.3777 20.386 28.3274L25.1352 25.5843Z" fill="url(#paint0_linear_80_2505)"/>
<mask id="mask0_80_2505" style="mask-type:luminance" maskUnits="userSpaceOnUse" x="20" y="25" width="11" height="13">
<path fill-rule="evenodd" clip-rule="evenodd" d="M25.7102 25.5843C25.6229 25.5341 25.524 25.5078 25.4233 25.5078C25.3227 25.5078 25.2238 25.5341 25.1365 25.5843L20.386 28.326C20.2988 28.3764 20.2263 28.4488 20.1759 28.536C20.1255 28.6231 20.0989 28.7221 20.0988 28.8228V34.3103C20.0989 34.4109 20.1254 34.5097 20.1757 34.5969C20.226 34.6841 20.2983 34.7565 20.3853 34.807L25.1358 37.5508C25.2232 37.6009 25.3222 37.6273 25.423 37.6273C25.5238 37.6273 25.6228 37.6009 25.7102 37.5508L30.4593 34.807C30.5466 34.7567 30.619 34.6843 30.6694 34.5971C30.7198 34.5099 30.7464 34.411 30.7465 34.3103V28.8241C30.7464 28.7234 30.7198 28.6245 30.6694 28.5373C30.619 28.4501 30.5466 28.3777 30.4593 28.3274L25.7102 25.5843Z" fill="white"/>
</mask>
<g mask="url(#mask0_80_2505)">
<path opacity="0.66" d="M30.4348 28.3261L25.7054 25.5843C25.6583 25.5577 25.6077 25.5378 25.555 25.5251L20.2104 34.6696C20.2556 34.7243 20.3102 34.7704 20.3717 34.8057L25.127 37.5508C25.1955 37.5906 25.2717 37.6154 25.3505 37.6238C25.4293 37.6321 25.5089 37.6237 25.5843 37.5992L30.5784 28.4533C30.5391 28.4021 30.4904 28.3589 30.4348 28.3261Z" fill="#4B4B4B"/>
<path d="M25.6979 37.5508L30.4348 34.807C30.5192 34.7554 30.5882 34.682 30.6346 34.5947C30.6811 34.5073 30.7032 34.4091 30.6989 34.3103V34.2885L25.5741 25.5299C25.5001 25.5089 25.4227 25.5029 25.3464 25.5123C25.2701 25.5216 25.1964 25.5461 25.1297 25.5843L20.4316 28.2947L25.5462 37.6113C25.5994 37.5986 25.6505 37.5782 25.6979 37.5508Z" fill="url(#paint1_linear_80_2505)"/>
</g>
<path d="M31.7129 49.1029C31.5457 49.1036 31.3813 49.06 31.2365 48.9763L29.7319 48.0822C29.5067 47.9563 29.6169 47.9113 29.6911 47.8855C29.9299 47.811 30.1585 47.707 30.3716 47.5759C30.3894 47.5676 30.4089 47.564 30.4285 47.5655C30.448 47.5669 30.4668 47.5733 30.4832 47.584L31.64 48.272C31.6616 48.2834 31.6857 48.2893 31.7101 48.2893C31.7346 48.2893 31.7586 48.2834 31.7802 48.272L36.2953 45.6657C36.3162 45.6529 36.3335 45.6349 36.3455 45.6134C36.3574 45.592 36.3635 45.5678 36.3634 45.5432V40.3347C36.3635 40.3099 36.3573 40.2854 36.3454 40.2637C36.3335 40.2419 36.3163 40.2235 36.2953 40.2102L31.7836 37.6025C31.7628 37.591 31.7394 37.5849 31.7156 37.5849C31.6918 37.5849 31.6683 37.591 31.6475 37.6025L27.1352 40.2075C27.1134 40.2201 27.0954 40.2381 27.0827 40.2599C27.0701 40.2816 27.0633 40.3062 27.063 40.3313V45.5419C27.0625 45.5663 27.0685 45.5905 27.0804 45.6118C27.0924 45.6331 27.1099 45.6508 27.1311 45.663L28.3682 46.3775C29.0392 46.713 29.4502 46.3176 29.4502 45.9209V40.7791C29.4502 40.7619 29.4536 40.7449 29.4602 40.729C29.4668 40.7132 29.4765 40.6988 29.4888 40.6867C29.501 40.6746 29.5155 40.6651 29.5314 40.6586C29.5473 40.6522 29.5644 40.6489 29.5815 40.6491H30.1538C30.171 40.649 30.1879 40.6523 30.2038 40.6588C30.2196 40.6653 30.234 40.6749 30.2462 40.6869C30.2583 40.699 30.268 40.7134 30.2745 40.7292C30.2811 40.745 30.2845 40.762 30.2845 40.7791V45.9243C30.3085 46.1088 30.2911 46.2963 30.2335 46.4732C30.1759 46.6501 30.0796 46.812 29.9516 46.947C29.8236 47.0819 29.667 47.1867 29.4934 47.2536C29.3198 47.3205 29.1335 47.3478 28.948 47.3336C28.5816 47.3399 28.2209 47.2417 27.9082 47.0505L26.7241 46.37C26.5795 46.2865 26.4593 46.1664 26.3757 46.0217C26.2921 45.8771 26.248 45.713 26.2478 45.5459V40.3347C26.2481 40.1678 26.2923 40.0038 26.3759 39.8593C26.4595 39.7148 26.5796 39.5948 26.7241 39.5113L31.2399 36.9023C31.3854 36.8229 31.5485 36.7813 31.7142 36.7813C31.88 36.7813 32.043 36.8229 32.1885 36.9023L36.7036 39.5113C36.8482 39.5948 36.9683 39.7148 37.0519 39.8593C37.1355 40.0038 37.1797 40.1678 37.1799 40.3347V45.5453C37.1798 45.7123 37.1357 45.8764 37.0521 46.0211C36.9685 46.1657 36.8483 46.2858 36.7036 46.3693L32.1885 48.9763C32.0439 49.0597 31.8798 49.1034 31.7129 49.1029Z" fill="#6ABF4B"/>
<path d="M33.1079 45.5126C31.1344 45.5126 30.718 44.6055 30.718 43.8454C30.7179 43.8282 30.7212 43.8111 30.7277 43.7952C30.7343 43.7794 30.7439 43.7649 30.756 43.7528C30.7682 43.7406 30.7826 43.731 30.7985 43.7245C30.8144 43.7179 30.8314 43.7146 30.8486 43.7147H31.4325C31.4637 43.7147 31.494 43.7258 31.5177 43.7462C31.5414 43.7665 31.557 43.7947 31.5618 43.8256C31.6502 44.4197 31.9129 44.7198 33.1079 44.7198C34.0605 44.7198 34.4641 44.5048 34.4641 43.9998C34.4641 43.7093 34.3491 43.4929 32.871 43.3479C31.6353 43.2261 30.8711 42.9532 30.8711 41.9645C30.8711 41.0533 31.6393 40.5103 32.9268 40.5103C34.3736 40.5103 35.0888 41.0125 35.18 42.0897C35.1814 42.1078 35.179 42.1261 35.1731 42.1433C35.1671 42.1605 35.1576 42.1763 35.1453 42.1897C35.1331 42.2029 35.1184 42.2135 35.102 42.2207C35.0856 42.228 35.0679 42.2318 35.05 42.2319H34.4634C34.4339 42.2317 34.4053 42.2215 34.3823 42.203C34.3593 42.1844 34.3433 42.1586 34.3368 42.1298C34.1966 41.5045 33.8544 41.3044 32.9268 41.3044C31.8884 41.3044 31.77 41.6664 31.77 41.9373C31.77 42.2659 31.9129 42.3612 33.3147 42.5497C34.7029 42.7327 35.3617 42.9927 35.3617 43.9678C35.3617 44.943 34.5389 45.5126 33.1079 45.5126Z" fill="#6ABF4B"/>
<path d="M39.6215 40.0475C39.6215 40.2197 39.5705 40.388 39.4749 40.5311C39.3792 40.6742 39.2433 40.7858 39.0843 40.8516C38.9252 40.9175 38.7502 40.9347 38.5814 40.9012C38.4126 40.8676 38.2575 40.7847 38.1358 40.663C38.014 40.5412 37.9311 40.3862 37.8976 40.2173C37.864 40.0485 37.8812 39.8735 37.9471 39.7145C38.013 39.5554 38.1245 39.4195 38.2676 39.3239C38.4108 39.2282 38.579 39.1772 38.7512 39.1772C38.9818 39.1777 39.2029 39.2696 39.366 39.4327C39.5291 39.5958 39.621 39.8169 39.6215 40.0475ZM38.0217 40.0475C38.0212 40.1922 38.0636 40.3337 38.1436 40.4542C38.2236 40.5747 38.3376 40.6687 38.4712 40.7243C38.6047 40.7799 38.7518 40.7946 38.8936 40.7665C39.0355 40.7384 39.1659 40.6688 39.2682 40.5666C39.3704 40.4643 39.44 40.3339 39.4681 40.192C39.4962 40.0501 39.4815 39.9031 39.4259 39.7696C39.3703 39.636 39.2763 39.522 39.1558 39.442C39.0353 39.362 38.8938 39.3196 38.7491 39.3201C38.5563 39.3201 38.3713 39.3964 38.2345 39.5323C38.0977 39.6682 38.0202 39.8527 38.019 40.0455L38.0217 40.0475ZM38.4245 39.5617H38.7607C38.8757 39.5617 39.101 39.5617 39.101 39.8196C39.1055 39.8753 39.0892 39.9307 39.0551 39.975C39.021 40.0193 38.9716 40.0493 38.9165 40.0591C39.0526 40.068 39.0594 40.1557 39.0778 40.2803C39.0826 40.3681 39.0996 40.4549 39.1282 40.5382H38.924C38.9193 40.4919 38.8866 40.2428 38.8866 40.2292C38.8737 40.1741 38.8546 40.1469 38.7859 40.1469H38.6151V40.5382H38.4266L38.4245 39.5617ZM38.609 39.9897H38.7607C38.7797 39.9921 38.799 39.9903 38.8172 39.9845C38.8354 39.9787 38.8521 39.9689 38.8662 39.956C38.8802 39.943 38.8913 39.9271 38.8986 39.9094C38.9059 39.8918 38.9092 39.8727 38.9084 39.8536C38.9084 39.7175 38.8158 39.7175 38.7655 39.7175H38.609V39.9897Z" fill="#6ABF4B"/>
<path fill-rule="evenodd" clip-rule="evenodd" d="M17.7307 28.7153C17.7311 28.6135 17.7046 28.5134 17.6538 28.4252C17.603 28.337 17.5298 28.2638 17.4415 28.2131L12.6542 25.4578C12.5738 25.4112 12.4831 25.385 12.3902 25.3815H12.3412C12.2481 25.3852 12.1573 25.4114 12.0765 25.4578L7.28921 28.2117C7.20114 28.2626 7.12804 28.3359 7.07727 28.424C7.02649 28.5122 6.99985 28.6122 7 28.7139L7.01021 36.1313C7.00995 36.1821 7.02325 36.232 7.04873 36.2759C7.07421 36.3198 7.11095 36.3561 7.15515 36.381C7.19852 36.4071 7.24816 36.4208 7.29874 36.4208C7.34932 36.4208 7.39895 36.4071 7.44232 36.381L10.2868 34.7519C10.3748 34.7008 10.4478 34.6276 10.4987 34.5395C10.5495 34.4514 10.5764 34.3515 10.5767 34.2497V30.7867C10.5765 30.6853 10.6031 30.5857 10.6538 30.4979C10.7045 30.4101 10.7774 30.3372 10.8652 30.2865L12.0765 29.5884C12.1646 29.5375 12.2646 29.5108 12.3664 29.5108C12.4675 29.5107 12.5668 29.5375 12.6542 29.5884L13.8648 30.2865C13.9528 30.337 14.0259 30.4099 14.0767 30.4977C14.1275 30.5855 14.1542 30.6852 14.154 30.7867V34.2525C14.1545 34.3542 14.1815 34.454 14.2323 34.542C14.2832 34.6301 14.3561 34.7034 14.4439 34.7547L17.2884 36.3838C17.3321 36.4098 17.3821 36.4236 17.433 36.4236C17.4839 36.4236 17.5339 36.4098 17.5776 36.3838C17.6212 36.3582 17.6573 36.3217 17.6825 36.2779C17.7077 36.2341 17.721 36.1845 17.7212 36.134L17.7307 28.7153ZM40.7654 18.5174C40.7215 18.4926 40.6718 18.4798 40.6213 18.4803C40.5708 18.4808 40.5214 18.4944 40.4778 18.52C40.4343 18.5455 40.3983 18.5821 40.3732 18.6259C40.3483 18.6697 40.3352 18.7194 40.3354 18.7699V26.1192C40.3349 26.1545 40.3253 26.1891 40.3074 26.2196C40.2895 26.2501 40.2641 26.2754 40.2335 26.2931C40.2029 26.3108 40.1682 26.3203 40.1329 26.3206C40.0975 26.3209 40.0627 26.312 40.0319 26.2948L38.8328 25.6041C38.7449 25.5532 38.6452 25.5265 38.5436 25.5265C38.4421 25.5265 38.3423 25.5532 38.2544 25.6041L33.4658 28.3675C33.3779 28.4184 33.3049 28.4914 33.2542 28.5793C33.2034 28.6672 33.1767 28.7669 33.1766 28.8684V34.3974C33.1766 34.4988 33.2033 34.5985 33.2539 34.6864C33.3045 34.7743 33.3774 34.8474 33.4651 34.8983L38.2544 37.6645C38.3423 37.7153 38.4421 37.7421 38.5436 37.7421C38.6452 37.7421 38.7449 37.7153 38.8328 37.6645L43.6228 34.8983C43.7106 34.8474 43.7834 34.7743 43.8341 34.6864C43.8847 34.5985 43.9114 34.4988 43.9114 34.3974V20.6126C43.9115 20.5097 43.8841 20.4087 43.832 20.3199C43.78 20.2311 43.7052 20.1579 43.6154 20.1077L40.7654 18.5174ZM40.3211 32.5784C40.321 32.6038 40.3142 32.6286 40.3015 32.6505C40.2887 32.6724 40.2703 32.6905 40.2483 32.703L38.6042 33.6509C38.5823 33.6636 38.5574 33.6703 38.5321 33.6703C38.5067 33.6703 38.4818 33.6636 38.4599 33.6509L36.8152 32.703C36.7933 32.6903 36.7751 32.6722 36.7625 32.6503C36.7498 32.6285 36.7431 32.6037 36.743 32.5784V30.6792C36.7432 30.6539 36.7499 30.629 36.7626 30.6071C36.7752 30.5851 36.7933 30.5668 36.8152 30.554L38.4599 29.6047C38.4818 29.592 38.5067 29.5853 38.5321 29.5853C38.5574 29.5853 38.5823 29.592 38.6042 29.6047L40.249 30.554C40.2708 30.5668 40.2889 30.5851 40.3016 30.6071C40.3142 30.629 40.3209 30.6539 40.3211 30.6792V32.5784Z" fill="white"/>
<path fill-rule="evenodd" clip-rule="evenodd" d="M56.7121 30.6295C56.7996 30.5787 56.8723 30.5059 56.9228 30.4182C56.9733 30.3306 56.9999 30.2312 57 30.13V28.7901C57.0001 28.6888 56.9735 28.5893 56.923 28.5015C56.8725 28.4137 56.7997 28.3408 56.7121 28.2899L51.9534 25.5271C51.8654 25.4762 51.7656 25.4493 51.6639 25.4493C51.5622 25.4493 51.4623 25.4762 51.3743 25.5271L46.5871 28.2906C46.4991 28.3414 46.4261 28.4144 46.3754 28.5023C46.3246 28.5902 46.2979 28.6899 46.2979 28.7915V34.3191C46.2979 34.4211 46.3249 34.5213 46.3762 34.6095C46.4275 34.6977 46.5012 34.7708 46.5898 34.8213L51.3471 37.5345C51.4338 37.5832 51.5315 37.6087 51.6309 37.6087C51.7303 37.6087 51.828 37.5832 51.9146 37.5345L54.7925 35.9346C54.8371 35.9094 54.8742 35.8728 54.9 35.8286C54.9258 35.7844 54.9394 35.7341 54.9394 35.6828C54.9394 35.6316 54.9258 35.5813 54.9 35.5371C54.8742 35.4928 54.8371 35.4563 54.7925 35.4311L49.9746 32.6662C49.9304 32.6408 49.8937 32.6042 49.8681 32.5601C49.8426 32.5161 49.8291 32.466 49.8289 32.4151V30.6832C49.829 30.6324 49.8424 30.5826 49.8678 30.5386C49.8933 30.4946 49.9299 30.4582 49.9739 30.4328L51.471 29.5686C51.5148 29.5432 51.5646 29.5298 51.6152 29.5298C51.6659 29.5298 51.7157 29.5432 51.7595 29.5686L53.2566 30.4328C53.3006 30.4582 53.3372 30.4946 53.3626 30.5386C53.3881 30.5826 53.4015 30.6324 53.4015 30.6832V32.0442C53.4015 32.095 53.4149 32.145 53.4403 32.189C53.4657 32.233 53.5022 32.2695 53.5462 32.2949C53.5903 32.3203 53.6402 32.3336 53.691 32.3336C53.7418 32.3336 53.7917 32.3201 53.8357 32.2947L56.7121 30.6295Z" fill="white"/>
<path fill-rule="evenodd" clip-rule="evenodd" d="M51.5935 30.3709C51.6104 30.3612 51.6295 30.3561 51.6489 30.3561C51.6684 30.3561 51.6875 30.3612 51.7044 30.3709L52.6231 30.901C52.64 30.9106 52.6541 30.9246 52.6639 30.9414C52.6737 30.9583 52.6789 30.9775 52.6789 30.997V32.0585C52.6789 32.078 52.6737 32.0972 52.6639 32.114C52.6541 32.1309 52.64 32.1448 52.6231 32.1545L51.7044 32.6846C51.6875 32.6942 51.6684 32.6993 51.6489 32.6993C51.6295 32.6993 51.6104 32.6942 51.5935 32.6846L50.6755 32.1545C50.6585 32.1448 50.6444 32.1309 50.6346 32.114C50.6248 32.0972 50.6197 32.078 50.6197 32.0585V30.997C50.6197 30.9775 50.6248 30.9583 50.6346 30.9414C50.6444 30.9246 50.6585 30.9106 50.6755 30.901L51.5935 30.3709Z" fill="#6ABF4B"/>
<path fill-rule="evenodd" clip-rule="evenodd" d="M25.7395 25.5578C25.652 25.5073 25.5529 25.4807 25.4519 25.4807C25.351 25.4807 25.2519 25.5073 25.1644 25.5578L20.401 28.3063C20.3133 28.3565 20.2406 28.4291 20.19 28.5166C20.1395 28.6041 20.1129 28.7034 20.1131 28.8044V34.3021C20.1131 34.403 20.1397 34.5022 20.1901 34.5896C20.2405 34.677 20.313 34.7496 20.4003 34.8002L25.1638 37.5508C25.2512 37.6012 25.3503 37.6278 25.4513 37.6278C25.5522 37.6278 25.6514 37.6012 25.7388 37.5508L30.5022 34.8002C30.5896 34.7496 30.6621 34.677 30.7125 34.5896C30.7629 34.5022 30.7894 34.403 30.7894 34.3021V28.801C30.7895 28.7001 30.763 28.6011 30.7126 28.5137C30.6621 28.4264 30.5896 28.3539 30.5022 28.3035L25.7395 25.5578Z" fill="#6ABF4B"/>
<mask id="mask1_80_2505" style="mask-type:luminance" maskUnits="userSpaceOnUse" x="20" y="25" width="11" height="13">
<path fill-rule="evenodd" clip-rule="evenodd" d="M25.7395 25.5578C25.652 25.5073 25.5529 25.4807 25.4519 25.4807C25.351 25.4807 25.2519 25.5073 25.1644 25.5578L20.401 28.3063C20.3133 28.3565 20.2406 28.4291 20.19 28.5166C20.1395 28.6041 20.1129 28.7034 20.1131 28.8044V34.3021C20.1131 34.403 20.1397 34.5022 20.1901 34.5896C20.2405 34.677 20.313 34.7496 20.4003 34.8002L25.1638 37.5508C25.2512 37.6012 25.3503 37.6278 25.4513 37.6278C25.5522 37.6278 25.6514 37.6012 25.7388 37.5508L30.5022 34.8002C30.5896 34.7496 30.6621 34.677 30.7125 34.5896C30.7629 34.5022 30.7894 34.403 30.7894 34.3021V28.801C30.7895 28.7001 30.763 28.6011 30.7126 28.5137C30.6621 28.4264 30.5896 28.3539 30.5022 28.3035L25.7395 25.5578Z" fill="white"/>
</mask>
<g mask="url(#mask1_80_2505)">
<path d="M30.5118 28.3029L25.7395 25.5577C25.6926 25.5309 25.6422 25.511 25.5897 25.4985L20.2274 34.6682C20.2737 34.7203 20.3279 34.7649 20.388 34.8002L25.1719 37.5508C25.2387 37.5889 25.3123 37.6134 25.3886 37.6228C25.4649 37.6323 25.5422 37.6265 25.6163 37.6059L30.639 28.4015C30.601 28.3633 30.5582 28.3302 30.5118 28.3029Z" fill="#6ABF4B"/>
<path d="M30.5145 34.8002C30.5833 34.7608 30.6436 34.7082 30.692 34.6453C30.7403 34.5825 30.7757 34.5107 30.7962 34.4341L25.5611 25.4897C25.4224 25.4627 25.2786 25.4869 25.1563 25.5577L20.4132 28.2892L25.5353 37.6222C25.609 37.613 25.6804 37.5899 25.7456 37.5542L30.5145 34.8002Z" fill="#6ABF4B"/>
<path d="M30.5145 34.8002L25.7476 37.5508C25.6824 37.5865 25.6111 37.6096 25.5373 37.6188L25.6319 37.7916L30.9275 34.7294V34.6573L30.7962 34.4334C30.7758 34.5101 30.7404 34.5821 30.6921 34.645C30.6437 34.708 30.5833 34.7607 30.5145 34.8002Z" fill="url(#paint2_linear_80_2505)"/>
<path d="M30.5145 34.8002L25.7476 37.5508C25.6824 37.5865 25.6111 37.6096 25.5373 37.6188L25.6319 37.7916L30.9275 34.7294V34.6573L30.7962 34.4334C30.7758 34.5101 30.7404 34.5821 30.6921 34.645C30.6437 34.708 30.5833 34.7607 30.5145 34.8002Z" fill="url(#paint3_linear_80_2505)"/>
</g>
<defs>
<linearGradient id="paint0_linear_80_2505" x1="20.0988" y1="31.5679" x2="30.7465" y2="31.5679" gradientUnits="userSpaceOnUse">
<stop offset="0.005" stop-color="white"/>
<stop offset="0.192" stop-color="#E8E8E8"/>
<stop offset="0.541" stop-color="#C3C3C3"/>
<stop offset="0.823" stop-color="#ABABAB"/>
<stop offset="1" stop-color="#A3A3A3"/>
</linearGradient>
<linearGradient id="paint1_linear_80_2505" x1="20.0253" y1="31.5597" x2="31.0092" y2="31.5597" gradientUnits="userSpaceOnUse">
<stop stop-color="#A3A3A3"/>
<stop offset="0.177" stop-color="#ABABAB"/>
<stop offset="0.459" stop-color="#C3C3C3"/>
<stop offset="0.808" stop-color="#E8E8E8"/>
<stop offset="0.995" stop-color="white"/>
</linearGradient>
<linearGradient id="paint2_linear_80_2505" x1="19.9477" y1="36.1142" x2="30.9588" y2="36.1142" gradientUnits="userSpaceOnUse">
<stop offset="0.092" stop-color="#6ABF4B"/>
<stop offset="0.289" stop-color="#63B649"/>
<stop offset="0.603" stop-color="#529F44"/>
<stop offset="0.862" stop-color="#3F873F"/>
</linearGradient>
<linearGradient id="paint3_linear_80_2505" x1="32.5627" y1="27.3413" x2="25.7721" y2="41.1948" gradientUnits="userSpaceOnUse">
<stop stop-color="#3F873F"/>
<stop offset="0.33" stop-color="#3F8B3D"/>
<stop offset="0.637" stop-color="#3E9637"/>
<stop offset="0.934" stop-color="#3DA92E"/>
<stop offset="1" stop-color="#3DAE2B"/>
</linearGradient>
</defs>
</svg>
