<svg width="64" height="65" viewBox="0 0 64 65" fill="none" xmlns="http://www.w3.org/2000/svg">
<rect y="0.193115" width="64" height="64" rx="32" fill="#EE0004"/>
<path fill-rule="evenodd" clip-rule="evenodd" d="M22.4447 48.5949C13.3668 48.5949 6 41.2465 6 32.1661C6 23.0857 13.3668 15.7111 22.4447 15.7111H41.5581C50.6385 15.7111 58 23.0857 58 32.1661C58 41.2465 50.6385 48.5949 41.5581 48.5949H22.4447ZM41.1329 42.7949C47.0143 42.7949 51.7776 38.0448 51.7776 32.1661C51.7776 26.2874 47.0143 21.511 41.1329 21.511H22.8671C16.9884 21.511 12.2224 26.2874 12.2224 32.1661C12.2224 38.0448 16.9884 42.7949 22.8671 42.7949H41.1329Z" fill="white"/>
</svg>
