<svg width="64" height="65" viewBox="0 0 64 65" fill="none" xmlns="http://www.w3.org/2000/svg">
<g clip-path="url(#clip0_59_2644)">
<path fill-rule="evenodd" clip-rule="evenodd" d="M20.2396 52.3891C9.06677 52.3891 0 43.3451 0 32.1691C0 20.9932 9.06677 11.9168 20.2396 11.9168H43.7638C54.9397 11.9168 64 20.9932 64 32.1691C64 43.3451 54.9397 52.3891 43.7638 52.3891H20.2396ZM43.2405 45.2508C50.4791 45.2508 56.3416 39.4044 56.3416 32.1691C56.3416 24.9338 50.4791 19.0552 43.2405 19.0552H20.7595C13.5242 19.0552 7.65835 24.9338 7.65835 32.1691C7.65835 39.4044 13.5242 45.2508 20.7595 45.2508H43.2405Z" fill="#EE0004"/>
</g>
<defs>
<clipPath id="clip0_59_2644">
<rect width="64" height="64" fill="white" transform="translate(0 0.193115)"/>
</clipPath>
</defs>
</svg>
