<svg width="64" height="65" viewBox="0 0 64 65" fill="none" xmlns="http://www.w3.org/2000/svg">
<g clip-path="url(#clip0_1_7872)">
<path d="M63.8803 38.165C63.7398 37.7531 63.1277 36.4421 60.935 36.8728C59.0349 37.3493 57.0595 37.4802 55.1098 37.259C62.1264 25.8588 65.7686 11.3676 62.352 7.14633C54.2624 -2.86067 40.7725 0.63862 38.2461 1.42714C38.1952 1.43539 38.145 1.44703 38.0957 1.46198L37.945 1.51265C36.303 1.11742 34.6198 0.904927 32.9283 0.879292C30.1446 0.767794 27.3858 1.42694 24.9757 2.77936C21.1305 1.56965 11.5057 -0.799098 5.31722 3.46656C1.47519 6.11715 -0.301834 10.8071 0.0417895 17.4003C0.192329 20.3613 5.21578 45.2331 12.8049 47.6811C13.2268 47.8184 13.6689 47.8888 14.114 47.8901C14.7961 47.8638 15.4649 47.699 16.0767 47.4059C16.6885 47.1131 17.2297 46.6984 17.6648 46.1896C18.0967 47.0571 19.5105 47.475 20.6821 47.8046L21.749 48.004C22.9304 48.2718 24.1361 48.4264 25.3488 48.4664C26.7338 48.4818 28.095 48.1182 29.276 47.4181C29.1005 51.571 29.5201 55.7272 30.5228 59.7685C31.1368 61.1509 32.1766 62.3163 33.5002 63.1058C34.8237 63.8952 36.3667 64.2702 37.919 64.18C38.8813 64.1726 39.84 64.0664 40.7792 63.8632C42.9366 63.6994 44.9683 62.8152 46.5264 61.3618C48.0845 59.9083 49.0723 57.9762 49.3206 55.8955C49.7789 53.3147 50.3811 48.5298 50.6624 45.8728C51.4166 46.0178 52.1843 46.0878 52.9533 46.0818C55.1629 46.0978 57.3542 45.6946 59.4035 44.8942C62.2605 43.6085 64.5578 40.1506 63.8803 38.165ZM59.6883 42.3419C59.3328 42.6254 58.9424 42.8658 58.5264 43.0574C58.4054 43.1115 58.2646 43.1525 58.1338 43.2002L57.9245 43.3045C56.0362 44.0414 54.017 44.4126 51.9811 44.397C51.1126 44.4094 50.2467 44.3029 49.409 44.0805C49.0816 47.0792 48.3584 52.6306 47.9462 54.9426C47.8122 56.8261 46.9869 58.6011 45.6192 59.9477C44.2518 61.2946 42.4317 62.1237 40.488 62.2862C39.7763 62.4392 39.0502 62.5189 38.3213 62.5237C37.4253 62.5554 36.5331 62.3944 35.7091 62.052C34.8851 61.7099 34.1501 61.195 33.5565 60.5445C33.1117 60.1218 32.7539 59.621 32.5027 59.0686C32.2586 58.628 32.04 58.1746 31.8482 57.7102C31.0227 53.4731 30.7272 49.1554 30.9679 44.8501C29.357 46.2258 27.2713 46.9672 25.123 46.9272C24.1293 46.9208 23.1401 46.7963 22.1777 46.557C21.8831 46.484 19.288 45.8062 19.3207 44.1912C19.3534 42.7061 21.5199 42.2722 22.3348 42.1106C25.1557 41.5502 25.3357 41.3253 26.2095 40.2517C26.3862 40.0331 26.6022 39.7768 26.8444 39.5013V39.4507C25.5926 39.403 24.3689 39.0779 23.2675 38.5006C22.5213 39.267 20.4465 41.4331 18.2015 44.0488C17.783 44.637 17.2317 45.1256 16.5893 45.4773C15.9469 45.829 15.2303 46.0344 14.4936 46.0786C14.0963 46.0782 13.7016 46.0152 13.3253 45.8917C6.45283 43.675 2.08062 20.8363 1.93335 17.9799C1.73573 15.2969 2.10542 12.603 3.01986 10.0629C3.36502 9.01712 3.89424 8.03686 4.58416 7.16534C5.13619 6.43452 5.79802 5.78771 6.54771 5.24627C7.48333 4.56848 8.52525 4.04028 9.63379 3.68188C14.9509 2.47338 20.524 2.88371 25.591 4.85676C26.1114 4.51612 26.6585 4.21539 27.2273 3.9574C27.6727 3.77014 28.1296 3.6094 28.5953 3.47606C30.0904 2.99419 31.6567 2.75139 33.2326 2.75719H33.527C35.0864 2.7797 36.6381 2.97521 38.1514 3.33988L38.2886 3.29554C38.3344 3.28016 38.3814 3.26954 38.4294 3.26387C41.6704 2.30222 45.0733 1.95702 48.4502 2.24734C50.8301 2.36736 53.1558 2.97915 55.271 4.04156C57.3859 5.104 59.2416 6.59241 60.7126 8.40672C61.0653 8.89897 61.2992 9.46179 61.3965 10.0534C63.1606 15.5225 59.2989 28.4904 52.7504 38.1682C53.2806 38.5355 54.8678 39.1371 59.3414 38.2504C60.8829 37.9336 61.809 38.2187 62.1002 39.0674C62.4832 40.1915 61.1184 41.4331 59.6883 42.3419Z" fill="black"/>
<path d="M59.5802 39.2354C52.1383 40.7205 51.6279 38.2853 51.6279 38.2853C59.4823 27.0083 62.7546 12.6914 59.9338 9.18575C52.2039 -0.371575 38.8221 4.14742 38.5965 4.26457H38.5245C36.8903 3.94879 35.2295 3.78127 33.5632 3.76422C30.7527 3.62943 27.9797 4.43331 25.7088 6.04115C25.7088 6.04115 1.8352 -3.47502 2.94461 18.0115C3.18351 22.5812 9.71563 52.596 17.511 43.5294C20.3581 40.2139 23.1104 37.411 23.1104 37.411C24.4958 38.3182 26.1643 38.7304 27.8295 38.5765L27.9637 38.469C27.9234 38.899 27.941 39.332 28.016 39.7579C26.0066 41.9301 26.599 42.3102 22.5835 43.1083C18.568 43.9064 20.9079 45.363 22.4657 45.7397C24.1201 46.2571 25.9011 46.2555 27.5547 45.7358C29.2083 45.2162 30.6502 44.2046 31.6748 42.8453L31.557 43.3013C32.6416 45.4785 33.0736 47.9067 32.8039 50.3096C32.5466 52.572 32.704 54.861 33.2685 57.0706C33.8903 58.7013 34.5088 62.3749 39.7843 61.2792C41.6602 61.1016 43.4055 60.2709 44.696 58.9416C45.9866 57.6126 46.7344 55.8754 46.8007 54.0526C47.0266 51.2437 47.537 51.6584 47.5699 49.1474L47.9789 47.9598C48.4503 44.1595 48.0541 42.9214 50.7706 43.4946L51.425 43.5483C53.5245 43.6344 55.6192 43.2936 57.5741 42.5477C60.8829 41.0626 62.8397 38.5829 59.5802 39.2354Z" fill="#316192"/>
<path d="M27.1029 20.0478C26.561 19.9367 25.9958 20.0165 25.5092 20.2726C25.4432 20.3159 25.3873 20.3721 25.345 20.4375C25.3028 20.503 25.2751 20.5763 25.2637 20.6526C25.2635 20.9192 25.3609 21.1773 25.5387 21.381C25.8545 21.7987 26.3223 22.085 26.8477 22.1822H27.0735C27.425 22.1867 27.7693 22.0855 28.0588 21.8926C28.3484 21.6998 28.569 21.4248 28.6902 21.1055C28.8014 20.545 27.9342 20.1491 27.1029 20.0478ZM49.1341 19.8008C48.6813 19.5691 48.1578 19.5017 47.6582 19.6107C46.8826 19.7153 46.1299 20.0573 46.1952 20.5038C46.2787 20.78 46.4701 21.0139 46.7286 21.1562C47.001 21.3414 47.3254 21.442 47.6582 21.4443C47.7235 21.4491 47.7891 21.4491 47.8544 21.4443C48.3443 21.3598 48.7811 21.094 49.072 20.7033C49.2234 20.5327 49.3101 20.317 49.3174 20.0921C49.3094 20.0339 49.2893 19.9779 49.2576 19.9277C49.2259 19.8775 49.184 19.8343 49.1341 19.8008Z" fill="white"/>
<path d="M62.0938 39.0517C61.8022 38.2027 60.8762 37.9243 59.3347 38.2344C54.8611 39.1211 53.2739 38.5195 52.7437 38.1522C59.999 27.4327 63.9786 12.3715 60.6406 8.24521C53.1824 -0.979598 40.7562 2.51652 38.423 3.24805C38.375 3.25372 38.3277 3.26433 38.2822 3.27971L38.1446 3.32404C36.6314 2.95937 35.08 2.76387 33.5206 2.74136H33.2259C30.5168 2.67796 27.8521 3.41597 25.5877 4.85677C23.3787 4.05558 13.1518 0.708293 6.78988 5.06576C3.24566 7.49469 1.60609 11.8363 1.92353 17.9672C2.0708 20.8173 6.43974 43.6594 13.3155 45.8792C13.6918 46.0024 14.0865 46.0654 14.4838 46.0661C15.2204 46.0219 15.9371 45.8162 16.5795 45.4645C17.2219 45.1128 17.7731 44.6245 18.1916 44.036C20.4367 41.4203 22.5115 39.2542 23.2577 38.4878C24.3591 39.0654 25.5828 39.3906 26.8346 39.4379V39.4885C26.5924 39.764 26.3764 40.0206 26.1997 40.2392C25.3259 41.3128 25.1459 41.5374 22.325 42.0981C21.5101 42.2594 19.3436 42.6933 19.3109 44.1787C19.2781 45.7938 21.8733 46.4712 22.1679 46.5442C23.1303 46.7835 24.1195 46.908 25.1132 46.9147C27.2631 46.9605 29.3525 46.2235 30.9679 44.8501C30.732 49.1582 31.0331 53.4779 31.8646 57.7166C32.2528 59.0894 33.0934 60.3026 34.2586 61.1714C35.424 62.0398 36.8506 62.517 38.3213 62.5301C39.0502 62.5253 39.7763 62.4456 40.488 62.2926C42.4317 62.1301 44.2518 61.3006 45.6192 59.9541C46.9869 58.6075 47.8122 56.8325 47.9462 54.9486C48.3584 52.6277 49.0688 47.0856 49.409 44.0869C50.2467 44.3093 51.1126 44.4158 51.9814 44.4034C54.017 44.419 56.0362 44.0478 57.9245 43.3109C59.6131 42.5445 62.6499 40.6824 62.0938 39.0517ZM50.6198 27.6892C51.1104 29.9221 50.9344 32.244 50.1126 34.3838C49.9485 34.0962 49.801 33.8002 49.6707 33.4971C49.4118 32.9659 49.129 32.4462 48.8234 31.939C47.2262 29.1681 43.489 22.6794 45.3936 20.0446C46.359 18.7114 48.8003 18.6417 50.9571 18.8887C50.9338 19.7217 50.8528 20.5522 50.7149 21.3747C50.5411 22.354 50.4317 23.3429 50.3875 24.3356C50.3789 25.4575 50.4566 26.5785 50.6198 27.6892ZM59.1286 9.67027C61.4195 12.4887 58.88 25.3268 51.6016 36.4328C51.5395 36.3566 51.4938 36.2869 51.4282 36.2078L51.3398 36.1C52.7798 33.4498 53.2032 30.3912 52.5344 27.4675C52.3795 26.4505 52.303 25.4237 52.3053 24.3957C52.3472 23.4781 52.4512 22.5642 52.6163 21.6596C52.8362 20.49 52.9293 19.3013 52.8944 18.1129C52.9235 18.0011 52.9366 17.886 52.9338 17.7708C52.0883 14.8743 50.6157 12.185 48.6138 9.88147C46.6118 7.57795 44.1264 5.71289 41.3226 4.41024C44.4998 3.57145 47.8579 3.62029 51.0077 4.55113C54.1578 5.48198 56.9709 7.2568 59.1222 9.67027H59.1286ZM16.7124 42.8517C15.2561 44.549 14.2547 44.2261 13.9275 44.1186C8.93673 42.5064 4.09327 22.6129 3.8511 17.8785C3.56966 12.4285 4.93107 8.63155 7.90259 6.59216C12.7231 3.28605 20.6166 5.23993 23.8467 6.25331C23.8135 6.28016 23.7819 6.3087 23.7518 6.33881C20.3094 10.4149 18.4881 15.5484 18.6171 20.811C18.6171 21.001 18.6171 21.3145 18.6596 21.7293C18.851 24.1752 18.7863 26.6335 18.4666 29.0668C18.2484 30.4686 18.3638 31.9002 18.8039 33.2523C19.244 34.6046 19.9972 35.8418 21.0061 36.8696C21.209 37.0754 21.4413 37.2338 21.6606 37.4174C19.9599 39.1845 18.3099 40.9966 16.7124 42.8517ZM22.397 35.5902C21.5905 34.7646 20.9892 33.772 20.6387 32.6875C20.2883 31.6033 20.1979 30.4559 20.3745 29.3327C20.712 26.7778 20.7811 24.1964 20.5806 21.628C20.5806 21.419 20.5545 21.2416 20.5512 21.096C22.5119 19.6736 24.9416 18.9923 27.3844 19.1801C27.9415 19.3001 28.4455 19.5868 28.825 19.9994C29.2044 20.412 29.44 20.9297 29.4985 21.4792C30.7785 25.405 30.472 29.6546 28.6411 33.3704C28.4218 33.8453 28.2123 34.2952 28.0389 34.748L27.9015 35.1026C27.5686 35.9186 27.2824 36.7515 27.0441 37.5979C26.1699 37.5816 25.3082 37.3954 24.5099 37.0507C23.7116 36.7058 22.9931 36.2091 22.397 35.5902ZM22.6457 44.755C22.2376 44.6584 21.8477 44.5 21.4904 44.2862C21.8887 44.1314 22.302 44.0158 22.7242 43.941C26.0754 43.276 26.5891 42.8043 27.7215 41.4075C27.9735 41.091 28.268 40.7362 28.6771 40.2962C29.2596 39.6629 29.5116 39.764 30.0123 39.9794C30.2433 40.101 30.4458 40.2677 30.6069 40.4686C30.768 40.6699 30.8843 40.9013 30.9483 41.148C31.0129 41.3253 31.0365 41.5144 31.0172 41.7016C30.998 41.8888 30.9365 42.0693 30.837 42.2309C29.9292 43.443 28.6442 44.3419 27.1702 44.7963C25.6962 45.2504 24.1106 45.236 22.6457 44.755ZM40.0854 60.4779C39.4301 60.6962 38.7344 60.7787 38.0438 60.7202C37.3533 60.6616 36.6832 60.4635 36.0771 60.1384C35.4707 59.8133 34.9418 59.3685 34.5245 58.8328C34.1072 58.2971 33.8109 57.6827 33.6547 57.0293C32.8304 51.8744 32.5955 46.6472 32.9542 41.4424V41.3189C32.9491 41.2363 32.9338 41.1544 32.9085 41.075C32.8893 40.9237 32.8611 40.7736 32.8234 40.6254C32.6826 40.1077 32.4256 39.6264 32.071 39.2152C31.7165 38.8043 31.2728 38.4738 30.7715 38.2472C30.2064 37.9867 29.5707 37.9058 28.9553 38.0162C29.1704 37.2494 29.4282 36.4946 29.7276 35.755L29.8683 35.3941C30.0254 34.9822 30.2185 34.5707 30.4214 34.1272C32.4208 30.0483 32.7709 25.3931 31.4032 21.077C31.2899 20.4484 31.047 19.8482 30.6888 19.3124C30.3306 18.7767 29.8645 18.3163 29.3184 17.9586C28.7723 17.601 28.1572 17.3535 27.5101 17.2309C26.8629 17.1083 26.1969 17.1132 25.5517 17.2452C23.8293 17.4788 22.1656 18.0155 20.6428 18.8286C20.8259 14.722 22.4055 10.7889 25.1361 7.64035C26.2029 6.62685 27.4726 5.8352 28.8672 5.31401C30.2618 4.79283 31.7518 4.55318 33.2458 4.60976H33.5043C37.3424 4.72169 41.0534 5.96701 44.1392 8.17859C47.225 10.3902 49.5376 13.4622 50.767 16.9823C47.2982 16.6403 45.0205 17.299 43.8128 18.9647C41.2176 22.5559 45.073 29.2409 47.1411 32.835C47.5043 33.4686 47.7955 33.9403 47.8906 34.197C48.4003 35.3442 49.0842 36.4117 49.9197 37.3637C50.0896 37.5662 50.2467 37.7595 50.3776 37.9336C49.3731 38.2219 47.5238 38.963 47.6646 42.2248C47.537 43.8587 46.5587 51.7534 46.048 54.629C45.9888 56.1483 45.344 57.5912 44.2403 58.6738C43.137 59.7563 41.6547 60.3998 40.0854 60.4779ZM57.103 41.6136C54.72 42.5656 52.0928 42.7867 49.576 42.2469C49.4515 40.1189 50.2467 39.9035 51.0944 39.6754C51.1827 39.6501 51.3136 39.6152 51.4576 39.5646C51.5328 39.6216 51.6179 39.6786 51.7062 39.7387C54.2099 40.7762 57.0186 40.8955 59.6064 40.0744C58.8554 40.6984 58.017 41.2165 57.1158 41.6136H57.103Z" fill="white"/>
</g>
<defs>
<clipPath id="clip0_1_7872">
<rect width="64" height="64" fill="white" transform="translate(0 0.193115)"/>
</clipPath>
</defs>
</svg>
