<svg width="64" height="65" viewBox="0 0 64 65" fill="none" xmlns="http://www.w3.org/2000/svg">
<rect y="0.193115" width="64" height="64" rx="32" fill="white"/>
<path d="M55.9102 39.672C55.8049 39.3631 55.3458 38.3799 53.7013 38.7029C52.2762 39.0603 50.7946 39.1584 49.3323 38.9926C54.5948 30.4424 57.3265 19.574 54.764 16.408C48.6968 8.90278 38.5794 11.5272 36.6845 12.1186C36.6464 12.1248 36.6087 12.1336 36.5718 12.1448L36.4587 12.1828C35.2273 11.8863 33.9649 11.727 32.6962 11.7077C30.6084 11.6241 28.5394 12.1185 26.7318 13.1328C23.8478 12.2255 16.6293 10.449 11.9879 13.6482C9.10636 15.6361 7.77359 19.1536 8.03131 24.0985C8.14422 26.3192 11.9118 44.9731 17.6037 46.8091C17.9201 46.9121 18.2516 46.9649 18.5855 46.9659C19.0971 46.9462 19.5986 46.8226 20.0575 46.6027C20.5164 46.3831 20.9222 46.0721 21.2486 45.6905C21.5725 46.3411 22.6329 46.6546 23.5116 46.9018L24.3117 47.0513C25.1978 47.2522 26.1021 47.3681 27.0116 47.3981C28.0503 47.4096 29.0712 47.137 29.957 46.6119C29.8253 49.7266 30.14 52.8437 30.8921 55.8747C31.3526 56.9115 32.1325 57.7855 33.1251 58.3776C34.1178 58.9697 35.275 59.251 36.4393 59.1833C37.161 59.1778 37.88 59.0981 38.5844 58.9457C40.2025 58.8228 41.7262 58.1597 42.8948 57.0696C44.0634 55.9795 44.8042 54.5304 44.9905 52.9699C45.3342 51.0343 45.7858 47.4456 45.9968 45.4529C46.5625 45.5616 47.1382 45.6142 47.715 45.6096C49.3722 45.6216 51.0157 45.3192 52.5526 44.719C54.6954 43.7547 56.4183 41.1612 55.9102 39.672ZM52.7662 42.8047C52.4996 43.0174 52.2068 43.1976 51.8948 43.3414C51.8041 43.3819 51.6985 43.4127 51.6003 43.4484L51.4434 43.5267C50.0271 44.0794 48.5127 44.3578 46.9858 44.346C46.3345 44.3554 45.685 44.2755 45.0567 44.1087C44.8112 46.3577 44.2688 50.5212 43.9597 52.2552C43.8591 53.6679 43.2402 54.9991 42.2144 56.0091C41.1889 57.0192 39.8238 57.6411 38.366 57.763C37.8322 57.8777 37.2877 57.9375 36.7409 57.9411C36.0689 57.9648 35.3998 57.8441 34.7818 57.5873C34.1638 57.3307 33.6125 56.9446 33.1673 56.4567C32.8337 56.1396 32.5654 55.764 32.377 55.3498C32.1939 55.0193 32.03 54.6792 31.8862 54.331C31.267 51.1531 31.0454 47.9148 31.2259 44.6859C30.0177 45.7176 28.4535 46.2737 26.8423 46.2437C26.0969 46.2389 25.3551 46.1455 24.6332 45.966C24.4123 45.9113 22.466 45.403 22.4905 44.1917C22.515 43.0779 24.1399 42.7524 24.751 42.6312C26.8668 42.211 27.0018 42.0423 27.6571 41.2371C27.7897 41.0731 27.9517 40.8809 28.1333 40.6743V40.6363C27.1945 40.6006 26.2767 40.3567 25.4506 39.9238C24.891 40.4986 23.3348 42.1231 21.6511 44.0849C21.3372 44.526 20.9237 44.8925 20.4419 45.1563C19.9602 45.42 19.4227 45.5741 18.8702 45.6072C18.5722 45.607 18.2762 45.5597 17.9939 45.4671C12.8396 43.8046 9.56044 26.6755 9.44999 24.5332C9.30177 22.5209 9.57904 20.5006 10.2649 18.5955C10.5237 17.8111 10.9207 17.0759 11.4381 16.4223C11.8521 15.8742 12.3485 15.3891 12.9108 14.983C13.6125 14.4746 14.3939 14.0785 15.2253 13.8097C19.2132 12.9033 23.393 13.2111 27.1932 14.6909C27.5835 14.4354 27.9938 14.2098 28.4205 14.0163C28.7545 13.8759 29.0972 13.7553 29.4464 13.6553C30.5678 13.2939 31.7425 13.1118 32.9245 13.1162H33.1453C34.3148 13.1331 35.4785 13.2797 36.6135 13.5532L36.7165 13.5199C36.7508 13.5084 36.7861 13.5004 36.8221 13.4962C39.2528 12.7749 41.805 12.516 44.3377 12.7338C46.1226 12.8238 47.8669 13.2826 49.4533 14.0795C51.0394 14.8763 52.4312 15.9926 53.5345 17.3533C53.799 17.7225 53.9744 18.1446 54.0474 18.5884C55.3705 22.6901 52.4742 32.4161 47.5628 39.6744C47.9605 39.9499 49.1509 40.4011 52.5061 39.7361C53.6622 39.4985 54.3567 39.7123 54.5751 40.3488C54.8624 41.1919 53.8388 42.1231 52.7662 42.8047Z" fill="black"/>
<path d="M52.6851 40.4748C47.1037 41.5886 46.7209 39.7622 46.7209 39.7622C52.6117 31.3045 55.0659 20.5668 52.9503 17.9376C47.1529 10.7696 37.1166 14.1588 36.9474 14.2467H36.8934C35.6677 14.0099 34.4221 13.8842 33.1724 13.8714C31.0645 13.7703 28.9848 14.3732 27.2816 15.5791C27.2816 15.5791 9.37637 8.442 10.2084 24.5569C10.3876 27.9842 15.2867 50.4953 21.1332 43.6954C23.2686 41.2087 25.3328 39.1066 25.3328 39.1066C26.3718 39.787 27.6232 40.0961 28.8721 39.9806L28.9727 39.9C28.9426 40.2226 28.9558 40.5473 29.012 40.8667C27.505 42.4958 27.9492 42.781 24.9376 43.3795C21.926 43.9781 23.6809 45.0706 24.8492 45.353C26.0901 45.7411 27.4258 45.7399 28.666 45.3502C29.9062 44.9604 30.9876 44.2018 31.7561 43.1822L31.6677 43.5242C32.4812 45.1572 32.8052 46.9783 32.6029 48.7805C32.4099 50.4773 32.528 52.194 32.9514 53.8512C33.4177 55.0742 33.8816 57.8294 37.8382 57.0077C39.2451 56.8745 40.5541 56.2514 41.522 55.2545C42.4899 54.2578 43.0508 52.9548 43.1005 51.5878C43.2699 49.481 43.6527 49.7921 43.6774 47.9088L43.9842 47.0182C44.3377 44.1679 44.0406 43.2394 46.0779 43.6692L46.5687 43.7095C48.1434 43.7741 49.7144 43.5185 51.1806 42.959C53.6622 41.8452 55.1298 39.9854 52.6851 40.4748Z" fill="#316192"/>
<path d="M28.3272 26.0841C27.9207 26.0008 27.4969 26.0606 27.1319 26.2527C27.0824 26.2852 27.0404 26.3273 27.0087 26.3764C26.977 26.4255 26.9563 26.4805 26.9478 26.5377C26.9476 26.7377 27.0206 26.9312 27.154 27.084C27.3909 27.3973 27.7417 27.612 28.1357 27.6849H28.3051C28.5687 27.6883 28.8269 27.6124 29.0441 27.4677C29.2612 27.3231 29.4267 27.1168 29.5176 26.8774C29.6011 26.457 28.9506 26.1601 28.3272 26.0841ZM44.8505 25.8988C44.511 25.7251 44.1183 25.6745 43.7437 25.7563C43.1619 25.8347 42.5974 26.0912 42.6464 26.4261C42.709 26.6333 42.8525 26.8087 43.0465 26.9154C43.2507 27.0543 43.4941 27.1298 43.7437 27.1315C43.7926 27.1351 43.8418 27.1351 43.8908 27.1315C44.2582 27.0681 44.5858 26.8688 44.804 26.5757C44.9175 26.4478 44.9825 26.286 44.9881 26.1173C44.9821 26.0737 44.9669 26.0317 44.9432 25.994C44.9194 25.9564 44.888 25.924 44.8505 25.8988Z" fill="white"/>
<path d="M54.5703 40.337C54.3517 39.7003 53.6571 39.4915 52.501 39.7241C49.1458 40.3891 47.9554 39.9379 47.5578 39.6624C52.9993 31.6228 55.9839 20.3269 53.4805 17.2322C47.8868 10.3136 38.5671 12.9356 36.8173 13.4843C36.7813 13.4885 36.7457 13.4965 36.7117 13.508L36.6085 13.5413C35.4735 13.2678 34.31 13.1212 33.1405 13.1043H32.9194C30.8876 13.0567 28.889 13.6102 27.1908 14.6908C25.534 14.0899 17.8639 11.5795 13.0924 14.8476C10.4342 16.6693 9.20454 19.9255 9.44262 24.5237C9.55307 26.6612 12.8298 43.7928 17.9866 45.4577C18.2689 45.5501 18.5648 45.5974 18.8628 45.5978C19.4153 45.5647 19.9528 45.4104 20.4346 45.1466C20.9164 44.8829 21.3298 44.5166 21.6437 44.0753C23.3275 42.1135 24.8836 40.489 25.4432 39.9142C26.2693 40.3474 27.1871 40.5912 28.1259 40.6267V40.6646C27.9443 40.8713 27.7823 41.0638 27.6498 41.2277C26.9944 42.0329 26.8594 42.2014 24.7437 42.6218C24.1325 42.7428 22.5077 43.0682 22.4831 44.1823C22.4586 45.3936 24.405 45.9017 24.6259 45.9564C25.3477 46.1359 26.0896 46.2293 26.8349 46.2343C28.4473 46.2686 30.0144 45.7159 31.2259 44.6858C31.049 47.917 31.2748 51.1567 31.8984 54.3358C32.1896 55.3654 32.8201 56.2752 33.6939 56.9268C34.568 57.5782 35.6379 57.936 36.7409 57.9458C37.2877 57.9422 37.8322 57.8825 38.366 57.7678C39.8237 57.6458 41.1889 57.0238 42.2144 56.0138C43.2402 55.0039 43.8591 53.6726 43.9597 52.2598C44.2688 50.519 44.8016 46.3625 45.0567 44.1134C45.685 44.2802 46.3345 44.3602 46.9861 44.3508C48.5127 44.3626 50.0271 44.0842 51.4434 43.5314C52.7098 42.9566 54.9874 41.5601 54.5703 40.337ZM45.9649 31.8152C46.3328 33.4899 46.2008 35.2313 45.5845 36.8362C45.4614 36.6204 45.3507 36.3984 45.253 36.1711C45.0589 35.7727 44.8467 35.3829 44.6175 35.0025C43.4197 32.9243 40.6167 28.0578 42.0452 26.0817C42.7693 25.0818 44.6002 25.0296 46.2178 25.2148C46.2003 25.8395 46.1396 26.4624 46.0362 27.0793C45.9058 27.8137 45.8238 28.5554 45.7906 29.3C45.7842 30.1414 45.8425 30.9821 45.9649 31.8152ZM52.3465 18.301C54.0646 20.4148 52.16 30.0434 46.7012 38.3729C46.6546 38.3158 46.6203 38.2634 46.5711 38.2042L46.5049 38.1233C47.5849 36.1356 47.9024 33.8417 47.4008 31.6489C47.2846 30.8861 47.2273 30.1161 47.229 29.3451C47.2604 28.6569 47.3384 27.9714 47.4622 27.293C47.6271 26.4158 47.697 25.5242 47.6708 24.6329C47.6926 24.5491 47.7025 24.4628 47.7003 24.3764C47.0662 22.204 45.9618 20.187 44.4603 18.4594C42.9589 16.7317 41.0948 15.3329 38.9919 14.3559C41.3749 13.7268 43.8934 13.7635 46.2558 14.4616C48.6183 15.1597 50.7282 16.4909 52.3417 18.301H52.3465ZM20.5343 43.187C19.4421 44.46 18.691 44.2178 18.4456 44.1372C14.7025 42.9281 11.0699 28.0079 10.8883 24.4572C10.6772 20.3696 11.6983 17.5219 13.9269 15.9924C17.5423 13.5128 23.4625 14.9782 25.885 15.7382C25.8601 15.7584 25.8364 15.7798 25.8138 15.8024C23.2321 18.8594 21.866 22.7095 21.9628 26.6565C21.9628 26.799 21.9628 27.0341 21.9947 27.3452C22.1382 29.1796 22.0897 31.0234 21.8499 32.8483C21.6863 33.8997 21.7729 34.9734 22.1029 35.9875C22.433 37.0018 22.9979 37.9296 23.7545 38.7005C23.9067 38.8548 24.081 38.9736 24.2454 39.1114C22.9699 40.4366 21.7324 41.7958 20.5343 43.187ZM24.7977 37.741C24.1928 37.1217 23.7419 36.3773 23.479 35.5639C23.2162 34.7507 23.1484 33.8902 23.2808 33.0478C23.534 31.1316 23.5858 29.1956 23.4355 27.2693C23.4355 27.1125 23.4158 26.9795 23.4134 26.8702C24.8839 25.8034 26.7062 25.2925 28.5383 25.4333C28.9561 25.5234 29.3341 25.7384 29.6187 26.0478C29.9033 26.3573 30.08 26.7456 30.1239 27.1576C31.0838 30.102 30.854 33.2892 29.4808 36.0761C29.3163 36.4322 29.1592 36.7697 29.0292 37.1093L28.9261 37.3752C28.6764 37.9872 28.4618 38.6119 28.283 39.2467C27.6274 39.2345 26.9811 39.0948 26.3824 38.8363C25.7837 38.5776 25.2448 38.2051 24.7977 37.741ZM24.9842 44.6146C24.6782 44.5421 24.3858 44.4233 24.1178 44.263C24.4165 44.1468 24.7265 44.0602 25.0431 44.004C27.5565 43.5053 27.9418 43.1515 28.7911 42.1039C28.9801 41.8666 29.201 41.6004 29.5078 41.2704C29.9447 40.7954 30.1337 40.8713 30.5092 41.0328C30.6825 41.124 30.8343 41.249 30.9552 41.3998C31.076 41.5507 31.1632 41.7242 31.2112 41.9093C31.2597 42.0422 31.2773 42.1841 31.2629 42.3245C31.2485 42.4649 31.2023 42.6002 31.1277 42.7214C30.4469 43.6306 29.4831 44.3047 28.3776 44.6455C27.2721 44.9861 26.0829 44.9753 24.9842 44.6146ZM38.0641 56.4067C37.5725 56.5704 37.0508 56.6323 36.5329 56.5884C36.0149 56.5445 35.5124 56.3959 35.0578 56.1521C34.603 55.9082 34.2063 55.5746 33.8933 55.1729C33.5804 54.7711 33.3581 54.3103 33.241 53.8202C32.6228 49.9541 32.4466 46.0337 32.7157 42.1301V42.0374C32.7118 41.9755 32.7003 41.9141 32.6813 41.8546C32.6669 41.741 32.6458 41.6285 32.6175 41.5174C32.5119 41.129 32.3192 40.7681 32.0533 40.4597C31.7874 40.1515 31.4546 39.9036 31.0786 39.7337C30.6548 39.5383 30.178 39.4776 29.7164 39.5604C29.8778 38.9854 30.0711 38.4192 30.2957 37.8646L30.4012 37.5938C30.519 37.285 30.6638 36.9763 30.816 36.6437C32.3156 33.5845 32.5781 30.0931 31.5524 26.856C31.4674 26.3845 31.2852 25.9344 31.0166 25.5326C30.7479 25.1308 30.3984 24.7855 29.9888 24.5172C29.5792 24.249 29.1179 24.0634 28.6326 23.9714C28.1472 23.8795 27.6476 23.8832 27.1638 23.9822C25.872 24.1574 24.6242 24.5599 23.4821 25.1697C23.6194 22.0898 24.8041 19.14 26.8521 16.7785C27.6521 16.0184 28.6044 15.4247 29.6504 15.0338C30.6963 14.6429 31.8138 14.4631 32.9343 14.5056H33.1282C36.0068 14.5895 38.7901 15.5235 41.1044 17.1822C43.4187 18.8409 45.1532 21.1449 46.0753 23.785C43.4737 23.5285 41.7653 24.0225 40.8596 25.2718C38.9132 27.9652 41.8047 32.9789 43.3558 35.6745C43.6282 36.1497 43.8466 36.5035 43.9179 36.696C44.3002 37.5564 44.8131 38.357 45.4398 39.071C45.5672 39.223 45.685 39.3679 45.7832 39.4985C45.0298 39.7147 43.6429 40.2706 43.7485 42.7169C43.6527 43.9423 42.919 49.8634 42.536 52.02C42.4916 53.1595 42.008 54.2417 41.1802 55.0536C40.3527 55.8655 39.241 56.3482 38.0641 56.4067ZM50.8273 42.2585C49.04 42.9725 47.0696 43.1383 45.182 42.7334C45.0886 41.1374 45.685 40.9759 46.3208 40.8048C46.387 40.7858 46.4852 40.7597 46.5932 40.7218C46.6496 40.7645 46.7134 40.8072 46.7797 40.8523C48.6574 41.6304 50.7639 41.7199 52.7048 41.1041C52.1415 41.5721 51.5127 41.9606 50.8369 42.2585H50.8273Z" fill="white"/>
</svg>
