<svg width="64" height="65" viewBox="0 0 64 65" fill="none" xmlns="http://www.w3.org/2000/svg">
<rect y="0.193115" width="64" height="64" rx="32" fill="white"/>
<path d="M31.6988 7.19431C29.7663 7.19495 27.8373 7.35751 25.9325 7.68024C20.8304 8.57182 19.9035 10.4395 19.9035 13.8812V18.4299H31.9637V19.9447H15.3781C13.6053 19.9127 11.878 20.5009 10.5007 21.6055C9.12345 22.7102 8.18465 24.2605 7.84985 25.983C6.71672 29.9469 6.71672 34.1441 7.84985 38.1081C8.70412 41.6406 10.7543 44.1569 14.2568 44.1569H18.4V38.7059C18.4445 36.7469 19.2539 34.8809 20.6585 33.4991C22.0632 32.1173 23.9541 31.3272 25.9347 31.2944H37.982C38.7802 31.2883 39.5695 31.1267 40.3045 30.8187C41.0397 30.5108 41.7062 30.0625 42.2662 29.4996C42.826 28.9367 43.2682 28.2701 43.5677 27.538C43.867 26.8059 44.0177 26.0227 44.011 25.2329V13.8706C43.9097 12.2986 43.2485 10.8129 42.1447 9.67766C41.0407 8.54237 39.566 7.83091 37.982 7.66968C35.9047 7.33659 33.803 7.17757 31.6988 7.19431ZM25.1765 10.8515C25.6321 10.8448 26.0795 10.9722 26.4617 11.2176C26.8439 11.463 27.1438 11.8153 27.3231 12.2297C27.5025 12.6441 27.5533 13.1019 27.469 13.5449C27.3848 13.9879 27.1693 14.3961 26.85 14.7177C26.5306 15.0392 26.1219 15.2596 25.6756 15.3508C25.2294 15.442 24.7658 15.3999 24.3438 15.2299C23.9218 15.0598 23.5604 14.7695 23.3056 14.3958C23.0508 14.0221 22.914 13.5819 22.9127 13.1311C22.909 12.8336 22.9647 12.5383 23.0766 12.2621C23.1884 11.9859 23.3542 11.7343 23.5645 11.5215C23.7747 11.3088 24.0254 11.1392 24.302 11.0224C24.5786 10.9056 24.8758 10.8439 25.1765 10.8409V10.8515Z" fill="#3478C3"/>
<path d="M45.5165 19.9342V25.2329C45.494 27.2131 44.6965 29.1076 43.2912 30.5181C41.8862 31.9286 39.983 32.7454 37.982 32.7966H25.9347C24.3283 32.8281 22.7981 33.4801 21.6714 34.6131C20.5447 35.7464 19.911 37.2706 19.9057 38.8601V50.2204C19.9057 53.4529 22.7461 55.3566 25.9347 56.2841C29.857 57.4961 34.0598 57.4961 37.982 56.2841C41.0168 55.4136 44.011 53.6641 44.011 50.2204V45.6739H31.9658V44.1569H50.042C53.5467 44.1569 54.8537 41.7399 56.071 38.1081C57.3097 34.1591 57.3097 29.9318 56.071 25.983C55.2062 22.5307 53.551 19.9342 50.042 19.9342H45.5165ZM38.7402 48.7056C39.196 48.7006 39.6432 48.8299 40.0247 49.0769C40.406 49.3241 40.7045 49.6779 40.8823 50.0931C41.0598 50.5086 41.1085 50.9669 41.022 51.4099C40.9355 51.8526 40.718 52.2601 40.3968 52.5801C40.0755 52.9004 39.6653 53.1186 39.2183 53.2076C38.7712 53.2964 38.3078 53.2516 37.8865 53.0791C37.4653 52.9064 37.1055 52.6139 36.8528 52.2384C36.6003 51.8629 36.4663 51.4216 36.4678 50.9704C36.4657 50.6739 36.5233 50.3799 36.6365 50.1054C36.7498 49.8309 36.9168 49.5811 37.128 49.3706C37.339 49.1601 37.5903 48.9931 37.867 48.8789C38.1435 48.7649 38.4405 48.7059 38.7402 48.7056Z" fill="#F2C430"/>
</svg>
