<svg width="64" height="65" viewBox="0 0 64 65" fill="none" xmlns="http://www.w3.org/2000/svg">
<g clip-path="url(#clip0_47_2487)">
<path d="M31.6145 0.194647C29.1409 0.195468 26.6718 0.403542 24.2337 0.816638C17.703 1.95786 16.5165 4.34847 16.5165 8.75382V14.5762H31.9535V16.5152H10.7239C8.45478 16.4742 6.24384 17.227 4.48093 18.641C2.71801 20.055 1.51635 22.0393 1.08781 24.2441C-0.362602 29.318 -0.362602 34.6904 1.08781 39.7643C2.18127 44.2859 4.80557 47.5067 9.28877 47.5067H14.5921V40.5294C14.6489 38.0219 15.685 35.6334 17.4829 33.8648C19.2809 32.0961 21.7012 31.0848 24.2364 31.0428H39.657C40.6787 31.035 41.689 30.8281 42.6298 30.4339C43.5709 30.0397 44.424 29.4659 45.1408 28.7454C45.8573 28.0249 46.4234 27.1717 46.8067 26.2346C47.1898 25.2975 47.3827 24.2949 47.3741 23.2841V8.74028C47.2445 6.72809 46.3981 4.82649 44.9853 3.37333C43.5722 1.92016 41.6845 1.00949 39.657 0.803118C36.9981 0.376762 34.3078 0.173214 31.6145 0.194647ZM23.266 4.87583C23.8492 4.86726 24.4218 5.03036 24.911 5.34451C25.4003 5.65862 25.7841 6.10953 26.0136 6.63996C26.2432 7.17036 26.3082 7.75632 26.2004 8.32339C26.0925 8.89043 25.8167 9.41296 25.408 9.82457C24.9992 10.2362 24.476 10.5183 23.9048 10.635C23.3336 10.7517 22.7402 10.6979 22.2001 10.4802C21.6599 10.2625 21.1973 9.89091 20.8712 9.41257C20.545 8.93424 20.37 8.37078 20.3683 7.79379C20.3636 7.41296 20.4348 7.03497 20.578 6.68147C20.7212 6.32793 20.9334 6.00579 21.2025 5.7335C21.4717 5.46121 21.7925 5.24412 22.1465 5.09462C22.5006 4.94512 22.881 4.86617 23.266 4.8623V4.87583Z" fill="url(#paint0_linear_47_2487)"/>
<path d="M49.3011 16.5017V23.2841C49.2723 25.8187 48.2515 28.2436 46.4528 30.0491C44.6544 31.8545 42.2182 32.9 39.657 32.9656H24.2364C22.1802 33.0059 20.2216 33.8405 18.7794 35.2907C17.3372 36.7413 16.526 38.6923 16.5193 40.7269V55.268C16.5193 59.4056 20.155 61.8424 24.2364 63.0296C29.2569 64.581 34.6365 64.581 39.657 63.0296C43.5414 61.9154 47.3741 59.676 47.3741 55.268V49.4485H31.9562V47.5067H55.0938C59.5798 47.5067 61.2528 44.413 62.8109 39.7643C64.3965 34.7096 64.3965 29.2986 62.8109 24.2441C61.704 19.8253 59.5853 16.5017 55.0938 16.5017H49.3011ZM40.6275 53.3291C41.2109 53.3227 41.7833 53.4882 42.2717 53.8043C42.7597 54.1208 43.1418 54.5736 43.3693 55.1051C43.5965 55.637 43.6589 56.2235 43.5481 56.7906C43.4374 57.3573 43.159 57.8789 42.7478 58.2885C42.3366 58.6984 41.8115 58.9777 41.2393 59.0917C40.6672 59.2053 40.0739 59.148 39.5347 58.9272C38.9955 58.7061 38.535 58.3317 38.2115 57.851C37.8883 57.3704 37.7168 56.8056 37.7187 56.228C37.7162 55.8485 37.7898 55.4722 37.9347 55.1208C38.0797 54.7694 38.2934 54.4498 38.5638 54.1803C38.8339 53.9109 39.1555 53.6971 39.5098 53.5509C39.8637 53.4049 40.2438 53.3294 40.6275 53.3291Z" fill="url(#paint1_linear_47_2487)"/>
</g>
<defs>
<linearGradient id="paint0_linear_47_2487" x1="-1.50895" y1="2.01175" x2="33.7706" y2="32.4245" gradientUnits="userSpaceOnUse">
<stop stop-color="#5A9FD4"/>
<stop offset="1" stop-color="#306998"/>
</linearGradient>
<linearGradient id="paint1_linear_47_2487" x1="47.4896" y1="50.7214" x2="34.9037" y2="32.8786" gradientUnits="userSpaceOnUse">
<stop stop-color="#FFD43B"/>
<stop offset="1" stop-color="#FFE873"/>
</linearGradient>
<clipPath id="clip0_47_2487">
<rect width="64" height="64" fill="white" transform="translate(0 0.193115)"/>
</clipPath>
</defs>
</svg>
