<svg width="64" height="65" viewBox="0 0 64 65" fill="none" xmlns="http://www.w3.org/2000/svg">
<rect y="0.193115" width="64" height="64" rx="32" fill="#AD0A00"/>
<path d="M49.94 41.8931C49.94 41.8931 54.08 41.4331 54.08 36.3731C54.08 31.3131 49.25 30.6231 49.25 30.6231H40.51V47.1831H44.88V43.2731L48.79 47.1831H55L49.94 41.8931ZM48.1 38.6731H44.65V34.9931H48.1C48.1 34.9931 49.02 35.4531 49.02 36.8331C49.25 38.2131 48.1 38.6731 48.1 38.6731ZM53.39 22.3431V22.8031C34.76 17.5131 27.4 33.8431 28.78 46.4931C28.78 46.4931 15.67 46.4931 14.29 46.4931C15.9 34.0731 31.54 9.46307 53.39 22.3431ZM51.55 19.3531C49.94 18.6631 48.33 17.9731 46.72 17.5131L46.95 14.5231L51.78 16.3631L51.55 19.3531ZM46.95 23.4931C48.56 23.4931 50.17 23.7231 51.78 24.1831L51.55 26.9431L47.41 26.4831L46.95 23.4931ZM36.37 16.8231L35.45 14.0631L40.28 13.6031L41.2 16.5931C40.74 16.5931 36.83 16.8231 36.37 16.8231ZM39.36 25.3331C40.28 24.8731 41.89 24.1831 43.96 23.7231L44.88 26.4831L40.74 28.0931L39.36 25.3331ZM31.54 18.4331C30.16 19.1231 28.78 19.8131 27.4 20.7331L25.56 17.7431L29.7 15.4431L31.54 18.4331ZM37.29 26.7131L39.13 29.4731L36.6 32.4631L34.07 30.1631C34.76 28.7831 35.91 27.6331 37.29 26.7131ZM31.08 37.9831C31.31 36.1431 31.77 34.5331 32.46 32.6931L35.22 34.9931L34.53 39.3631L31.08 37.9831ZM22.57 24.8731C21.42 26.0231 20.27 27.4031 19.35 28.5531L16.36 26.0231L19.81 22.3431L22.57 24.8731ZM15.44 34.9931C14.52 36.8331 13.83 38.6731 13.14 40.2831L9 38.6731L11.07 33.3831L15.44 34.9931ZM30.85 40.9731L34.99 42.3531L35.68 46.9531L31.08 45.8031C31.08 45.3431 30.85 43.7331 30.85 40.9731Z" fill="white"/>
</svg>
