<svg width="64" height="65" viewBox="0 0 64 65" fill="none" xmlns="http://www.w3.org/2000/svg">
<path d="M52.8 44.7264C52.8 44.7264 57.6 44.1931 57.6 38.3264C57.6 32.4597 52 31.6597 52 31.6597H41.8667V50.8597H46.9333V46.3264L51.4667 50.8597H58.6667L52.8 44.7264ZM50.6667 40.9931H46.6667V36.7264H50.6667C50.6667 36.7264 51.7333 37.2598 51.7333 38.8597C52 40.4597 50.6667 40.9931 50.6667 40.9931ZM56.8 22.0597V22.5931C35.2 16.4597 26.6667 35.3931 28.2667 50.0598C28.2667 50.0598 13.0667 50.0598 11.4667 50.0598C13.3333 35.6598 31.4667 7.12641 56.8 22.0597ZM54.6667 18.5931C52.8 17.7931 50.9333 16.9931 49.0667 16.4597L49.3333 12.9931L54.9333 15.1264L54.6667 18.5931ZM49.3333 23.3931C51.2 23.3931 53.0667 23.6597 54.9333 24.1931L54.6667 27.3931L49.8667 26.8597L49.3333 23.3931ZM37.0667 15.6597L36 12.4597L41.6 11.9264L42.6667 15.3931C42.1333 15.3931 37.6 15.6597 37.0667 15.6597ZM40.5333 25.5264C41.6 24.9931 43.4667 24.1931 45.8667 23.6597L46.9333 26.8597L42.1333 28.7264L40.5333 25.5264ZM31.4667 17.5264C29.8667 18.3264 28.2667 19.1264 26.6667 20.1931L24.5333 16.7264L29.3333 14.0597L31.4667 17.5264ZM38.1333 27.1264L40.2667 30.3264L37.3333 33.7931L34.4 31.1264C35.2 29.5264 36.5333 28.1931 38.1333 27.1264ZM30.9333 40.1931C31.2 38.0597 31.7333 36.1931 32.5333 34.0597L35.7333 36.7264L34.9333 41.7931L30.9333 40.1931ZM21.0667 24.9931C19.7333 26.3264 18.4 27.9264 17.3333 29.2597L13.8667 26.3264L17.8667 22.0597L21.0667 24.9931ZM12.8 36.7264C11.7333 38.8597 10.9333 40.9931 10.1333 42.8597L5.33334 40.9931L7.73334 34.8597L12.8 36.7264ZM30.6667 43.6597L35.4667 45.2598L36.2667 50.5931L30.9333 49.2598C30.9333 48.7264 30.6667 46.8597 30.6667 43.6597Z" fill="#AD0A00"/>
</svg>
