<svg width="64" height="64" viewBox="0 0 64 64" fill="none" xmlns="http://www.w3.org/2000/svg">
<path d="M61.1889 46.671C57.811 48.4318 40.3121 55.6266 36.5867 57.5686C32.8613 59.5113 30.7917 59.4923 27.8488 58.0854C24.9059 56.6785 6.28399 49.1566 2.92955 47.5533C1.25289 46.7518 0.371399 46.0757 0.371399 45.4368V39.0386C0.371399 39.0386 24.6145 33.7608 28.5286 32.3569C32.4423 30.9526 33.8001 30.902 37.1307 32.1221C40.4617 33.3422 60.377 36.9355 63.6689 38.1411C63.6689 38.1411 63.6674 43.8554 63.6674 44.4485C63.6678 45.0811 62.9083 45.775 61.1889 46.671Z" fill="#A41E11"/>
<path d="M61.1889 40.2709C57.811 42.0309 40.3121 49.2265 36.5867 51.1684C32.8613 53.1111 30.7917 53.0922 27.8488 51.6853C24.9055 50.2791 6.284 42.7557 2.92956 41.1531C-0.424882 39.5498 -0.49521 38.4461 2.80007 37.1561C6.09497 35.8653 24.6145 28.5994 28.529 27.1951C32.4427 25.7915 33.8004 25.7402 37.1311 26.9607C40.4621 28.1808 57.8564 35.1043 61.148 36.3099C64.4403 37.5166 64.5668 38.5101 61.1889 40.2709Z" fill="#D82C20"/>
<path d="M61.1889 36.2374C57.811 37.9982 40.3121 45.193 36.5867 47.1357C32.8613 49.0777 30.7917 49.0587 27.8488 47.6518C24.9055 46.2457 6.28399 38.723 2.92955 37.1197C1.25289 36.3182 0.371399 35.6428 0.371399 35.0039V28.605C0.371399 28.605 24.6145 23.3276 28.5286 21.9233C32.4423 20.5194 33.8001 20.4684 37.1307 21.6885C40.4617 22.9086 60.377 26.5012 63.6689 27.7071C63.6689 27.7071 63.6674 33.4214 63.6674 34.0153C63.6678 34.6475 62.9083 35.3414 61.1889 36.2374Z" fill="#A41E11"/>
<path d="M61.1889 29.8373C57.811 31.5981 40.3121 38.7929 36.5867 40.7356C32.8613 42.6776 30.7917 42.6586 27.8488 41.2517C24.9055 39.8456 6.284 32.3226 2.92956 30.7196C-0.424882 29.1166 -0.49521 28.013 2.80007 26.7222C6.09497 25.4321 24.6145 18.1658 28.529 16.7619C32.4427 15.358 33.8004 15.307 37.1311 16.5271C40.4621 17.7472 57.8564 24.6704 61.148 25.8764C64.4403 27.0827 64.5668 28.0766 61.1889 29.8373Z" fill="#D82C20"/>
<path d="M61.1889 25.4169C57.811 27.1776 40.3121 34.3728 36.5867 36.3155C32.8613 38.2575 30.7917 38.2385 27.8488 36.8316C24.9055 35.4255 6.28399 27.9025 2.92955 26.2995C1.25289 25.498 0.371399 24.8223 0.371399 24.1837V17.7848C0.371399 17.7848 24.6145 12.5074 28.5286 11.1035C32.4423 9.69919 33.8001 9.64858 37.1307 10.8687C40.4617 12.0888 60.377 15.6814 63.6689 16.8873C63.6689 16.8873 63.6674 22.6016 63.6674 23.1951C63.6678 23.8269 62.9083 24.5209 61.1889 25.4169Z" fill="#A41E11"/>
<path d="M61.1889 19.0169C57.811 20.7776 40.3121 27.9728 36.5867 29.9152C32.8613 31.8571 30.7917 31.8381 27.8488 30.4316C24.9059 29.0251 6.284 21.5025 2.92956 19.8995C-0.424882 18.2965 -0.49521 17.1925 2.80007 15.902C6.09497 14.6116 24.6145 7.34609 28.529 5.9418C32.4427 4.53751 33.8004 4.48691 37.1311 5.70738C40.4621 6.92748 57.8564 13.8507 61.148 15.0566C64.4403 16.2622 64.5668 17.2565 61.1889 19.0169Z" fill="#D82C20"/>
<path d="M40.3143 12.855L34.8296 13.4243L33.6017 16.3787L31.6185 13.0819L25.2854 12.5126L30.011 10.8084L28.5933 8.19263L33.0175 9.92286L37.1887 8.55728L36.0612 11.2624L40.3143 12.855Z" fill="white"/>
<path d="M33.2742 27.188L23.038 22.9424L37.7059 20.6913L33.2742 27.188Z" fill="white"/>
<path d="M19.0825 20.5747C23.4123 20.5747 26.9222 19.2142 26.9222 17.5358C26.9222 15.8575 23.4123 14.4969 19.0825 14.4969C14.7528 14.4969 11.2429 15.8575 11.2429 17.5358C11.2429 19.2142 14.7528 20.5747 19.0825 20.5747Z" fill="white"/>
<path d="M46.7962 13.6624L55.4772 17.093L46.8037 20.52L46.7962 13.6624Z" fill="#7A0C00"/>
<path d="M37.1925 17.4614L46.7962 13.6624L46.8036 20.52L45.8622 20.8884L37.1925 17.4614Z" fill="#AD2115"/>
</svg>
