<svg width="64" height="65" viewBox="0 0 64 65" fill="none" xmlns="http://www.w3.org/2000/svg">
<rect y="0.193115" width="64" height="64" rx="32" fill="#362D59"/>
<path d="M35.2958 12.9033C34.9459 12.3226 34.4519 11.8422 33.8616 11.5087C33.2713 11.1752 32.6049 11 31.9269 11C31.249 11 30.5825 11.1752 29.9922 11.5087C29.402 11.8422 28.9079 12.3226 28.558 12.9033L23.0162 22.3952C27.2499 24.5089 30.8571 27.6933 33.4796 31.6322C36.1021 35.5712 37.6486 40.1275 37.9657 44.849H34.0746C33.7581 40.8018 32.3903 36.9074 30.1066 33.5513C27.8228 30.1951 24.7023 27.4934 21.0538 25.7136L15.9246 34.5822C17.9757 35.5021 19.7626 36.9229 21.121 38.714C22.4794 40.5051 23.3657 42.6089 23.6984 44.8321H14.7623C14.6563 44.8246 14.5539 44.7909 14.4642 44.7339C14.3746 44.6769 14.3005 44.5985 14.2487 44.5058C14.1969 44.413 14.1689 44.3088 14.1675 44.2026C14.166 44.0963 14.191 43.9914 14.2401 43.8972L16.7163 39.6861C15.8774 38.9862 14.9186 38.444 13.8864 38.0859L11.4355 42.297C11.1804 42.7347 11.0147 43.2186 10.9482 43.7208C10.8817 44.2231 10.9157 44.7335 11.0481 45.2224C11.1805 45.7114 11.4088 46.1692 11.7197 46.5692C12.0305 46.9692 12.4178 47.3034 12.8589 47.5525C13.4401 47.88 14.0952 48.0539 14.7623 48.0578H26.9999C27.2272 45.2533 26.7263 42.4375 25.5459 39.8834C24.3655 37.3292 22.5454 35.1232 20.2621 33.4789L22.2076 30.11C25.0892 32.0892 27.405 34.7855 28.9263 37.933C30.4476 41.0805 31.1218 44.5702 30.8826 48.0578H41.2504C41.4918 42.7745 40.3424 37.5204 37.9171 32.8205C35.4917 28.1205 31.8754 24.1395 27.4294 21.275L31.3626 14.5372C31.4503 14.3904 31.5924 14.2841 31.758 14.2415C31.9236 14.1989 32.0993 14.2235 32.247 14.3098C32.6933 14.5541 49.3357 43.594 49.6474 43.9309C49.7023 44.0294 49.7302 44.1406 49.7283 44.2533C49.7265 44.366 49.6949 44.4762 49.6368 44.5727C49.5787 44.6693 49.4961 44.7488 49.3974 44.8033C49.2987 44.8577 49.1873 44.8851 49.0747 44.8827H45.0657C45.1162 45.9551 45.1162 47.0247 45.0657 48.0915H49.0915C49.6027 48.0949 50.1095 47.9968 50.5826 47.803C51.0556 47.6091 51.4855 47.3234 51.8474 46.9623C52.2093 46.6012 52.4959 46.1719 52.6908 45.6993C52.8856 45.2267 52.9848 44.7201 52.9826 44.2089C52.9831 43.5336 52.8028 42.8706 52.4604 42.2886L35.2958 12.9033Z" fill="white"/>
</svg>
