<svg width="64" height="65" viewBox="0 0 64 65" fill="none" xmlns="http://www.w3.org/2000/svg">
<path d="M36.2452 11.4575C35.796 10.7217 35.1619 10.113 34.4042 9.69043C33.6464 9.26786 32.791 9.04581 31.9207 9.04581C31.0504 9.04581 30.1949 9.26786 29.4372 9.69043C28.6795 10.113 28.0453 10.7217 27.5962 11.4575L20.4824 23.485C25.917 26.1634 30.5474 30.1985 33.9138 35.1896C37.2801 40.1807 39.2654 45.9542 39.6724 51.9369H34.6776C34.2713 46.8087 32.5156 41.874 29.584 37.6212C26.6525 33.3685 22.6468 29.9451 17.9634 27.6898L11.3793 38.9276C14.0122 40.0932 16.306 41.8936 18.0497 44.1631C19.7934 46.4326 20.931 49.0985 21.3581 51.9156H9.88734C9.7513 51.9061 9.6198 51.8633 9.50469 51.7911C9.38958 51.7189 9.29448 51.6196 9.22798 51.502C9.16147 51.3845 9.12565 51.2525 9.12374 51.1179C9.12183 50.9833 9.1539 50.8503 9.21704 50.731L12.3956 45.3949C11.3187 44.508 10.0879 43.821 8.76297 43.3672L5.61689 48.7033C5.28937 49.2578 5.07675 49.8711 4.99137 50.5075C4.90599 51.1438 4.94957 51.7906 5.11956 52.4102C5.28956 53.0298 5.58258 53.6098 5.98162 54.1167C6.38065 54.6236 6.87773 55.0471 7.444 55.3627C8.19008 55.7776 9.031 55.998 9.88734 56.003H25.5961C25.8878 52.4493 25.2449 48.8813 23.7297 45.6449C22.2144 42.4084 19.8781 39.613 16.9471 37.5296L19.4445 33.2607C23.1435 35.7686 26.1161 39.1852 28.0689 43.1735C30.0217 47.1617 30.8873 51.5837 30.5801 56.003H43.8887C44.1987 49.3084 42.7233 42.6507 39.61 36.6952C36.4967 30.7398 31.8546 25.6952 26.1475 22.0656L31.1963 13.5279C31.3088 13.3419 31.4912 13.2072 31.7038 13.1532C31.9164 13.0992 32.142 13.1304 32.3315 13.2398C32.9045 13.5493 54.2676 50.3468 54.6676 50.7737C54.738 50.8984 54.7739 51.0393 54.7715 51.1821C54.7691 51.3249 54.7286 51.4646 54.654 51.5869C54.5794 51.7093 54.4734 51.8101 54.3467 51.879C54.22 51.948 54.0771 51.9827 53.9324 51.9796H48.7862C48.8511 53.3385 48.8511 54.6939 48.7862 56.0457H53.954C54.6102 56.0499 55.2608 55.9257 55.868 55.68C56.4753 55.4344 57.0271 55.0724 57.4916 54.6148C57.9562 54.1573 58.3241 53.6133 58.5743 53.0144C58.8244 52.4155 58.9517 51.7736 58.9488 51.1258C58.9495 50.2702 58.718 49.4301 58.2785 48.6926L36.2452 11.4575Z" fill="#362D59"/>
</svg>
