<svg width="64" height="65" viewBox="0 0 64 65" fill="none" xmlns="http://www.w3.org/2000/svg">
<g clip-path="url(#clip0_85_12327)">
<circle cx="32" cy="34.1931" r="25" fill="black"/>
<path d="M32 0.193115C49.668 0.193115 64 14.5252 64 32.1931C64 49.8611 49.668 64.1931 32 64.1931C14.332 64.1931 0 49.8611 0 32.1931C0 14.5252 14.332 0.193115 32 0.193115ZM53.7699 41.892C53.5475 40.1375 52.0649 38.9267 50.1622 38.9514C47.3205 38.9885 44.9359 40.4588 43.3544 41.4348C42.7367 41.8178 42.2054 42.102 41.7483 42.312C41.8471 40.8788 41.7606 39.0008 41.0193 36.9375C40.1174 34.4665 38.9066 32.9468 38.0417 32.0696C39.0425 30.6116 40.4139 28.4865 41.0564 25.2001C41.6124 22.3954 41.4394 18.034 40.1668 15.5877C39.9073 15.0935 39.4749 14.7352 38.9313 14.5869C38.7089 14.5252 38.2888 14.4016 37.461 14.6364C36.2131 12.0541 35.7807 11.7823 35.4471 11.5599C34.7552 11.1151 33.9398 11.0163 33.1737 11.3005C32.1483 11.6711 31.271 12.6595 30.4432 14.414C30.3197 14.6734 30.2085 14.9205 30.1097 15.1676C28.5405 15.2788 26.0695 15.8472 23.9815 18.1082C23.722 18.3923 23.2154 18.6024 22.6842 18.8001H22.6965C21.6093 19.1831 21.1151 20.0727 20.5097 21.6788C19.6695 23.9275 20.5344 26.1391 21.3869 27.5723C20.2255 28.6101 18.6811 30.2657 17.8656 32.2055C16.8525 34.6024 16.7413 36.9499 16.7784 38.2225C15.9135 39.1367 14.5792 40.8541 14.4309 42.7815C14.2332 45.475 15.2093 47.3035 15.6417 47.9707C15.7653 48.1684 15.9012 48.329 16.0494 48.4896C16 48.8232 15.9876 49.1815 16.0618 49.5522C16.2224 50.4171 16.766 51.1213 17.5938 51.5661C19.2247 52.431 21.4981 52.8016 23.2525 51.9244C23.8826 52.5916 25.0317 53.234 27.1197 53.234H27.2432C27.7745 53.234 34.5205 52.8757 36.4849 52.3939C37.3622 52.1838 37.9676 51.8132 38.3629 51.4796C39.6232 51.0842 43.1073 49.8981 46.3938 47.773C48.7166 46.2657 49.5197 45.9445 51.2494 45.5244C52.9297 45.1167 53.9799 43.5846 53.7699 41.892ZM50.8293 43.7082C48.8525 44.1777 47.8517 44.6101 45.4054 46.2039C41.5876 48.675 37.4116 49.824 37.4116 49.824C37.4116 49.824 37.0656 50.3429 36.0649 50.5777C34.3351 50.9977 27.8239 51.356 27.2309 51.3684C25.6371 51.3808 24.661 50.9607 24.3892 50.3059C23.5614 48.329 25.5753 47.4642 25.5753 47.4642C25.5753 47.4642 25.1305 47.1923 24.871 46.9452C24.6363 46.7105 24.3892 46.241 24.3151 46.414C24.0062 47.1676 23.8456 49.0086 23.0178 49.8364C21.8811 50.9854 19.7313 50.6024 18.4587 49.9352C17.0625 49.1939 18.5575 47.4518 18.5575 47.4518C18.5575 47.4518 17.8039 47.8966 17.1985 46.9823C16.6548 46.1422 16.1483 44.7089 16.2842 42.9422C16.4324 40.9282 18.6811 38.9761 18.6811 38.9761C18.6811 38.9761 18.2857 35.9985 19.583 32.9468C20.7568 30.1669 23.9197 27.9306 23.9197 27.9306C23.9197 27.9306 21.2633 24.99 22.2517 22.346C22.8942 20.6163 23.1537 20.6286 23.3637 20.5545C24.105 20.2703 24.8216 19.9615 25.3529 19.3808C28.0093 16.5144 31.3946 17.058 31.3946 17.058C31.3946 17.058 33.0008 12.1777 34.4834 13.129C34.9405 13.4255 36.5838 17.0827 36.5838 17.0827C36.5838 17.0827 38.3382 16.0572 38.5359 16.4402C39.5985 18.5035 39.722 22.4449 39.2525 24.8418C38.4618 28.7954 36.4849 30.9205 35.6942 32.2549C35.5089 32.5638 37.8193 33.5398 39.2772 37.58C40.6239 41.2742 39.4255 44.3754 39.6355 44.7213C39.6726 44.7831 39.6849 44.8078 39.6849 44.8078C39.6849 44.8078 41.2293 44.9313 44.3305 43.0163C45.9861 41.9908 47.9506 40.8418 50.1869 40.8171C52.349 40.78 52.4602 43.3128 50.8293 43.7082Z" fill="white"/>
</g>
<defs>
<clipPath id="clip0_85_12327">
<rect y="0.193115" width="64" height="64" rx="32" fill="white"/>
</clipPath>
</defs>
</svg>
