<svg width="64" height="65" viewBox="0 0 64 65" fill="none" xmlns="http://www.w3.org/2000/svg">
<g clip-path="url(#clip0_111_1206)">
<circle cx="32" cy="32.1931" r="30" fill="black"/>
<path d="M32 -7.80688C52.9807 -7.80688 70 9.21242 70 30.1931C70 51.1738 52.9807 68.1931 32 68.1931C11.0193 68.1931 -6 51.1738 -6 30.1931C-6 9.21242 11.0193 -7.80688 32 -7.80688ZM57.8517 41.7105C57.5876 39.6271 55.827 38.1893 53.5676 38.2186C50.1931 38.2626 47.3614 40.0086 45.4834 41.1676C44.7498 41.6225 44.1189 41.9599 43.5761 42.2093C43.6934 40.5074 43.5907 38.2773 42.7104 35.8271C41.6394 32.8927 40.2015 31.0881 39.1745 30.0464C40.3629 28.3151 41.9915 25.7916 42.7544 21.8889C43.4147 18.5584 43.2093 13.3792 41.6981 10.4742C41.39 9.88732 40.8764 9.46184 40.2309 9.28578C39.9668 9.21242 39.468 9.0657 38.4849 9.34447C37.0031 6.27806 36.4896 5.95528 36.0934 5.69118C35.2718 5.163 34.3035 5.04562 33.3938 5.38308C32.1761 5.82323 31.1344 6.99698 30.1513 9.08037C30.0046 9.38848 29.8726 9.68192 29.7552 9.97535C27.8919 10.1074 24.9575 10.7823 22.478 13.4672C22.1699 13.8047 21.5683 14.0541 20.9375 14.2889H20.9521C19.661 14.7437 19.0741 15.8001 18.3552 17.7074C17.3575 20.3777 18.3846 23.0039 19.3969 24.7059C18.0178 25.9383 16.1838 27.9043 15.2154 30.2078C14.0124 33.0541 13.8803 35.8418 13.9243 37.353C12.8973 38.4387 11.3127 40.4781 11.1367 42.7669C10.9019 45.9653 12.061 48.1367 12.5745 48.929C12.7212 49.1638 12.8826 49.3545 13.0587 49.5452C13 49.9414 12.9853 50.3669 13.0734 50.807C13.2641 51.834 13.9097 52.6703 14.8927 53.1985C16.8293 54.2255 19.529 54.6657 21.6124 53.624C22.3606 54.4163 23.7251 55.1792 26.2046 55.1792H26.3514C26.9822 55.1792 34.993 54.7537 37.3259 54.1815C38.3676 53.9321 39.0865 53.492 39.556 53.0958C41.0525 52.6263 45.19 51.2178 49.0927 48.6943C51.851 46.9043 52.8046 46.5228 54.8587 46.024C56.854 45.5398 58.1012 43.7205 57.8517 41.7105ZM54.3598 43.8672C52.0124 44.4248 50.8239 44.9383 47.9189 46.831C43.3853 49.7653 38.4263 51.1298 38.4263 51.1298C38.4263 51.1298 38.0154 51.746 36.827 52.0248C34.773 52.5236 27.0409 52.9491 26.3367 52.9638C24.444 52.9784 23.2849 52.4796 22.9622 51.702C21.9791 49.3545 24.3707 48.3275 24.3707 48.3275C24.3707 48.3275 23.8425 48.0047 23.5344 47.7113C23.2556 47.4325 22.9622 46.875 22.8741 47.0804C22.5073 47.9754 22.3166 50.1615 21.3336 51.1445C19.9838 52.5089 17.4309 52.0541 15.9197 51.2618C14.2618 50.3815 16.0371 48.3128 16.0371 48.3128C16.0371 48.3128 15.1421 48.841 14.4232 47.7553C13.7776 46.7576 13.1761 45.0557 13.3375 42.9576C13.5135 40.5661 16.1838 38.2479 16.1838 38.2479C16.1838 38.2479 15.7143 34.712 17.2548 31.0881C18.6486 27.7869 22.4046 25.1313 22.4046 25.1313C22.4046 25.1313 19.2502 21.6394 20.4239 18.4997C21.1869 16.4456 21.495 16.4603 21.7444 16.3723C22.6247 16.0348 23.4757 15.668 24.1066 14.9784C27.261 11.5746 31.2811 12.2201 31.2811 12.2201C31.2811 12.2201 33.1884 6.42478 34.949 7.5545C35.4919 7.90663 37.4432 12.2495 37.4432 12.2495C37.4432 12.2495 39.5266 11.0317 39.7614 11.4866C41.0232 13.9367 41.1699 18.6171 40.6124 21.4634C39.6734 26.1584 37.3259 28.6819 36.3869 30.2665C36.1668 30.6333 38.9104 31.7923 40.6417 36.59C42.2409 40.9769 40.8178 44.6595 41.0672 45.0703C41.1112 45.1437 41.1259 45.173 41.1259 45.173C41.1259 45.173 42.9598 45.3198 46.6425 43.0456C48.6085 41.8279 50.9413 40.4634 53.5969 40.434C56.1645 40.39 56.2965 43.3978 54.3598 43.8672Z" fill="white"/>
</g>
<defs>
<clipPath id="clip0_111_1206">
<rect y="0.193115" width="64" height="64" rx="32" fill="white"/>
</clipPath>
</defs>
</svg>
