<svg width="16" height="13" viewBox="0 0 16 13" fill="none" xmlns="http://www.w3.org/2000/svg">
<path d="M2.94434 5.0127C2.53874 5.0127 2.1696 4.91471 1.83691 4.71875C1.50423 4.51823 1.23763 4.25163 1.03711 3.91895C0.841146 3.58171 0.743164 3.21029 0.743164 2.80469C0.743164 2.39909 0.841146 2.02995 1.03711 1.69727C1.23763 1.36458 1.50423 1.10026 1.83691 0.904297C2.1696 0.703776 2.53874 0.603516 2.94434 0.603516C3.34993 0.603516 3.71908 0.703776 4.05176 0.904297C4.38444 1.10026 4.64876 1.36458 4.84473 1.69727C5.04525 2.02995 5.14551 2.39909 5.14551 2.80469C5.14551 3.21029 5.04525 3.58171 4.84473 3.91895C4.64876 4.25163 4.38444 4.51823 4.05176 4.71875C3.71908 4.91471 3.34993 5.0127 2.94434 5.0127ZM2.94434 3.93945C3.26335 3.93945 3.52995 3.83008 3.74414 3.61133C3.96289 3.39258 4.07227 3.1237 4.07227 2.80469C4.07227 2.49023 3.96289 2.22363 3.74414 2.00488C3.52995 1.78613 3.26335 1.67676 2.94434 1.67676C2.62988 1.67676 2.36328 1.78613 2.14453 2.00488C1.92578 2.22363 1.81641 2.49023 1.81641 2.80469C1.81641 3.1237 1.92578 3.39258 2.14453 3.61133C2.36328 3.83008 2.62988 3.93945 2.94434 3.93945ZM13.1436 5.0127C12.738 5.0127 12.3688 4.91471 12.0361 4.71875C11.7035 4.51823 11.4368 4.25163 11.2363 3.91895C11.0404 3.58171 10.9424 3.21029 10.9424 2.80469C10.9424 2.39909 11.0404 2.02995 11.2363 1.69727C11.4368 1.36458 11.7035 1.10026 12.0361 0.904297C12.3688 0.703776 12.738 0.603516 13.1436 0.603516C13.5492 0.603516 13.9183 0.703776 14.251 0.904297C14.5882 1.10026 14.8548 1.36458 15.0508 1.69727C15.2513 2.02995 15.3516 2.39909 15.3516 2.80469C15.3516 3.21029 15.2513 3.58171 15.0508 3.91895C14.8548 4.25163 14.5882 4.51823 14.251 4.71875C13.9183 4.91471 13.5492 5.0127 13.1436 5.0127ZM13.1436 3.93945C13.4671 3.93945 13.736 3.83008 13.9502 3.61133C14.1689 3.39258 14.2783 3.1237 14.2783 2.80469C14.2783 2.49023 14.1689 2.22363 13.9502 2.00488C13.7314 1.78613 13.4626 1.67676 13.1436 1.67676C12.8337 1.67676 12.5671 1.78613 12.3438 2.00488C12.125 2.22363 12.0156 2.49023 12.0156 2.80469C12.0156 3.1237 12.125 3.39258 12.3438 3.61133C12.5625 3.83008 12.8291 3.93945 13.1436 3.93945ZM8.05078 12.5254C7.64518 12.5254 7.27604 12.4251 6.94336 12.2246C6.61068 12.0286 6.34408 11.7643 6.14355 11.4316C5.94759 11.0944 5.84961 10.723 5.84961 10.3174C5.84961 9.91178 5.94759 9.54264 6.14355 9.20996C6.34408 8.87728 6.61068 8.61296 6.94336 8.41699C7.27604 8.21647 7.64518 8.11621 8.05078 8.11621C8.45638 8.11621 8.82552 8.21647 9.1582 8.41699C9.49089 8.61296 9.75521 8.87728 9.95117 9.20996C10.1517 9.54264 10.252 9.91178 10.252 10.3174C10.252 10.723 10.1517 11.0944 9.95117 11.4316C9.75521 11.7643 9.49089 12.0286 9.1582 12.2246C8.82552 12.4251 8.45638 12.5254 8.05078 12.5254ZM8.05078 11.4521C8.36979 11.4521 8.63639 11.3428 8.85059 11.124C9.06934 10.9007 9.17871 10.6318 9.17871 10.3174C9.17871 9.99837 9.06934 9.73177 8.85059 9.51758C8.63639 9.29883 8.36979 9.18945 8.05078 9.18945C7.73633 9.18945 7.46973 9.29883 7.25098 9.51758C7.03223 9.73177 6.92285 9.99837 6.92285 10.3174C6.92285 10.6318 7.03223 10.9007 7.25098 11.124C7.46973 11.3428 7.73633 11.4521 8.05078 11.4521ZM6.30078 3.40625C6.14128 3.40625 6.00228 3.34928 5.88379 3.23535C5.76986 3.12142 5.71289 2.98242 5.71289 2.81836C5.71289 2.65885 5.76986 2.52214 5.88379 2.4082C6.00228 2.28971 6.14128 2.23047 6.30078 2.23047C6.46484 2.23047 6.60384 2.28971 6.71777 2.4082C6.83171 2.52214 6.88867 2.65885 6.88867 2.81836C6.88867 2.98242 6.83171 3.12142 6.71777 3.23535C6.60384 3.34928 6.46484 3.40625 6.30078 3.40625ZM8.05078 3.40625C7.88672 3.40625 7.74772 3.34928 7.63379 3.23535C7.51986 3.12142 7.46289 2.98242 7.46289 2.81836C7.46289 2.65885 7.51986 2.52214 7.63379 2.4082C7.74772 2.28971 7.88672 2.23047 8.05078 2.23047C8.21029 2.23047 8.34701 2.28971 8.46094 2.4082C8.57943 2.52214 8.63867 2.65885 8.63867 2.81836C8.63867 2.98242 8.57943 3.12142 8.46094 3.23535C8.34701 3.34928 8.21029 3.40625 8.05078 3.40625ZM9.78711 3.40625C9.6276 3.40625 9.48861 3.34928 9.37012 3.23535C9.25618 3.12142 9.19922 2.98242 9.19922 2.81836C9.19922 2.65885 9.25618 2.52214 9.37012 2.4082C9.48861 2.28971 9.6276 2.23047 9.78711 2.23047C9.95117 2.23047 10.0902 2.28971 10.2041 2.4082C10.3226 2.52214 10.3818 2.65885 10.3818 2.81836C10.3818 2.98242 10.3226 3.12142 10.2041 3.23535C10.0902 3.34928 9.95117 3.40625 9.78711 3.40625ZM11.3936 6.50293C11.234 6.50293 11.0951 6.44596 10.9766 6.33203C10.8626 6.21354 10.8057 6.07454 10.8057 5.91504C10.8057 5.75098 10.8626 5.61198 10.9766 5.49805C11.0951 5.38411 11.234 5.32715 11.3936 5.32715C11.5576 5.32715 11.6966 5.38411 11.8105 5.49805C11.9245 5.61198 11.9814 5.75098 11.9814 5.91504C11.9814 6.07454 11.9245 6.21354 11.8105 6.33203C11.6966 6.44596 11.5576 6.50293 11.3936 6.50293ZM10.1221 7.9043C9.96257 7.9043 9.82357 7.84733 9.70508 7.7334C9.59115 7.61491 9.53418 7.47591 9.53418 7.31641C9.53418 7.1569 9.59115 7.02018 9.70508 6.90625C9.82357 6.78776 9.96257 6.72852 10.1221 6.72852C10.2816 6.72852 10.4183 6.78776 10.5322 6.90625C10.6507 7.02018 10.71 7.1569 10.71 7.31641C10.71 7.47591 10.6507 7.61491 10.5322 7.7334C10.4183 7.84733 10.2816 7.9043 10.1221 7.9043ZM5.96582 7.9043C5.80632 7.9043 5.66732 7.84733 5.54883 7.7334C5.4349 7.61491 5.37793 7.47591 5.37793 7.31641C5.37793 7.1569 5.4349 7.02018 5.54883 6.90625C5.66732 6.78776 5.80632 6.72852 5.96582 6.72852C6.12988 6.72852 6.26888 6.78776 6.38281 6.90625C6.5013 7.02018 6.56055 7.1569 6.56055 7.31641C6.56055 7.47591 6.5013 7.61491 6.38281 7.7334C6.26888 7.84733 6.12988 7.9043 5.96582 7.9043ZM4.69434 6.50293C4.53483 6.50293 4.39583 6.44596 4.27734 6.33203C4.16341 6.21354 4.10645 6.07454 4.10645 5.91504C4.10645 5.75098 4.16341 5.61198 4.27734 5.49805C4.39583 5.38411 4.53483 5.32715 4.69434 5.32715C4.85384 5.32715 4.99056 5.38411 5.10449 5.49805C5.22298 5.61198 5.28223 5.75098 5.28223 5.91504C5.28223 6.07454 5.22298 6.21354 5.10449 6.33203C4.99056 6.44596 4.85384 6.50293 4.69434 6.50293Z" fill="white"/>
</svg>
