<svg width="24" height="24" viewBox="0 0 24 24" fill="none" xmlns="http://www.w3.org/2000/svg">
<path d="M12 8C12 8.26522 11.8946 8.51957 11.7071 8.70711C11.5196 8.89464 11.2652 9 11 9H5V19H15V13C15 12.7348 15.1054 12.4804 15.2929 12.2929C15.4804 12.1054 15.7348 12 16 12C16.2652 12 16.5196 12.1054 16.7071 12.2929C16.8946 12.4804 17 12.7348 17 13V19C17 19.5304 16.7893 20.0391 16.4142 20.4142C16.0391 20.7893 15.5304 21 15 21H5C4.46957 21 3.96086 20.7893 3.58579 20.4142C3.21071 20.0391 3 19.5304 3 19V9C3 7.9 3.9 7 5 7H11C11.2652 7 11.5196 7.10536 11.7071 7.29289C11.8946 7.48043 12 7.73478 12 8Z" fill="#3B82F6"/>
<path d="M19 6.41L8.70001 16.71C8.60961 16.814 8.49869 16.8982 8.37421 16.9573C8.24973 17.0164 8.11439 17.0491 7.97666 17.0534C7.83893 17.0578 7.7018 17.0336 7.57386 16.9824C7.44593 16.9312 7.32995 16.8541 7.23321 16.756C7.13647 16.6579 7.06105 16.5408 7.01168 16.4122C6.96232 16.2835 6.94008 16.1461 6.94635 16.0084C6.95262 15.8708 6.98727 15.7359 7.04813 15.6123C7.10899 15.4886 7.19475 15.3789 7.30001 15.29L17.58 5H14C13.7348 5 13.4804 4.89464 13.2929 4.70711C13.1054 4.51957 13 4.26522 13 4C13 3.73478 13.1054 3.48043 13.2929 3.29289C13.4804 3.10536 13.7348 3 14 3H20C20.2652 3 20.5196 3.10536 20.7071 3.29289C20.8947 3.48043 21 3.73478 21 4V10C21 10.2652 20.8947 10.5196 20.7071 10.7071C20.5196 10.8946 20.2652 11 20 11C19.7348 11 19.4804 10.8946 19.2929 10.7071C19.1054 10.5196 19 10.2652 19 10V6.41Z" fill="#3B82F6"/>
</svg>
