<svg width="700" height="700" viewBox="0 0 700 700" fill="none" xmlns="http://www.w3.org/2000/svg">
<path d="M128.348 613.834H571.678C607.972 613.834 637.51 584.296 637.51 548.002V151.332C637.51 115.038 607.972 85.5 571.678 85.5H128.348C92.0538 85.5 62.516 115.038 62.516 151.332V548.002C62.516 584.296 92.0539 613.834 128.348 613.834ZM100.848 151.334C100.848 136.179 113.193 123.834 128.348 123.834H571.678C586.833 123.834 599.178 136.179 599.178 151.334V548.004C599.178 563.159 586.833 575.504 571.678 575.504H128.348C113.193 575.504 100.848 563.159 100.848 548.004V151.334Z" fill="white" stroke="white" stroke-width="15"/>
<path d="M81.6679 261H618.332C621.307 261 623.37 259.196 624.549 257.757C625.777 256.26 626.737 254.355 627.52 252.38C629.107 248.38 630.434 242.889 631.513 236.466C633.683 223.538 635 205.873 635 186.5C635 167.127 633.683 149.462 631.513 136.534C630.434 130.111 629.107 124.62 627.52 120.62C626.737 118.645 625.777 116.74 624.549 115.243C623.37 113.804 621.307 112 618.332 112H81.6679C78.6928 112 76.6301 113.804 75.4506 115.243C74.2229 116.74 73.2635 118.645 72.4798 120.62C70.8929 124.62 69.5659 130.111 68.4874 136.534C66.3172 149.462 65 167.127 65 186.5C65 205.873 66.3172 223.538 68.4874 236.466C69.5659 242.889 70.8929 248.38 72.4798 252.38C73.2635 254.355 74.2229 256.26 75.4506 257.757C76.6301 259.196 78.6928 261 81.6679 261Z" fill="white" stroke="white" stroke-width="10"/>
<path d="M81.668 438.164H618.338C628.922 438.164 637.506 429.58 637.506 418.996C637.506 408.413 628.922 399.828 618.338 399.828H81.668C71.0845 399.828 62.5 408.413 62.5 418.996C62.5 429.58 71.0845 438.164 81.668 438.164Z" fill="white" stroke="white" stroke-width="15"/>
<path d="M330.84 594.666C330.84 605.25 339.424 613.834 350.008 613.834C360.592 613.834 369.176 605.25 369.176 594.666V244.666C369.176 234.083 360.592 225.498 350.008 225.498C339.424 225.498 330.84 234.083 330.84 244.666V594.666Z" fill="white" stroke="white" stroke-width="15"/>
</svg>
