<svg width="24" height="24" viewBox="0 0 24 24" fill="none" xmlns="http://www.w3.org/2000/svg">
<path d="M9.99999 14.59L16.3 8.29003C16.4924 8.12746 16.7392 8.04353 16.9908 8.05499C17.2425 8.06646 17.4805 8.17249 17.6574 8.35188C17.8343 8.53127 17.9369 8.77081 17.9448 9.02261C17.9527 9.27441 17.8653 9.51991 17.7 9.71003L10.7 16.71C10.5131 16.8933 10.2617 16.9959 9.99999 16.9959C9.73824 16.9959 9.48692 16.8933 9.29999 16.71L6.29999 13.71C6.13471 13.5199 6.04728 13.2744 6.05518 13.0226C6.06308 12.7708 6.16572 12.5313 6.34258 12.3519C6.51945 12.1725 6.75751 12.0665 7.00917 12.055C7.26083 12.0435 7.50754 12.1275 7.69999 12.29L9.99999 14.59Z" fill="black"/>
</svg>
