<svg width="16" height="16" viewBox="0 0 16 16" fill="none" xmlns="http://www.w3.org/2000/svg">
<path d="M7.68634 1.33325C7.68985 2.1013 7.99651 2.83689 8.53961 3.37999C9.0827 3.92308 9.81829 4.22974 10.5863 4.23325H11.773V5.36659C11.773 6.13456 12.0776 6.87118 12.62 7.41484C13.1625 7.95851 13.8984 8.26482 14.6663 8.26658V1.89325C14.6646 1.74527 14.6051 1.60383 14.5004 1.49919C14.3958 1.39454 14.2543 1.33498 14.1063 1.33325H7.68634ZM4.51301 4.53325C4.51651 5.29953 4.82247 6.03343 5.36432 6.57527C5.90617 7.11712 6.64006 7.42308 7.40634 7.42659H8.60634V8.57325C8.60985 9.33953 8.91581 10.0734 9.45765 10.6153C9.9995 11.1571 10.7334 11.4631 11.4997 11.4666V5.08659C11.4979 4.94037 11.4391 4.80063 11.3357 4.69723C11.2323 4.59384 11.0926 4.53498 10.9463 4.53325H4.51301ZM1.33301 7.73325C1.33301 8.11377 1.40807 8.49055 1.55389 8.84202C1.69971 9.19349 1.91342 9.51275 2.1828 9.78151C2.45218 10.0503 2.77192 10.2632 3.12373 10.4083C3.47553 10.5533 3.85249 10.6275 4.23301 10.6266H5.41967V11.7733C5.42318 12.5395 5.72914 13.2734 6.27099 13.8153C6.81283 14.3571 7.54673 14.6631 8.31301 14.6666V8.28659C8.31128 8.1386 8.25172 7.99717 8.14707 7.89252C8.04243 7.78787 7.90099 7.72832 7.75301 7.72659H1.33301V7.73325Z" fill="#80838D"/>
</svg>
