<svg width="24" height="24" viewBox="0 0 24 24" fill="none" xmlns="http://www.w3.org/2000/svg">
<g id="icon/providers/jira">
<path id="Vector" d="M11.53 2C11.5353 3.15207 11.9953 4.25546 12.8099 5.0701C13.6245 5.88475 14.7279 6.34474 15.88 6.35H17.66V8.05C17.66 9.20196 18.1169 10.3069 18.9305 11.1224C19.7442 11.9379 20.848 12.3974 22 12.4V2.84C21.9974 2.61802 21.9081 2.40587 21.7511 2.2489C21.5941 2.09193 21.382 2.0026 21.16 2H11.53ZM6.77 6.8C6.77526 7.94942 7.2342 9.05026 8.04697 9.86303C8.85974 10.6758 9.96058 11.1347 11.11 11.14H12.91V12.86C12.9153 14.0094 13.3742 15.1103 14.187 15.923C14.9997 16.7358 16.1006 17.1947 17.25 17.2V7.63C17.2474 7.41068 17.1591 7.20107 17.004 7.04597C16.8489 6.89087 16.6393 6.8026 16.42 6.8H6.77ZM2 11.6C2 12.1708 2.11259 12.736 2.33132 13.2632C2.55005 13.7904 2.87062 14.2692 3.27469 14.6724C3.67876 15.0755 4.15837 15.395 4.68608 15.6125C5.21379 15.83 5.77922 15.9413 6.35 15.94H8.13V17.66C8.13526 18.8094 8.5942 19.9103 9.40697 20.723C10.2197 21.5358 11.3206 21.9947 12.47 22V12.43C12.4674 12.208 12.3781 11.9959 12.2211 11.8389C12.0641 11.6819 11.852 11.5926 11.63 11.59H2V11.6Z" fill="white"/>
</g>
</svg>
