<svg width="58" height="69" viewBox="0 0 58 69" fill="none" xmlns="http://www.w3.org/2000/svg">
<path d="M55.9702 8.09482L29.2691 0.084264C28.8951 -0.028088 28.4968 -0.028088 28.1228 0.084264L1.42074 8.09482C0.577799 8.34777 0 9.12426 0 10.0048V39.3766C0 43.1971 1.54658 47.1076 4.59672 51.0003C6.92622 53.9731 10.1491 56.9584 14.1757 59.8731C20.9398 64.7696 27.6009 67.7732 27.8811 67.8984C28.1401 68.0146 28.4181 68.0727 28.6958 68.0727C28.9738 68.0727 29.2518 68.0149 29.5108 67.8984C29.7907 67.7732 36.4515 64.7696 43.2162 59.8731C47.2425 56.9584 50.4654 53.9731 52.7949 51.0003C55.845 47.1079 57.3916 43.1971 57.3916 39.3766V10.0048C57.3916 9.12426 56.8141 8.34777 55.9702 8.09482Z" fill="#3D62DD"/>
<path d="M36.6574 28.002H19.5106C17.1934 28.002 15.2973 29.8981 15.2973 32.215V43.3918C15.2973 45.709 17.1934 47.6052 19.5106 47.6052H36.6574C38.9746 47.6052 40.8707 45.709 40.8707 43.3918V32.215C40.8707 29.8981 38.9746 28.002 36.6574 28.002ZM28.084 41.2915C26.4053 41.2915 25.0438 39.93 25.0438 38.251C25.0438 36.5717 26.4053 35.2107 28.084 35.2107C29.7636 35.2107 31.1242 36.5717 31.1242 38.251C31.1242 39.93 29.7636 41.2915 28.084 41.2915Z" fill="white"/>
<path d="M21.132 29.2282C20.4618 29.0735 19.9527 28.483 19.9308 27.7631L19.8105 23.8563C19.6726 19.3492 23.2274 15.5701 27.7345 15.4319C32.2417 15.2939 36.0211 18.8482 36.159 23.3553L36.2706 27.009C36.2971 27.866 35.6236 28.5819 34.7666 28.6081C33.9105 28.6344 33.1942 27.9611 33.1681 27.1042L33.0559 23.4505C32.9701 20.6543 30.6259 18.4489 27.8298 18.5344C25.0336 18.6203 22.8281 20.965 22.9136 23.7612L23.0336 27.6682C23.0601 28.5249 22.3866 29.2409 21.5296 29.267C21.3929 29.2714 21.2595 29.2576 21.132 29.2282Z" fill="white"/>
</svg>
