<svg width="24" height="24" viewBox="0 0 24 24" fill="none" xmlns="http://www.w3.org/2000/svg">
<path fill-rule="evenodd" clip-rule="evenodd" d="M16.5392 10.5329C16.8055 10.5329 17.0609 10.6387 17.2492 10.827C17.4375 11.0153 17.5433 11.2707 17.5433 11.537C17.5433 11.8033 17.4375 12.0587 17.2492 12.247C17.0609 12.4353 16.8055 12.5411 16.5392 12.5411L12.5441 12.5341V16.5363C12.5441 16.8026 12.4383 17.058 12.25 17.2463C12.0617 17.4346 11.8063 17.5404 11.54 17.5404C11.2737 17.5404 11.0183 17.4346 10.83 17.2463C10.7368 17.153 10.6628 17.0424 10.6123 16.9205C10.5619 16.7987 10.5359 16.6681 10.5359 16.5363L10.543 12.5411L6.54075 12.527C6.27445 12.527 6.01905 12.4212 5.83075 12.2329C5.64245 12.0446 5.53666 11.7892 5.53666 11.5229C5.53666 11.2566 5.64245 11.0012 5.83075 10.8129C6.01905 10.6246 6.27445 10.5188 6.54075 10.5188L10.543 10.5188L10.5359 6.52365C10.5359 6.39179 10.5619 6.26122 10.6123 6.1394C10.6628 6.01758 10.7368 5.90689 10.83 5.81365C10.9232 5.72041 11.0339 5.64645 11.1557 5.59599C11.2776 5.54553 11.4081 5.51956 11.54 5.51956C11.6719 5.51956 11.8024 5.54553 11.9242 5.59599C12.0461 5.64645 12.1568 5.72041 12.25 5.81365C12.3432 5.90689 12.4172 6.01758 12.4677 6.1394C12.5181 6.26123 12.5441 6.39179 12.5441 6.52365L12.5441 10.5259L16.5392 10.5188L16.5392 10.5329Z" fill="#A0A0A0"/>
</svg>
