<svg width="24" height="24" viewBox="0 0 24 24" fill="none" xmlns="http://www.w3.org/2000/svg">
<path d="M15.51 11.14C15.6592 11.2286 15.7828 11.3544 15.8687 11.5052C15.9546 11.656 15.9997 11.8265 15.9997 12C15.9997 12.1735 15.9546 12.3441 15.8687 12.4948C15.7828 12.6456 15.6592 12.7715 15.51 12.86L10.51 15.86C10.3582 15.95 10.1852 15.9983 10.0087 15.9998C9.83224 16.0013 9.65847 15.9561 9.5051 15.8688C9.35173 15.7814 9.22421 15.655 9.13549 15.5025C9.04678 15.3499 9.00003 15.1765 9 15V9.00001C9.00003 8.8235 9.04678 8.65015 9.13549 8.49756C9.22421 8.34497 9.35173 8.21858 9.5051 8.13123C9.65847 8.04388 9.83224 7.99868 10.0087 8.00022C10.1852 8.00176 10.3582 8.04999 10.51 8.14001L15.51 11.14Z" fill="white"/>
</svg>
