<svg width="24" height="24" viewBox="0 0 24 24" fill="none" xmlns="http://www.w3.org/2000/svg">
<path fill-rule="evenodd" clip-rule="evenodd" d="M15.7802 14.3599C15.9685 14.5482 16.0743 14.8036 16.0743 15.0699C16.0743 15.3362 15.9685 15.5916 15.7802 15.7799C15.5919 15.9682 15.3365 16.074 15.0702 16.074C14.8039 16.074 14.5485 15.9682 14.3602 15.7799L11.5402 12.9499L8.71019 15.7799C8.52188 15.9682 8.26649 16.074 8.00019 16.074C7.73388 16.074 7.47849 15.9682 7.29019 15.7799C7.10188 15.5916 6.99609 15.3362 6.99609 15.0699C6.99609 14.9381 7.02207 14.8075 7.07253 14.6857C7.12299 14.5639 7.19695 14.4532 7.29019 14.3599L10.1202 11.5399L7.30019 8.69993C7.11188 8.51163 7.00609 8.25623 7.00609 7.98993C7.00609 7.72363 7.11188 7.46824 7.30019 7.27993C7.48849 7.09163 7.74388 6.98584 8.01019 6.98584C8.27649 6.98584 8.53188 7.09163 8.72019 7.27993L11.5502 10.1099L14.3702 7.27993C14.4634 7.18669 14.5741 7.11273 14.6959 7.06227C14.8178 7.01181 14.9483 6.98584 15.0802 6.98584C15.212 6.98584 15.3426 7.01181 15.4644 7.06227C15.5863 7.11273 15.6969 7.18669 15.7902 7.27993C15.8834 7.37317 15.9574 7.48386 16.0078 7.60568C16.0583 7.7275 16.0843 7.85807 16.0843 7.98993C16.0843 8.12179 16.0583 8.25236 16.0078 8.37418C15.9574 8.496 15.8834 8.60669 15.7902 8.69993L12.9602 11.5299L15.7902 14.3499L15.7802 14.3599Z" fill="#FF4F4F"/>
</svg>
