<?xml version="1.0" encoding="UTF-8" standalone="no"?>
<!DOCTYPE svg PUBLIC "-//W3C//DTD SVG 1.1//EN" "http://www.w3.org/Graphics/SVG/1.1/DTD/svg11.dtd">
<svg width="100%" height="100%" viewBox="0 0 24 24" version="1.1" xmlns="http://www.w3.org/2000/svg" xmlns:xlink="http://www.w3.org/1999/xlink" xml:space="preserve" xmlns:serif="http://www.serif.com/" style="fill-rule:evenodd;clip-rule:evenodd;stroke-linejoin:round;stroke-miterlimit:2;">
    <g id="List">
    </g>
    <g transform="matrix(1,0,0,1,0.0652417,6.69424)">
        <path d="M5.848,3.214C5.848,3.038 5.705,2.895 5.529,2.895L1.345,2.895C1.169,2.895 1.026,3.038 1.026,3.214L1.026,7.397C1.026,7.574 1.169,7.717 1.345,7.717L5.529,7.717C5.705,7.717 5.848,7.574 5.848,7.397L5.848,3.214Z" style="fill:rgb(128,128,128);"/>
    </g>
    <g transform="matrix(3.12,0,0,1,4.66292,6.69424)">
        <path d="M5.848,3.197C5.848,3.03 5.805,2.895 5.751,2.895L1.123,2.895C1.069,2.895 1.026,3.03 1.026,3.197L1.026,7.415C1.026,7.581 1.069,7.717 1.123,7.717L5.751,7.717C5.805,7.717 5.848,7.581 5.848,7.415L5.848,3.197Z" style="fill:rgb(128,128,128);"/>
    </g>
    <g transform="matrix(1,0,0,1,0.0652417,13.5058)">
        <path d="M5.848,3.214C5.848,3.038 5.705,2.895 5.529,2.895L1.345,2.895C1.169,2.895 1.026,3.038 1.026,3.214L1.026,7.397C1.026,7.574 1.169,7.717 1.345,7.717L5.529,7.717C5.705,7.717 5.848,7.574 5.848,7.397L5.848,3.214Z" style="fill:rgb(128,128,128);"/>
    </g>
    <g transform="matrix(3.12,0,0,1,4.66292,13.5058)">
        <path d="M5.848,3.197C5.848,3.03 5.805,2.895 5.751,2.895L1.123,2.895C1.069,2.895 1.026,3.03 1.026,3.197L1.026,7.415C1.026,7.581 1.069,7.717 1.123,7.717L5.751,7.717C5.805,7.717 5.848,7.581 5.848,7.415L5.848,3.197Z" style="fill:rgb(128,128,128);"/>
    </g>
    <g transform="matrix(1,0,0,1,0.0652417,-0.13782)">
        <path d="M5.848,3.214C5.848,3.038 5.705,2.895 5.529,2.895L1.345,2.895C1.169,2.895 1.026,3.038 1.026,3.214L1.026,7.397C1.026,7.574 1.169,7.717 1.345,7.717L5.529,7.717C5.705,7.717 5.848,7.574 5.848,7.397L5.848,3.214Z" style="fill:rgb(128,128,128);"/>
    </g>
    <g transform="matrix(3.12,0,0,1,4.66292,-0.13782)">
        <path d="M5.848,3.197C5.848,3.03 5.805,2.895 5.751,2.895L1.123,2.895C1.069,2.895 1.026,3.03 1.026,3.197L1.026,7.415C1.026,7.581 1.069,7.717 1.123,7.717L5.751,7.717C5.805,7.717 5.848,7.581 5.848,7.415L5.848,3.197Z" style="fill:rgb(128,128,128);"/>
    </g>
</svg>
