<svg width="700" height="700" viewBox="0 0 700 700" fill="none" xmlns="http://www.w3.org/2000/svg">
<path d="M81.604 518C81.6186 518 81.6338 518 81.6496 518.001C81.7333 518.002 81.8327 518.001 81.947 517.999C82.1755 517.994 82.4642 517.98 82.8059 517.948C83.4889 517.883 84.3877 517.746 85.4423 517.46C87.5658 516.886 90.2777 515.726 93.0858 513.436L93.2822 513.275L93.4614 513.096L186.793 419.764L186.794 419.764C193.297 413.261 193.297 402.701 186.793 396.197L93.4614 302.865L93.4552 302.859L93.4488 302.853C88.6908 298.128 81.5131 296.69 75.3026 299.26C69.0614 301.832 65 307.931 65 314.662V501.332C65 508.055 69.0503 514.146 75.2768 516.724C76.0476 517.052 76.9623 517.421 78.0883 517.667C79.2083 517.913 80.336 517.997 81.604 518ZM98.3359 354.9L151.437 407.998L98.3359 461.099V354.9Z" fill="black" stroke="black" stroke-width="10"/>
<path d="M221.67 611.34H595C617.058 611.34 635 593.399 635 571.34V501.34C635 479.282 617.058 461.34 595 461.34H221.67C199.611 461.34 181.67 479.282 181.67 501.34V571.34C181.67 593.399 199.612 611.34 221.67 611.34ZM215.002 501.338C215.002 497.665 218.007 494.67 221.67 494.67H595C598.663 494.67 601.668 497.665 601.668 501.338V571.338C601.668 575.012 598.663 578.006 595 578.006H221.67C218.007 578.006 215.002 575.012 215.002 571.338V501.338Z" fill="black" stroke="black" stroke-width="10"/>
<path d="M221.67 354.67H595C617.058 354.67 635 336.728 635 314.67V128C635 105.942 617.058 88 595 88H221.67C199.611 88 181.67 105.942 181.67 128V314.67C181.67 336.728 199.611 354.67 221.67 354.67ZM215.002 128.008C215.002 124.335 218.007 121.34 221.67 121.34H595C598.663 121.34 601.668 124.335 601.668 128.008V314.678C601.668 318.351 598.663 321.346 595 321.346H221.67C218.007 321.346 215.002 318.351 215.002 314.678V128.008Z" fill="black" stroke="black" stroke-width="10"/>
<path d="M391.662 594.672C391.662 603.875 399.127 611.34 408.33 611.34C417.533 611.34 424.998 603.875 424.998 594.672V478.002C424.998 468.799 417.533 461.334 408.33 461.334C399.127 461.334 391.662 468.799 391.662 478.002V594.672Z" fill="black" stroke="black" stroke-width="10"/>
<path d="M391.662 338.002C391.662 347.205 399.127 354.67 408.33 354.67C417.533 354.67 424.998 347.205 424.998 338.002V104.672C424.998 95.4692 417.533 88.004 408.33 88.004C399.127 88.004 391.662 95.4692 391.662 104.672V338.002Z" fill="black" stroke="black" stroke-width="10"/>
<path d="M198.33 238H618.33C627.533 238 634.998 230.535 634.998 221.332C634.998 212.129 627.533 204.664 618.33 204.664H198.33C189.127 204.664 181.662 212.129 181.662 221.332C181.662 230.535 189.127 238 198.33 238Z" fill="black" stroke="black" stroke-width="10"/>
</svg>
