<svg width="24" height="24" viewBox="0 0 24 24" fill="none" xmlns="http://www.w3.org/2000/svg">
<path fill-rule="evenodd" clip-rule="evenodd" d="M15.3001 10.3001C15.4927 10.1557 15.7309 10.0856 15.971 10.1026C16.2111 10.1197 16.437 10.2228 16.6072 10.393C16.7774 10.5632 16.8805 10.7891 16.8976 11.0292C16.9146 11.2693 16.8445 11.5075 16.7001 11.7001L12.7001 15.7001C12.5132 15.8833 12.2619 15.986 12.0001 15.986C11.7383 15.986 11.487 15.8833 11.3001 15.7001L7.3001 11.7001C7.15567 11.5075 7.08555 11.2693 7.10261 11.0292C7.11968 10.7891 7.22278 10.5632 7.39299 10.393C7.5632 10.2228 7.7891 10.1197 8.02921 10.1026C8.26932 10.0856 8.50753 10.1557 8.7001 10.3001L12.0001 13.5901L15.3001 10.2901V10.3001Z" fill="#3B82F6"/>
</svg>
