<svg width="24" height="24" viewBox="0 0 24 24" fill="none" xmlns="http://www.w3.org/2000/svg">
<path d="M15 11C13.9391 11 12.9217 10.5786 12.1716 9.82843C11.4214 9.07828 11 8.06087 11 7C11 5.93913 11.4214 4.92172 12.1716 4.17157C12.9217 3.42143 13.9391 3 15 3C16.0609 3 17.0783 3.42143 17.8284 4.17157C18.5786 4.92172 19 5.93913 19 7C19 8.06087 18.5786 9.07828 17.8284 9.82843C17.0783 10.5786 16.0609 11 15 11ZM22 19C22 19.5304 21.7893 20.0391 21.4142 20.4142C21.0391 20.7893 20.5304 21 20 21H10C9.46957 21 8.96086 20.7893 8.58579 20.4142C8.21071 20.0391 8 19.5304 8 19V18C8 16.6739 8.52678 15.4021 9.46447 14.4645C10.4021 13.5268 11.6739 13 13 13H17C18.3261 13 19.5979 13.5268 20.5355 14.4645C21.4732 15.4021 22 16.6739 22 18V19Z" fill="black"/>
<path d="M9 11C7.93913 11 6.92172 10.5786 6.17157 9.82843C5.42143 9.07828 5 8.06087 5 7C5 5.93913 5.42143 4.92172 6.17157 4.17157C6.92172 3.42143 7.93913 3 9 3C10.0609 3 11.0783 3.42143 11.8284 4.17157C12.5786 4.92172 13 5.93913 13 7C13 8.06087 12.5786 9.07828 11.8284 9.82843C11.0783 10.5786 10.0609 11 9 11ZM16 19C16 19.5304 15.7893 20.0391 15.4142 20.4142C15.0391 20.7893 14.5304 21 14 21H4C3.46957 21 2.96086 20.7893 2.58579 20.4142C2.21071 20.0391 2 19.5304 2 19V18C2 16.6739 2.52678 15.4021 3.46447 14.4645C4.40215 13.5268 5.67392 13 7 13H11C12.3261 13 13.5979 13.5268 14.5355 14.4645C15.4732 15.4021 16 16.6739 16 18V19Z" fill="black"/>
</svg>
