<svg width="24" height="24" viewBox="0 0 24 24" fill="none" xmlns="http://www.w3.org/2000/svg">
<path d="M12 2.5C14.5196 2.5 16.9359 3.50089 18.7175 5.28249C20.4991 7.06408 21.5 9.48044 21.5 12C21.5 14.5196 20.4991 16.9359 18.7175 18.7175C16.9359 20.4991 14.5196 21.5 12 21.5C9.48044 21.5 7.06408 20.4991 5.28249 18.7175C3.50089 16.9359 2.5 14.5196 2.5 12C2.5 9.48044 3.50089 7.06408 5.28249 5.28249C7.06408 3.50089 9.48044 2.5 12 2.5Z" stroke="white"/>
<path d="M11 12C10.7348 12 10.4804 11.8946 10.2929 11.7071C10.1054 11.5196 10 11.2652 10 11C10 10.7348 10.1054 10.4804 10.2929 10.2929C10.4804 10.1054 10.7348 10 11 10H13C13.1541 10.0004 13.3061 10.0365 13.4439 10.1054C13.5818 10.1742 13.7019 10.274 13.7949 10.397C13.8878 10.5199 13.9511 10.6627 13.9797 10.8141C14.0084 10.9656 14.0016 11.1216 13.96 11.27L12.33 17H13C13.2652 17 13.5196 17.1054 13.7071 17.2929C13.8946 17.4804 14 17.7348 14 18C14 18.2652 13.8946 18.5196 13.7071 18.7071C13.5196 18.8946 13.2652 19 13 19H11C10.8459 18.9996 10.6939 18.9635 10.5561 18.8946C10.4182 18.8258 10.2981 18.726 10.2051 18.603C10.1122 18.4801 10.0489 18.3373 10.0203 18.1859C9.99164 18.0344 9.99839 17.8784 10.04 17.73L11.67 12H11ZM13 8C12.6022 8 12.2206 7.84196 11.9393 7.56066C11.658 7.27936 11.5 6.89782 11.5 6.5C11.5 6.10218 11.658 5.72064 11.9393 5.43934C12.2206 5.15804 12.6022 5 13 5C13.3978 5 13.7794 5.15804 14.0607 5.43934C14.342 5.72064 14.5 6.10218 14.5 6.5C14.5 6.89782 14.342 7.27936 14.0607 7.56066C13.7794 7.84196 13.3978 8 13 8Z" fill="white"/>
</svg>
