<svg width="24" height="24" viewBox="0 0 24 24" fill="none" xmlns="http://www.w3.org/2000/svg">
<path d="M16.32 14.9L17.42 16C17.82 15.98 18.25 16.13 18.56 16.44L21.56 19.44C21.825 19.7243 21.9692 20.1004 21.9624 20.489C21.9555 20.8776 21.7981 21.2484 21.5232 21.5232C21.2484 21.798 20.8777 21.9554 20.489 21.9623C20.1004 21.9692 19.7244 21.8249 19.44 21.56L16.44 18.56C16.2908 18.4115 16.1745 18.2332 16.0987 18.0368C16.0228 17.8404 15.9892 17.6302 16 17.42L14.9 16.32C13.2927 17.5685 11.27 18.1576 9.24363 17.9671C7.2173 17.7766 5.33973 16.821 3.99325 15.2948C2.64676 13.7686 1.93259 11.7866 1.99616 9.75234C2.05972 7.71806 2.89625 5.7845 4.3354 4.34535C5.77455 2.9062 7.70811 2.06967 9.74239 2.0061C11.7767 1.94254 13.7587 2.65671 15.2849 4.00319C16.8111 5.34968 17.7667 7.22725 17.9571 9.25358C18.1476 11.2799 17.5586 13.3027 16.31 14.91L16.32 14.9ZM10 16C11.5913 16 13.1174 15.3678 14.2426 14.2426C15.3679 13.1174 16 11.5913 16 9.99995C16 8.40865 15.3679 6.88253 14.2426 5.75731C13.1174 4.63209 11.5913 3.99995 10 3.99995C8.4087 3.99995 6.88258 4.63209 5.75736 5.75731C4.63214 6.88253 4 8.40865 4 9.99995C4 11.5913 4.63214 13.1174 5.75736 14.2426C6.88258 15.3678 8.4087 16 10 16V16Z" fill="black"/>
</svg>
