<svg width="24" height="24" viewBox="0 0 24 24" fill="none" xmlns="http://www.w3.org/2000/svg">
<path d="M19.5 10.5H12.5C12.2239 10.5 12 10.7239 12 11C12 11.2761 12.2239 11.5 12.5 11.5H19.5C19.7761 11.5 20 11.2761 20 11C20 10.7239 19.7761 10.5 19.5 10.5Z" fill="#333333"/>
<path d="M7.5 10.5H4.5C4.22386 10.5 4 10.7239 4 11C4 11.2761 4.22386 11.5 4.5 11.5H7.5C7.77614 11.5 8 11.2761 8 11C8 10.7239 7.77614 10.5 7.5 10.5Z" fill="#333333"/>
<rect x="2" y="8" width="20" height="6" rx="1" stroke="#333333"/>
</svg>
