<svg width="700" height="700" viewBox="0 0 700 700" fill="none" xmlns="http://www.w3.org/2000/svg">
<path d="M81.604 448.33C81.6186 448.33 81.6338 448.33 81.6496 448.331C81.7333 448.332 81.8327 448.332 81.947 448.329C82.1755 448.324 82.4642 448.31 82.8059 448.278C83.4889 448.214 84.3877 448.076 85.4423 447.791C87.5658 447.216 90.2777 446.056 93.0858 443.766L93.2822 443.606L93.4614 443.426L186.793 350.094L186.794 350.094C193.297 343.591 193.297 333.031 186.793 326.527L93.4614 233.195L93.4552 233.189L93.4488 233.183C88.6908 228.458 81.5131 227.02 75.3026 229.59C69.0614 232.162 65 238.261 65 244.992V431.662C65 438.385 69.0503 444.476 75.2768 447.054C76.0476 447.382 76.9623 447.751 78.0883 447.998C79.2083 448.243 80.336 448.327 81.604 448.33ZM98.3359 285.231L151.437 338.328L98.3359 391.429V285.231Z" fill="black" stroke="black" stroke-width="10"/>
<path d="M221.67 541.67H595C617.058 541.67 635 523.728 635 501.67V431.67C635 409.612 617.058 391.67 595 391.67H221.67C199.611 391.67 181.67 409.612 181.67 431.67V501.67C181.67 523.728 199.612 541.67 221.67 541.67ZM215.002 431.668C215.002 427.995 218.007 425 221.67 425H595C598.663 425 601.668 427.995 601.668 431.668V501.668C601.668 505.341 598.663 508.336 595 508.336H221.67C218.007 508.336 215.002 505.341 215.002 501.668V431.668Z" fill="black" stroke="black" stroke-width="10"/>
<path d="M221.67 285H595C617.058 285 635 267.058 635 245V58.33C635 36.2716 617.058 18.33 595 18.33H221.67C199.611 18.33 181.67 36.2716 181.67 58.33V245C181.67 267.058 199.611 285 221.67 285ZM215.002 58.338C215.002 54.6646 218.007 51.67 221.67 51.67H595C598.663 51.67 601.668 54.6646 601.668 58.338V245.008C601.668 248.681 598.663 251.676 595 251.676H221.67C218.007 251.676 215.002 248.681 215.002 245.008V58.338Z" fill="black" stroke="black" stroke-width="10"/>
<path d="M391.662 525.002C391.662 534.205 399.127 541.67 408.33 541.67C417.533 541.67 424.998 534.205 424.998 525.002V408.332C424.998 399.129 417.533 391.664 408.33 391.664C399.127 391.664 391.662 399.129 391.662 408.332V525.002Z" fill="black" stroke="black" stroke-width="10"/>
<path d="M391.662 268.332C391.662 277.535 399.127 285 408.33 285C417.533 285 424.998 277.535 424.998 268.332V35.002C424.998 25.7992 417.533 18.334 408.33 18.334C399.127 18.334 391.662 25.7992 391.662 35.002V268.332Z" fill="black" stroke="black" stroke-width="10"/>
<path d="M198.33 168.33H618.33C627.533 168.33 634.998 160.865 634.998 151.662C634.998 142.459 627.533 134.994 618.33 134.994H198.33C189.127 134.994 181.662 142.459 181.662 151.662C181.662 160.865 189.127 168.33 198.33 168.33Z" fill="black" stroke="black" stroke-width="10"/>
</svg>
