<svg width="24" height="24" viewBox="0 0 24 24" fill="none" xmlns="http://www.w3.org/2000/svg">
<path d="M12 21C9.61305 21 7.32387 20.0518 5.63604 18.364C3.94821 16.6761 3 14.3869 3 12C3 9.61305 3.94821 7.32387 5.63604 5.63604C7.32387 3.94821 9.61305 3 12 3C14.3869 3 16.6761 3.94821 18.364 5.63604C20.0518 7.32387 21 9.61305 21 12C21 14.3869 20.0518 16.6761 18.364 18.364C16.6761 20.0518 14.3869 21 12 21Z" stroke="black" stroke-width="2"/>
<path d="M12.253 19.0123C11.896 19.0123 11.5536 18.8705 11.3011 18.6181C11.0487 18.3656 10.9069 18.0232 10.9069 17.6662C10.9069 17.3092 11.0487 16.9668 11.3011 16.7144C11.5536 16.462 11.896 16.3201 12.253 16.3201C12.61 16.3201 12.9524 16.462 13.2048 16.7144C13.4573 16.9668 13.5991 17.3092 13.5991 17.6662C13.5991 18.0232 13.4573 18.3656 13.2048 18.6181C12.9524 18.8705 12.61 19.0123 12.253 19.0123ZM13.1504 14.0766C13.1504 14.3146 13.0558 14.5429 12.8875 14.7112C12.7192 14.8795 12.491 14.974 12.253 14.974C12.015 14.974 11.7867 14.8795 11.6184 14.7112C11.4501 14.5429 11.3556 14.3146 11.3556 14.0766V12.8113C11.3544 12.644 11.4 12.4798 11.4872 12.3371C11.5744 12.1944 11.6998 12.0789 11.8492 12.0036L14.0478 10.9357C14.6221 10.5588 14.9452 10.0652 14.9452 9.58961C14.9452 8.66529 13.7786 7.79481 12.253 7.79481C11.0415 7.79481 10.0185 8.3512 9.67744 9.07809C9.56524 9.27533 9.3825 9.42274 9.16599 9.49065C8.94948 9.55856 8.71528 9.54194 8.51053 9.44411C8.30579 9.34629 8.1457 9.17454 8.0625 8.96343C7.9793 8.75232 7.97916 8.51753 8.06211 8.30633C8.70824 6.90638 10.3864 6 12.253 6C14.676 6 16.74 7.54353 16.74 9.58961C16.74 10.7562 16.058 11.7972 14.9003 12.4972L13.1504 13.3587V14.0766Z" fill="black"/>
</svg>
