<svg width="700" height="700" viewBox="0 0 700 700" fill="none" xmlns="http://www.w3.org/2000/svg">
<path d="M232.426 620.981C232.463 620.982 232.505 620.983 232.551 620.983C232.679 620.985 232.845 620.985 233.046 620.981C233.448 620.972 233.992 620.947 234.661 620.883C235.999 620.757 237.841 620.479 240.051 619.882C244.484 618.683 250.352 616.208 256.542 611.16L256.739 611L256.918 610.821L492.906 374.833L489.763 371.69L492.906 374.833C506.365 361.373 506.365 339.511 492.906 326.052L256.918 90.0641L256.911 90.0578L256.905 90.0515C247.048 80.2642 232.168 77.2917 219.324 82.6076C206.414 87.9257 198 100.55 198 114.489V586.48C198 600.409 206.404 613.027 219.302 618.351C221.154 619.14 222.944 619.848 225.089 620.318C227.226 620.787 229.512 620.978 232.426 620.981ZM267.004 503.201V197.781L419.719 350.486L267.004 503.201Z" fill="black" stroke="black" stroke-width="10"/>
</svg>
