<svg width="24" height="25" viewBox="0 0 24 25" fill="none" xmlns="http://www.w3.org/2000/svg">
<path d="M17 8.5C17 8.23478 16.8946 7.98043 16.7071 7.79289C16.5196 7.60536 16.2652 7.5 16 7.5H6.5L6.51 7.566C6.64624 8.51916 7.12173 9.39119 7.84916 10.022C8.57659 10.6528 9.50715 11.0001 10.47 11H13.5V14.03C13.4999 14.9928 13.8472 15.9234 14.478 16.6508C15.1088 17.3783 15.9808 17.8538 16.934 17.99L17 18V8.5Z" stroke="#CDCED6" stroke-width="1.5" stroke-linecap="round" stroke-linejoin="round"/>
<path d="M11.5 14C11.5 13.7348 11.3946 13.4804 11.2071 13.2929C11.0196 13.1054 10.7652 13 10.5 13H1.5L1.51 13.066C1.64624 14.0192 2.12173 14.8912 2.84916 15.522C3.57659 16.1528 4.50715 16.5001 5.47 16.5H8V19.03C7.99994 19.9928 8.34719 20.9234 8.978 21.6508C9.60881 22.3783 10.4808 22.8538 11.434 22.99L11.5 23V14Z" stroke="#CDCED6" stroke-width="1.5" stroke-linecap="round" stroke-linejoin="round"/>
<path d="M22.5 3C22.5 2.73478 22.3946 2.48043 22.2071 2.29289C22.0196 2.10536 21.7652 2 21.5 2H11.5L11.51 2.066C11.6462 3.01916 12.1217 3.89119 12.8492 4.522C13.5766 5.15281 14.5072 5.50006 15.47 5.5H19V9.03C18.9999 9.99285 19.3472 10.9234 19.978 11.6508C20.6088 12.3783 21.4808 12.8538 22.434 12.99L22.5 13V3Z" stroke="#CDCED6" stroke-width="1.5" stroke-linecap="round" stroke-linejoin="round"/>
</svg>
