<svg width="24" height="24" viewBox="0 0 24 24" fill="none" xmlns="http://www.w3.org/2000/svg">
<path d="M12 21.5C9.48044 21.5 7.06408 20.4991 5.28249 18.7175C3.50089 16.9359 2.5 14.5196 2.5 12C2.5 9.48044 3.50089 7.06408 5.28249 5.28249C7.06408 3.50089 9.48044 2.5 12 2.5C14.5196 2.5 16.9359 3.50089 18.7175 5.28249C20.4991 7.06408 21.5 9.48044 21.5 12C21.5 14.5196 20.4991 16.9359 18.7175 18.7175C16.9359 20.4991 14.5196 21.5 12 21.5Z" stroke="black"/>
<path d="M12 19.5C11.6022 19.5 11.2206 19.342 10.9393 19.0607C10.658 18.7794 10.5 18.3978 10.5 18C10.5 17.6022 10.658 17.2206 10.9393 16.9393C11.2206 16.658 11.6022 16.5 12 16.5C12.3978 16.5 12.7793 16.658 13.0606 16.9393C13.342 17.2206 13.5 17.6022 13.5 18C13.5 18.3978 13.342 18.7794 13.0606 19.0607C12.7793 19.342 12.3978 19.5 12 19.5ZM13 14C13 14.2652 12.8946 14.5196 12.7071 14.7071C12.5196 14.8946 12.2652 15 12 15C11.7348 15 11.4804 14.8946 11.2929 14.7071C11.1053 14.5196 11 14.2652 11 14V12.59C10.9987 12.4036 11.0495 12.2206 11.1467 12.0616C11.2439 11.9026 11.3836 11.7739 11.55 11.69L14 10.5C14.64 10.08 15 9.53 15 9C15 7.97 13.7 7 12 7C10.65 7 9.50999 7.62 9.12999 8.43C9.00497 8.64978 8.80133 8.81405 8.56006 8.88972C8.3188 8.9654 8.05782 8.94687 7.82967 8.83787C7.60152 8.72886 7.42313 8.53747 7.33042 8.30223C7.23771 8.06699 7.23755 7.80535 7.32999 7.57C8.04999 6.01 9.91999 5 12 5C14.7 5 17 6.72 17 9C17 10.3 16.24 11.46 14.95 12.24L13 13.2V14Z" fill="black"/>
</svg>
