<svg width="24" height="24" viewBox="0 0 24 24" fill="none" xmlns="http://www.w3.org/2000/svg">
<path d="M8.52 7.11006C9.24683 6.58878 10.0813 6.23719 10.9621 6.08118C11.8428 5.92516 12.7473 5.9687 13.609 6.20859C14.4706 6.44847 15.2675 6.87859 15.9409 7.46727C16.6143 8.05595 17.1471 8.78819 17.5 9.61006C17.5609 9.73141 17.5964 9.86389 17.6044 9.99941C17.6124 10.1349 17.5927 10.2707 17.5465 10.3983C17.5004 10.526 17.4287 10.6429 17.3359 10.742C17.2431 10.8411 17.131 10.9202 17.0067 10.9746C16.8823 11.029 16.7481 11.0575 16.6124 11.0583C16.4766 11.0592 16.3421 11.0324 16.217 10.9795C16.092 10.9267 15.979 10.849 15.8849 10.7511C15.7909 10.6532 15.7178 10.5371 15.67 10.4101C15.445 9.88966 15.1119 9.42303 14.6929 9.04113C14.2738 8.65923 13.7784 8.37077 13.2394 8.19489C12.7004 8.019 12.1301 7.95971 11.5665 8.02095C11.0028 8.08218 10.4587 8.26254 9.97 8.55006L10.71 9.29006C10.851 9.42993 10.9472 9.60863 10.9863 9.80338C11.0253 9.99813 11.0055 10.2001 10.9294 10.3835C10.8532 10.567 10.7241 10.7236 10.5586 10.8334C10.3931 10.9432 10.1986 11.0012 10 11.0001H7C6.73478 11.0001 6.48043 10.8947 6.29289 10.7072C6.10536 10.5196 6 10.2653 6 10.0001V7.00006C6.00275 6.80433 6.06288 6.61372 6.17294 6.45185C6.283 6.28997 6.43815 6.16396 6.61915 6.08943C6.80015 6.0149 6.99905 5.99513 7.19118 6.03257C7.38331 6.07001 7.56023 6.16302 7.7 6.30006L8.52 7.11006ZM14.03 15.4501L13.29 14.7101C13.149 14.5702 13.0528 14.3915 13.0137 14.1967C12.9747 14.002 12.9945 13.8 13.0706 13.6166C13.1468 13.4331 13.2759 13.2765 13.4414 13.1667C13.6069 13.0569 13.8014 12.9989 14 13.0001H17C17.2652 13.0001 17.5196 13.1054 17.7071 13.293C17.8946 13.4805 18 13.7348 18 14.0001V17.0001C17.9973 17.1958 17.9371 17.3864 17.8271 17.5483C17.717 17.7102 17.5618 17.8362 17.3808 17.9107C17.1998 17.9852 17.001 18.005 16.8088 17.9676C16.6167 17.9301 16.4398 17.8371 16.3 17.7001L15.48 16.8901C14.7538 17.4116 13.9199 17.7637 13.0397 17.9204C12.1594 18.0771 11.2553 18.0344 10.3937 17.7956C9.53214 17.5567 8.7351 17.1276 8.06126 16.54C7.38741 15.9524 6.8539 15.2211 6.5 14.4001C6.43914 14.2787 6.40364 14.1462 6.39564 14.0107C6.38764 13.8752 6.40732 13.7395 6.45348 13.6118C6.49963 13.4841 6.57131 13.3672 6.66412 13.2681C6.75694 13.169 6.86895 13.0899 6.99334 13.0355C7.11773 12.9811 7.2519 12.9527 7.38765 12.9518C7.52341 12.951 7.65791 12.9778 7.78297 13.0306C7.90803 13.0834 8.02103 13.1611 8.11508 13.259C8.20912 13.3569 8.28225 13.473 8.33 13.6001C8.55599 14.1196 8.88977 14.5852 9.30924 14.9661C9.72871 15.3469 10.2243 15.6343 10.7632 15.8092C11.3021 15.9841 11.872 16.0426 12.4352 15.9806C12.9984 15.9187 13.542 15.7379 14.03 15.4501Z" fill="#3B82F6"/>
</svg>
