<?xml version="1.0" encoding="UTF-8" standalone="no"?>
<!DOCTYPE svg PUBLIC "-//W3C//DTD SVG 1.1//EN" "http://www.w3.org/Graphics/SVG/1.1/DTD/svg11.dtd">
<svg width="100%" height="100%" viewBox="0 0 24 24" version="1.1" xmlns="http://www.w3.org/2000/svg" xmlns:xlink="http://www.w3.org/1999/xlink" xml:space="preserve" xmlns:serif="http://www.serif.com/" style="fill-rule:evenodd;clip-rule:evenodd;stroke-linejoin:round;stroke-miterlimit:2;">
    <g id="Grid" transform="matrix(0.892707,0,0,2.04662,1.08326,-5.43644)">
        <g transform="matrix(1.11022,0,0,1.2732,-8.03453,-1.42294)">
            <path d="M17.261,4.21C17.261,4.091 17.007,3.994 16.694,3.994L7.729,3.994C7.416,3.994 7.162,4.091 7.162,4.21L7.162,7.219C7.162,7.338 7.416,7.435 7.729,7.435L16.694,7.435C17.007,7.435 17.261,7.338 17.261,7.219L17.261,4.21Z" style="fill:rgb(128,128,128);"/>
        </g>
        <g transform="matrix(1.11022,0,0,1.2732,5.37806,-1.42294)">
            <path d="M17.261,4.221C17.261,4.096 16.994,3.994 16.665,3.994L7.757,3.994C7.429,3.994 7.162,4.096 7.162,4.221L7.162,7.208C7.162,7.333 7.429,7.435 7.757,7.435L16.665,7.435C16.994,7.435 17.261,7.333 17.261,7.208L17.261,4.221Z" style="fill:rgb(128,128,128);"/>
        </g>
        <g transform="matrix(1.11022,0,0,1.2732,5.37806,3.91142)">
            <path d="M17.261,4.191C17.261,4.082 17.029,3.994 16.744,3.994L7.679,3.994C7.393,3.994 7.162,4.082 7.162,4.191L7.162,7.238C7.162,7.346 7.393,7.435 7.679,7.435L16.744,7.435C17.029,7.435 17.261,7.346 17.261,7.238L17.261,4.191Z" style="fill:rgb(128,128,128);"/>
        </g>
        <g transform="matrix(1.11022,0,0,1.2732,-8.03453,3.91142)">
            <path d="M17.261,4.255C17.261,4.111 16.953,3.994 16.573,3.994L7.849,3.994C7.47,3.994 7.162,4.111 7.162,4.255L7.162,7.173C7.162,7.317 7.47,7.435 7.849,7.435L16.573,7.435C16.953,7.435 17.261,7.317 17.261,7.173L17.261,4.255Z" style="fill:rgb(128,128,128);"/>
        </g>
    </g>
    <g id="List">
    </g>
</svg>
