<svg width="24" height="24" viewBox="0 0 24 24" fill="none" xmlns="http://www.w3.org/2000/svg">
<path d="M2.59999 6.08995L11.6 2.08995C11.7262 2.03489 11.8623 2.00647 12 2.00647C12.1377 2.00647 12.2738 2.03489 12.4 2.08995L21.4 6.08995C21.5746 6.1695 21.7226 6.29759 21.8264 6.45894C21.9302 6.62029 21.9854 6.8081 21.9854 6.99995C21.9854 7.19181 21.9302 7.37962 21.8264 7.54097C21.7226 7.70232 21.5746 7.83041 21.4 7.90995L12.4 11.91C12.2738 11.965 12.1377 11.9934 12 11.9934C11.8623 11.9934 11.7262 11.965 11.6 11.91L2.59999 7.90995C2.42541 7.83041 2.27739 7.70232 2.17359 7.54097C2.06979 7.37962 2.0146 7.19181 2.0146 6.99995C2.0146 6.8081 2.06979 6.62029 2.17359 6.45894C2.27739 6.29759 2.42541 6.1695 2.59999 6.08995V6.08995Z" fill="white"/>
<path d="M3.91 10.5L11.59 13.91C11.7189 13.968 11.8587 13.9979 12 13.9979C12.1413 13.9979 12.2811 13.968 12.41 13.91L20.09 10.5L21.41 11.09C21.5846 11.1695 21.7326 11.2976 21.8364 11.459C21.9402 11.6203 21.9954 11.8081 21.9954 12C21.9954 12.1919 21.9402 12.3797 21.8364 12.541C21.7326 12.7024 21.5846 12.8305 21.41 12.91L12.41 16.91C12.2811 16.968 12.1413 16.9979 12 16.9979C11.8587 16.9979 11.7189 16.968 11.59 16.91L2.59 12.91C2.41541 12.8305 2.26739 12.7024 2.16359 12.541C2.0598 12.3797 2.00461 12.1919 2.00461 12C2.00461 11.8081 2.0598 11.6203 2.16359 11.459C2.26739 11.2976 2.41541 11.1695 2.59 11.09L3.91 10.5ZM3.91 15.5L11.59 18.91C11.7189 18.968 11.8587 18.9979 12 18.9979C12.1413 18.9979 12.2811 18.968 12.41 18.91L20.09 15.5L21.41 16.09C21.5846 16.1695 21.7326 16.2976 21.8364 16.459C21.9402 16.6203 21.9954 16.8081 21.9954 17C21.9954 17.1919 21.9402 17.3797 21.8364 17.541C21.7326 17.7024 21.5846 17.8305 21.41 17.91L12.41 21.91C12.2811 21.968 12.1413 21.9979 12 21.9979C11.8587 21.9979 11.7189 21.968 11.59 21.91L2.59 17.91C2.41541 17.8305 2.26739 17.7024 2.16359 17.541C2.0598 17.3797 2.00461 17.1919 2.00461 17C2.00461 16.8081 2.0598 16.6203 2.16359 16.459C2.26739 16.2976 2.41541 16.1695 2.59 16.09L3.91 15.5Z" fill="white"/>
</svg>
