<svg width="24" height="24" viewBox="0 0 24 24" fill="none" xmlns="http://www.w3.org/2000/svg">
<path fill-rule="evenodd" clip-rule="evenodd" d="M8.6999 15.7858C8.50733 15.9303 8.26912 16.0004 8.02901 15.9833C7.7889 15.9663 7.563 15.8632 7.39279 15.6929C7.22258 15.5227 7.11948 15.2968 7.10242 15.0567C7.08535 14.8166 7.15547 14.5784 7.2999 14.3858L11.2999 10.3858C11.4868 10.2026 11.7381 10.1 11.9999 10.1C12.2617 10.1 12.513 10.2026 12.6999 10.3858L16.6999 14.3858C16.8443 14.5784 16.9144 14.8166 16.8974 15.0567C16.8803 15.2968 16.7772 15.5227 16.607 15.6929C16.4368 15.8632 16.2109 15.9663 15.9708 15.9833C15.7307 16.0004 15.4925 15.9303 15.2999 15.7858L11.9999 12.4958L8.6999 15.7958L8.6999 15.7858Z" fill="black"/>
</svg>
