<svg width="80" height="32" viewBox="0 0 80 32" fill="none" xmlns="http://www.w3.org/2000/svg">
<path d="M45.3242 0H2.44922C1.34465 0 0.449219 0.89543 0.449219 2V4C0.449219 5.10457 1.34465 6 2.44922 6H45.3242C46.4288 6 47.3242 5.10457 47.3242 4V2C47.3242 0.895431 46.4288 0 45.3242 0Z" fill="#2563EB"/>
<path d="M77.5508 13H2.44922C1.34465 13 0.449219 13.8954 0.449219 15V17C0.449219 18.1046 1.34465 19 2.44922 19H77.5508C78.6554 19 79.5508 18.1046 79.5508 17V15C79.5508 13.8954 78.6554 13 77.5508 13Z" fill="#C5CED3"/>
<path d="M2.44922 32H21.1543C22.2589 32 23.1543 31.1046 23.1543 30V29C23.1543 27.8954 22.2589 27 21.1543 27H2.44922C1.34465 27 0.449217 27.8954 0.449217 29V30C0.449217 31.1046 1.34465 32 2.44922 32Z" fill="#888B96"/>
</svg>
