<svg width="188" height="73" viewBox="0 0 188 73" fill="none" xmlns="http://www.w3.org/2000/svg">
<path d="M35.3823 0.223999H2C0.895431 0.223999 0 1.11943 0 2.224V3.83605C0 4.94062 0.89543 5.83605 2 5.83605H35.3823C36.4869 5.83605 37.3823 4.94063 37.3823 3.83606V2.224C37.3823 1.11943 36.4869 0.223999 35.3823 0.223999Z" fill="#2563EB"/>
<path d="M35.3823 66.5483H2C0.895431 66.5483 0 67.4438 0 68.5483V70.1604C0 71.265 0.89543 72.1604 2 72.1604H35.3823C36.4869 72.1604 37.3823 71.265 37.3823 70.1604V68.5483C37.3823 67.4438 36.4869 66.5483 35.3823 66.5483Z" fill="#2563EB"/>
<path d="M60.6867 13.4888H2C0.895431 13.4888 0 14.3842 0 15.4888V17.1008C0 18.2054 0.895427 19.1008 2 19.1008H60.6867C61.7913 19.1008 62.6867 18.2054 62.6867 17.1008V15.4888C62.6867 14.3842 61.7913 13.4888 60.6867 13.4888Z" fill="#C5CED3"/>
<path d="M101.385 13.4888H77.6729C76.5683 13.4888 75.6729 14.3842 75.6729 15.4888V17.1008C75.6729 18.2054 76.5683 19.1008 77.6728 19.1008H101.385C102.489 19.1008 103.385 18.2054 103.385 17.1008V15.4888C103.385 14.3842 102.489 13.4888 101.385 13.4888Z" fill="#2563EB"/>
<path d="M186 13.4888H171.782C170.677 13.4888 169.782 14.3842 169.782 15.4888V17.1008C169.782 18.2054 170.677 19.1008 171.782 19.1008H186C187.105 19.1008 188 18.2054 188 17.1008V15.4888C188 14.3842 187.105 13.4888 186 13.4888Z" fill="#E6E8ED"/>
<path d="M159.364 13.4888H115.113C114.009 13.4888 113.113 14.3842 113.113 15.4888V17.1008C113.113 18.2054 114.009 19.1008 115.113 19.1008H159.364C160.468 19.1008 161.364 18.2054 161.364 17.1008V15.4888C161.364 14.3842 160.468 13.4888 159.364 13.4888Z" fill="#172439"/>
<path d="M127.313 32.3658L186 32.3658C187.105 32.3658 188 31.4704 188 30.3658V28.7538C188 27.6492 187.105 26.7538 186 26.7538L127.313 26.7538C126.209 26.7538 125.313 27.6492 125.313 28.7538V30.3658C125.313 31.4704 126.209 32.3658 127.313 32.3658Z" fill="#C5CED3"/>
<path d="M87.0529 32.3658H110.765C111.869 32.3658 112.765 31.4704 112.765 30.3658V28.7538C112.765 27.6492 111.869 26.7538 110.765 26.7538L87.0529 26.7538C85.9483 26.7538 85.0529 27.6492 85.0529 28.7538V30.3658C85.0529 31.4704 85.9483 32.3658 87.0529 32.3658Z" fill="#172439"/>
<path d="M1.99994 32.3658H16.218C17.3226 32.3658 18.218 31.4704 18.218 30.3658V28.7538C18.218 27.6492 17.3226 26.7538 16.218 26.7538H1.99994C0.895369 26.7538 -6.10352e-05 27.6492 -6.10352e-05 28.7538V30.3658C-6.10352e-05 31.4704 0.89537 32.3658 1.99994 32.3658Z" fill="#172439"/>
<path d="M29.0519 32.3658L73.3025 32.3658C74.4071 32.3658 75.3025 31.4704 75.3025 30.3658V28.7538C75.3025 27.6492 74.4071 26.7538 73.3025 26.7538L29.0519 26.7538C27.9473 26.7538 27.0519 27.6492 27.0519 28.7538V30.3658C27.0519 31.4704 27.9473 32.3658 29.0519 32.3658Z" fill="#2563EB"/>
<path d="M60.6867 40.0186H2C0.895431 40.0186 0 40.914 0 42.0186V43.6306C0 44.7352 0.895427 45.6306 2 45.6306H60.6867C61.7913 45.6306 62.6867 44.7352 62.6867 43.6306V42.0186C62.6867 40.914 61.7913 40.0186 60.6867 40.0186Z" fill="#C5CED3"/>
<path d="M101.385 40.0186H77.6729C76.5683 40.0186 75.6729 40.914 75.6729 42.0186V43.6306C75.6729 44.7352 76.5683 45.6306 77.6728 45.6306H101.385C102.489 45.6306 103.385 44.7352 103.385 43.6306V42.0186C103.385 40.914 102.489 40.0186 101.385 40.0186Z" fill="#172439"/>
<path d="M186 40.0186H171.782C170.677 40.0186 169.782 40.914 169.782 42.0186V43.6306C169.782 44.7352 170.677 45.6306 171.782 45.6306H186C187.105 45.6306 188 44.7352 188 43.6306V42.0186C188 40.914 187.105 40.0186 186 40.0186Z" fill="#E6E8ED"/>
<path d="M159.364 40.0186H115.113C114.009 40.0186 113.113 40.914 113.113 42.0186V43.6306C113.113 44.7352 114.009 45.6306 115.113 45.6306H159.364C160.468 45.6306 161.364 44.7352 161.364 43.6306V42.0186C161.364 40.914 160.468 40.0186 159.364 40.0186Z" fill="#2563EB"/>
<path d="M79.7629 53.2834H65.0603C63.9557 53.2834 63.0603 54.1789 63.0603 55.2834V56.8955C63.0603 58.0001 63.9557 58.8955 65.0603 58.8955H79.7629C80.8675 58.8955 81.7629 58.0001 81.7629 56.8955V55.2834C81.7629 54.1789 80.8675 53.2834 79.7629 53.2834Z" fill="#2563EB"/>
<path d="M47.5338 53.2834H2C0.895431 53.2834 0 54.1789 0 55.2834V56.8955C0 58.0001 0.895433 58.8955 2 58.8955H47.5339C48.6384 58.8955 49.5339 58.0001 49.5339 56.8955V55.2834C49.5339 54.1789 48.6384 53.2834 47.5338 53.2834Z" fill="#172439"/>
</svg>
