<svg xmlns="http://www.w3.org/2000/svg" width="200" height="128">
    <defs>
        <linearGradient id="a" x1="-1265.91" y1="-359.49" x2="-1265.91" y2="-209.49" gradientTransform="rotate(-135 -522.403 -383.078)" gradientUnits="userSpaceOnUse">
            <stop offset="0" stop-color="#c8511b"/>
            <stop offset="1" stop-color="#f90"/>
        </linearGradient>
    </defs>
    <path d="M78.85 90.74l-1-2.95h-4.59l-1 2.95h-1.67l4.1-11.09h1.76l4.09 11.09zm-5.17-4.18h3.73l-1.87-5.44zm18.58 4.18v-5.51a1.83 1.83 0 00-.26-1.18 1.13 1.13 0 00-1-.39 4.49 4.49 0 00-2.35.72 1.94 1.94 0 010 .24v6.12h-1.58v-5.51a1.9 1.9 0 00-.3-1.18 1.13 1.13 0 00-1-.39 4.35 4.35 0 00-2.34.71v6.37h-1.54v-8.12h1.33l.16.82a5.32 5.32 0 013-1.06 2 2 0 012 1.14 5.43 5.43 0 013.17-1.14 2.23 2.23 0 011.7.63 2.49 2.49 0 01.59 1.77v6zm8.68 0l-.12-.84a4.2 4.2 0 01-1.28.77 3.76 3.76 0 01-1.38.27 2.54 2.54 0 01-1.82-.64 2.31 2.31 0 01-.68-1.74 2.28 2.28 0 01.84-1.86 3.34 3.34 0 012.24-.7 8.38 8.38 0 012 .27v-1a1.59 1.59 0 00-.39-1.22 2 2 0 00-1.35-.4 8.71 8.71 0 00-2.81.49V83a5.17 5.17 0 011.41-.47 8.55 8.55 0 011.68-.17 3.29 3.29 0 012.24.64 2.42 2.42 0 01.72 1.92v5.8zm-2.4-1a3.75 3.75 0 002.21-.81V87.3a6.86 6.86 0 00-1.69-.21c-1.21 0-1.81.46-1.81 1.39a1.27 1.27 0 00.33.94 1.37 1.37 0 00.96.32zm5.46 1v-1.22l4.66-5.65h-4.5v-1.25h6.26v1.2l-4.72 5.67h4.76v1.25zm11.52.24a3.63 3.63 0 01-2.85-1.14 5.4 5.4 0 010-6.32 4.13 4.13 0 015.7 0 5.4 5.4 0 010 6.32 3.63 3.63 0 01-2.85 1.16zm0-1.28c1.5 0 2.26-1 2.26-3s-.76-3-2.26-3-2.26 1-2.26 3 .74 3 2.26 3zm11.31 1v-5.39a1.9 1.9 0 00-.34-1.25 1.37 1.37 0 00-1.08-.4 4.45 4.45 0 00-2.48.82v6.26h-1.59v-8.12h1.33l.16.9a5.27 5.27 0 013.2-1.14 2.41 2.41 0 011.78.62 2.46 2.46 0 01.61 1.78v6zm-39.61 16V95.65h7.29v1.85h-4.89v2.63h4V102h-4v2.9h4.89v1.86zm17-.29a8.1 8.1 0 01-2.9.49 5.42 5.42 0 01-4.09-1.44 7.09 7.09 0 01.05-8.46 5.42 5.42 0 014.1-1.52 7.88 7.88 0 012.67.45v1.89a11.17 11.17 0 00-2.39-.32 3.23 3.23 0 00-2.48.88 3.79 3.79 0 00-.83 2.68v.37a3.87 3.87 0 00.8 2.67 3.18 3.18 0 002.45.87 12.8 12.8 0 002.61-.37zm3.93-4.56a4.66 4.66 0 01-2-1.29 3.2 3.2 0 01.48-4.33 4.63 4.63 0 013-.89 8.6 8.6 0 013.07.57v1.83a9.74 9.74 0 00-2.88-.48c-1.26 0-1.89.4-1.89 1.21a.94.94 0 00.33.74 4.34 4.34 0 001.22.61l1.19.43a5.13 5.13 0 012.12 1.27 2.81 2.81 0 01.63 1.9 3.17 3.17 0 01-1.18 2.6 5.09 5.09 0 01-3.25 1 9.78 9.78 0 01-1.79-.17 6.38 6.38 0 01-1.54-.46v-1.82a11.94 11.94 0 001.71.38 10.29 10.29 0 001.65.15 2.6 2.6 0 001.46-.35 1.11 1.11 0 00.51-1 1 1 0 00-.31-.78 3.93 3.93 0 00-1.26-.64z" fill="#333"/>
    <path d="M73 19h54v54H73z" fill="url(#a)"/>
    <path d="M99.9 65.4a.48.48 0 01-.4-.1l-16.4-9.4a.8.8 0 01-.4-.7V36.1a.8.8 0 01.4-.7l15-8.7a.8.8 0 011 .1 1 1 0 01.2.6v8.2a.8.8 0 01-.4.7l-7.5 4.3v10l8.5 4.9 7.4-4.3a.68.68 0 01.7 0l7.1 4.1a.8.8 0 01.18 1.12.77.77 0 01-.18.18l-15 8.6zM84.2 54.6l16 9.3 13.8-8-5.7-3.3-7.7 4.4a.78.78 0 01-.7 0l-9.6-5.5a.81.81 0 01-.4-.6V40.2a.81.81 0 01.4-.6l7.5-4.3v-6.7l-13.6 8zm32.3-.3a2.6 2.6 0 01-.4-.1L109 50a.81.81 0 01-.4-.6v-8.7l-7.5-4.3a.8.8 0 01-.4-.7v-8.3a.8.8 0 01.4-.7.68.68 0 01.7 0l15.1 8.7a.8.8 0 01.4.7v17.4a.81.81 0 01-.4.6 1 1 0 01-.4.2zm-6.4-5.4l5.7 3.3V36.6l-13.6-8v6.6l7.5 4.4a.81.81 0 01.4.6z" fill="#fff"/>
</svg>
