<svg width="17" height="16" viewBox="0 0 17 16" fill="none" xmlns="http://www.w3.org/2000/svg">
<path d="M5.6258 0.000421903H10.6192L5.43552 15.3682C5.40902 15.4467 5.37044 15.5206 5.32119 15.5872C5.27204 15.6539 5.21276 15.7123 5.14547 15.7606C5.07817 15.8089 5.00392 15.8465 4.92502 15.8718C4.84613 15.8971 4.76386 15.9102 4.68116 15.9102H0.795018C0.668869 15.9102 0.544408 15.8802 0.432182 15.8224C0.319836 15.7648 0.222858 15.6812 0.149296 15.5785C0.0756857 15.4759 0.0275303 15.3573 0.00880222 15.2324C-0.00997245 15.1075 0.00141892 14.9799 0.0417106 14.8603L4.87123 0.541934C4.8976 0.46346 4.9362 0.389627 4.98557 0.322966C5.03472 0.256306 5.09421 0.197872 5.16129 0.149564C5.22858 0.101257 5.30284 0.0637073 5.38173 0.0383931C5.46063 0.013079 5.5429 0 5.62559 0V0.000210951L5.6258 0.000421903Z" fill="#60646C"/>
<path d="M14.8309 15.9102H10.3472C10.2972 15.9102 10.2472 15.9055 10.1978 15.896C10.1487 15.8867 10.1004 15.8728 10.0537 15.8545C10.0071 15.8361 9.9624 15.8133 9.92 15.7868C9.87765 15.76 9.83789 15.7293 9.80123 15.6952L4.71309 10.9433C4.65927 10.8931 4.62179 10.8278 4.6055 10.756C4.58923 10.6842 4.59495 10.6091 4.62193 10.5406C4.64891 10.4721 4.69589 10.4133 4.75675 10.3718C4.81772 10.3305 4.88965 10.3083 4.96328 10.3083H12.8815L14.8305 15.9104L14.8309 15.9102Z" fill="#60646C"/>
<path d="M10.6372 0.000376103L7.14175 10.3094L12.853 10.3081L14.8122 15.9101H10.3453C10.2991 15.9097 10.2529 15.9055 10.2073 15.8972C10.1617 15.889 10.117 15.877 10.0736 15.861C9.98642 15.8292 9.90536 15.7828 9.83391 15.7236L6.3992 12.518L5.43769 15.3536C5.4128 15.4245 5.37862 15.4918 5.33601 15.5536C5.2506 15.6779 5.13378 15.7774 4.99743 15.842C4.92955 15.8741 4.85768 15.897 4.78374 15.9101H0.797391C0.669977 15.9105 0.54425 15.8802 0.430969 15.8215C0.317671 15.7629 0.220145 15.6779 0.146636 15.5737C0.0731275 15.4694 0.0257964 15.349 0.0086441 15.2226C-0.00844616 15.0962 0.00508252 14.9675 0.048092 14.8473L4.86981 0.552647C4.89491 0.472696 4.93267 0.397387 4.98161 0.32946C5.03034 0.261534 5.08983 0.201624 5.15733 0.152261C5.22484 0.102898 5.29994 0.0645053 5.37947 0.0387692C5.45899 0.0130332 5.54232 -4.58002e-05 5.62607 0.000376103H10.6374H10.6372Z" fill="url(#paint0_linear_9710_6771)"/>
<path d="M16.8333 14.8602C16.8736 14.9799 16.885 15.1074 16.8664 15.2323C16.8477 15.3572 16.7996 15.4758 16.7261 15.5785C16.6526 15.6811 16.5556 15.7646 16.4433 15.8223C16.331 15.8799 16.2066 15.9101 16.0804 15.9101H10.5151C10.6412 15.9101 10.7657 15.8799 10.8781 15.8223C10.9904 15.7648 11.0874 15.681 11.161 15.5785C11.2347 15.476 11.2828 15.3572 11.3015 15.2323C11.3203 15.1074 11.3089 14.9798 11.2686 14.8602L6.43889 0.541456C6.38572 0.383725 6.28442 0.246641 6.14925 0.149509C6.08217 0.101201 6.00791 0.0638626 5.92923 0.0385484C5.85054 0.0132342 5.76827 0.000366211 5.68579 0.000366211H11.2509C11.3336 0.000366211 11.4157 0.0132342 11.4945 0.0385484C11.5732 0.0638626 11.6475 0.101412 11.7148 0.149509C11.7819 0.197817 11.8411 0.25625 11.8903 0.3227C11.9394 0.38915 11.9778 0.462982 12.0044 0.541456L16.8341 14.8602H16.8333Z" fill="#60646C"/>
<defs>
<linearGradient id="paint0_linear_9710_6771" x1="9.06626" y1="8.32241" x2="7.86595" y2="8.72954" gradientUnits="userSpaceOnUse">
<stop stop-opacity="0.3"/>
<stop offset="0.1" stop-opacity="0.2"/>
<stop offset="0.3" stop-opacity="0.1"/>
<stop offset="0.6" stop-opacity="0.1"/>
<stop offset="1" stop-opacity="0"/>
</linearGradient>
</defs>
</svg>
