<svg width="200" height="200" viewBox="0 0 200 200" fill="none" xmlns="http://www.w3.org/2000/svg">
<path d="M142.856 128.571C146.806 128.571 149.999 125.371 149.999 121.428V114.285C149.999 110.343 146.806 107.143 142.856 107.143C138.907 107.143 135.713 110.343 135.713 114.285V121.428C135.713 125.371 138.907 128.571 142.856 128.571Z" fill="black"/>
<path d="M99.9993 157.143C96.05 157.143 92.8564 160.342 92.8564 164.285V171.428C92.8564 175.371 96.05 178.571 99.9993 178.571C103.949 178.571 107.142 175.371 107.142 171.428V164.285C107.142 160.342 103.949 157.143 99.9993 157.143Z" fill="black"/>
<path d="M121.428 157.143C117.478 157.143 114.285 160.342 114.285 164.285V171.428C114.285 175.371 117.478 178.571 121.428 178.571C125.377 178.571 128.571 175.371 128.571 171.428V164.285C128.571 160.342 125.377 157.143 121.428 157.143Z" fill="black"/>
<path d="M142.856 157.143C138.907 157.143 135.713 160.342 135.713 164.285V171.428C135.713 175.371 138.907 178.571 142.856 178.571C146.806 178.571 149.999 175.371 149.999 171.428V164.285C149.999 160.342 146.806 157.143 142.856 157.143Z" fill="black"/>
<path d="M198.179 2.37881C196.828 0.864161 194.885 0 192.857 0H157.142C153.193 0 150 3.19991 150 7.14284V28.5714H128.571V7.14284C128.571 3.19991 125.377 0 121.428 0H78.571C74.6217 0 71.4281 3.19991 71.4281 7.14284V28.5714H49.9996V7.14284C49.9996 3.19991 46.806 0 42.8567 0H7.14239C5.11431 0 3.17076 0.864161 1.82035 2.37881C0.47149 3.89346 -0.179 5.91358 0.0425923 7.929L7.18545 72.2146C7.59202 75.8354 10.6421 78.5713 14.2855 78.5713H58.4936C58.9225 80.9932 59.4582 83.3721 60.1008 85.7141H49.7151C38.0571 85.7141 28.5718 95.199 28.5718 107.143V178.857C28.5718 190.714 37.7363 200 49.4359 200H149.999C161.656 200 171.142 190.515 171.142 178.879L171.428 106.859C171.428 95.2023 161.943 85.7158 150.285 85.7158H139.899C140.541 83.3736 141.077 80.995 141.506 78.5729H185.714C189.357 78.5729 192.414 75.837 192.814 72.2162L199.957 7.93064C200.179 5.91533 199.536 3.89526 198.179 2.38044L198.179 2.37881ZM149.999 185.713H49.4359C45.7433 185.713 42.8575 182.698 42.8575 178.856V149.999H156.972L156.857 178.856C156.859 182.634 153.78 185.713 150.001 185.713H149.999ZM135.713 99.999H150.284C154.063 99.999 157.142 103.078 157.142 106.834L157.027 135.713H42.8558V106.857C42.8558 103.078 45.9346 99.999 49.9986 99.999H64.2844C64.6845 99.999 65.0337 99.8348 65.4132 99.771C70.4417 109.857 77.6773 119.042 87.1062 127.021L95.3842 134.02C96.7203 135.149 98.3625 135.713 99.9985 135.713C101.634 135.713 103.277 135.149 104.613 134.028L112.899 127.021C113.734 126.313 114.457 125.543 115.255 124.82C116.47 127.021 118.728 128.57 121.427 128.57C125.377 128.57 128.57 125.37 128.57 121.427V114.285C128.57 113.092 128.207 112.021 127.692 111.027C130.313 107.413 132.642 103.671 134.584 99.771C134.97 99.8347 135.313 99.999 135.713 99.999ZM103.671 116.113L99.9991 119.213L96.3352 116.113C81.1217 103.235 72.6058 86.7639 71.5344 68.2562L99.9989 51.1852L128.456 68.2644C127.392 86.7639 118.878 103.242 103.671 116.113ZM179.312 64.2848H142.855C142.855 61.7784 141.533 59.4489 139.39 58.164L103.676 36.7355C101.418 35.3787 98.5831 35.3787 96.3256 36.7355L60.6113 58.164C58.462 59.4491 57.1403 61.7785 57.1403 64.2848H20.6831L15.1186 14.2849H35.7117V35.7134C35.7117 39.6564 38.9053 42.8563 42.8546 42.8563H78.5689C82.5182 42.8563 85.7117 39.6564 85.7117 35.7134V14.2849H114.283V35.7134C114.283 39.6564 117.477 42.8563 121.426 42.8563H157.14C161.09 42.8563 164.283 39.6564 164.283 35.7134V14.2849H184.876L179.312 64.2848Z" fill="black"/>
<path d="M119.334 73.5223C116.54 70.729 112.027 70.729 109.233 73.5223L99.9986 82.757L97.9052 80.6636C95.1118 77.8702 90.5983 77.8702 87.8048 80.6636C85.0113 83.457 85.0114 87.9705 87.8048 90.764L94.9476 97.9068C96.3412 99.3003 98.1699 100 99.9987 100C101.827 100 103.656 99.3003 105.048 97.9068L119.334 83.6211C122.127 80.8294 122.127 76.3142 119.334 73.5223Z" fill="black"/>
</svg>
