<svg width="64" height="52" viewBox="0 0 64 52" fill="none" xmlns="http://www.w3.org/2000/svg">
<g clip-path="url(#clip0_47_2629)">
<path d="M57.1428 0H6.85714C5.03823 0 3.29444 0.674278 2.00816 1.87429C0.722442 3.07476 0 4.70236 0 6.4V44.8C0 46.4975 0.722442 48.1252 2.00816 49.3258C3.29439 50.5257 5.03823 51.2 6.85714 51.2H57.1428C58.9617 51.2 60.7055 50.5257 61.9919 49.3258C63.2776 48.1252 64 46.4975 64 44.8V6.4C64 4.70236 63.2776 3.07482 61.9919 1.87429C60.7055 0.674278 58.9617 0 57.1428 0ZM22.1871 20.708L15.3299 27.1078C14.9044 27.5197 14.3187 27.7542 13.7059 27.7594C13.0927 27.7642 12.5034 27.5395 12.0697 27.1347C11.6361 26.73 11.3953 26.1798 11.4004 25.6074C11.406 25.0356 11.657 24.489 12.0983 24.0918L17.3391 19.1998L12.0983 14.3079C11.657 13.9108 11.406 13.3641 11.4004 12.7922C11.3953 12.2198 11.6361 11.6698 12.0697 11.2651C12.5034 10.8603 13.0927 10.6355 13.7059 10.6403C14.3187 10.6456 14.9044 10.8798 15.3299 11.2918L22.1871 17.6918C22.6157 18.0918 22.8565 18.6341 22.8565 19.1998C22.8565 19.7655 22.6157 20.308 22.1871 20.708ZM41.1428 27.7332H29.7142C28.8975 27.7332 28.1428 27.3265 27.7348 26.6665C27.3265 26.0065 27.3265 25.1932 27.7348 24.5332C28.1428 23.8732 28.8975 23.4665 29.7142 23.4665H41.1428C41.9597 23.4665 42.7144 23.8732 43.1224 24.5332C43.5305 25.1932 43.5305 26.0065 43.1224 26.6665C42.7144 27.3265 41.9597 27.7332 41.1428 27.7332Z" fill="black"/>
</g>
<defs>
<clipPath id="clip0_47_2629">
<rect width="64" height="51.2" fill="white"/>
</clipPath>
</defs>
</svg>
