<svg width="64" height="64" viewBox="0 0 64 64" fill="none" xmlns="http://www.w3.org/2000/svg">
<g clip-path="url(#clip0_730_9)">
<mask id="mask0_730_9" style="mask-type:luminance" maskUnits="userSpaceOnUse" x="17" y="20" width="30" height="24">
<path d="M47 20H17V43.6308H47V20Z" fill="white"/>
</mask>
<g mask="url(#mask0_730_9)">
<path d="M43.7857 20H20.2143C19.3617 20 18.5443 20.3112 17.9413 20.8651C17.3386 21.4191 17 22.1703 17 22.9538V40.6769C17 41.4604 17.3386 42.2116 17.9413 42.7658C18.5442 43.3196 19.3617 43.6308 20.2143 43.6308H43.7857C44.6383 43.6308 45.4557 43.3196 46.0587 42.7658C46.6614 42.2116 47 41.4604 47 40.6769V22.9538C47 22.1703 46.6614 21.4191 46.0587 20.8651C45.4557 20.3112 44.6383 20 43.7857 20ZM27.4002 29.5575L24.1859 32.5113C23.9864 32.7014 23.7119 32.8096 23.4246 32.812C23.1372 32.8142 22.861 32.7105 22.6577 32.5237C22.4544 32.3369 22.3415 32.083 22.3439 31.8188C22.3466 31.5549 22.4642 31.3026 22.6711 31.1193L25.1277 28.8614L22.6711 26.6036C22.4642 26.4204 22.3466 26.168 22.3439 25.9041C22.3415 25.6399 22.4544 25.3861 22.6577 25.1993C22.861 25.0124 23.1372 24.9087 23.4246 24.9109C23.7119 24.9134 23.9864 25.0214 24.1859 25.2116L27.4002 28.1654C27.6011 28.3501 27.714 28.6004 27.714 28.8614C27.714 29.1225 27.6011 29.3729 27.4002 29.5575ZM36.2857 32.7999H30.9285C30.5457 32.7999 30.1919 32.6122 30.0007 32.3076C29.8093 32.003 29.8093 31.6276 30.0007 31.323C30.1919 31.0184 30.5457 30.8307 30.9285 30.8307H36.2857C36.6686 30.8307 37.0224 31.0184 37.2136 31.323C37.4049 31.6276 37.4049 32.003 37.2136 32.3076C37.0224 32.6122 36.6686 32.7999 36.2857 32.7999Z" fill="#60646C"/>
</g>
</g>
<defs>
<clipPath id="clip0_730_9">
<rect width="30" height="24" fill="white" transform="translate(17 20)"/>
</clipPath>
</defs>
</svg>
