<svg width="81" height="39" viewBox="0 0 81 39" fill="none" xmlns="http://www.w3.org/2000/svg">
<rect width="79.834" height="4.26956" rx="1.59124" transform="matrix(1 0 0 -1 0.749512 21.292)" fill="#C5CED3"/>
<rect width="22.7265" height="4.26956" rx="1.59124" transform="matrix(1 0 0 -1 0.749512 21.292)" fill="#2563EB"/>
<rect width="5.90047" height="8.72306" rx="1.59124" transform="matrix(1 0 0 -1 20.5623 23.5469)" fill="#666666"/>
<rect width="79.834" height="4.26956" rx="1.59124" transform="matrix(1 0 0 -1 0.749512 35.9287)" fill="#C5CED3"/>
<rect width="37.8774" height="4.26956" rx="1.59124" transform="matrix(1 0 0 -1 0.749512 35.9287)" fill="#2563EB"/>
<rect width="5.90047" height="8.72306" rx="1.59124" transform="matrix(1 0 0 -1 35.1304 38.3691)" fill="#666666"/>
<rect width="79.834" height="4.26956" rx="1.59124" transform="matrix(1 0 0 -1 0.749512 6.65234)" fill="#C5CED3"/>
<rect width="60.6039" height="4.26956" rx="1.59124" transform="matrix(1 0 0 -1 0.749512 6.65234)" fill="#2563EB"/>
<rect width="5.90047" height="8.72306" rx="1.59124" transform="matrix(1 0 0 -1 58.4392 8.72363)" fill="#666666"/>
</svg>
