<svg width="451" height="122" viewBox="0 0 451 122" fill="none" xmlns="http://www.w3.org/2000/svg">
<rect x="0.201416" y="30.615" width="450.5" height="7.15079" rx="2" fill="#C5CED3"/>
<rect x="0.201416" y="30.615" width="128.714" height="7.15079" rx="2" fill="#2563EB"/>
<rect x="121.765" y="27.0396" width="14.3016" height="14.3016" rx="2" fill="#172439"/>
<rect x="0.201416" y="111.062" width="450.5" height="7.15079" rx="2" fill="#C5CED3"/>
<rect x="0.201416" y="111.062" width="166.256" height="7.15079" rx="2" fill="#2563EB"/>
<rect x="159.307" y="107.486" width="14.3016" height="14.3016" rx="2" fill="#172439"/>
<rect x="0.201416" y="3.79956" width="450.5" height="7.15079" rx="2" fill="#C5CED3"/>
<rect x="0.201416" y="3.79956" width="212.736" height="7.15079" rx="2" fill="#2563EB"/>
<rect x="205.787" y="0.224121" width="14.3016" height="14.3016" rx="2" fill="#172439"/>
<rect x="0.201416" y="57.4304" width="450.5" height="7.15079" rx="2" fill="#C5CED3"/>
<rect x="0.201416" y="57.4304" width="344.132" height="7.15079" rx="2" fill="#2563EB"/>
<rect x="337.183" y="53.855" width="14.3016" height="14.3016" rx="2" fill="#172439"/>
<rect x="0.201416" y="84.2461" width="450.5" height="7.15079" rx="2" fill="#C5CED3"/>
<rect x="0.201416" y="84.2461" width="255.641" height="7.15079" rx="2" fill="#2563EB"/>
<rect x="248.691" y="80.6707" width="14.3016" height="14.3016" rx="2" fill="#172439"/>
</svg>
