<svg width="195" height="83" viewBox="0 0 195 83" fill="none" xmlns="http://www.w3.org/2000/svg">
<rect y="62.9595" width="20" height="18" rx="2" fill="#172439"/>
<rect y="34.9595" width="20" height="18" rx="2" fill="#888B96"/>
<rect y="6.95947" width="20" height="18" rx="2" fill="#2563EB"/>
<rect x="35" y="57.224" width="20" height="18" rx="2" fill="#172439"/>
<rect x="35" y="29.224" width="20" height="18" rx="2" fill="#2563EB"/>
<rect x="35" y="1.224" width="20" height="18" rx="2" fill="#C5CED3"/>
<rect x="70" y="63.2241" width="20" height="18" rx="2" fill="#172439"/>
<rect x="70" y="35.224" width="20" height="18" rx="2" fill="#888B96"/>
<rect x="70" y="7.224" width="20" height="18" rx="2" fill="#2563EB"/>
<rect x="105" y="56.224" width="20" height="18" rx="2" fill="#2563EB"/>
<rect x="105" y="28.224" width="20" height="18" rx="2" fill="#888B96"/>
<rect x="105" y="0.223999" width="20" height="18" rx="2" fill="#C5CED3"/>
<rect x="140" y="64.9595" width="20" height="18" rx="2" fill="#172439"/>
<rect x="140" y="36.9595" width="20" height="18" rx="2" fill="#888B96"/>
<rect x="140" y="8.95947" width="20" height="18" rx="2" fill="#2563EB"/>
<rect x="175" y="60.9595" width="20" height="18" rx="2" fill="#172439"/>
<rect x="175" y="32.9595" width="20" height="18" rx="2" fill="#2563EB"/>
<rect x="175" y="4.95947" width="20" height="18" rx="2" fill="#C5CED3"/>
</svg>
