<svg width="24" height="24" viewBox="0 0 24 24" fill="none" xmlns="http://www.w3.org/2000/svg">
<path d="M13.9322 10.5093H15.9907M11.4815 10.5093H13.5401M9.0798 10.5093H11.1384M6.67813 10.5093H8.68769M4.22744 10.5093H6.28602M6.67813 8.25463H8.68769M9.0798 8.25463H11.1384M11.4815 8.25463H13.5401M11.4815 6H13.5401" stroke="#60646C" stroke-width="2"/>
<path d="M22.5586 10.6073C22.5586 10.6073 21.6763 9.77403 19.8628 10.0681C19.6668 8.64671 18.1473 7.81348 18.1473 7.81348C18.1473 7.81348 16.7259 9.52896 17.7552 11.4405C17.4611 11.5875 16.971 11.7836 16.2358 11.7836H2.75701C2.51194 12.7149 2.51194 18.8906 9.27584 18.8906C14.1282 18.8906 17.7552 16.636 19.4707 12.5188C22.0194 12.7149 22.5586 10.6073 22.5586 10.6073Z" fill="#60646C"/>
</svg>
