<svg width="24" height="24" viewBox="0 0 24 24" fill="none" xmlns="http://www.w3.org/2000/svg">
<path d="M13.9321 10.5093H15.9907M11.4815 10.5093H13.54M9.07978 10.5093H11.1384M6.67811 10.5093H8.68767M4.22742 10.5093H6.286M6.67811 8.25463H8.68767M9.07978 8.25463H11.1384M11.4815 8.25463H13.54M11.4815 6H13.54" stroke="#FCFCFD" stroke-width="2"/>
<path d="M22.5586 10.6073C22.5586 10.6073 21.6764 9.77403 19.8629 10.0681C19.6668 8.64671 18.1474 7.81348 18.1474 7.81348C18.1474 7.81348 16.726 9.52896 17.7553 11.4405C17.4612 11.5875 16.971 11.7836 16.2358 11.7836H2.75705C2.51198 12.7149 2.51198 18.8906 9.27588 18.8906C14.1282 18.8906 17.7553 16.636 19.4707 12.5188C22.0195 12.7149 22.5586 10.6073 22.5586 10.6073Z" fill="#FCFCFD"/>
</svg>
