<svg width="24" height="24" viewBox="0 0 24 24" fill="none" xmlns="http://www.w3.org/2000/svg">
<path d="M13.9321 10.5093H15.9907M11.4815 10.5093H13.54M9.07978 10.5093H11.1384M6.67811 10.5093H8.68767M4.22742 10.5093H6.286M6.67811 8.25463H8.68767M9.07978 8.25463H11.1384M11.4815 8.25463H13.54M11.4815 6H13.54" stroke="#1C63ED" stroke-width="1.86252"/>
<path d="M22.5585 10.6073C22.5585 10.6073 21.6762 9.77406 19.8627 10.0681C19.6667 8.64674 18.1473 7.81351 18.1473 7.81351C18.1473 7.81351 16.7259 9.52899 17.7551 11.4405C17.4611 11.5876 16.9709 11.7836 16.2357 11.7836H2.75693C2.51186 12.7149 2.51186 18.8906 9.27576 18.8906C14.1281 18.8906 17.7551 16.636 19.4706 12.5188C22.0193 12.7149 22.5585 10.6073 22.5585 10.6073Z" fill="#1C63ED"/>
</svg>
