<svg width="120" height="60" viewBox="0 0 208 88" fill="none" xmlns="http://www.w3.org/2000/svg"><path d="M114.849 23.69h7.92L110.699 64h-11.25l-12-40.28h7.92l9.74 33.57 9.74-33.6zM144.75 64h-6l-.55-2a16.12 16.12 0 01-8.77 2.6c-5.38 0-7.68-3.69-7.68-8.77 0-6 2.6-8.29 8.59-8.29h7.08v-3.1c0-3.27-.91-4.42-5.63-4.42a40.71 40.71 0 00-8.16.91l-.91-5.63a38.678 38.678 0 0110.1-1.39c9.25 0 12 3.27 12 10.65L144.75 64zm-7.37-11.13h-5.45c-2.42 0-3.08.67-3.08 2.91 0 2 .66 3 3 3a11.72 11.72 0 005.57-1.51l-.04-4.4zm18.992-18.35v20.56c0 1.57.66 2.36 2.36 2.36 1.7 0 5-1.09 7.68-2.48V34.52h7.38V64h-5.63l-.72-2.48a29.437 29.437 0 01-11.8 3.09c-4.9 0-6.65-3.45-6.65-8.71V34.52h7.38zM177.719 64V22.48l7.38-1V64h-7.38zm29.388-.57a20.62 20.62 0 01-6.47 1.15c-5.38 0-8.11-2.54-8.11-7.8v-16.4h-4.41v-5.86h4.41V27.2l7.38-1v8.35h7.56l-.48 5.86h-7.08v15.4a2.323 2.323 0 001.596 2.514c.344.11.708.14 1.064.086a13.919 13.919 0 003.69-.61l.85 5.63z" fill="#000"></path><path d="M0 12.6l31.85 63.92L63.92 12.6H0zm35.63 12.83h3.71v3.71h-3.71v-3.71zm-7.38 14.82h-3.7v-3.7h3.7v3.7zm0-5.56h-3.7V31h3.7v3.69zm0-5.55h-3.7v-3.71h3.7v3.71zm5.6 16.67h-3.7V42.1h3.7v3.71zm0-5.56h-3.7v-3.7h3.7v3.7zm0-5.56h-3.7V31h3.7v3.69zm0-5.55h-3.7v-3.71h3.7v3.71zM35.63 31h3.71v3.7h-3.71V31zm0 9.26v-3.7h3.71v3.7h-3.71z" fill="#FFD814"></path><path d="M95.27 13.81V8.16h-5.18v5.65h-2.64V.23h2.64v5.69h5.18V.23h2.64v13.58h-2.64zm12.319 0h-2.09l-.19-.66a5.77 5.77 0 01-3 .86c-1.87 0-2.66-1.22-2.66-2.91 0-2 .9-2.76 3-2.76h2.46v-1c0-1.08-.32-1.47-1.95-1.47-.951.01-1.898.11-2.83.3l-.32-1.87c1.143-.3 2.319-.455 3.5-.46 3.21 0 4.15 1.09 4.15 3.54l-.07 6.43zm-2.55-3.7h-1.89c-.84 0-1.07.22-1.07 1s.23 1 1 1a4.22 4.22 0 001.93-.5l.03-1.5zm7.91 3.89a12.535 12.535 0 01-3.52-.56l.35-1.87c.978.266 1.986.407 3 .42 1.13 0 1.3-.24 1.3-1s-.12-.9-1.78-1.28c-2.49-.59-2.79-1.19-2.79-3.08 0-1.89.9-2.84 3.82-2.84 1.03.001 2.056.115 3.06.34l-.25 2a18.985 18.985 0 00-2.81-.28c-1.11 0-1.3.24-1.3.85 0 .78.06.84 1.44 1.19 2.86.72 3.13 1.08 3.13 3.09s-.57 3.02-3.65 3.02zm11.7-.2V7c0-.52-.23-.79-.81-.79a7.412 7.412 0 00-2.67.83v6.8h-2.55V0l2.55.38v4.34a9.285 9.285 0 013.74-.95c1.69 0 2.3 1.15 2.3 2.9v7.1l-2.56.03zm4.71-11.19V.23h2.56v2.39l-2.56-.01zm0 11.19V4h2.56v9.8h-2.56zm4.6-9.72c0-2.45 1.49-3.88 5-3.88 1.28 0 2.555.148 3.8.44l-.3 2.19a21.49 21.49 0 00-3.41-.34c-1.83 0-2.41.61-2.41 2v5.16c0 1.43.58 2 2.41 2a21.497 21.497 0 003.41-.34l.3 2.19c-1.245.292-2.52.44-3.8.44-3.47 0-5-1.43-5-3.88V4.08zm14.41 9.92c-3.5 0-4.45-1.85-4.45-3.86V7.67c0-2 1-3.86 4.45-3.86s4.48 1.85 4.48 3.86v2.48c0 2.01-1 3.85-4.48 3.85zm0-8.11c-1.37 0-1.89.59-1.89 1.69v2.64c0 1.11.52 1.69 1.89 1.69 1.37 0 1.88-.58 1.88-1.69V7.59c0-1.1-.52-1.69-1.88-1.69v-.01zm11.64.16c-.935.413-1.841.89-2.71 1.43v6.32h-2.55V4h2.16l.16 1.09a11.848 11.848 0 012.69-1.29l.25 2.25zm10.22 4.49c0 2.17-1 3.46-3.37 3.46a14.76 14.76 0 01-2.73-.28v4l-2.56.38V4h2l.25.83a5.482 5.482 0 013.23-1c2 0 3.14 1.17 3.14 3.4l.04 3.31zm-6.1 1.11c.743.159 1.5.246 2.26.26.93 0 1.28-.42 1.28-1.31V7.15c0-.8-.31-1.25-1.25-1.25a3.741 3.741 0 00-2.29.89v4.86z" fill="#000"></path></svg>
