<svg xmlns="http://www.w3.org/2000/svg" width="120" height="60">
    <g>
        <g fill="#326de5">
            <path d="M36.934 49.256c.14-.152.266-.3.418-.456s.279-.316.418-.468.266-.3.38-.443.228-.266.317-.368h1.62c-.329.368-.645.735-.949 1.077s-.646.7-1.013 1.051a6.276 6.276 0 0 1 .569.595c.19.228.38.456.57.709s.355.494.507.734.278.469.38.671h-1.558c-.1-.164-.215-.329-.342-.519s-.266-.38-.392-.582a6.449 6.449 0 0 0-.459-.557 2.985 2.985 0 0 0-.456-.444v2.115h-1.365v-6.939l1.368-.215v4.039M44.9 52.168a8.694 8.694 0 0 1-2.051.266 2.8 2.8 0 0 1-1.026-.164 1.691 1.691 0 0 1-.646-.456 1.917 1.917 0 0 1-.342-.722 3.661 3.661 0 0 1-.1-.912v-2.671H42.1v2.519a1.932 1.932 0 0 0 .177.95.727.727 0 0 0 .646.3 2.677 2.677 0 0 0 .316-.013 1.661 1.661 0 0 0 .291-.038v-3.718h1.37v4.659M49.28 49.889c0-.886-.329-1.317-.975-1.317a1.579 1.579 0 0 0-.418.051 1.069 1.069 0 0 0-.329.139v2.482c.063.013.152.025.253.038a2.8 2.8 0 0 0 .342.013.969.969 0 0 0 .849-.38 1.813 1.813 0 0 0 .278-1.026m1.393.051a3.023 3.023 0 0 1-.177 1.051 2.153 2.153 0 0 1-.481.8 2.312 2.312 0 0 1-.785.519 3.044 3.044 0 0 1-1.064.177c-.165 0-.342-.013-.519-.025s-.355-.038-.532-.051-.329-.051-.494-.089a1.643 1.643 0 0 1-.418-.126v-6.764l1.368-.215v2.406a2.96 2.96 0 0 1 .481-.152 2.524 2.524 0 0 1 .532-.051 2.071 2.071 0 0 1 .911.19 1.836 1.836 0 0 1 .659.506 2.171 2.171 0 0 1 .4.8 3.85 3.85 0 0 1 .114 1.026M51.5 49.965a3.017 3.017 0 0 1 .19-1.114 2.4 2.4 0 0 1 .519-.811 2.009 2.009 0 0 1 .735-.481 2.256 2.256 0 0 1 .856-.159 2.124 2.124 0 0 1 1.62.633 2.614 2.614 0 0 1 .6 1.849 2 2 0 0 1-.013.265 1.841 1.841 0 0 0-.013.254h-3.1a.885.885 0 0 0 .393.658 1.631 1.631 0 0 0 .937.253 4.8 4.8 0 0 0 .734-.063 3.208 3.208 0 0 0 .595-.177l.19 1.114a1.978 1.978 0 0 1-.291.114 2.494 2.494 0 0 1-.418.089c-.152.025-.3.05-.481.076s-.342.025-.519.025a2.916 2.916 0 0 1-1.14-.19 2.042 2.042 0 0 1-1.266-1.317 4.721 4.721 0 0 1-.127-1.013m3.2-.519a1.087 1.087 0 0 0-.064-.342.78.78 0 0 0-.152-.291.88.88 0 0 0-1.051-.215.875.875 0 0 0-.278.2.917.917 0 0 0-.177.3 1.617 1.617 0 0 0-.076.342h1.8M59.993 48.724c-.127-.025-.266-.063-.431-.088a2.518 2.518 0 0 0-.532-.051 3.061 3.061 0 0 0-.316.025 2.044 2.044 0 0 0-.266.051v3.685H57.08v-4.584a6.863 6.863 0 0 1 .861-.241 4.228 4.228 0 0 1 1.115-.114c.088 0 .177.013.265.013a1.455 1.455 0 0 1 .317.038 3.189 3.189 0 0 1 .317.051 1.036 1.036 0 0 1 .266.076l-.228 1.139M60.955 47.673c.291-.076.595-.139.9-.19a7.1 7.1 0 0 1 1.152-.088 2.778 2.778 0 0 1 1.013.164 1.452 1.452 0 0 1 .646.443 1.79 1.79 0 0 1 .342.7 3.558 3.558 0 0 1 .1.9v2.718h-1.367v-2.545a1.875 1.875 0 0 0-.178-.937.715.715 0 0 0-.645-.278 2.907 2.907 0 0 0-.317.012 1.86 1.86 0 0 0-.291.026v3.722h-1.368l.013-4.647M66.147 49.965a3.036 3.036 0 0 1 .189-1.114 2.4 2.4 0 0 1 .52-.811 2.005 2.005 0 0 1 .734-.481 2.263 2.263 0 0 1 .861-.164 2.126 2.126 0 0 1 1.621.633 2.618 2.618 0 0 1 .595 1.849 2 2 0 0 1-.013.265c0 .1-.012.178-.012.254h-3.1a.888.888 0 0 0 .393.658 1.635 1.635 0 0 0 .937.253 4.775 4.775 0 0 0 .734-.063 3.218 3.218 0 0 0 .6-.177l.189 1.114a1.894 1.894 0 0 1-.291.114 2.473 2.473 0 0 1-.418.089c-.152.025-.3.05-.481.076s-.342.025-.519.025a2.919 2.919 0 0 1-1.14-.19 2.235 2.235 0 0 1-.8-.519 2.2 2.2 0 0 1-.469-.8 3.539 3.539 0 0 1-.126-1.013m3.2-.519a1.085 1.085 0 0 0-.063-.342.7.7 0 0 0-.152-.3.885.885 0 0 0-.266-.215.91.91 0 0 0-.785 0 .882.882 0 0 0-.279.2.9.9 0 0 0-.177.3 1.681 1.681 0 0 0-.076.342l1.8.013M71.68 46.306l1.368-.216v1.419h1.646v1.139h-1.646v1.7a1.262 1.262 0 0 0 .152.684.671.671 0 0 0 .62.253 2.537 2.537 0 0 0 .443-.038 2.354 2.354 0 0 0 .431-.114l.19 1.064a4.165 4.165 0 0 1-.558.177 3.613 3.613 0 0 1-.747.076 2.284 2.284 0 0 1-.924-.152 1.492 1.492 0 0 1-.582-.418 1.764 1.764 0 0 1-.317-.658 3.214 3.214 0 0 1-.076-.849v-4.067M75.39 49.965a3.017 3.017 0 0 1 .19-1.114 2.4 2.4 0 0 1 .519-.811 2.009 2.009 0 0 1 .735-.481 2.256 2.256 0 0 1 .861-.164 2.124 2.124 0 0 1 1.62.633 2.614 2.614 0 0 1 .6 1.849 2 2 0 0 1-.013.265c0 .1-.013.178-.013.254h-3.1a.924.924 0 0 0 .392.658 1.636 1.636 0 0 0 .938.253 4.8 4.8 0 0 0 .734-.063 3.208 3.208 0 0 0 .595-.177l.19 1.114a1.978 1.978 0 0 1-.291.114 2.515 2.515 0 0 1-.418.089c-.152.025-.3.05-.481.076s-.342.025-.519.025a2.916 2.916 0 0 1-1.14-.19 2.042 2.042 0 0 1-1.266-1.317 4.721 4.721 0 0 1-.127-1.013m3.216-.519a1.085 1.085 0 0 0-.063-.342.861.861 0 0 0-.152-.3.885.885 0 0 0-.266-.215.91.91 0 0 0-.785 0 .878.878 0 0 0-.278.2.9.9 0 0 0-.178.3 1.681 1.681 0 0 0-.076.342l1.8.013M82.367 51.358a1.266 1.266 0 0 0 .532-.076.283.283 0 0 0 .152-.282.321.321 0 0 0-.2-.278 2.769 2.769 0 0 0-.62-.279 5.05 5.05 0 0 1-.583-.253 1.723 1.723 0 0 1-.443-.3 1.2 1.2 0 0 1-.278-.43 1.593 1.593 0 0 1-.1-.6 1.318 1.318 0 0 1 .507-1.077 2.181 2.181 0 0 1 1.38-.392 4.758 4.758 0 0 1 .848.076 4 4 0 0 1 .646.164l-.24 1.064c-.178-.063-.342-.1-.52-.152a2.594 2.594 0 0 0-.62-.051c-.431 0-.646.114-.646.355A.679.679 0 0 0 82.2 49a.377.377 0 0 0 .114.126c.051.038.127.076.216.127a2.126 2.126 0 0 0 .367.152 5.746 5.746 0 0 1 .747.329 1.4 1.4 0 0 1 .456.355 1.055 1.055 0 0 1 .24.418 1.909 1.909 0 0 1 .076.531 1.212 1.212 0 0 1-.544 1.089 2.69 2.69 0 0 1-1.52.368 3.894 3.894 0 0 1-1.076-.114 8.043 8.043 0 0 1-.582-.178l.228-1.114a4.46 4.46 0 0 0 .709.215 6.313 6.313 0 0 0 .734.051"/>
        </g>
    </g>
    <g>
        <path d="M59.894 8.327a2.05 2.05 0 0 0-.777.2l-10.61 5.07a2.011 2.011 0 0 0-1.1 1.365l-2.616 11.384a2 2 0 0 0 .276 1.543c.036.055.074.109.115.16l7.344 9.131a2.034 2.034 0 0 0 1.586.757h11.777a2.036 2.036 0 0 0 1.586-.756l7.341-9.132a2 2 0 0 0 .393-1.7l-2.622-11.393a2.013 2.013 0 0 0-1.1-1.365L60.878 8.524a2.05 2.05 0 0 0-.984-.197z" fill="#326ce5"/>
        <path d="M59.888 7.5a2.155 2.155 0 0 0-.819.209l-11.2 5.35a2.13 2.13 0 0 0-1.161 1.441l-2.762 12.025a2.105 2.105 0 0 0 .29 1.629c.038.058.079.114.122.168l7.752 9.64a2.147 2.147 0 0 0 1.675.8h12.432a2.15 2.15 0 0 0 1.675-.8l7.749-9.641a2.109 2.109 0 0 0 .414-1.8L73.288 14.5a2.126 2.126 0 0 0-1.159-1.44L60.928 7.71a2.168 2.168 0 0 0-1.04-.21zm.006.825a2.038 2.038 0 0 1 .984.2l10.611 5.066a2.02 2.02 0 0 1 1.1 1.366l2.621 11.387a2 2 0 0 1-.392 1.7l-7.341 9.132a2.033 2.033 0 0 1-1.586.756H54.114a2.037 2.037 0 0 1-1.586-.757l-7.346-9.125a2.242 2.242 0 0 1-.116-.16 2 2 0 0 1-.275-1.543l2.618-11.388a2.015 2.015 0 0 1 1.1-1.365l10.61-5.069a2.023 2.023 0 0 1 .775-.197z" fill="#fff"/>
        <path d="M60 12.2a.673.673 0 0 0-.635.705v.181a5.553 5.553 0 0 0 .087.6 6.016 6.016 0 0 1 .071 1.152.7.7 0 0 1-.207.328l-.015.269A8.189 8.189 0 0 0 54 17.989a9.986 9.986 0 0 1-.229-.163.505.505 0 0 1-.378-.037 5.912 5.912 0 0 1-.856-.773 5.208 5.208 0 0 0-.418-.444c-.039-.033-.1-.078-.141-.113a.752.752 0 0 0-.442-.166.61.61 0 0 0-.506.223.673.673 0 0 0 .156.937l.009.007c.042.033.093.077.132.105a5.238 5.238 0 0 0 .526.308 5.935 5.935 0 0 1 .945.664.71.71 0 0 1 .127.366l.2.182a8.216 8.216 0 0 0-1.3 5.729l-.266.078a.885.885 0 0 1-.273.275 5.88 5.88 0 0 1-1.138.187 5.439 5.439 0 0 0-.61.049c-.048.009-.116.027-.169.039h-.015a.637.637 0 1 0 .282 1.237h.022c.052-.012.118-.025.164-.037a5.447 5.447 0 0 0 .57-.218 5.907 5.907 0 0 1 1.118-.324.7.7 0 0 1 .365.129l.277-.048a8.263 8.263 0 0 0 3.662 4.573l-.115.277a.627.627 0 0 1 .057.359 6.272 6.272 0 0 1-.575 1.033 5.225 5.225 0 0 0-.341.508c-.025.047-.057.12-.081.171a.637.637 0 1 0 1.146.544c.024-.049.058-.115.078-.161a5.478 5.478 0 0 0 .184-.582 4.437 4.437 0 0 1 .491-1.141.518.518 0 0 1 .274-.134l.144-.26a8.223 8.223 0 0 0 5.86.015c.041.071.116.209.136.244a.5.5 0 0 1 .324.2 5.882 5.882 0 0 1 .436 1.068 5.268 5.268 0 0 0 .185.582c.02.047.054.113.078.163a.638.638 0 1 0 1.148-.543c-.024-.05-.057-.124-.083-.171a5.371 5.371 0 0 0-.34-.506 5.892 5.892 0 0 1-.563-1.008.493.493 0 0 1 .049-.375 2.164 2.164 0 0 1-.106-.256 8.274 8.274 0 0 0 3.661-4.606c.082.013.225.038.271.048a.5.5 0 0 1 .356-.132 5.907 5.907 0 0 1 1.107.326 5.447 5.447 0 0 0 .57.219c.046.013.112.024.164.036h.022a.637.637 0 1 0 .282-1.237c-.054-.013-.132-.034-.185-.044a5.422 5.422 0 0 0-.609-.049 5.867 5.867 0 0 1-1.138-.187.709.709 0 0 1-.274-.275l-.257-.075a8.248 8.248 0 0 0-1.323-5.715l.225-.2a.5.5 0 0 1 .12-.359 5.922 5.922 0 0 1 .944-.664 5.153 5.153 0 0 0 .528-.308c.041-.03.1-.078.14-.112a.639.639 0 1 0-.791-.994l-.141.113a5.248 5.248 0 0 0-.42.444 5.924 5.924 0 0 1-.856.774.7.7 0 0 1-.385.042l-.242.173a8.32 8.32 0 0 0-5.269-2.553c0-.085-.013-.238-.014-.284a.5.5 0 0 1-.208-.317 5.865 5.865 0 0 1 .072-1.152 5.553 5.553 0 0 0 .087-.6v-.181A.673.673 0 0 0 60 12.2zm-.8 4.925l-.189 3.332-.011.01a.559.559 0 0 1-.889.428h-.005l-2.732-1.936a6.539 6.539 0 0 1 3.151-1.717c.228-.048.454-.086.675-.114zm1.592 0a6.6 6.6 0 0 1 3.808 1.838l-2.714 1.924h-.01a.56.56 0 0 1-.89-.427zm-6.41 3.078l2.494 2.231v.013a.559.559 0 0 1 .07.771.548.548 0 0 1-.29.191v.011l-3.2.923a6.54 6.54 0 0 1 .929-4.14zm11.209 0a6.653 6.653 0 0 1 .957 4.128l-3.213-.925v-.014a.56.56 0 0 1-.22-.962v-.007l2.48-2.22zm-6.107 2.4h1.021l.636.794-.228.991-.913.447-.92-.443-.228-.99zm3.275 2.717a.553.553 0 0 1 .129.009l.006-.007 3.307.56a6.547 6.547 0 0 1-2.648 3.325l-1.283-3.1v-.006a.561.561 0 0 1 .271-.726.552.552 0 0 1 .214-.055zm-5.554.013a.561.561 0 0 1 .507.781l.009.012-1.266 3.074a6.573 6.573 0 0 1-2.639-3.3l3.278-.556v.007a.592.592 0 0 1 .11-.01zm2.77 1.345a.556.556 0 0 1 .262.056.549.549 0 0 1 .251.239h.012l1.62 2.927q-.315.105-.646.18a6.562 6.562 0 0 1-3.583-.184L59.5 26.98a.562.562 0 0 1 .479-.296z" fill="#fff"/>
    </g>
</svg>
