<svg width="116" height="69" viewBox="0 0 116 69" fill="none" xmlns="http://www.w3.org/2000/svg">
<path d="M36.934 49.256C37.074 49.104 37.2 48.956 37.352 48.8C37.504 48.644 37.631 48.484 37.77 48.332C37.909 48.18 38.036 48.032 38.15 47.889C38.264 47.746 38.378 47.623 38.467 47.521H40.087C39.758 47.889 39.442 48.256 39.138 48.598C38.834 48.94 38.492 49.298 38.125 49.649C38.3275 49.8347 38.5175 50.0334 38.694 50.244C38.884 50.472 39.074 50.7 39.264 50.953C39.454 51.206 39.619 51.447 39.771 51.687C39.923 51.927 40.049 52.156 40.151 52.358H38.593C38.493 52.194 38.378 52.029 38.251 51.839C38.124 51.649 37.985 51.459 37.859 51.257C37.7165 51.0629 37.5633 50.877 37.4 50.7C37.2642 50.5362 37.1114 50.3873 36.944 50.256V52.371H35.579V45.432L36.947 45.217V49.256H36.934ZM44.9 52.168C44.2293 52.338 43.5408 52.4273 42.849 52.434C42.4997 52.4438 42.1518 52.3882 41.823 52.27C41.5746 52.1712 41.3532 52.0149 41.177 51.814C41.0135 51.6 40.897 51.354 40.835 51.092C40.7635 50.7934 40.7299 50.487 40.735 50.18V47.509H42.1V50.028C42.0776 50.3545 42.1385 50.6814 42.277 50.978C42.3499 51.0792 42.4476 51.16 42.5607 51.2125C42.6739 51.2651 42.7986 51.2876 42.923 51.278C43.0285 51.2799 43.134 51.2756 43.239 51.265C43.3369 51.2609 43.4343 51.2482 43.53 51.227V47.509H44.9V52.168ZM49.28 49.889C49.28 49.003 48.951 48.572 48.305 48.572C48.164 48.5703 48.0234 48.5874 47.887 48.623C47.7703 48.6506 47.6591 48.6975 47.558 48.762V51.244C47.621 51.257 47.71 51.269 47.811 51.282C47.9246 51.2933 48.0388 51.2976 48.153 51.295C48.315 51.3079 48.4777 51.2799 48.6261 51.2135C48.7744 51.1471 48.9037 51.0445 49.002 50.915C49.1951 50.6085 49.2919 50.2511 49.28 49.889V49.889ZM50.673 49.94C50.6767 50.298 50.6168 50.6539 50.496 50.991C50.3961 51.2896 50.2319 51.5627 50.015 51.791C49.7917 52.016 49.5245 52.1926 49.23 52.31C48.8887 52.4319 48.5284 52.4918 48.166 52.487C48.001 52.487 47.824 52.474 47.647 52.462C47.47 52.45 47.292 52.424 47.115 52.411C46.938 52.398 46.786 52.36 46.621 52.322C46.4767 52.2988 46.3361 52.2564 46.203 52.196V45.432L47.571 45.217V47.623C47.7267 47.5587 47.8876 47.5079 48.052 47.471C48.227 47.4352 48.4053 47.4181 48.584 47.42C48.8981 47.4134 49.2097 47.4784 49.495 47.61C49.7504 47.7261 49.9759 47.8992 50.154 48.116C50.3414 48.352 50.4776 48.6245 50.554 48.916C50.6379 49.2513 50.6762 49.5964 50.668 49.942L50.673 49.94ZM51.5 49.965C51.4926 49.585 51.557 49.2071 51.69 48.851C51.8064 48.5484 51.983 48.2725 52.209 48.04C52.4155 47.8274 52.6665 47.6632 52.944 47.559C53.2163 47.4509 53.507 47.3969 53.8 47.4C54.0994 47.3852 54.3985 47.434 54.6777 47.5431C54.957 47.6522 55.2099 47.8191 55.42 48.033C55.8502 48.5493 56.0651 49.2115 56.02 49.882C56.0215 49.9705 56.0172 50.0591 56.007 50.147C55.9968 50.2313 55.9925 50.3161 55.994 50.401H52.894C52.906 50.5331 52.9475 50.6609 53.0156 50.7747C53.0836 50.8886 53.1763 50.9858 53.287 51.059C53.5664 51.2365 53.8932 51.3247 54.224 51.312C54.4699 51.3098 54.7153 51.2888 54.958 51.249C55.1616 51.2094 55.3608 51.1501 55.553 51.072L55.743 52.186C55.6491 52.2316 55.5518 52.2697 55.452 52.3C55.3155 52.3416 55.1756 52.3713 55.034 52.389C54.882 52.414 54.734 52.439 54.553 52.465C54.372 52.491 54.211 52.49 54.034 52.49C53.6451 52.5034 53.2575 52.4388 52.894 52.3C52.5952 52.1938 52.3252 52.0196 52.1055 51.791C51.8857 51.5624 51.7223 51.2857 51.628 50.983C51.5492 50.6509 51.5066 50.3113 51.501 49.97L51.5 49.965ZM54.701 49.451C54.6981 49.3343 54.6765 49.2188 54.637 49.109C54.6075 49.0023 54.5557 48.9031 54.485 48.818C54.358 48.6713 54.1861 48.5707 53.996 48.5318C53.806 48.493 53.6084 48.518 53.434 48.603C53.329 48.6507 53.2346 48.7187 53.156 48.803C53.0784 48.8908 53.0183 48.9926 52.979 49.103C52.9413 49.2139 52.9159 49.3286 52.903 49.445H54.703L54.701 49.451ZM59.993 48.724C59.866 48.699 59.727 48.661 59.562 48.636C59.387 48.6002 59.2086 48.5831 59.03 48.585C58.9243 48.5879 58.8188 48.5962 58.714 48.61C58.6243 48.6211 58.5354 48.6381 58.448 48.661V52.346H57.08V47.762C57.3614 47.663 57.649 47.5825 57.941 47.521C58.3059 47.4337 58.6809 47.3954 59.056 47.407C59.144 47.407 59.233 47.42 59.321 47.42C59.4277 47.421 59.534 47.4337 59.638 47.458C59.7444 47.4697 59.8502 47.4867 59.955 47.509C60.0466 47.5223 60.1361 47.5479 60.221 47.585L59.993 48.724V48.724ZM60.955 47.673C61.246 47.597 61.55 47.534 61.855 47.483C62.236 47.4224 62.6212 47.393 63.007 47.395C63.3519 47.3863 63.6954 47.4419 64.02 47.559C64.2718 47.6447 64.4953 47.7979 64.666 48.002C64.83 48.2074 64.9468 48.4464 65.008 48.702C65.0795 48.9965 65.1131 49.299 65.108 49.602V52.32H63.741V49.775C63.7634 49.4525 63.7021 49.1298 63.563 48.838C63.4885 48.7401 63.39 48.663 63.277 48.6143C63.164 48.5656 63.0403 48.5469 62.918 48.56C62.8122 48.5582 62.7064 48.5622 62.601 48.572C62.5035 48.573 62.4062 48.5817 62.31 48.598V52.32H60.942L60.955 47.673V47.673ZM66.147 49.965C66.1397 49.5851 66.2038 49.2072 66.336 48.851C66.4527 48.5483 66.6296 48.2724 66.856 48.04C67.0621 47.8274 67.3128 47.6632 67.59 47.559C67.8635 47.4487 68.156 47.393 68.451 47.395C68.7505 47.3802 69.0498 47.429 69.3292 47.538C69.6086 47.6471 69.8617 47.8141 70.072 48.028C70.5001 48.5452 70.7131 49.2072 70.667 49.877C70.6685 49.9655 70.6642 50.0541 70.654 50.142C70.654 50.242 70.642 50.32 70.642 50.396H67.542C67.5542 50.5281 67.5958 50.6557 67.6638 50.7696C67.7318 50.8834 67.8245 50.9806 67.935 51.054C68.2145 51.2312 68.5412 51.3194 68.872 51.307C69.1179 51.3049 69.3633 51.2839 69.606 51.244C69.8113 51.2046 70.0122 51.1453 70.206 51.067L70.395 52.181C70.3013 52.227 70.204 52.2651 70.104 52.295C69.9675 52.3367 69.8276 52.3664 69.686 52.384C69.534 52.409 69.386 52.434 69.205 52.46C69.024 52.486 68.863 52.485 68.686 52.485C68.2971 52.4983 67.9095 52.4337 67.546 52.295C67.2451 52.1816 66.9722 52.0045 66.746 51.776C66.5346 51.5457 66.3747 51.273 66.277 50.976C66.1862 50.6462 66.1438 50.305 66.151 49.963L66.147 49.965ZM69.351 49.444C69.3485 49.3274 69.3272 49.2119 69.288 49.102C69.2624 48.9911 69.2103 48.8882 69.136 48.802C69.0621 48.7137 68.9718 48.6407 68.87 48.587C68.7474 48.5284 68.6133 48.498 68.4775 48.498C68.3416 48.498 68.2075 48.5284 68.085 48.587C67.9798 48.6348 67.885 48.7027 67.806 48.787C67.728 48.8745 67.6679 48.9764 67.629 49.087C67.5918 49.198 67.5663 49.3127 67.553 49.429L69.353 49.442L69.351 49.444ZM71.68 46.306L73.048 46.09V47.509H74.694V48.648H73.048V50.348C73.0331 50.5858 73.0858 50.8229 73.2 51.032C73.2721 51.1248 73.3674 51.197 73.4762 51.2414C73.585 51.2858 73.7035 51.3008 73.82 51.285C73.9685 51.2853 74.1167 51.2726 74.263 51.247C74.4099 51.2227 74.5542 51.1845 74.694 51.133L74.884 52.197C74.7024 52.269 74.5159 52.3282 74.326 52.374C74.0803 52.4252 73.8299 52.4507 73.579 52.45C73.2638 52.4637 72.9492 52.4119 72.655 52.298C72.4299 52.208 72.2301 52.0645 72.073 51.88C71.9226 51.6852 71.8146 51.461 71.756 51.222C71.6931 50.9436 71.6675 50.6581 71.68 50.373V46.306V46.306ZM75.39 49.965C75.3826 49.585 75.447 49.2071 75.58 48.851C75.6964 48.5484 75.873 48.2725 76.099 48.04C76.3055 47.8274 76.5565 47.6632 76.834 47.559C77.1075 47.4486 77.4 47.3929 77.695 47.395C77.9944 47.3802 78.2935 47.429 78.5727 47.5381C78.852 47.6472 79.1049 47.8141 79.315 48.028C79.7452 48.5443 79.9601 49.2065 79.915 49.877C79.9165 49.9655 79.9122 50.0541 79.902 50.142C79.902 50.242 79.889 50.32 79.889 50.396H76.789C76.8035 50.5273 76.846 50.654 76.9136 50.7675C76.9812 50.881 77.0724 50.9787 77.181 51.054C77.4608 51.2314 77.7879 51.3196 78.119 51.307C78.3649 51.3048 78.6103 51.2838 78.853 51.244C79.0566 51.2044 79.2558 51.1451 79.448 51.067L79.638 52.181C79.5441 52.2266 79.4468 52.2647 79.347 52.295C79.2104 52.3365 79.0706 52.3662 78.929 52.384C78.777 52.409 78.629 52.434 78.448 52.46C78.267 52.486 78.106 52.485 77.929 52.485C77.5401 52.4984 77.1525 52.4338 76.789 52.295C76.4902 52.1888 76.2202 52.0146 76.0005 51.786C75.7807 51.5574 75.6173 51.2807 75.523 50.978C75.4442 50.6459 75.4016 50.3063 75.396 49.965H75.39ZM78.612 49.446C78.6095 49.3294 78.5882 49.2139 78.549 49.104C78.5185 48.995 78.4669 48.893 78.397 48.804C78.3231 48.7157 78.2328 48.6427 78.131 48.589C78.0084 48.5304 77.8743 48.5 77.7385 48.5C77.6026 48.5 77.4685 48.5304 77.346 48.589C77.2411 48.6368 77.1466 48.7047 77.068 48.789C76.9897 48.8764 76.9292 48.9783 76.89 49.089C76.8528 49.2 76.8273 49.3147 76.814 49.431L78.614 49.444L78.612 49.446ZM82.367 51.358C82.5477 51.371 82.7291 51.3451 82.899 51.282C82.9498 51.2559 82.9916 51.2149 83.0187 51.1646C83.0459 51.1142 83.0571 51.0569 83.051 51C83.0473 50.9395 83.0265 50.8813 82.9912 50.8321C82.9558 50.7829 82.9072 50.7447 82.851 50.722C82.6566 50.6039 82.4483 50.5102 82.231 50.443C82.0315 50.371 81.8368 50.2865 81.648 50.19C81.4856 50.1137 81.3361 50.0125 81.205 49.89C81.0825 49.7683 80.9876 49.6217 80.927 49.46C80.8554 49.2683 80.8215 49.0646 80.827 48.86C80.8211 48.6533 80.8639 48.4481 80.952 48.261C81.04 48.0739 81.1709 47.9102 81.334 47.783C81.7366 47.5005 82.2229 47.3623 82.714 47.391C82.9983 47.3909 83.2821 47.4164 83.562 47.467C83.7815 47.5036 83.9976 47.5585 84.208 47.631L83.968 48.695C83.79 48.632 83.626 48.595 83.448 48.543C83.2441 48.5012 83.0359 48.4841 82.828 48.492C82.397 48.492 82.182 48.606 82.182 48.847C82.1822 48.8985 82.1882 48.9498 82.2 49C82.2279 49.0501 82.2669 49.0932 82.314 49.126C82.365 49.164 82.441 49.202 82.53 49.253C82.6473 49.315 82.7702 49.3659 82.897 49.405C83.1535 49.4968 83.4031 49.6068 83.644 49.734C83.819 49.8193 83.9743 49.9402 84.1 50.089C84.2112 50.2079 84.2933 50.351 84.34 50.507C84.3902 50.6795 84.4158 50.8583 84.416 51.038C84.4294 51.2514 84.3862 51.4645 84.2906 51.6558C84.1951 51.847 84.0506 52.0096 83.872 52.127C83.4129 52.3975 82.8839 52.5256 82.352 52.495C81.9898 52.5073 81.6276 52.4689 81.276 52.381C81.0798 52.329 80.8857 52.2697 80.694 52.203L80.922 51.089C81.1519 51.1802 81.3891 51.2521 81.631 51.304C81.8744 51.3353 82.1195 51.3523 82.365 51.355" fill="#326DE5"/>
<path d="M59.894 8.327C59.6244 8.34184 59.3603 8.40981 59.117 8.527L48.507 13.597C48.2325 13.7267 47.9909 13.9169 47.8004 14.1533C47.6099 14.3897 47.4754 14.6662 47.407 14.962L44.791 26.346C44.7307 26.6085 44.7241 26.8805 44.7715 27.1457C44.819 27.4108 44.9195 27.6636 45.067 27.889C45.103 27.944 45.141 27.998 45.182 28.049L52.526 37.18C52.717 37.4167 52.9586 37.6076 53.233 37.7386C53.5075 37.8696 53.8079 37.9374 54.112 37.937H65.889C66.193 37.9374 66.4933 37.8697 66.7677 37.7389C67.0422 37.6081 67.2839 37.4174 67.475 37.181L74.816 28.049C75.0057 27.8137 75.1396 27.5386 75.2077 27.2441C75.2757 26.9497 75.2762 26.6436 75.209 26.349L72.587 14.956C72.5184 14.6603 72.3839 14.3839 72.1934 14.1475C72.0029 13.9111 71.7614 13.7209 71.487 13.591L60.878 8.524C60.5714 8.37783 60.2333 8.31013 59.894 8.327V8.327Z" fill="#326CE5"/>
<path d="M59.888 7.5C59.6039 7.51492 59.3255 7.58595 59.069 7.709L47.869 13.059C47.5796 13.1964 47.3249 13.3973 47.1239 13.6468C46.9228 13.8963 46.7807 14.188 46.708 14.5L43.946 26.525C43.8818 26.802 43.8744 27.0892 43.9242 27.3692C43.9741 27.6492 44.0801 27.9161 44.236 28.154C44.274 28.212 44.315 28.268 44.358 28.322L52.11 37.962C52.3116 38.2122 52.5667 38.4139 52.8566 38.5524C53.1465 38.6908 53.4638 38.7625 53.785 38.762H66.217C66.5382 38.7623 66.8554 38.6905 67.1453 38.5521C67.4352 38.4136 67.6903 38.212 67.892 37.962L75.641 28.321C75.8421 28.072 75.9838 27.7806 76.0555 27.4687C76.1273 27.1569 76.1271 26.8328 76.055 26.521L73.288 14.5C73.2157 14.1882 73.0739 13.8968 72.8732 13.6474C72.6725 13.3981 72.4181 13.1973 72.129 13.06L60.928 7.71C60.6041 7.55494 60.2467 7.48278 59.888 7.5V7.5ZM59.894 8.325C60.2336 8.30855 60.5718 8.37731 60.878 8.525L71.489 13.591C71.7632 13.7214 72.0046 13.9119 72.195 14.1484C72.3854 14.3849 72.5201 14.6613 72.589 14.957L75.21 26.344C75.2773 26.6386 75.277 26.9446 75.2092 27.239C75.1413 27.5334 75.0075 27.8087 74.818 28.044L67.477 37.176C67.286 37.4126 67.0444 37.6033 66.7699 37.7342C66.4954 37.865 66.1951 37.9326 65.891 37.932H54.114C53.8099 37.9322 53.5096 37.8643 53.2352 37.7333C52.9607 37.6023 52.7191 37.4116 52.528 37.175L45.182 28.05C45.141 27.9984 45.1023 27.945 45.066 27.89C44.9186 27.6646 44.8183 27.4117 44.7711 27.1466C44.7238 26.8814 44.7306 26.6095 44.791 26.347L47.409 14.959C47.4777 14.6633 47.6123 14.387 47.8028 14.1506C47.9933 13.9142 48.2347 13.724 48.509 13.594L59.119 8.525C59.3617 8.40842 59.6251 8.34145 59.894 8.328V8.325Z" fill="white"/>
<path d="M60 12.2C59.8225 12.2098 59.6561 12.2895 59.5372 12.4216C59.4182 12.5536 59.3563 12.7274 59.365 12.905V13.086C59.3831 13.2874 59.4121 13.4877 59.452 13.686C59.5126 14.0668 59.5363 14.4526 59.523 14.838C59.4863 14.9646 59.4145 15.0783 59.316 15.166L59.301 15.435C57.2786 15.6002 55.3896 16.5103 54 17.989C53.9229 17.9357 53.8466 17.8814 53.771 17.826C53.645 17.8633 53.5094 17.85 53.393 17.789C53.0832 17.5598 52.7965 17.3009 52.537 17.016C52.4065 16.86 52.2669 16.7117 52.119 16.572C52.08 16.539 52.019 16.494 51.978 16.459C51.8523 16.3576 51.6974 16.2994 51.536 16.293C51.4401 16.2877 51.3442 16.3051 51.2563 16.3439C51.1684 16.3826 51.0908 16.4416 51.03 16.516C50.9268 16.6611 50.8853 16.8411 50.9145 17.0167C50.9437 17.1923 51.0414 17.3492 51.186 17.453L51.195 17.46C51.237 17.493 51.288 17.537 51.327 17.565C51.4962 17.6778 51.6719 17.7806 51.853 17.873C52.1889 18.0631 52.5054 18.2855 52.798 18.537C52.8735 18.6449 52.9174 18.7716 52.925 18.903L53.125 19.085C52.0004 20.7692 51.5375 22.8094 51.825 24.814L51.559 24.892C51.4895 25.0027 51.3962 25.0966 51.286 25.167C50.9137 25.2665 50.5326 25.3291 50.148 25.354C49.9439 25.3589 49.7403 25.3752 49.538 25.403C49.49 25.412 49.422 25.43 49.369 25.442H49.354C49.2663 25.4538 49.182 25.4837 49.1064 25.5298C49.0309 25.576 48.9658 25.6374 48.9153 25.7102C48.8648 25.7829 48.8301 25.8653 48.8133 25.9522C48.7964 26.0392 48.7979 26.1286 48.8176 26.2149C48.8372 26.3013 48.8747 26.3825 48.9275 26.4535C48.9804 26.5246 49.0474 26.5838 49.1245 26.6275C49.2015 26.6711 49.2867 26.6983 49.3748 26.7071C49.4629 26.716 49.5519 26.7064 49.636 26.679H49.658C49.71 26.667 49.776 26.654 49.822 26.642C50.016 26.58 50.2063 26.5073 50.392 26.424C50.7531 26.2795 51.1276 26.1709 51.51 26.1C51.6414 26.1078 51.7679 26.1525 51.875 26.229L52.152 26.181C52.7732 28.1014 54.0758 29.7281 55.814 30.754L55.699 31.031C55.7531 31.1424 55.7729 31.2673 55.756 31.39C55.5973 31.7517 55.4048 32.0975 55.181 32.423C55.0575 32.5855 54.9437 32.7551 54.84 32.931C54.815 32.978 54.783 33.051 54.759 33.102C54.7138 33.1782 54.685 33.263 54.6744 33.351C54.6638 33.4389 54.6717 33.5282 54.6975 33.6129C54.7234 33.6977 54.7666 33.7761 54.8245 33.8432C54.8824 33.9103 54.9536 33.9646 55.0337 34.0026C55.1137 34.0406 55.2008 34.0614 55.2894 34.0639C55.3779 34.0663 55.4661 34.0502 55.5481 34.0167C55.6301 33.9831 55.7042 33.9328 55.7656 33.869C55.8271 33.8052 55.8746 33.7292 55.905 33.646C55.929 33.597 55.963 33.531 55.983 33.485C56.0551 33.2946 56.1166 33.1003 56.167 32.903C56.2764 32.5015 56.4417 32.1174 56.658 31.762C56.7338 31.6908 56.8293 31.6442 56.932 31.628L57.076 31.368C58.9612 32.0925 61.0471 32.0978 62.936 31.383C62.977 31.454 63.052 31.592 63.072 31.627C63.2022 31.6483 63.3186 31.7202 63.396 31.827C63.576 32.1679 63.722 32.5256 63.832 32.895C63.8824 33.0924 63.9442 33.2867 64.017 33.477C64.037 33.524 64.071 33.59 64.095 33.64C64.1251 33.7238 64.1723 33.8004 64.2337 33.8648C64.2952 33.9292 64.3694 33.9801 64.4516 34.0142C64.5339 34.0482 64.6224 34.0646 64.7114 34.0624C64.8004 34.0602 64.8879 34.0394 64.9684 34.0014C65.0488 33.9633 65.1205 33.9088 65.1786 33.8414C65.2368 33.774 65.2802 33.6952 65.3061 33.61C65.3319 33.5248 65.3397 33.4352 65.3288 33.3468C65.318 33.2585 65.2887 33.1734 65.243 33.097C65.219 33.047 65.186 32.973 65.16 32.926C65.0564 32.751 64.9429 32.5821 64.82 32.42C64.5998 32.1032 64.4112 31.7656 64.257 31.412C64.2401 31.3493 64.2357 31.284 64.2441 31.2196C64.2525 31.1553 64.2736 31.0932 64.306 31.037C64.2653 30.954 64.2299 30.8685 64.2 30.781C65.9435 29.7461 67.2462 28.107 67.861 26.175C67.943 26.188 68.086 26.213 68.132 26.223C68.2287 26.1339 68.3566 26.0865 68.488 26.091C68.8668 26.1633 69.2376 26.2725 69.595 26.417C69.7808 26.5006 69.9711 26.5737 70.165 26.636C70.211 26.649 70.277 26.66 70.329 26.672H70.351C70.4352 26.6994 70.5242 26.709 70.6123 26.7001C70.7003 26.6913 70.7856 26.6641 70.8626 26.6205C70.9396 26.5768 71.0067 26.5176 71.0595 26.4465C71.1124 26.3755 71.1498 26.2943 71.1695 26.2079C71.1892 26.1216 71.1906 26.0322 71.1738 25.9452C71.157 25.8583 71.1222 25.7759 71.0717 25.7032C71.0213 25.6304 70.9562 25.569 70.8806 25.5228C70.8051 25.4767 70.7208 25.4468 70.633 25.435C70.579 25.422 70.501 25.401 70.448 25.391C70.2461 25.3632 70.0428 25.3469 69.839 25.342C69.4545 25.3172 69.0733 25.2546 68.701 25.155C68.5859 25.0906 68.491 24.9954 68.427 24.88L68.17 24.805C68.4443 22.8022 67.9735 20.7685 66.847 19.09L67.072 18.89C67.0634 18.7592 67.1065 18.6303 67.192 18.531C67.4843 18.2795 67.8005 18.0571 68.136 17.867C68.318 17.7749 68.4943 17.672 68.664 17.559C68.705 17.529 68.764 17.481 68.804 17.447C68.88 17.3991 68.945 17.3357 68.9949 17.261C69.0447 17.1863 69.0782 17.1019 69.0933 17.0133C69.1083 16.9248 69.1045 16.8341 69.0821 16.7471C69.0597 16.6601 69.0192 16.5788 68.9633 16.5086C68.9073 16.4383 68.8372 16.3806 68.7575 16.3392C68.6778 16.2979 68.5902 16.2738 68.5006 16.2685C68.4109 16.2633 68.3211 16.277 68.2371 16.3088C68.1531 16.3406 68.0768 16.3897 68.013 16.453L67.872 16.566C67.7235 16.7057 67.5833 16.854 67.452 17.01C67.1926 17.2952 66.9059 17.5545 66.596 17.784C66.4742 17.8339 66.3408 17.8485 66.211 17.826L65.969 17.999C64.58 16.5377 62.7077 15.6305 60.7 15.446C60.7 15.361 60.687 15.208 60.686 15.162C60.5778 15.0877 60.5031 14.9739 60.478 14.845C60.4641 14.4596 60.4882 14.0737 60.55 13.693C60.5899 13.4947 60.619 13.2944 60.637 13.093V12.912C60.6423 12.8233 60.63 12.7345 60.6007 12.6507C60.5715 12.5668 60.526 12.4895 60.4668 12.4234C60.4076 12.3572 60.3358 12.3034 60.2557 12.265C60.1756 12.2267 60.0887 12.2046 60 12.2V12.2ZM59.2 17.125L59.011 20.457L59 20.467C58.9959 20.5683 58.9643 20.6665 58.9086 20.7512C58.8529 20.8359 58.7753 20.9038 58.684 20.9478C58.5927 20.9918 58.4911 21.0101 58.3902 21.0008C58.2893 20.9915 58.1928 20.9549 58.111 20.895H58.106L55.374 18.959C56.2437 18.104 57.3351 17.5093 58.525 17.242C58.753 17.194 58.979 17.156 59.2 17.128V17.125ZM60.792 17.125C62.2286 17.3035 63.5666 17.9493 64.6 18.963L61.886 20.887H61.876C61.7943 20.9468 61.6978 20.9833 61.5969 20.9926C61.4961 21.0019 61.3946 20.9837 61.3032 20.9399C61.2119 20.896 61.1342 20.8283 61.0783 20.7438C61.0224 20.6593 60.9906 20.5612 60.986 20.46L60.792 17.125ZM54.382 20.203L56.876 22.434V22.447C56.9849 22.5416 57.0531 22.6747 57.0661 22.8184C57.0791 22.9621 57.0361 23.1053 56.946 23.218C56.8726 23.3114 56.7708 23.3785 56.656 23.409V23.42L53.456 24.343C53.297 22.8981 53.6239 21.4414 54.385 20.203H54.382ZM65.591 20.203C66.3514 21.4379 66.6875 22.8875 66.548 24.331L63.335 23.406V23.392C63.2374 23.3652 63.1488 23.3125 63.0788 23.2393C63.0088 23.1662 62.9599 23.0755 62.9373 22.9768C62.9147 22.8781 62.9193 22.7751 62.9506 22.6788C62.9819 22.5826 63.0387 22.4966 63.115 22.43V22.423L65.595 20.203H65.591ZM59.484 22.603H60.505L61.141 23.397L60.913 24.388L60 24.835L59.08 24.392L58.852 23.402L59.484 22.603ZM62.759 25.32C62.8022 25.3179 62.8455 25.321 62.888 25.329L62.894 25.322L66.201 25.882C65.7127 27.254 64.7809 28.424 63.553 29.207L62.27 26.107V26.101C62.2131 25.9684 62.2096 25.8189 62.26 25.6837C62.3105 25.5485 62.4111 25.4379 62.541 25.375C62.6079 25.3424 62.6807 25.3237 62.755 25.32H62.759ZM57.205 25.333C57.297 25.3345 57.3872 25.3586 57.4677 25.4031C57.5482 25.4477 57.6165 25.5113 57.6665 25.5885C57.7166 25.6656 57.747 25.7539 57.7549 25.8455C57.7628 25.9372 57.7481 26.0294 57.712 26.114L57.721 26.126L56.455 29.2C55.2361 28.4204 54.3085 27.2605 53.816 25.9L57.094 25.344V25.351C57.1303 25.3442 57.1671 25.3409 57.204 25.341L57.205 25.333ZM59.975 26.678C60.0656 26.675 60.1556 26.6943 60.237 26.734C60.3443 26.7845 60.4324 26.8683 60.488 26.973H60.5L62.12 29.9C61.91 29.97 61.6947 30.03 61.474 30.08C60.2858 30.3527 59.0451 30.289 57.891 29.896L59.5 26.98C59.5468 26.8929 59.6157 26.8197 59.6998 26.7677C59.7839 26.7157 59.8802 26.6868 59.979 26.684L59.975 26.678Z" fill="white"/>
<path d="M44.18 64L46.67 56.7H48.99L51.55 64H50.09L47.92 57.67L48.43 57.89H47.18L47.7 57.67L45.6 64H44.18ZM45.92 62.06L46.37 60.86H49.33L49.77 62.06H45.92ZM53.8544 61.76V60.53H55.2744C55.561 60.53 55.801 60.4733 55.9944 60.36C56.1944 60.2467 56.3444 60.09 56.4444 59.89C56.551 59.69 56.6044 59.46 56.6044 59.2C56.6044 58.94 56.551 58.71 56.4444 58.51C56.3444 58.31 56.1944 58.1567 55.9944 58.05C55.801 57.9367 55.561 57.88 55.2744 57.88H53.8544V56.65H55.1544C55.7677 56.65 56.2877 56.75 56.7144 56.95C57.1477 57.15 57.4777 57.4367 57.7044 57.81C57.931 58.1767 58.0444 58.6133 58.0444 59.12V59.28C58.0444 59.7867 57.931 60.2267 57.7044 60.6C57.4777 60.9667 57.1477 61.2533 56.7144 61.46C56.2877 61.66 55.7677 61.76 55.1544 61.76H53.8544ZM52.6344 64V56.65H54.0544V64H52.6344ZM60.4364 61.76V60.53H61.8564C62.1431 60.53 62.3831 60.4733 62.5764 60.36C62.7764 60.2467 62.9264 60.09 63.0264 59.89C63.1331 59.69 63.1864 59.46 63.1864 59.2C63.1864 58.94 63.1331 58.71 63.0264 58.51C62.9264 58.31 62.7764 58.1567 62.5764 58.05C62.3831 57.9367 62.1431 57.88 61.8564 57.88H60.4364V56.65H61.7364C62.3497 56.65 62.8697 56.75 63.2964 56.95C63.7297 57.15 64.0597 57.4367 64.2864 57.81C64.5131 58.1767 64.6264 58.6133 64.6264 59.12V59.28C64.6264 59.7867 64.5131 60.2267 64.2864 60.6C64.0597 60.9667 63.7297 61.2533 63.2964 61.46C62.8697 61.66 62.3497 61.76 61.7364 61.76H60.4364ZM59.2164 64V56.65H60.6364V64H59.2164ZM65.7984 64V56.7H67.2184V64H65.7984ZM67.0184 64V62.75H70.1684V64H67.0184ZM71.798 61.21L69.598 56.7H71.058L72.738 60.23L72.418 60.13H73.368L73.028 60.23L74.558 56.7H75.938L73.908 61.21H71.798ZM72.158 64V60.99H73.548V64H72.158Z" fill="#326DE5"/>
</svg>
