<svg width="24" height="24" viewBox="0 0 24 24" fill="none" xmlns="http://www.w3.org/2000/svg">
<mask id="path-1-inside-1_2949_16323" fill="white">
<path d="M14.0042 13.5269C13.9749 13.5211 13.945 13.5188 13.9151 13.5201C13.8634 13.5228 13.8129 13.536 13.7664 13.5587C13.6763 13.6022 13.6064 13.6788 13.5714 13.7726C13.5364 13.8663 13.5389 13.97 13.5784 14.0619L13.5757 14.0658L14.4652 16.2147C15.3162 15.6717 15.9619 14.8605 16.3004 13.9095L14.0082 13.5221L14.0042 13.5269ZM10.4377 13.8314C10.4184 13.7467 10.3713 13.6709 10.3038 13.6162C10.2363 13.5615 10.1524 13.531 10.0656 13.5296C10.0399 13.5293 10.0143 13.5315 9.98912 13.5364L9.98526 13.5317L7.71303 13.9174C8.05425 14.861 8.69732 15.6656 9.5425 16.2064L10.423 14.0786L10.4161 14.0703C10.4486 13.995 10.4562 13.9113 10.4377 13.8314ZM12.3407 14.6659C12.3075 14.604 12.2582 14.5523 12.1979 14.5163C12.1376 14.4803 12.0687 14.4613 11.9985 14.4614C11.9283 14.4615 11.8594 14.4806 11.7993 14.5168C11.7391 14.5529 11.6898 14.6047 11.6568 14.6667H11.6549L10.5375 16.6872C11.3376 16.9596 12.1977 17.0039 13.0215 16.815C13.1743 16.7802 13.3235 16.7385 13.4692 16.6898L12.3492 14.6657L12.3407 14.6659ZM15.878 9.97224L14.1588 11.511L14.1598 11.5159C14.1069 11.5621 14.0676 11.6217 14.0459 11.6884C14.0243 11.7552 14.0211 11.8265 14.0367 11.8949C14.0523 11.9633 14.0862 12.0262 14.1346 12.0769C14.1831 12.1276 14.2444 12.1643 14.312 12.1829L14.3141 12.1922L16.541 12.8337C16.6372 11.8332 16.4045 10.8286 15.878 9.97245V9.97224ZM12.684 10.1447C12.6872 10.2147 12.7094 10.2826 12.7481 10.3411C12.7868 10.3997 12.8406 10.4466 12.9039 10.477C12.9671 10.5073 13.0374 10.52 13.1073 10.5137C13.1772 10.5073 13.244 10.4822 13.3007 10.4409L13.3075 10.4437L15.1887 9.10987C14.4726 8.40849 13.5459 7.96177 12.5512 7.83842L12.6819 10.144L12.684 10.1447ZM10.6918 10.4493C10.7486 10.4906 10.8154 10.5157 10.8853 10.5219C10.9552 10.5282 11.0254 10.5154 11.0886 10.4849C11.1518 10.4544 11.2055 10.4073 11.2441 10.3487C11.2827 10.2901 11.3046 10.2222 11.3076 10.1521L11.3172 10.1476L11.4479 7.83832C11.2901 7.85728 11.1334 7.88429 10.9784 7.91926C10.1538 8.10461 9.39742 8.51678 8.79465 9.10924L10.6882 10.4515L10.6918 10.4493ZM9.68236 12.1942C9.75014 12.1757 9.81163 12.1392 9.86026 12.0885C9.90889 12.0378 9.94285 11.9748 9.9585 11.9063C9.97416 11.8378 9.97092 11.7664 9.94915 11.6996C9.92737 11.6328 9.88787 11.5732 9.83486 11.5271L9.83673 11.5179L8.10802 9.97172C7.58064 10.8301 7.35428 11.8397 7.46469 12.8411L9.68059 12.2017L9.68236 12.1942ZM11.3614 12.8734L11.9991 13.1801L12.635 12.874L12.7929 12.1876L12.3528 11.6373H11.6446L11.2033 12.1868L11.3614 12.8734Z"/>
</mask>
<path d="M14.0042 13.5269L13.6156 15.4887L14.7863 15.7207L15.5463 14.8004L14.0042 13.5269ZM13.9151 13.5201L13.8274 11.522L13.8183 11.5224L13.8093 11.5229L13.9151 13.5201ZM13.7664 13.5587L14.636 15.3598L14.6456 15.3551L13.7664 13.5587ZM13.5784 14.0619L15.2148 15.2118L15.8567 14.2983L15.4159 13.2724L13.5784 14.0619ZM13.5757 14.0658L11.9393 12.9159L11.3074 13.8152L11.7277 14.8307L13.5757 14.0658ZM14.4652 16.2147L12.6172 16.9796L13.5297 19.1842L15.541 17.9007L14.4652 16.2147ZM16.3004 13.9095L18.1846 14.58L18.9836 12.3346L16.6336 11.9374L16.3004 13.9095ZM14.0082 13.5221L14.3415 11.55L13.202 11.3575L12.4661 12.2485L14.0082 13.5221ZM10.4377 13.8314L8.48758 14.2753L8.48917 14.2822L10.4377 13.8314ZM10.0656 13.5296L10.0974 11.5298L10.0903 11.5297L10.0656 13.5296ZM9.98912 13.5364L8.44434 14.8067L9.19877 15.7241L10.3654 15.5007L9.98912 13.5364ZM9.98526 13.5317L11.53 12.2614L10.7936 11.3658L9.65055 11.5599L9.98526 13.5317ZM7.71303 13.9174L7.37832 11.9456L5.01813 12.3462L5.83222 14.5975L7.71303 13.9174ZM9.5425 16.2064L8.46453 17.891L10.477 19.1788L11.3905 16.9712L9.5425 16.2064ZM10.423 14.0786L12.271 14.8434L12.7306 13.7329L11.9658 12.8059L10.423 14.0786ZM10.4161 14.0703L8.57999 13.2775L8.09531 14.3999L8.87339 15.3431L10.4161 14.0703ZM12.3407 14.6659L10.5783 15.6113L11.152 16.6808L12.3656 16.6657L12.3407 14.6659ZM11.6568 14.6667V16.6667H12.8568L13.4215 15.6078L11.6568 14.6667ZM11.6549 14.6667V12.6667H10.4755L9.90473 13.6988L11.6549 14.6667ZM10.5375 16.6872L8.78734 15.7194L7.63096 17.8104L9.89296 18.5805L10.5375 16.6872ZM13.0215 16.815L12.5777 14.8649L12.5746 14.8656L13.0215 16.815ZM13.4692 16.6898L14.103 18.5868L16.383 17.8249L15.2191 15.7215L13.4692 16.6898ZM12.3492 14.6657L14.0991 13.6974L13.5201 12.651L12.3243 12.6659L12.3492 14.6657ZM15.878 9.97224H17.878V5.49805L14.5442 8.48199L15.878 9.97224ZM14.1588 11.511L12.825 10.0208L11.9816 10.7756L12.1945 11.8873L14.1588 11.511ZM14.1598 11.5159L15.4761 13.0217L16.3399 12.2665L16.124 11.1396L14.1598 11.5159ZM14.0367 11.8949L12.0869 12.3401L14.0367 11.8949ZM14.312 12.1829L16.2634 11.7446L16.0006 10.5744L14.8445 10.2551L14.312 12.1829ZM14.3141 12.1922L12.3627 12.6305L12.6223 13.7862L13.7605 14.1141L14.3141 12.1922ZM16.541 12.8337L15.9874 14.7555L18.3012 15.422L18.5318 13.0252L16.541 12.8337ZM15.878 9.97245H13.878V10.5381L14.1743 11.02L15.878 9.97245ZM12.684 10.1447L14.6819 10.0524L14.6165 8.63671L13.2591 8.22914L12.684 10.1447ZM13.3007 10.4409L14.0679 8.59387L13.0314 8.16331L12.1238 8.8238L13.3007 10.4409ZM13.3075 10.4437L12.5403 12.2907L13.5619 12.715L14.4643 12.0752L13.3075 10.4437ZM15.1887 9.10987L16.3455 10.7414L18.2987 9.35649L16.5882 7.68106L15.1887 9.10987ZM12.5512 7.83842L12.7973 5.85362L10.4188 5.55867L10.5544 7.95161L12.5512 7.83842ZM12.6819 10.144L10.6851 10.2572L10.7644 11.6565L12.1067 12.0595L12.6819 10.144ZM10.6918 10.4493L11.8678 8.83161L10.7973 8.05342L9.66259 8.73447L10.6918 10.4493ZM11.3076 10.1521L10.4608 8.34018L9.36129 8.85406L9.30943 10.0666L11.3076 10.1521ZM11.3172 10.1476L12.164 11.9595L13.2465 11.4535L13.314 10.2606L11.3172 10.1476ZM11.4479 7.83832L13.4447 7.95133L13.5796 5.56777L11.2093 5.8526L11.4479 7.83832ZM10.9784 7.91926L11.417 9.87057L11.4185 9.87024L10.9784 7.91926ZM8.79465 9.10924L7.39269 7.68288L5.68792 9.35848L7.63802 10.7409L8.79465 9.10924ZM10.6882 10.4515L9.53153 12.0831L10.5973 12.8386L11.7174 12.1664L10.6882 10.4515ZM9.68236 12.1942L9.15603 10.2647L8.00905 10.5776L7.73588 11.7346L9.68236 12.1942ZM9.9585 11.9063L8.00879 11.4607L9.9585 11.9063ZM9.83486 11.5271L7.87542 11.1263L7.64147 12.2702L8.5225 13.0363L9.83486 11.5271ZM9.83673 11.5179L11.7962 11.9187L12.0264 10.7931L11.1701 10.0272L9.83673 11.5179ZM8.10802 9.97172L9.44135 8.481L7.65709 6.88514L6.40396 8.92474L8.10802 9.97172ZM7.46469 12.8411L5.47673 13.0603L5.73704 15.4212L8.01914 14.7627L7.46469 12.8411ZM9.68059 12.2017L10.235 14.1233L11.3584 13.7992L11.6271 12.6613L9.68059 12.2017ZM11.3614 12.8734L9.41244 13.3222L9.62821 14.2592L10.4947 14.6759L11.3614 12.8734ZM11.9991 13.1801L11.1324 14.9825L11.9995 15.3995L12.8665 14.9822L11.9991 13.1801ZM12.635 12.874L13.5023 14.6762L14.3685 14.2593L14.584 13.3224L12.635 12.874ZM12.7929 12.1876L14.742 12.636L14.9587 11.6937L14.3549 10.9386L12.7929 12.1876ZM12.3528 11.6373L13.9148 10.3883L13.3143 9.63733H12.3528V11.6373ZM11.6446 11.6373V9.63733H10.6857L10.0853 10.3849L11.6446 11.6373ZM11.2033 12.1868L9.64397 10.9344L9.03667 11.6905L9.25432 12.6356L11.2033 12.1868ZM14.3929 11.565C14.2068 11.5281 14.017 11.5137 13.8274 11.522L14.0027 15.5182C13.8729 15.5239 13.743 15.514 13.6156 15.4887L14.3929 11.565ZM13.8093 11.5229C13.4889 11.5399 13.1753 11.6213 12.8872 11.7623L14.6456 15.3551C14.4504 15.4506 14.2379 15.5058 14.0209 15.5173L13.8093 11.5229ZM12.8969 11.7576C12.3428 12.0251 11.9133 12.4961 11.6979 13.0725L15.4449 14.4726C15.2996 14.8615 15.0098 15.1793 14.636 15.3598L12.8969 11.7576ZM11.6979 13.0725C11.4826 13.6488 11.4979 14.2861 11.7408 14.8515L15.4159 13.2724C15.5798 13.6539 15.5902 14.0838 15.4449 14.4726L11.6979 13.0725ZM11.942 12.9121L11.9393 12.9159L15.2121 15.2157L15.2148 15.2118L11.942 12.9121ZM11.7277 14.8307L12.6172 16.9796L16.3131 15.4498L15.4236 13.3009L11.7277 14.8307ZM15.541 17.9007C16.7669 17.1185 17.6971 15.95 18.1846 14.58L14.4161 13.2389C14.2267 13.7711 13.8654 14.2249 13.3893 14.5288L15.541 17.9007ZM16.6336 11.9374L14.3415 11.55L13.6749 15.4941L15.9671 15.8815L16.6336 11.9374ZM12.4661 12.2485L12.4622 12.2533L15.5463 14.8004L15.5503 14.7956L12.4661 12.2485ZM12.3879 13.3876C12.2692 12.8662 11.979 12.3997 11.5637 12.0629L9.04394 15.1695C8.7636 14.9421 8.56769 14.6272 8.48759 14.2753L12.3879 13.3876ZM11.5637 12.0629C11.1484 11.7261 10.6321 11.5384 10.0974 11.5298L10.0337 15.5293C9.67281 15.5236 9.32427 15.3969 9.04394 15.1695L11.5637 12.0629ZM10.0903 11.5297C9.93012 11.5278 9.77017 11.5419 9.61286 11.5721L10.3654 15.5007C10.2585 15.5211 10.1497 15.5308 10.0408 15.5294L10.0903 11.5297ZM11.5339 12.2661L11.53 12.2614L8.44048 14.802L8.44434 14.8067L11.5339 12.2661ZM9.65055 11.5599L7.37832 11.9456L8.04774 15.8892L10.32 15.5035L9.65055 11.5599ZM5.83222 14.5975C6.32318 15.9552 7.24846 17.1129 8.46453 17.891L10.6205 14.5218C10.1462 14.2183 9.78531 13.7668 9.59384 13.2373L5.83222 14.5975ZM11.3905 16.9712L12.271 14.8434L8.575 13.3139L7.69448 15.4417L11.3905 16.9712ZM11.9658 12.8059L11.9589 12.7975L8.87339 15.3431L8.88027 15.3514L11.9658 12.8059ZM12.2523 14.8631C12.454 14.3959 12.501 13.8765 12.3863 13.3807L8.48917 14.2822C8.41145 13.9461 8.44327 13.5941 8.57999 13.2775L12.2523 14.8631ZM14.1032 13.7204C13.8988 13.3395 13.5949 13.0212 13.2238 12.7994L11.172 16.2331C10.9215 16.0834 10.7163 15.8685 10.5783 15.6113L14.1032 13.7204ZM13.2238 12.7994C12.8527 12.5777 12.4284 12.4608 11.9961 12.4614L12.001 16.4614C11.7091 16.4617 11.4226 16.3828 11.172 16.2331L13.2238 12.7994ZM11.9961 12.4614C11.5638 12.4619 11.1397 12.5798 10.7692 12.8024L12.8293 16.2311C12.5791 16.3814 12.2928 16.461 12.001 16.4614L11.9961 12.4614ZM10.7692 12.8024C10.3987 13.0251 10.0955 13.3441 9.89208 13.7256L13.4215 15.6078C13.2842 15.8654 13.0795 16.0808 12.8293 16.2311L10.7692 12.8024ZM11.6568 12.6667H11.6549V16.6667H11.6568V12.6667ZM9.90473 13.6988L8.78734 15.7194L12.2877 17.6551L13.4051 15.6346L9.90473 13.6988ZM9.89296 18.5805C11.0446 18.9726 12.2826 19.0363 13.4684 18.7644L12.5746 14.8656C12.1128 14.9715 11.6306 14.9467 11.1821 14.794L9.89296 18.5805ZM13.4653 18.7651C13.681 18.7161 13.8937 18.6567 14.103 18.5868L12.8354 14.7929C12.7533 14.8203 12.6676 14.8444 12.5777 14.8649L13.4653 18.7651ZM15.2191 15.7215L14.0991 13.6974L10.5992 15.6341L11.7192 17.6582L15.2191 15.7215ZM12.3243 12.6659L12.3159 12.666L12.3656 16.6657L12.374 16.6656L12.3243 12.6659ZM14.5442 8.48199L12.825 10.0208L15.4927 13.0013L17.2119 11.4625L14.5442 8.48199ZM12.1945 11.8873L12.1955 11.8922L16.124 11.1396L16.1231 11.1347L12.1945 11.8873ZM12.8434 10.0102C12.5187 10.2941 12.2769 10.6605 12.1437 11.0707L15.9482 12.3061C15.8583 12.5829 15.6952 12.8301 15.4761 13.0217L12.8434 10.0102ZM12.1437 11.0707C12.0105 11.4809 11.9909 11.9196 12.0869 12.3401L15.9865 11.4498C16.0513 11.7334 16.038 12.0294 15.9482 12.3061L12.1437 11.0707ZM12.0869 12.3401C12.1829 12.7605 12.3909 13.1472 12.6889 13.4589L15.5803 10.6949C15.7814 10.9052 15.9218 11.1661 15.9865 11.4498L12.0869 12.3401ZM12.6889 13.4589C12.987 13.7707 13.3639 13.9959 13.7796 14.1108L14.8445 10.2551C15.125 10.3326 15.3792 10.4845 15.5803 10.6949L12.6889 13.4589ZM12.3607 12.6212L12.3627 12.6305L16.2655 11.7539L16.2634 11.7446L12.3607 12.6212ZM13.7605 14.1141L15.9874 14.7555L17.0946 10.9118L14.8677 10.2704L13.7605 14.1141ZM18.5318 13.0252C18.6697 11.5915 18.3362 10.1519 17.5817 8.9249L14.1743 11.02C14.4728 11.5054 14.6047 12.0749 14.5502 12.6421L18.5318 13.0252ZM17.878 9.97245V9.97224H13.878V9.97245H17.878ZM10.6861 10.2369C10.706 10.6677 10.8422 11.0852 11.0802 11.4449L14.416 9.23744C14.5765 9.4801 14.6684 9.76173 14.6819 10.0524L10.6861 10.2369ZM11.0802 11.4449C11.3182 11.8045 11.6492 12.0931 12.038 12.2798L13.7698 8.67412C14.0321 8.8001 14.2554 8.99476 14.416 9.23744L11.0802 11.4449ZM12.038 12.2798C12.4268 12.4665 12.8589 12.5445 13.2884 12.5054L12.9262 8.52188C13.216 8.49553 13.5075 8.54814 13.7698 8.67412L12.038 12.2798ZM13.2884 12.5054C13.7179 12.4664 14.1289 12.3117 14.4776 12.0579L12.1238 8.8238C12.3591 8.65257 12.6364 8.54824 12.9262 8.52188L13.2884 12.5054ZM12.5335 12.2879L12.5403 12.2907L14.0747 8.59669L14.0679 8.59387L12.5335 12.2879ZM14.4643 12.0752L16.3455 10.7414L14.0319 7.47835L12.1507 8.81217L14.4643 12.0752ZM16.5882 7.68106C15.5589 6.67297 14.227 6.03091 12.7973 5.85362L12.3051 9.82322C12.8648 9.89263 13.3863 10.144 13.7892 10.5387L16.5882 7.68106ZM10.5544 7.95161L10.6851 10.2572L14.6787 10.0308L14.548 7.72524L10.5544 7.95161ZM12.1067 12.0595L12.1088 12.0602L13.2591 8.22914L13.2571 8.22852L12.1067 12.0595ZM9.51578 12.067C9.86504 12.3209 10.2766 12.4754 10.7067 12.5139L11.0639 8.52993C11.3542 8.55596 11.6321 8.66022 11.8678 8.83161L9.51578 12.067ZM10.7067 12.5139C11.1367 12.5525 11.5692 12.4737 11.9581 12.286L10.2192 8.68378C10.4817 8.55706 10.7736 8.5039 11.0639 8.52993L10.7067 12.5139ZM11.9581 12.286C12.3469 12.0983 12.6776 11.8087 12.9149 11.448L9.57326 9.24951C9.73346 9.006 9.95669 8.81049 10.2192 8.68378L11.9581 12.286ZM12.9149 11.448C13.1523 11.0872 13.2873 10.6689 13.3058 10.2375L9.30943 10.0666C9.32188 9.77541 9.41306 9.49302 9.57326 9.24951L12.9149 11.448ZM12.1544 11.9639L12.164 11.9595L10.4704 8.3357L10.4608 8.34018L12.1544 11.9639ZM13.314 10.2606L13.4447 7.95133L9.45109 7.72531L9.3204 10.0346L13.314 10.2606ZM11.2093 5.8526C10.9838 5.8797 10.7599 5.91831 10.5383 5.96828L11.4185 9.87024C11.507 9.85028 11.5965 9.83485 11.6865 9.82403L11.2093 5.8526ZM10.5398 5.96794C9.35143 6.23506 8.26137 6.82906 7.39269 7.68288L10.1966 10.5356C10.5335 10.2045 10.9562 9.97416 11.417 9.87057L10.5398 5.96794ZM7.63802 10.7409L9.53153 12.0831L11.8448 8.81988L9.95128 7.47761L7.63802 10.7409ZM11.7174 12.1664L11.721 12.1642L9.66259 8.73447L9.65894 8.73666L11.7174 12.1664ZM10.2087 14.1237C10.6258 14.0099 11.0043 13.785 11.3036 13.473L8.41695 10.704C8.619 10.4933 8.87444 10.3415 9.15603 10.2647L10.2087 14.1237ZM11.3036 13.473C11.6029 13.1609 11.8119 12.7735 11.9082 12.352L8.00879 11.4607C8.07383 11.1761 8.2149 10.9146 8.41695 10.704L11.3036 13.473ZM11.9082 12.352C12.0046 11.9305 11.9847 11.4907 11.8506 11.0796L8.04766 12.3195C7.95719 12.0421 7.94375 11.7452 8.00879 11.4607L11.9082 12.352ZM11.8506 11.0796C11.7166 10.6686 11.4735 10.3016 11.1472 10.0179L8.5225 13.0363C8.30224 12.8448 8.13813 12.597 8.04766 12.3195L11.8506 11.0796ZM11.7943 11.9278L11.7962 11.9187L7.87729 11.1171L7.87542 11.1263L11.7943 11.9278ZM11.1701 10.0272L9.44135 8.481L6.7747 11.4624L8.50341 13.0086L11.1701 10.0272ZM6.40396 8.92474C5.64386 10.1619 5.3176 11.617 5.47673 13.0603L9.45264 12.6219C9.39095 12.0624 9.51743 11.4983 9.81209 11.0187L6.40396 8.92474ZM8.01914 14.7627L10.235 14.1233L9.12613 10.2801L6.91023 10.9195L8.01914 14.7627ZM11.6271 12.6613L11.6289 12.6537L7.73588 11.7346L7.7341 11.7422L11.6271 12.6613ZM10.4947 14.6759L11.1324 14.9825L12.8659 11.3776L12.2282 11.071L10.4947 14.6759ZM12.8665 14.9822L13.5023 14.6762L11.7676 11.0719L11.1318 11.3779L12.8665 14.9822ZM14.584 13.3224L14.742 12.636L10.8438 11.7392L10.6859 12.4256L14.584 13.3224ZM14.3549 10.9386L13.9148 10.3883L10.7908 12.8864L11.2309 13.4367L14.3549 10.9386ZM12.3528 9.63733H11.6446V13.6373H12.3528V9.63733ZM10.0853 10.3849L9.64397 10.9344L12.7626 13.4392L13.2039 12.8897L10.0853 10.3849ZM9.25432 12.6356L9.41244 13.3222L13.3104 12.4246L13.1523 11.738L9.25432 12.6356Z" fill="#60646C" mask="url(#path-1-inside-1_2949_16323)"/>
<path d="M22.5414 14.2258L20.7242 6.33268C20.6753 6.12849 20.5818 5.93768 20.4502 5.77403C20.3187 5.61038 20.1525 5.47797 19.9635 5.38635L12.608 1.87448C12.4174 1.78351 12.2088 1.7363 11.9976 1.7363C11.7864 1.7363 11.5778 1.78351 11.3872 1.87448L4.03311 5.38823C3.84414 5.47979 3.67787 5.61216 3.54628 5.7758C3.4147 5.93944 3.32109 6.13025 3.27222 6.33446L1.45798 14.2273C1.41324 14.4268 1.41309 14.6338 1.45756 14.8333C1.47066 14.8941 1.48777 14.954 1.50878 15.0125C1.54428 15.1124 1.59129 15.2078 1.64886 15.2969C1.67378 15.3349 1.70007 15.372 1.72865 15.4078L6.81903 21.7367C6.84124 21.7642 6.86575 21.7894 6.89006 21.8149C6.96993 21.9 7.06012 21.9747 7.15853 22.0374C7.283 22.1157 7.41864 22.1747 7.56082 22.2123C7.67742 22.2443 7.79769 22.2609 7.91858 22.2617H7.99775L16.0816 22.2598C16.1307 22.2596 16.1798 22.2567 16.2287 22.2511C16.2987 22.2432 16.3681 22.23 16.4361 22.2117C16.4849 22.1988 16.533 22.1835 16.5802 22.1656C16.617 22.1515 16.6537 22.1374 16.6892 22.1204C16.7423 22.095 16.7938 22.0664 16.8434 22.0347C16.9715 21.9542 17.0856 21.8532 17.1811 21.7359L17.3363 21.5429L22.2697 15.4057C22.3642 15.2872 22.4385 15.1538 22.4895 15.011C22.5108 14.9522 22.5283 14.8922 22.5417 14.8311C22.5863 14.6316 22.5861 14.4246 22.5413 14.2251L22.5414 14.2258ZM14.912 17.2956C14.9326 17.3563 14.9571 17.4156 14.9853 17.4732C14.9403 17.552 14.928 17.6453 14.9512 17.7329C15.0582 17.978 15.1889 18.2121 15.3415 18.4318C15.4269 18.5441 15.5057 18.6612 15.5775 18.7826C15.5952 18.8155 15.6184 18.8664 15.6352 18.9011C15.6669 18.9541 15.6871 19.0131 15.6946 19.0743C15.7022 19.1356 15.6968 19.1977 15.6788 19.2568C15.6609 19.3158 15.6308 19.3705 15.5905 19.4172C15.5502 19.4639 15.5005 19.5016 15.4447 19.528C15.3889 19.5544 15.3282 19.5688 15.2665 19.5703C15.2048 19.5718 15.1435 19.5604 15.0865 19.5368C15.0295 19.5132 14.978 19.4779 14.9355 19.4332C14.8929 19.3885 14.8602 19.3354 14.8394 19.2773C14.8226 19.2429 14.7992 19.197 14.7849 19.1645C14.7346 19.0326 14.692 18.8979 14.6571 18.7611C14.5808 18.5051 14.4797 18.2571 14.3551 18.0208C14.3009 17.9477 14.2203 17.8988 14.1304 17.8845C14.1163 17.8602 14.0642 17.7645 14.0362 17.7152C12.7268 18.2111 11.2807 18.2074 9.97386 17.7048L9.87425 17.8852C9.80314 17.8963 9.73702 17.9285 9.68453 17.9777C9.53442 18.2241 9.41968 18.4903 9.34367 18.7686C9.30918 18.9054 9.26676 19.0401 9.21663 19.172C9.20254 19.2043 9.17897 19.2496 9.16218 19.2839V19.2849L9.16145 19.2857C9.14067 19.3439 9.10794 19.397 9.06534 19.4418C9.02275 19.4865 8.97126 19.5219 8.91418 19.5455C8.85709 19.5691 8.7957 19.5805 8.73394 19.5789C8.67218 19.5774 8.61144 19.5629 8.55563 19.5364C8.49983 19.5099 8.45019 19.472 8.40992 19.4251C8.36966 19.3783 8.33966 19.3235 8.32187 19.2644C8.30407 19.2052 8.29887 19.143 8.30661 19.0817C8.31434 19.0204 8.33484 18.9614 8.36677 18.9085C8.38335 18.8736 8.40557 18.823 8.42309 18.7902C8.4949 18.6684 8.57367 18.551 8.65902 18.4383C8.81433 18.2129 8.94775 17.9731 9.05746 17.7222C9.06913 17.6372 9.05549 17.5506 9.01824 17.4732L9.09835 17.2813C7.89355 16.5702 6.99061 15.4429 6.55983 14.1119L6.36802 14.1445C6.2936 14.0917 6.20587 14.0608 6.11477 14.0553C5.85231 14.1056 5.59535 14.1812 5.34753 14.2812C5.21884 14.339 5.08696 14.3895 4.95253 14.4324C4.92072 14.4412 4.87483 14.4499 4.83853 14.4578C4.83561 14.4589 4.83311 14.4601 4.83019 14.4609C4.82794 14.4612 4.82568 14.4614 4.82341 14.4615C4.76498 14.4807 4.70318 14.4875 4.64197 14.4815C4.58076 14.4754 4.52148 14.4567 4.46794 14.4264C4.41439 14.3962 4.36776 14.355 4.33102 14.3057C4.29428 14.2564 4.26824 14.1999 4.25457 14.14C4.24091 14.08 4.23991 14.0178 4.25166 13.9574C4.2634 13.8971 4.28762 13.8398 4.32276 13.7893C4.35791 13.7389 4.40321 13.6963 4.45576 13.6643C4.50831 13.6323 4.56696 13.6117 4.62794 13.6037L4.6343 13.6021L4.63816 13.6011C4.67498 13.5924 4.72213 13.5802 4.75571 13.5738C4.89575 13.5543 5.03679 13.543 5.17814 13.5398C5.44471 13.5223 5.70894 13.479 5.96708 13.4102C6.04359 13.3615 6.10823 13.2963 6.15629 13.2194L6.34059 13.1655C6.1406 11.7764 6.4605 10.3623 7.23895 9.19443L7.09783 9.06864C7.09268 8.97734 7.06204 8.88932 7.00938 8.81456C6.80664 8.64029 6.58736 8.48623 6.35467 8.35459C6.22903 8.29051 6.10717 8.21926 5.98972 8.14118C5.96301 8.12126 5.92755 8.09133 5.89856 8.06776L5.89198 8.06317C5.79186 7.99124 5.72427 7.88262 5.70398 7.76102C5.68369 7.63941 5.71236 7.51473 5.78372 7.4142C5.82588 7.36259 5.87961 7.32164 5.94055 7.29467C6.0015 7.26771 6.06794 7.25548 6.13449 7.25899C6.24652 7.2638 6.35406 7.30438 6.44135 7.37477C6.47128 7.39824 6.51227 7.42963 6.53887 7.45247C6.64134 7.54939 6.73816 7.65213 6.82883 7.76017C7.00874 7.95782 7.20751 8.13745 7.42231 8.29649C7.5028 8.33882 7.59667 8.34792 7.6838 8.32184C7.73623 8.36008 7.78914 8.3977 7.84254 8.43469C8.61608 7.61245 9.61774 7.0402 10.7189 6.79141C10.981 6.73205 11.2469 6.69117 11.5147 6.66906L11.5252 6.48298C11.5935 6.42222 11.6431 6.34319 11.668 6.25519C11.6777 5.98812 11.6612 5.72075 11.619 5.45686C11.591 5.31856 11.571 5.17877 11.5589 5.03819C11.5578 5.00617 11.5596 4.96194 11.56 4.92544C11.56 4.92126 11.5589 4.91709 11.5589 4.91313C11.5527 4.85159 11.5594 4.78942 11.5787 4.73064C11.5979 4.67186 11.6293 4.61778 11.6708 4.57187C11.7122 4.52597 11.7629 4.48926 11.8194 4.46414C11.8759 4.43901 11.9371 4.42601 11.9989 4.42598C12.0608 4.42595 12.122 4.43889 12.1785 4.46397C12.235 4.48904 12.2857 4.52569 12.3272 4.57156C12.3687 4.61742 12.4001 4.67148 12.4195 4.73024C12.4388 4.78901 12.4456 4.85116 12.4394 4.91271C12.4394 4.9513 12.4417 5.00241 12.4403 5.03787C12.4283 5.17844 12.4081 5.3182 12.3799 5.45644C12.3374 5.72037 12.3207 5.98781 12.3301 6.25498C12.3475 6.34429 12.3991 6.42327 12.4739 6.47506C12.4755 6.50687 12.4807 6.61305 12.4845 6.67156C13.8761 6.79812 15.1745 7.42547 16.1385 8.43709L16.306 8.31746C16.3959 8.33289 16.4884 8.32285 16.573 8.28846C16.7877 8.12914 16.9865 7.94931 17.1665 7.75151C17.2573 7.64341 17.3544 7.54067 17.4571 7.44382C17.4842 7.42066 17.5249 7.38958 17.5548 7.36601C17.5989 7.32245 17.6518 7.28868 17.7099 7.26687C17.7679 7.24505 17.8299 7.2357 17.8919 7.23941C17.9538 7.24311 18.0142 7.2598 18.0693 7.28838C18.1243 7.31697 18.1728 7.35681 18.2114 7.40532C18.2501 7.45384 18.2781 7.50994 18.2937 7.56998C18.3093 7.63003 18.312 7.69268 18.3018 7.75387C18.2916 7.81506 18.2687 7.87341 18.2345 7.92515C18.2002 7.97689 18.1555 8.02086 18.1032 8.0542C18.0737 8.07808 18.0347 8.11135 18.0063 8.13242C17.8886 8.21056 17.7665 8.28181 17.6405 8.34583C17.4079 8.47754 17.1886 8.63159 16.9858 8.8058C16.9268 8.87492 16.8971 8.96439 16.9032 9.05508C16.8787 9.07761 16.7926 9.15386 16.7471 9.19516C17.5277 10.3588 17.854 11.7686 17.6641 13.1569L17.8418 13.2086C17.8862 13.2886 17.9519 13.3546 18.0316 13.3995C18.2899 13.4683 18.5543 13.5119 18.821 13.5294C18.9622 13.5327 19.1031 13.544 19.243 13.5632C19.28 13.57 19.3336 13.5848 19.3713 13.5935C19.4323 13.6015 19.4909 13.6222 19.5435 13.6542C19.596 13.6861 19.6413 13.7287 19.6764 13.7792C19.7116 13.8297 19.7358 13.887 19.7475 13.9474C19.7592 14.0078 19.7582 14.07 19.7445 14.1299C19.7308 14.1899 19.7047 14.2463 19.6679 14.2956C19.6312 14.345 19.5845 14.3861 19.5309 14.4163C19.4774 14.4465 19.4181 14.4653 19.3569 14.4713C19.2956 14.4773 19.2338 14.4704 19.1754 14.4512L19.1691 14.4503C19.1661 14.4496 19.1634 14.448 19.1604 14.4472C19.1241 14.4394 19.0785 14.4315 19.0467 14.4231C18.9123 14.3799 18.7805 14.329 18.6519 14.2706C18.4039 14.1706 18.1467 14.095 17.884 14.0448C17.793 14.0419 17.7046 14.0748 17.6376 14.1363C17.575 14.1244 17.5123 14.1134 17.4494 14.1033C17.0238 15.4426 16.1207 16.5788 14.912 17.2956Z" fill="#60646C"/>
</svg>
