<svg width="24" height="24" viewBox="0 0 24 24" fill="none" xmlns="http://www.w3.org/2000/svg">
<mask id="path-1-inside-1_2949_16503" fill="white">
<path d="M14.0041 13.5269C13.9748 13.5211 13.9449 13.5188 13.915 13.5201C13.8633 13.5228 13.8128 13.536 13.7663 13.5587C13.6762 13.6022 13.6063 13.6788 13.5713 13.7726C13.5363 13.8663 13.5388 13.97 13.5783 14.0619L13.5756 14.0658L14.4651 16.2147C15.3161 15.6717 15.9618 14.8605 16.3003 13.9095L14.0081 13.5221L14.0041 13.5269ZM10.4376 13.8314C10.4183 13.7467 10.3712 13.6709 10.3037 13.6162C10.2362 13.5615 10.1523 13.531 10.0655 13.5296C10.0398 13.5293 10.0142 13.5315 9.98902 13.5364L9.98516 13.5317L7.71293 13.9174C8.05415 14.861 8.69722 15.6656 9.5424 16.2064L10.4229 14.0786L10.416 14.0703C10.4485 13.995 10.4561 13.9113 10.4376 13.8314ZM12.3406 14.6659C12.3074 14.604 12.2581 14.5523 12.1978 14.5163C12.1375 14.4803 12.0686 14.4613 11.9984 14.4614C11.9282 14.4615 11.8593 14.4806 11.7992 14.5168C11.739 14.5529 11.6897 14.6047 11.6567 14.6667H11.6548L10.5374 16.6872C11.3375 16.9596 12.1976 17.0039 13.0214 16.815C13.1742 16.7802 13.3234 16.7385 13.4691 16.6898L12.3491 14.6657L12.3406 14.6659ZM15.8779 9.97224L14.1587 11.511L14.1597 11.5159C14.1068 11.5621 14.0675 11.6217 14.0458 11.6884C14.0242 11.7552 14.021 11.8265 14.0366 11.8949C14.0522 11.9633 14.0861 12.0262 14.1345 12.0769C14.183 12.1276 14.2443 12.1643 14.3119 12.1829L14.314 12.1922L16.5409 12.8337C16.6371 11.8332 16.4044 10.8286 15.8779 9.97245V9.97224ZM12.6839 10.1447C12.6871 10.2147 12.7093 10.2826 12.748 10.3411C12.7867 10.3997 12.8405 10.4466 12.9038 10.477C12.967 10.5073 13.0373 10.52 13.1072 10.5137C13.1771 10.5073 13.2439 10.4822 13.3006 10.4409L13.3074 10.4437L15.1886 9.10987C14.4725 8.40849 13.5458 7.96177 12.5511 7.83842L12.6818 10.144L12.6839 10.1447ZM10.6917 10.4493C10.7485 10.4906 10.8153 10.5157 10.8852 10.5219C10.9551 10.5282 11.0253 10.5154 11.0885 10.4849C11.1517 10.4544 11.2054 10.4073 11.244 10.3487C11.2826 10.2901 11.3045 10.2222 11.3075 10.1521L11.3171 10.1476L11.4478 7.83832C11.29 7.85728 11.1333 7.88429 10.9783 7.91926C10.1537 8.10461 9.39732 8.51678 8.79455 9.10924L10.6881 10.4515L10.6917 10.4493ZM9.68227 12.1942C9.75004 12.1757 9.81153 12.1392 9.86016 12.0885C9.90879 12.0378 9.94275 11.9748 9.9584 11.9063C9.97406 11.8378 9.97083 11.7664 9.94905 11.6996C9.92727 11.6328 9.88777 11.5732 9.83476 11.5271L9.83663 11.5179L8.10792 9.97172C7.58054 10.8301 7.35418 11.8397 7.46459 12.8411L9.68049 12.2017L9.68227 12.1942ZM11.3613 12.8734L11.999 13.1801L12.6349 12.874L12.7928 12.1876L12.3527 11.6373H11.6445L11.2032 12.1868L11.3613 12.8734Z"/>
</mask>
<path d="M14.0041 13.5269L13.6155 15.4887L14.7862 15.7207L15.5462 14.8004L14.0041 13.5269ZM13.915 13.5201L13.8273 11.522L13.8182 11.5224L13.8092 11.5229L13.915 13.5201ZM13.7663 13.5587L14.6359 15.3598L14.6455 15.3551L13.7663 13.5587ZM13.5783 14.0619L15.2147 15.2118L15.8566 14.2983L15.4158 13.2724L13.5783 14.0619ZM13.5756 14.0658L11.9392 12.9159L11.3073 13.8152L11.7276 14.8307L13.5756 14.0658ZM14.4651 16.2147L12.6171 16.9796L13.5296 19.1842L15.5409 17.9007L14.4651 16.2147ZM16.3003 13.9095L18.1845 14.58L18.9835 12.3346L16.6335 11.9374L16.3003 13.9095ZM14.0081 13.5221L14.3414 11.55L13.2019 11.3575L12.466 12.2485L14.0081 13.5221ZM10.4376 13.8314L8.48748 14.2753L8.48907 14.2822L10.4376 13.8314ZM10.0655 13.5296L10.0973 11.5298L10.0902 11.5297L10.0655 13.5296ZM9.98902 13.5364L8.44424 14.8067L9.19867 15.7241L10.3653 15.5007L9.98902 13.5364ZM9.98516 13.5317L11.5299 12.2614L10.7935 11.3658L9.65045 11.5599L9.98516 13.5317ZM7.71293 13.9174L7.37822 11.9456L5.01803 12.3462L5.83212 14.5975L7.71293 13.9174ZM9.5424 16.2064L8.46443 17.891L10.4769 19.1788L11.3904 16.9712L9.5424 16.2064ZM10.4229 14.0786L12.2709 14.8434L12.7305 13.7329L11.9657 12.8059L10.4229 14.0786ZM10.416 14.0703L8.57989 13.2775L8.09521 14.3999L8.87329 15.3431L10.416 14.0703ZM12.3406 14.6659L10.5782 15.6113L11.1519 16.6808L12.3655 16.6657L12.3406 14.6659ZM11.6567 14.6667V16.6667H12.8568L13.4214 15.6078L11.6567 14.6667ZM11.6548 14.6667V12.6667H10.4754L9.90463 13.6988L11.6548 14.6667ZM10.5374 16.6872L8.78724 15.7194L7.63086 17.8104L9.89286 18.5805L10.5374 16.6872ZM13.0214 16.815L12.5776 14.8649L12.5745 14.8656L13.0214 16.815ZM13.4691 16.6898L14.1029 18.5868L16.3829 17.8249L15.219 15.7215L13.4691 16.6898ZM12.3491 14.6657L14.099 13.6974L13.52 12.651L12.3242 12.6659L12.3491 14.6657ZM15.8779 9.97224H17.8779V5.49805L14.5441 8.48199L15.8779 9.97224ZM14.1587 11.511L12.8249 10.0208L11.9815 10.7756L12.1944 11.8873L14.1587 11.511ZM14.1597 11.5159L15.476 13.0217L16.3398 12.2665L16.1239 11.1396L14.1597 11.5159ZM14.0366 11.8949L12.0868 12.3401L14.0366 11.8949ZM14.3119 12.1829L16.2633 11.7446L16.0005 10.5744L14.8444 10.2551L14.3119 12.1829ZM14.314 12.1922L12.3626 12.6305L12.6222 13.7862L13.7604 14.1141L14.314 12.1922ZM16.5409 12.8337L15.9873 14.7555L18.3011 15.422L18.5317 13.0252L16.5409 12.8337ZM15.8779 9.97245H13.8779V10.5381L14.1742 11.02L15.8779 9.97245ZM12.6839 10.1447L14.6818 10.0524L14.6164 8.63671L13.259 8.22914L12.6839 10.1447ZM13.3006 10.4409L14.0678 8.59387L13.0313 8.16331L12.1237 8.8238L13.3006 10.4409ZM13.3074 10.4437L12.5402 12.2907L13.5618 12.715L14.4642 12.0752L13.3074 10.4437ZM15.1886 9.10987L16.3454 10.7414L18.2986 9.35649L16.5881 7.68106L15.1886 9.10987ZM12.5511 7.83842L12.7972 5.85362L10.4187 5.55867L10.5543 7.95161L12.5511 7.83842ZM12.6818 10.144L10.685 10.2572L10.7643 11.6565L12.1066 12.0595L12.6818 10.144ZM10.6917 10.4493L11.8677 8.83161L10.7973 8.05342L9.66249 8.73447L10.6917 10.4493ZM11.3075 10.1521L10.4607 8.34018L9.36119 8.85406L9.30933 10.0666L11.3075 10.1521ZM11.3171 10.1476L12.1639 11.9595L13.2464 11.4535L13.3139 10.2606L11.3171 10.1476ZM11.4478 7.83832L13.4446 7.95133L13.5795 5.56777L11.2092 5.8526L11.4478 7.83832ZM10.9783 7.91926L11.4169 9.87057L11.4184 9.87024L10.9783 7.91926ZM8.79455 9.10924L7.39259 7.68288L5.68782 9.35848L7.63792 10.7409L8.79455 9.10924ZM10.6881 10.4515L9.53143 12.0831L10.5972 12.8386L11.7173 12.1664L10.6881 10.4515ZM9.68227 12.1942L9.15593 10.2647L8.00895 10.5776L7.73578 11.7346L9.68227 12.1942ZM9.9584 11.9063L8.00869 11.4607L9.9584 11.9063ZM9.83476 11.5271L7.87532 11.1263L7.64137 12.2702L8.5224 13.0363L9.83476 11.5271ZM9.83663 11.5179L11.7961 11.9187L12.0263 10.7931L11.17 10.0272L9.83663 11.5179ZM8.10792 9.97172L9.44125 8.481L7.65699 6.88514L6.40386 8.92474L8.10792 9.97172ZM7.46459 12.8411L5.47663 13.0603L5.73694 15.4212L8.01904 14.7627L7.46459 12.8411ZM9.68049 12.2017L10.2349 14.1233L11.3583 13.7992L11.627 12.6613L9.68049 12.2017ZM11.3613 12.8734L9.41234 13.3222L9.62811 14.2592L10.4946 14.6759L11.3613 12.8734ZM11.999 13.1801L11.1323 14.9825L11.9994 15.3995L12.8664 14.9822L11.999 13.1801ZM12.6349 12.874L13.5022 14.6762L14.3684 14.2593L14.5839 13.3224L12.6349 12.874ZM12.7928 12.1876L14.7419 12.636L14.9586 11.6937L14.3548 10.9386L12.7928 12.1876ZM12.3527 11.6373L13.9147 10.3883L13.3142 9.63733H12.3527V11.6373ZM11.6445 11.6373V9.63733H10.6856L10.0852 10.3849L11.6445 11.6373ZM11.2032 12.1868L9.64387 10.9344L9.03657 11.6905L9.25422 12.6356L11.2032 12.1868ZM14.3928 11.565C14.2067 11.5281 14.0169 11.5137 13.8273 11.522L14.0026 15.5182C13.8728 15.5239 13.7429 15.514 13.6155 15.4887L14.3928 11.565ZM13.8092 11.5229C13.4888 11.5399 13.1752 11.6213 12.8871 11.7623L14.6455 15.3551C14.4503 15.4506 14.2378 15.5058 14.0208 15.5173L13.8092 11.5229ZM12.8968 11.7576C12.3427 12.0251 11.9132 12.4961 11.6978 13.0725L15.4448 14.4726C15.2995 14.8615 15.0097 15.1793 14.6359 15.3598L12.8968 11.7576ZM11.6978 13.0725C11.4825 13.6488 11.4978 14.2861 11.7407 14.8515L15.4158 13.2724C15.5797 13.6539 15.5901 14.0838 15.4448 14.4726L11.6978 13.0725ZM11.9419 12.9121L11.9392 12.9159L15.212 15.2157L15.2147 15.2118L11.9419 12.9121ZM11.7276 14.8307L12.6171 16.9796L16.313 15.4498L15.4235 13.3009L11.7276 14.8307ZM15.5409 17.9007C16.7668 17.1185 17.697 15.95 18.1845 14.58L14.416 13.2389C14.2266 13.7711 13.8653 14.2249 13.3892 14.5288L15.5409 17.9007ZM16.6335 11.9374L14.3414 11.55L13.6748 15.4941L15.967 15.8815L16.6335 11.9374ZM12.466 12.2485L12.4621 12.2533L15.5462 14.8004L15.5502 14.7956L12.466 12.2485ZM12.3878 13.3876C12.2691 12.8662 11.9789 12.3997 11.5636 12.0629L9.04384 15.1695C8.7635 14.9421 8.56759 14.6272 8.48749 14.2753L12.3878 13.3876ZM11.5636 12.0629C11.1483 11.7261 10.632 11.5384 10.0973 11.5298L10.0336 15.5293C9.67271 15.5236 9.32417 15.3969 9.04384 15.1695L11.5636 12.0629ZM10.0902 11.5297C9.93002 11.5278 9.77007 11.5419 9.61276 11.5721L10.3653 15.5007C10.2584 15.5211 10.1496 15.5308 10.0407 15.5294L10.0902 11.5297ZM11.5338 12.2661L11.5299 12.2614L8.44038 14.802L8.44424 14.8067L11.5338 12.2661ZM9.65045 11.5599L7.37822 11.9456L8.04764 15.8892L10.3199 15.5035L9.65045 11.5599ZM5.83212 14.5975C6.32308 15.9552 7.24836 17.1129 8.46443 17.891L10.6204 14.5218C10.1461 14.2183 9.78521 13.7668 9.59374 13.2373L5.83212 14.5975ZM11.3904 16.9712L12.2709 14.8434L8.5749 13.3139L7.69438 15.4417L11.3904 16.9712ZM11.9657 12.8059L11.9588 12.7975L8.87329 15.3431L8.88017 15.3514L11.9657 12.8059ZM12.2522 14.8631C12.4539 14.3959 12.5009 13.8765 12.3862 13.3807L8.48907 14.2822C8.41135 13.9461 8.44318 13.5941 8.57989 13.2775L12.2522 14.8631ZM14.1031 13.7204C13.8987 13.3395 13.5948 13.0212 13.2237 12.7994L11.1719 16.2331C10.9214 16.0834 10.7162 15.8685 10.5782 15.6113L14.1031 13.7204ZM13.2237 12.7994C12.8526 12.5777 12.4283 12.4608 11.996 12.4614L12.0009 16.4614C11.709 16.4617 11.4225 16.3828 11.1719 16.2331L13.2237 12.7994ZM11.996 12.4614C11.5637 12.4619 11.1396 12.5798 10.7691 12.8024L12.8292 16.2311C12.579 16.3814 12.2927 16.461 12.0009 16.4614L11.996 12.4614ZM10.7691 12.8024C10.3986 13.0251 10.0954 13.3441 9.89198 13.7256L13.4214 15.6078C13.2841 15.8654 13.0794 16.0808 12.8292 16.2311L10.7691 12.8024ZM11.6567 12.6667H11.6548V16.6667H11.6567V12.6667ZM9.90463 13.6988L8.78724 15.7194L12.2876 17.6551L13.405 15.6346L9.90463 13.6988ZM9.89286 18.5805C11.0445 18.9726 12.2825 19.0363 13.4683 18.7644L12.5745 14.8656C12.1127 14.9715 11.6305 14.9467 11.182 14.794L9.89286 18.5805ZM13.4652 18.7651C13.6809 18.7161 13.8936 18.6567 14.1029 18.5868L12.8353 14.7929C12.7532 14.8203 12.6675 14.8444 12.5776 14.8649L13.4652 18.7651ZM15.219 15.7215L14.099 13.6974L10.5991 15.6341L11.7191 17.6582L15.219 15.7215ZM12.3242 12.6659L12.3158 12.666L12.3655 16.6657L12.3739 16.6656L12.3242 12.6659ZM14.5441 8.48199L12.8249 10.0208L15.4926 13.0013L17.2118 11.4625L14.5441 8.48199ZM12.1944 11.8873L12.1954 11.8922L16.1239 11.1396L16.123 11.1347L12.1944 11.8873ZM12.8433 10.0102C12.5186 10.2941 12.2768 10.6605 12.1436 11.0707L15.9481 12.3061C15.8582 12.5829 15.6951 12.8301 15.476 13.0217L12.8433 10.0102ZM12.1436 11.0707C12.0104 11.4809 11.9908 11.9196 12.0868 12.3401L15.9864 11.4498C16.0512 11.7334 16.0379 12.0294 15.9481 12.3061L12.1436 11.0707ZM12.0868 12.3401C12.1828 12.7605 12.3908 13.1472 12.6888 13.4589L15.5802 10.6949C15.7813 10.9052 15.9217 11.1661 15.9864 11.4498L12.0868 12.3401ZM12.6888 13.4589C12.9869 13.7707 13.3638 13.9959 13.7795 14.1108L14.8444 10.2551C15.1249 10.3326 15.3791 10.4845 15.5802 10.6949L12.6888 13.4589ZM12.3606 12.6212L12.3626 12.6305L16.2654 11.7539L16.2633 11.7446L12.3606 12.6212ZM13.7604 14.1141L15.9873 14.7555L17.0945 10.9118L14.8676 10.2704L13.7604 14.1141ZM18.5317 13.0252C18.6696 11.5915 18.3361 10.1519 17.5816 8.9249L14.1742 11.02C14.4727 11.5054 14.6046 12.0749 14.5501 12.6421L18.5317 13.0252ZM17.8779 9.97245V9.97224H13.8779V9.97245H17.8779ZM10.686 10.2369C10.7059 10.6677 10.8421 11.0852 11.0801 11.4449L14.4159 9.23744C14.5765 9.4801 14.6683 9.76173 14.6818 10.0524L10.686 10.2369ZM11.0801 11.4449C11.3181 11.8045 11.6491 12.0931 12.0379 12.2798L13.7697 8.67412C14.032 8.8001 14.2553 8.99476 14.4159 9.23744L11.0801 11.4449ZM12.0379 12.2798C12.4267 12.4665 12.8588 12.5445 13.2883 12.5054L12.9261 8.52188C13.2159 8.49553 13.5074 8.54814 13.7697 8.67412L12.0379 12.2798ZM13.2883 12.5054C13.7179 12.4664 14.1288 12.3117 14.4775 12.0579L12.1237 8.8238C12.359 8.65257 12.6363 8.54824 12.9261 8.52188L13.2883 12.5054ZM12.5334 12.2879L12.5402 12.2907L14.0746 8.59669L14.0678 8.59387L12.5334 12.2879ZM14.4642 12.0752L16.3454 10.7414L14.0318 7.47835L12.1506 8.81217L14.4642 12.0752ZM16.5881 7.68106C15.5588 6.67297 14.2269 6.03091 12.7972 5.85362L12.305 9.82322C12.8647 9.89263 13.3862 10.144 13.7891 10.5387L16.5881 7.68106ZM10.5543 7.95161L10.685 10.2572L14.6786 10.0308L14.5479 7.72524L10.5543 7.95161ZM12.1066 12.0595L12.1087 12.0602L13.259 8.22914L13.257 8.22852L12.1066 12.0595ZM9.51568 12.067C9.86495 12.3209 10.2765 12.4754 10.7066 12.5139L11.0638 8.52993C11.3541 8.55596 11.632 8.66022 11.8677 8.83161L9.51568 12.067ZM10.7066 12.5139C11.1366 12.5525 11.5691 12.4737 11.958 12.286L10.2191 8.68378C10.4816 8.55706 10.7735 8.5039 11.0638 8.52993L10.7066 12.5139ZM11.958 12.286C12.3468 12.0983 12.6775 11.8087 12.9148 11.448L9.57316 9.24951C9.73336 9.006 9.95659 8.81049 10.2191 8.68378L11.958 12.286ZM12.9148 11.448C13.1522 11.0872 13.2872 10.6689 13.3057 10.2375L9.30933 10.0666C9.32179 9.77541 9.41296 9.49302 9.57316 9.24951L12.9148 11.448ZM12.1543 11.9639L12.1639 11.9595L10.4703 8.3357L10.4607 8.34018L12.1543 11.9639ZM13.3139 10.2606L13.4446 7.95133L9.45099 7.72531L9.3203 10.0346L13.3139 10.2606ZM11.2092 5.8526C10.9837 5.8797 10.7598 5.91831 10.5382 5.96828L11.4184 9.87024C11.5069 9.85028 11.5964 9.83485 11.6864 9.82403L11.2092 5.8526ZM10.5397 5.96794C9.35133 6.23506 8.26127 6.82906 7.39259 7.68288L10.1965 10.5356C10.5334 10.2045 10.9561 9.97416 11.4169 9.87057L10.5397 5.96794ZM7.63792 10.7409L9.53143 12.0831L11.8447 8.81988L9.95118 7.47761L7.63792 10.7409ZM11.7173 12.1664L11.7209 12.1642L9.66249 8.73447L9.65884 8.73666L11.7173 12.1664ZM10.2086 14.1237C10.6257 14.0099 11.0042 13.785 11.3035 13.473L8.41685 10.704C8.6189 10.4933 8.87434 10.3415 9.15593 10.2647L10.2086 14.1237ZM11.3035 13.473C11.6028 13.1609 11.8118 12.7735 11.9081 12.352L8.00869 11.4607C8.07373 11.1761 8.2148 10.9146 8.41685 10.704L11.3035 13.473ZM11.9081 12.352C12.0045 11.9305 11.9846 11.4907 11.8505 11.0796L8.04756 12.3195C7.95709 12.0421 7.94365 11.7452 8.00869 11.4607L11.9081 12.352ZM11.8505 11.0796C11.7165 10.6686 11.4734 10.3016 11.1471 10.0179L8.5224 13.0363C8.30214 12.8448 8.13803 12.597 8.04756 12.3195L11.8505 11.0796ZM11.7942 11.9278L11.7961 11.9187L7.8772 11.1171L7.87532 11.1263L11.7942 11.9278ZM11.17 10.0272L9.44125 8.481L6.7746 11.4624L8.50331 13.0086L11.17 10.0272ZM6.40386 8.92474C5.64376 10.1619 5.3175 11.617 5.47663 13.0603L9.45254 12.6219C9.39085 12.0624 9.51733 11.4983 9.81199 11.0187L6.40386 8.92474ZM8.01904 14.7627L10.2349 14.1233L9.12603 10.2801L6.91013 10.9195L8.01904 14.7627ZM11.627 12.6613L11.6288 12.6537L7.73578 11.7346L7.734 11.7422L11.627 12.6613ZM10.4946 14.6759L11.1323 14.9825L12.8658 11.3776L12.2281 11.071L10.4946 14.6759ZM12.8664 14.9822L13.5022 14.6762L11.7675 11.0719L11.1317 11.3779L12.8664 14.9822ZM14.5839 13.3224L14.7419 12.636L10.8437 11.7392L10.6858 12.4256L14.5839 13.3224ZM14.3548 10.9386L13.9147 10.3883L10.7907 12.8864L11.2308 13.4367L14.3548 10.9386ZM12.3527 9.63733H11.6445V13.6373H12.3527V9.63733ZM10.0852 10.3849L9.64387 10.9344L12.7625 13.4392L13.2038 12.8897L10.0852 10.3849ZM9.25422 12.6356L9.41234 13.3222L13.3103 12.4246L13.1522 11.738L9.25422 12.6356Z" fill="#FCFCFD" mask="url(#path-1-inside-1_2949_16503)"/>
<path d="M22.5413 14.2258L20.7241 6.33268C20.6753 6.12849 20.5817 5.93768 20.4501 5.77403C20.3186 5.61038 20.1524 5.47797 19.9635 5.38635L12.6079 1.87448C12.4173 1.78351 12.2087 1.7363 11.9975 1.7363C11.7863 1.7363 11.5777 1.78351 11.3871 1.87448L4.03303 5.38823C3.84407 5.47979 3.67779 5.61216 3.54621 5.7758C3.41463 5.93944 3.32102 6.13025 3.27214 6.33446L1.45791 14.2273C1.41316 14.4268 1.41302 14.6338 1.45749 14.8333C1.47058 14.8941 1.48769 14.954 1.5087 15.0125C1.54421 15.1124 1.59121 15.2078 1.64878 15.2969C1.67371 15.3349 1.69999 15.372 1.72857 15.4078L6.81895 21.7367C6.84117 21.7642 6.86568 21.7894 6.88998 21.8149C6.96985 21.9 7.06004 21.9747 7.15845 22.0374C7.28292 22.1157 7.41857 22.1747 7.56075 22.2123C7.67734 22.2443 7.79761 22.2609 7.91851 22.2617H7.99767L16.0815 22.2598C16.1307 22.2596 16.1798 22.2567 16.2286 22.2511C16.2986 22.2432 16.368 22.23 16.4361 22.2117C16.4848 22.1988 16.5329 22.1835 16.5801 22.1656C16.6169 22.1515 16.6536 22.1374 16.6891 22.1204C16.7422 22.095 16.7937 22.0664 16.8434 22.0347C16.9714 21.9542 17.0855 21.8532 17.181 21.7359L17.3362 21.5429L22.2696 15.4057C22.3641 15.2872 22.4384 15.1538 22.4895 15.011C22.5108 14.9522 22.5282 14.8922 22.5416 14.8311C22.5862 14.6316 22.5861 14.4246 22.5412 14.2251L22.5413 14.2258ZM14.9119 17.2956C14.9325 17.3563 14.957 17.4156 14.9852 17.4732C14.9402 17.552 14.928 17.6453 14.9511 17.7329C15.0581 17.978 15.1889 18.2121 15.3414 18.4318C15.4268 18.5441 15.5056 18.6612 15.5774 18.7826C15.5952 18.8155 15.6183 18.8664 15.6351 18.9011C15.6668 18.9541 15.6871 19.0131 15.6946 19.0743C15.7021 19.1356 15.6967 19.1977 15.6788 19.2568C15.6608 19.3158 15.6307 19.3705 15.5904 19.4172C15.5501 19.4639 15.5004 19.5016 15.4446 19.528C15.3888 19.5544 15.3281 19.5688 15.2665 19.5703C15.2048 19.5718 15.1434 19.5604 15.0864 19.5368C15.0294 19.5132 14.978 19.4779 14.9354 19.4332C14.8928 19.3885 14.8601 19.3354 14.8393 19.2773C14.8225 19.2429 14.7991 19.197 14.7848 19.1645C14.7345 19.0326 14.6919 18.8979 14.6571 18.7611C14.5807 18.5051 14.4796 18.2571 14.355 18.0208C14.3008 17.9477 14.2202 17.8988 14.1303 17.8845C14.1163 17.8602 14.0641 17.7645 14.0362 17.7152C12.7268 18.2111 11.2806 18.2074 9.97379 17.7048L9.87418 17.8852C9.80307 17.8963 9.73694 17.9285 9.68445 17.9777C9.53434 18.2241 9.4196 18.4903 9.34359 18.7686C9.3091 18.9054 9.26668 19.0401 9.21655 19.172C9.20247 19.2043 9.1789 19.2496 9.1621 19.2839V19.2849L9.16137 19.2857C9.1406 19.3439 9.10786 19.397 9.06527 19.4418C9.02268 19.4865 8.97118 19.5219 8.9141 19.5455C8.85702 19.5691 8.79562 19.5805 8.73386 19.5789C8.67211 19.5774 8.61137 19.5629 8.55556 19.5364C8.49975 19.5099 8.45011 19.472 8.40985 19.4251C8.36958 19.3783 8.33959 19.3235 8.32179 19.2644C8.30399 19.2052 8.2988 19.143 8.30653 19.0817C8.31426 19.0204 8.33476 18.9614 8.36669 18.9085C8.38328 18.8736 8.40549 18.823 8.42302 18.7902C8.49482 18.6684 8.57359 18.551 8.65895 18.4383C8.81426 18.2129 8.94767 17.9731 9.05738 17.7222C9.06906 17.6372 9.05542 17.5506 9.01817 17.4732L9.09827 17.2813C7.89348 16.5702 6.99053 15.4429 6.55976 14.1119L6.36794 14.1445C6.29352 14.0917 6.20579 14.0608 6.1147 14.0553C5.85223 14.1056 5.59528 14.1812 5.34745 14.2812C5.21877 14.339 5.08689 14.3895 4.95246 14.4324C4.92064 14.4412 4.87475 14.4499 4.83845 14.4578C4.83553 14.4589 4.83303 14.4601 4.83011 14.4609C4.82786 14.4612 4.8256 14.4614 4.82333 14.4615C4.7649 14.4807 4.7031 14.4875 4.64189 14.4815C4.58068 14.4754 4.52141 14.4567 4.46786 14.4264C4.41432 14.3962 4.36768 14.355 4.33094 14.3057C4.2942 14.2564 4.26816 14.1999 4.2545 14.14C4.24083 14.08 4.23984 14.0178 4.25158 13.9574C4.26332 13.8971 4.28754 13.8398 4.32269 13.7893C4.35783 13.7389 4.40313 13.6963 4.45568 13.6643C4.50823 13.6323 4.56688 13.6117 4.62787 13.6037L4.63423 13.6021L4.63809 13.6011C4.67491 13.5924 4.72205 13.5802 4.75564 13.5738C4.89567 13.5543 5.03672 13.543 5.17806 13.5398C5.44463 13.5223 5.70886 13.479 5.96701 13.4102C6.04351 13.3615 6.10815 13.2963 6.15621 13.2194L6.34051 13.1655C6.14052 11.7764 6.46043 10.3623 7.23887 9.19443L7.09775 9.06864C7.0926 8.97734 7.06196 8.88932 7.0093 8.81456C6.80656 8.64029 6.58728 8.48623 6.35459 8.35459C6.22895 8.29051 6.1071 8.21926 5.98964 8.14118C5.96294 8.12126 5.92748 8.09133 5.89848 8.06776L5.89191 8.06317C5.79178 7.99124 5.72419 7.88262 5.7039 7.76102C5.68362 7.63941 5.71228 7.51473 5.78364 7.4142C5.8258 7.36259 5.87953 7.32164 5.94048 7.29467C6.00142 7.26771 6.06786 7.25548 6.13441 7.25899C6.24644 7.2638 6.35398 7.30438 6.44127 7.37477C6.4712 7.39824 6.5122 7.42963 6.53879 7.45247C6.64127 7.54939 6.73808 7.65213 6.82875 7.76017C7.00866 7.95782 7.20743 8.13745 7.42223 8.29649C7.50273 8.33882 7.5966 8.34792 7.68372 8.32184C7.73615 8.36008 7.78907 8.3977 7.84247 8.43469C8.61601 7.61245 9.61766 7.0402 10.7188 6.79141C10.9809 6.73205 11.2468 6.69117 11.5146 6.66906L11.5251 6.48298C11.5934 6.42222 11.643 6.34319 11.668 6.25519C11.6776 5.98812 11.6612 5.72075 11.6189 5.45686C11.591 5.31856 11.5709 5.17877 11.5589 5.03819C11.5577 5.00617 11.5595 4.96194 11.5599 4.92544C11.5599 4.92126 11.5589 4.91709 11.5589 4.91313C11.5526 4.85159 11.5593 4.78942 11.5786 4.73064C11.5979 4.67186 11.6292 4.61778 11.6707 4.57187C11.7122 4.52597 11.7628 4.48926 11.8193 4.46414C11.8758 4.43901 11.937 4.42601 11.9988 4.42598C12.0607 4.42595 12.1219 4.43889 12.1784 4.46397C12.235 4.48904 12.2856 4.52569 12.3271 4.57156C12.3686 4.61742 12.4001 4.67148 12.4194 4.73024C12.4387 4.78901 12.4455 4.85116 12.4393 4.91271C12.4393 4.9513 12.4416 5.00241 12.4402 5.03787C12.4282 5.17844 12.408 5.3182 12.3798 5.45644C12.3374 5.72037 12.3207 5.98781 12.33 6.25498C12.3474 6.34429 12.399 6.42327 12.4738 6.47506C12.4754 6.50687 12.4806 6.61305 12.4845 6.67156C13.8761 6.79812 15.1744 7.42547 16.1384 8.43709L16.3059 8.31746C16.3959 8.33289 16.4883 8.32285 16.5729 8.28846C16.7877 8.12914 16.9864 7.94931 17.1664 7.75151C17.2572 7.64341 17.3543 7.54067 17.4571 7.44382C17.4841 7.42066 17.5249 7.38958 17.5547 7.36601C17.5989 7.32245 17.6517 7.28868 17.7098 7.26687C17.7679 7.24505 17.8299 7.2357 17.8918 7.23941C17.9537 7.24311 18.0142 7.2598 18.0692 7.28838C18.1243 7.31697 18.1727 7.35681 18.2114 7.40532C18.25 7.45384 18.2781 7.50994 18.2936 7.56998C18.3092 7.63003 18.312 7.69268 18.3018 7.75387C18.2916 7.81506 18.2686 7.87341 18.2344 7.92515C18.2002 7.97689 18.1554 8.02086 18.1031 8.0542C18.0736 8.07808 18.0346 8.11135 18.0062 8.13242C17.8885 8.21056 17.7664 8.28181 17.6404 8.34583C17.4078 8.47754 17.1885 8.63159 16.9857 8.8058C16.9267 8.87492 16.897 8.96439 16.9031 9.05508C16.8786 9.07761 16.7926 9.15386 16.747 9.19516C17.5276 10.3588 17.8539 11.7686 17.664 13.1569L17.8417 13.2086C17.8862 13.2886 17.9519 13.3546 18.0316 13.3995C18.2898 13.4683 18.5542 13.5119 18.8209 13.5294C18.9621 13.5327 19.103 13.544 19.2429 13.5632C19.28 13.57 19.3335 13.5848 19.3712 13.5935C19.4322 13.6015 19.4909 13.6222 19.5434 13.6542C19.5959 13.6861 19.6412 13.7287 19.6764 13.7792C19.7115 13.8297 19.7357 13.887 19.7474 13.9474C19.7591 14.0078 19.7581 14.07 19.7444 14.1299C19.7307 14.1899 19.7046 14.2463 19.6679 14.2956C19.6311 14.345 19.5844 14.3861 19.5309 14.4163C19.4773 14.4465 19.418 14.4653 19.3568 14.4713C19.2956 14.4773 19.2338 14.4704 19.1754 14.4512L19.169 14.4503C19.1661 14.4496 19.1634 14.448 19.1603 14.4472C19.124 14.4394 19.0785 14.4315 19.0466 14.4231C18.9122 14.3799 18.7804 14.329 18.6519 14.2706C18.4038 14.1706 18.1466 14.095 17.8839 14.0448C17.793 14.0419 17.7045 14.0748 17.6375 14.1363C17.5749 14.1244 17.5122 14.1134 17.4494 14.1033C17.0237 15.4426 16.1206 16.5788 14.9119 17.2956Z" fill="#FCFCFD"/>
</svg>
