<svg width="200" height="200" viewBox="0 0 200 200" fill="none" xmlns="http://www.w3.org/2000/svg">
<g clip-path="url(#clip0_1_49)">
<path d="M100 200C155.228 200 200 155.228 200 100C200 44.7715 155.228 0 100 0C44.7715 0 0 44.7715 0 100C0 155.228 44.7715 200 100 200Z" fill="#13AA52"/>
<path d="M126.73 87.7813C120.414 59.9043 105.486 50.7383 103.879 47.2363C102.121 44.7656 100.34 40.3711 100.34 40.3711C100.311 40.2969 100.264 40.166 100.209 40.0391C100.027 42.5098 99.9336 43.4629 97.5976 45.9551C93.9804 48.7832 75.4218 64.3555 73.9121 96.0273C72.5039 125.566 95.25 143.168 98.3261 145.412L98.6757 145.66V145.639C98.6953 145.787 99.6523 152.67 100.324 159.963H102.734C103.3 154.808 104.147 149.687 105.273 144.625L105.469 144.498C106.845 143.511 108.157 142.438 109.396 141.285L109.537 141.158C116.076 135.117 127.832 121.145 127.717 98.8672C127.692 95.1511 127.363 91.4433 126.73 87.7813ZM100.068 128.734C100.068 128.734 100.068 87.3047 101.436 87.3125C102.502 87.3125 103.883 140.752 103.883 140.752C101.984 140.523 100.068 131.957 100.068 128.734Z" fill="white"/>
</g>
<defs>
<clipPath id="clip0_1_49">
<rect width="200" height="200" fill="white"/>
</clipPath>
</defs>
</svg>
