<svg xmlns="http://www.w3.org/2000/svg" width="120" height="60">
    <path d="M72.164 12.064a2.907 2.907 0 0 0-.757.093v.037h.036a6.289 6.289 0 0 0 .591.757c.148.295.278.589.425.885l.041-.036a1.037 1.037 0 0 0 .389-.923 4.265 4.265 0 0 1-.222-.388c-.11-.184-.35-.276-.5-.424" fill="#0d758d" fill-rule="evenodd"/>
    <path d="M42.8 48.5h-2.556q-.135-6.472-.747-12.174h-.022L35.582 48.5h-1.947l-3.869-12.179h-.022Q29.314 41.8 29.2 48.5h-2.33q.23-8.151 1.13-15.28h3.17l3.688 11.224h.023l3.711-11.224h3.032q1 8.349 1.176 15.275M53.889 37.225Q52.328 45.7 49.77 49.54q-1.992 2.96-4.37 2.96a4.293 4.293 0 0 1-1.562-.38v-1.362a7.458 7.458 0 0 0 1.064.068 2.57 2.57 0 0 0 1.788-.612 2.229 2.229 0 0 0 .814-1.674 11.185 11.185 0 0 0-.633-2.6l-2.806-8.713h2.511l2.014 6.517a8.794 8.794 0 0 1 .566 3.1 42.527 42.527 0 0 0 2.308-9.618z" fill="#0d758d"/>
    <path fill="#f0902a" d="M87.922 48.495h-7.263V33.22h2.444v13.396h4.819v1.879z"/>
    <path d="M69.661 45.439a9.409 9.409 0 0 1-.929-4.8q0-5.77 3.508-5.771a2.945 2.945 0 0 1 2.694 1.38A9.327 9.327 0 0 1 75.861 41q0 5.816-3.507 5.817a2.941 2.941 0 0 1-2.693-1.382m9.1 3.424l-2.811-1.38a5.189 5.189 0 0 0 .7-.682q1.789-2.1 1.789-6.222 0-7.581-5.951-7.582a5.636 5.636 0 0 0-4.549 1.924q-1.788 2.106-1.788 6.2 0 4.027 1.584 5.906a5.427 5.427 0 0 0 4.368 1.7 7.011 7.011 0 0 0 2-.269l3.656 2.128 1-1.717z" fill="#f0902a" fill-rule="evenodd"/>
    <path d="M65.088 44.261a4.055 4.055 0 0 1-1.425 3.191A5.609 5.609 0 0 1 59.84 48.7a7.657 7.657 0 0 1-4.34-1.431l.656-1.312a7.439 7.439 0 0 0 3.28.905 3.447 3.447 0 0 0 2.161-.609 2.081 2.081 0 0 0 .831-1.7c0-.907-.632-1.682-1.793-2.332-1.071-.588-3.213-1.816-3.213-1.816a3.657 3.657 0 0 1-1.741-3.25 3.8 3.8 0 0 1 1.3-3 4.907 4.907 0 0 1 3.36-1.144 6.956 6.956 0 0 1 3.869 1.133l-.59 1.311a7.494 7.494 0 0 0-2.94-.633 2.617 2.617 0 0 0-1.809.567 1.893 1.893 0 0 0-.685 1.447c0 .9.646 1.69 1.839 2.353a247.37 247.37 0 0 1 3.279 1.839 3.609 3.609 0 0 1 1.788 3.229" fill="#f0902a"/>
    <path d="M90.989 28.1a8.534 8.534 0 0 0-3.58.517c-.277.11-.72.11-.758.461.149.148.167.387.3.591a4.314 4.314 0 0 0 .959 1.126c.388.3.775.59 1.182.848.719.445 1.531.7 2.232 1.145.407.258.812.59 1.219.868.2.147.331.388.59.479v-.056c-.13-.165-.166-.405-.3-.591-.184-.183-.369-.35-.554-.534a8.808 8.808 0 0 0-1.919-1.864c-.591-.407-1.884-.96-2.123-1.641l-.037-.038a7.389 7.389 0 0 0 1.274-.3c.627-.166 1.2-.129 1.845-.294.3-.074.591-.167.887-.258V28.4c-.334-.332-.573-.776-.923-1.089a24.635 24.635 0 0 0-3.046-2.27c-.573-.369-1.311-.608-1.92-.923-.22-.111-.589-.165-.719-.351a7.385 7.385 0 0 1-.757-1.421 45.204 45.204 0 0 1-1.513-3.212 19.763 19.763 0 0 0-.941-2.1 18.617 18.617 0 0 0-7.143-6.9 8.859 8.859 0 0 0-2.362-.757c-.462-.019-.923-.055-1.384-.073a7.372 7.372 0 0 1-.85-.647c-1.052-.664-3.764-2.1-4.54-.2-.5 1.2.738 2.382 1.163 2.991a8.634 8.634 0 0 1 .941 1.384c.129.313.166.646.3.978a22.036 22.036 0 0 0 .959 2.474 8.866 8.866 0 0 0 .682 1.143c.149.2.407.295.462.628a5.341 5.341 0 0 0-.425 1.385 8.128 8.128 0 0 0 .536 6.2c.294.461 1 1.476 1.938 1.088.831-.332.646-1.384.886-2.306.055-.223.018-.369.128-.517v.037c.259.517.518 1.014.757 1.532a10.556 10.556 0 0 0 2.4 2.472c.442.333.793.905 1.347 1.108v-.056h-.037a2.052 2.052 0 0 0-.424-.368 9.037 9.037 0 0 1-.96-1.108 23.535 23.535 0 0 1-2.066-3.359c-.3-.573-.554-1.2-.8-1.772-.11-.22-.11-.554-.3-.664a6.866 6.866 0 0 0-.885 1.253 10.437 10.437 0 0 0-.518 2.789c-.073.019-.036 0-.073.036-.59-.147-.793-.756-1.015-1.271a7.98 7.98 0 0 1-.166-4.93c.128-.387.683-1.605.461-1.974-.112-.352-.48-.553-.683-.831a7.42 7.42 0 0 1-.664-1.181c-.443-1.033-.666-2.178-1.144-3.211a9.892 9.892 0 0 0-.923-1.422 9.131 9.131 0 0 1-1.016-1.439c-.091-.2-.221-.535-.073-.756a.294.294 0 0 1 .259-.241c.238-.2.922.055 1.161.166a9.334 9.334 0 0 1 1.827.923c.259.185.536.535.867.628h.389c.59.128 1.255.036 1.809.2a11.814 11.814 0 0 1 2.658 1.273 16.384 16.384 0 0 1 5.757 6.312c.222.424.315.812.517 1.254.388.907.868 1.829 1.255 2.714a12.068 12.068 0 0 0 1.312 2.474c.276.387 1.384.59 1.882.793a13.549 13.549 0 0 1 1.274.516 32.5 32.5 0 0 1 1.845 1.256c.294.221 1.218.682 1.273 1.052" fill="#0d758d" fill-rule="evenodd"/>
    <path d="M89.667 48.493h.405v-1.554h.528v-.317h-1.484v.317h.551v1.554zm3.081 0h.382v-1.871h-.574l-.467 1.278-.509-1.276h-.553v1.871h.361v-1.426h.02l.533 1.424h.275l.532-1.424v1.424z" fill="#f0902a"/>
</svg>
