<svg width="20" height="21" viewBox="0 0 20 21" fill="none" xmlns="http://www.w3.org/2000/svg">
<path d="M18.6817 8.25657C19.1416 6.88278 18.9838 5.3791 18.2492 4.12831C17.1439 2.21453 14.9196 1.2303 12.7502 1.68825C12.2715 1.15415 11.6842 0.727438 11.0274 0.436394C10.3705 0.14535 9.65898 -0.0033809 8.94 5.83116e-05C6.72258 5.83116e-05 4.75226 1.42169 4.06573 3.51999C2.6378 3.81388 1.40893 4.70239 0.688084 5.96005C-0.424058 7.8738 -0.170047 10.2797 1.31966 11.92C0.859726 13.2939 1.0176 14.7976 1.75218 16.0415C2.85746 17.9621 5.08178 18.9463 7.25806 18.4884C8.21919 19.5683 9.60593 20.1903 11.0614 20.1834C13.2788 20.1834 15.2491 18.7618 15.9356 16.6635C17.3636 16.3696 18.5924 15.4811 19.3064 14.2234C20.4254 12.3097 20.1714 9.90376 18.6817 8.2634V8.25657ZM17.1027 4.79127C17.5421 5.55678 17.7068 6.45217 17.5558 7.32018C17.5283 7.29968 17.4734 7.27234 17.4391 7.25184L13.4024 4.92795C13.3008 4.87082 13.1861 4.8408 13.0694 4.8408C12.9527 4.8408 12.838 4.87082 12.7364 4.92795L8.00636 7.64828V5.65249L11.9126 3.40381C13.7319 2.35808 16.0523 2.98004 17.1027 4.79127ZM8.00636 8.94003L9.99727 7.79179L11.9881 8.94003V11.2298L9.99727 12.378L8.00636 11.2298V8.94003ZM8.93313 1.31914C9.82562 1.31914 10.6838 1.62674 11.3703 2.19403C11.3428 2.2077 11.2879 2.24186 11.2467 2.26237L7.21001 4.57942C7.00404 4.69564 6.88045 4.91436 6.88045 5.15354V10.5941L5.14356 9.59623V5.09883C5.14356 3.00737 6.83927 1.31918 8.94 1.31235L8.93313 1.31914ZM1.84141 6.62309C2.28766 5.85755 2.98105 5.26976 3.81859 4.9622V9.73974C3.81859 9.97893 3.94218 10.1909 4.14814 10.3139L8.87136 13.0273L7.1276 14.0321L3.2282 11.7902C1.4158 10.7445 0.791045 8.43429 1.84141 6.62305V6.62309ZM2.90554 15.3922C2.4593 14.6335 2.30138 13.7314 2.45243 12.8633C2.47989 12.8838 2.5348 12.9111 2.56912 12.9316L6.60585 15.2555C6.70744 15.3127 6.82214 15.3427 6.93882 15.3427C7.05549 15.3427 7.17019 15.3127 7.27178 15.2555L11.995 12.5352V14.531L8.08873 16.7729C6.26947 17.8118 3.94905 17.1966 2.89868 15.3922H2.90554ZM11.0682 18.8643C10.1826 18.8643 9.3176 18.5568 8.63794 17.9895C8.67978 17.9678 8.72099 17.9451 8.76153 17.9211L12.7983 15.6041C13.0042 15.4879 13.1346 15.2692 13.1278 15.03V9.59619L14.8647 10.5941V15.0846C14.8647 17.1761 13.1621 18.8711 11.0682 18.8711V18.8643V18.8643ZM18.1668 13.5604C17.7205 14.3259 17.0203 14.9137 16.1896 15.2145V10.4369C16.1896 10.1977 16.066 9.97897 15.8601 9.86279L11.13 7.1425L12.8669 6.14461L16.7732 8.38641C18.5924 9.43214 19.2103 11.7424 18.1599 13.5536L18.1668 13.5604H18.1668Z" fill="#60646C"/>
</svg>
