<svg xmlns="http://www.w3.org/2000/svg" width="120" height="60">
    <path d="M29.519 31.889c-.043-.13-.23-.544-.9-.408a4.848 4.848 0 0 1-1.78.122c2.144-3.6 3.257-8.176 2.213-9.509-2.472-3.16-6.594-2.055-7.366-1.806a.343.343 0 0 0-.046.011l-.046.016a6.791 6.791 0 0 0-1.533-.2 4.475 4.475 0 0 0-2.43.6c-1.175-.382-4.116-1.13-6.007.217-1.174.837-1.717 2.318-1.612 4.4.046.935 1.581 8.789 3.9 9.562a1.266 1.266 0 0 0 .4.066 1.484 1.484 0 0 0 1.085-.537c.132.274.564.406.922.51l.326.063a5.669 5.669 0 0 0 1.1.146 2.248 2.248 0 0 0 1.2-.331 14.217 14.217 0 0 0 .381 3.9 2.309 2.309 0 0 0 2.26 1.393 4.156 4.156 0 0 0 .874-.1 2.852 2.852 0 0 0 2.61-2.516c.14-.815.324-2.326.41-3.165a3.456 3.456 0 0 0 .7.066 5.163 5.163 0 0 0 1.971-.375c.873-.406 1.575-1.498 1.368-2.125zm-1.281 1.319a1.721 1.721 0 0 1-.355.226c-.037.017-.08.03-.12.045l-.064.033a4.755 4.755 0 0 1-1.816.345 2.812 2.812 0 0 1-.786-.1c-.1.947-.321 2.7-.447 3.43a2.5 2.5 0 0 1-2.279 2.319 3.152 3.152 0 0 1-.662.075 1.852 1.852 0 0 1-1.456-.625 1.5 1.5 0 0 1-.322-.466 4.232 4.232 0 0 1-.2-.429A16.971 16.971 0 0 1 19.462 34a2.623 2.623 0 0 1-1.786.656 3.715 3.715 0 0 1-.9-.117c-.09-.023-.883-.237-.873-.747.01-.469.672-.606.921-.657.862-.177.917-.248 1.184-.587.054-.069.12-.15.194-.237v-.016a2.5 2.5 0 0 1-1.093-.3c-.228.242-.862.926-1.548 1.752a1.487 1.487 0 0 1-1.133.641 1.117 1.117 0 0 1-.357-.059c-2.1-.7-3.436-7.912-3.481-8.814a6.249 6.249 0 0 1 .332-2.5 3.011 3.011 0 0 1 .478-.915 2.868 2.868 0 0 1 .6-.606 3.339 3.339 0 0 1 .943-.494 8.1 8.1 0 0 1 4.876.371 3.678 3.678 0 0 1 .5-.284 3.644 3.644 0 0 1 .418-.152 4.431 4.431 0 0 1 1.417-.227h.09a6.232 6.232 0 0 1 1.413.184l.042-.014a.207.207 0 0 1 .043-.01 8.023 8.023 0 0 1 3.062-.321 5.1 5.1 0 0 1 3.747 1.945 1.26 1.26 0 0 1 .209.52c.539 1.727-.641 5.822-2.642 8.878.162.116.647.306 2.014.026.471-.1.754-.01.843.258.117.355-.3.747-.737 1.034z"/>
    <path d="M28.205 32.227c-2.274.469-2.43-.3-2.43-.3 2.4-3.561 3.4-8.082 2.538-9.189-2.362-3.018-6.451-1.591-6.52-1.554h-.022a8.183 8.183 0 0 0-1.516-.158 3.75 3.75 0 0 0-2.4.719s-7.295-3.005-6.956 3.78c.073 1.443 2.069 10.921 4.451 8.058.87-1.047 1.711-1.932 1.711-1.932a2.2 2.2 0 0 0 1.442.368l.041-.034a1.576 1.576 0 0 0 .016.407c-.614.686-.433.806-1.66 1.058s-.512.712-.036.831a2.523 2.523 0 0 0 2.814-.914l-.036.144a4.082 4.082 0 0 1 .381 2.213 6.11 6.11 0 0 0 .142 2.135c.19.515.379 1.675 1.991 1.329a2.377 2.377 0 0 0 2.144-2.282c.069-.887.225-.756.235-1.549l.125-.375c.144-1.2.023-1.591.853-1.41l.2.017a4.593 4.593 0 0 0 1.879-.316c1.011-.469 1.61-1.252.614-1.046z" fill="#316192"/>
    <path d="M18.281 26.168a.711.711 0 0 0-.487.071.175.175 0 0 0-.075.12.356.356 0 0 0 .084.23.646.646 0 0 0 .4.253h.069a.519.519 0 0 0 .494-.34c.034-.177-.231-.302-.485-.334zM25.013 26.09a.656.656 0 0 0-.451-.06c-.237.033-.467.141-.447.282a.35.35 0 0 0 .163.206.5.5 0 0 0 .284.091.4.4 0 0 0 .06 0 .585.585 0 0 0 .372-.234.311.311 0 0 0 .075-.193.133.133 0 0 0-.056-.092z" fill="#fff"/>
    <path d="M28.973 32.169c-.089-.268-.372-.356-.843-.258-1.367.28-1.852.09-2.014-.026 2.217-3.385 3.433-8.141 2.413-9.444-2.279-2.913-6.076-1.809-6.789-1.578a.207.207 0 0 0-.043.01l-.042.014a6.232 6.232 0 0 0-1.413-.184h-.09a4.069 4.069 0 0 0-2.334.668c-.675-.253-3.8-1.31-5.744.066-1.083.767-1.584 2.138-1.487 4.074.045.9 1.38 8.113 3.481 8.814a1.117 1.117 0 0 0 .357.059 1.487 1.487 0 0 0 1.133-.641c.686-.826 1.32-1.51 1.548-1.752a2.5 2.5 0 0 0 1.093.3v.016c-.074.087-.14.168-.194.237-.267.339-.322.41-1.184.587-.249.051-.911.188-.921.657-.01.51.783.724.873.747a3.715 3.715 0 0 0 .9.117A2.623 2.623 0 0 0 19.462 34a16.971 16.971 0 0 0 .274 4.063 2.065 2.065 0 0 0 1.973 1.52 3.152 3.152 0 0 0 .662-.075 2.5 2.5 0 0 0 2.279-2.319c.126-.733.343-2.483.447-3.43a2.812 2.812 0 0 0 .786.1 4.755 4.755 0 0 0 1.816-.345c.516-.242 1.444-.83 1.274-1.345zm-3.506-3.588a3.8 3.8 0 0 1-.155 2.114 2.812 2.812 0 0 1-.135-.28 6.375 6.375 0 0 0-.259-.492c-.488-.875-1.63-2.924-1.048-3.756.295-.421 1.041-.443 1.7-.365a5.9 5.9 0 0 1-.074.785 7.419 7.419 0 0 0-.1.935 7.134 7.134 0 0 0 .071 1.059zm2.6-5.69c.7.89-.076 4.944-2.3 8.451-.019-.024-.033-.046-.053-.071l-.027-.034a4 4 0 0 0 .365-2.726 6.562 6.562 0 0 1-.07-.97 6.673 6.673 0 0 1 .095-.864 5.4 5.4 0 0 0 .085-1.12.4.4 0 0 0 .012-.108 6.7 6.7 0 0 0-3.548-4.219 5.33 5.33 0 0 1 5.439 1.661zM15.106 33.369c-.445.536-.751.434-.851.4-1.525-.509-3.005-6.791-3.079-8.286-.086-1.721.33-2.92 1.238-3.564 1.473-1.044 3.885-.427 4.872-.107a.371.371 0 0 0-.029.027 6.961 6.961 0 0 0-1.569 4.57c0 .06 0 .159.013.29a11.492 11.492 0 0 1-.059 2.317 2.942 2.942 0 0 0 .776 2.464c.062.065.133.115.2.173a41.5 41.5 0 0 0-1.512 1.716zm1.737-2.293a2.36 2.36 0 0 1-.618-1.976 12.037 12.037 0 0 0 .063-2.433c0-.066-.008-.122-.009-.168a3.075 3.075 0 0 1 2.088-.605.831.831 0 0 1 .646.726 5.135 5.135 0 0 1-.262 3.755c-.067.15-.131.292-.184.435l-.042.112a7.557 7.557 0 0 0-.262.788 1.994 1.994 0 0 1-1.42-.634zm.076 2.894a1.224 1.224 0 0 1-.353-.148 1.956 1.956 0 0 1 .377-.109c1.024-.21 1.181-.359 1.527-.8.077-.1.167-.212.292-.351.178-.2.255-.168.408-.1a.581.581 0 0 1 .286.369.405.405 0 0 1-.034.342 2.213 2.213 0 0 1-2.503.797zm5.329 4.965a1.512 1.512 0 0 1-1.965-1.089 22.423 22.423 0 0 1-.214-4.922v-.039a.327.327 0 0 0-.014-.077 1.215 1.215 0 0 0-.026-.142 1.153 1.153 0 0 0-.627-.751.907.907 0 0 0-.555-.073 6.956 6.956 0 0 1 .236-.714l.043-.114c.048-.13.107-.26.169-.4a5.71 5.71 0 0 0 .3-4.121 1.5 1.5 0 0 0-1.788-1.21 4.357 4.357 0 0 0-1.5.5 5.891 5.891 0 0 1 1.373-3.533 3.35 3.35 0 0 1 2.478-.957h.079a5.751 5.751 0 0 1 5.275 3.907c-1.06-.108-1.756.1-2.125.626-.793 1.134.385 3.245 1.017 4.38.111.2.2.349.229.43a3.966 3.966 0 0 0 .62 1c.052.064.1.125.14.18-.307.091-.872.325-.829 1.355-.039.516-.338 3.009-.494 3.917a1.922 1.922 0 0 1-1.822 1.847zm5.2-5.957a3.846 3.846 0 0 1-2.3.2c-.038-.672.205-.74.464-.812.027-.008.067-.019.111-.035.023.018.049.036.076.055a3.423 3.423 0 0 0 2.414.106 3.209 3.209 0 0 1-.761.486z" fill="#fff"/>
    <g>
        <path d="M43.631 28.78a2.609 2.609 0 0 1-.75 1.979 2.855 2.855 0 0 1-2.055.716h-3.47l.009 3.983-.943.015v-9.365l4.666-.016a2.423 2.423 0 0 1 1.869.716 2.773 2.773 0 0 1 .674 1.979m-.952.034q0-1.971-1.886-1.971l-3.436-.015v3.9h3.259q2.063 0 2.063-1.921M50.46 32.393a3 3 0 0 1-3.335 3.284 4.06 4.06 0 0 1-1.4-.218 2.765 2.765 0 0 1-1.036-.708 3.4 3.4 0 0 1-.809-2.358 3.321 3.321 0 0 1 .784-2.325 3.144 3.144 0 0 1 2.459-.96 3 3 0 0 1 3.335 3.285m-.817 0q0-2.619-2.518-2.619a2.2 2.2 0 0 0-2.264 1.526 3.476 3.476 0 0 0-.16 1.1 2.818 2.818 0 0 0 .624 1.92 2.288 2.288 0 0 0 1.8.708 2.409 2.409 0 0 0 1.928-.733 2.028 2.028 0 0 0 .447-.8 3.8 3.8 0 0 0 .143-1.095M57.049 33.766q0 1.895-2.839 1.9a6.773 6.773 0 0 1-1.465-.135 2.306 2.306 0 0 1-.96-.438 1.577 1.577 0 0 1-.455-.6 2.984 2.984 0 0 1-.219-.935l.876-.014a1.286 1.286 0 0 0 .463 1.094 2.772 2.772 0 0 0 1.76.422q1.987 0 1.988-1.188a.952.952 0 0 0-.665-.952 15.465 15.465 0 0 0-1.609-.269 8.846 8.846 0 0 1-1.824-.391 1.35 1.35 0 0 1-.784-1.339 1.572 1.572 0 0 1 .7-1.406 2.936 2.936 0 0 1 .859-.3 5.991 5.991 0 0 1 1.2-.109q2.729 0 2.728 2.046h-.833q0-1.44-1.921-1.44a2.849 2.849 0 0 0-1.457.3.966.966 0 0 0-.48.893.846.846 0 0 0 .649.808 10.651 10.651 0 0 0 1.743.3 5.371 5.371 0 0 1 1.676.371 1.4 1.4 0 0 1 .868 1.373M60.869 35.484a3.976 3.976 0 0 1-.363.059 1.424 1.424 0 0 1-.219.016 2.043 2.043 0 0 1-1.238-.295 1.279 1.279 0 0 1-.379-1.052v-4.254h-1.044v-.631h1.036l.009-2.03h.8v2.038l1.4-.014v.64l-1.4-.015v4.135a.823.823 0 0 0 .2.64 1.174 1.174 0 0 0 .741.177.688.688 0 0 0 .169-.015c.061-.015.154-.031.278-.059l.008.64M67.417 35.273q0 2.8-3.141 2.8a3.859 3.859 0 0 1-2.333-.539 2.141 2.141 0 0 1-.733-1.49l.825-.015a1.677 1.677 0 0 0 .522 1.044 2.791 2.791 0 0 0 1.693.4 2.423 2.423 0 0 0 1.811-.573 2.235 2.235 0 0 0 .556-1.625l-.009-1.1a2.809 2.809 0 0 1-2.569 1.187 3.157 3.157 0 0 1-2.333-.825 2.748 2.748 0 0 1-.581-.977 4.175 4.175 0 0 1-.193-1.322 3.071 3.071 0 0 1 .783-2.266 3.166 3.166 0 0 1 2.392-.859 3.1 3.1 0 0 1 1.743.447 5.538 5.538 0 0 1 .758.817l.009-1.062h.8v5.955m-.8-3.066A2.472 2.472 0 0 0 66 30.441a2.3 2.3 0 0 0-1.785-.665 2.251 2.251 0 0 0-2.46 2.459 2.211 2.211 0 0 0 2.518 2.484 2.6 2.6 0 0 0 .969-.168 2.209 2.209 0 0 0 .75-.5 2.57 2.57 0 0 0 .623-1.853M72.076 29.951a3.7 3.7 0 0 0-.674-.068q-1.98 0-1.979 2.585l.009 2.99h-.8l-.009-6.123.8-.015v1.1h.042a1.87 1.87 0 0 1 .64-.977 2.594 2.594 0 0 1 1.432-.32h.32a.985.985 0 0 1 .219.014v.809M78.669 32.561H72.95a2.513 2.513 0 0 0 .582 1.718 2.416 2.416 0 0 0 1.928.775 2.065 2.065 0 0 0 2.224-1.592h.867a2.72 2.72 0 0 1-.918 1.533 3 3 0 0 1-.968.506 3.7 3.7 0 0 1-1.2.185 3.242 3.242 0 0 1-2.519-.977 3.312 3.312 0 0 1-.825-2.367A3.162 3.162 0 0 1 72.984 30a3.252 3.252 0 0 1 2.417-.867 3.974 3.974 0 0 1 1.457.244 2.5 2.5 0 0 1 1.045.733 3.644 3.644 0 0 1 .766 2.45m-.842-.556a2.213 2.213 0 0 0-.682-1.583 2.316 2.316 0 0 0-1.744-.7 2.71 2.71 0 0 0-.985.169 2.169 2.169 0 0 0-.783.5 2.933 2.933 0 0 0-.683 1.617h4.877" fill="#1a1a1a"/>
        <path d="M89.143 32.978q0 3.3-4.441 3.3a5.6 5.6 0 0 1-3.885-1.133 3.69 3.69 0 0 1-1-2.833h1.193q0 3.066 3.692 3.066a4.082 4.082 0 0 0 2.559-.638 2.105 2.105 0 0 0 .668-1.729 1.7 1.7 0 0 0-.91-1.649 13.135 13.135 0 0 0-2.519-.638 11.088 11.088 0 0 1-3.268-.92 2.484 2.484 0 0 1-1.082-2.286 2.687 2.687 0 0 1 .92-2.246 5.458 5.458 0 0 1 3.4-.81q4.35 0 4.35 3.45h-1.2q0-2.58-3.227-2.58a4.247 4.247 0 0 0-2.367.516 1.947 1.947 0 0 0-.708 1.629 1.638 1.638 0 0 0 .911 1.588 14.462 14.462 0 0 0 2.852.729 8.752 8.752 0 0 1 3.005.93 2.442 2.442 0 0 1 1.062 2.256M100.965 36.246l-.729.789-1.76-1.467a4.275 4.275 0 0 1-1.356.536 8.513 8.513 0 0 1-1.871.182 5.768 5.768 0 0 1-4.33-1.629 5.936 5.936 0 0 1-1.578-4.3 5.9 5.9 0 0 1 1.568-4.32 5.776 5.776 0 0 1 4.32-1.6 6.979 6.979 0 0 1 2.519.425 4.8 4.8 0 0 1 1.881 1.3 5.945 5.945 0 0 1 1.457 4.2 6.99 6.99 0 0 1-.445 2.59 4.73 4.73 0 0 1-1.376 1.892l1.7 1.406m-1.022-5.888a6.233 6.233 0 0 0-.314-2.054 4.232 4.232 0 0 0-.971-1.588 4.36 4.36 0 0 0-3.419-1.386 4.626 4.626 0 0 0-3.45 1.325 5.077 5.077 0 0 0-1.3 3.7A5.1 5.1 0 0 0 91.8 34.02a4.557 4.557 0 0 0 3.44 1.366 5.187 5.187 0 0 0 1.881-.324 4.522 4.522 0 0 0 1.508-.961 5.2 5.2 0 0 0 1.315-3.743M109.99 35.983l-8.144.017V24.748l1.123-.02v10.318H110l-.01.941" fill="#316192"/>
    </g>
</svg>
