<svg xmlns="http://www.w3.org/2000/svg" width="120" height="60">
    <defs>
        <linearGradient id="a" x1="52.906" y1="-119.771" x2="75.867" y2="-139.526" gradientTransform="matrix(.563 0 0 -.568 -20.336 -48.858)" gradientUnits="userSpaceOnUse">
            <stop offset="0" stop-color="#5a9fd4"/>
            <stop offset="1" stop-color="#306998"/>
        </linearGradient>
        <linearGradient id="b" x1="84.743" y1="-151.482" x2="76.544" y2="-139.881" gradientTransform="matrix(.563 0 0 -.568 -20.336 -48.858)" gradientUnits="userSpaceOnUse">
            <stop offset="0" stop-color="#ffd43b"/>
            <stop offset="1" stop-color="#ffe873"/>
        </linearGradient>
        <radialGradient id="c" cx="139.491" cy="-82.393" r="6.116" gradientTransform="matrix(0 -.24 -1.055 0 -65.141 78.86)" gradientUnits="userSpaceOnUse">
            <stop offset="0" stop-color="#b8b8b8" stop-opacity=".498"/>
            <stop offset="1" stop-color="#7f7f7f" stop-opacity="0"/>
        </radialGradient>
    </defs>
    <path d="M47.705 30.19q0-4.6-2.624-4.727a4.933 4.933 0 0 0-2.036.334 2.99 2.99 0 0 0-1.07.565v7.32a5.2 5.2 0 0 0 2.979.977q2.746-.182 2.751-4.469zm2.157.128a6.507 6.507 0 0 1-1.1 3.88 4.06 4.06 0 0 1-3.406 1.8 6.038 6.038 0 0 1-3.381-1.027v6.654l-1.876-.67V26.183a4.189 4.189 0 0 1 1.184-.977 8.135 8.135 0 0 1 4.071-1l.027.027a3.735 3.735 0 0 1 3.375 1.8 7.637 7.637 0 0 1 1.106 4.285zM61.33 34.684a10.376 10.376 0 0 1-.629 4.342 4.42 4.42 0 0 1-2.4 1.925 9.181 9.181 0 0 1-3.109.618l-.309-1.182a14.926 14.926 0 0 0 2.389-.462 3.157 3.157 0 0 0 1.876-1.412 7.092 7.092 0 0 0 .411-2.954v-.489a9.641 9.641 0 0 1-4.034.872 3.708 3.708 0 0 1-2.441-.872 2.968 2.968 0 0 1-1.184-2.414v-7.809l1.876-.643v7.861a2.39 2.39 0 0 0 .813 1.94 3.072 3.072 0 0 0 2.1.654 5.262 5.262 0 0 0 2.761-1v-9.172h1.88zM68.654 35.891a7.28 7.28 0 0 1-.618.027 3.691 3.691 0 0 1-2.479-.76 2.622 2.622 0 0 1-.885-2.1v-7.39h-1.285v-1.181h1.285v-3.134l1.874-.668v3.8h2.108v1.181h-2.108v7.339a1.775 1.775 0 0 0 .567 1.494 2.855 2.855 0 0 0 1.541.413zM80.015 35.737h-1.876V28.5a3.421 3.421 0 0 0-.516-1.9 1.874 1.874 0 0 0-1.652-.9 6.088 6.088 0 0 0-3.227 1.362v8.681h-1.877V18.425l1.877-.591v7.885a6.54 6.54 0 0 1 3.931-1.31 3.133 3.133 0 0 1 2.414 1 3.528 3.528 0 0 1 .926 2.492v7.834zM89.988 29.9a5.772 5.772 0 0 0-.669-2.922 2.8 2.8 0 0 0-2.466-1.484q-3.085.178-3.083 4.418a7.274 7.274 0 0 0 .644 3.246 2.593 2.593 0 0 0 2.476 1.634q3.098-.03 3.098-4.892zm2.055.012a6.676 6.676 0 0 1-1.285 4.188 4.623 4.623 0 0 1-3.905 1.874A4.53 4.53 0 0 1 83 34.1a6.763 6.763 0 0 1-1.259-4.188 5.981 5.981 0 0 1 1.359-3.988 4.693 4.693 0 0 1 3.778-1.72 4.769 4.769 0 0 1 3.8 1.72 5.981 5.981 0 0 1 1.365 3.983zM102.8 35.737h-1.876v-7.653a2.561 2.561 0 0 0-.758-1.967 2.749 2.749 0 0 0-2.018-.679 4.507 4.507 0 0 0-2.543.872v9.427h-1.877v-9.659a9.247 9.247 0 0 1 2.981-1.539 9.088 9.088 0 0 1 2.262-.335 5.89 5.89 0 0 1 1.259.129 3.626 3.626 0 0 1 1.8.951 2.516 2.516 0 0 1 .772 1.85z" fill="#646464"/>
    <path d="M21.567 18.5a16.026 16.026 0 0 0-2.7.23c-2.389.422-2.823 1.306-2.823 2.935v2.153h5.647v.717h-7.766a3.524 3.524 0 0 0-3.525 2.858 10.545 10.545 0 0 0 0 5.739c.4 1.672 1.36 2.863 3 2.863h1.94v-2.58a3.589 3.589 0 0 1 3.528-3.508h5.641a2.845 2.845 0 0 0 2.823-2.869V21.66a3.152 3.152 0 0 0-2.823-2.935 17.506 17.506 0 0 0-2.942-.225zm-3.054 1.731a1.076 1.076 0 1 1-1.06 1.079 1.071 1.071 0 0 1 1.06-1.084z" fill="url(#a)"/>
    <path d="M28.037 24.53v2.508a3.622 3.622 0 0 1-3.528 3.58h-5.641a2.88 2.88 0 0 0-2.823 2.87v5.377c0 1.53 1.33 2.431 2.823 2.87a9.459 9.459 0 0 0 5.641 0c1.421-.412 2.823-1.24 2.823-2.87v-2.152h-5.64v-.718h8.464c1.641 0 2.253-1.144 2.823-2.863a9.683 9.683 0 0 0 0-5.739c-.405-1.634-1.18-2.863-2.823-2.863zm-3.173 13.618A1.076 1.076 0 1 1 23.8 39.22a1.065 1.065 0 0 1 1.064-1.072z" fill="url(#b)"/>
    <path d="M106.454 22.815h.329v-2.064h.779v-.246h-1.888v.246h.78v2.064m1.4 0h.281V20.93l.61 1.884h.313l.635-1.877v1.878H110v-2.31h-.406l-.694 1.979-.593-1.979h-.453v2.31" fill="#646464"/>
    <path d="M29.323 45.39c0 .81-3.388 1.467-7.567 1.467s-7.568-.657-7.568-1.467 3.388-1.467 7.568-1.467 7.567.657 7.567 1.467z" opacity=".444" fill="url(#c)" style="isolation:isolate"/>
</svg>
