<svg width="120" height="71" viewBox="0 0 120 71" fill="none" xmlns="http://www.w3.org/2000/svg">
<path d="M44.17 32.1325C43.9725 32.73 43.8375 33.33 43.715 33.91L44.9425 34.9425C45.0025 34.3125 45.11 33.6825 45.26 33.0525L44.17 32.1325ZM43.4875 38.0175C43.5175 38.875 43.5925 39.57 43.67 40.055L45.4875 40.75C45.35 40.12 45.215 39.4075 45.125 38.6475L43.4875 38.0175ZM37.0775 26.2325L36.0025 25.23C35.6075 25.635 35.23 26.0375 34.8825 26.4425L36.05 27.5075C36.3675 27.07 36.7175 26.635 37.08 26.23L37.0775 26.2325ZM47.5375 28.725L46.855 27.625C46.5075 27.965 46.1875 28.335 45.915 28.7075L46.6425 29.87C46.9 29.465 47.2025 29.0925 47.5375 28.725ZM49.1125 19.735L48.81 18.75C48.34 18.75 47.855 18.7825 47.355 18.8475L47.6425 19.8C48.0825 19.7525 48.5225 19.735 48.96 19.735H49.1125ZM42.1225 20.3175C41.7425 20.5275 41.35 20.755 40.94 21.01L41.6375 22.1425C42.0325 21.885 42.41 21.6425 42.805 21.4325L42.1225 20.3175ZM32.5 33.4575L30.7575 32.7775C30.47 33.4725 30.1525 34.2825 30 34.7175L31.7425 35.395C31.94 34.845 32.2575 34.055 32.5 33.4575Z" fill="#C70B00"/>
<path d="M56.0675 20.2675C55.93 20.1875 55.5525 19.9925 54.5975 19.7025L54.535 20.77C55.035 20.9475 55.52 21.1425 56.005 21.35V21.3525L56.0675 20.2675Z" fill="#C70B00"/>
<path d="M56.0675 24.9875C55.5525 24.875 55.0525 24.81 54.5675 24.7775V24.78L54.5075 25.7975C55.0075 25.8125 55.5075 25.8775 56.0075 25.99L56.0675 24.9875ZM51.3525 26.235L51.02 25.17C50.505 25.33 50.065 25.51 49.6875 25.6875L50.035 26.8025C50.475 26.575 50.915 26.38 51.3525 26.235ZM49.325 41.25H52.2375V38.47L54.75 41.25H59.055L55.6725 37.615V37.6125C55.6725 37.6125 58.3275 37.3725 58.3275 33.72C58.3275 30.065 55.1125 29.725 55.1125 29.725H49.325V41.25ZM52.2325 32.6175H54.5675C54.5675 32.6175 55.22 32.8775 55.22 33.9275C55.22 34.98 54.5525 35.2525 54.5525 35.2525H52.2325V32.6175Z" fill="#C70B00"/>
<path d="M74.0125 29.805V41.2475H81.21V38.2925H77.0725V29.805H74.0125Z" fill="#C70B00"/>
<path d="M72.7525 41.2475V29.805H69.6775V41.2475H72.7525Z" fill="#C70B00"/>
<path d="M65.5075 29.805H62.5525C60.4475 29.805 59.7325 31.84 59.7325 32.8125V41.25H62.6875V39.23H65.46V41.25H68.3225V32.8125C68.3275 30.3575 66.235 29.805 65.5075 29.805ZM62.675 35.9625V33.165C62.675 33.165 62.675 32.535 63.6 32.535H64.615C65.4325 32.535 65.4475 33.165 65.4475 33.165V35.9625H62.675ZM89.6075 32.7475V29.805H84.91C83.6975 29.805 82.0775 30.8725 82.0775 32.8625V33.88C82.0775 35.8675 83.6825 36.885 84.91 36.885C85.7 36.89 86.0725 36.89 86.2275 36.8925C85.99 36.89 85.5425 36.885 87.2425 36.885V38.31L82.2275 38.325V41.25H87.1825C88.1975 41.25 89.9425 40.4575 90.0025 38.2425V37.1125C90.0025 35.22 88.5475 34.105 87.1825 34.105H84.7125V32.7475H89.6075V32.7475Z" fill="#C70B00"/>
<path d="M58.05 35.5275H49.325V41.25H52.2375V38.47L54.75 41.25H59.055L55.6725 37.615V37.6125C55.675 37.6125 57.37 37.4575 58.05 35.5275Z" fill="#AD0A00"/>
<path d="M77.0725 35.5275H74.0125V41.2475H81.21V38.2925H77.0725V35.5275Z" fill="#AD0A00"/>
<path d="M72.7525 35.5275H69.6775V41.2475H72.7525V35.5275Z" fill="#AD0A00"/>
<path d="M68.3275 35.5275H65.45V35.9625H62.675V35.5275H59.735V41.25H62.69V39.23H65.465V41.25H68.3275V35.5275Z" fill="#AD0A00"/>
<path d="M86.1425 36.8925C86.17 36.8925 86.2 36.8925 86.2275 36.8925C86.2025 36.8925 86.175 36.8925 86.1425 36.8925ZM89.5925 35.5275H82.5275C83.0925 36.4275 84.085 36.885 84.9075 36.885C85.5825 36.89 85.95 36.89 86.14 36.8925C85.9125 36.89 85.73 36.885 87.24 36.885V38.31L82.225 38.325V41.25H87.18C88.195 41.25 89.94 40.4575 90 38.2425V37.1125C90 36.4975 89.8475 35.965 89.5925 35.5275Z" fill="#AD0A00"/>
<path d="M31.17 40.4575C31.0875 40.955 31.0575 41.245 31.0575 41.245L31.06 41.2475H43.0325C43.0325 41.2475 40.745 30.1125 48.32 25.6C49.975 24.7425 55.2325 21.5425 63.84 28.3325C64.115 28.09 64.3725 27.8925 64.3725 27.8925C64.3725 27.8925 56.49 19.505 47.715 20.44C43.2875 20.86 37.865 25.145 34.6825 30.8025C32.2625 35.1 31.4325 38.8825 31.17 40.4575Z" fill="#C70B00"/>
<path d="M46.0575 20.7625C42 21.9275 37.4775 25.835 34.68 30.8025C32.2625 35.1 31.43 38.88 31.17 40.455C31.0875 40.9525 31.0575 41.2425 31.0575 41.2425L31.06 41.245H43.0325C43.0325 41.245 41.245 32.5525 46.0575 27.415V20.7625Z" fill="#AD0A00"/>
<path d="M7.2 54.19C6.72667 54.19 6.31667 54.11 5.97 53.95C5.63 53.79 5.34333 53.5767 5.11 53.31C4.88333 53.0433 4.71333 52.7433 4.6 52.41C4.48667 52.0767 4.43 51.7367 4.43 51.39V51.2C4.43 50.8333 4.48667 50.4833 4.6 50.15C4.72 49.81 4.89667 49.51 5.13 49.25C5.36333 48.9833 5.65 48.7733 5.99 48.62C6.33667 48.46 6.73667 48.38 7.19 48.38C7.66333 48.38 8.08667 48.4733 8.46 48.66C8.83333 48.84 9.13 49.0933 9.35 49.42C9.57667 49.7467 9.70333 50.1267 9.73 50.56H8.38C8.34667 50.28 8.22667 50.0467 8.02 49.86C7.82 49.6733 7.54333 49.58 7.19 49.58C6.88333 49.58 6.62667 49.6533 6.42 49.8C6.22 49.9467 6.07 50.15 5.97 50.41C5.87 50.6633 5.82 50.9567 5.82 51.29C5.82 51.61 5.86667 51.9 5.96 52.16C6.06 52.42 6.21 52.6233 6.41 52.77C6.61667 52.9167 6.88 52.99 7.2 52.99C7.44 52.99 7.64667 52.9467 7.82 52.86C7.99333 52.7733 8.13 52.6533 8.23 52.5C8.33667 52.3467 8.40333 52.1733 8.43 51.98H9.78C9.75333 52.42 9.62333 52.8067 9.39 53.14C9.16333 53.4667 8.86 53.7233 8.48 53.91C8.10667 54.0967 7.68 54.19 7.2 54.19ZM13.5035 54.19C13.0235 54.19 12.6002 54.1133 12.2335 53.96C11.8668 53.8067 11.5568 53.6 11.3035 53.34C11.0502 53.0733 10.8568 52.7733 10.7235 52.44C10.5968 52.1067 10.5335 51.76 10.5335 51.4V51.19C10.5335 50.8167 10.6002 50.4633 10.7335 50.13C10.8735 49.79 11.0702 49.49 11.3235 49.23C11.5835 48.9633 11.8968 48.7567 12.2635 48.61C12.6302 48.4567 13.0435 48.38 13.5035 48.38C13.9635 48.38 14.3768 48.4567 14.7435 48.61C15.1102 48.7567 15.4202 48.9633 15.6735 49.23C15.9335 49.49 16.1302 49.79 16.2635 50.13C16.3968 50.4633 16.4635 50.8167 16.4635 51.19V51.4C16.4635 51.76 16.3968 52.1067 16.2635 52.44C16.1368 52.7733 15.9468 53.0733 15.6935 53.34C15.4402 53.6 15.1302 53.8067 14.7635 53.96C14.3968 54.1133 13.9768 54.19 13.5035 54.19ZM13.5035 53C13.8435 53 14.1302 52.9267 14.3635 52.78C14.5968 52.6267 14.7735 52.4233 14.8935 52.17C15.0135 51.91 15.0735 51.6167 15.0735 51.29C15.0735 50.9567 15.0102 50.6633 14.8835 50.41C14.7635 50.15 14.5835 49.9467 14.3435 49.8C14.1102 49.6467 13.8302 49.57 13.5035 49.57C13.1768 49.57 12.8935 49.6467 12.6535 49.8C12.4202 49.9467 12.2402 50.15 12.1135 50.41C11.9868 50.6633 11.9235 50.9567 11.9235 51.29C11.9235 51.6167 11.9835 51.91 12.1035 52.17C12.2302 52.4233 12.4102 52.6267 12.6435 52.78C12.8768 52.9267 13.1635 53 13.5035 53ZM17.6806 54V48.57H18.7806V50.9H18.6806C18.6806 50.3467 18.754 49.8867 18.9006 49.52C19.0473 49.1467 19.264 48.8667 19.5506 48.68C19.844 48.4933 20.2073 48.4 20.6406 48.4H20.7006C21.3473 48.4 21.8373 48.61 22.1706 49.03C22.504 49.4433 22.6706 50.0633 22.6706 50.89V54H21.2806V50.77C21.2806 50.4367 21.184 50.1667 20.9906 49.96C20.804 49.7533 20.544 49.65 20.2106 49.65C19.8706 49.65 19.594 49.7567 19.3806 49.97C19.174 50.1767 19.0706 50.4567 19.0706 50.81V54H17.6806ZM26.135 54.17C25.3883 54.17 24.8017 54.0133 24.375 53.7C23.955 53.38 23.735 52.94 23.715 52.38H24.965C24.985 52.5667 25.0883 52.7367 25.275 52.89C25.4617 53.0433 25.755 53.12 26.155 53.12C26.4883 53.12 26.7517 53.06 26.945 52.94C27.145 52.82 27.245 52.6567 27.245 52.45C27.245 52.27 27.1683 52.1267 27.015 52.02C26.8683 51.9133 26.615 51.8433 26.255 51.81L25.775 51.76C25.1683 51.6933 24.7017 51.52 24.375 51.24C24.0483 50.96 23.885 50.5867 23.885 50.12C23.885 49.7467 23.9783 49.4333 24.165 49.18C24.3517 48.9267 24.6083 48.7367 24.935 48.61C25.2683 48.4767 25.6483 48.41 26.075 48.41C26.7417 48.41 27.2817 48.5567 27.695 48.85C28.1083 49.1433 28.325 49.5733 28.345 50.14H27.095C27.0817 49.9533 26.9883 49.7933 26.815 49.66C26.6417 49.5267 26.3917 49.46 26.065 49.46C25.7717 49.46 25.545 49.5167 25.385 49.63C25.225 49.7433 25.145 49.89 25.145 50.07C25.145 50.2433 25.2083 50.3767 25.335 50.47C25.4683 50.5633 25.6817 50.6267 25.975 50.66L26.455 50.71C27.095 50.7767 27.595 50.9533 27.955 51.24C28.3217 51.5267 28.505 51.9133 28.505 52.4C28.505 52.76 28.405 53.0733 28.205 53.34C28.0117 53.6 27.7383 53.8033 27.385 53.95C27.0317 54.0967 26.615 54.17 26.135 54.17ZM32.2633 54.19C31.7833 54.19 31.3599 54.1133 30.9933 53.96C30.6266 53.8067 30.3166 53.6 30.0633 53.34C29.8099 53.0733 29.6166 52.7733 29.4833 52.44C29.3566 52.1067 29.2933 51.76 29.2933 51.4V51.19C29.2933 50.8167 29.3599 50.4633 29.4933 50.13C29.6333 49.79 29.8299 49.49 30.0833 49.23C30.3433 48.9633 30.6566 48.7567 31.0233 48.61C31.3899 48.4567 31.8033 48.38 32.2633 48.38C32.7233 48.38 33.1366 48.4567 33.5033 48.61C33.8699 48.7567 34.1799 48.9633 34.4333 49.23C34.6933 49.49 34.8899 49.79 35.0233 50.13C35.1566 50.4633 35.2233 50.8167 35.2233 51.19V51.4C35.2233 51.76 35.1566 52.1067 35.0233 52.44C34.8966 52.7733 34.7066 53.0733 34.4533 53.34C34.1999 53.6 33.8899 53.8067 33.5233 53.96C33.1566 54.1133 32.7366 54.19 32.2633 54.19ZM32.2633 53C32.6033 53 32.8899 52.9267 33.1233 52.78C33.3566 52.6267 33.5333 52.4233 33.6533 52.17C33.7733 51.91 33.8333 51.6167 33.8333 51.29C33.8333 50.9567 33.7699 50.6633 33.6433 50.41C33.5233 50.15 33.3433 49.9467 33.1033 49.8C32.8699 49.6467 32.5899 49.57 32.2633 49.57C31.9366 49.57 31.6533 49.6467 31.4133 49.8C31.1799 49.9467 30.9999 50.15 30.8733 50.41C30.7466 50.6633 30.6833 50.9567 30.6833 51.29C30.6833 51.6167 30.7433 51.91 30.8633 52.17C30.9899 52.4233 31.1699 52.6267 31.4033 52.78C31.6366 52.9267 31.9233 53 32.2633 53ZM36.5104 54V46.7H37.9004V54H36.5104ZM35.8304 47.74V46.7H37.9004V47.74H35.8304ZM41.9173 54.19C41.4506 54.19 41.0406 54.11 40.6873 53.95C40.3406 53.79 40.0506 53.5767 39.8173 53.31C39.5906 53.0367 39.4173 52.7333 39.2973 52.4C39.1839 52.0667 39.1273 51.7267 39.1273 51.38V51.19C39.1273 50.83 39.1839 50.4833 39.2973 50.15C39.4173 49.81 39.5906 49.51 39.8173 49.25C40.0506 48.9833 40.3373 48.7733 40.6773 48.62C41.0173 48.46 41.4106 48.38 41.8573 48.38C42.4439 48.38 42.9339 48.51 43.3273 48.77C43.7273 49.0233 44.0273 49.36 44.2273 49.78C44.4273 50.1933 44.5273 50.64 44.5273 51.12V51.62H39.7173V50.77H43.6573L43.2273 51.19C43.2273 50.8433 43.1773 50.5467 43.0773 50.3C42.9773 50.0533 42.8239 49.8633 42.6173 49.73C42.4173 49.5967 42.1639 49.53 41.8573 49.53C41.5506 49.53 41.2906 49.6 41.0773 49.74C40.8639 49.88 40.7006 50.0833 40.5873 50.35C40.4806 50.61 40.4273 50.9233 40.4273 51.29C40.4273 51.63 40.4806 51.9333 40.5873 52.2C40.6939 52.46 40.8573 52.6667 41.0773 52.82C41.2973 52.9667 41.5773 53.04 41.9173 53.04C42.2573 53.04 42.5339 52.9733 42.7473 52.84C42.9606 52.7 43.0973 52.53 43.1573 52.33H44.4373C44.3573 52.7033 44.2039 53.03 43.9773 53.31C43.7506 53.59 43.4606 53.8067 43.1073 53.96C42.7606 54.1133 42.3639 54.19 41.9173 54.19ZM47.5666 51.8V50.58H51.6166V51.8H47.5666ZM58.8732 54L57.0532 51.46H56.2432L58.5532 48.57H60.0032L57.8732 51.24L57.9032 50.54L60.4432 54H58.8732ZM55.0732 54V46.7H56.4632V54H55.0732ZM63.0267 54.17C62.4001 54.17 61.9134 53.9633 61.5667 53.55C61.2267 53.1367 61.0567 52.5233 61.0567 51.71V48.56H62.4467V51.83C62.4467 52.1633 62.5401 52.43 62.7267 52.63C62.9134 52.8233 63.1667 52.92 63.4867 52.92C63.8067 52.92 64.0667 52.8167 64.2667 52.61C64.4734 52.4033 64.5767 52.1233 64.5767 51.77V48.56H65.9667V54H64.8667V51.69H64.9767C64.9767 52.2367 64.9067 52.6933 64.7667 53.06C64.6267 53.4267 64.4167 53.7033 64.1367 53.89C63.8567 54.0767 63.5067 54.17 63.0867 54.17H63.0267ZM70.7534 54.18C70.3068 54.18 69.9134 54.0867 69.5734 53.9C69.2334 53.7067 68.9668 53.4267 68.7734 53.06C68.5801 52.6933 68.4734 52.25 68.4534 51.73H68.6634V54H67.5634V46.7H68.9534V50.35L68.5834 50.92C68.6101 50.36 68.7201 49.8933 68.9134 49.52C69.1134 49.1467 69.3801 48.8667 69.7134 48.68C70.0468 48.4933 70.4234 48.4 70.8434 48.4C71.2168 48.4 71.5568 48.47 71.8634 48.61C72.1701 48.75 72.4334 48.9467 72.6534 49.2C72.8734 49.4467 73.0401 49.7367 73.1534 50.07C73.2734 50.4033 73.3334 50.7667 73.3334 51.16V51.37C73.3334 51.7633 73.2734 52.13 73.1534 52.47C73.0334 52.81 72.8601 53.11 72.6334 53.37C72.4068 53.6233 72.1334 53.8233 71.8134 53.97C71.5001 54.11 71.1468 54.18 70.7534 54.18ZM70.4434 53.01C70.7434 53.01 71.0034 52.9367 71.2234 52.79C71.4501 52.6367 71.6268 52.43 71.7534 52.17C71.8801 51.91 71.9434 51.61 71.9434 51.27C71.9434 50.9233 71.8801 50.6233 71.7534 50.37C71.6268 50.1167 71.4501 49.92 71.2234 49.78C71.0034 49.64 70.7434 49.57 70.4434 49.57C70.1701 49.57 69.9168 49.63 69.6834 49.75C69.4568 49.87 69.2701 50.0467 69.1234 50.28C68.9834 50.5133 68.9134 50.7933 68.9134 51.12V51.52C68.9134 51.8333 68.9868 52.1 69.1334 52.32C69.2801 52.54 69.4701 52.71 69.7034 52.83C69.9368 52.95 70.1834 53.01 70.4434 53.01ZM76.9856 54.19C76.519 54.19 76.109 54.11 75.7556 53.95C75.409 53.79 75.119 53.5767 74.8856 53.31C74.659 53.0367 74.4856 52.7333 74.3656 52.4C74.2523 52.0667 74.1956 51.7267 74.1956 51.38V51.19C74.1956 50.83 74.2523 50.4833 74.3656 50.15C74.4856 49.81 74.659 49.51 74.8856 49.25C75.119 48.9833 75.4056 48.7733 75.7456 48.62C76.0856 48.46 76.479 48.38 76.9256 48.38C77.5123 48.38 78.0023 48.51 78.3956 48.77C78.7956 49.0233 79.0956 49.36 79.2956 49.78C79.4956 50.1933 79.5956 50.64 79.5956 51.12V51.62H74.7856V50.77H78.7256L78.2956 51.19C78.2956 50.8433 78.2456 50.5467 78.1456 50.3C78.0456 50.0533 77.8923 49.8633 77.6856 49.73C77.4856 49.5967 77.2323 49.53 76.9256 49.53C76.619 49.53 76.359 49.6 76.1456 49.74C75.9323 49.88 75.769 50.0833 75.6556 50.35C75.549 50.61 75.4956 50.9233 75.4956 51.29C75.4956 51.63 75.549 51.9333 75.6556 52.2C75.7623 52.46 75.9256 52.6667 76.1456 52.82C76.3656 52.9667 76.6456 53.04 76.9856 53.04C77.3256 53.04 77.6023 52.9733 77.8156 52.84C78.029 52.7 78.1656 52.53 78.2256 52.33H79.5056C79.4256 52.7033 79.2723 53.03 79.0456 53.31C78.819 53.59 78.529 53.8067 78.1756 53.96C77.829 54.1133 77.4323 54.19 76.9856 54.19ZM80.7568 54V48.57H81.8568V50.87H81.8268C81.8268 50.09 81.9935 49.5 82.3268 49.1C82.6601 48.7 83.1501 48.5 83.7968 48.5H83.9968V49.71H83.6168C83.1501 49.71 82.7868 49.8367 82.5268 50.09C82.2735 50.3367 82.1468 50.6967 82.1468 51.17V54H80.7568ZM84.9267 54V48.57H86.0267V50.9H85.9267C85.9267 50.3467 86.0001 49.8867 86.1467 49.52C86.2934 49.1467 86.5101 48.8667 86.7967 48.68C87.0901 48.4933 87.4534 48.4 87.8867 48.4H87.9467C88.5934 48.4 89.0834 48.61 89.4167 49.03C89.7501 49.4433 89.9167 50.0633 89.9167 50.89V54H88.5267V50.77C88.5267 50.4367 88.4301 50.1667 88.2367 49.96C88.0501 49.7533 87.7901 49.65 87.4567 49.65C87.1167 49.65 86.8401 49.7567 86.6267 49.97C86.4201 50.1767 86.3167 50.4567 86.3167 50.81V54H84.9267ZM93.8411 54.19C93.3744 54.19 92.9644 54.11 92.6111 53.95C92.2644 53.79 91.9744 53.5767 91.7411 53.31C91.5144 53.0367 91.3411 52.7333 91.2211 52.4C91.1078 52.0667 91.0511 51.7267 91.0511 51.38V51.19C91.0511 50.83 91.1078 50.4833 91.2211 50.15C91.3411 49.81 91.5144 49.51 91.7411 49.25C91.9744 48.9833 92.2611 48.7733 92.6011 48.62C92.9411 48.46 93.3344 48.38 93.7811 48.38C94.3678 48.38 94.8578 48.51 95.2511 48.77C95.6511 49.0233 95.9511 49.36 96.1511 49.78C96.3511 50.1933 96.4511 50.64 96.4511 51.12V51.62H91.6411V50.77H95.5811L95.1511 51.19C95.1511 50.8433 95.1011 50.5467 95.0011 50.3C94.9011 50.0533 94.7478 49.8633 94.5411 49.73C94.3411 49.5967 94.0878 49.53 93.7811 49.53C93.4744 49.53 93.2144 49.6 93.0011 49.74C92.7878 49.88 92.6244 50.0833 92.5111 50.35C92.4044 50.61 92.3511 50.9233 92.3511 51.29C92.3511 51.63 92.4044 51.9333 92.5111 52.2C92.6178 52.46 92.7811 52.6667 93.0011 52.82C93.2211 52.9667 93.5011 53.04 93.8411 53.04C94.1811 53.04 94.4578 52.9733 94.6711 52.84C94.8844 52.7 95.0211 52.53 95.0811 52.33H96.3611C96.2811 52.7033 96.1278 53.03 95.9011 53.31C95.6744 53.59 95.3844 53.8067 95.0311 53.96C94.6844 54.1133 94.2878 54.19 93.8411 54.19ZM99.9723 54.07C99.4723 54.07 99.0589 54.0067 98.7323 53.88C98.4123 53.7467 98.1723 53.5267 98.0123 53.22C97.8523 52.9067 97.7723 52.4867 97.7723 51.96L97.7823 47.04H99.0823L99.0723 52.05C99.0723 52.3167 99.1423 52.5233 99.2823 52.67C99.4289 52.81 99.6356 52.88 99.9023 52.88H100.752V54.07H99.9723ZM96.9123 49.59V48.57H100.752V49.59H96.9123ZM104.32 54.19C103.853 54.19 103.443 54.11 103.09 53.95C102.743 53.79 102.453 53.5767 102.22 53.31C101.993 53.0367 101.82 52.7333 101.7 52.4C101.586 52.0667 101.53 51.7267 101.53 51.38V51.19C101.53 50.83 101.586 50.4833 101.7 50.15C101.82 49.81 101.993 49.51 102.22 49.25C102.453 48.9833 102.74 48.7733 103.08 48.62C103.42 48.46 103.813 48.38 104.26 48.38C104.846 48.38 105.336 48.51 105.73 48.77C106.13 49.0233 106.43 49.36 106.63 49.78C106.83 50.1933 106.93 50.64 106.93 51.12V51.62H102.12V50.77H106.06L105.63 51.19C105.63 50.8433 105.58 50.5467 105.48 50.3C105.38 50.0533 105.226 49.8633 105.02 49.73C104.82 49.5967 104.566 49.53 104.26 49.53C103.953 49.53 103.693 49.6 103.48 49.74C103.266 49.88 103.103 50.0833 102.99 50.35C102.883 50.61 102.83 50.9233 102.83 51.29C102.83 51.63 102.883 51.9333 102.99 52.2C103.096 52.46 103.26 52.6667 103.48 52.82C103.7 52.9667 103.98 53.04 104.32 53.04C104.66 53.04 104.936 52.9733 105.15 52.84C105.363 52.7 105.5 52.53 105.56 52.33H106.84C106.76 52.7033 106.606 53.03 106.38 53.31C106.153 53.59 105.863 53.8067 105.51 53.96C105.163 54.1133 104.766 54.19 104.32 54.19ZM110.061 54.17C109.314 54.17 108.727 54.0133 108.301 53.7C107.881 53.38 107.661 52.94 107.641 52.38H108.891C108.911 52.5667 109.014 52.7367 109.201 52.89C109.387 53.0433 109.681 53.12 110.081 53.12C110.414 53.12 110.677 53.06 110.871 52.94C111.071 52.82 111.171 52.6567 111.171 52.45C111.171 52.27 111.094 52.1267 110.941 52.02C110.794 51.9133 110.541 51.8433 110.181 51.81L109.701 51.76C109.094 51.6933 108.627 51.52 108.301 51.24C107.974 50.96 107.811 50.5867 107.811 50.12C107.811 49.7467 107.904 49.4333 108.091 49.18C108.277 48.9267 108.534 48.7367 108.861 48.61C109.194 48.4767 109.574 48.41 110.001 48.41C110.667 48.41 111.207 48.5567 111.621 48.85C112.034 49.1433 112.251 49.5733 112.271 50.14H111.021C111.007 49.9533 110.914 49.7933 110.741 49.66C110.567 49.5267 110.317 49.46 109.991 49.46C109.697 49.46 109.471 49.5167 109.311 49.63C109.151 49.7433 109.071 49.89 109.071 50.07C109.071 50.2433 109.134 50.3767 109.261 50.47C109.394 50.5633 109.607 50.6267 109.901 50.66L110.381 50.71C111.021 50.7767 111.521 50.9533 111.881 51.24C112.247 51.5267 112.431 51.9133 112.431 52.4C112.431 52.76 112.331 53.0733 112.131 53.34C111.937 53.6 111.664 53.8033 111.311 53.95C110.957 54.0967 110.541 54.17 110.061 54.17Z" fill="#AD0A00"/>
</svg>
