<svg width="120" height="71" viewBox="0 0 120 71" fill="none" xmlns="http://www.w3.org/2000/svg">
<path d="M44.17 32.1325C43.9725 32.73 43.8375 33.33 43.715 33.91L44.9425 34.9425C45.0025 34.3125 45.11 33.6825 45.26 33.0525L44.17 32.1325ZM43.4875 38.0175C43.5175 38.875 43.5925 39.57 43.67 40.055L45.4875 40.75C45.35 40.12 45.215 39.4075 45.125 38.6475L43.4875 38.0175ZM37.0775 26.2325L36.0025 25.23C35.6075 25.635 35.23 26.0375 34.8825 26.4425L36.05 27.5075C36.3675 27.07 36.7175 26.635 37.08 26.23L37.0775 26.2325ZM47.5375 28.725L46.855 27.625C46.5075 27.965 46.1875 28.335 45.915 28.7075L46.6425 29.87C46.9 29.465 47.2025 29.0925 47.5375 28.725ZM49.1125 19.735L48.81 18.75C48.34 18.75 47.855 18.7825 47.355 18.8475L47.6425 19.8C48.0825 19.7525 48.5225 19.735 48.96 19.735H49.1125ZM42.1225 20.3175C41.7425 20.5275 41.35 20.755 40.94 21.01L41.6375 22.1425C42.0325 21.885 42.41 21.6425 42.805 21.4325L42.1225 20.3175ZM32.5 33.4575L30.7575 32.7775C30.47 33.4725 30.1525 34.2825 30 34.7175L31.7425 35.395C31.94 34.845 32.2575 34.055 32.5 33.4575Z" fill="#C70B00"/>
<path d="M56.0675 20.2675C55.93 20.1875 55.5525 19.9925 54.5975 19.7025L54.535 20.77C55.035 20.9475 55.52 21.1425 56.005 21.35V21.3525L56.0675 20.2675Z" fill="#C70B00"/>
<path d="M56.0675 24.9875C55.5525 24.875 55.0525 24.81 54.5675 24.7775V24.78L54.5075 25.7975C55.0075 25.8125 55.5075 25.8775 56.0075 25.99L56.0675 24.9875ZM51.3525 26.235L51.02 25.17C50.505 25.33 50.065 25.51 49.6875 25.6875L50.035 26.8025C50.475 26.575 50.915 26.38 51.3525 26.235ZM49.325 41.25H52.2375V38.47L54.75 41.25H59.055L55.6725 37.615V37.6125C55.6725 37.6125 58.3275 37.3725 58.3275 33.72C58.3275 30.065 55.1125 29.725 55.1125 29.725H49.325V41.25ZM52.2325 32.6175H54.5675C54.5675 32.6175 55.22 32.8775 55.22 33.9275C55.22 34.98 54.5525 35.2525 54.5525 35.2525H52.2325V32.6175Z" fill="#C70B00"/>
<path d="M74.0125 29.805V41.2475H81.21V38.2925H77.0725V29.805H74.0125Z" fill="#C70B00"/>
<path d="M72.7525 41.2475V29.805H69.6775V41.2475H72.7525Z" fill="#C70B00"/>
<path d="M65.5075 29.805H62.5525C60.4475 29.805 59.7325 31.84 59.7325 32.8125V41.25H62.6875V39.23H65.46V41.25H68.3225V32.8125C68.3275 30.3575 66.235 29.805 65.5075 29.805ZM62.675 35.9625V33.165C62.675 33.165 62.675 32.535 63.6 32.535H64.615C65.4325 32.535 65.4475 33.165 65.4475 33.165V35.9625H62.675ZM89.6075 32.7475V29.805H84.91C83.6975 29.805 82.0775 30.8725 82.0775 32.8625V33.88C82.0775 35.8675 83.6825 36.885 84.91 36.885C85.7 36.89 86.0725 36.89 86.2275 36.8925C85.99 36.89 85.5425 36.885 87.2425 36.885V38.31L82.2275 38.325V41.25H87.1825C88.1975 41.25 89.9425 40.4575 90.0025 38.2425V37.1125C90.0025 35.22 88.5475 34.105 87.1825 34.105H84.7125V32.7475H89.6075V32.7475Z" fill="#C70B00"/>
<path d="M58.05 35.5275H49.325V41.25H52.2375V38.47L54.75 41.25H59.055L55.6725 37.615V37.6125C55.675 37.6125 57.37 37.4575 58.05 35.5275Z" fill="#AD0A00"/>
<path d="M77.0725 35.5275H74.0125V41.2475H81.21V38.2925H77.0725V35.5275Z" fill="#AD0A00"/>
<path d="M72.7525 35.5275H69.6775V41.2475H72.7525V35.5275Z" fill="#AD0A00"/>
<path d="M68.3275 35.5275H65.45V35.9625H62.675V35.5275H59.735V41.25H62.69V39.23H65.465V41.25H68.3275V35.5275Z" fill="#AD0A00"/>
<path d="M86.1425 36.8925C86.17 36.8925 86.2 36.8925 86.2275 36.8925C86.2025 36.8925 86.175 36.8925 86.1425 36.8925ZM89.5925 35.5275H82.5275C83.0925 36.4275 84.085 36.885 84.9075 36.885C85.5825 36.89 85.95 36.89 86.14 36.8925C85.9125 36.89 85.73 36.885 87.24 36.885V38.31L82.225 38.325V41.25H87.18C88.195 41.25 89.94 40.4575 90 38.2425V37.1125C90 36.4975 89.8475 35.965 89.5925 35.5275Z" fill="#AD0A00"/>
<path d="M31.17 40.4575C31.0875 40.955 31.0575 41.245 31.0575 41.245L31.06 41.2475H43.0325C43.0325 41.2475 40.745 30.1125 48.32 25.6C49.975 24.7425 55.2325 21.5425 63.84 28.3325C64.115 28.09 64.3725 27.8925 64.3725 27.8925C64.3725 27.8925 56.49 19.505 47.715 20.44C43.2875 20.86 37.865 25.145 34.6825 30.8025C32.2625 35.1 31.4325 38.8825 31.17 40.4575Z" fill="#C70B00"/>
<path d="M46.0575 20.7625C42 21.9275 37.4775 25.835 34.68 30.8025C32.2625 35.1 31.43 38.88 31.17 40.455C31.0875 40.9525 31.0575 41.2425 31.0575 41.2425L31.06 41.245H43.0325C43.0325 41.245 41.245 32.5525 46.0575 27.415V20.7625Z" fill="#AD0A00"/>
<path d="M46.2 54.19C45.7267 54.19 45.3167 54.11 44.97 53.95C44.63 53.79 44.3433 53.5767 44.11 53.31C43.8833 53.0433 43.7133 52.7433 43.6 52.41C43.4867 52.0767 43.43 51.7367 43.43 51.39V51.2C43.43 50.8333 43.4867 50.4833 43.6 50.15C43.72 49.81 43.8967 49.51 44.13 49.25C44.3633 48.9833 44.65 48.7733 44.99 48.62C45.3367 48.46 45.7367 48.38 46.19 48.38C46.6633 48.38 47.0867 48.4733 47.46 48.66C47.8333 48.84 48.13 49.0933 48.35 49.42C48.5767 49.7467 48.7033 50.1267 48.73 50.56H47.38C47.3467 50.28 47.2267 50.0467 47.02 49.86C46.82 49.6733 46.5433 49.58 46.19 49.58C45.8833 49.58 45.6267 49.6533 45.42 49.8C45.22 49.9467 45.07 50.15 44.97 50.41C44.87 50.6633 44.82 50.9567 44.82 51.29C44.82 51.61 44.8667 51.9 44.96 52.16C45.06 52.42 45.21 52.6233 45.41 52.77C45.6167 52.9167 45.88 52.99 46.2 52.99C46.44 52.99 46.6467 52.9467 46.82 52.86C46.9933 52.7733 47.13 52.6533 47.23 52.5C47.3367 52.3467 47.4033 52.1733 47.43 51.98H48.78C48.7533 52.42 48.6233 52.8067 48.39 53.14C48.1633 53.4667 47.86 53.7233 47.48 53.91C47.1067 54.0967 46.68 54.19 46.2 54.19ZM52.5035 54.19C52.0235 54.19 51.6002 54.1133 51.2335 53.96C50.8668 53.8067 50.5568 53.6 50.3035 53.34C50.0502 53.0733 49.8568 52.7733 49.7235 52.44C49.5968 52.1067 49.5335 51.76 49.5335 51.4V51.19C49.5335 50.8167 49.6002 50.4633 49.7335 50.13C49.8735 49.79 50.0702 49.49 50.3235 49.23C50.5835 48.9633 50.8968 48.7567 51.2635 48.61C51.6302 48.4567 52.0435 48.38 52.5035 48.38C52.9635 48.38 53.3768 48.4567 53.7435 48.61C54.1102 48.7567 54.4202 48.9633 54.6735 49.23C54.9335 49.49 55.1302 49.79 55.2635 50.13C55.3968 50.4633 55.4635 50.8167 55.4635 51.19V51.4C55.4635 51.76 55.3968 52.1067 55.2635 52.44C55.1368 52.7733 54.9468 53.0733 54.6935 53.34C54.4402 53.6 54.1302 53.8067 53.7635 53.96C53.3968 54.1133 52.9768 54.19 52.5035 54.19ZM52.5035 53C52.8435 53 53.1302 52.9267 53.3635 52.78C53.5968 52.6267 53.7735 52.4233 53.8935 52.17C54.0135 51.91 54.0735 51.6167 54.0735 51.29C54.0735 50.9567 54.0102 50.6633 53.8835 50.41C53.7635 50.15 53.5835 49.9467 53.3435 49.8C53.1102 49.6467 52.8302 49.57 52.5035 49.57C52.1768 49.57 51.8935 49.6467 51.6535 49.8C51.4202 49.9467 51.2402 50.15 51.1135 50.41C50.9868 50.6633 50.9235 50.9567 50.9235 51.29C50.9235 51.6167 50.9835 51.91 51.1035 52.17C51.2302 52.4233 51.4102 52.6267 51.6435 52.78C51.8768 52.9267 52.1635 53 52.5035 53ZM56.6806 54V48.57H57.7806V50.9H57.6806C57.6806 50.3467 57.754 49.8867 57.9006 49.52C58.0473 49.1467 58.264 48.8667 58.5506 48.68C58.844 48.4933 59.2073 48.4 59.6406 48.4H59.7006C60.3473 48.4 60.8373 48.61 61.1706 49.03C61.504 49.4433 61.6706 50.0633 61.6706 50.89V54H60.2806V50.77C60.2806 50.4367 60.184 50.1667 59.9906 49.96C59.804 49.7533 59.544 49.65 59.2106 49.65C58.8706 49.65 58.594 49.7567 58.3806 49.97C58.174 50.1767 58.0706 50.4567 58.0706 50.81V54H56.6806ZM65.135 54.17C64.3883 54.17 63.8017 54.0133 63.375 53.7C62.955 53.38 62.735 52.94 62.715 52.38H63.965C63.985 52.5667 64.0883 52.7367 64.275 52.89C64.4617 53.0433 64.755 53.12 65.155 53.12C65.4883 53.12 65.7517 53.06 65.945 52.94C66.145 52.82 66.245 52.6567 66.245 52.45C66.245 52.27 66.1683 52.1267 66.015 52.02C65.8683 51.9133 65.615 51.8433 65.255 51.81L64.775 51.76C64.1683 51.6933 63.7017 51.52 63.375 51.24C63.0483 50.96 62.885 50.5867 62.885 50.12C62.885 49.7467 62.9783 49.4333 63.165 49.18C63.3517 48.9267 63.6083 48.7367 63.935 48.61C64.2683 48.4767 64.6483 48.41 65.075 48.41C65.7417 48.41 66.2817 48.5567 66.695 48.85C67.1083 49.1433 67.325 49.5733 67.345 50.14H66.095C66.0817 49.9533 65.9883 49.7933 65.815 49.66C65.6417 49.5267 65.3917 49.46 65.065 49.46C64.7717 49.46 64.545 49.5167 64.385 49.63C64.225 49.7433 64.145 49.89 64.145 50.07C64.145 50.2433 64.2083 50.3767 64.335 50.47C64.4683 50.5633 64.6817 50.6267 64.975 50.66L65.455 50.71C66.095 50.7767 66.595 50.9533 66.955 51.24C67.3217 51.5267 67.505 51.9133 67.505 52.4C67.505 52.76 67.405 53.0733 67.205 53.34C67.0117 53.6 66.7383 53.8033 66.385 53.95C66.0317 54.0967 65.615 54.17 65.135 54.17ZM71.2633 54.19C70.7833 54.19 70.3599 54.1133 69.9933 53.96C69.6266 53.8067 69.3166 53.6 69.0633 53.34C68.8099 53.0733 68.6166 52.7733 68.4833 52.44C68.3566 52.1067 68.2933 51.76 68.2933 51.4V51.19C68.2933 50.8167 68.3599 50.4633 68.4933 50.13C68.6333 49.79 68.8299 49.49 69.0833 49.23C69.3433 48.9633 69.6566 48.7567 70.0233 48.61C70.3899 48.4567 70.8033 48.38 71.2633 48.38C71.7233 48.38 72.1366 48.4567 72.5033 48.61C72.8699 48.7567 73.1799 48.9633 73.4333 49.23C73.6933 49.49 73.8899 49.79 74.0233 50.13C74.1566 50.4633 74.2233 50.8167 74.2233 51.19V51.4C74.2233 51.76 74.1566 52.1067 74.0233 52.44C73.8966 52.7733 73.7066 53.0733 73.4533 53.34C73.1999 53.6 72.8899 53.8067 72.5233 53.96C72.1566 54.1133 71.7366 54.19 71.2633 54.19ZM71.2633 53C71.6033 53 71.8899 52.9267 72.1233 52.78C72.3566 52.6267 72.5333 52.4233 72.6533 52.17C72.7733 51.91 72.8333 51.6167 72.8333 51.29C72.8333 50.9567 72.7699 50.6633 72.6433 50.41C72.5233 50.15 72.3433 49.9467 72.1033 49.8C71.8699 49.6467 71.5899 49.57 71.2633 49.57C70.9366 49.57 70.6533 49.6467 70.4133 49.8C70.1799 49.9467 69.9999 50.15 69.8733 50.41C69.7466 50.6633 69.6833 50.9567 69.6833 51.29C69.6833 51.6167 69.7433 51.91 69.8633 52.17C69.9899 52.4233 70.1699 52.6267 70.4033 52.78C70.6366 52.9267 70.9233 53 71.2633 53ZM75.5104 54V46.7H76.9004V54H75.5104ZM74.8304 47.74V46.7H76.9004V47.74H74.8304ZM80.9173 54.19C80.4506 54.19 80.0406 54.11 79.6873 53.95C79.3406 53.79 79.0506 53.5767 78.8173 53.31C78.5906 53.0367 78.4173 52.7333 78.2973 52.4C78.1839 52.0667 78.1273 51.7267 78.1273 51.38V51.19C78.1273 50.83 78.1839 50.4833 78.2973 50.15C78.4173 49.81 78.5906 49.51 78.8173 49.25C79.0506 48.9833 79.3373 48.7733 79.6773 48.62C80.0173 48.46 80.4106 48.38 80.8573 48.38C81.4439 48.38 81.9339 48.51 82.3273 48.77C82.7273 49.0233 83.0273 49.36 83.2273 49.78C83.4273 50.1933 83.5273 50.64 83.5273 51.12V51.62H78.7173V50.77H82.6573L82.2273 51.19C82.2273 50.8433 82.1773 50.5467 82.0773 50.3C81.9773 50.0533 81.8239 49.8633 81.6173 49.73C81.4173 49.5967 81.1639 49.53 80.8573 49.53C80.5506 49.53 80.2906 49.6 80.0773 49.74C79.8639 49.88 79.7006 50.0833 79.5873 50.35C79.4806 50.61 79.4273 50.9233 79.4273 51.29C79.4273 51.63 79.4806 51.9333 79.5873 52.2C79.6939 52.46 79.8573 52.6667 80.0773 52.82C80.2973 52.9667 80.5773 53.04 80.9173 53.04C81.2573 53.04 81.5339 52.9733 81.7473 52.84C81.9606 52.7 82.0973 52.53 82.1573 52.33H83.4373C83.3573 52.7033 83.2039 53.03 82.9773 53.31C82.7506 53.59 82.4606 53.8067 82.1073 53.96C81.7606 54.1133 81.3639 54.19 80.9173 54.19Z" fill="#AD0A00"/>
</svg>
