<svg width="120" height="71" viewBox="0 0 120 71" fill="none" xmlns="http://www.w3.org/2000/svg">
<path d="M44.17 32.1325C43.9725 32.73 43.8375 33.33 43.715 33.91L44.9425 34.9425C45.0025 34.3125 45.11 33.6825 45.26 33.0525L44.17 32.1325ZM43.4875 38.0175C43.5175 38.875 43.5925 39.57 43.67 40.055L45.4875 40.75C45.35 40.12 45.215 39.4075 45.125 38.6475L43.4875 38.0175ZM37.0775 26.2325L36.0025 25.23C35.6075 25.635 35.23 26.0375 34.8825 26.4425L36.05 27.5075C36.3675 27.07 36.7175 26.635 37.08 26.23L37.0775 26.2325ZM47.5375 28.725L46.855 27.625C46.5075 27.965 46.1875 28.335 45.915 28.7075L46.6425 29.87C46.9 29.465 47.2025 29.0925 47.5375 28.725ZM49.1125 19.735L48.81 18.75C48.34 18.75 47.855 18.7825 47.355 18.8475L47.6425 19.8C48.0825 19.7525 48.5225 19.735 48.96 19.735H49.1125ZM42.1225 20.3175C41.7425 20.5275 41.35 20.755 40.94 21.01L41.6375 22.1425C42.0325 21.885 42.41 21.6425 42.805 21.4325L42.1225 20.3175ZM32.5 33.4575L30.7575 32.7775C30.47 33.4725 30.1525 34.2825 30 34.7175L31.7425 35.395C31.94 34.845 32.2575 34.055 32.5 33.4575Z" fill="#C70B00"/>
<path d="M56.0675 20.2675C55.93 20.1875 55.5525 19.9925 54.5975 19.7025L54.535 20.77C55.035 20.9475 55.52 21.1425 56.005 21.35V21.3525L56.0675 20.2675Z" fill="#C70B00"/>
<path d="M56.0675 24.9875C55.5525 24.875 55.0525 24.81 54.5675 24.7775V24.78L54.5075 25.7975C55.0075 25.8125 55.5075 25.8775 56.0075 25.99L56.0675 24.9875ZM51.3525 26.235L51.02 25.17C50.505 25.33 50.065 25.51 49.6875 25.6875L50.035 26.8025C50.475 26.575 50.915 26.38 51.3525 26.235ZM49.325 41.25H52.2375V38.47L54.75 41.25H59.055L55.6725 37.615V37.6125C55.6725 37.6125 58.3275 37.3725 58.3275 33.72C58.3275 30.065 55.1125 29.725 55.1125 29.725H49.325V41.25ZM52.2325 32.6175H54.5675C54.5675 32.6175 55.22 32.8775 55.22 33.9275C55.22 34.98 54.5525 35.2525 54.5525 35.2525H52.2325V32.6175Z" fill="#C70B00"/>
<path d="M74.0125 29.805V41.2475H81.21V38.2925H77.0725V29.805H74.0125Z" fill="#C70B00"/>
<path d="M72.7525 41.2475V29.805H69.6775V41.2475H72.7525Z" fill="#C70B00"/>
<path d="M65.5075 29.805H62.5525C60.4475 29.805 59.7325 31.84 59.7325 32.8125V41.25H62.6875V39.23H65.46V41.25H68.3225V32.8125C68.3275 30.3575 66.235 29.805 65.5075 29.805ZM62.675 35.9625V33.165C62.675 33.165 62.675 32.535 63.6 32.535H64.615C65.4325 32.535 65.4475 33.165 65.4475 33.165V35.9625H62.675ZM89.6075 32.7475V29.805H84.91C83.6975 29.805 82.0775 30.8725 82.0775 32.8625V33.88C82.0775 35.8675 83.6825 36.885 84.91 36.885C85.7 36.89 86.0725 36.89 86.2275 36.8925C85.99 36.89 85.5425 36.885 87.2425 36.885V38.31L82.2275 38.325V41.25H87.1825C88.1975 41.25 89.9425 40.4575 90.0025 38.2425V37.1125C90.0025 35.22 88.5475 34.105 87.1825 34.105H84.7125V32.7475H89.6075V32.7475Z" fill="#C70B00"/>
<path d="M58.05 35.5275H49.325V41.25H52.2375V38.47L54.75 41.25H59.055L55.6725 37.615V37.6125C55.675 37.6125 57.37 37.4575 58.05 35.5275Z" fill="#AD0A00"/>
<path d="M77.0725 35.5275H74.0125V41.2475H81.21V38.2925H77.0725V35.5275Z" fill="#AD0A00"/>
<path d="M72.7525 35.5275H69.6775V41.2475H72.7525V35.5275Z" fill="#AD0A00"/>
<path d="M68.3275 35.5275H65.45V35.9625H62.675V35.5275H59.735V41.25H62.69V39.23H65.465V41.25H68.3275V35.5275Z" fill="#AD0A00"/>
<path d="M86.1425 36.8925C86.17 36.8925 86.2 36.8925 86.2275 36.8925C86.2025 36.8925 86.175 36.8925 86.1425 36.8925ZM89.5925 35.5275H82.5275C83.0925 36.4275 84.085 36.885 84.9075 36.885C85.5825 36.89 85.95 36.89 86.14 36.8925C85.9125 36.89 85.73 36.885 87.24 36.885V38.31L82.225 38.325V41.25H87.18C88.195 41.25 89.94 40.4575 90 38.2425V37.1125C90 36.4975 89.8475 35.965 89.5925 35.5275Z" fill="#AD0A00"/>
<path d="M31.17 40.4575C31.0875 40.955 31.0575 41.245 31.0575 41.245L31.06 41.2475H43.0325C43.0325 41.2475 40.745 30.1125 48.32 25.6C49.975 24.7425 55.2325 21.5425 63.84 28.3325C64.115 28.09 64.3725 27.8925 64.3725 27.8925C64.3725 27.8925 56.49 19.505 47.715 20.44C43.2875 20.86 37.865 25.145 34.6825 30.8025C32.2625 35.1 31.4325 38.8825 31.17 40.4575Z" fill="#C70B00"/>
<path d="M46.0575 20.7625C42 21.9275 37.4775 25.835 34.68 30.8025C32.2625 35.1 31.43 38.88 31.17 40.455C31.0875 40.9525 31.0575 41.2425 31.0575 41.2425L31.06 41.245H43.0325C43.0325 41.245 41.245 32.5525 46.0575 27.415V20.7625Z" fill="#AD0A00"/>
<path d="M8.2 54.19C7.72667 54.19 7.31667 54.11 6.97 53.95C6.63 53.79 6.34333 53.5767 6.11 53.31C5.88333 53.0433 5.71333 52.7433 5.6 52.41C5.48667 52.0767 5.43 51.7367 5.43 51.39V51.2C5.43 50.8333 5.48667 50.4833 5.6 50.15C5.72 49.81 5.89667 49.51 6.13 49.25C6.36333 48.9833 6.65 48.7733 6.99 48.62C7.33667 48.46 7.73667 48.38 8.19 48.38C8.66333 48.38 9.08667 48.4733 9.46 48.66C9.83333 48.84 10.13 49.0933 10.35 49.42C10.5767 49.7467 10.7033 50.1267 10.73 50.56H9.38C9.34667 50.28 9.22667 50.0467 9.02 49.86C8.82 49.6733 8.54333 49.58 8.19 49.58C7.88333 49.58 7.62667 49.6533 7.42 49.8C7.22 49.9467 7.07 50.15 6.97 50.41C6.87 50.6633 6.82 50.9567 6.82 51.29C6.82 51.61 6.86667 51.9 6.96 52.16C7.06 52.42 7.21 52.6233 7.41 52.77C7.61667 52.9167 7.88 52.99 8.2 52.99C8.44 52.99 8.64667 52.9467 8.82 52.86C8.99333 52.7733 9.13 52.6533 9.23 52.5C9.33667 52.3467 9.40333 52.1733 9.43 51.98H10.78C10.7533 52.42 10.6233 52.8067 10.39 53.14C10.1633 53.4667 9.86 53.7233 9.48 53.91C9.10667 54.0967 8.68 54.19 8.2 54.19ZM14.5035 54.19C14.0235 54.19 13.6002 54.1133 13.2335 53.96C12.8668 53.8067 12.5568 53.6 12.3035 53.34C12.0502 53.0733 11.8568 52.7733 11.7235 52.44C11.5968 52.1067 11.5335 51.76 11.5335 51.4V51.19C11.5335 50.8167 11.6002 50.4633 11.7335 50.13C11.8735 49.79 12.0702 49.49 12.3235 49.23C12.5835 48.9633 12.8968 48.7567 13.2635 48.61C13.6302 48.4567 14.0435 48.38 14.5035 48.38C14.9635 48.38 15.3768 48.4567 15.7435 48.61C16.1102 48.7567 16.4202 48.9633 16.6735 49.23C16.9335 49.49 17.1302 49.79 17.2635 50.13C17.3968 50.4633 17.4635 50.8167 17.4635 51.19V51.4C17.4635 51.76 17.3968 52.1067 17.2635 52.44C17.1368 52.7733 16.9468 53.0733 16.6935 53.34C16.4402 53.6 16.1302 53.8067 15.7635 53.96C15.3968 54.1133 14.9768 54.19 14.5035 54.19ZM14.5035 53C14.8435 53 15.1302 52.9267 15.3635 52.78C15.5968 52.6267 15.7735 52.4233 15.8935 52.17C16.0135 51.91 16.0735 51.6167 16.0735 51.29C16.0735 50.9567 16.0102 50.6633 15.8835 50.41C15.7635 50.15 15.5835 49.9467 15.3435 49.8C15.1102 49.6467 14.8302 49.57 14.5035 49.57C14.1768 49.57 13.8935 49.6467 13.6535 49.8C13.4202 49.9467 13.2402 50.15 13.1135 50.41C12.9868 50.6633 12.9235 50.9567 12.9235 51.29C12.9235 51.6167 12.9835 51.91 13.1035 52.17C13.2302 52.4233 13.4102 52.6267 13.6435 52.78C13.8768 52.9267 14.1635 53 14.5035 53ZM18.6806 54V48.57H19.7806V50.9H19.6806C19.6806 50.3467 19.754 49.8867 19.9006 49.52C20.0473 49.1467 20.264 48.8667 20.5506 48.68C20.844 48.4933 21.2073 48.4 21.6406 48.4H21.7006C22.3473 48.4 22.8373 48.61 23.1706 49.03C23.504 49.4433 23.6706 50.0633 23.6706 50.89V54H22.2806V50.77C22.2806 50.4367 22.184 50.1667 21.9906 49.96C21.804 49.7533 21.544 49.65 21.2106 49.65C20.8706 49.65 20.594 49.7567 20.3806 49.97C20.174 50.1767 20.0706 50.4567 20.0706 50.81V54H18.6806ZM27.135 54.17C26.3883 54.17 25.8017 54.0133 25.375 53.7C24.955 53.38 24.735 52.94 24.715 52.38H25.965C25.985 52.5667 26.0883 52.7367 26.275 52.89C26.4617 53.0433 26.755 53.12 27.155 53.12C27.4883 53.12 27.7517 53.06 27.945 52.94C28.145 52.82 28.245 52.6567 28.245 52.45C28.245 52.27 28.1683 52.1267 28.015 52.02C27.8683 51.9133 27.615 51.8433 27.255 51.81L26.775 51.76C26.1683 51.6933 25.7017 51.52 25.375 51.24C25.0483 50.96 24.885 50.5867 24.885 50.12C24.885 49.7467 24.9783 49.4333 25.165 49.18C25.3517 48.9267 25.6083 48.7367 25.935 48.61C26.2683 48.4767 26.6483 48.41 27.075 48.41C27.7417 48.41 28.2817 48.5567 28.695 48.85C29.1083 49.1433 29.325 49.5733 29.345 50.14H28.095C28.0817 49.9533 27.9883 49.7933 27.815 49.66C27.6417 49.5267 27.3917 49.46 27.065 49.46C26.7717 49.46 26.545 49.5167 26.385 49.63C26.225 49.7433 26.145 49.89 26.145 50.07C26.145 50.2433 26.2083 50.3767 26.335 50.47C26.4683 50.5633 26.6817 50.6267 26.975 50.66L27.455 50.71C28.095 50.7767 28.595 50.9533 28.955 51.24C29.3217 51.5267 29.505 51.9133 29.505 52.4C29.505 52.76 29.405 53.0733 29.205 53.34C29.0117 53.6 28.7383 53.8033 28.385 53.95C28.0317 54.0967 27.615 54.17 27.135 54.17ZM33.2633 54.19C32.7833 54.19 32.3599 54.1133 31.9933 53.96C31.6266 53.8067 31.3166 53.6 31.0633 53.34C30.8099 53.0733 30.6166 52.7733 30.4833 52.44C30.3566 52.1067 30.2933 51.76 30.2933 51.4V51.19C30.2933 50.8167 30.3599 50.4633 30.4933 50.13C30.6333 49.79 30.8299 49.49 31.0833 49.23C31.3433 48.9633 31.6566 48.7567 32.0233 48.61C32.3899 48.4567 32.8033 48.38 33.2633 48.38C33.7233 48.38 34.1366 48.4567 34.5033 48.61C34.8699 48.7567 35.1799 48.9633 35.4333 49.23C35.6933 49.49 35.8899 49.79 36.0233 50.13C36.1566 50.4633 36.2233 50.8167 36.2233 51.19V51.4C36.2233 51.76 36.1566 52.1067 36.0233 52.44C35.8966 52.7733 35.7066 53.0733 35.4533 53.34C35.1999 53.6 34.8899 53.8067 34.5233 53.96C34.1566 54.1133 33.7366 54.19 33.2633 54.19ZM33.2633 53C33.6033 53 33.8899 52.9267 34.1233 52.78C34.3566 52.6267 34.5333 52.4233 34.6533 52.17C34.7733 51.91 34.8333 51.6167 34.8333 51.29C34.8333 50.9567 34.7699 50.6633 34.6433 50.41C34.5233 50.15 34.3433 49.9467 34.1033 49.8C33.8699 49.6467 33.5899 49.57 33.2633 49.57C32.9366 49.57 32.6533 49.6467 32.4133 49.8C32.1799 49.9467 31.9999 50.15 31.8733 50.41C31.7466 50.6633 31.6833 50.9567 31.6833 51.29C31.6833 51.6167 31.7433 51.91 31.8633 52.17C31.9899 52.4233 32.1699 52.6267 32.4033 52.78C32.6366 52.9267 32.9233 53 33.2633 53ZM37.5104 54V46.7H38.9004V54H37.5104ZM36.8304 47.74V46.7H38.9004V47.74H36.8304ZM42.9173 54.19C42.4506 54.19 42.0406 54.11 41.6873 53.95C41.3406 53.79 41.0506 53.5767 40.8173 53.31C40.5906 53.0367 40.4173 52.7333 40.2973 52.4C40.1839 52.0667 40.1273 51.7267 40.1273 51.38V51.19C40.1273 50.83 40.1839 50.4833 40.2973 50.15C40.4173 49.81 40.5906 49.51 40.8173 49.25C41.0506 48.9833 41.3373 48.7733 41.6773 48.62C42.0173 48.46 42.4106 48.38 42.8573 48.38C43.4439 48.38 43.9339 48.51 44.3273 48.77C44.7273 49.0233 45.0273 49.36 45.2273 49.78C45.4273 50.1933 45.5273 50.64 45.5273 51.12V51.62H40.7173V50.77H44.6573L44.2273 51.19C44.2273 50.8433 44.1773 50.5467 44.0773 50.3C43.9773 50.0533 43.8239 49.8633 43.6173 49.73C43.4173 49.5967 43.1639 49.53 42.8573 49.53C42.5506 49.53 42.2906 49.6 42.0773 49.74C41.8639 49.88 41.7006 50.0833 41.5873 50.35C41.4806 50.61 41.4273 50.9233 41.4273 51.29C41.4273 51.63 41.4806 51.9333 41.5873 52.2C41.6939 52.46 41.8573 52.6667 42.0773 52.82C42.2973 52.9667 42.5773 53.04 42.9173 53.04C43.2573 53.04 43.5339 52.9733 43.7473 52.84C43.9606 52.7 44.0973 52.53 44.1573 52.33H45.4373C45.3573 52.7033 45.2039 53.03 44.9773 53.31C44.7506 53.59 44.4606 53.8067 44.1073 53.96C43.7606 54.1133 43.3639 54.19 42.9173 54.19ZM48.5666 51.8V50.58H52.6166V51.8H48.5666ZM59.3632 54V52.39H59.1332V50.6C59.1332 50.2867 59.0565 50.0533 58.9032 49.9C58.7499 49.7467 58.5132 49.67 58.1932 49.67C58.0265 49.67 57.8265 49.6733 57.5932 49.68C57.3599 49.6867 57.1232 49.6967 56.8832 49.71C56.6499 49.7167 56.4399 49.7267 56.2532 49.74V48.56C56.4065 48.5467 56.5799 48.5333 56.7732 48.52C56.9665 48.5067 57.1632 48.5 57.3632 48.5C57.5699 48.4933 57.7632 48.49 57.9432 48.49C58.5032 48.49 58.9665 48.5633 59.3332 48.71C59.7065 48.8567 59.9865 49.0867 60.1732 49.4C60.3665 49.7133 60.4632 50.1233 60.4632 50.63V54H59.3632ZM57.6132 54.14C57.2199 54.14 56.8732 54.07 56.5732 53.93C56.2799 53.79 56.0499 53.59 55.8832 53.33C55.7232 53.07 55.6432 52.7567 55.6432 52.39C55.6432 51.99 55.7399 51.6633 55.9332 51.41C56.1332 51.1567 56.4099 50.9667 56.7632 50.84C57.1232 50.7133 57.5432 50.65 58.0232 50.65H59.2832V51.48H58.0032C57.6832 51.48 57.4365 51.56 57.2632 51.72C57.0965 51.8733 57.0132 52.0733 57.0132 52.32C57.0132 52.5667 57.0965 52.7667 57.2632 52.92C57.4365 53.0733 57.6832 53.15 58.0032 53.15C58.1965 53.15 58.3732 53.1167 58.5332 53.05C58.6999 52.9767 58.8365 52.8567 58.9432 52.69C59.0565 52.5167 59.1199 52.2833 59.1332 51.99L59.4732 52.38C59.4399 52.76 59.3465 53.08 59.1932 53.34C59.0465 53.6 58.8399 53.8 58.5732 53.94C58.3132 54.0733 57.9932 54.14 57.6132 54.14ZM61.9521 54V48.57H63.0521V50.9H62.9521C62.9521 50.3533 63.0221 49.8967 63.1621 49.53C63.3021 49.1567 63.5088 48.8767 63.7821 48.69C64.0621 48.4967 64.4088 48.4 64.8221 48.4H64.8821C65.3021 48.4 65.6488 48.4967 65.9221 48.69C66.2021 48.8767 66.4088 49.1567 66.5421 49.53C66.6821 49.8967 66.7521 50.3533 66.7521 50.9H66.4021C66.4021 50.3533 66.4721 49.8967 66.6121 49.53C66.7588 49.1567 66.9688 48.8767 67.2421 48.69C67.5221 48.4967 67.8688 48.4 68.2821 48.4H68.3421C68.7621 48.4 69.1121 48.4967 69.3921 48.69C69.6721 48.8767 69.8821 49.1567 70.0221 49.53C70.1688 49.8967 70.2421 50.3533 70.2421 50.9V54H68.8521V50.77C68.8521 50.43 68.7654 50.16 68.5921 49.96C68.4188 49.7533 68.1721 49.65 67.8521 49.65C67.5321 49.65 67.2754 49.7567 67.0821 49.97C66.8888 50.1767 66.7921 50.4567 66.7921 50.81V54H65.4021V50.77C65.4021 50.43 65.3154 50.16 65.1421 49.96C64.9688 49.7533 64.7221 49.65 64.4021 49.65C64.0821 49.65 63.8254 49.7567 63.6321 49.97C63.4388 50.1767 63.3421 50.4567 63.3421 50.81V54H61.9521ZM75.0175 54V52.39H74.7875V50.6C74.7875 50.2867 74.7108 50.0533 74.5575 49.9C74.4042 49.7467 74.1675 49.67 73.8475 49.67C73.6808 49.67 73.4808 49.6733 73.2475 49.68C73.0142 49.6867 72.7775 49.6967 72.5375 49.71C72.3042 49.7167 72.0942 49.7267 71.9075 49.74V48.56C72.0608 48.5467 72.2342 48.5333 72.4275 48.52C72.6208 48.5067 72.8175 48.5 73.0175 48.5C73.2242 48.4933 73.4175 48.49 73.5975 48.49C74.1575 48.49 74.6208 48.5633 74.9875 48.71C75.3608 48.8567 75.6408 49.0867 75.8275 49.4C76.0208 49.7133 76.1175 50.1233 76.1175 50.63V54H75.0175ZM73.2675 54.14C72.8742 54.14 72.5275 54.07 72.2275 53.93C71.9342 53.79 71.7042 53.59 71.5375 53.33C71.3775 53.07 71.2975 52.7567 71.2975 52.39C71.2975 51.99 71.3942 51.6633 71.5875 51.41C71.7875 51.1567 72.0642 50.9667 72.4175 50.84C72.7775 50.7133 73.1975 50.65 73.6775 50.65H74.9375V51.48H73.6575C73.3375 51.48 73.0908 51.56 72.9175 51.72C72.7508 51.8733 72.6675 52.0733 72.6675 52.32C72.6675 52.5667 72.7508 52.7667 72.9175 52.92C73.0908 53.0733 73.3375 53.15 73.6575 53.15C73.8508 53.15 74.0275 53.1167 74.1875 53.05C74.3542 52.9767 74.4908 52.8567 74.5975 52.69C74.7108 52.5167 74.7742 52.2833 74.7875 51.99L75.1275 52.38C75.0942 52.76 75.0008 53.08 74.8475 53.34C74.7008 53.6 74.4942 53.8 74.2275 53.94C73.9675 54.0733 73.6475 54.14 73.2675 54.14ZM77.2564 54V52.9L79.9364 49.68V49.84L79.7264 49.56L79.8964 49.64H77.2464V48.57H81.3864V49.67L78.7064 52.89V52.74L78.9264 53.02L78.7564 52.93H81.4964V54H77.2564ZM85.1285 54.19C84.6485 54.19 84.2252 54.1133 83.8585 53.96C83.4918 53.8067 83.1818 53.6 82.9285 53.34C82.6752 53.0733 82.4818 52.7733 82.3485 52.44C82.2218 52.1067 82.1585 51.76 82.1585 51.4V51.19C82.1585 50.8167 82.2252 50.4633 82.3585 50.13C82.4985 49.79 82.6952 49.49 82.9485 49.23C83.2085 48.9633 83.5218 48.7567 83.8885 48.61C84.2552 48.4567 84.6685 48.38 85.1285 48.38C85.5885 48.38 86.0018 48.4567 86.3685 48.61C86.7352 48.7567 87.0452 48.9633 87.2985 49.23C87.5585 49.49 87.7552 49.79 87.8885 50.13C88.0218 50.4633 88.0885 50.8167 88.0885 51.19V51.4C88.0885 51.76 88.0218 52.1067 87.8885 52.44C87.7618 52.7733 87.5718 53.0733 87.3185 53.34C87.0652 53.6 86.7552 53.8067 86.3885 53.96C86.0218 54.1133 85.6018 54.19 85.1285 54.19ZM85.1285 53C85.4685 53 85.7552 52.9267 85.9885 52.78C86.2218 52.6267 86.3985 52.4233 86.5185 52.17C86.6385 51.91 86.6985 51.6167 86.6985 51.29C86.6985 50.9567 86.6352 50.6633 86.5085 50.41C86.3885 50.15 86.2085 49.9467 85.9685 49.8C85.7352 49.6467 85.4552 49.57 85.1285 49.57C84.8018 49.57 84.5185 49.6467 84.2785 49.8C84.0452 49.9467 83.8652 50.15 83.7385 50.41C83.6118 50.6633 83.5485 50.9567 83.5485 51.29C83.5485 51.6167 83.6085 51.91 83.7285 52.17C83.8552 52.4233 84.0352 52.6267 84.2685 52.78C84.5018 52.9267 84.7885 53 85.1285 53ZM89.3056 54V48.57H90.4056V50.9H90.3056C90.3056 50.3467 90.379 49.8867 90.5256 49.52C90.6723 49.1467 90.889 48.8667 91.1756 48.68C91.469 48.4933 91.8323 48.4 92.2656 48.4H92.3256C92.9723 48.4 93.4623 48.61 93.7956 49.03C94.129 49.4433 94.2956 50.0633 94.2956 50.89V54H92.9056V50.77C92.9056 50.4367 92.809 50.1667 92.6156 49.96C92.429 49.7533 92.169 49.65 91.8356 49.65C91.4956 49.65 91.219 49.7567 91.0056 49.97C90.799 50.1767 90.6956 50.4567 90.6956 50.81V54H89.3056ZM100.378 54.19C99.9115 54.19 99.5015 54.11 99.1482 53.95C98.8015 53.79 98.5115 53.5767 98.2782 53.31C98.0515 53.0367 97.8782 52.7333 97.7582 52.4C97.6449 52.0667 97.5882 51.7267 97.5882 51.38V51.19C97.5882 50.83 97.6449 50.4833 97.7582 50.15C97.8782 49.81 98.0515 49.51 98.2782 49.25C98.5115 48.9833 98.7982 48.7733 99.1382 48.62C99.4782 48.46 99.8715 48.38 100.318 48.38C100.905 48.38 101.395 48.51 101.788 48.77C102.188 49.0233 102.488 49.36 102.688 49.78C102.888 50.1933 102.988 50.64 102.988 51.12V51.62H98.1782V50.77H102.118L101.688 51.19C101.688 50.8433 101.638 50.5467 101.538 50.3C101.438 50.0533 101.285 49.8633 101.078 49.73C100.878 49.5967 100.625 49.53 100.318 49.53C100.012 49.53 99.7515 49.6 99.5382 49.74C99.3249 49.88 99.1615 50.0833 99.0482 50.35C98.9415 50.61 98.8882 50.9233 98.8882 51.29C98.8882 51.63 98.9415 51.9333 99.0482 52.2C99.1549 52.46 99.3182 52.6667 99.5382 52.82C99.7582 52.9667 100.038 53.04 100.378 53.04C100.718 53.04 100.995 52.9733 101.208 52.84C101.422 52.7 101.558 52.53 101.618 52.33H102.898C102.818 52.7033 102.665 53.03 102.438 53.31C102.212 53.59 101.922 53.8067 101.568 53.96C101.222 54.1133 100.825 54.19 100.378 54.19ZM106.559 54.19C106.086 54.19 105.676 54.11 105.329 53.95C104.989 53.79 104.703 53.5767 104.469 53.31C104.243 53.0433 104.073 52.7433 103.959 52.41C103.846 52.0767 103.789 51.7367 103.789 51.39V51.2C103.789 50.8333 103.846 50.4833 103.959 50.15C104.079 49.81 104.256 49.51 104.489 49.25C104.723 48.9833 105.009 48.7733 105.349 48.62C105.696 48.46 106.096 48.38 106.549 48.38C107.023 48.38 107.446 48.4733 107.819 48.66C108.193 48.84 108.489 49.0933 108.709 49.42C108.936 49.7467 109.063 50.1267 109.089 50.56H107.739C107.706 50.28 107.586 50.0467 107.379 49.86C107.179 49.6733 106.903 49.58 106.549 49.58C106.243 49.58 105.986 49.6533 105.779 49.8C105.579 49.9467 105.429 50.15 105.329 50.41C105.229 50.6633 105.179 50.9567 105.179 51.29C105.179 51.61 105.226 51.9 105.319 52.16C105.419 52.42 105.569 52.6233 105.769 52.77C105.976 52.9167 106.239 52.99 106.559 52.99C106.799 52.99 107.006 52.9467 107.179 52.86C107.353 52.7733 107.489 52.6533 107.589 52.5C107.696 52.3467 107.763 52.1733 107.789 51.98H109.139C109.113 52.42 108.983 52.8067 108.749 53.14C108.523 53.4667 108.219 53.7233 107.839 53.91C107.466 54.0967 107.039 54.19 106.559 54.19ZM112.223 54.17C111.476 54.17 110.89 54.0133 110.463 53.7C110.043 53.38 109.823 52.94 109.803 52.38H111.053C111.073 52.5667 111.176 52.7367 111.363 52.89C111.55 53.0433 111.843 53.12 112.243 53.12C112.576 53.12 112.84 53.06 113.033 52.94C113.233 52.82 113.333 52.6567 113.333 52.45C113.333 52.27 113.256 52.1267 113.103 52.02C112.956 51.9133 112.703 51.8433 112.343 51.81L111.863 51.76C111.256 51.6933 110.79 51.52 110.463 51.24C110.136 50.96 109.973 50.5867 109.973 50.12C109.973 49.7467 110.066 49.4333 110.253 49.18C110.44 48.9267 110.696 48.7367 111.023 48.61C111.356 48.4767 111.736 48.41 112.163 48.41C112.83 48.41 113.37 48.5567 113.783 48.85C114.196 49.1433 114.413 49.5733 114.433 50.14H113.183C113.17 49.9533 113.076 49.7933 112.903 49.66C112.73 49.5267 112.48 49.46 112.153 49.46C111.86 49.46 111.633 49.5167 111.473 49.63C111.313 49.7433 111.233 49.89 111.233 50.07C111.233 50.2433 111.296 50.3767 111.423 50.47C111.556 50.5633 111.77 50.6267 112.063 50.66L112.543 50.71C113.183 50.7767 113.683 50.9533 114.043 51.24C114.41 51.5267 114.593 51.9133 114.593 52.4C114.593 52.76 114.493 53.0733 114.293 53.34C114.1 53.6 113.826 53.8033 113.473 53.95C113.12 54.0967 112.703 54.17 112.223 54.17Z" fill="#AD0A00"/>
</svg>
