<svg xmlns="http://www.w3.org/2000/svg" enable-background="new 0 0 24 24" viewBox="0 0 24 24" width="120" height="60"><polygon fill="#C70B00" points="6.366 11.484 6.366 11.483 6.366 11.483"/><path fill="#C70B00" d="M5.668 12.853c-.079.239-.133.479-.182.711l.491.413c.024-.252.067-.504.127-.756L5.668 12.853zM5.395 15.207c.012.343.042.621.073.815l.727.278c-.055-.252-.109-.537-.145-.841L5.395 15.207 5.395 15.207zM2.831 10.493l-.43-.401c-.158.162-.309.323-.448.485l.467.426c.127-.175.267-.349.412-.511L2.831 10.493zM7.015 11.49l-.273-.44c-.139.136-.267.284-.376.433l.291.465C6.76 11.786 6.881 11.637 7.015 11.49zM7.645 7.894L7.524 7.5c-.188 0-.382.013-.582.039L7.057 7.92c.176-.019.352-.026.527-.026H7.645zM4.849 8.127C4.697 8.211 4.54 8.302 4.376 8.404l.279.453c.158-.103.309-.2.467-.284L4.849 8.127zM1 13.383l-.697-.272C.188 13.389.061 13.713 0 13.887l.697.271C.776 13.938.903 13.622 1 13.383z"/><polygon fill="#C70B00" points="5.122 8.572 5.122 8.572 5.122 8.573"/><path fill="#C70B00" d="M10.427,8.107c-0.055-0.032-0.206-0.11-0.588-0.226L9.814,8.308c0.2,0.071,0.394,0.149,0.588,0.232v0.001L10.427,8.107z"/><polygon fill="#C70B00" points="7.875 10.275 7.875 10.275 7.875 10.274"/><path fill="#C70B00" d="M10.427 9.995c-.206-.045-.406-.071-.6-.084v.001l-.024.407c.2.006.4.032.6.077L10.427 9.995zM8.541 10.494l-.133-.426c-.206.064-.382.136-.533.207l.139.446C8.19 10.63 8.366 10.552 8.541 10.494zM7.73 16.5h1.165v-1.112L9.9 16.5h1.722l-1.353-1.454v-.001c0 0 1.062-.096 1.062-1.557 0-1.462-1.286-1.598-1.286-1.598H7.73V16.5L7.73 16.5zM8.893 13.047h.934c0 0 .261.104.261.524 0 .421-.267.53-.267.53H8.893V13.047L8.893 13.047z"/><polygon fill="#C70B00" points="17.605 11.922 17.605 16.499 20.484 16.499 20.484 15.317 18.829 15.317 18.829 11.922 17.605 11.922"/><polygon fill="#C70B00" points="17.101 16.499 17.101 11.922 15.871 11.922 15.871 16.499 17.101 16.499"/><path fill="#C70B00" d="M14.203 11.922h-1.182c-.842 0-1.128.814-1.128 1.203V16.5h1.182v-.808h1.109V16.5h1.145v-3.375C15.331 12.143 14.494 11.922 14.203 11.922L14.203 11.922zM13.07 14.385v-1.119c0 0 0-.252.37-.252h.406c.327 0 .333.252.333.252v1.119H13.07L13.07 14.385zM23.843 13.099v-1.177h-1.879c-.485 0-1.133.427-1.133 1.223v.407c0 .795.642 1.202 1.133 1.202.316.002.465.002.527.003-.095-.001-.274-.003.406-.003v.57l-2.006.006V16.5h1.982c.406 0 1.104-.317 1.128-1.203v-.452c0-.757-.582-1.203-1.128-1.203h-.988v-.543H23.843L23.843 13.099z"/><path fill="#AD0A00" d="M11.22,14.211H7.73V16.5h1.165v-1.112L9.9,16.5h1.722l-1.353-1.454v-0.001C10.27,15.045,10.948,14.983,11.22,14.211L11.22,14.211z"/><polygon fill="#AD0A00" points="18.829 14.211 17.605 14.211 17.605 16.499 20.484 16.499 20.484 15.317 18.829 15.317 18.829 14.211"/><polygon fill="#AD0A00" points="17.101 14.211 15.871 14.211 15.871 16.499 17.101 16.499 17.101 14.211"/><polygon fill="#AD0A00" points="15.331 14.211 14.18 14.211 14.18 14.385 13.07 14.385 13.07 14.211 11.894 14.211 11.894 16.5 13.076 16.5 13.076 15.692 14.186 15.692 14.186 16.5 15.331 16.5 15.331 14.211"/><path fill="#AD0A00" d="M22.457,14.757c0.011,0,0.023,0,0.034,0C22.481,14.757,22.47,14.757,22.457,14.757L22.457,14.757z M23.837,14.211h-2.826c0.226,0.36,0.623,0.543,0.952,0.543c0.27,0.002,0.417,0.002,0.493,0.003c-0.091-0.001-0.164-0.003,0.44-0.003v0.57l-2.006,0.006V16.5h1.982c0.406,0,1.104-0.317,1.128-1.203v-0.452C24,14.599,23.939,14.386,23.837,14.211L23.837,14.211z"/><path fill="#C70B00" d="M0.468,16.183c-0.033,0.199-0.045,0.315-0.045,0.315l0.001,0.001h4.789c0,0-0.915-4.454,2.115-6.259c0.662-0.343,2.765-1.623,6.208,1.093c0.11-0.097,0.213-0.176,0.213-0.176s-3.153-3.355-6.663-2.981c-1.771,0.168-3.94,1.882-5.213,4.145C0.905,14.04,0.573,15.553,0.468,16.183L0.468,16.183z"/><path fill="#AD0A00" d="M6.423,8.305C4.8,8.771,2.991,10.334,1.872,12.321c-0.967,1.719-1.3,3.231-1.404,3.861c-0.033,0.199-0.045,0.315-0.045,0.315l0.001,0.001h4.789c0,0-0.715-3.477,1.21-5.532V8.305L6.423,8.305z"/></svg>
