<svg width="63" height="37" viewBox="0 0 63 37" fill="none" xmlns="http://www.w3.org/2000/svg">
<path fill-rule="evenodd" clip-rule="evenodd" d="M9.99414 9L9.99414 25C9.99414 26.1046 10.8896 27 11.9941 27H50.9941C52.0987 27 52.9941 27.8954 52.9941 29C52.9941 30.1046 52.0987 31 50.9941 31H7.99414C7.85607 31 7.72127 30.986 7.59107 30.9594C6.67971 30.7729 5.99414 29.9665 5.99414 29V9C5.99414 7.89543 6.88957 7 7.99414 7C9.09871 7 9.99414 7.89543 9.99414 9Z" fill="#C5CED3"/>
<rect x="16.2061" y="6.10352e-05" width="15.2285" height="15.8313" rx="1.6615" transform="rotate(90 16.2061 6.10352e-05)" fill="#2563EB"/>
<rect x="62.8252" y="21.0005" width="15.2285" height="15.8313" rx="1.6615" transform="rotate(90 62.8252 21.0005)" fill="#2563EB"/>
</svg>
